<svg xmlns="http://www.w3.org/2000/svg" width="25" height="23" viewBox="0 0 25 23">
  <g fill="#FFF" fill-rule="evenodd" transform="translate(0 -1)">
    <path fill-rule="nonzero" stroke="#FFF" d="M0.5,0.5 L0.5,15.5 L3.5,15.5 L3.5,0.5 L0.5,0.5 Z" transform="rotate(90 -2 18)"/>
    <path fill-rule="nonzero" d="M15 11L15 9 1 9 1 11 15 11zM16 11L16 12 1 12 0 12 0 8 1 8 16 8 16 9 16 11zM15 17L15 15 1 15 1 17 15 17zM16 17L16 18 1 18 0 18 0 14 1 14 16 14 16 15 16 17z"/>
    <path d="M20.5078125,3.484375 L20.5078125,5.5 L22.5,5.5 L22.5,6.484375 L20.5078125,6.484375 L20.5078125,8.5 L19.5,8.5 L19.5,6.484375 L17.5078125,6.484375 L17.5078125,5.5 L19.5,5.5 L19.5,3.484375 L20.5078125,3.484375 Z M16.453125,2.4765625 C17.4375049,1.49218258 18.6171806,1 19.9921875,1 C21.3671944,1 22.5468701,1.48827637 23.53125,2.46484375 C24.5156299,3.44141113 25.0078125,4.61718063 25.0078125,5.9921875 C25.0078125,7.36719437 24.5156299,8.54296387 23.53125,9.51953125 C22.5468701,10.4960986 21.3671944,10.984375 19.9921875,10.984375 C18.6171806,10.984375 17.4414111,10.4960986 16.4648438,9.51953125 C15.4882764,8.54296387 15,7.36719437 15,5.9921875 C15,4.61718063 15.4843702,3.44531734 16.453125,2.4765625 Z M17.1796875,8.828125 C17.9609414,9.60937891 18.9023382,10 20.0039062,10 C21.1054743,10 22.0468711,9.60937891 22.828125,8.828125 C23.6093789,8.04687109 24,7.10156805 24,5.9921875 C24,4.88280695 23.6093789,3.93750391 22.828125,3.15625 C22.0468711,2.37499609 21.1054743,1.984375 20.0039062,1.984375 C18.9023382,1.984375 17.9609414,2.37499609 17.1796875,3.15625 C16.3984336,3.93750391 16.0078125,4.88280695 16.0078125,5.9921875 C16.0078125,7.10156805 16.3984336,8.04687109 17.1796875,8.828125 Z"/>
  </g>
</svg>
