<svg xmlns="http://www.w3.org/2000/svg" viewBox="0 0 25.01 23"><defs><style>.cls-1{fill:#fff;}</style></defs><title>add-column</title><g id="Camada_2" data-name="Camada 2"><g id="Camada_1-2" data-name="Camada 1"><path class="cls-1" d="M0,23H4V7H0ZM1,8H3V22H1Z"/><path class="cls-1" d="M6,23h4V7H6ZM7,8H9V22H7Z"/><polygon class="cls-1" points="20.51 2.48 19.5 2.48 19.5 4.5 17.51 4.5 17.51 5.48 19.5 5.48 19.5 7.5 20.51 7.5 20.51 5.48 22.5 5.48 22.5 4.5 20.51 4.5 20.51 2.48"/><path class="cls-1" d="M23.53,1.46a5,5,0,0,0-7.08,0A4.79,4.79,0,0,0,15,5a4.9,4.9,0,0,0,.42,2H12V23h4V8a5.33,5.33,0,0,0,.46.56,5,5,0,0,0,7.07,0A4.79,4.79,0,0,0,25,5,4.79,4.79,0,0,0,23.53,1.46Zm-.7,6.36a4,4,0,0,1-5.65,0A3.86,3.86,0,0,1,16,5a3.86,3.86,0,0,1,1.17-2.84,4,4,0,0,1,5.65,0A3.86,3.86,0,0,1,24,5,3.86,3.86,0,0,1,22.83,7.83Z"/></g></g></svg>