<svg viewBox="0 0 36 18" version="1.1" xmlns="http://www.w3.org/2000/svg">
    <path d="M27.2360055,3 C24.665094,3 22.4937782,3.85376094 20.5979955,5.6100603 C19.6052471,6.52980519 18.7723069,7.61928951 17.999975,8.79082747 C17.2276432,7.61928951 16.394703,6.52980519 15.4019046,5.6100603 C13.5061719,3.85376094 11.334856,3 8.76394453,3 C3.9315036,3 0,6.94053845 0,11.7840804 C0,16.6142911 3.91003607,20.5465106 8.72430449,20.5680574 C11.3262191,20.6999736 13.5036258,19.8545317 15.4024538,17.980164 C16.3979481,16.9974837 17.2307884,15.8166966 17.999975,14.5915758 C18.7691616,15.8166966 19.602002,16.9974837 20.5974464,17.980164 C22.3706144,19.7304178 24.3872643,20.5812335 26.7626215,20.5812335 C26.9310668,20.5812335 27.103456,20.5767898 27.2756955,20.5680574 C32.0899639,20.5465106 36,16.6142911 36,11.7840804 C36,6.94053845 32.0684964,3 27.2360055,3 Z M13.3351306,15.7366582 C12.0318019,17.0232159 10.617491,17.5670538 8.84267545,17.4700156 L8.76394453,17.4678971 C5.5832054,17.4678971 2.99546935,14.9181369 2.99546935,11.7840804 C2.99546935,8.65002383 5.5832054,6.10026366 8.76394453,6.10026366 C10.5895333,6.10026366 12.0639533,6.6785145 13.4040763,7.92006675 C14.4709127,8.90837914 15.3446912,10.1993289 16.2391882,11.6677688 C15.3139377,13.2216726 14.415896,14.6698058 13.3351306,15.7366582 Z M27.2360055,17.4678971 L27.1572746,17.4700156 C25.383108,17.5667955 23.9681482,17.0231642 22.6648694,15.7366582 C21.5840541,14.6698058 20.6860124,13.2216726 19.7608118,11.6677688 C20.6552589,10.1993289 21.5290873,8.90837914 22.5958737,7.92006675 C23.9359469,6.6785145 25.4104667,6.10026366 27.2360055,6.10026366 C30.4167946,6.10026366 33.0045306,8.65002383 33.0045306,11.7840804 C33.0045306,14.9181369 30.4167946,17.4678971 27.2360055,17.4678971 Z M27.6320066,8.97622324 L25.9413637,8.97622324 L25.9413637,10.6573929 L24.3170704,10.6573929 L24.3170704,12.398656 L25.9413637,12.398656 L25.9413637,14.0924333 L27.6320066,14.0924333 L27.6320066,12.398656 L29.2562998,12.398656 L29.2562998,10.6573929 L27.6320066,10.6573929 L27.6320066,8.97622324 Z M6.33187304,10.6363111 L11.6706981,10.6363111 L11.6706981,12.4323455 L6.33187304,12.4323455 L6.33187304,10.6363111 Z" id="Fill-13"></path>
</svg>