<svg data-name="Layer 1" xmlns="http://www.w3.org/2000/svg" viewBox="0 0 800 340"><path d="M107 182.16a25.92 25.92 0 0 1-10.87 21.91 37.34 37.34 0 0 1-11.76 5.63 51 51 0 0 1-14.25 1.93H14.89V97.3h61.19a22.57 22.57 0 0 1 10.79 2.58 26.91 26.91 0 0 1 8.21 6.68 30.73 30.73 0 0 1 5.23 9.34 31.52 31.52 0 0 1 1.85 10.55A31.15 31.15 0 0 1 98 142.14 25.51 25.51 0 0 1 85.74 153a29.43 29.43 0 0 1 15.54 10.39q5.72 7.5 5.72 18.77zM37.11 116.3v28.82h29.63a13.19 13.19 0 0 0 9.58-3.86q3.94-3.87 3.95-10.63 0-6.6-3.63-10.47a11.76 11.76 0 0 0-8.94-3.86zm47.5 61.7a16.84 16.84 0 0 0-1-5.88 16.47 16.47 0 0 0-2.82-4.91 13.15 13.15 0 0 0-4.19-3.3 11.7 11.7 0 0 0-5.31-1.21H37.11v30.11h33a14.45 14.45 0 0 0 5.72-1.13 13.63 13.63 0 0 0 4.59-3.14A15.28 15.28 0 0 0 84.61 178zM145.32 213.24a32.11 32.11 0 0 1-11.43-2 27.59 27.59 0 0 1-9.18-5.64 26.2 26.2 0 0 1-6-8.45 25.64 25.64 0 0 1-2.17-10.63 23.4 23.4 0 0 1 2.66-11 25.25 25.25 0 0 1 7.41-8.62 36.78 36.78 0 0 1 11.35-5.55 49.45 49.45 0 0 1 14.49-2 62.61 62.61 0 0 1 11 1A44.92 44.92 0 0 1 173 163v-4.83q0-8.37-4.75-12.88t-14.09-4.51a37.25 37.25 0 0 0-13.2 2.42 61.25 61.25 0 0 0-13.2 7.08l-6.6-13.68a62.3 62.3 0 0 1 35.1-10.79q18.19 0 28.26 8.94t10.06 25.85v26.25c0 2.25.4 3.86 1.21 4.83a5.26 5.26 0 0 0 3.94 1.61v18.36a48.38 48.38 0 0 1-9.5 1.13q-6.12 0-9.42-2.74a11.74 11.74 0 0 1-4.1-7.25l-.49-4.67a37.36 37.36 0 0 1-13.69 11.27 39.31 39.31 0 0 1-17.21 3.85zm6.12-15.78a28.19 28.19 0 0 0 10.39-1.93 18.87 18.87 0 0 0 7.65-5.15c2.36-1.82 3.54-3.87 3.54-6.12v-9.66a53.13 53.13 0 0 0-8.37-2.33 45.18 45.18 0 0 0-8.7-.89q-8.37 0-13.69 3.78t-5.26 9.58a11.52 11.52 0 0 0 4.19 9.1 15.21 15.21 0 0 0 10.26 3.62zM209.41 169.44a45.86 45.86 0 0 1 3.06-16.75 40.81 40.81 0 0 1 8.85-13.85 43.29 43.29 0 0 1 14-9.5 46.34 46.34 0 0 1 18.52-3.54q13.85 0 23.59 6A38.07 38.07 0 0 1 292 147.38l-21.1 6.45a19 19 0 0 0-7.25-7.17 20.27 20.27 0 0 0-10-2.5A20.59 20.59 0 0 0 245 146a21.45 21.45 0 0 0-7 5.15 23.84 23.84 0 0 0-4.67 8 30.08 30.08 0 0 0-1.69 10.31 28.8 28.8 0 0 0 1.77 10.31 25.89 25.89 0 0 0 4.75 8.05 20.82 20.82 0 0 0 7 5.23 20.13 20.13 0 0 0 8.54 1.86 20.75 20.75 0 0 0 10.71-2.9 16.31 16.31 0 0 0 6.84-7.09l21.1 6.44A35.44 35.44 0 0 1 278 207.12q-10 6.13-24 6.12a46.34 46.34 0 0 1-18.52-3.55 42 42 0 0 1-22.95-23.59 45.1 45.1 0 0 1-3.12-16.66zM363.2 211.63l-24.48-36.55-11.6 11.43v25.12h-21.57V94.07h21.58v71.34l33.82-38h23l-31.4 35.75 33.66 48.47zM435.83 232.08v-24h-47v-19.15l53.95-69.24h14.65v69.08h14.17v19.33h-14.19v24zm-25.44-43.32h27.86v-36.39zM522 97.3h19.65l43.48 114.33h-22.89l-10.63-28.5h-39.93l-10.47 28.5h-22.87zm25.6 70.21l-15.78-44.93-16.42 44.93zM646.14 213.24a33.25 33.25 0 0 1-17.39-4.43 31.45 31.45 0 0 1-11.6-12v49.12h-21.58V127.25h18.84v14.5a34.42 34.42 0 0 1 12.08-11.68 33.57 33.57 0 0 1 17.07-4.27 36.14 36.14 0 0 1 15.78 3.46 39.1 39.1 0 0 1 12.48 9.34 43.54 43.54 0 0 1 8.18 13.85 47.71 47.71 0 0 1 3 16.82 53.2 53.2 0 0 1-2.74 17.23 44.1 44.1 0 0 1-7.65 14 35.69 35.69 0 0 1-11.61 9.36 32.64 32.64 0 0 1-14.86 3.38zm-7.25-18.36a19.4 19.4 0 0 0 8.94-2.1 21.57 21.57 0 0 0 7-5.63 26.44 26.44 0 0 0 4.51-8.22 29.48 29.48 0 0 0 1.61-9.66 27.28 27.28 0 0 0-1.77-9.9 24.6 24.6 0 0 0-4.91-8 22.81 22.81 0 0 0-7.41-5.31 22.14 22.14 0 0 0-9.26-1.93 20.13 20.13 0 0 0-6.28 1 21.87 21.87 0 0 0-6 3 25.94 25.94 0 0 0-4.91 4.51 18.72 18.72 0 0 0-3.3 5.63v19.81a28.68 28.68 0 0 0 8.85 12 20.27 20.27 0 0 0 12.93 4.81zM748.24 213.24a33.25 33.25 0 0 1-17.39-4.43 31.45 31.45 0 0 1-11.6-12v49.12h-21.58V127.25h18.84v14.5a34.42 34.42 0 0 1 12.08-11.68 33.57 33.57 0 0 1 17.07-4.27 36.14 36.14 0 0 1 15.78 3.46 39.1 39.1 0 0 1 12.48 9.34 43.54 43.54 0 0 1 8.21 13.85 47.71 47.71 0 0 1 3 16.82 53.2 53.2 0 0 1-2.74 17.23 44.1 44.1 0 0 1-7.65 14 35.69 35.69 0 0 1-11.67 9.34 32.64 32.64 0 0 1-14.83 3.4zM741 194.89a19.4 19.4 0 0 0 8.94-2.1 21.57 21.57 0 0 0 7-5.63 26.44 26.44 0 0 0 4.51-8.22 29.48 29.48 0 0 0 1.61-9.66 27.28 27.28 0 0 0-1.77-9.9 24.6 24.6 0 0 0-4.91-8 22.81 22.81 0 0 0-7.41-5.31 22.14 22.14 0 0 0-9.26-1.93 20.13 20.13 0 0 0-6.28 1 21.87 21.87 0 0 0-6 3 25.94 25.94 0 0 0-4.91 4.51 18.72 18.72 0 0 0-3.3 5.63v19.81a28.68 28.68 0 0 0 8.85 12 20.27 20.27 0 0 0 12.93 4.8z"/></svg>