<svg data-name="Layer 1" xmlns="http://www.w3.org/2000/svg" viewBox="0 0 340 340"><path d="M87.36 133.44l.42-.26c.28-.17.69-.44 1.24-.75 1.1-.61 2.7-1.56 4.8-2.61 1-.53 2.22-1.09 3.5-1.7s2.68-1.21 4.18-1.86 3.11-1.28 4.82-2 3.52-1.31 5.41-2c.95-.33 1.92-.64 2.92-1s2-.67 3-1 2.09-.61 3.17-.92 2.16-.63 3.28-.92 2.25-.57 3.4-.85 2.31-.58 3.49-.83 2.38-.52 3.59-.75 2.43-.51 3.68-.71c5-.89 10.13-1.62 15.41-2.12l4-.31c1.33-.11 2.67-.21 4-.26l8.25-.21 7.84.21c1.33 0 2.72.15 4.07.26l4.06.31a182 182 0 0 1 15.42 2.11c1.24.2 2.46.48 3.68.71s2.41.49 3.59.75 2.34.56 3.49.83 2.28.55 3.4.85 2.2.62 3.28.92 2.14.6 3.17.92 2 .66 3 1 2 .63 2.92 1 1.87.68 2.77 1 1.78.65 2.64 1c1.7.68 3.32 1.32 4.82 2s2.9 1.26 4.18 1.87 2.45 1.17 3.5 1.7c2.1 1.05 3.7 2 4.8 2.61.55.31 1 .58 1.24.75l.42.27-1.79-.57c-1.17-.36-2.9-.88-5.1-1.5l-3.66-1-4.33-1.11c-1.55-.37-3.2-.78-4.94-1.18s-3.58-.81-5.5-1.22-3.92-.81-6-1.21-4.23-.79-6.45-1.16-4.5-.74-6.84-1.08-4.73-.67-7.16-1-4.92-.56-7.43-.8-5.06-.43-7.63-.61-5.17-.28-7.77-.39l-7.84-.14-7.84.14c-2.6.11-5.2.26-7.77.39s-5.12.41-7.63.61-5 .54-7.43.8-4.82.65-7.16 1-4.61.73-6.84 1.08-4.37.79-6.45 1.16-4.08.82-6 1.21-3.75.83-5.5 1.22l-4.94 1.18-4.33 1.11-3.66 1c-2.2.62-3.93 1.14-5.1 1.5zM288.37 213.63c-3.7-14.81-13.3-26.38-28.52-34.41-17-9-39.74-7.59-58.33-3.94-2-6.74-6.31-11.32-10.14-10.46s-5.89 7-4.83 14c-8 2.25-14.13 4.48-16.88 5.54-2.74-1.06-8.82-3.28-16.82-5.53 1.06-7.07-1-13.19-4.83-14.06s-8.14 3.72-10.14 10.47c-18.6-3.66-41.37-5-58.4 3.93-15.22 8-24.82 19.6-28.52 34.41-4.19 16.76-.85 37.17 9.94 60.65a187.47 187.47 0 0 0 17.33 30.11l4.77 6.53 11.79-44.66a115 115 0 0 0 15.42 16.33c17.59 15.29 38.16 23.38 59.49 23.38 19.47 0 39.44-8.07 57.75-23.33a139.11 139.11 0 0 0 17-16.84l11.91 45.12 4.77-6.48a187.47 187.47 0 0 0 17.33-30.11c10.76-23.48 14.1-43.89 9.91-60.65zM130.16 288.1c-32.75-23.52-13.09-28-4.25-28.87l3.62-.2 6.71-24.62c5 4.87 16.94 14.53 33.23 14.53s28.54-9.72 33.61-14.58L209.8 259l3.63.2c7.63.74 23.32 4.19 6.39 20.25-20.31 16-38.37 19.44-50.12 19.44a77.59 77.59 0 0 1-39.54-10.79zm39.5-62.79c10.72 0 19.9 4.3 23.77 10.4-5.13 4-13.49 8.87-23.93 8.87s-18.6-4.81-23.64-8.81c3.84-6.13 13.05-10.46 23.8-10.46zm101.89 46.11a190.47 190.47 0 0 1-12 22.1l-10.37-39.28-33.38-1.86-7.07-26-39-17.43-39 17.43-7.07 26-33.38 1.86-10.47 39.28a190.34 190.34 0 0 1-12-22c-12.61-27.52-12.13-45.8-9.5-56.32 3.21-12.83 11.59-22.89 24.9-29.91 8.09-4.26 17.88-5.83 27.89-5.83 27.47 0 56.63 11.77 57 11.93l1.53.62 1.53-.62c.54-.22 54.68-22 84.93-6.11 13.31 7 21.69 17.08 24.9 29.9 4.79 19.02-2.49 41.08-9.44 56.24z"/><path d="M108.94 99.2L75.67 40.87l6.44 1.75-.63.42-.68.48-1.38 1c-.92.67-1.83 1.37-2.73 2.09Q74 48.74 71.35 51c-3.49 3-6.85 6.27-10.07 9.62a166.83 166.83 0 0 0-17.54 21.69 160.92 160.92 0 0 0-13.62 24.28c-1.91 4.23-3.65 8.54-5.18 12.93s-2.85 8.84-4 13.34-2.06 9.06-2.81 13.64-1.27 9.21-1.63 13.84l-.24 3.48-.14 3.49c-.06 1.16-.07 2.33-.08 3.49s0 2.33 0 3.49c.05 2.33.05 4.66.19 7 .06 1.16.09 2.33.18 3.49l.26 3.49c.07 1.16.2 2.32.32 3.48l.37 3.48.46 3.47c.15 1.16.3 2.32.5 3.47.37 2.31.73 4.62 1.2 6.91l.66 3.44.75 3.43c1 4.57 2.2 9.11 3.47 13.62.64 2.25 1.36 4.49 2 6.74l2.24 6.69v.12a4.5 4.5 0 0 1-8.53 2.84L17.85 239c-.7-2.33-1.44-4.64-2.11-7-1.32-4.68-2.56-9.39-3.6-14.14l-.78-3.57-.69-3.59c-.48-2.39-.86-4.8-1.25-7.21-.21-1.2-.37-2.41-.53-3.62l-.48-3.63-.41-3.6c-.13-1.21-.26-2.43-.34-3.65l-.28-3.65c-.09-1.22-.12-2.44-.19-3.66-.15-2.44-.15-4.89-.2-7.33v-3.67c0-1.22 0-2.45.09-3.67l.15-3.67.25-3.67c.38-4.88.91-9.76 1.72-14.6s1.74-9.66 3-14.41 2.62-9.46 4.23-14.1 3.45-9.19 5.47-13.66a169.92 169.92 0 0 1 14.4-25.65 175.81 175.81 0 0 1 18.49-22.82q5.09-5.31 10.64-10.17 2.78-2.43 5.69-4.72c1-.77 2-1.52 3-2.26l1.53-1.1.78-.55.86-.57.3-.18a4.3 4.3 0 0 1 5.9 1.47 4.77 4.77 0 0 1 .24.46l27.43 61.29a1.22 1.22 0 0 1-2.18 1.11zM228.88 98.09l27.43-61.29a4.3 4.3 0 0 1 5.69-2.16 4.34 4.34 0 0 1 .44.23l.32.19.86.57.78.55 1.53 1.1c1 .74 2 1.49 3 2.26q2.91 2.3 5.69 4.72 5.56 4.85 10.64 10.17a175.83 175.83 0 0 1 18.44 22.82 169.92 169.92 0 0 1 14.38 25.63c2 4.47 3.85 9 5.47 13.66s3 9.34 4.23 14.1 2.17 9.57 3 14.41 1.34 9.72 1.72 14.6l.25 3.67.15 3.67c.06 1.22.08 2.45.09 3.67s0 2.45 0 3.67c-.05 2.45-.05 4.89-.2 7.33-.06 1.22-.1 2.44-.19 3.66l-.28 3.65c-.08 1.22-.21 2.43-.34 3.65l-.38 3.64-.48 3.63c-.16 1.21-.32 2.42-.53 3.62-.39 2.41-.76 4.82-1.25 7.21l-.69 3.59-.78 3.57c-1 4.76-2.28 9.46-3.6 14.14-.67 2.34-1.41 4.65-2.11 7l-2.3 6.91a4.5 4.5 0 0 1-8.53-2.84v-.12l2.22-6.68c.68-2.25 1.39-4.48 2-6.74 1.27-4.51 2.47-9 3.47-13.62l.75-3.43.66-3.44c.47-2.29.82-4.6 1.2-6.91.2-1.15.35-2.31.5-3.47l.46-3.47.37-3.48c.12-1.16.25-2.32.32-3.48l.26-3.49c.08-1.16.12-2.33.18-3.49.14-2.33.14-4.66.19-7v-3.49c0-1.16 0-2.33-.08-3.49l-.14-3.49-.24-3.48c-.36-4.64-.86-9.26-1.63-13.84s-1.65-9.15-2.81-13.64-2.47-9-4-13.34-3.27-8.69-5.18-12.93a160.9 160.9 0 0 0-13.62-24.28 166.83 166.83 0 0 0-17.55-21.65c-3.22-3.36-6.58-6.57-10.07-9.62q-2.62-2.29-5.33-4.43c-.9-.71-1.82-1.41-2.73-2.09l-1.38-1-.68-.48-.63-.42 6.44-1.75-33.22 58.35a1.22 1.22 0 0 1-2.18-1.11z"/><path d="M297.08 172l-.08-.13c-.29-.46-.49-.73-.73-1.07s-.47-.63-.7-.92c-.46-.59-.94-1.14-1.43-1.69h.12c0-45.09-27.68-93.4-64-113.14l-2.45 7.35c15.05 8.5 29 22.65 39.74 40.53a137.44 137.44 0 0 1 15.17 35.76c1.26 5.72 2.09 17.08-12.89 12.35l-.55-.27a148.41 148.41 0 0 0-15.83-6.39c-2.68-1-5.39-1.73-8.11-2.54l-4.09-1.1c-.68-.18-1.36-.37-2-.54l-2.06-.49c-5.48-1.36-11-2.4-16.55-3.31-2.77-.43-5.55-.82-8.33-1.21s-5.56-.69-8.35-1-5.57-.54-8.36-.71-5.58-.37-8.37-.49l-8.37-.32-8.37-.14h-1.33l-8.37.14-8.37.32c-2.79.12-5.58.33-8.37.49s-5.58.45-8.36.71-5.57.65-8.35 1-5.56.78-8.33 1.21c-5.55.91-11.08 2-16.55 3.31l-2.06.49c-.69.16-1.37.36-2 .54l-4.09 1.1c-2.71.81-5.43 1.58-8.11 2.54a148.67 148.67 0 0 0-15.74 6.35c-16.14 5.41-14.86-7.05-13.57-12.65a137.71 137.71 0 0 1 14.87-35c10.69-17.85 24.54-32 39.5-40.51l-2.31-7.43c-36.14 19.71-63.73 68-63.73 113h.32c-.48.55-1 1.11-1.43 1.69-.24.29-.47.61-.7.92s-.44.61-.73 1.07l-.08.13a2.21 2.21 0 0 0-.3 1.6c.07.42.13.72.2 1.07s.15.67.23 1q.24 1 .55 2a27.84 27.84 0 0 0 1.52 3.86 19 19 0 0 0 2.11 3.41 38.9 38.9 0 0 0 .43 8.61c1 5.15 3.31 6.54 5.09 6.8a4.67 4.67 0 0 0 .68 0h.48a71.91 71.91 0 0 0 1.63 11.48c4.41-13.5 13.25-24.23 26.36-32 .63-.37 1.28-.72 1.92-1.06a63.33 63.33 0 0 1-1.79-6.72c-.65-6.8 1.55-17.48 20-21.68l.74-.15 2-.37 1.53-.28h.25l2.21-.4 4-.63 2-.32 2-.28 4-.56c2.68-.33 5.37-.63 8.06-.92s5.39-.5 8.1-.69c1.35-.09 2.71-.17 4.06-.27s2.7-.22 4.06-.27c2.71-.13 5.42-.3 8.13-.39l8.15-.23 8.16-.06h1.27l8.16.06 8.15.23c2.71.09 5.42.27 8.13.39 1.36.05 2.71.18 4.06.27l4.06.27c2.7.19 5.4.47 8.1.69s5.38.59 8.06.92l4 .56 2 .28 2 .32 4 .63.92.17c23.24 3.48 25.31 16.1 24.42 23.35a65.68 65.68 0 0 1-1.36 5.4l-.08.26q1.53.76 3 1.62c13.18 7.77 22.05 18.58 26.43 32.18a71.92 71.92 0 0 0 1.69-11.7h.35a4.67 4.67 0 0 0 .68 0c1.78-.26 4.1-1.66 5.09-6.8a38.86 38.86 0 0 0 .43-8.6 19 19 0 0 0 2.12-3.42 27.78 27.78 0 0 0 1.52-3.86q.31-1 .55-2 .12-.5.23-1c.07-.35.13-.65.2-1.07a2.21 2.21 0 0 0-.26-1.65z"/><path d="M231.35 50.34L231 50l-.58-.73-.44-.53a33.121 33.121 0 0 0-2.54-2.61c-1.15-1-2.31-2-3.5-2.85a54.33 54.33 0 0 0-7.32-4.49 72 72 0 0 0-7.6-3.33c-2.56-1-5.14-1.77-7.74-2.47s-5.19-1.28-7.8-1.77c-1.3-.25-2.6-.47-3.91-.66l-3.86-.56c-2.61-.31-5.22-.5-7.82-.67q-1.95-.09-3.9-.15l-4-.07-4 .07q-1.95.06-3.9.15c-2.6.17-5.21.36-7.82.67l-3.91.52c-1.31.2-2.61.42-3.91.66-2.61.49-5.21 1.06-7.8 1.77s-5.18 1.5-7.74 2.47a72 72 0 0 0-7.6 3.33 54.33 54.33 0 0 0-7.31 4.53c-1.18.88-2.35 1.81-3.5 2.85-.57.52-1.13 1.09-1.69 1.67-.28.3-.56.61-.85.94l-.44.53-.52.73-.31.35a5.16 5.16 0 0 0-.93 5l16.23 48.34a1.22 1.22 0 0 0 1.4.87 1.38 1.38 0 0 0 1-1.63l-8.72-47.15.11-.1a33.75 33.75 0 0 1 2.79-2.05 49.83 49.83 0 0 1 6.29-3.42c2.2-1 4.48-1.84 6.79-2.62s4.68-1.38 7.06-2 4.79-1 7.21-1.41c1.21-.19 2.43-.35 3.64-.52l3.66-.42c2.45-.25 4.9-.38 7.36-.5l3.69-.13 3.67-.06h.25l3.67.06 3.69.13c2.46.12 4.92.25 7.36.5l3.66.42c1.22.17 2.43.33 3.64.52 2.42.38 4.83.83 7.21 1.41s4.75 1.17 7.06 2 4.59 1.63 6.79 2.62a49.83 49.83 0 0 1 6.29 3.42 33.75 33.75 0 0 1 2.79 2.05l.11.1-8.72 47.15a1.38 1.38 0 0 0 1 1.63 1.22 1.22 0 0 0 1.4-.87l16.23-48.34a5.16 5.16 0 0 0-1.02-5.01zm-115.63 7.3l-.06.06.06-.08zm108.56 0v-.06l.06.08z"/></svg>