<svg xmlns="http://www.w3.org/2000/svg" viewBox="0 0 100 100"><path d="M49.733 10.92c-7.876 0-14.26 7.204-14.26 15.08h28.52c0-7.876-6.383-15.08-14.26-15.08z"/><path d="M100 51.888V44H78.842v-5.384c7.122-1.008 12.624-7.128 12.624-14.525V16h-7.968v8.092c0 3.705-3.014 6.72-6.718 6.72H23.273c-3.705 0-6.72-3.015-6.72-6.72V16H8.587v8.092c0 7.193 5.202 13.183 12.04 14.435V44H0v7.888h20.625v5.884c-6.837 1.252-12.04 7.242-12.04 14.435V81h7.97v-8.793c0-2.975 1.956-5.475 4.64-6.356C23.65 78.16 33.34 87.7 46 89.08V38.778h7V89.08c12.718-1.392 22.92-11.005 25.313-23.398 2.965.698 5.185 3.35 5.185 6.526V81h7.968v-8.793c0-7.397-5.502-13.517-12.624-14.525v-5.795H100z"/></svg>