<?xml version="1.0" encoding="utf-8"?>
<!-- Generator: Adobe Illustrator 19.1.0, SVG Export Plug-In . SVG Version: 6.00 Build 0)  -->
<svg version="1.1" id="Layer_1" xmlns="http://www.w3.org/2000/svg" xmlns:xlink="http://www.w3.org/1999/xlink" x="0px" y="0px"
	 viewBox="-719 451 100 100" style="enable-background:new -719 451 100 100;" xml:space="preserve">
<g>
	<path d="M-630.118,494.433c-1.066-16.557-14.875-29.702-31.695-29.702c-6.074,0-11.979,1.721-17.077,4.978
		c-3.596,2.297-6.677,5.278-9.077,8.759c-1.666-0.528-3.414-0.799-5.197-0.799c-9.501,0-17.23,7.729-17.23,17.23
		c0,0.424,0.016,0.848,0.047,1.271c-5.405,4.346-8.651,10.979-8.651,18.01c0,12.731,10.359,22.82,23.091,22.82h53.821
		c12.731,0,23.088-10.089,23.088-22.82C-619,506.022-623.275,498.577-630.118,494.433z M-642.088,533h-53.821
		c-10.091,0-18.272-8.731-18.272-18.82c0-6.748,3.662-12.638,9.102-15.801c-0.321-1.105-0.498-2.272-0.498-3.481
		c0-6.854,5.557-12.411,12.412-12.411c2.645,0,5.094,0.83,7.107,2.243c4.368-8.987,13.582-15.18,24.245-15.18
		c14.88,0,26.942,12.064,26.942,26.945c0,0.299-0.013,0.593-0.023,0.889c6.512,2.792,11.074,9.26,11.074,16.796
		C-623.819,524.269-631.998,533-642.088,533z"/>
	<ellipse cx="-684.636" cy="504.314" rx="3.511" ry="4.976"/>
	<ellipse cx="-653.363" cy="504.314" rx="3.509" ry="4.976"/>
	<path d="M-660.336,514.667c-2.114,2.124-5.271,3.342-8.662,3.342c-3.392,0-6.549-1.218-8.663-3.342
		c-0.708-0.712-1.856-0.713-2.564-0.007c-0.71,0.707-0.713,1.856-0.007,2.564c2.791,2.805,6.886,4.413,11.234,4.413
		c4.351,0,8.443-1.608,11.233-4.413c0.706-0.71,0.703-1.857-0.006-2.564C-658.481,513.954-659.628,513.957-660.336,514.667z"/>
</g>
</svg>
