<svg xmlns="http://www.w3.org/2000/svg" viewBox="0 0 100 100"><path d="M89.884 25.48c-6.55-6.55-15.257-10.155-24.52-10.155-3.04 0-6.012.426-8.877 1.18 2.302 1.504 4.463 3.24 6.453 5.23.736.736 1.436 1.502 2.11 2.287.106 0 .21-.015.316-.015 6.943 0 13.47 2.704 18.38 7.613 10.134 10.134 10.134 26.625 0 36.76-3.566 3.566-7.99 5.95-12.8 6.997-.202.044-.403.098-.605.137-.68.13-1.364.227-2.06.304-.254.028-.51.05-.77.07-.54.044-1.084.07-1.632.08-.294.005-.588.01-.88.006-.566-.008-1.128-.04-1.686-.082-.396-.032-.79-.073-1.185-.123-.243-.03-.484-.07-.726-.11-.94-.148-1.87-.335-2.787-.58l-.013-.005c.2-.19.405-.367.6-.562 13.52-13.52 13.52-35.518 0-49.038-6.55-6.55-15.257-10.155-24.52-10.155s-17.97 3.61-24.52 10.157C3.608 32.03 0 40.737 0 50c0 6.373 1.745 12.463 4.943 17.788L1.78 81.674c-.166.732.49 1.387 1.22 1.22l13.887-3.162c5.325 3.198 11.416 4.943 17.788 4.943 3.144 0 6.214-.448 9.168-1.254-2.41-1.54-4.665-3.34-6.737-5.41-.658-.66-1.287-1.34-1.895-2.04-.18.004-.35.026-.53.026-6.944 0-13.47-2.704-18.38-7.614-4.91-4.91-7.614-11.435-7.614-18.38S11.39 36.53 16.3 31.62c4.91-4.91 11.436-7.61 18.38-7.61 2.32 0 4.587.33 6.77.913-.2.19-.406.367-.6.56C34.298 32.03 30.69 40.74 30.69 50c0 4.128.755 8.132 2.13 11.898l-.03.01c.058.156.136.3.195.454.3.785.633 1.554.99 2.315.164.353.323.71.5 1.056.36.706.758 1.39 1.167 2.072.22.366.425.74.658 1.097.436.667.916 1.308 1.4 1.948.244.323.467.66.724.975.757.93 1.56 1.833 2.42 2.694 6.55 6.55 15.257 10.152 24.52 10.152.142 0 .282-.02.425-.02.83-.01 1.663-.054 2.5-.123.33-.027.653-.057.98-.094.904-.102 1.81-.227 2.707-.4.276-.054.546-.126.82-.186.465-.1.932-.194 1.395-.316l-.008-.03c3.156-.825 6.163-2.093 8.962-3.774l13.885 3.16c.733.168 1.388-.487 1.22-1.22l-3.164-13.9c7.96-13.314 6.25-30.84-5.205-42.292zm-42.9 6.14c.952-.95 1.984-1.783 3.048-2.56 1.057.777 2.078 1.614 3.023 2.56 10.134 10.134 10.134 26.625 0 36.76-.95.95-1.982 1.783-3.047 2.56-.265-.195-.534-.382-.792-.588-.196-.155-.39-.315-.582-.476-.565-.477-1.12-.968-1.65-1.496-.644-.645-1.245-1.32-1.812-2.017-.2-.247-.375-.51-.566-.762-.352-.462-.704-.93-1.022-1.42-.187-.28-.35-.58-.525-.87-.297-.49-.586-.98-.84-1.49-.15-.28-.276-.57-.41-.854-.254-.547-.496-1.1-.71-1.666-1.12-2.93-1.73-6.064-1.73-9.296 0-6.943 2.703-13.47 7.612-18.38z"/></svg>