<svg xmlns="http://www.w3.org/2000/svg" viewBox="0 0 100 100"><path d="M89.88 25.47c-6.552-6.55-15.263-10.16-24.53-10.16-5.418 0-10.63 1.267-15.35 3.602-4.72-2.335-9.933-3.602-15.352-3.602-9.266 0-17.976 3.608-24.53 10.16C-1.34 36.93-3.05 54.46 4.91 67.78L1.74 81.686c-.166.732.49 1.388 1.222 1.22l13.892-3.162c5.327 3.2 11.42 4.945 17.794 4.945 5.42 0 10.633-1.27 15.352-3.608 4.718 2.335 9.932 3.603 15.35 3.603 6.376 0 12.47-1.746 17.797-4.946l13.892 3.163c.73.167 1.383-.49 1.22-1.22L95.09 67.78c7.96-13.32 6.247-30.85-5.213-42.31zM45.96 73.5c-.51.517-1.182.775-1.853.775-.662 0-1.323-.25-1.83-.752l-.227-.223c-12.848-12.847-12.848-33.753 0-46.6 1.018-1.02 2.667-1.02 3.685 0 1.018 1.016 1.018 2.667 0 3.684C34.92 41.2 34.92 58.8 45.735 69.616l.203.2c1.023 1.012 1.034 2.66.022 3.685zm37.78-5.113c-4.913 4.912-11.443 7.617-18.39 7.617-2.327 0-4.6-.33-6.788-.918.2-.192.418-.36.615-.558 13.526-13.525 13.526-35.532 0-49.058-.197-.197-.413-.365-.613-.556 2.188-.588 4.46-.918 6.787-.918 6.95 0 13.48 2.705 18.39 7.616 10.14 10.14 10.14 26.636 0 36.775z"/></svg>