<svg xmlns="http://www.w3.org/2000/svg" viewBox="0 0 100 100"><path d="M89.477 50c.078-.117.17-.232.247-.35 6.085-9.34 7.35-18.095 3.567-24.65-3.46-6-10.78-9.304-20.61-9.304-.955 0-1.933.042-2.92.104C64.878 6.033 57.885 0 49.99 0S35.104 6.033 30.23 15.8c-.99-.062-1.97-.104-2.922-.104C17.478 15.696 10.156 19 6.69 25c-3.943 6.832-2.22 15.9 3.79 25-6.012 9.1-7.734 18.168-3.79 25 3.465 6 10.786 9.304 20.617 9.304.955 0 1.933-.042 2.92-.104C35.1 93.967 42.097 100 49.99 100s14.887-6.033 19.762-15.8c.988.062 1.968.104 2.92.104 9.83 0 17.152-3.304 20.616-9.304 3.786-6.555 2.518-15.31-3.567-24.65-.07-.118-.162-.232-.24-.35zM72.675 21.748c7.576 0 13.036 2.23 15.374 6.28 2.37 4.106 1.46 10.172-2.47 16.817-2.82-3.353-6.138-6.604-9.87-9.656-.78-4.85-1.94-9.366-3.41-13.436.12-.002.25-.01.37-.01zM60.402 68.036c-3.424 1.977-6.924 3.692-10.413 5.13-3.49-1.436-6.99-3.152-10.418-5.13-3.538-2.042-6.765-4.208-9.674-6.437-.477-3.64-.737-7.518-.737-11.6s.26-7.967.738-11.6c2.91-2.23 6.138-4.398 9.676-6.44C43 29.985 46.5 28.27 49.99 26.83c3.49 1.438 6.99 3.154 10.414 5.13 3.456 1.997 6.686 4.187 9.682 6.495.473 3.62.73 7.477.73 11.543s-.258 7.923-.73 11.542c-2.996 2.308-6.225 4.498-9.682 6.493zm8.06 2.102c-.69 2.735-1.512 5.27-2.438 7.59-2.512-.37-5.11-.935-7.76-1.685 1.735-.863 3.46-1.782 5.165-2.765 1.73-1 3.393-2.057 5.03-3.14zm-26.746 5.905c-2.65.75-5.25 1.315-7.76 1.685-.923-2.314-1.744-4.84-2.432-7.565 1.618 1.07 3.29 2.112 5.025 3.114 1.7.984 3.43 1.903 5.162 2.766zM23.296 55.91c-2.025-1.964-3.808-3.946-5.355-5.91 1.55-1.963 3.33-3.943 5.36-5.91-.12 1.938-.185 3.907-.185 5.91s.068 3.974.186 5.91zm8.23-26.073c.687-2.725 1.506-5.25 2.43-7.565 2.512.37 5.11.934 7.76 1.685-1.735.863-3.46 1.782-5.165 2.766-1.732 1.002-3.403 2.044-5.02 3.114zm26.736-5.88c2.65-.75 5.25-1.315 7.76-1.685.927 2.322 1.75 4.854 2.438 7.59-1.634-1.083-3.3-2.14-5.032-3.14-1.705-.983-3.43-1.9-5.166-2.765zm18.426 20.2c1.955 1.903 3.73 3.858 5.3 5.843-1.57 1.986-3.345 3.94-5.3 5.843.115-1.914.18-3.862.18-5.843s-.066-3.928-.18-5.843zm-26.7-38.103c4.674 0 9.5 3.818 13.328 10.537-4.31.777-8.804 2.04-13.328 3.75-4.523-1.71-9.017-2.973-13.327-3.745C40.49 9.875 45.32 6.06 49.99 6.06zM11.93 28.027c2.34-4.05 7.8-6.28 15.375-6.28.124 0 .252.008.376.01-1.47 4.06-2.623 8.563-3.404 13.395-3.797 3.094-7.12 6.347-9.9 9.652-3.888-6.662-4.775-12.737-2.443-16.777zm15.376 50.225c-7.577 0-13.036-2.23-15.374-6.28-2.333-4.04-1.445-10.114 2.443-16.777 2.78 3.305 6.105 6.558 9.9 9.652.78 4.833 1.936 9.335 3.407 13.395-.124.002-.252.01-.376.01zM49.99 93.947c-4.674 0-9.5-3.818-13.328-10.537 4.31-.773 8.804-2.036 13.327-3.747 4.52 1.71 9.012 2.975 13.323 3.747-3.83 6.72-8.654 10.537-13.328 10.537zm38.058-21.973c-2.338 4.05-7.798 6.28-15.374 6.28-.124 0-.252-.008-.376-.01 1.475-4.07 2.63-8.585 3.412-13.43 3.736-3.053 7.05-6.303 9.87-9.657 3.93 6.644 4.84 12.71 2.468 16.817z"/><circle cx="49.989" cy="50" r="9.498"/></svg>