<svg xmlns="http://www.w3.org/2000/svg" viewBox="0 0 100 100"><path d="M89.528 96H4.783C2.143 96 0 93.9 0 91.257V86h94v5.257C94 93.9 92.17 96 89.528 96zM68.145 67c-3.978 0-7.215-3.456-7.215-7.435V35H14.406C11.254 35 9 37.457 9 40.608V81h77V67H68.145z"/><path d="M98.573 4H68c-.786 0-1.426.64-1.426 1.427v54.14c0 .785.64 1.425 1.426 1.425h30.573c.787 0 1.427-.64 1.427-1.426V5.426C100 4.64 99.36 4 98.573 4zM83.36 55.254c-1.933 0-3.5-1.567-3.5-3.5s1.567-3.5 3.5-3.5 3.5 1.567 3.5 3.5-1.567 3.5-3.5 3.5z"/></svg>