<svg viewBox="0 0 38 16" version="1.1" xmlns="http://www.w3.org/2000/svg">
    <path d="M1.26782609,12.9897143 C1.58086957,12.9897143 1.88173913,13.1217143 2.17217391,13.3874286 C2.46086957,13.6531429 2.60695652,13.9548571 2.60695652,14.2925714 C2.60695652,14.6542857 2.48695652,14.956 2.24521739,15.196 C2.00347826,15.4394286 1.69043478,15.5577143 1.3026087,15.5577143 C0.506086957,15.5577143 0.0730434783,15.1377143 0,14.2925714 C0,13.9548571 0.12173913,13.6531429 0.36173913,13.3874286 C0.603478261,13.1217143 0.904347826,12.9897143 1.26782609,12.9897143 L1.26782609,12.9897143 Z M11.6173913,3.328 C14.6904348,3.328 16.1895652,4.936 16.1165217,8.15542857 L16.1165217,15.3417143 L14.0608696,15.3417143 L14.0608696,8.61142857 C14.0608696,6.10171429 13.1478261,4.83485714 11.3252174,4.81085714 C10.3252174,4.81085714 9.51130435,5.16057143 8.87826087,5.86 C8.24695652,6.56114286 7.93043478,7.47657143 7.93043478,8.61142857 L7.93043478,15.3417143 L5.87478261,15.3417143 L5.87478261,3.61771429 L7.93043478,3.61771429 L7.93043478,5.50857143 L8.00347826,5.50857143 C8.9026087,4.05485714 10.1078261,3.328 11.6173913,3.328 L11.6173913,3.328 Z M19.053913,9.58514286 C19.053913,7.70628571 19.5721739,6.17542857 20.6104348,4.99257143 C21.6486957,3.81142857 22.9652174,3.22 24.5582609,3.22 C26.1513043,3.22 27.3565217,3.73771429 28.173913,4.77485714 C29.0695652,5.764 29.5165217,7.144 29.5165217,8.91142857 L29.5165217,9.87657143 L20.9478261,9.87657143 C21.1426087,12.724 22.4452174,14.1228571 24.8591304,14.0748571 C26.2608696,14.0748571 27.5165217,13.6137143 28.6243478,12.6914286 L28.6243478,14.4828571 C27.5565217,15.2491429 26.1756522,15.6314286 24.4852174,15.6314286 C22.7965217,15.6314286 21.4556522,15.0931429 20.466087,14.0182857 C19.5234783,12.9434286 19.053913,11.4657143 19.053913,9.58514286 L19.053913,9.58514286 Z M27.4608696,8.39371429 C27.4608696,7.29485714 27.1930435,6.42571429 26.6556522,5.78971429 C26.1182609,5.15542857 25.4,4.83657143 24.4956522,4.83657143 C23.5930435,4.83657143 22.826087,5.15542857 22.1913043,5.78971429 C21.5565217,6.42571429 21.1669565,7.29485714 21.0208696,8.39371429 L27.4608696,8.39371429 L27.4608696,8.39371429 Z M35.0591304,11.8497143 C35.0591304,13.3342857 35.626087,14.0748571 36.7582609,14.0748571 C37.1826087,14.0748571 37.5826087,13.9462857 37.9617391,13.6874286 L37.9617391,15.2045714 C37.5686957,15.4411429 36.9686957,15.5577143 36.1617391,15.5577143 C34.0556522,15.5577143 33.0034783,14.4245714 33.0034783,12.1565714 L33.0034783,5.10057143 L31.0956522,5.10057143 L31.0956522,3.61771429 L33.0034783,3.61771429 L33.0034783,0.758285714 L35.0591304,0.142857143 L35.0591304,3.61771429 L37.9617391,3.61771429 L37.9617391,5.10057143 L35.0591304,5.10057143 L35.0591304,11.8497143 L35.0591304,11.8497143 Z"></path>
</svg>