<svg xmlns="http://www.w3.org/2000/svg" width="10" height="16" viewBox="0 0 10 16">
  <path fill="#FFF" d="M4,14 C4,15.1045695 3.1045695,16 2,16 C0.8954305,16 0,15.1045695 0,14 C0,12.8954305 0.8954305,12 2,12 C3.10320187,12.0032948 3.9967052,12.8967981 4,14 L4,14 Z M2,6 C0.8954305,6 0,6.8954305 0,8 C0,9.1045695 0.8954305,10 2,10 C3.1045695,10 4,9.1045695 4,8 C3.9967052,6.89679813 3.10320187,6.0032948 2,6 Z M2,0 C0.8954305,0 0,0.8954305 0,2 C0,3.1045695 0.8954305,4 2,4 C3.1045695,4 4,3.1045695 4,2 C3.9967052,0.896798134 3.10320187,0.00329480111 2,0 Z M8,4 C9.1045695,4 10,3.1045695 10,2 C10,0.8954305 9.1045695,0 8,0 C6.8954305,0 6,0.8954305 6,2 C6.0032948,3.10320187 6.89679813,3.9967052 8,4 Z M8,6 C6.8954305,6 6,6.8954305 6,8 C6,9.1045695 6.8954305,10 8,10 C9.1045695,10 10,9.1045695 10,8 C9.9967052,6.89679813 9.10320187,6.0032948 8,6 Z M8,12 C6.8954305,12 6,12.8954305 6,14 C6,15.1045695 6.8954305,16 8,16 C9.1045695,16 10,15.1045695 10,14 C9.9967052,12.8967981 9.10320187,12.0032948 8,12 L8,12 Z"/>
</svg>
