<svg xmlns="http://www.w3.org/2000/svg" width="23" height="19" viewBox="0 0 23 19">
  <g fill="#FFF" fill-rule="evenodd">
    <path fill-rule="nonzero" d="M22.1871698,5.76313778 L22.5516981,5.42470858 C23.149434,4.86976878 23.149434,3.97072425 22.5516981,3.41620485 C21.9544151,2.86126505 20.9858113,2.86126505 20.3885283,3.41620485 L20.024,3.75463405 L22.1873962,5.76313778 L22.1871698,5.76313778 Z M19.0626415,4.64695204 L11,12.2384865 L11,14 L13.0603774,14 L21.2258113,6.65587617 L19.0626415,4.64695204 Z"/>
    <path fill-rule="nonzero" d="M13.015625,15.3095837 L12.705,15.6174078 L12.2664062,15.615237 L10.1869687,15.6043828 L9.50009375,15.6011265 L9.50009375,15.6059024 L3.0625,15.6059024 L3.0625,14.3012317 L9.14090625,14.3012317 L9.14090625,11.9395823 L3.0625,11.9395823 L3.0625,10.6218866 L10.6028125,10.6218866 L14,7.14703396 L14,0 L0,0 L0,17.616311 C0,18.3804442 0.6243125,19 1.39453125,19 L12.700625,19 C13.470625,19 14,18.3804442 14,17.6160939 L14,14.2384946 L13.015625,15.3095837 Z M3.0625,3.26145971 L10.987375,3.26145971 L10.987375,4.5652621 L3.0625,4.5652621 L3.0625,3.2616768 L3.0625,3.26145971 Z M3.0625,6.94189022 L10.987375,6.94189022 L10.987375,8.24547553 L3.0625,8.24547553 L3.0625,6.94189022 Z"/>
  </g>
</svg>
