<?xml version="1.0" encoding="utf-8"?>
<!-- Generator: Adobe Illustrator 19.0.0, SVG Export Plug-In . SVG Version: 6.00 Build 0)  -->
<svg version="1.1" id="Layer_1" xmlns="http://www.w3.org/2000/svg" xmlns:xlink="http://www.w3.org/1999/xlink" viewBox="0 0 100 100">
<path id="XMLID_1_" d="M94.6,0.1h-89C2.6,0.1,0,2.5,0,5.5v89c0,3,2.6,5.4,5.6,5.4h47.9V61.3H40.4V46.1h13.1V35
	c0-12.8,7.8-20,19.4-20c5.6,0,10.3,0.4,11.6,0.7v13.4h-8c-6.1,0-7.4,3-7.4,7.4v9.6h15l-2,15.1H69v38.7h25.5c3,0,5.4-2.4,5.4-5.4v-89
	C100,2.5,97.6,0.1,94.6,0.1z"/>
</svg>
