<svg xmlns="http://www.w3.org/2000/svg" viewBox="0 0 100 100"><path d="M100 16.824c0-14.638-44.883-15.06-50-15.06s-50 .42-50 15.06c0 1.464.467 2.78 1.28 3.975l-.092.07L32 61.86v26.314l.048.625c.13.385 3.325 9.435 17.952 9.435 14.722 0 17.646-9.163 17.763-9.553l.172-.57v-26.25L97.76 21.977c1.41-1.487 2.24-3.188 2.24-5.153zM50 9.86c23.405 0 38.397 4.195 41.528 6.928l-.118.158C88.067 19.68 73.162 23.788 50 23.788c-23.503 0-38.53-4.232-41.575-6.965C11.47 14.09 26.498 9.86 50 9.86zm10 49.31v27.44c-.655 1.01-3.14 3.53-10 3.53-6.967 0-9.4-2.607-10.064-3.56V59.17L17.14 28.685c13.265 3.052 29.866 3.202 32.86 3.202 2.974 0 19.37-.15 32.588-3.14L60 59.17z"/></svg>