<svg xmlns="http://www.w3.org/2000/svg" width="21" height="21" viewBox="0 0 21 21">
  <path fill="#FFF" d="M23.85798,5.27175169 C24.0474467,5.1403335 24.0472333,4.85834572 23.85798,4.72670739 C22.8103656,3.99873425 19.1319805,3 13.50004,3 C7.8680995,3 4.18971436,3.99873425 3.14210003,4.72670739 C2.95263332,4.85834572 2.95263332,5.14055363 3.14210003,5.27197182 C4.18971436,6.00060536 7.86767277,7 13.50004,7 C19.1324072,7 22.810579,6.00126575 23.85798,5.27329261 L23.85798,5.27175169 Z M13.0376903,8.07389187 C10.3731234,8.07389187 6.61207349,7.80799213 4,7 L10.4172178,15.7646131 L10.4172178,23.0526249 C10.5898163,23.3065163 11.2235171,24 13.0376903,24 C14.824147,24 15.4288714,23.3292464 15.5993701,23.0607735 L15.5993701,15.7646131 L22,7.02208683 C19.3914961,7.81292414 15.6770604,8.07389187 13.0376903,8.07389187 Z" transform="translate(-3 -3)"/>
</svg>
