<svg xmlns="http://www.w3.org/2000/svg" viewBox="0 0 100 100"><path d="M50.85 32.81c-9.43 0-17.103 7.693-17.103 17.148S41.42 67.106 50.85 67.106s17.1-7.693 17.1-17.148-7.67-17.147-17.1-17.147zm0 26.07c-4.907 0-8.9-4.002-8.9-8.922 0-4.92 3.993-8.922 8.9-8.922s8.897 4.003 8.897 8.922c0 4.92-3.992 8.923-8.898 8.923z"/><path d="M99.96 59.813v-19.71l-10.63-.922c-.88-3.17-2.138-6.193-3.767-9.05l7.228-8.554L78.89 7.64l-8.62 7.32c-2.82-1.58-6.15-2.8-9.27-3.646V-.04H40v11.5c-3.04.872-6.15 2.104-8.903 3.68l-8.833-7.503-13.9 13.937 7.556 8.943c-1.517 2.73-2.7 5.613-3.538 8.62l-12.422.968v19.71l12.423.97c.837 3.005 2.02 5.888 3.538 8.618L8.37 78.35l13.9 13.936 8.83-7.506c2.75 1.576 5.862 2.807 8.902 3.68v11.5h21V88.605c3.12-.847 6.45-2.065 9.27-3.644l8.62 7.32 13.9-13.934-7.228-8.555c1.63-2.857 2.888-5.885 3.766-9.055l10.632-.922zM82.592 53.04l-.594 3.055c-.824 4.23-2.47 8.184-4.89 11.75l-1.756 2.587 6.296 7.453-3.218 3.227-7.467-6.342-2.568 1.712c-3.544 2.362-7.464 3.96-11.65 4.747l-3.072.573-.82 9.926H48.3l-.823-9.974-3.014-.618c-4.104-.84-7.95-2.47-11.43-4.84l-2.58-1.76-7.73 6.566-3.218-3.227 6.577-7.786-1.704-2.573c-2.3-3.473-3.872-7.304-4.672-11.386l-.598-3.05-10.196-.844V47.67l10.198-.847.598-3.05c.8-4.08 2.37-7.91 4.672-11.39l1.703-2.573-6.577-7.784 3.22-3.226 7.73 6.565 2.577-1.758c3.482-2.373 7.327-4 11.43-4.84l3.015-.617.822-9.973h4.552l.82 9.925 3.073.577c4.186.787 8.104 2.385 11.648 4.746l2.568 1.715 7.47-6.342 3.22 3.228-6.295 7.455 1.757 2.587c2.42 3.568 4.067 7.52 4.89 11.75l.594 3.056 9.65.8v4.565l-9.648.8z"/></svg>