<?xml version="1.0" encoding="UTF-8"?>
<svg viewBox="0 0 255 384" xmlns="http://www.w3.org/2000/svg">
<path transform="rotate(-45 109.9 175.9)" d="m21.217 179.32c0.64957-1.1851 1.4661-2.3041 2.4501-3.3231l80.58-83.443c5.9466-6.1578 15.759-6.3291 21.917-0.38256l2.8774 2.7786c6.1578 5.9466 6.3291 15.759 0.38256 21.917l-54.597 56.537h55.573 114c8.5604 0 15.5 6.9396 15.5 15.5 0 8.5604-6.9396 15.5-15.5 15.5h-98.5v6h23.5c8.5604 0 15.5 6.9396 15.5 15.5 0 8.5604-6.9396 15.5-15.5 15.5h-23.5v7h20.5c8.5604 0 15.5 6.9396 15.5 15.5 0 8.5604-6.9396 15.5-15.5 15.5h-20.5v7h20.5c8.5604 0 15.5 6.9396 15.5 15.5 0 8.5604-6.9396 15.5-15.5 15.5h-36-97c-8.5604 0-15.5-6.9396-15.5-15.5v-113c0-3.6179 1.2395-6.9463 3.3171-9.5837zm143.18-144.92c6.3513 0 11.5 5.1487 11.5 11.5v52c0 6.3513-5.1487 11.5-11.5 11.5-6.3513 0-11.5-5.1487-11.5-11.5v-52c0-6.3513 5.1487-11.5 11.5-11.5zm78.665 27.132c4.491 4.491 4.491 11.772 0 16.263l-36.77 36.77c-4.491 4.491-11.772 4.491-16.263 0-4.491-4.491-4.491-11.772 0-16.263l36.77-36.77c4.491-4.491 11.772-4.491 16.263 0zm27.835 78.368c0 6.3513-5.1487 11.5-11.5 11.5h-52c-6.3513 0-11.5-5.1487-11.5-11.5 0-6.3513 5.1487-11.5 11.5-11.5h52c6.3513 0 11.5 5.1487 11.5 11.5zm-306.5 33.5h25c8.5604 0 15.5 6.9396 15.5 15.5v113c0 8.5604-6.9396 15.5-15.5 15.5h-25c-8.5604 0-15.5-6.9396-15.5-15.5v-113c0-8.5604 6.9396-15.5 15.5-15.5z" fill="#FFF"/>
</svg>
