<?xml version="1.0" encoding="utf-8"?>
<!-- Generator: Adobe Illustrator 19.0.0, SVG Export Plug-In . SVG Version: 6.00 Build 0)  -->
<svg version="1.1" id="Layer_1" xmlns="http://www.w3.org/2000/svg" xmlns:xlink="http://www.w3.org/1999/xlink"
	 viewBox="0 0 100 100">
<path id="XMLID_16_" d="M40.5,2.6C17.9,6.9,1.1,25.6,0.1,48.6c-0.9,18.4,6.8,33,21.9,43.6c3.6,2.6,7.7,4.5,11.9,5.9
	c1.9,0.6,3.6-0.3,3.6-1.9c0.1-3.2,0-6.4,0-9.4c-2.3,0.1-4.5,0.4-6.8,0.3c-4.8-0.3-8.4-2.5-10.3-7.1c-1.2-2.8-2.9-5.2-5.5-6.8
	c-0.6-0.3-0.9-0.6-1.3-1c-0.6-0.7-0.4-1.3,0.4-1.4c0.7-0.3,1.7-0.3,2.5-0.1c3,0.6,5.2,2.6,6.8,5.2c3.3,5.5,8.5,6.1,13.8,4.1
	c0.3,0,0.6-0.4,0.7-0.7c0.4-2.2,1.3-4.2,2.9-5.9c-2.2-0.4-4.2-0.7-6.2-1.3c-7.1-1.9-12.5-5.8-14.8-13c-0.6-1.7-1-3.6-1.3-5.4
	c-0.9-6.5,0-12.6,4.3-17.8c0.3-0.1,0.4-0.7,0.3-1.2c-1.2-3.5-1-7,0-10.4c0.7-2.2,0.9-2.3,3.2-2c3.9,0.7,7.2,2.6,10.6,4.6
	c0.4,0.3,1,0.4,1.6,0.3c7.7-1.9,15.5-1.9,23.3,0c0.4,0.1,1.2-0.1,1.6-0.3c1.9-1,3.5-2,5.2-2.9c2.2-1,4.3-1.7,6.8-1.7
	c0.6-0.1,1,0.1,1.3,0.9c1.3,3.8,1.6,7.7,0.4,11.4c-0.3,0.7,0,1.2,0.4,1.6c1.7,2.2,3.2,4.6,3.8,7.4c1.4,6.4,0.7,12.5-2,18.4
	c-2.8,5.6-7.8,8.7-13.8,10.1c-1.9,0.4-3.9,0.7-6.2,1.2c2.8,2.9,3.3,6.4,3.3,10.1c-0.1,3.9-0.1,8-0.1,12c0,2.6,1.4,3.6,3.9,2.8
	c24.3-8,38.7-34.3,32.2-59.1C91.6,13.4,66.4-2.5,40.5,2.6z M36.1,81.1l-1,1.2c0.3,0.1,0.7,0.6,0.9,0.6c0.4-0.1,0.9-0.6,1.2-0.9
	C36.9,81.8,36.6,81.5,36.1,81.1z M36.1,81.1l-1,1.2c0.3,0.1,0.7,0.6,0.9,0.6c0.4-0.1,0.9-0.6,1.2-0.9C36.9,81.8,36.6,81.5,36.1,81.1
	z M32.2,81.5c-0.3,0.6-0.6,0.9-0.9,1.2c0.3,0.1,0.6,0.6,0.9,0.6c0.4,0,0.7-0.4,1.2-0.7C33.1,82.2,32.8,82,32.2,81.5z M32.2,81.5
	c-0.3,0.6-0.6,0.9-0.9,1.2c0.3,0.1,0.6,0.6,0.9,0.6c0.4,0,0.7-0.4,1.2-0.7C33.1,82.2,32.8,82,32.2,81.5z M28.2,81.2
	c-0.3,0-0.6,0.4-0.9,0.6l1,1.2c0.4-0.4,0.7-0.6,1-0.9C28.9,81.8,28.6,81.4,28.2,81.2z M28.2,81.2c-0.3,0-0.6,0.4-0.9,0.6l1,1.2
	c0.4-0.4,0.7-0.6,1-0.9C28.9,81.8,28.6,81.4,28.2,81.2z M20.1,73.7c-0.1,0.1-0.4,0.4-0.4,0.6c0.3,0.4,0.6,0.6,0.9,1.2
	c0.3-0.4,0.6-0.7,0.6-0.9L20.1,73.7z M20.1,73.7c-0.1,0.1-0.4,0.4-0.4,0.6c0.3,0.4,0.6,0.6,0.9,1.2c0.3-0.4,0.6-0.7,0.6-0.9
	L20.1,73.7z M22.1,76.3c-0.1,0.1-0.6,0.6-0.4,0.6c0.3,0.4,0.6,0.7,1,1l0.7-0.7C22.8,76.9,22.5,76.6,22.1,76.3z M22.1,76.3
	c-0.1,0.1-0.6,0.6-0.4,0.6c0.3,0.4,0.6,0.7,1,1l0.7-0.7C22.8,76.9,22.5,76.6,22.1,76.3z M24.5,79.1L24,79.6c0.3,0.4,0.6,0.9,1,1.6
	l0.7-1C25.4,79.8,25,79.4,24.5,79.1z M24.5,79.1L24,79.6c0.3,0.4,0.6,0.9,1,1.6l0.7-1C25.4,79.8,25,79.4,24.5,79.1z M40.5,2.6
	C17.9,6.9,1.1,25.6,0.1,48.6c-0.9,18.4,6.8,33,21.9,43.6c3.6,2.6,7.7,4.5,11.9,5.9c1.9,0.6,3.6-0.3,3.6-1.9c0.1-3.2,0-6.4,0-9.4
	c-2.3,0.1-4.5,0.4-6.8,0.3c-4.8-0.3-8.4-2.5-10.3-7.1c-1.2-2.8-2.9-5.2-5.5-6.8c-0.6-0.3-0.9-0.6-1.3-1c-0.6-0.7-0.4-1.3,0.4-1.4
	c0.7-0.3,1.7-0.3,2.5-0.1c3,0.6,5.2,2.6,6.8,5.2c3.3,5.5,8.5,6.1,13.8,4.1c0.3,0,0.6-0.4,0.7-0.7c0.4-2.2,1.3-4.2,2.9-5.9
	c-2.2-0.4-4.2-0.7-6.2-1.3c-7.1-1.9-12.5-5.8-14.8-13c-0.6-1.7-1-3.6-1.3-5.4c-0.9-6.5,0-12.6,4.3-17.8c0.3-0.1,0.4-0.7,0.3-1.2
	c-1.2-3.5-1-7,0-10.4c0.7-2.2,0.9-2.3,3.2-2c3.9,0.7,7.2,2.6,10.6,4.6c0.4,0.3,1,0.4,1.6,0.3c7.7-1.9,15.5-1.9,23.3,0
	c0.4,0.1,1.2-0.1,1.6-0.3c1.9-1,3.5-2,5.2-2.9c2.2-1,4.3-1.7,6.8-1.7c0.6-0.1,1,0.1,1.3,0.9c1.3,3.8,1.6,7.7,0.4,11.4
	c-0.3,0.7,0,1.2,0.4,1.6c1.7,2.2,3.2,4.6,3.8,7.4c1.4,6.4,0.7,12.5-2,18.4c-2.8,5.6-7.8,8.7-13.8,10.1c-1.9,0.4-3.9,0.7-6.2,1.2
	c2.8,2.9,3.3,6.4,3.3,10.1c-0.1,3.9-0.1,8-0.1,12c0,2.6,1.4,3.6,3.9,2.8c24.3-8,38.7-34.3,32.2-59.1C91.6,13.4,66.4-2.5,40.5,2.6z"
	/>
</svg>
