<?xml version="1.0" encoding="utf-8"?>
<!-- Generator: Adobe Illustrator 19.0.0, SVG Export Plug-In . SVG Version: 6.00 Build 0)  -->
<svg version="1.1" id="Layer_1" xmlns="http://www.w3.org/2000/svg" xmlns:xlink="http://www.w3.org/1999/xlink"
	 viewBox="0 0 100 100">
<path id="path2998" d="M97.9,45.5H52v13.6h32.5C83,78.2,67.1,86.4,52.1,86.4c-19.2,0-35.9-15.1-35.9-36.2c0-20.6,16-36.5,36-36.5
	c15.4,0,24.5,9.8,24.5,9.8l9.5-9.9C86.2,13.6,74,0,51.6,0C23.2,0,1.3,24,1.3,49.9c0,25.4,20.7,50.1,51.1,50.1
	c26.8,0,46.4-18.3,46.4-45.5C98.7,48.8,97.9,45.5,97.9,45.5L97.9,45.5z"/>
</svg>
