<svg xmlns="http://www.w3.org/2000/svg" width="12" height="20" viewBox="0 0 12 20">
  <path fill="#FFF" d="M10.7922432,14.7328154 L11.491815,14.7328154 C12.1020608,15.321293 12.305176,16.1001935 12.1011607,17.0695171 C11.8971454,18.0388406 11.1370385,19.0156683 9.82084003,20 C8.5064418,19.0156683 7.74723502,18.0388406 7.54321969,17.0695171 C7.33920436,16.1001935 7.54231958,15.321293 8.15256535,14.7328154 L8.73450289,14.7328154 C8.35823644,15.0934891 8.23299929,15.5708717 8.35879143,16.1649632 C8.48458358,16.7590547 8.95269667,17.3577453 9.76313072,17.9610352 C10.573745,17.3577453 11.0418761,16.7590547 11.1675242,16.1649632 C11.2931722,15.5708717 11.1680785,15.0934891 10.7922432,14.7328154 Z M11.7991575,3.20655394 L7.73405174,3.20655394 C8.24001258,2.17991122 8.91637224,1.11408081 9.76313072,0.0090626982 L9.76313072,-2.84217094e-13 C9.764289,0.00151018066 9.76544696,0.00302028815 9.7666046,0.00453032248 C9.76776224,0.00302028815 9.7689202,0.00151018066 9.77007848,-2.84217094e-13 L9.77007848,0.00906269699 C10.616837,1.11408081 11.2931966,2.17991122 11.7991575,3.20655394 Z M12.0327287,3.70486975 C12.5603974,4.89248722 12.8542661,6.02633625 12.914335,7.10641683 C13.0341746,9.26121521 12.5860828,11.6353809 11.5700596,14.2289138 L9.77007848,14.2289138 L7.96314963,14.2289138 C6.94712644,11.6353809 6.49903462,9.26121521 6.61887416,7.10641683 C6.67894305,6.02633625 6.97281184,4.89248722 7.50048051,3.70486975 L12.0327287,3.70486975 Z M6.24733776,9.70632543 C6.34968132,10.4584257 6.51318856,11.2496262 6.73785948,12.0799269 C6.9625304,12.9102275 7.21174736,13.6514103 7.48551038,14.303475 C6.92270464,14.2756591 6.33851511,14.3730147 5.73294178,14.5955416 C5.07716234,14.8084275 4.37296989,14.4493914 4.16008394,13.793612 C4.09926309,13.6062578 4.08363976,13.4071704 4.11449096,13.2126223 C4.18101982,12.7933705 4.27645077,12.4069731 4.40082716,12.0534369 C4.83950531,10.9856576 5.45500885,10.2032871 6.24733776,9.70632543 Z M13.2978893,9.70632543 C14.0902182,10.2032871 14.7057217,10.9856576 15.1443999,12.0534369 C15.2687763,12.4069731 15.3642072,12.7933705 15.4307361,13.2126223 C15.4615873,13.4071704 15.4459639,13.6062578 15.3851431,13.793612 C15.1722571,14.4493914 14.4680647,14.8084275 13.8122852,14.5955416 C13.2067119,14.3730147 12.6225224,14.2756591 12.0597167,14.303475 C12.3334797,13.6514103 12.5826966,12.9102275 12.8073676,12.0799269 C13.0320385,11.2496262 13.1955457,10.4584257 13.2978893,9.70632543 Z M9.77396368,10.0096481 C10.7850695,10.0096481 11.6047326,8.92323062 11.6047326,7.58306674 C11.6047326,6.24290286 10.7850695,5.15648538 9.77396368,5.15648538 C8.76285789,5.15648538 7.94319471,6.24290286 7.94319471,7.58306674 C7.94319471,8.92323062 8.76285789,10.0096481 9.77396368,10.0096481 Z" transform="translate(-4)"/>
</svg>
