<svg xmlns="http://www.w3.org/2000/svg" width="22.664" height="15.949" viewBox="0 0 22.664 15.949"><path d="M12.591,15.949a1.679,1.679,0,0,1-1.679-1.679V7.555a1.679,1.679,0,0,1,1.679-1.679h8.394a1.679,1.679,0,0,1,1.679,1.679V14.27a1.679,1.679,0,0,1-1.679,1.679Zm-5.875,0A1.679,1.679,0,0,1,5.037,14.27V1.679A1.679,1.679,0,0,1,6.716,0H16.79a1.679,1.679,0,0,1,1.678,1.679V4.294H10.379A1.679,1.679,0,0,0,8.7,5.973v8.3a1.679,1.679,0,0,0,1.679,1.679Zm-5.037,0A1.679,1.679,0,0,1,0,14.27V4.2A1.679,1.679,0,0,1,1.679,2.518H2.862V14.27a1.679,1.679,0,0,0,1.679,1.679Z" fill="#fff"/></svg>