<svg xmlns="http://www.w3.org/2000/svg" viewBox="0 0 100 100"><path d="M69.76 84.1l-6.275-3.758 3.77-6.294-1.878-8.006c-1.576 1.222-3.3 2.275-5.168 3.1v9.434L57 81.78l3.204 3.2v7.442l7.308 4.305 3.798-6.43-1.556-6.2zm-41.075 6.774l3.276 6.543 9.04-4.05V69.282c-1.412-.603-3.404-1.34-4.66-2.174l-7.65 23.766z"/><path d="M70.347 46.316c0-8.347-5.082-15.526-12.314-18.612.33-2.38.492-4.916.492-7.447C58.525 10.174 55.975 0 50.28 0s-8.245 10.174-8.245 20.257c0 .746.044 1.48.073 2.217 1.51-.53 3.085-.916 4.713-1.15-.002-.36-.03-.708-.03-1.067 0-9.52 2.405-14.733 3.494-15.462 1.09.728 3.495 5.943 3.495 15.462 0 2.296-.145 4.33-.37 6.123-1.073-.176-2.165-.29-3.285-.29-11.153 0-20.227 9.073-20.227 20.226 0 8.597 5.466 16.27 13.603 19.094l1.597.554V94.87l5.13 5.13L55 94.7v-7.75l-4.715-5.17L55 76.607v-10.73l2.02-.57c7.972-2.9 13.327-10.53 13.327-18.99zM50.28 43.412c-2.913 0-5.275-2.362-5.275-5.275 0-2.913 2.362-5.275 5.275-5.275.548 0 1.066.107 1.562.262-.606 1.59-1.21 2.48-1.562 2.637-1.312 0-2.376 1.068-2.376 2.38s1.063 2.376 2.376 2.376c2.12 0 3.805-1.414 5.084-3.707.112.427.19.867.19 1.33 0 2.915-2.36 5.276-5.274 5.276z"/></svg>