<svg xmlns="http://www.w3.org/2000/svg" viewBox="0 0 770.23 151.86"><defs><style>.cls-1{fill:#208aec}</style></defs><title>Logo - Text</title><g id="Camada_2" data-name="Camada 2"><path class="cls-1" d="M92.11 88.09A25.92 25.92 0 0 1 81.24 110a37.34 37.34 0 0 1-11.76 5.63 51 51 0 0 1-14.25 1.93H0V3.23h61.19A22.57 22.57 0 0 1 72 5.8a26.91 26.91 0 0 1 8.21 6.68 30.73 30.73 0 0 1 5.23 9.34 31.52 31.52 0 0 1 1.85 10.55 31.15 31.15 0 0 1-4.19 15.7 25.51 25.51 0 0 1-12.24 10.87A29.43 29.43 0 0 1 86.4 69.33q5.71 7.48 5.71 18.76zM22.22 22.23V51h29.63a13.19 13.19 0 0 0 9.58-3.86q3.94-3.87 3.95-10.63 0-6.6-3.63-10.47a11.76 11.76 0 0 0-8.94-3.86zM69.73 83.9a16.84 16.84 0 0 0-1-5.88 16.47 16.47 0 0 0-2.82-4.91 13.15 13.15 0 0 0-4.19-3.3 11.7 11.7 0 0 0-5.31-1.21H22.22v30.12h33A14.45 14.45 0 0 0 61 97.59a13.63 13.63 0 0 0 4.59-3.14 15.28 15.28 0 0 0 4.14-10.55zm60.71 35.27a32.11 32.11 0 0 1-11.43-2 27.59 27.59 0 0 1-9.18-5.64 26.2 26.2 0 0 1-6-8.45 25.64 25.64 0 0 1-2.17-10.63 23.4 23.4 0 0 1 2.66-11 25.25 25.25 0 0 1 7.41-8.62A36.78 36.78 0 0 1 123 67.24a49.45 49.45 0 0 1 14.49-2 62.61 62.61 0 0 1 11 1 44.92 44.92 0 0 1 9.58 2.74V64.1q0-8.37-4.75-12.88T139.3 46.7a37.25 37.25 0 0 0-13.2 2.42 61.25 61.25 0 0 0-13.2 7.08l-6.6-13.68a62.3 62.3 0 0 1 35.1-10.79q18.19 0 28.26 8.94t10.06 25.85v26.24c0 2.25.4 3.86 1.21 4.83a5.26 5.26 0 0 0 3.94 1.61v18.36a48.38 48.38 0 0 1-9.5 1.13q-6.12 0-9.42-2.74a11.74 11.74 0 0 1-4.1-7.25l-.49-4.67a37.36 37.36 0 0 1-13.69 11.27 39.31 39.31 0 0 1-17.23 3.87zm6.12-15.78a28.19 28.19 0 0 0 10.39-1.93 18.87 18.87 0 0 0 7.65-5.15c2.36-1.82 3.54-3.87 3.54-6.12v-9.67a53.13 53.13 0 0 0-8.37-2.33 45.18 45.18 0 0 0-8.7-.89q-8.37 0-13.69 3.78t-5.31 9.58a11.52 11.52 0 0 0 4.19 9.1 15.21 15.21 0 0 0 10.3 3.63zm57.97-28.02a45.86 45.86 0 0 1 3.06-16.75 40.81 40.81 0 0 1 8.85-13.85 43.29 43.29 0 0 1 14-9.5A46.34 46.34 0 0 1 239 31.73q13.85 0 23.59 6a38.07 38.07 0 0 1 14.55 15.57L256 59.75a19 19 0 0 0-7.25-7.17 20.27 20.27 0 0 0-10-2.5 20.59 20.59 0 0 0-8.7 1.85 21.45 21.45 0 0 0-7 5.15 23.84 23.84 0 0 0-4.67 8 30.08 30.08 0 0 0-1.69 10.31 28.8 28.8 0 0 0 1.77 10.31 25.89 25.89 0 0 0 4.75 8.05 20.82 20.82 0 0 0 7 5.23 20.13 20.13 0 0 0 8.54 1.86 20.75 20.75 0 0 0 10.71-2.9 16.31 16.31 0 0 0 6.84-7.09l21.1 6.44A35.44 35.44 0 0 1 263.13 113q-10 6.13-24 6.12a46.34 46.34 0 0 1-18.52-3.55A42 42 0 0 1 197.67 92a45.1 45.1 0 0 1-3.14-16.63zm153.79 42.19L323.84 81l-11.6 11.43v25.12h-21.57V0h21.58v71.34l33.82-38h23l-31.4 35.75 33.66 48.47zM420.94 138v-24h-47V94.85l53.95-69.24h14.65v69.08h14.17V114h-14.19v24zM395.5 94.69h27.86V58.3zM507.1 3.23h19.65l43.48 114.33h-22.87l-10.63-28.5h-39.94l-10.47 28.5h-22.86zm25.6 70.21l-15.78-44.93-16.42 44.92zm98.56 45.73a33.25 33.25 0 0 1-17.39-4.43 31.45 31.45 0 0 1-11.6-12v49.12h-21.58V33.18h18.84v14.5A34.42 34.42 0 0 1 611.61 36a33.57 33.57 0 0 1 17.07-4.27 36.14 36.14 0 0 1 15.78 3.46 39.1 39.1 0 0 1 12.48 9.34 43.54 43.54 0 0 1 8.21 13.85 47.71 47.71 0 0 1 3 16.82 53.2 53.2 0 0 1-2.74 17.23 44.1 44.1 0 0 1-7.65 14 35.69 35.69 0 0 1-11.67 9.34 32.64 32.64 0 0 1-14.83 3.4zM624 100.81a19.4 19.4 0 0 0 8.94-2.1 21.57 21.57 0 0 0 7-5.63 26.44 26.44 0 0 0 4.51-8.22 29.48 29.48 0 0 0 1.61-9.66 27.28 27.28 0 0 0-1.77-9.9 24.6 24.6 0 0 0-4.91-8A22.81 22.81 0 0 0 632 52a22.14 22.14 0 0 0-9.26-1.93 20.13 20.13 0 0 0-6.28 1 21.87 21.87 0 0 0-6 3 25.94 25.94 0 0 0-4.91 4.51 18.72 18.72 0 0 0-3.3 5.63v19.85a28.68 28.68 0 0 0 8.85 12 20.27 20.27 0 0 0 12.9 4.75zm109.35 18.36a33.25 33.25 0 0 1-17.35-4.43 31.45 31.45 0 0 1-11.6-12v49.12h-21.62V33.18h18.84v14.5A34.42 34.42 0 0 1 713.71 36a33.57 33.57 0 0 1 17.07-4.27 36.14 36.14 0 0 1 15.78 3.46A39.1 39.1 0 0 1 759 44.53a43.54 43.54 0 0 1 8.21 13.85 47.71 47.71 0 0 1 3 16.82 53.2 53.2 0 0 1-2.74 17.23 44.1 44.1 0 0 1-7.65 14 35.69 35.69 0 0 1-11.67 9.34 32.64 32.64 0 0 1-14.8 3.4zm-7.25-18.36a19.4 19.4 0 0 0 8.94-2.1 21.57 21.57 0 0 0 7-5.63 26.44 26.44 0 0 0 4.51-8.22 29.48 29.48 0 0 0 1.61-9.66 27.28 27.28 0 0 0-1.77-9.9 24.6 24.6 0 0 0-4.91-8 22.81 22.81 0 0 0-7.4-5.3 22.14 22.14 0 0 0-9.26-1.93 20.13 20.13 0 0 0-6.28 1 21.87 21.87 0 0 0-6 3 25.94 25.94 0 0 0-4.91 4.51 18.72 18.72 0 0 0-3.3 5.63v19.85a28.68 28.68 0 0 0 8.85 12 20.27 20.27 0 0 0 12.92 4.75z" id="Layer_1" data-name="Layer 1"/></g></svg>