<?xml version="1.0" encoding="UTF-8" standalone="no"?>
<!DOCTYPE svg PUBLIC "-//W3C//DTD SVG 1.1//EN" "http://www.w3.org/Graphics/SVG/1.1/DTD/svg11.dtd">
<svg width="100%" height="100%" viewBox="0 0 34 30" version="1.1" xmlns="http://www.w3.org/2000/svg" xmlns:xlink="http://www.w3.org/1999/xlink" xml:space="preserve" xmlns:serif="http://www.serif.com/" style="fill-rule:evenodd;clip-rule:evenodd;stroke-linejoin:round;stroke-miterlimit:2;">
    <g transform="matrix(0.8248,0,0,0.8248,-2.79521,-4.64161)">
        <path d="M9,42C8.2,42 7.5,41.7 6.9,41.1C6.3,40.5 6,39.8 6,39L6,9C6,8.2 6.3,7.5 6.9,6.9C7.5,6.3 8.2,6 9,6L23.55,6L23.55,9L9,9L9,39L23.55,39L23.55,42L9,42ZM33.3,32.75L31.15,30.6L36.25,25.5L18.75,25.5L18.75,22.5L36.15,22.5L31.05,17.4L33.2,15.25L42,24.05L33.3,32.75Z" style="fill-rule:nonzero;"/>
    </g>
</svg>
