<svg xmlns="http://www.w3.org/2000/svg" width="25" height="24" viewBox="0 0 25 24">
  <g fill="none" fill-rule="evenodd" transform="translate(-3 -4)">
    <rect width="30" height="30"/>
    <rect width="25" height="23" x="3" y="4"/>
    <path fill="#FFF" fill-rule="nonzero" d="M14.994,27.0540041 L14.994,11.0540041 L18.699,11.0540041 L18.39,10.5190041 C18.3326114,10.4129967 18.3562776,10.2813795 18.447,10.2020041 L19.488,9.39200408 C19.4638241,9.23380944 19.4514566,9.07403473 19.451,8.91400408 C19.4525218,8.75278248 19.4669007,8.59193911 19.494,8.43300408 L18.453,7.62300408 C18.3565472,7.54888721 18.3311493,7.4141494 18.394,7.31000408 L19.378,5.61000408 C19.4351744,5.50204305 19.5643238,5.45425777 19.678,5.49900408 L20.901,5.99000408 C21.1546308,5.79499672 21.4330722,5.63459024 21.729,5.51300408 L21.913,4.20700408 C21.9313147,4.08761829 22.0342183,3.99959746 22.155,4.00000408 L24.12,4.00000408 C24.241678,3.99931133 24.3458855,4.08699818 24.366,4.20700408 L24.55,5.51300408 C24.8467163,5.63297789 25.1253685,5.79350577 25.378,5.99000408 L26.603,5.49900408 C26.7166888,5.4561536 26.844582,5.50347407 26.903,5.61000408 L27.885,7.31000408 C27.9425284,7.41505143 27.9178242,7.54610945 27.826,7.62300408 L26.785,8.43300408 C26.8111232,8.59200216 26.8241669,8.75287435 26.824,8.91400408 C26.8230873,9.07387375 26.8120653,9.2335257 26.791,9.39200408 L27.816,10.2020041 C27.9160925,10.2753039 27.9434583,10.4130017 27.879,10.5190041 L26.897,12.2190041 C26.8373768,12.3241258 26.7104444,12.3706676 26.597,12.3290041 L25.374,11.8380041 C25.1183433,12.0313173 24.8395127,12.1918969 24.544,12.3160041 L24.357,13.6160041 C24.3459213,13.7367963 24.2422056,13.8277672 24.121,13.8230041 L22.156,13.8230041 C22.0341701,13.8241182 21.9297253,13.7362317 21.91,13.6160041 L21.726,12.3160041 C21.4295344,12.1950914 21.1509626,12.0342733 20.898,11.8380041 L19.673,12.3290041 C19.5595568,12.3697948 19.4331864,12.323459 19.373,12.2190041 L18.992,11.5610041 L18.992,27.0550041 L14.994,27.0540041 Z M21.294,8.91200408 C21.2951052,9.929213 22.120124,10.7531863 23.1373335,10.7530016 C24.154543,10.7528169 24.9792626,9.92854413 24.9799984,8.91133488 C24.9807343,7.89412562 24.1572082,7.06866047 23.14,7.06700408 C22.1200595,7.06699872 21.2923061,7.89206893 21.289,8.91200408 L21.294,8.91200408 Z M8.994,27.0540041 L8.994,11.0540041 L12.994,11.0540041 L12.994,27.0540041 L8.994,27.0540041 Z M3,27.0540041 L3,11.0540041 L6.994,11.0540041 L6.994,27.0540041 L3,27.0540041 Z"/>
  </g>
</svg>
