<?xml version="1.0" encoding="UTF-8"?>
<svg width="20px" height="19px" viewBox="0 0 20 19" version="1.1" xmlns="http://www.w3.org/2000/svg" xmlns:xlink="http://www.w3.org/1999/xlink">
    <!-- Generator: Sketch 47.1 (45422) - http://www.bohemiancoding.com/sketch -->
    <title></title>
    <desc>Created with Sketch.</desc>
    <defs></defs>
    <g id="Dashboad" stroke="none" stroke-width="1" fill="none" fill-rule="evenodd">
        <g id="Dashboard---server-settings" fill="#FFFFFF">
            <path d="M76.6757812,457.851562 L76.6757812,453.148438 L81.3242188,453.148438 L81.3242188,457.851562 L76.6757812,457.851562 Z M83.6757812,471.851562 L83.6757812,467.148438 L88.3242188,467.148438 L88.3242188,471.851562 L83.6757812,471.851562 Z M76.6757812,471.851562 L76.6757812,467.148438 L81.3242188,467.148438 L81.3242188,471.851562 L76.6757812,471.851562 Z M76.6757812,464.851562 L76.6757812,460.148438 L81.3242188,460.148438 L81.3242188,464.851562 L76.6757812,464.851562 Z M83.6757812,464.851562 L83.6757812,460.148438 L88.3242188,460.148438 L88.3242188,464.851562 L83.6757812,464.851562 Z M90.6757812,453.148438 L95.3242188,453.148438 L95.3242188,457.851562 L90.6757812,457.851562 L90.6757812,453.148438 Z M83.6757812,457.851562 L83.6757812,453.148438 L88.3242188,453.148438 L88.3242188,457.851562 L83.6757812,457.851562 Z M90.6757812,464.851562 L90.6757812,460.148438 L95.3242188,460.148438 L95.3242188,464.851562 L90.6757812,464.851562 Z M90.6757812,471.851562 L90.6757812,467.148438 L95.3242188,467.148438 L95.3242188,471.851562 L90.6757812,471.851562 Z" id=""></path>
        </g>
    </g>
</svg>