<svg viewBox="0 0 30 30" version="1.1" xmlns="http://www.w3.org/2000/svg">
    <path d="M1.21680282,22.7591688 C1.8117171,22.7591688 2.47043139,22.6548883 3.19294567,22.4471482 C3.91628853,22.2394082 4.40017424,22.4356527 4.64543139,23.0367029 C4.72663139,23.244443 4.77883139,23.6492486 4.80203139,24.2494777 C4.82523139,24.8505279 4.79043139,25.3998484 4.69763139,25.896618 C4.60400282,26.381071 4.55180282,26.6939127 4.54020282,26.8318587 C3.10594567,25.7233645 1.8871171,24.3652538 0.884545673,22.7591688 L1.21680282,22.7591688 L1.21680282,22.7591688 Z M9.36000282,3.51899379 C7.35403139,3.51899379 5.6571171,4.21529238 4.26925996,5.60788955 C3.4763171,5.42560383 2.85240282,5.31146998 2.39834567,5.265488 C3.80857424,3.64298092 5.51128853,2.37190756 7.50565996,1.45062571 C9.50003139,0.530164965 11.6211742,0.0695240384 13.8724028,0.0695240384 C18.0475742,0.0695240384 21.6178885,1.5212409 24.5816885,4.42385351 C27.5454885,7.32646612 29.0269742,10.8465511 29.0269742,14.9832872 C29.0269742,19.1085279 27.54466,22.6384661 24.5800314,25.5731019 C21.6154028,28.5085588 18.0450885,29.9701289 13.8699171,29.9586334 C11.4794885,29.9586334 9.18765996,29.4158818 6.99525996,28.3295575 C7.92905996,28.3525485 8.93080282,28.295071 10.0038028,28.156304 C11.43806,27.8787699 11.7239171,27.2029989 10.8613742,26.1281701 C9.99800282,25.0426669 9.69474567,23.9037917 9.95160282,22.714008 C10.20846,21.5234031 10.9251742,20.6283966 12.1034028,20.0273464 C13.1051457,19.4262962 13.4440314,19.478026 13.1175742,20.1833567 C12.9775457,20.4838818 12.7264885,20.900183 12.36606,21.4314391 C10.9657742,23.4883117 10.8431457,25.1518741 11.9981742,26.4229475 C12.9079457,27.4173078 14.0679457,27.7112641 15.4790028,27.3072795 C16.0739171,27.1455215 16.6158028,26.8622396 17.1054885,26.4574339 C17.5951742,26.0534494 17.7244314,25.6371482 17.49326,25.2093516 C17.34246,24.9441341 17.0251171,24.8915832 16.5395742,25.0533413 C16.05486,25.2150993 15.59086,25.389174 15.15006,25.5731019 C14.7067742,25.7356811 14.2982885,25.6141572 13.9254314,25.2093516 C13.4821457,24.643609 13.6337742,23.9908291 14.3803171,23.2510118 C15.1260314,22.5120157 15.9181457,21.6334314 16.7558314,20.61608 C17.5926885,19.5995498 18.1983742,18.7037222 18.5704028,17.9294185 C18.9656314,17.1789269 19.3036885,16.3643889 19.5829171,15.4858046 C19.8621457,14.6072203 19.9723457,13.7179616 19.9143457,12.8163863 C19.8555171,11.914811 19.60446,11.1643194 19.1611742,10.5632692 C18.3309457,9.4424584 17.6299742,8.81841722 17.0574314,8.69114566 C16.8469742,8.63366818 16.5486885,8.59343395 16.1634028,8.57044296 C15.7549171,7.09737732 14.9213742,5.88788697 13.6619457,4.9403297 C12.3909171,3.99277243 10.95666,3.51899379 9.36000282,3.51899379 L9.36000282,3.51899379 Z M15.2619171,12.6160363 C15.2619171,12.1792074 15.4541457,11.9599719 15.84026,11.9599719 C16.0217171,11.937802 16.1808028,11.9936373 16.3166885,12.129941 C16.4525742,12.2670659 16.5147171,12.4411405 16.5039457,12.6538072 C16.5039457,13.0660028 16.2992885,13.2967338 15.8908028,13.3468213 C15.4715457,13.2967338 15.2619171,13.0536862 15.2619171,12.6160363 L15.2619171,12.6160363 Z"></path>
</svg>