<svg xmlns="http://www.w3.org/2000/svg" width="10" height="15" viewBox="0 0 10 15">
  <path fill="#FFF" fill-rule="evenodd" d="M4.01785714,6.375 L4.01785714,2.625 C4.01785714,2.54687461 3.99274579,2.48270114 3.94252232,2.43247768 C3.89229886,2.38225421 3.82812539,2.35714286 3.75,2.35714286 C3.67187461,2.35714286 3.60770114,2.38225421 3.55747768,2.43247768 C3.50725421,2.48270114 3.48214286,2.54687461 3.48214286,2.625 L3.48214286,6.375 C3.48214286,6.45312539 3.50725421,6.51729886 3.55747768,6.56752232 C3.60770114,6.61774579 3.67187461,6.64285714 3.75,6.64285714 C3.82812539,6.64285714 3.89229886,6.61774579 3.94252232,6.56752232 C3.99274579,6.51729886 4.01785714,6.45312539 4.01785714,6.375 Z M9.64285714,9.32142857 C9.64285714,9.46651858 9.58984428,9.59207536 9.48381696,9.69810268 C9.37778965,9.80412999 9.25223287,9.85714286 9.10714286,9.85714286 L5.51618304,9.85714286 L5.08928571,13.9001116 C5.07812494,13.9670762 5.04882836,14.0242743 5.00139509,14.0717076 C4.95396182,14.1191409 4.89676373,14.1428571 4.82979911,14.1428571 L4.82142857,14.1428571 C4.67075818,14.1428571 4.58147335,14.0675231 4.55357143,13.9168527 L3.91741071,9.85714286 L0.535714286,9.85714286 C0.390624275,9.85714286 0.265067494,9.80412999 0.159040179,9.69810268 C0.0530128627,9.59207536 0,9.46651858 0,9.32142857 C0,8.63504121 0.219026828,8.01702284 0.657087054,7.46735491 C1.09514728,6.91768698 1.59039902,6.64285714 2.14285714,6.64285714 L2.14285714,2.35714286 C1.85267712,2.35714286 1.60156356,2.25111713 1.38950893,2.0390625 C1.1774543,1.82700787 1.07142857,1.57589431 1.07142857,1.28571429 C1.07142857,0.995534263 1.1774543,0.744420703 1.38950893,0.532366071 C1.60156356,0.32031144 1.85267712,0.214285714 2.14285714,0.214285714 L7.5,0.214285714 C7.79018002,0.214285714 8.04129358,0.32031144 8.25334821,0.532366071 C8.46540285,0.744420703 8.57142857,0.995534263 8.57142857,1.28571429 C8.57142857,1.57589431 8.46540285,1.82700787 8.25334821,2.0390625 C8.04129358,2.25111713 7.79018002,2.35714286 7.5,2.35714286 L7.5,6.64285714 C8.05245812,6.64285714 8.54770986,6.91768698 8.98577009,7.46735491 C9.42383032,8.01702284 9.64285714,8.63504121 9.64285714,9.32142857 Z"/>
</svg>
