<svg xmlns="http://www.w3.org/2000/svg" viewBox="0 0 100 100"><path d="M50 0C22.385 0 0 22.386 0 50s22.385 50 50 50c27.614 0 50-22.386 50-50S77.614 0 50 0zm0 81.316C33.354 81.316 19.74 68.41 18.778 52h-6.895L22.45 41.275c.353-.354.926-.354 1.28 0L34.296 52h-6.708C28.53 63.55 38.212 72.506 50 72.506c8.214 0 15.393-4.437 19.323-11.027l6.423 6.3C70.088 75.95 60.664 81.315 50 81.315zm27.55-22.59c-.354.353-.927.353-1.28 0L65.703 48h6.708C71.47 36.45 61.79 27.494 50 27.494c-8.214 0-15.393 4.438-19.323 11.027l-6.423-6.3C29.912 24.05 39.336 18.685 50 18.685c16.646 0 30.26 12.907 31.222 29.316h6.894L77.55 58.724z"/></svg>