<svg xmlns="http://www.w3.org/2000/svg" width="19" height="24" viewBox="0 0 19 24">
  <path fill="#FFF" fill-rule="evenodd" d="M12.6835938,6.5797546 C10.8893139,6.5797546 9.35742822,7.23158857 8.08789062,8.53527607 C6.81835303,9.83896357 6.18359375,11.4120562 6.18359375,13.2546012 C6.18359375,14.3670812 6.43749746,15.4100156 6.9453125,16.3834356 L5.3203125,18 C4.44009977,16.53987 4,14.9580862 4,13.2546012 C4,10.7862862 4.8463457,8.68303528 6.5390625,6.94478528 C8.2317793,5.20653528 10.2799359,4.33742331 12.6835938,4.33742331 L12.6835938,1 L17,5.48466258 L12.6835938,9.91717791 L12.6835938,6.5797546 Z M20.6796875,8 C21.5599002,9.46013 22,11.0419138 22,12.7453988 C22,15.2137138 21.1536543,17.3169647 19.4609375,19.0552147 C17.7682207,20.7934647 15.736991,21.6625767 13.3671875,21.6625767 L13.3671875,25 L9,20.5153374 L13.3671875,16.0828221 L13.3671875,19.4202454 C15.1614673,19.4202454 16.693353,18.7684114 17.9628906,17.4647239 C19.2324282,16.1610364 19.8671875,14.5879438 19.8671875,12.7453988 C19.8671875,11.6676838 19.6132838,10.6247494 19.1054688,9.61656442 L20.6796875,8 Z" transform="translate(-3.4 -1)"/>
</svg>
