<svg viewBox="0 0 32 29" version="1.1" xmlns="http://www.w3.org/2000/svg">
    <path d="M22.2507228,5.13932004 C22.2507228,6.01438998 21.5190958,6.72381712 20.6164538,6.72381712 C19.7140006,6.72381712 18.9825623,6.01438998 18.9825623,5.13932004 C18.9825623,4.26425009 19.7140006,3.55482295 20.6164538,3.55482295 C21.5190958,3.55482295 22.2507228,4.26425009 22.2507228,5.13932004 L22.2507228,5.13932004 Z M29.9027937,6.91471817 C27.7237684,5.63423515 24.8185901,5.6982959 23.3659066,6.14653818 L22.7058189,9.53974499 L24.8846555,9.53974499 L24.2904445,12.6130141 L22.1114192,12.6130141 L21.18707,17.286887 C20.7908664,19.2076115 21.8473464,18.82343 22.6397535,18.82343 L22.3096154,20.616033 C16.4990699,23.1131213 15.3765246,19.2716723 15.7066628,17.5429469 L16.6312007,12.6130141 L13.7258336,12.6130141 L14.3200446,9.53974499 L17.2254117,9.53974499 L17.9517535,5.89029514 C15.3765246,5.05805439 15.5747208,4.92993287 15.5747208,2.94514757 L15.5747208,0 L7.84941158,0 L7.84941158,11.6526518 L0.0580370154,11.6526518 C-0.272101176,12.8690741 0.850444177,14.7897986 2.30293896,15.1739801 C3.75562251,15.5581616 4.74603708,18.56737 5.27418268,19.2076115 C5.80251704,19.847853 7.12306981,20.6800938 8.44362257,20.5521553 C9.89630611,18.7593692 10.0943135,18.5033092 10.7545899,18.7593692 C11.1507935,18.82343 11.9432006,19.0154292 12.5374116,18.9515515 C16.3010625,28.6832957 21.1210046,29.899718 24.0263717,28.4911135 C19.8665172,21.5125176 29.176452,18.82343 31.1574699,18.1191277 C31.7516809,16.2624639 31.8177463,13.8294363 31.6195501,12.4208318 C29.3746481,11.332531 29.7047863,8.64344348 29.9027937,6.91471817 L29.9027937,6.91471817 Z M16.648944,17.6611848 L20.1483333,17.6611848 L22.1952278,7.35307679 L18.6297731,7.35307679 L16.648944,17.6611848 L16.648944,17.6611848 Z"></path>
</svg>