<svg xmlns="http://www.w3.org/2000/svg" viewBox="0 0 100 100"><path d="M59.078 0c-21.923 0-39.76 17.835-39.76 39.758 0 8.968 2.99 17.25 8.017 23.91L3.27 87.733c-2.807 2.806-2.807 7.355 0 10.16 2.805 2.807 7.354 2.807 10.16 0L37.927 73.4c6.13 3.868 13.38 6.117 21.15 6.117 21.924 0 39.76-17.835 39.76-39.758S81 0 59.077 0zm0 69.443c-16.368 0-29.685-13.317-29.685-29.685S42.71 10.073 59.078 10.073 88.763 23.39 88.763 39.758 75.446 69.443 59.078 69.443z"/><circle cx="59.077" cy="39.758" r="22.17"/></svg>