<svg xmlns="http://www.w3.org/2000/svg" viewBox="0 0 100 100"><path d="M88 20.994C88 14.834 82.524 10 76.363 10H60.48c-.453-5.49-5.056-10-10.66-10S39.61 4.51 39.156 10h-15.52C17.474 10 12 14.833 12 20.994v15.874h4.024v51.96c0 6.16 5.013 11.172 11.174 11.172h45.604c6.16 0 11.173-5.012 11.173-11.173v-51.96H88V20.995zM49.82 5.932c2.328 0 4.266 1.86 4.684 4.068h-9.37c.417-2.21 2.356-4.068 4.685-4.068zM23.635 19h52.727C77.62 19 79 19.738 79 20.994V28H21v-7.006C21 19.738 22.38 19 23.636 19zM75.08 88.827c0 1.255-1.023 2.277-2.278 2.277H27.198c-1.256 0-2.278-1.022-2.278-2.277v-51.96h6.148V83c0 1.64 1.328 2.966 2.966 2.966C35.672 85.966 37 84.64 37 83V36.868h10.034V83c0 1.64 1.328 2.966 2.966 2.966 1.64 0 2.966-1.328 2.966-2.966V36.868H63V83c0 1.64 1.36 2.966 3 2.966s3-1.328 3-2.966V36.868h6.08v51.96z"/></svg>