<svg viewBox="0 0 28 29" version="1.1" xmlns="http://www.w3.org/2000/svg">
    <path d="M9.15954464,6.02235891 L9.82734826,6.02235891 L11.5115385,6.08646417 C11.6598556,6.08646417 11.8029026,6.02235891 11.9406795,5.89338522 C12.067916,5.74304312 12.210963,5.50722733 12.3705733,5.18441154 C12.5286779,4.8516747 12.7093689,4.54564838 12.9103875,4.26633259 C13.1114062,3.9870168 13.3395285,3.65962206 13.5940016,3.28338522 L13.8635323,3.1551747 L24.114732,0.384148381 C24.3059632,0.341411539 24.4429872,0.362016802 24.5280625,0.448253644 L24.6394886,0.787095749 C24.6816498,0.947358907 24.7667251,1.19996417 24.8939617,1.54414838 C25.0204453,1.88756943 25.1424117,2.32791154 25.2591079,2.8651747 C25.3652639,3.39099049 25.4443162,3.76112206 25.4977706,3.97633259 C25.5504721,4.19154312 25.5926333,4.36325364 25.6242542,4.49222733 C25.656628,4.62043785 25.7401976,4.91043785 25.8757158,5.36222733 C26.0097283,5.82393785 26.1023324,6.17804312 26.154281,6.42530628 L26.5224388,7.81120101 C26.7392679,8.55375364 26.8973725,9.14596417 26.9952468,9.58630628 C27.0991441,10.0258852 27.1872309,10.3578589 27.2602602,10.5829905 C27.522262,11.35378 27.485371,11.9963589 27.1488341,12.5099642 C26.9794363,12.8419379 26.6986125,13.34028 26.3071154,14.0034642 C26.0631827,14.4224379 26.1369648,14.9055168 26.5292147,15.4534642 C26.6135372,15.5824379 26.7249632,15.7808589 26.863493,16.0487273 C27.3054329,16.7233589 27.5056987,17.2369642 27.4635375,17.5910694 C27.4206234,17.9436484 27.1932539,18.9067536 26.7814292,20.4773326 C26.3696044,22.0486747 26.0948036,23.0957273 25.9577796,23.6192536 C25.8207556,24.14278 25.6724385,24.6685957 25.513581,25.1944115 C25.3547236,25.7202273 25.2169467,26.2147536 25.1002505,26.6764642 C24.9835543,27.1488589 24.9037491,27.4709115 24.8615879,27.6426221 C24.6289483,28.3302273 24.1727036,28.5660431 23.4951126,28.3515957 C22.0962635,28.0081747 21.1536591,27.7609115 20.6665464,27.6105694 C20.1786808,27.4602273 19.6328436,27.3045431 19.0290347,27.1435168 C18.4252258,26.9824905 17.7950661,26.8054379 17.1378028,26.6115957 C16.4805395,26.4185168 15.6651716,26.2040694 14.6909462,25.9674905 C13.7046748,25.7316747 13.0481644,25.21578 12.7199092,24.4213326 C12.6559144,24.2702273 12.4865167,23.9703063 12.210963,23.51928 C11.9354093,23.0682536 11.5378892,22.8270957 11.0191556,22.79428 C10.5207498,22.7736747 9.99674602,22.7736747 9.44563863,22.7950431 C8.89453125,22.8164115 8.45484995,22.6553852 8.12659473,22.3119642 C6.31516799,20.5193063 3.98350191,18.1634379 1.13385511,15.2435957 C0.699443957,14.7605168 0.709984262,14.2667536 1.16547602,13.7623063 C2.26769079,12.6893063 3.15232355,11.8048063 3.82012717,11.10728 C4.49771822,10.4097536 4.9848309,9.91141154 5.2814652,9.61072733 L6.26698374,8.59725364 C6.63815306,8.22177996 6.92424706,7.93788522 7.12526573,7.74480628 L8.58735664,6.24749049 C8.73567379,6.09791154 8.92615216,6.02235891 9.15954464,6.02235891 L9.15954464,6.02235891 Z M15.5055612,12.6824379 C15.6960396,12.6824379 15.8390866,12.5916221 15.9347022,12.4092273 L19.8285921,5.57820101 L19.9083973,5.35230628 L19.6381138,5.32025364 L17.3651722,5.91627996 C16.887847,6.02388522 16.178635,6.20704312 15.2352777,6.46422733 C14.2926733,6.73285891 13.5879786,6.92135891 13.1219465,7.02820101 C12.6551616,7.13580628 12.3005556,7.31820101 12.0573757,7.57538522 C11.060564,8.64991154 10.0118036,9.73435891 8.91034171,10.8302536 C7.80812693,11.9253852 7.27283001,12.5221747 7.30445092,12.6183326 L7.5912978,12.6824379 L15.5055612,12.6824379 L15.5055612,12.6824379 Z M7.7343448,16.0174379 L7.40006655,16.0494905 C7.2622897,16.0716221 7.27283001,16.1891484 7.43168746,16.4043589 C10.5787214,19.6584642 12.1785892,21.3122273 12.2312907,21.3656484 C12.2847451,21.4198326 12.3909011,21.4732536 12.5497585,21.5266747 C14.107465,21.92428 16.4489186,22.5370957 19.574119,23.3635957 L19.7969712,23.3315431 L19.7329765,23.1056484 C19.5635787,22.79428 19.2880251,22.311201 18.9070683,21.6556484 C18.5253587,21.0008589 18.249805,20.51778 18.0804072,20.2056484 L16.0303179,16.5653852 C15.8390866,16.1891484 15.5108314,16.0067536 15.0447993,16.0174379 C15.0447993,16.0388063 14.4515307,16.0494905 13.2649935,16.0494905 L11.4686244,16.0174379 L7.7343448,16.0174379 L7.7343448,16.0174379 Z M24.8540591,14.5521747 C24.8224382,14.2179115 24.4670793,12.8404115 23.7879825,10.4189115 L22.8958209,7.23730628 C22.8009582,6.91525364 22.6579112,6.89388522 22.4666799,7.17320101 C21.1634465,9.50388522 20.2998944,11.0286747 19.8760235,11.7483326 C19.4521527,12.4786747 19.1133571,13.0800431 18.8588841,13.5524379 C18.5938707,14.0255957 18.461364,14.3094905 18.461364,14.4064115 C18.461364,14.5033326 18.5411691,14.7070957 18.7000266,15.0184642 L21.3704882,19.7065431 C21.5180525,19.9965431 21.7409046,20.3888063 22.037539,20.8825694 C22.3341733,21.3763326 22.5088412,21.6884642 22.5622956,21.8174379 L22.7369635,21.9784642 L22.8958209,21.7846221 L23.6471941,19.1219642 C24.4241652,16.3669642 24.8262026,14.8429379 24.8540591,14.5521747 L24.8540591,14.5521747 Z"></path>
</svg>