<?xml version="1.0" encoding="utf-8"?>
<!-- Generator: Adobe Illustrator 19.1.0, SVG Export Plug-In . SVG Version: 6.00 Build 0)  -->
<svg version="1.1" id="Layer_1" xmlns="http://www.w3.org/2000/svg" xmlns:xlink="http://www.w3.org/1999/xlink" x="0px" y="0px"
	 viewBox="0 0 100 100" style="enable-background:new 0 0 100 100;" xml:space="preserve">
<path d="M30.218,84.057V91H0v-4.45c0-7.27,4.12-13.912,10.632-17.142L27,61.012v-6.835l-9.605-2.517
	c-0.953-0.236-1.624-1.09-1.63-2.07l-0.05-11.024l-3.3-1.875c-0.34-0.19-0.438-0.63-0.216-0.95l5.8-8.325
	c0,0-1.878-1.34-0.807-3.572c1.072-2.232,5.455-9.325,5.455-9.325s-1.168-1.972-1.656-3.802c-0.082-0.308,0.14-0.613,0.456-0.652
	c4.358-0.55,16.027-1.44,16.027-1.44c3.906,0,7.208,0.72,9.906,2.003c-0.574,0.626-1.07,1.306-1.473,2.05
	c-0.65,1.203-0.96,2.363-1.08,3.39c-0.846,1.363-1.925,3.373-2.714,5.766c-0.97,2.944-1.045,5.995-0.92,8.122
	c-0.956,1.323-2.214,3.04-3,4.03c-1.352,1.706-1.914,3.896-1.542,6.01c0.315,1.788,1.296,3.38,2.725,4.448l0.347,6.498
	c0.176,3.946,3.35,8.11,8.928,8.11c0.143,0,0.288-0.002,0.437-0.007c0.228-0.01,0.46-0.014,0.696-0.014
	c0.753,0,1.353,0.05,1.81,0.113l-12.01,7.74c-5.867,3.78-9.368,10.202-9.368,17.18L30.218,84.057z"/>
<path d="M48.651,53.054c-2.855,0-2.94-2.404-2.94-2.404l-0.507-9.473c0,0-0.962-0.747-2.162-1.486
	c-0.662-0.405-0.632-1.374-0.15-1.984c1.515-1.908,4.51-6.116,4.51-6.116s-0.8-4.218,0.407-7.885c1.12-3.402,3.03-5.838,3.03-5.838
	s-1.098-3.56,4.686-5.23c3.087-0.803,6.526-1.04,8.57-1.11c0.42-0.043,1.27-0.113,2.402-0.113c4.895,0,15.077,1.31,18.734,11.705
	c1.813,5.156,0.9,10.17-0.953,14.42c2.43,0.8,6.65,2.796,9.052,7.42c3.324,6.4,1.274,12.056,5.84,15.224
	c0.326,0.227,0.26,0.74-0.116,0.873c-2.515,0.892-4.79,1.3-6.792,1.3c-6.905,0-10.61-4.837-10.037-11.348
	c0.352-4.004-1.293-6.927-1.917-6.927c-0.06,0-0.11,0.027-0.15,0.084c-2.806,4.115-4.774,6.323-4.774,6.323
	c-2.52,3.164-1.08,7.045,0.385,9.1c0.85,1.19,1.55,2.13,2.754,2.917L92.68,70.53c4.523,2.566,7.32,7.367,7.32,12.57V91H36.208
	v-6.943c0-4.91,2.494-9.484,6.62-12.143l13.95-8.992c1.033-0.665,1.634-1.857,1.5-3.078c-0.163-1.516-0.493-2.845-1.058-4.038
	c-1.036-2.188-4.437-2.774-7.437-2.774L48.651,53.054z"/>
</svg>
