<svg xmlns="http://www.w3.org/2000/svg" width="18" height="11" viewBox="0 0 18 11">
  <path fill="#FFF" d="M9,0.00310411626 C5.17937761,-0.0932231001 1.65717026,2.05923694 0,5.50310412 C1.65717026,8.94697129 5.17937761,11.0994313 9,11.0031041 C12.8206224,11.0994313 16.3428297,8.94697129 18,5.50310412 C16.3428297,2.05923694 12.8206224,-0.0932231001 9,0.00310411626 L9,0.00310411626 Z M9,9.17010412 C6.86069064,9.2786735 5.03422134,7.64150339 4.909,5.50310412 C5.03422134,3.36470484 6.86069064,1.72753473 9,1.83610412 C11.1393094,1.72753473 12.9657787,3.36470484 13.091,5.50310412 C12.9657787,7.64150339 11.1393094,9.2786735 9,9.17010412 L9,9.17010412 Z M9,3.30310412 C7.71535066,3.2349422 6.61757054,4.21869628 6.545,5.50310412 C6.61757054,6.78751196 7.71535066,7.77126603 9,7.70310412 C10.2846493,7.77126603 11.3824295,6.78751196 11.455,5.50310412 C11.3824295,4.21869628 10.2846493,3.2349422 9,3.30310412 Z"/>
</svg>
