<svg xmlns="http://www.w3.org/2000/svg" width="18" height="15" viewBox="0 0 18 15">
  <path fill="#FFF" d="M9,24.158 C11.2187299,24.1201026 13.048944,25.8863263 13.09,28.105 C13.0908055,28.6012003 12.9921987,29.0925341 12.8,29.55 L15.189,31.855 C16.4273312,30.8633007 17.3929592,29.5728142 17.995,28.105 C16.4729256,24.4891593 12.9179945,22.1504097 8.995,22.184 C7.88625767,22.1835219 6.78541291,22.3704897 5.739,22.737 L7.5,24.442 C7.97781037,24.2542589 8.48662932,24.1579225 9,24.158 Z M0.818,22 L2.683,23.8 L3.059,24.163 C1.70132244,25.1758947 0.64406295,26.5383389 0,28.105 C1.5220744,31.7208407 5.07700551,34.0595903 9,34.026 C10.2249814,34.0276457 11.439717,33.8028705 12.583,33.363 L12.927,33.695 L15.323,36 L16.362,35 L1.857,21 L0.818,22 Z M5.342,26.368 L6.61,27.592 C6.56780229,27.7597676 6.54597826,27.9320096 6.545,28.105 C6.56537028,28.8357527 6.91284411,29.518726 7.49152389,29.9654296 C8.07020367,30.4121332 8.81890592,30.5753373 9.531,30.41 L10.8,31.634 C10.2387542,31.9060341 9.62369026,32.0488657 9,32.052 C6.78127014,32.0898974 4.95105603,30.3236737 4.91,28.105 C4.91425488,27.4996974 5.06305127,26.904169 5.344,26.368 L5.342,26.368 Z M8.868,25.752 L11.445,28.239 L11.461,28.113 C11.4502254,27.4733579 11.1854696,26.8642694 10.7251155,26.4200483 C10.2647615,25.9758273 9.64661956,25.7329591 9.007,25.745 L8.868,25.752 Z" transform="translate(0 -21)"/>
</svg>
