<svg viewBox="0 0 34 30" version="1.1" xmlns="http://www.w3.org/2000/svg">
    <path d="M23.8150736,29.9652657 L11.0847487,29.9652657 C9.58493816,29.9652657 8.48995606,29.3350363 7.79887598,28.0755097 C6.37780784,25.6357013 4.25269029,21.935434 1.42352333,16.9756401 C0.732443251,15.7161134 0.732443251,14.4836233 1.42352333,13.276305 L7.91652634,1.99929994 C8.12496202,1.56671642 8.52237939,1.16023706 9.10877843,0.7789296 C9.16158214,0.726721243 9.5395455,0.56916388 10.2435949,0.307189803 L24.616393,0.307189803 C25.6854364,0.621372237 26.5201055,1.30381005 27.1194739,2.35357094 C27.7188423,3.40333183 28.5405421,4.83346789 29.5836468,6.64397913 C30.6267516,8.45449037 31.2983777,9.62172006 31.5975987,10.1466005 C31.8977461,10.671481 32.2951634,11.3408667 32.7907772,12.1538254 C33.2863909,12.9677164 33.6578696,13.7415188 33.9052133,14.4770973 L33.9052133,15.7748478 C33.6449003,16.4181294 32.9927282,17.6580779 31.9496234,19.4946933 C30.9065186,21.332241 29.2510761,24.2186173 26.9823696,28.1538222 C26.3181545,29.3611405 25.2620804,29.9652657 23.8150736,29.9652657 L23.8150736,29.9652657 Z M22.3680668,23.5883878 L24.8906017,23.5883878 C25.0730987,23.5883878 25.1833381,23.5688097 25.222246,23.5296534 C25.2491111,23.4895649 25.202792,23.3786221 25.0860681,23.1949606 L20.998876,15.5790665 C20.8682563,15.2508997 20.8682563,14.9553631 20.998876,14.6924567 C23.8410123,9.5107773 25.2491111,6.85374485 25.222246,6.72229167 C25.1963074,6.6831354 25.0990374,6.66355726 24.9295097,6.66355726 L22.3680668,6.66355726 C22.0679194,6.66355726 21.8659684,6.7884844 21.7612874,7.03740639 C21.1748883,8.16547982 20.2688879,9.85852225 19.0432861,12.1146691 L17.5962793,14.8108578 C17.4656596,15.0206235 17.361905,15.0607121 17.2831626,14.9292589 C17.2053466,14.8108578 17.0617576,14.5423577 16.8533219,14.1228263 C16.6448862,13.7023625 15.3738918,11.3278146 13.0394122,6.99825012 C12.9356575,6.7884844 12.7596452,6.67660935 12.5123015,6.66355726 L10.0286746,6.66355726 C9.81931251,6.66355726 9.69610386,6.6831354 9.65719587,6.72229167 C9.61736149,6.76238023 11.012491,9.43153247 13.8416579,14.7325453 C13.9982163,14.9954517 13.9982163,15.2639518 13.8416579,15.5389779 C10.9995216,20.8138866 9.59790749,23.4699867 9.63681549,23.509143 C9.66368053,23.5622837 9.76743518,23.5883878 9.9499322,23.5883878 L12.3946511,23.5883878 C12.7198108,23.5883878 12.9615962,23.4578669 13.1181545,23.1949606 L17.2053466,15.4606654 C17.2312853,15.4345612 17.2572239,15.395405 17.2831626,15.3422643 C17.3748743,15.1324986 17.5110523,15.2108111 17.6935493,15.5790665 C18.6060344,17.2972808 19.9622559,19.8489643 21.7612874,23.2341168 C21.8919071,23.4699867 22.0938581,23.5883878 22.3680668,23.5883878 L22.3680668,23.5883878 Z"></path>
</svg>