<svg xmlns="http://www.w3.org/2000/svg" viewBox="0 0 295.83 255.69"><defs><style>.cls-1{fill:#208aec;}</style></defs><title>Logo - Symbol</title><g id="Camada_2" data-name="Camada 2"><g id="Layer_1" data-name="Layer 1"><path class="cls-1" d="M72.92,94.66l.38-.24c.25-.15.62-.4,1.12-.68,1-.56,2.45-1.42,4.36-2.37,1-.48,2-1,3.17-1.54s2.43-1.1,3.79-1.69,2.83-1.16,4.37-1.78,3.19-1.19,4.91-1.8c.86-.3,1.75-.58,2.65-.88s1.82-.6,2.76-.88,1.9-.56,2.88-.84,2-.57,3-.83,2-.52,3.08-.77,2.1-.53,3.17-.75,2.16-.47,3.26-.68,2.21-.46,3.34-.65c4.5-.81,9.19-1.47,14-1.92l3.62-.28c1.21-.1,2.43-.19,3.65-.24l7.49-.19,7.11.19c1.21,0,2.47.14,3.69.24l3.68.28c4.82.45,9.49,1.11,14,1.92,1.13.19,2.23.43,3.34.65s2.19.45,3.26.68,2.13.51,3.17.75,2.07.5,3.08.77,2,.56,3,.83,1.94.54,2.88.84,1.86.6,2.76.88,1.79.57,2.65.88,1.7.61,2.52.91,1.62.59,2.39.89c1.55.61,3,1.2,4.37,1.78s2.63,1.15,3.79,1.69,2.22,1.06,3.17,1.54c1.91,1,3.36,1.82,4.36,2.37.5.28.87.53,1.12.68l.38.24-1.63-.52c-1.06-.33-2.63-.8-4.63-1.36L213,91.87l-3.93-1c-1.41-.34-2.9-.71-4.48-1.07s-3.25-.74-5-1.1-3.56-.74-5.45-1.1-3.84-.72-5.85-1.05-4.08-.67-6.2-1-4.29-.6-6.5-.87-4.46-.51-6.74-.72-4.59-.39-6.93-.55-4.69-.25-7.05-.35l-7.11-.13-7.11.13c-2.36.1-4.72.24-7.05.35s-4.64.37-6.93.55-4.53.49-6.74.73-4.38.59-6.5.87-4.19.66-6.2,1-4,.72-5.85,1.05-3.7.75-5.45,1.1-3.41.75-5,1.1l-4.48,1.07-3.93,1-3.32.91c-2,.57-3.56,1-4.63,1.36Z"/><path class="cls-1" d="M255.34,167.44C252,154,243.28,143.5,229.46,136.21h0c-15.43-8.13-36.06-6.89-52.94-3.57-1.82-6.12-5.73-10.27-9.2-9.5s-5.35,6.33-4.38,12.75c-7.29,2-12.83,4.07-15.32,5-2.49-1-8-3-15.26-5,1-6.42-.87-12-4.38-12.76s-7.39,3.38-9.2,9.5c-16.88-3.32-37.54-4.58-53,3.57C51.95,143.5,43.24,154,39.88,167.44c-3.8,15.21-.77,33.73,9,55a170.13,170.13,0,0,0,15.73,27.33L69,255.69l10.7-40.53a104.34,104.34,0,0,0,14,14.82c16,13.88,34.63,21.22,54,21.22,17.67,0,35.8-7.32,52.41-21.17a126.25,126.25,0,0,0,15.39-15.29l10.81,41,4.33-5.88a170.13,170.13,0,0,0,15.73-27.33C256.11,201.17,259.15,182.65,255.34,167.44ZM111.76,235c-29.72-21.35-11.88-25.42-3.86-26.2l3.29-.18,6.09-22.34c4.53,4.42,15.37,13.19,30.16,13.19s25.9-8.82,30.51-13.23l6.1,22.39,3.3.18c6.93.67,21.16,3.8,5.8,18.38-18.43,14.52-34.82,17.65-45.49,17.65A70.42,70.42,0,0,1,111.76,235Zm35.85-57c9.73,0,18.06,3.9,21.57,9.44-4.65,3.64-12.24,8.05-21.72,8.05s-16.88-4.36-21.46-8C129.49,182,137.85,178,147.61,178Zm92.47,41.85a172.86,172.86,0,0,1-10.92,20.06l-9.41-35.65-30.29-1.69L183,179l-35.42-15.82L112.19,179l-6.42,23.56-30.29,1.69-9.41,35.65A172.74,172.74,0,0,1,55.2,220c-11.47-25-11-41.59-8.65-51.14,2.91-11.64,10.51-20.78,22.6-27.15,7.34-3.87,16.22-5.29,25.31-5.29,24.93,0,51.4,10.68,51.76,10.83l1.39.57,1.39-.57c.49-.2,49.63-20,77.07-5.54,12.08,6.37,19.69,15.5,22.6,27.13C253,186.11,246.38,206.13,240.08,219.89Z"/><path class="cls-1" d="M92.5,63.59,62.31,10.65l5.84,1.59h0l-.57.39-.62.43-1.25.9c-.83.61-1.66,1.25-2.48,1.89q-2.46,1.94-4.84,4c-3.17,2.77-6.22,5.69-9.14,8.73A151.4,151.4,0,0,0,33.32,48.26,146,146,0,0,0,21,70.29C19.23,74.13,17.65,78,16.26,82s-2.59,8-3.63,12.1-1.87,8.22-2.55,12.38-1.15,8.36-1.48,12.56l-.22,3.16-.13,3.17c-.05,1.05-.07,2.11-.07,3.17s0,2.11,0,3.17c0,2.11,0,4.23.17,6.34.06,1.06.09,2.11.16,3.17l.24,3.17c.07,1.06.18,2.11.29,3.16l.33,3.16.42,3.15c.14,1.05.27,2.1.46,3.15.34,2.09.66,4.19,1.09,6.27l.6,3.13.68,3.11c.91,4.15,2,8.26,3.15,12.36.58,2,1.23,4.07,1.85,6.11l2,6.06,0,.11a4.08,4.08,0,0,1-7.74,2.58l-2.09-6.27c-.64-2.11-1.31-4.21-1.91-6.33-1.2-4.25-2.33-8.52-3.27-12.84l-.71-3.24-.63-3.26c-.44-2.17-.78-4.36-1.13-6.54-.19-1.09-.33-2.19-.48-3.29l-.44-3.29-.35-3.31c-.12-1.1-.24-2.2-.31-3.31l-.25-3.32c-.08-1.11-.11-2.22-.17-3.32C.05,136.22.05,134,0,131.78c0-1.11,0-2.22,0-3.33s0-2.22.08-3.33l.13-3.33.23-3.33C.81,114,1.3,109.6,2,105.21s1.58-8.77,2.7-13.08,2.37-8.59,3.83-12.8,3.13-8.34,5-12.4A154.21,154.21,0,0,1,26.58,43.67,159.56,159.56,0,0,1,43.36,23Q48,18.14,53,13.73q2.52-2.2,5.16-4.29c.88-.69,1.77-1.38,2.69-2l1.39-1L63,5.9l.78-.52h0L64,5.21a3.9,3.9,0,0,1,5.36,1.33,4.33,4.33,0,0,1,.22.42L94.48,62.58a1.11,1.11,0,0,1-2,1Z"/><path class="cls-1" d="M201.35,62.58,226.24,7a3.9,3.9,0,0,1,5.16-2l.4.21.29.17h0l.78.52.71.5,1.39,1c.91.67,1.81,1.35,2.69,2q2.64,2.08,5.16,4.29,5,4.4,9.66,9.23a159.58,159.58,0,0,1,16.78,20.71A154.21,154.21,0,0,1,282.3,66.93c1.83,4.06,3.5,8.19,5,12.4s2.74,8.48,3.83,12.8,2,8.69,2.7,13.08,1.22,8.82,1.56,13.25l.23,3.33.13,3.33c.06,1.11.07,2.22.08,3.33s0,2.22,0,3.33c0,2.22,0,4.44-.18,6.66-.06,1.11-.09,2.22-.17,3.32l-.25,3.32c-.07,1.11-.19,2.21-.31,3.31l-.35,3.31-.44,3.29c-.14,1.1-.29,2.2-.48,3.29-.35,2.18-.69,4.37-1.13,6.54l-.63,3.26-.71,3.24c-.94,4.32-2.07,8.59-3.27,12.84-.6,2.12-1.28,4.22-1.91,6.33l-2.09,6.27a4.08,4.08,0,1,1-7.74-2.58l0-.11,2-6.06c.61-2,1.26-4.07,1.85-6.11,1.16-4.09,2.24-8.21,3.15-12.36l.68-3.11.6-3.13c.42-2.08.75-4.18,1.09-6.27.18-1,.32-2.1.46-3.15l.42-3.15.33-3.16c.11-1.05.23-2.11.29-3.16l.24-3.17c.07-1.06.11-2.11.16-3.17.13-2.11.13-4.23.17-6.34,0-1.06,0-2.11,0-3.17s0-2.11-.07-3.17l-.13-3.16-.22-3.16c-.33-4.21-.78-8.41-1.48-12.56s-1.5-8.3-2.55-12.38S280.95,86,279.56,82s-3-7.89-4.7-11.73a146,146,0,0,0-12.36-22,151.41,151.41,0,0,0-15.92-19.65c-2.92-3-6-6-9.14-8.73q-2.38-2.07-4.84-4c-.82-.65-1.65-1.28-2.48-1.89l-1.25-.9-.62-.43-.57-.39h0l5.84-1.59L203.33,63.59a1.11,1.11,0,0,1-2-1Z"/><path class="cls-1" d="M263.25,129.63l-.07-.11c-.26-.41-.44-.66-.66-1s-.42-.57-.64-.83c-.42-.53-.86-1-1.3-1.54h.11c0-40.92-25.12-84.77-58.05-102.68l-2.23,6.67c13.66,7.71,26.3,20.56,36.07,36.78a124.74,124.74,0,0,1,13.77,32.45c1.14,5.19,1.89,15.5-11.7,11.21l-.5-.25a134.69,134.69,0,0,0-14.37-5.8c-2.43-.87-4.9-1.57-7.36-2.31l-3.71-1c-.62-.16-1.24-.34-1.86-.49l-1.87-.44c-5-1.24-10-2.18-15-3-2.52-.39-5-.75-7.56-1.1s-5-.63-7.58-.88-5.06-.49-7.59-.65-5.06-.33-7.6-.44l-7.6-.29-7.59-.13h-1.21l-7.59.13-7.6.29c-2.53.11-5.06.3-7.6.44s-5.06.41-7.59.65-5.05.59-7.58.88-5,.71-7.56,1.1c-5,.83-10.05,1.77-15,3l-1.87.44c-.62.15-1.24.33-1.86.49l-3.71,1c-2.46.74-4.93,1.43-7.36,2.31a134.93,134.93,0,0,0-14.29,5.76c-14.64,4.91-13.49-6.4-12.32-11.48a125,125,0,0,1,13.5-31.73c9.7-16.2,22.27-29,35.85-36.77l-2.1-6.75C59.64,41.51,34.6,85.34,34.6,126.18h.29c-.44.5-.88,1-1.3,1.54-.22.27-.43.56-.64.83s-.4.55-.66,1l-.07.11a2,2,0,0,0-.27,1.45h0c.06.38.12.65.18,1s.14.61.21.91q.22.9.5,1.79a25.26,25.26,0,0,0,1.38,3.5,17.29,17.29,0,0,0,1.92,3.1,35.31,35.31,0,0,0,.39,7.82c.9,4.67,3,5.94,4.62,6.17a4.24,4.24,0,0,0,.62,0l.44,0a65.26,65.26,0,0,0,1.48,10.42c4-12.25,12-22,23.92-29,.57-.34,1.16-.66,1.74-1a57.47,57.47,0,0,1-1.57-6.18C67.2,123.48,69.19,113.78,86,110l.67-.14,1.81-.33,1.38-.26.22,0h0l2-.36,3.63-.57,1.81-.29,1.82-.26,3.64-.51c2.44-.3,4.88-.57,7.32-.84s4.89-.46,7.35-.63c1.23-.08,2.46-.15,3.68-.25s2.45-.2,3.68-.25c2.46-.12,4.92-.27,7.38-.36l7.39-.2,7.4-.05h1.15l7.4.05,7.39.2c2.46.08,4.92.24,7.38.36,1.23,0,2.46.16,3.68.25s2.45.16,3.68.25c2.45.17,4.9.42,7.35.63s4.88.54,7.32.84l3.64.51L198,108l1.81.29,3.63.57.84.15c21.09,3.16,23,14.61,22.16,21.19-.33,1.58-.73,3.22-1.24,4.9h0l-.08.24q1.39.69,2.74,1.47c12,7,20,16.86,24,29.21a65.27,65.27,0,0,0,1.53-10.62h.32a4.24,4.24,0,0,0,.62,0c1.61-.24,3.72-1.5,4.62-6.17a35.27,35.27,0,0,0,.39-7.81,17.26,17.26,0,0,0,1.92-3.11,25.21,25.21,0,0,0,1.38-3.5q.28-.89.5-1.79.11-.45.21-.91c.07-.32.12-.59.18-1h0A2,2,0,0,0,263.25,129.63Z"/><path class="cls-1" d="M203.59,19.25l-.28-.32h0l-.53-.66-.4-.48c-.26-.3-.52-.58-.77-.85-.51-.53-1-1-1.53-1.52-1-.94-2.1-1.78-3.17-2.58a49.3,49.3,0,0,0-6.64-4.08,65.33,65.33,0,0,0-6.89-3c-2.32-.88-4.67-1.61-7-2.24s-4.71-1.16-7.08-1.6c-1.18-.22-2.36-.42-3.55-.6L162.18.81c-2.37-.28-4.73-.45-7.1-.61q-1.77-.08-3.54-.14L147.93,0h0l-3.61.07q-1.77.05-3.54.14c-2.36.16-4.73.33-7.1.61l-3.55.47c-1.19.18-2.37.38-3.55.6-2.37.44-4.73,1-7.08,1.6s-4.7,1.36-7,2.24a65.33,65.33,0,0,0-6.89,3,49.3,49.3,0,0,0-6.64,4.08c-1.07.8-2.13,1.65-3.17,2.58-.51.47-1,1-1.53,1.52-.26.28-.51.55-.77.85l-.4.48-.53.66h0l-.28.32a4.68,4.68,0,0,0-.84,4.51l14.73,43.87a1.1,1.1,0,0,0,1.27.79,1.26,1.26,0,0,0,.87-1.48l-7.92-42.79.1-.09A30.63,30.63,0,0,1,103,22.2a45.22,45.22,0,0,1,5.71-3.11c2-.9,4.06-1.67,6.16-2.37s4.25-1.25,6.4-1.77,4.35-.94,6.55-1.28c1.1-.17,2.2-.32,3.31-.47l3.32-.38c2.22-.23,4.45-.34,6.68-.45l3.35-.12,3.33-.06H148l3.33.06,3.35.12c2.23.11,4.46.23,6.68.45l3.32.38c1.1.16,2.21.3,3.31.47,2.2.34,4.39.75,6.55,1.28s4.31,1.06,6.4,1.77,4.16,1.48,6.16,2.37a45.22,45.22,0,0,1,5.71,3.11,30.63,30.63,0,0,1,2.53,1.86l.1.09-7.92,42.79a1.26,1.26,0,0,0,.87,1.48,1.1,1.1,0,0,0,1.27-.79l14.73-43.87A4.68,4.68,0,0,0,203.59,19.25ZM98.65,25.87h0l-.05.05h0s0,0,0,0l.05-.07Zm98.52,0h0v-.06l.05.07s0,0,0,0v0Z"/></g></g></svg>