<svg width="139" height="30" viewBox="0 0 139 30" xmlns="http://www.w3.org/2000/svg" xmlns:xlink="http://www.w3.org/1999/xlink"><title>logo-back4app-blue</title><defs><path id="a" d="M33.488.137H0v29.165h33.488V.137z"/></defs><g fill="none" fill-rule="evenodd"><path d="M24.17 10.578c-.12-.057-.249-.113-.386-.173l-.045-.02c-.155-.065-.32-.131-.494-.2a10.154 10.154 0 0 0-.209-.078l-.064-.024-.097-.036c-.061-.022-.123-.045-.187-.066a7.554 7.554 0 0 0-.212-.071l-.089-.03-.106-.033a7.686 7.686 0 0 0-.445-.136l-.086-.025a2.864 2.864 0 0 1-.115-.032 15.414 15.414 0 0 0-.564-.147l-.006-.002a15.163 15.163 0 0 0-.857-.188 18.973 18.973 0 0 0-1.832-.264l-.413-.032c-.136-.011-.28-.021-.422-.027l-.444-.012-.358-.01-.845.023c-.14.005-.276.016-.416.027l-.408.031a19.378 19.378 0 0 0-1.828.265l-.13.026a11.585 11.585 0 0 0-.605.132l-.123.03-.014.004c-.113.027-.226.054-.334.083-.075.02-.15.04-.222.062-.039.01-.077.022-.116.033l-.083.024a7.732 7.732 0 0 0-.241.07c-.07.02-.139.044-.207.066l-.107.035-.087.028-.213.07c-.17.062-.368.133-.556.205l-.035.014c-.162.064-.315.125-.46.187l-.053.023c-.133.058-.26.113-.376.168-.12.057-.246.118-.359.175a8.99 8.99 0 0 0-.415.224l-.08.045-.104.062-1.011.64 1.24-.396c.102-.03.274-.082.516-.151l.81-.213.5-.12.193-.043c.118-.027.24-.054.364-.08l.212-.044.397-.079.229-.042c.14-.026.28-.052.425-.076l.242-.039c.149-.024.299-.048.45-.07l.255-.035c.156-.021.314-.043.472-.062l.265-.03c.162-.017.325-.036.487-.051l.275-.023c.166-.014.333-.028.498-.039l.28-.014.507-.026.774-.013h.02l.795.013a59.602 59.602 0 0 1 .788.04c.168.011.335.025.5.039l.273.022c.165.015.328.034.489.052l.265.029c.159.019.316.04.472.062l.254.035c.154.022.305.047.454.07l.239.039c.146.024.288.05.428.076l.226.042c.136.025.268.053.397.08l.212.042.365.08.192.043.332.08.607.153.37.101c.242.069.414.121.516.152l1.239.397-.937-.596-.071-.045a1.894 1.894 0 0 0-.104-.062l-.079-.045c-.103-.058-.244-.139-.415-.224-.116-.06-.247-.122-.36-.175" fill="#1976D2"/><g transform="translate(0 .561)"><mask id="b" fill="#fff"><use xlink:href="#a"/></mask><path d="M26.561 7.868c.686 1.14 1.2 2.352 1.528 3.599.066.296.136.829-.124 1.067-.183.167-.518.176-.995.028l-.048-.024a15.203 15.203 0 0 0-1.626-.657c-.227-.081-.46-.15-.684-.217l-.153-.045-.49-.131a2.86 2.86 0 0 0-.14-.036l-.208-.05a21.4 21.4 0 0 0-1.699-.34c-.302-.046-.6-.088-.854-.124a21.36 21.36 0 0 1-.295-.036c-.183-.021-.37-.044-.558-.063l-.08-.008a24.76 24.76 0 0 0-.777-.065l-.3-.018c-.181-.012-.37-.024-.556-.032l-.855-.033-.853-.014h-.065l-.93.014-.853.033a28 28 0 0 0-.556.032l-.3.018c-.26.016-.522.04-.775.065l-.082.008c-.186.019-.374.042-.556.063l-.3.037c-.25.035-.547.077-.852.123-.666.11-1.205.218-1.696.34l-.21.05a5.085 5.085 0 0 0-.139.036l-.494.132-.149.044a12.44 12.44 0 0 0-.683.217c-.6.206-1.127.419-1.61.65-.507.167-.875.165-1.067-.009-.284-.257-.18-.865-.124-1.11.328-1.225.833-2.41 1.5-3.525A12.626 12.626 0 0 1 9.054 5.13L10.4 7.49a.267.267 0 0 0 .483-.039.265.265 0 0 0-.006-.205l-1.19-2.66c.293-.234.595-.446.9-.633l1.33 3.964a.267.267 0 0 0 .312.182.282.282 0 0 0 .206-.332l-.873-4.719a3.37 3.37 0 0 1 .218-.156c.171-.113.37-.22.62-.338a7.582 7.582 0 0 1 1.386-.457c.22-.054.456-.1.723-.142l.244-.035.493-.06c.246-.025.491-.038.74-.05l.374-.013.369-.007h.026l.372.007.373.012c.25.013.497.026.74.05l.37.044.125.017.245.035c.266.042.502.088.722.142a7.455 7.455 0 0 1 1.383.456c.254.118.452.226.623.338.081.054.153.106.219.157l-.873 4.719a.282.282 0 0 0 .206.332.267.267 0 0 0 .31-.182l1.32-3.932c.303.19.603.404.894.639l-1.173 2.623a.267.267 0 0 0 .477.241l1.323-2.319a12.7 12.7 0 0 1 2.15 2.7zm-16.153 4.784l.088-.016.609-.096.611-.085c.282-.035.56-.066.816-.094l.296-.026c.173-.016.351-.032.526-.044l.146-.01c.09-.005.18-.011.268-.018l.123-.01c.094-.007.19-.014.286-.018l.298-.015c.173-.01.353-.02.528-.025l.827-.023.83-.005h.128l.828.005.828.023c.177.006.356.016.53.025l.298.015c.095.004.192.011.286.019l.122.009.27.018.144.01c.176.012.354.028.526.044l.293.026c.26.028.538.059.817.093l.41.057.811.125.061.01.036.008c.966.144 2.557.625 2.368 2.213-.02.098-.044.199-.07.299-1.38-.513-3.159-.569-5.294-.164-.246-.706-.722-1.14-1.161-1.04-.447.099-.698.706-.619 1.465a19.75 19.75 0 0 0-1.562.515c-.295-.113-.843-.31-1.555-.514.08-.76-.171-1.367-.618-1.467-.441-.098-.916.335-1.162 1.041-2.187-.414-4-.347-5.392.199a5.8 5.8 0 0 1-.09-.39c-.066-.722.216-1.66 1.927-2.05l.072-.014.202-.038.139-.025.175-.028v-.004zm16.55 12.247c-.356.776-.74 1.456-1.042 1.953l-.999-3.78-3.4-.19-.711-2.61-4.096-1.83-4.096 1.83-.71 2.61-3.401.19-.998 3.78a18.96 18.96 0 0 1-1.036-1.94c-1.27-2.766-1.225-4.596-.962-5.645.316-1.266 1.145-2.26 2.465-2.955.726-.383 1.66-.577 2.774-.577 2.789 0 5.725 1.193 5.755 1.205l.209.086.21-.086c.054-.022 5.51-2.22 8.53-.628 1.318.695 2.147 1.689 2.463 2.954.475 1.896-.257 4.11-.956 5.633zM14.48 21.298c.415-.546 1.271-.892 2.23-.892.953 0 1.808.343 2.224.885-.513.379-1.29.792-2.24.792-.946 0-1.71-.41-2.214-.785zm7.246 4.374c-2.044 1.608-3.854 1.946-5.012 1.946a7.775 7.775 0 0 1-3.95-1.08c-.734-.529-1.935-1.499-1.776-2.093.115-.427.933-.551 1.274-.585l.471-.025.648-2.379c.635.57 1.786 1.356 3.309 1.356 1.561 0 2.769-.856 3.347-1.363l.65 2.386.467.025c.709.069 1.172.272 1.27.56.1.29-.142.722-.698 1.252zm11.761-10.846l-.001-.13v-.001a9.54 9.54 0 0 0-.01-.378l-.015-.378-.026-.375a17.265 17.265 0 0 0-.176-1.5 16.798 16.798 0 0 0-.305-1.48 18.007 18.007 0 0 0-.434-1.447A17.5 17.5 0 0 0 30.48 5.1a18.126 18.126 0 0 0-1.898-2.343 17.23 17.23 0 0 0-1.093-1.044 15.818 15.818 0 0 0-.89-.719A10.472 10.472 0 0 0 26.44.88l-.175-.12-.033-.02a.578.578 0 0 0-.827.262l-1.173 2.622c-.327-.249-.66-.474-.996-.672a.664.664 0 0 0-.135-.606l-.134-.162a2.992 2.992 0 0 0-.272-.28 4.9 4.9 0 0 0-.366-.299 5.62 5.62 0 0 0-.766-.47 7.57 7.57 0 0 0-.788-.345 9.856 9.856 0 0 0-1.607-.44c-.13-.025-.267-.048-.406-.07l-.4-.052a15.752 15.752 0 0 0-.807-.07 18.727 18.727 0 0 0-.401-.015l-.412-.007-.409.007c-.133.004-.267.01-.403.016a15.48 15.48 0 0 0-.805.07l-.401.052c-.137.021-.273.044-.404.069a9.856 9.856 0 0 0-1.606.439 7.381 7.381 0 0 0-.79.346 5.616 5.616 0 0 0-.765.47 3.894 3.894 0 0 0-.548.479c-.03.032-.06.063-.091.1l-.102.126-.031.035a.664.664 0 0 0-.142.574 9.99 9.99 0 0 0-1.004.668L8.083 1.002a.581.581 0 0 0-.83-.26L7.048.88a10.9 10.9 0 0 0-.463.347 17.044 17.044 0 0 0-1.677 1.53 18.073 18.073 0 0 0-1.9 2.343A17.467 17.467 0 0 0 .969 9.137a16.832 16.832 0 0 0-.739 2.927c-.075.45-.133.941-.176 1.502l-.026.377-.015.372a9.744 9.744 0 0 0-.01.508c-.001.083-.003.166-.001.25l.002.193c.004.183.007.372.018.559l.006.13c.004.082.007.163.013.246l.028.37c.009.13.022.256.035.378l.04.375.05.38c.016.119.032.242.053.362l.016.096c.034.212.069.43.112.643l.071.37.08.363a25.07 25.07 0 0 0 .51 1.915l.076.25.234.705a.602.602 0 0 0 1.14-.38l-.228-.689a48.41 48.41 0 0 0-.076-.248c-.044-.143-.09-.29-.13-.436a23.333 23.333 0 0 1-.352-1.378l-.076-.346-.069-.352c-.04-.196-.071-.398-.103-.593l-.017-.107c-.02-.111-.034-.227-.05-.337l-.047-.36-.038-.36a6.924 6.924 0 0 1-.032-.346l-.027-.354a8.328 8.328 0 0 1-.012-.226l-.006-.129c-.01-.168-.013-.343-.016-.511l-.003-.193.001-.225c0-.042 0-.085.002-.128 0-.124.002-.237.007-.35l.014-.351.025-.354a15.966 15.966 0 0 1 .448-2.776 17 17 0 0 1 .403-1.346 16.246 16.246 0 0 1 1.899-3.756A16.832 16.832 0 0 1 6.79 2.618c.18-.156.36-.307.538-.446l.028-.022 1.16 2.035C5.704 6.704 3.89 10.709 3.885 14.426a2.567 2.567 0 0 0-.136.17l-.03.04c-.022.032-.043.06-.07.104l-.009.012a.367.367 0 0 0-.05.263c.006.045.013.078.02.117l.025.106c.018.07.038.141.06.21.048.153.1.288.162.413.058.12.125.23.198.33-.012.334.005.63.049.859.117.606.411.773.638.807l.005.001c.009.104.02.208.032.311-.123.278-.224.57-.298.868-.435 1.74-.09 3.85 1.021 6.272a19.238 19.238 0 0 0 1.78 3.093l.664.9 1.204-4.561c.328.402.803.93 1.412 1.458 1.817 1.58 3.945 2.417 6.153 2.417 2.017 0 4.084-.833 5.974-2.41a14.37 14.37 0 0 0 1.567-1.527l1.22 4.623.664-.9c.04-.053.966-1.32 1.78-3.093 1.113-2.422 1.457-4.532 1.021-6.272a5.31 5.31 0 0 0-.266-.796c.017-.13.03-.259.04-.385.226-.036.516-.206.63-.806.045-.228.062-.524.05-.858.074-.1.14-.209.199-.331a2.929 2.929 0 0 0 .221-.623l.025-.108c.008-.037.014-.07.02-.11a.367.367 0 0 0-.05-.268l-.008-.012c-.028-.045-.048-.073-.07-.104l-.031-.042a4.105 4.105 0 0 0-.156-.192c-.013-3.684-1.81-7.661-4.594-10.179l1.183-2.073.028.022a15.793 15.793 0 0 1 1.554 1.418 16.993 16.993 0 0 1 1.772 2.187 16.214 16.214 0 0 1 1.897 3.756c.152.436.288.89.404 1.347a16.046 16.046 0 0 1 .449 2.774l.023.35.015.357c.006.112.007.225.008.349l.001.129c.002.074.002.15.002.222l-.004.194c-.003.17-.005.343-.016.514-.002.042-.003.085-.006.127l-.011.225-.028.357c-.007.114-.02.231-.032.35l-.037.35-.049.368c-.014.11-.03.223-.048.335l-.017.101a12.7 12.7 0 0 1-.105.598l-.067.347-.076.35a24.118 24.118 0 0 1-.557 2.058l-.23.693a.602.602 0 0 0 1.14.38l.235-.708.076-.247a24.609 24.609 0 0 0 .51-1.915l.08-.367.07-.365c.044-.214.079-.43.113-.641l.015-.097a8.11 8.11 0 0 0 .053-.367l.051-.38.04-.372c.012-.123.026-.249.034-.376l.029-.372.012-.246.006-.129c.012-.187.014-.376.017-.559l.004-.195c.001-.082 0-.164-.001-.246z" fill="#1976D2" mask="url(#b)"/></g><path d="M48.04 19.097a2.168 2.168 0 0 0-.498-1.388 1.697 1.697 0 0 0-.538-.424 1.499 1.499 0 0 0-.683-.157h-4.392v3.875h4.247c.262 0 .507-.049.735-.146.227-.096.425-.23.59-.403a1.948 1.948 0 0 0 .539-1.357zm-6.111-7.934v3.708h3.811c.484 0 .894-.166 1.233-.497.338-.331.507-.787.507-1.367 0-.566-.155-1.016-.466-1.347a1.513 1.513 0 0 0-1.15-.497H41.93zm8.99 8.472c0 .622-.124 1.167-.373 1.638-.249.47-.59.863-1.025 1.18-.435.317-.94.56-1.513.725a6.555 6.555 0 0 1-1.832.248H39.07V8.72h7.872c.511 0 .974.11 1.388.331.414.221.766.507 1.056.86.29.351.514.753.673 1.201.159.45.238.901.238 1.357a4 4 0 0 1-.538 2.02 3.284 3.284 0 0 1-1.574 1.399c.842.248 1.508.694 1.999 1.336.49.641.735 1.446.735 2.412zm5.718 1.969c.469 0 .915-.084 1.336-.25.42-.165.749-.385.984-.662.303-.234.456-.497.456-.787v-1.243a6.94 6.94 0 0 0-1.077-.3 5.8 5.8 0 0 0-1.12-.114c-.717 0-1.305.162-1.76.486-.456.326-.683.736-.683 1.233 0 .47.179.86.538 1.17.359.31.8.467 1.326.467m-.788 2.03a4.142 4.142 0 0 1-1.47-.259 3.547 3.547 0 0 1-1.181-.725 3.375 3.375 0 0 1-.777-1.087 3.302 3.302 0 0 1-.28-1.368c0-.511.114-.984.343-1.42.227-.434.544-.804.952-1.107a4.744 4.744 0 0 1 1.46-.715 6.362 6.362 0 0 1 1.865-.259c.483 0 .957.042 1.42.125.462.082.873.2 1.232.352v-.622c0-.718-.205-1.27-.611-1.657-.408-.386-1.013-.58-1.813-.58-.58 0-1.147.103-1.699.311a7.876 7.876 0 0 0-1.698.91l-.85-1.76c1.395-.925 2.9-1.388 4.516-1.388 1.56 0 2.772.383 3.635 1.15.863.766 1.295 1.875 1.295 3.325v3.377c0 .29.053.496.156.62.103.125.273.194.507.208v2.361a6.21 6.21 0 0 1-1.222.145c-.525 0-.929-.117-1.212-.352a1.51 1.51 0 0 1-.528-.932l-.062-.6a4.805 4.805 0 0 1-1.76 1.45 5.061 5.061 0 0 1-2.218.497M64.094 18c0-.76.13-1.479.394-2.155a5.251 5.251 0 0 1 1.138-1.782 5.58 5.58 0 0 1 1.803-1.223c.704-.303 1.498-.455 2.382-.455 1.188 0 2.2.256 3.035.767s1.46 1.18 1.875 2.009l-2.714.829a2.442 2.442 0 0 0-.932-.922 2.61 2.61 0 0 0-1.284-.321c-.401 0-.774.08-1.12.237-.345.16-.645.381-.9.664a3.047 3.047 0 0 0-.6 1.026 3.84 3.84 0 0 0-.218 1.325c0 .484.075.925.228 1.326.151.4.355.745.611 1.036.255.29.555.514.9.673a2.6 2.6 0 0 0 1.099.239 2.67 2.67 0 0 0 1.377-.373c.421-.249.715-.553.88-.912l2.715.828c-.374.83-.988 1.506-1.844 2.03-.857.526-1.886.788-3.087.788-.884 0-1.678-.153-2.383-.456a5.461 5.461 0 0 1-1.802-1.232 5.475 5.475 0 0 1-1.15-1.803 5.794 5.794 0 0 1-.403-2.144m19.783 5.428l-3.148-4.703-1.492 1.47v3.233h-2.776V8.304h2.776v9.177l4.35-4.889h2.962l-4.04 4.599 4.33 6.236zm6.07-2.942h3.584v-4.682l-3.584 4.682zm3.273 5.572v-3.086h-6.05v-2.465l6.94-8.908h1.885v8.887h1.823v2.486h-1.823v3.086H93.22zm14.376-8.307l-2.03-5.78-2.112 5.78h4.142zm-3.293-9.031h2.527l5.593 14.708h-2.941l-1.368-3.667h-5.137l-1.346 3.667h-2.942l5.614-14.708zm15.039 12.554c.415 0 .798-.09 1.15-.27.352-.18.652-.421.9-.725.25-.304.443-.656.581-1.057.138-.4.207-.815.207-1.243 0-.455-.076-.88-.227-1.274a3.182 3.182 0 0 0-.632-1.025 2.948 2.948 0 0 0-.953-.683 2.85 2.85 0 0 0-1.192-.249 2.59 2.59 0 0 0-.807.135 2.81 2.81 0 0 0-.767.383c-.235.165-.445.36-.631.58-.187.22-.329.462-.425.724v2.548a3.69 3.69 0 0 0 1.138 1.544c.512.407 1.064.612 1.658.612m.932 2.361c-.856 0-1.602-.19-2.236-.57a4.044 4.044 0 0 1-1.492-1.544v6.318h-2.776V12.572h2.424v1.865c.4-.636.918-1.137 1.553-1.502.635-.367 1.368-.55 2.196-.55.732 0 1.408.148 2.03.446a5.014 5.014 0 0 1 1.605 1.202 5.6 5.6 0 0 1 1.057 1.78c.255.684.383 1.406.383 2.165 0 .788-.117 1.527-.352 2.217a5.675 5.675 0 0 1-.984 1.802 4.593 4.593 0 0 1-1.502 1.202 4.2 4.2 0 0 1-1.906.435m12.202-2.361c.414 0 .797-.09 1.15-.27.352-.18.652-.421.9-.725.25-.304.443-.656.58-1.057.139-.4.208-.815.208-1.243 0-.455-.076-.88-.228-1.274a3.182 3.182 0 0 0-.632-1.025 2.948 2.948 0 0 0-.953-.683 2.85 2.85 0 0 0-1.191-.249c-.263 0-.532.045-.808.135a2.81 2.81 0 0 0-.766.383c-.235.165-.445.36-.632.58-.187.22-.328.462-.425.724v2.548a3.69 3.69 0 0 0 1.14 1.544c.51.407 1.063.612 1.657.612m.932 2.361c-.856 0-1.602-.19-2.237-.57a4.044 4.044 0 0 1-1.492-1.544v6.318h-2.776V12.572h2.424v1.865c.4-.636.918-1.137 1.554-1.502.635-.367 1.367-.55 2.195-.55a4.63 4.63 0 0 1 2.03.446 5.014 5.014 0 0 1 1.606 1.202 5.6 5.6 0 0 1 1.057 1.78c.255.684.383 1.406.383 2.165 0 .788-.118 1.527-.352 2.217a5.675 5.675 0 0 1-.984 1.802 4.593 4.593 0 0 1-1.502 1.202 4.2 4.2 0 0 1-1.906.435" fill="#1F8AEC"/></g></svg>
