<svg viewBox="0 0 28 33" version="1.1" xmlns="http://www.w3.org/2000/svg">
    <path d="M0.658144953,12.408 C0.658144953,11.9140645 0.833505368,11.4871935 1.18633898,11.1273871 C1.53917258,10.7675806 1.95644586,10.5961935 2.44238436,10.6100323 C2.94099952,10.6100323 3.3667239,10.7899355 3.71850112,11.1497419 C4.07239112,11.5095484 4.2414132,11.9289677 4.22556738,12.408 L4.22556738,20.79 C4.22556738,21.2988387 4.05020697,21.7342258 3.69737336,22.0940323 C3.34453975,22.4527742 2.9336048,22.6326774 2.46351212,22.6326774 C1.96384058,22.6326774 1.53917258,22.4453226 1.18633898,22.0706129 C0.833505368,21.6959032 0.658144953,21.2700968 0.658144953,20.79 L0.658144953,12.408 L0.658144953,12.408 Z M22.7567265,10.7675806 L22.7567265,23.6886774 C22.7567265,24.2134839 22.5708022,24.6627097 22.20001,25.0374194 C21.8281614,25.412129 21.388704,25.5920323 20.8848069,25.5760645 L19.1893041,25.5760645 L19.1893041,30.3631935 C19.1893041,30.8720323 19.0076053,31.3063548 18.6452642,31.6661613 C18.2829231,32.0259677 17.868819,32.205871 17.406121,32.205871 C16.9413103,32.205871 16.5208678,32.0185161 16.1437373,31.6438065 C15.7951293,31.2690968 15.6208252,30.8422258 15.6208252,30.3631935 L15.6208252,25.5760645 L12.3882778,25.5760645 L12.3882778,30.3631935 C12.3882778,30.8720323 12.2129174,31.3063548 11.8653657,31.6661613 C11.5030246,32.0259677 11.0751875,32.205871 10.5829106,32.205871 C10.088521,32.205871 9.6680786,32.0185161 9.31947054,31.6438065 C8.97086249,31.2690968 8.80500956,30.8422258 8.81979899,30.3631935 L8.81979899,25.5760645 L7.12535257,25.5760645 C6.63413213,25.5611613 6.19573109,25.3738065 5.80909306,25.0150645 C5.42245504,24.6552581 5.23653074,24.2134839 5.25237656,23.6886774 L5.25237656,10.7675806 L22.7567265,10.7675806 L22.7567265,10.7675806 Z M19.9287757,0.293806452 L18.2100323,3.06474194 C19.5410813,3.73645161 20.6133151,4.68387097 21.4256775,5.907 C22.2390963,7.13119355 22.6679899,8.45864516 22.7123582,9.89148387 L5.25237656,9.89148387 C5.26610961,8.44374194 5.68866483,7.09180645 6.51581667,5.83780645 C7.34402489,4.58380645 8.45217595,3.62041935 9.84238262,2.94870968 L8.1479362,0.291677419 L8.6159161,0 L10.3431106,2.71877419 C11.4016114,2.24293548 12.6101193,2.00341935 13.9718035,2.00341935 C15.3324313,2.00341935 16.5927022,2.27274194 17.7536727,2.81032258 L19.458683,0.00212903226 L19.9287757,0.293806452 L19.9287757,0.293806452 Z M9.91316062,5.41625806 C9.67441692,5.41625806 9.46630848,5.50887097 9.2877789,5.69303226 C9.10924932,5.87825806 9.01206162,6.09329032 8.99832857,6.33919355 C8.99832857,6.58509677 9.08706517,6.81609677 9.26665114,7.03006452 C9.45891376,7.21529032 9.67441692,7.30683871 9.91316062,7.30683871 C10.1497915,7.30683871 10.3652947,7.21529032 10.5586137,7.03006452 C10.7371433,6.84590323 10.8269363,6.63087097 10.8269363,6.38496774 C10.8269363,6.13906452 10.7371433,5.90806452 10.5586137,5.69303226 C10.3652947,5.50887097 10.1497915,5.41625806 9.91316062,5.41625806 L9.91316062,5.41625806 Z M18.1181266,5.41625806 C17.8508604,5.41625806 17.6279625,5.50887097 17.4494329,5.69303226 C17.2719597,5.87825806 17.1821668,6.09329032 17.1821668,6.33919355 C17.1821668,6.58509677 17.2719597,6.81609677 17.4494329,7.03006452 C17.6279625,7.21529032 17.8508604,7.30683871 18.1181266,7.30683871 C18.3864491,7.30683871 18.6008959,7.21529032 18.7656924,7.03006452 C18.9579551,6.84590323 19.0551428,6.63087097 19.0551428,6.38496774 C19.0551428,6.13906452 18.9664062,5.90806452 18.7878766,5.69303226 C18.609347,5.50887097 18.3864491,5.41625806 18.1181266,5.41625806 L18.1181266,5.41625806 Z M25.5550984,10.6100323 C26.0727286,10.6100323 26.493171,10.7899355 26.8185385,11.1497419 C27.1428497,11.5095484 27.3065898,11.9289677 27.3065898,12.408 L27.3065898,20.79 C27.3065898,21.2988387 27.1291166,21.7342258 26.7741702,22.0940323 C26.4192238,22.4527742 26.0061761,22.6326774 25.5339707,22.6326774 C25.0311299,22.6326774 24.6022364,22.4453226 24.24729,22.0706129 C23.8923436,21.6959032 23.7233215,21.2700968 23.738111,20.79 L23.738111,12.408 C23.7233215,11.9140645 23.8923436,11.4871935 24.24729,11.1273871 C24.6022364,10.7675806 25.0385247,10.5961935 25.5550984,10.6100323 L25.5550984,10.6100323 Z" id="android-copy"></path>
</svg>