<svg viewBox="0 0 25 30" version="1.1" xmlns="http://www.w3.org/2000/svg">
    <path d="M24.1909961,22.185266 C24.0369402,22.6579451 23.8731691,23.1079809 23.6996827,23.5424494 C23.2763761,24.5642288 22.7753475,25.5067566 22.197985,26.3700328 C21.4068872,27.5503154 20.7615181,28.3640593 20.2604895,28.8169255 C19.4874344,29.5613244 18.6616394,29.9462606 17.7747772,29.9660735 C17.1377354,29.9660735 16.3730076,29.7764358 15.4764302,29.3943299 C14.5798528,29.0108089 13.7582214,28.8197559 13.0045968,28.8197559 C12.2148869,28.8197559 11.3654978,29.0122241 10.4605931,29.3943299 C9.55568831,29.7764358 8.82288201,29.9802256 8.26494993,29.9986233 C7.41556081,30.0382491 6.56755957,29.6448216 5.72094622,28.8197559 C5.18105673,28.3272639 4.50654184,27.4838006 3.69740154,26.2837052 C2.82996984,25.0071886 2.116594,23.5240517 1.55727404,21.8314643 C0.961868913,20.0044322 0.662084516,18.2354236 0.662084516,16.5272688 C0.662084516,14.5615465 1.06734861,12.8717894 1.8764889,11.4565825 C2.51214286,10.317341 3.36014409,9.41868459 4.42049261,8.75919818 C5.48084113,8.09971177 6.62723887,7.76289252 7.86107373,7.74307963 C8.53558862,7.74307963 9.4224508,7.95960628 10.5202724,8.39124439 C11.6180939,8.82288249 12.3203666,9.04082435 12.6298663,9.04082435 C12.861644,9.04082435 13.6416386,8.7846719 14.9726258,8.27378221 C16.2217275,7.80110311 17.2848518,7.60580456 18.1522835,7.68364094 C20.5019825,7.8817699 22.2673795,8.85260184 23.4415351,10.6017976 C21.3402685,11.9377529 20.3021262,13.8044108 20.3215567,16.2017713 C20.3409872,18.0670139 20.9863564,19.6223263 22.2590522,20.8592172 C22.832251,21.4281303 23.4776202,21.8710901 24.1909961,22.185266 L24.1909961,22.185266 Z M18.1786534,0.579302314 C18.1980839,0.776016073 18.2077991,0.972729831 18.2077991,1.16944359 C18.2077991,2.64408918 17.6956674,4.01967028 16.6755678,5.2947717 C15.4417329,6.80904308 14.0135933,7.49683363 12.3967006,7.35955856 C12.3772702,7.1826577 12.3675549,6.99585039 12.3675549,6.80055183 C12.3675549,5.38534494 12.8894018,4.05788087 13.9303199,2.82099004 C14.4507789,2.19405338 15.110027,1.67184204 15.9122279,1.25860162 C16.7088771,0.845361211 17.4652776,0.618928107 18.1786534,0.579302314 L18.1786534,0.579302314 Z" id="apple-copy"></path>
</svg>