<svg xmlns="http://www.w3.org/2000/svg" viewBox="0 0 100 100"><path d="M47.92 63.28V52H36.944c.898 5.614 5.35 10.422 10.978 11.28zM0 25h21v23H0zm47.92 12.32c-5.625.86-10.08 5.067-10.977 10.68H47.92V37.32z"/><path d="M47.92 25H24.47v23h8.273c.954-7.91 7.257-13.97 15.18-14.88V25zM24.468 75.833H47.92v-8.35C40 66.57 33.696 59.91 32.74 52h-8.27v23.833zM79 52h21v23.833H79zM0 52h21v23.833H0zm79-27h21v23H79zm-58-4V0h3.468v21H47.92V0h4.16v21h23.47V0H79v21h21c0-11.206-9.774-21-20.96-21H21C9.774 0 0 9.794 0 21h21zm31.08 59h23.47v20H52.08zM21 80H.014c.152 11.075 9.855 20 20.966 20H21V80zm31.08-4.167h23.47V52h-8.475c-.946 7.85-7.16 14.468-14.998 15.455v8.378zM24.468 80H47.92v20H24.47zM79 80v20h.02c11.11 0 20.814-8.925 20.966-20H79zM52.08 48h10.796c-.888-5.553-5.256-9.726-10.797-10.652V48z"/><path d="M67.077 48h8.475V25H52.08v8.147c7.837.987 14.05 7.003 14.997 14.853zM52.08 63.254c5.54-.926 9.908-5.7 10.796-11.254H52.08v11.254z"/></svg>