<svg xmlns="http://www.w3.org/2000/svg" viewBox="0 0 100 100"><path d="M76.913 0H23.087C10.357 0 0 10.357 0 23.174V77c0 12.643 10.357 23 23.087 23h53.826C89.643 100 100 89.643 100 76.913V23.087C100 10.357 89.643 0 76.913 0zM90 23.737V26H75V9h1.913C84.45 9 90 16.2 90 23.737zM65.47 48c-.858-7.11-6.487-12.372-13.587-13.266V30h19.36v18H65.47zm-17.353 0h-9.945c.813-5.085 4.848-8.707 9.945-9.486V48zm0 4v10.03c-5.097-.778-9.132-4.944-9.945-10.03h9.945zm3.766 0h9.78c-.804 5.03-4.76 9.167-9.78 10.006V52zm0-4v-9.46c5.02.84 8.976 4.43 9.78 9.46h-9.78zm0-22V9h19.36v17h-19.36zm-3.766 0h-19.36V9h19.36v17zm0 4v4.71c-7.178.825-12.887 6.124-13.75 13.29h-5.61V30h19.36zM25 48H9V30h16v18zm0 4v19H9V52h16zm3.757 0h5.61c.862 7.166 6.572 13.01 13.75 13.837V71h-19.36V52zm19.36 23v15h-19.36V75h19.36zm3.766 0h19.36v15h-19.36V75zm0-4v-5.19c7.1-.893 12.73-6.7 13.586-13.81h5.77v19H51.88zM75 52h15v19H75V52zm0-4V30h15v18H75zM23.087 9H25v17H9v-2.913C9 15.55 15.55 9 23.087 9zM9 76.913V75h16v15h-1.913C15.55 90 9 84.45 9 76.913zM76.913 90H75V75h15v1.913C90 84.45 84.45 90 76.913 90z"/></svg>