<svg xmlns="http://www.w3.org/2000/svg" viewBox="0 0 100 100"><path d="M49.734 10.828c-7.876 0-14.26 6.296-14.26 14.172h28.52c0-7.876-6.384-14.172-14.26-14.172z"/><path d="M100 51.796V44H78.842v-5.476C85.965 37.517 90 31.397 90 24v-8.425h-6.5V24c0 3.705-3.015 7-6.72 7H23.274c-3.705 0-6.72-3.296-6.72-7v-9H9v9c0 7.193 4.163 13.183 11 14.435V44H0v7.796h20v5.884c-6.837 1.252-11 7.242-11 14.435V80h8v-7.884c0-2.974 1.51-5.474 4.193-6.356C23.85 79.09 35.633 90 49.733 90 63.893 90 75.71 79.002 78.3 65.586c2.972.693 4.7 3.35 4.7 6.53V80h7v-7.884C90 64.72 85.963 58.6 78.84 57.59v-5.794H100zm-72 8.267V39h19v41.937c-10.146-1.545-19-10.303-19-20.874zm24.92 20.874v-42.25h17.955v21.376c0 10.57-7.808 19.33-17.954 20.874z"/></svg>