<?xml version="1.0" encoding="utf-8"?>
<!-- Generator: Adobe Illustrator 19.1.0, SVG Export Plug-In . SVG Version: 6.00 Build 0)  -->
<svg version="1.1" id="Layer_1" xmlns="http://www.w3.org/2000/svg" xmlns:xlink="http://www.w3.org/1999/xlink" x="0px" y="0px"
	 viewBox="-719 451 100 100" style="enable-background:new -719 451 100 100;" xml:space="preserve">
<g>
	<path d="M-630.118,494.433c-1.066-16.558-14.875-29.702-31.695-29.702c-6.074,0-11.979,1.721-17.077,4.978
		c-3.596,2.297-6.677,5.279-9.077,8.759c-1.667-0.528-3.415-0.799-5.198-0.799c-9.501,0-17.23,7.729-17.23,17.23
		c0,0.424,0.016,0.847,0.047,1.271c-5.404,4.345-8.651,10.978-8.651,18.01c0,12.731,10.358,22.82,23.091,22.82h53.82
		c12.731,0,23.089-10.089,23.089-22.82C-619,506.022-623.275,498.577-630.118,494.433z M-642.089,533h-53.82
		c-10.091,0-18.273-8.731-18.273-18.82c0-6.748,3.663-12.638,9.102-15.801c-0.322-1.105-0.498-2.272-0.498-3.48
		c0-6.855,5.557-12.411,12.411-12.411c2.645,0,5.094,0.83,7.107,2.243c4.369-8.988,13.583-15.181,24.245-15.181
		c14.88,0,26.942,12.063,26.942,26.945c0,0.299-0.013,0.593-0.022,0.89c6.511,2.791,11.074,9.259,11.074,16.795
		C-623.819,524.269-632,533-642.089,533z"/>
	<ellipse cx="-684.636" cy="504.314" rx="3.511" ry="4.976"/>
	<ellipse cx="-653.363" cy="504.314" rx="3.511" ry="4.976"/>
	<path d="M-669.001,510.12c-3.844,0-6.961,3.116-6.961,6.961c0,3.844,3.116,6.919,6.961,6.919c3.845,0,6.962-3.075,6.962-6.919
		C-662.039,513.237-665.156,510.12-669.001,510.12z"/>
</g>
</svg>
