<?xml version="1.0" encoding="utf-8"?>
<!-- Generator: Adobe Illustrator 19.1.0, SVG Export Plug-In . SVG Version: 6.00 Build 0)  -->
<svg version="1.1" id="Layer_1" xmlns="http://www.w3.org/2000/svg" xmlns:xlink="http://www.w3.org/1999/xlink" x="0px" y="0px"
	 viewBox="-719 451 100 100" style="enable-background:new -719 451 100 100;" xml:space="preserve">
<g>
	<path d="M-628.953,495.192c-0.247-0.252-0.549-0.446-0.884-0.575c-0.095-0.06-0.185-0.125-0.281-0.183
		c-1.066-16.557-14.875-29.702-31.696-29.702c-6.074,0-11.979,1.721-17.077,4.978c-3.596,2.297-6.676,5.278-9.077,8.758
		c-1.667-0.528-3.415-0.799-5.198-0.799c-9.5,0-17.23,7.729-17.23,17.23c0,0.425,0.016,0.849,0.047,1.271
		c-5.405,4.346-8.651,10.979-8.651,18.01c0,12.731,10.358,22.82,23.091,22.82h53.821c12.731,0,23.089-10.089,23.089-22.82
		C-619,506.497-622.794,499.449-628.953,495.192z M-642.089,533h-53.821c-10.09,0-18.272-8.731-18.272-18.82
		c0-6.066,2.632-11.858,7.181-15.18h12.079l0.332,8.147c0,3.326,2.706,5.853,6.033,5.853h9.933c3.326,0,6.031-2.526,6.031-5.853
		v-3.272c0.05-0.196,0.084-0.398,0.084-0.609c0-1.445,1.72-2.665,3.755-2.665s3.755,1.22,3.755,2.665
		c0,0.211,0.034,0.413,0.084,0.609v3.273c0,3.326,2.705,5.852,6.031,5.852h9.933c3.326,0,6.032-2.526,6.032-5.852l-0.332-8.148
		h11.593c4.547,3.323,7.837,9.117,7.837,15.18C-623.819,524.269-632,533-642.089,533z M-693.166,482.488
		c2.645,0,5.094,0.83,7.107,2.243c4.37-8.988,13.582-15.181,24.245-15.181c14.191,0,25.808,10.527,26.857,24.45h-27.466
		c-1.202,0-2.205,1.297-2.439,2.429c-1.173-0.514-2.492-0.81-3.891-0.81s-2.717,0.297-3.891,0.81
		c-0.235-1.132-1.236-2.429-2.439-2.429h-30.483C-705.326,487.356-699.867,482.488-693.166,482.488z"/>
	<path d="M-657.726,518.116c-3.071,2.87-7.076,4.451-11.274,4.451c-4.198,0-8.203-1.581-11.275-4.451
		c-0.724-0.676-1.858-0.636-2.535,0.086c-0.676,0.724-0.638,1.86,0.086,2.535c3.739,3.494,8.613,5.418,13.724,5.418
		c5.112,0,9.985-1.924,13.723-5.418c0.724-0.676,0.762-1.811,0.086-2.535C-655.867,517.48-657.002,517.44-657.726,518.116z"/>
</g>
</svg>
