<?xml version="1.0" encoding="utf-8"?>
<!-- Generator: Adobe Illustrator 19.1.0, SVG Export Plug-In . SVG Version: 6.00 Build 0)  -->
<svg version="1.1" id="Layer_1" xmlns="http://www.w3.org/2000/svg" xmlns:xlink="http://www.w3.org/1999/xlink" x="0px" y="0px"
	 viewBox="-719 451 100 100" style="enable-background:new -719 451 100 100;" xml:space="preserve">
<g>
	<path d="M-630.118,494.432c-1.066-16.558-14.875-29.7-31.695-29.7c-6.074,0-11.979,1.721-17.077,4.978
		c-3.596,2.297-6.677,5.278-9.077,8.759c-1.667-0.528-3.415-0.799-5.199-0.799c-9.5,0-17.23,7.729-17.23,17.23
		c0,0.424,0.016,0.847,0.047,1.269c-5.406,4.346-8.651,10.979-8.651,18.011c0,12.731,10.358,22.82,23.091,22.82h53.821
		c12.731,0,23.088-10.089,23.088-22.82C-619,506.022-623.274,498.577-630.118,494.432z M-642.088,533h-53.821
		c-10.09,0-18.272-8.731-18.272-18.82c0-6.747,3.662-12.638,9.102-15.8c-0.321-1.104-0.497-2.273-0.497-3.48
		c0-6.855,5.557-12.412,12.411-12.412c2.645,0,5.094,0.829,7.107,2.242c4.37-8.987,13.583-15.18,24.245-15.18
		c14.881,0,26.942,12.064,26.942,26.945c0,0.299-0.013,0.593-0.022,0.889c6.511,2.792,11.074,9.261,11.074,16.796
		C-623.819,524.269-631.999,533-642.088,533z"/>
	<ellipse cx="-684.636" cy="504.314" rx="3.511" ry="4.976"/>
	<ellipse cx="-653.362" cy="504.314" rx="3.511" ry="4.976"/>
	<path d="M-655.904,514.874c-7.962-2.576-18.711,0.353-24.471,6.666c-0.668,0.732-0.616,1.867,0.116,2.534
		c0.344,0.314,0.776,0.469,1.208,0.469c0.487,0,0.972-0.197,1.326-0.584c4.807-5.267,14.101-7.811,20.717-5.671
		c0.942,0.305,1.954-0.212,2.258-1.154C-654.444,516.189-654.961,515.178-655.904,514.874z"/>
</g>
</svg>
