<?xml version="1.0" encoding="utf-8"?>
<!-- Generator: Adobe Illustrator 19.1.0, SVG Export Plug-In . SVG Version: 6.00 Build 0)  -->
<svg version="1.1" id="Layer_1" xmlns="http://www.w3.org/2000/svg" xmlns:xlink="http://www.w3.org/1999/xlink" x="0px" y="0px"
	 viewBox="-719 451 100 100" style="enable-background:new -719 451 100 100;" xml:space="preserve">
<g>
	<path d="M-630.118,494.433c-1.066-16.557-14.875-29.701-31.695-29.701c-6.074,0-11.979,1.721-17.077,4.978
		c-3.596,2.297-6.677,5.278-9.078,8.759c-1.666-0.528-3.414-0.799-5.197-0.799c-9.501,0-17.23,7.729-17.23,17.23
		c0,0.424,0.016,0.847,0.047,1.271c-5.404,4.345-8.651,10.979-8.651,18.01c0,12.731,10.358,22.82,23.091,22.82h53.82
		c12.731,0,23.089-10.089,23.089-22.82C-619,506.022-623.274,498.577-630.118,494.433z M-642.089,533h-53.82
		c-10.091,0-18.273-8.731-18.273-18.82c0-6.747,3.663-12.637,9.102-15.8c-0.322-1.104-0.498-2.272-0.498-3.48
		c0-6.855,5.557-12.412,12.411-12.412c2.645,0,5.094,0.829,7.107,2.242c4.369-8.987,13.583-15.18,24.245-15.18
		c14.88,0,26.942,12.064,26.942,26.945c0,0.299-0.013,0.593-0.022,0.889c6.511,2.793,11.074,9.261,11.074,16.796
		C-623.819,524.269-632,533-642.089,533z"/>
	<ellipse cx="-684.636" cy="504.314" rx="3.512" ry="4.976"/>
	<path d="M-660.336,514.666c-2.114,2.125-5.271,3.343-8.663,3.343c-3.391,0-6.549-1.218-8.663-3.343
		c-0.707-0.71-1.855-0.712-2.564-0.007c-0.71,0.708-0.713,1.857-0.008,2.564c2.791,2.805,6.886,4.413,11.235,4.413
		c4.351,0,8.444-1.608,11.232-4.413c0.708-0.71,0.704-1.856-0.005-2.564C-658.481,513.954-659.629,513.956-660.336,514.666z"/>
	<path d="M-651.915,503h-8.35c-0.991,0-1.794,0.511-1.794,1.501c0,0.991,0.803,1.499,1.794,1.499h8.35
		c0.99,0,1.794-0.508,1.794-1.499C-650.121,503.511-650.925,503-651.915,503z"/>
</g>
</svg>
