<svg xmlns="http://www.w3.org/2000/svg" viewBox="0 0 100 100"><path d="M0 91.828C0 94.292 1.997 96 4.46 96h79.027c2.463 0 4.46-1.708 4.46-4.172V87H0v4.828zM91.922 4H63.546C59.092 4 55 7.335 55 11.79v23.437H15.235C10.068 35.227 6 39.43 6 44.597V83h7.963V44.597c0-.7.57-1.597 1.272-1.597H55v19.275C55 66.73 59.092 70 63.546 70h10.438v13h8.098V70h9.84c4.454 0 8.078-3.27 8.078-7.725V11.79C100 7.335 96.376 4 91.922 4zM64 62.02l-.02-50.21L91 11.79 91.023 62 64 62.02z"/><circle cx="77.734" cy="56.792" r="3.264"/></svg>