<svg xmlns="http://www.w3.org/2000/svg" viewBox="0 0 100 100"><path d="M96.41 32.815l1.61-1.61c2.64-2.64 2.64-6.917 0-9.555-2.638-2.64-6.916-2.64-9.554 0l-1.61 1.61 9.555 9.555zm-13.8-5.31L47 63.62V72h9.1l36.064-34.938"/><path d="M59.5 76.524l-1.42 1.418-2.005-.01-9.506-.05-3.14-.015v.022H14v-6.01h27.787V61H14v-6.07h34.47L64 38.923V6H0v81.15c0 3.52 2.854 6.374 6.375 6.374H58.06c3.52 0 5.94-2.854 5.94-6.375V71.59l-4.5 4.934zM14 21.024h36.228v6.006H14v-6.005zm0 16.954h36.228v6.005H14v-6.005z"/></svg>