<?xml version="1.0" encoding="utf-8"?>
<!-- Generator: Adobe Illustrator 19.0.0, SVG Export Plug-In . SVG Version: 6.00 Build 0)  -->
<svg version="1.1" id="Layer_1" xmlns="http://www.w3.org/2000/svg" xmlns:xlink="http://www.w3.org/1999/xlink"
	 viewBox="0 0 100 100">
<path d="M33.6,76.6c-5.6,0-10.1-4.5-10.1-10.1s4.5-10.1,10.1-10.1s10.1,4.5,10.1,10.1S39.2,76.6,33.6,76.6z M63.4,62.9l-5.9-1.5
	c-0.1-0.8-0.4-1.6-0.7-2.5l4.4-4.2c1.4-1.5,2.3-3.3,1.2-4.9c-1-1.6-2.9-1.8-4.8-1.2L51.8,50c-0.5-0.5-1.2-1.1-1.8-1.8l1.6-5.9
	c0.4-1.9,0.3-3.8-1.4-4.8c-1.6-1-3.4-0.1-4.8,1.2l-4.4,4.4c-0.8-0.3-1.6-0.5-2.5-0.7l-1.5-5.9c-0.7-1.9-1.6-3.6-3.6-3.6
	c-1.9,0-3,1.6-3.6,3.6l-1.5,5.9c-1,0.1-1.6,0.4-2.5,0.7l-4.4-4.4c-1.5-1.4-3.2-2.2-4.8-1.2c-1.8,1-1.8,2.9-1.4,4.8l1.6,5.9
	c-0.7,0.7-1.2,1.2-1.8,1.8l-5.9-1.5c-2.1-0.5-4-0.4-4.9,1.2c-1,1.6,0,3.4,1.4,4.9l4.4,4.2c-0.3,0.8-0.5,1.6-0.7,2.5l-5.9,1.5
	c-2.1,0.7-3.6,1.6-3.6,3.6c0,2.1,1.6,3,3.6,3.6l5.9,1.6c0.1,0.8,0.4,1.6,0.7,2.3l-4.4,4.4c-1.4,1.5-2.3,3.2-1.4,4.8
	c1,1.8,3,1.8,4.9,1.4l5.9-1.6c0.5,0.7,1.1,1.2,1.8,1.8l-1.6,5.9c-0.4,2.1-0.4,4,1.4,4.9c1.6,1,3.4,0,4.8-1.4l4.4-4.2
	c0.7,0.1,1.5,0.4,2.5,0.5l1.5,6c0.5,1.9,1.6,3.6,3.6,3.6c1.9,0,3-1.8,3.6-3.6l1.5-6c0.8-0.1,1.6-0.4,2.5-0.5l4.4,4.2
	c1.4,1.5,3.2,2.3,4.8,1.4c1.6-1,1.8-3,1.4-4.9L50,84.7c0.5-0.5,1.2-1.1,1.8-1.8l5.9,1.6c2.1,0.4,3.8,0.4,4.8-1.4
	c1.1-1.6,0.1-3.4-1.2-4.8L56.8,74c0.3-0.7,0.5-1.5,0.7-2.3l5.9-1.6c1.9-0.5,3.6-1.5,3.6-3.6C67,64.5,65.3,63.4,63.4,62.9z
	 M74.4,32.6c-3.8,0-7-3.2-7-7s3.2-7,7-7s7,3.2,7,7S78.2,32.6,74.4,32.6z M96.3,22.1l-5.8-1.5c-0.3-1-0.7-1.9-1.2-2.7l3.2-5.2
	c1-1.9,1.4-3.7,0-5.1c-1.5-1.4-3.4-1-5.1,0l-5.3,3c-0.8-0.4-1.8-0.7-2.6-1.1l-1.6-5.9C77.3,1.6,76.2,0,74.2,0s-3,1.6-3.6,3.6l-1.5,6
	c-1,0.3-1.8,0.7-2.6,1.1l-5.5-3.2c-1.8-1-3.6-1.4-4.9,0c-1.4,1.4-1,3.3,0,5.1l3.2,5.5c-0.3,0.8-0.7,1.5-1,2.3l-6.2,1.6
	c-1.9,0.7-3.6,1.6-3.6,3.6c0,2.1,1.6,3,3.6,3.6l6.2,1.6c0.3,0.8,0.7,1.6,1,2.5l-3.2,5.5c-1,1.8-1.4,3.7,0,5.1c1.4,1.4,3.3,1,4.9,0
	l5.5-3.3c0.8,0.5,1.6,0.8,2.6,1.1l1.5,6.2c0.7,1.9,1.6,3.6,3.6,3.6s3-1.8,3.6-3.6l1.6-6c0.8-0.3,1.8-0.7,2.6-1.1l5.3,3.2
	c1.8,1,3.6,1.4,5.1,0c1.4-1.4,0.8-3.4,0-5.1l-3.2-5.2c0.5-1,1-1.8,1.2-2.9l5.8-1.5c2.1-0.5,3.6-1.5,3.6-3.6
	C99.9,23.7,98.2,22.6,96.3,22.1z"/>
</svg>
