<svg viewBox="0 0 100 100" version="1.1" xmlns="http://www.w3.org/2000/svg">
    <path d="M81,0 L9,0 C4.03,0 0,4.02875 0,9 L0,91 C0,95.97 4.03,100 9,100 L81,100 C85.97,100 90,95.97 90,91 L90,9 C90,4.02875 85.97,0 81,0 L81,0 Z M85,91 C85,93.205 83.20625,95 81,95 L9,95 C6.795,95 5,93.205 5,91 L5,9 C5,6.79375 6.795,5 9,5 L81,5 C83.20625,5 85,6.79375 85,9 L85,91 L85,91 Z"></path>
    <path d="M22.5,85 L33.75,75 L22.5,65 L22.5,85"></path>
    <path d="M63.14625,44.46875 C61.13125,42.43 57.43125,40 51.25,40 C44.47125,40 37.4925,41.76375 32.5,43.38875 L32.5,15 L22.5,15 L22.5,58.365 L29.56375,55.165 C29.6775,55.11375 41.0825,50 51.25,50 C56.32625,50 57.45125,52.80375 57.5,55.1375 L57.5,85 L67.5,85 L67.5,55 C67.50625,54.36 67.44625,48.81875 63.14625,44.46875"></path>
    <path d="M50,31.25 L60,31.25 C64.5225,26.125 66.825,20.67875 67.5,15 L57.5,15 C56.3975,20.6675 53.93,26.09375 50,31.25"></path>
</svg>