<svg id="Layer_1" xmlns="http://www.w3.org/2000/svg" viewBox="0 0 100 100"><style>.st0{fill:#231F20;}</style><path class="st0" d="M58.29 62.17H33.75c-3.553 0-5.658 2.172-5.658 5.396 0 2.83 1.908 5.434 4.67 5.434 3.16 0 5.04-2.776 5.238-6h7c-.33 7.763-5.066 12-12.303 12-6.776 0-11.776-4.658-11.776-11.5 0-7.105 5.33-11.5 13.225-11.5h24.342c8.224 0 14.474-6.592 14.474-14.75C72.96 33.026 67.37 27 59.41 27c-7.895 0-14.21 6.092-14.21 16.618V51H37.96v-7.382C37.96 29.538 47.04 20 59.54 20c11.973 0 20.657 8.947 20.657 21.118 0 12.237-9.342 21.053-21.908 21.053M50 100c27.96 0 50-22.105 50-50 0-27.83-22.04-50-50-50S0 22.17 0 50c0 27.895 22.04 50 50 50"/></svg>