<svg viewBox="0 0 35 24" version="1.1" xmlns="http://www.w3.org/2000/svg">
    <path d="M2.9987027,23.5272945 C2.77978378,23.5416945 2.57448649,23.4533745 2.38281081,23.2632945 C2.19113514,23.0741745 2.10259459,22.8572145 2.11621622,22.6124145 L0,6.16089447 L4.17016216,6.16089447 L4.17016216,13.8610545 L5.64908108,12.3394545 L7.06572973,13.7199345 L7.06572973,6.16089447 L34.5055135,6.16089447 L32.3902703,22.6124145 C32.3902703,22.8572145 32.3007568,23.0664945 32.1236757,23.2431345 C31.9446486,23.4197745 31.7393514,23.5148145 31.5068108,23.5272945 L2.9987027,23.5272945 L2.9987027,23.5272945 Z M32.3902703,4.13433447 L2.11621622,4.13433447 L2.11621622,3.80985447 C2.11621622,3.56697447 2.20475676,3.35097447 2.38281081,3.16185447 C2.56086486,2.97273447 2.76616216,2.88441447 2.9987027,2.89785447 L4.37448649,2.89785447 L5.44281081,0.769534468 C5.68994595,0.242494468 6.12097297,-0.0138255319 6.73686486,0.000574468085 L12.5085405,0.000574468085 C13.1244324,0.000574468085 13.5564324,0.277054468 13.8025946,0.830974468 L14.8504865,2.89785447 L31.5068108,2.89785447 C31.7257297,2.89785447 31.931027,2.98617447 32.1236757,3.16185447 C32.3143784,3.33753447 32.4038919,3.55353447 32.3902703,3.80985447 L32.3902703,4.13433447 L32.3902703,4.13433447 Z M7.06572973,6.22137447 L4.60118919,6.16089447 L7.06572973,6.14073447 L7.06572973,6.22137447 L7.06572973,6.22137447 Z M13.392,16.5567345 C13.392,18.2453745 12.7410811,19.0892145 11.4402162,19.0892145 C10.8243243,19.0892145 10.3105946,19.0152945 9.9,18.8664945 L9.5507027,21.2146545 C10.1675676,21.4325745 10.8856216,21.5420145 11.7077838,21.5420145 C13.2275676,21.5420145 14.3776216,21.1560945 15.1579459,20.3852145 C15.9382703,19.6133745 16.3284324,18.3413745 16.3284324,16.5692145 L16.3284324,8.41017447 L13.392,8.41017447 L13.392,16.5567345 L13.392,16.5567345 Z M22.0796757,21.5016945 C23.7094054,21.5016945 24.9752432,21.1282545 25.8791351,20.3813745 C26.783027,19.6344945 27.2354595,18.6764145 27.2354595,17.5090545 C27.2354595,15.7656945 26.0980541,14.4898545 23.8251892,13.6786545 C22.8940541,13.3196145 22.2567568,13.0258545 21.9152432,12.7992945 C21.5727568,12.5727345 21.4015135,12.2722545 21.4015135,11.8988145 C21.4287568,11.0722545 22.1545946,10.6594545 23.579027,10.6594545 C24.3457297,10.6594545 25.1669189,10.8658545 26.0435676,11.2796145 L26.6798919,8.88537447 C25.6806486,8.42937447 24.4965405,8.20185447 23.1275676,8.20185447 C21.7576216,8.20185447 20.6348108,8.56665447 19.7591351,9.29721447 C18.8824865,10.0268145 18.4368649,10.9666545 18.4232432,12.1157745 C18.4232432,13.8053745 19.6307027,15.0639345 22.0436757,15.8876145 C22.8434595,16.1986545 23.4087568,16.4818545 23.7395676,16.7391345 C24.0703784,16.9954545 24.2367568,17.3199345 24.2367568,17.7116145 C24.2367568,18.6572145 23.6091892,19.1304945 22.355027,19.1304945 C21.1008649,19.1304945 19.9371892,18.8530545 18.8620541,18.2991345 L18.2627027,20.7240945 C19.1636757,21.2415345 20.4363243,21.5016945 22.0796757,21.5016945 L22.0796757,21.5016945 Z"></path>
</svg>