<svg xmlns="http://www.w3.org/2000/svg" viewBox="0 0 100 100"><path d="M67.392 74.007l2.084-3.48-2.314-9.866c4.29-4.394 6.856-10.373 6.856-16.752 0-10.233-6.444-18.967-15.478-22.42.02-.62.033-1.244.033-1.867C58.573 9.85 55.968 0 50.15 0s-8.422 9.852-8.422 19.617c0 .588.04 1.163.058 1.747-9.204 3.366-15.804 12.185-15.804 22.54 0 7.04 3.09 13.554 8.175 18.022l-7.692 23.89 5.987 11.957 10.287-5.15L50.113 100l7.72-7.814 8.543 5.117 6.9-11.683-2.39-9.518-3.5-2.095zm-19.76-54.39c0-7.09 1.468-11.72 2.518-13.302 1.05 1.583 2.518 6.21 2.518 13.302 0 .148-.01.28-.01.425-.875-.097-1.76-.156-2.66-.156-.794 0-1.578.043-2.354.12 0-.13-.012-.258-.012-.39zM31.767 85.41l6.605-20.517c.578.32 1.167.623 1.775.897v22.627L34.65 91.17l-2.883-5.76zm22.47-23.793V71.83L51 76.955l3.237 5.126v5.35l-4.145 4.2L46 87.588l.052-25.898-1.984-.69c-7.286-2.53-12.182-9.4-12.182-17.097 0-9.988 8.126-18.114 18.114-18.114.755 0 1.495.06 2.227.15-.22 1.504-.496 2.82-.804 3.89-.412-.08-.837-.13-1.272-.13-3.622 0-6.573 2.95-6.573 6.58s2.95 6.578 6.578 6.578 6.58-2.95 6.58-6.58c0-.875-.18-1.705-.49-2.468.75-1.778 1.31-3.884 1.694-6.17 6.016 2.947 10.18 9.118 10.18 16.258 0 7.577-4.796 14.41-11.934 17.008l-1.943.706zM64.66 90.535l-4.52-2.706v-8.2l-2.68-2.68 2.68-2.68v-8.62c.968-.452 1.89-.97 2.777-1.54l1.312 5.595-3.59 5.99 5.97 3.576 1.4 5.58-3.35 5.68z"/></svg>