<svg xmlns="http://www.w3.org/2000/svg" viewBox="0 0 100 100"><path d="M76.5 55.66c-17.028 0-30.88-13.852-30.88-30.88 0-3.072.465-6.037 1.305-8.84h-30.13C7.52 15.94 0 23.46 0 32.735v49.19C0 91.2 7.52 98.72 16.796 98.72h49.19c9.276 0 16.796-7.52 16.796-16.795v-26.91c-2.03.42-4.13.645-6.283.645z"/><path d="M76.5 1.28c-12.96 0-23.503 10.542-23.503 23.5S63.54 48.283 76.5 48.283c12.957 0 23.5-10.542 23.5-23.5S89.457 1.278 76.5 1.278zm0 36.027c-6.92 0-12.528-5.608-12.528-12.527 0-6.918 5.61-12.527 12.527-12.527 6.914 0 12.522 5.608 12.522 12.527 0 6.92-5.61 12.527-12.527 12.527z"/></svg>