<svg viewBox="0 0 17 17" version="1.1" xmlns="http://www.w3.org/2000/svg">
    <g transform="translate(-1227.000000, -64.000000)" fill="#000000">
        <g transform="translate(300.000000, 0.000000)">
            <path d="M930.090669,67.2605017 C931.629555,65.6415006 933.486526,64.832 935.662623,64.832 C937.838721,64.832 939.692047,65.6415006 941.223125,67.2605017 C942.754202,68.8795028 943.52,70.7770138 943.52,72.9530347 C943.52,75.1285349 942.754202,76.9859613 941.223125,78.5242727 C939.692047,80.062584 937.838721,80.832 935.662623,80.832 C933.486526,80.832 931.629555,80.062584 930.090669,78.5242727 C928.552303,76.9859613 927.783381,75.1285349 927.783381,72.9530347 C927.783381,70.7770138 928.552303,68.8795028 930.090669,67.2605017 L930.090669,67.2605017 Z M936.003094,69.534912 C936.735575,69.534912 937.094787,69.8649592 937.08021,70.5240124 C937.08021,70.69268 937.028671,70.8644711 936.926634,71.0404269 C936.699133,71.2970724 936.428422,71.5354976 936.11294,71.7546615 C935.797979,71.9821545 935.534556,72.2164152 935.322153,72.4584845 C934.911401,73.044136 934.706286,73.5610711 934.706286,74.007728 C934.698997,74.4621936 934.77969,74.7698559 934.948364,74.9307148 C935.131093,75.0775181 935.347662,75.1545639 935.596507,75.1613314 L935.640758,75.1613314 C935.911469,75.1321789 936.120228,75.036913 936.267037,74.876054 C936.413325,74.7146745 936.490373,74.5460068 936.497662,74.3700511 L936.497662,74.1285024 C936.497662,73.6157319 936.82772,73.1472107 937.486797,72.7218975 C938.146394,72.2971049 938.567557,71.8868886 938.750287,71.4912484 C938.882518,71.2346029 938.948634,70.9493255 938.948634,70.6343751 C938.948634,70.3194248 938.897095,69.9675133 938.794537,69.5791612 C938.662826,69.2053854 938.490509,68.9122993 938.278105,68.699903 C937.79447,68.1137309 937.051057,67.8206449 936.047345,67.8206449 C935.043112,67.8206449 934.240872,68.0700023 933.640623,68.5681965 C933.413642,68.7144793 933.204362,68.9159434 933.013824,69.1725889 C932.764978,69.5900934 932.669709,69.9159759 932.728536,70.1502365 C932.794131,70.3850177 932.933652,70.5463973 933.146055,70.6343751 C933.394901,70.7660817 933.62917,70.79159 933.849382,70.7109003 C934.069075,70.6302105 934.223171,70.5172448 934.311152,70.3704415 C934.523035,70.113796 934.655267,69.9602252 934.706286,69.9086878 C934.757825,69.8576711 934.860383,69.7842694 935.013959,69.6890034 L935.420545,69.5572969 C935.523103,69.5422001 935.717286,69.534912 936.003094,69.534912 L936.003094,69.534912 Z M935.574642,76.0405896 C935.274258,76.0405896 935.018124,76.1285674 934.805199,76.3045232 C934.592796,76.4804789 934.490238,76.6777784 934.498047,76.8979834 L934.498047,77.2936236 C934.498047,77.5205961 934.600084,77.7257042 934.805199,77.9089481 C935.018124,78.0703276 935.277902,78.1504968 935.585575,78.1504968 C935.893248,78.1504968 936.142094,78.0703276 936.332632,77.9089481 C936.523171,77.7480891 936.614796,77.5424604 936.607508,77.2936236 L936.607508,76.8979834 C936.607508,76.6855871 936.519527,76.487767 936.344085,76.3045232 C936.131161,76.1285674 935.875027,76.0405896 935.574642,76.0405896 L935.574642,76.0405896 Z"></path>
        </g>
    </g>
</svg>