<svg xmlns="http://www.w3.org/2000/svg" viewBox="0 0 100 100"><path d="M50 100C22.43 100 0 77.57 0 50S22.43 0 50 0s50 22.43 50 50-22.43 50-50 50zm0-91.903C26.894 8.097 8.097 26.894 8.097 50S26.894 91.903 50 91.903 91.903 73.106 91.903 50 73.106 8.097 50 8.097z"/><path d="M78.694 49C77.81 33.92 65.298 21 50 21c-9.8 0-18.462 4.933-23.66 12.438l5.902 5.793C35.852 33.18 42.452 29.1 50 29.1c10.834 0 19.732 9.29 20.597 19.903h-6.165l9.71 8.8c.325.325.852.325 1.177 0l9.71-8.8h-6.34zM50 70.464c-10.834 0-19.73-7.85-20.597-18.464h6.165l-9.71-10.238c-.325-.325-.852-.325-1.177 0L14.97 52h6.336C22.19 67.08 34.702 78.56 50 78.56c9.8 0 18.462-4.932 23.662-12.436L67.76 60.33C64.146 66.386 57.55 70.464 50 70.464z"/></svg>