<svg viewBox="0 0 25 33" version="1.1" xmlns="http://www.w3.org/2000/svg">
    <path d="M22.7538466,14.5489437 L22.528951,14.1445948 C22.5378811,11.2409032 21.2210734,10.057407 19.6855457,9.15795342 C20.1501315,9.03263258 20.6299117,8.92951935 20.7615525,8.33242081 C21.5598385,8.12332887 21.7268441,7.74526198 21.8069926,7.3445845 C22.0157163,7.2021602 22.7145721,6.80233342 22.6413988,6.11474776 C23.032678,5.83840612 23.2508205,5.48389005 23.1398389,4.98139778 C23.5603518,4.5121274 23.6710225,4.12438945 23.4924655,3.76691834 C23.9971256,3.12513591 23.7735184,2.79255883 23.5577306,2.45590736 C23.9360812,1.75439717 23.6022032,1.0021139 22.5456116,1.12810635 C22.1252319,0.496084529 21.208367,0.639628164 21.0669964,0.642583211 C20.9083433,0.439714773 20.6987754,0.265949068 20.054833,0.350167901 C19.6376077,-0.0304958502 19.1711115,0.0344256317 18.6900873,0.221444273 C18.118785,-0.232916554 17.7405232,0.131270573 17.3086366,0.268993662 C16.6167117,0.0411864205 16.4585917,0.353212495 16.1188048,0.480279506 C15.3645915,0.319632418 15.135342,0.669402499 14.7734298,1.03855948 L14.3527835,1.03014207 C13.2149327,1.70590754 12.6496726,3.08192954 12.4493014,3.78930505 C12.2488413,3.08179522 11.6848252,1.70581799 10.547241,1.03014207 L10.1265503,1.03855948 C9.76463808,0.669402499 9.53538853,0.319632418 8.78121971,0.480279506 C8.44138835,0.353212495 8.28326835,0.0411864205 7.59134345,0.268993662 C7.30793591,0.178640869 7.04727562,-0.00922846821 6.7402767,0.000353047056 C6.57949102,0.0054124453 6.40630987,0.065274529 6.20989276,0.221444273 C5.72891298,0.0344256317 5.26237237,-0.0304958502 4.84514708,0.350167901 C4.20120463,0.265949068 3.99168121,0.439714773 3.83298365,0.642583211 C3.69161309,0.639628164 2.7747926,0.496084529 2.35436847,1.12810635 C1.29782126,1.0021139 0.963898853,1.75439717 1.34224947,2.45590736 C1.12646167,2.79255883 0.902898924,3.12513591 1.40751451,3.76691834 C1.22900197,4.12438945 1.33962821,4.5121274 1.76014119,4.98139778 C1.64915953,5.48389005 1.86730203,5.83840612 2.25858125,6.11474776 C2.185408,6.80233342 2.8842637,7.2021602 3.09298742,7.3445845 C3.17313591,7.74526198 3.34014154,8.12332887 4.13842758,8.33242081 C4.27011278,8.92951935 4.749893,9.03263258 5.21443434,9.15795342 C3.67890662,10.057407 2.36214341,11.2409032 2.37102905,14.1445948 L2.14613346,14.5489437 C0.385399161,15.6280731 -1.19864416,19.0964025 1.27836171,21.9155619 C1.44016924,22.7979568 1.71153673,23.4317695 1.95313733,24.133235 C2.31451637,26.9598267 4.67294334,28.2833743 5.29498268,28.4399022 C6.20647179,29.1396215 7.17731698,29.803522 8.49101465,30.2685836 C9.72945094,31.5558199 11.0711384,32.0464025 12.4201565,32.0455518 C12.439927,32.0455518 12.460053,32.0457756 12.4798236,32.0455518 C13.8288417,32.0464025 15.1705291,31.5558199 16.4089654,30.2685836 C17.7226631,29.803522 18.6935083,29.1396215 19.6049974,28.4399022 C20.2270811,28.2833743 22.5854637,26.9598267 22.9468427,24.133235 C23.1884433,23.4317695 23.4598108,22.7979568 23.6216183,21.9155619 C26.0986686,19.0964025 24.5145809,15.6280731 22.7538466,14.5489437 L22.7538466,14.5489437 Z M21.1620283,14.0527197 C21.0701952,15.2222467 15.112728,9.97972507 16.1411522,9.80560117 C18.9327986,9.33055502 21.2555053,11.0020817 21.1620283,14.0527197 L21.1620283,14.0527197 Z M14.621352,1.83194476 C14.6729332,2.09454096 14.7313563,2.26056086 14.7980874,2.309543 C15.1292997,1.94629612 15.3998675,1.57431841 15.8262006,1.22481697 C15.8276223,1.43010317 15.7249931,1.65285102 15.9788115,1.81573678 C16.2073946,1.50111384 16.5163928,1.22029485 16.9266429,0.981965854 C16.7290262,1.33057183 16.8926997,1.43650577 16.9989276,1.58098965 C17.3122797,1.30608076 17.6099043,1.02763476 18.1877375,0.812005892 C18.0297508,1.00882992 17.8090315,1.20104228 18.0431682,1.4271929 C18.3658058,1.221056 18.6904871,1.01518774 19.4568737,0.868644288 C19.2841369,1.06560263 18.9271118,1.26260575 19.1436104,1.45956409 C19.5487513,1.30124523 19.9969874,1.18631182 20.4930284,1.1195994 C20.2555152,1.31946801 20.0573654,1.51521747 20.2520498,1.67004402 C20.6856247,1.53357458 21.2828731,1.34977963 21.8665709,1.50814327 L21.4970615,1.88858316 C21.4560542,1.93949055 22.3614122,1.92820765 22.9589716,1.93716233 C22.7408736,2.24708406 22.5185104,2.54621538 22.3886467,3.07852676 C22.447914,3.13991114 22.744028,3.10579378 23.0232148,3.07852676 C22.7369639,3.69514652 22.2396345,3.85077898 22.123588,4.11467361 C22.2984575,4.25011326 22.5411243,4.21487656 22.8063607,4.12273283 C22.6002139,4.55721425 22.1679718,4.85491283 21.8264078,5.20745886 C21.9127318,5.27014167 22.06361,5.30757226 22.4208127,5.26409726 C22.1052392,5.60728564 21.7240007,5.92101311 21.2721659,6.20313053 C21.3521811,6.29769202 21.6273694,6.29393105 21.8826094,6.30024411 C21.4733368,6.71010014 20.9465515,6.92255009 20.4528653,7.1906982 C20.6989531,7.36267297 20.8748888,7.32255597 21.0633089,7.32018298 C20.7141476,7.61367285 20.1204534,7.76635026 19.5693215,7.94347398 C19.6741277,8.11016548 19.7789338,8.15574484 20.0030297,8.20253308 C19.4196873,8.53282671 18.5840372,8.38180591 18.3483899,8.55060177 C18.4052581,8.71662167 18.5657327,8.82465997 18.758018,8.91487844 C17.8188501,8.97066614 15.2502777,8.87991039 14.7579243,6.89116391 C15.7193508,5.81055704 17.4742205,4.54176742 20.4930284,2.97330919 C18.1445089,3.77748487 16.0253723,4.84936092 14.2518871,6.32451131 C12.1668713,5.33134696 13.6041682,2.82640754 14.621352,1.83194476 L14.621352,1.83194476 Z M12.4379278,9.00429099 C13.9164097,8.98785914 15.7470295,10.1160154 15.7396989,11.1789368 C15.7332568,12.1171193 14.4540354,12.8766559 12.4493014,12.8621493 C10.4861966,12.8385537 9.16419086,11.9077588 9.16885582,10.9986789 C9.17267664,10.2505148 10.7717811,8.96059212 12.4379278,9.00429099 L12.4379278,9.00429099 Z M4.96514766,8.20253308 C5.18924354,8.15574484 5.29409411,8.11016548 5.39890026,7.94347398 C4.84776834,7.76635026 4.2540742,7.61367285 3.90486849,7.32018298 C4.09333295,7.32255597 4.26926865,7.36267297 4.51535649,7.1906982 C4.02167025,6.92255009 3.49488499,6.71010014 3.08556791,6.30024411 C3.34085239,6.29393105 3.61604071,6.29769202 3.69605591,6.20313053 C3.24417661,5.92101311 2.86298259,5.60728564 2.54740903,5.26409726 C2.90461182,5.30757226 3.05544559,5.27014167 3.14181402,5.20745886 C2.80024996,4.85491283 2.3679635,4.55721425 2.16186105,4.12273283 C2.42709744,4.21487656 2.66971989,4.25011326 2.84463374,4.11467361 C2.72854283,3.85077898 2.23125791,3.69514652 1.94500696,3.07852676 C2.22419382,3.10579378 2.52030782,3.13991114 2.57953063,3.07852676 C2.4497114,2.54621538 2.22734822,2.24708406 2.00925015,1.93716233 C2.60680954,1.92820765 3.51216756,1.93949055 3.47116033,1.88858316 L3.10165092,1.50814327 C3.68534871,1.34977963 4.28259711,1.53357458 4.71617199,1.67004402 C4.91081197,1.51521747 4.71270659,1.31946801 4.47519339,1.1195994 C4.97123433,1.18631182 5.41947052,1.30124523 5.82461134,1.45956409 C6.04111,1.26260575 5.68404049,1.06560263 5.51134805,0.868644288 C6.27773463,1.01518774 6.60237155,1.221056 6.92505362,1.4271929 C7.15914584,1.20104228 6.93847094,1.00882992 6.78048423,0.812005892 C7.3583175,1.02763476 7.65594206,1.30608076 7.96924978,1.58098965 C8.07552206,1.43650577 8.23915114,1.33057183 8.04157891,0.981965854 C8.45182897,1.22029485 8.76082716,1.50111384 8.98936586,1.81573678 C9.24322864,1.65285102 9.14059948,1.43010317 9.14197675,1.22481697 C9.56835426,1.57431841 9.83892205,1.94629612 10.1701343,2.30949823 C10.2368655,2.26056086 10.2952886,2.09454096 10.3468253,1.83194476 C11.3640536,2.82640754 12.8013061,5.33134696 10.7163347,6.32451131 C8.9428051,4.84936092 6.82371288,3.77748487 4.47519339,2.97330919 C7.49395682,4.54176742 9.24887102,5.81055704 10.2102974,6.89116391 C9.71794404,8.87991039 7.14937164,8.97066614 6.21015933,8.91487844 C6.40248904,8.82465997 6.5629193,8.71662167 6.61983183,8.55060177 C6.38414019,8.38180591 5.54853446,8.53282671 4.96514766,8.20253308 L4.96514766,8.20253308 Z M8.42788217,9.7160543 C9.45626189,9.89017819 3.49879467,15.1326998 3.40696157,13.9631729 C3.31348462,10.9125348 5.63623574,9.24100815 8.42788217,9.7160543 L8.42788217,9.7160543 Z M2.17314581,21.3979362 C0.725363806,20.2242901 0.259045339,16.7873469 2.94321993,15.2426634 C4.56102869,14.8058089 3.48933146,21.9871546 2.17314581,21.3979362 L2.17314581,21.3979362 Z M7.81663889,27.5490452 C7.00009286,28.045493 5.01712867,27.8410575 3.60768821,25.8005977 C2.6571467,24.088372 2.7796797,22.3460137 3.44703581,21.834119 C4.44511549,21.2214393 5.98717415,22.0489867 7.17407372,23.4369185 C8.20831797,24.6925895 8.67974568,26.8987558 7.81663889,27.5490452 L7.81663889,27.5490452 Z M6.21206974,20.059703 C4.71377287,19.0704339 4.44369379,16.8280907 5.60882354,15.0512569 C6.77390886,13.2744231 8.93303089,12.6359539 10.4313278,13.6251782 C11.9296246,14.6144473 12.1997037,16.8567905 11.0346184,18.6336691 C9.86948865,20.4105029 7.71036662,21.0489273 6.21206974,20.059703 L6.21206974,20.059703 Z M12.4433036,31.0459848 C10.64716,31.1240697 8.88598142,29.5633125 8.90903966,29.0223151 C8.88216059,28.2291089 11.0960626,27.6098027 12.5396684,27.6462035 C13.9923819,27.5823118 15.9415807,28.1177573 15.9454015,28.8280431 C15.969526,29.5177779 14.1776031,31.0761173 12.4433036,31.0459848 L12.4433036,31.0459848 Z M12.5239852,26.584894 C10.5269373,26.584894 8.90797338,25.080417 8.90797338,23.2245581 C8.90797338,21.3686992 10.5269373,19.8642222 12.5239852,19.8642222 C14.5210776,19.8642222 16.139997,21.3686992 16.139997,23.2245581 C16.139997,25.080417 14.5210776,26.584894 12.5239852,26.584894 L12.5239852,26.584894 Z M13.8724702,18.4545753 C12.7073404,16.6776967 12.9774195,14.4353535 14.4757164,13.4460845 C15.9740132,12.4568602 18.1331353,13.0953294 19.298265,14.8721632 C20.4633503,16.648997 20.1932713,18.8913402 18.6949744,19.8806092 C17.1966775,20.8698335 15.0375555,20.2314091 13.8724702,18.4545753 L13.8724702,18.4545753 Z M21.1960603,25.8992336 C19.6483149,28.0634472 17.5530362,28.1477108 16.7725214,27.544926 C15.9561975,26.7688233 16.5793031,24.3596542 17.6983164,23.0387931 C18.9788262,21.5817312 20.3477481,20.63043 21.3013996,21.3737586 C21.9433428,22.0181826 22.3199163,24.445664 21.1960603,25.8992336 L21.1960603,25.8992336 Z M22.4073066,21.3083893 C21.0911209,21.8976078 20.0193793,14.7162621 21.637188,15.1531165 C24.321407,16.6978 23.8550441,20.1347433 22.4073066,21.3083893 L22.4073066,21.3083893 Z" id="Imported-Layers"></path>
</svg>