<svg xmlns="http://www.w3.org/2000/svg" viewBox="0 0 100 100"><path d="M69.586 85.907c0 1.543-1.25 2.793-2.793 2.793S64 87.45 64 85.907v-48.43H52.586v48.43c0 1.543-1.25 2.793-2.793 2.793S47 87.45 47 85.907v-48.43H37v48.43c0 1.543-1.25 2.793-2.793 2.793s-2.793-1.25-2.793-2.793v-48.43H19.098V92.96c0 3.887 3.15 7.04 7.04 7.04h47.726c3.887 0 7.038-3.152 7.038-7.04V37.476H69.586v48.43zM49.81 6.207c2.756 0 4.998 2.038 4.998 4.793h6.208c0-6.18-5.026-11-11.205-11s-11.2 4.82-11.2 11h6.208c0-2.755 2.243-4.792 4.998-4.792zM77.59 15H22.41c-3.888 0-7.04 3.084-7.04 6.97V32h69.258V21.97c0-3.886-3.15-6.97-7.038-6.97z"/></svg>