<?xml version="1.0" encoding="utf-8"?>
<!-- Generator: Adobe Illustrator 19.1.0, SVG Export Plug-In . SVG Version: 6.00 Build 0)  -->
<svg version="1.1" id="Layer_1" xmlns="http://www.w3.org/2000/svg" xmlns:xlink="http://www.w3.org/1999/xlink" x="0px" y="0px"
	 viewBox="0 0 100 100" style="enable-background:new 0 0 100 100;" xml:space="preserve">
<path d="M93.478,64.274c0.696-0.187,1.4-0.407,2.112-0.66c2.056-0.728,3.512-2.525,3.802-4.69c0.29-2.164-0.643-4.282-2.435-5.526
	c-0.395-0.274-0.578-0.882-0.978-3.252c-0.398-2.33-0.888-5.228-2.54-8.417c-1.688-3.247-4.058-5.446-6.32-6.92
	c0.904-4.098,0.703-8.14-0.62-11.898C83.37,14.002,75.433,8.89,64.73,8.89c-1.068,0-1.925,0.055-2.503,0.11
	c-2.28,0.084-5.573,0.354-8.645,1.154l-0.068,0.018l-0.067,0.02c-0.225,0.064-0.435,0.14-0.65,0.213
	c-3.68-2.567-8.437-4.01-13.982-4.01h-0.203L38.409,6.41c-0.435,0.034-10.6,0.81-14.58,1.314c-1.67,0.21-3.17,1.133-4.11,2.53
	c-0.937,1.393-1.226,3.12-0.795,4.738c0.156,0.587,0.356,1.166,0.57,1.707c-1.283,2.12-2.952,4.94-3.616,6.32
	c-0.833,1.736-0.98,3.48-0.66,5.045l-3.37,4.84c-0.95,1.367-1.286,3.083-0.918,4.707c0.368,1.624,1.41,3.028,2.858,3.85l0.257,0.145
	l0.032,6.747c0.013,3.33,2.282,6.217,5.516,7.017l3.13,0.776l-10.26,5.09C4.776,65.05,0,72.414,0,81v10h100V78.256
	C100,72.816,97.563,67.706,93.478,64.274z M32.334,85H5.35v-4c0-6.492,3.678-12.086,9.494-14.97l15.118-7.498V52.43l-9.08-2.25
	c-0.85-0.21-1.45-0.972-1.454-1.85l-0.047-9.843l-2.943-1.675c-0.3-0.17-0.39-0.565-0.192-0.85l5.18-7.436
	c0,0-1.675-1.196-0.718-3.19c0.957-1.994,4.872-8.328,4.872-8.328s-1.044-1.76-1.48-3.395c-0.073-0.275,0.125-0.547,0.407-0.583
	c3.89-0.493,14.31-1.286,14.31-1.286c3.488,0,6.437,0.644,8.846,1.788c-0.513,0.56-0.957,1.167-1.316,1.832
	c-0.58,1.073-0.857,2.11-0.965,3.025c-0.753,1.214-1.717,3.01-2.42,5.15c-0.867,2.63-0.934,5.35-0.823,7.25
	c-0.855,1.18-1.98,2.714-2.68,3.6c-1.207,1.522-1.71,3.48-1.377,5.365c0.28,1.597,1.156,3.017,2.43,3.972l0.313,5.802
	c0.157,3.522,2.99,7.24,7.973,7.24c0.127,0,0.256,0,0.39-0.007c0.203-0.008,0.41-0.012,0.62-0.012c0.674,0,1.21,0.045,1.616,0.103
	L40.698,63.77c-5.237,3.376-8.364,9.11-8.364,15.34V85z M37.685,85v-5.89c0-4.383,2.227-8.468,5.912-10.843l12.458-8.03
	c0.922-0.594,1.458-1.658,1.34-2.748c-0.147-1.358-0.44-2.545-0.945-3.61c-0.926-1.954-3.963-2.477-6.642-2.477
	c-0.28,0-0.558,0.006-0.827,0.016c-0.06,0.002-0.12,0.004-0.18,0.004c-2.553,0-2.63-2.146-2.63-2.146l-0.452-8.46
	c0,0-0.86-0.67-1.93-1.33c-0.593-0.365-0.566-1.23-0.134-1.776c1.352-1.704,4.026-5.462,4.026-5.462s-0.715-3.766,0.364-7.04
	c1-3.038,2.705-5.214,2.705-5.214s-0.98-3.18,4.182-4.67c2.756-0.718,5.828-0.93,7.653-0.99c0.375-0.04,1.133-0.103,2.145-0.103
	c4.37,0,13.465,1.17,16.73,10.453c1.62,4.607,0.804,9.085-0.85,12.88c2.17,0.716,5.94,2.498,8.085,6.625
	c2.97,5.717,1.14,10.77,5.215,13.598c0.29,0.203,0.23,0.66-0.104,0.78c-2.247,0.796-4.277,1.16-6.067,1.16
	c-6.17,0-9.48-4.32-8.967-10.133c0.315-3.575-1.154-6.185-1.71-6.185c-0.055,0-0.1,0.024-0.134,0.075
	c-2.507,3.677-4.266,5.65-4.266,5.65c-2.248,2.823-0.964,6.29,0.346,8.125c0.76,1.062,1.385,1.902,2.46,2.604l12.64,7.163
	c4.044,2.29,6.54,6.577,6.54,11.223V85H37.685z"/>
</svg>
