<?xml version="1.0" encoding="UTF-8" standalone="yes"?>
<svg id="sprites" xmlns="http://www.w3.org/2000/svg" style="display:none">
  <symbol id="analytics-outline" viewBox="0 0 100 100">
    <path d="M50 0C22.43 0 0 22.43 0 50s22.43 50 50 50 50-22.43 50-50S77.57 0 50 0zm0 8.096c22.564 0 41.01 17.93 41.863 40.286H82.28L66.006 28.285 42.652 56.15 25.546 37.454l-9.602 9.602H8.21C9.73 25.32 27.885 8.096 50 8.096zm0 83.808c-21.916 0-39.943-16.916-41.745-38.372h10.373l6.71-6.71L42.862 65.98 65.92 38.47l13.266 16.39h12.426c-2.415 20.824-20.147 37.043-41.61 37.043H50z"/>
  </symbol>
  <symbol id="analytics-solid" viewBox="0 0 100 100">
    <path d="M13.292 47.677l10.054-10.054 18.67 20.406 25.372-30.27 17.295 21.36H99.96C99.488 21.91 77.3 0 49.982 0 23.146 0 1.255 21.142.042 47.677h13.25z"/>
    <path d="M82.16 54.407L67.316 36.07 42.19 66.05 23.175 45.27l-7.695 7.695H.078C1.61 79.197 23.363 100 49.982 100c26.128 0 47.563-20.045 49.795-45.593H82.16z"/>
  </symbol>
  <symbol id="android" viewBox="0 0 28 33">
    <path d="M0.658144953,12.408 C0.658144953,11.9140645 0.833505368,11.4871935 1.18633898,11.1273871 C1.53917258,10.7675806 1.95644586,10.5961935 2.44238436,10.6100323 C2.94099952,10.6100323 3.3667239,10.7899355 3.71850112,11.1497419 C4.07239112,11.5095484 4.2414132,11.9289677 4.22556738,12.408 L4.22556738,20.79 C4.22556738,21.2988387 4.05020697,21.7342258 3.69737336,22.0940323 C3.34453975,22.4527742 2.9336048,22.6326774 2.46351212,22.6326774 C1.96384058,22.6326774 1.53917258,22.4453226 1.18633898,22.0706129 C0.833505368,21.6959032 0.658144953,21.2700968 0.658144953,20.79 L0.658144953,12.408 L0.658144953,12.408 Z M22.7567265,10.7675806 L22.7567265,23.6886774 C22.7567265,24.2134839 22.5708022,24.6627097 22.20001,25.0374194 C21.8281614,25.412129 21.388704,25.5920323 20.8848069,25.5760645 L19.1893041,25.5760645 L19.1893041,30.3631935 C19.1893041,30.8720323 19.0076053,31.3063548 18.6452642,31.6661613 C18.2829231,32.0259677 17.868819,32.205871 17.406121,32.205871 C16.9413103,32.205871 16.5208678,32.0185161 16.1437373,31.6438065 C15.7951293,31.2690968 15.6208252,30.8422258 15.6208252,30.3631935 L15.6208252,25.5760645 L12.3882778,25.5760645 L12.3882778,30.3631935 C12.3882778,30.8720323 12.2129174,31.3063548 11.8653657,31.6661613 C11.5030246,32.0259677 11.0751875,32.205871 10.5829106,32.205871 C10.088521,32.205871 9.6680786,32.0185161 9.31947054,31.6438065 C8.97086249,31.2690968 8.80500956,30.8422258 8.81979899,30.3631935 L8.81979899,25.5760645 L7.12535257,25.5760645 C6.63413213,25.5611613 6.19573109,25.3738065 5.80909306,25.0150645 C5.42245504,24.6552581 5.23653074,24.2134839 5.25237656,23.6886774 L5.25237656,10.7675806 L22.7567265,10.7675806 L22.7567265,10.7675806 Z M19.9287757,0.293806452 L18.2100323,3.06474194 C19.5410813,3.73645161 20.6133151,4.68387097 21.4256775,5.907 C22.2390963,7.13119355 22.6679899,8.45864516 22.7123582,9.89148387 L5.25237656,9.89148387 C5.26610961,8.44374194 5.68866483,7.09180645 6.51581667,5.83780645 C7.34402489,4.58380645 8.45217595,3.62041935 9.84238262,2.94870968 L8.1479362,0.291677419 L8.6159161,0 L10.3431106,2.71877419 C11.4016114,2.24293548 12.6101193,2.00341935 13.9718035,2.00341935 C15.3324313,2.00341935 16.5927022,2.27274194 17.7536727,2.81032258 L19.458683,0.00212903226 L19.9287757,0.293806452 L19.9287757,0.293806452 Z M9.91316062,5.41625806 C9.67441692,5.41625806 9.46630848,5.50887097 9.2877789,5.69303226 C9.10924932,5.87825806 9.01206162,6.09329032 8.99832857,6.33919355 C8.99832857,6.58509677 9.08706517,6.81609677 9.26665114,7.03006452 C9.45891376,7.21529032 9.67441692,7.30683871 9.91316062,7.30683871 C10.1497915,7.30683871 10.3652947,7.21529032 10.5586137,7.03006452 C10.7371433,6.84590323 10.8269363,6.63087097 10.8269363,6.38496774 C10.8269363,6.13906452 10.7371433,5.90806452 10.5586137,5.69303226 C10.3652947,5.50887097 10.1497915,5.41625806 9.91316062,5.41625806 L9.91316062,5.41625806 Z M18.1181266,5.41625806 C17.8508604,5.41625806 17.6279625,5.50887097 17.4494329,5.69303226 C17.2719597,5.87825806 17.1821668,6.09329032 17.1821668,6.33919355 C17.1821668,6.58509677 17.2719597,6.81609677 17.4494329,7.03006452 C17.6279625,7.21529032 17.8508604,7.30683871 18.1181266,7.30683871 C18.3864491,7.30683871 18.6008959,7.21529032 18.7656924,7.03006452 C18.9579551,6.84590323 19.0551428,6.63087097 19.0551428,6.38496774 C19.0551428,6.13906452 18.9664062,5.90806452 18.7878766,5.69303226 C18.609347,5.50887097 18.3864491,5.41625806 18.1181266,5.41625806 L18.1181266,5.41625806 Z M25.5550984,10.6100323 C26.0727286,10.6100323 26.493171,10.7899355 26.8185385,11.1497419 C27.1428497,11.5095484 27.3065898,11.9289677 27.3065898,12.408 L27.3065898,20.79 C27.3065898,21.2988387 27.1291166,21.7342258 26.7741702,22.0940323 C26.4192238,22.4527742 26.0061761,22.6326774 25.5339707,22.6326774 C25.0311299,22.6326774 24.6022364,22.4453226 24.24729,22.0706129 C23.8923436,21.6959032 23.7233215,21.2700968 23.738111,20.79 L23.738111,12.408 C23.7233215,11.9140645 23.8923436,11.4871935 24.24729,11.1273871 C24.6022364,10.7675806 25.0385247,10.5961935 25.5550984,10.6100323 L25.5550984,10.6100323 Z"/>
  </symbol>
  <symbol id="apple" viewBox="0 0 25 30">
    <path d="M24.1909961,22.185266 C24.0369402,22.6579451 23.8731691,23.1079809 23.6996827,23.5424494 C23.2763761,24.5642288 22.7753475,25.5067566 22.197985,26.3700328 C21.4068872,27.5503154 20.7615181,28.3640593 20.2604895,28.8169255 C19.4874344,29.5613244 18.6616394,29.9462606 17.7747772,29.9660735 C17.1377354,29.9660735 16.3730076,29.7764358 15.4764302,29.3943299 C14.5798528,29.0108089 13.7582214,28.8197559 13.0045968,28.8197559 C12.2148869,28.8197559 11.3654978,29.0122241 10.4605931,29.3943299 C9.55568831,29.7764358 8.82288201,29.9802256 8.26494993,29.9986233 C7.41556081,30.0382491 6.56755957,29.6448216 5.72094622,28.8197559 C5.18105673,28.3272639 4.50654184,27.4838006 3.69740154,26.2837052 C2.82996984,25.0071886 2.116594,23.5240517 1.55727404,21.8314643 C0.961868913,20.0044322 0.662084516,18.2354236 0.662084516,16.5272688 C0.662084516,14.5615465 1.06734861,12.8717894 1.8764889,11.4565825 C2.51214286,10.317341 3.36014409,9.41868459 4.42049261,8.75919818 C5.48084113,8.09971177 6.62723887,7.76289252 7.86107373,7.74307963 C8.53558862,7.74307963 9.4224508,7.95960628 10.5202724,8.39124439 C11.6180939,8.82288249 12.3203666,9.04082435 12.6298663,9.04082435 C12.861644,9.04082435 13.6416386,8.7846719 14.9726258,8.27378221 C16.2217275,7.80110311 17.2848518,7.60580456 18.1522835,7.68364094 C20.5019825,7.8817699 22.2673795,8.85260184 23.4415351,10.6017976 C21.3402685,11.9377529 20.3021262,13.8044108 20.3215567,16.2017713 C20.3409872,18.0670139 20.9863564,19.6223263 22.2590522,20.8592172 C22.832251,21.4281303 23.4776202,21.8710901 24.1909961,22.185266 L24.1909961,22.185266 Z M18.1786534,0.579302314 C18.1980839,0.776016073 18.2077991,0.972729831 18.2077991,1.16944359 C18.2077991,2.64408918 17.6956674,4.01967028 16.6755678,5.2947717 C15.4417329,6.80904308 14.0135933,7.49683363 12.3967006,7.35955856 C12.3772702,7.1826577 12.3675549,6.99585039 12.3675549,6.80055183 C12.3675549,5.38534494 12.8894018,4.05788087 13.9303199,2.82099004 C14.4507789,2.19405338 15.110027,1.67184204 15.9122279,1.25860162 C16.7088771,0.845361211 17.4652776,0.618928107 18.1786534,0.579302314 L18.1786534,0.579302314 Z"/>
  </symbol>
  <symbol id="arduino" viewBox="0 0 36 18">
    <path d="M27.2360055,3 C24.665094,3 22.4937782,3.85376094 20.5979955,5.6100603 C19.6052471,6.52980519 18.7723069,7.61928951 17.999975,8.79082747 C17.2276432,7.61928951 16.394703,6.52980519 15.4019046,5.6100603 C13.5061719,3.85376094 11.334856,3 8.76394453,3 C3.9315036,3 0,6.94053845 0,11.7840804 C0,16.6142911 3.91003607,20.5465106 8.72430449,20.5680574 C11.3262191,20.6999736 13.5036258,19.8545317 15.4024538,17.980164 C16.3979481,16.9974837 17.2307884,15.8166966 17.999975,14.5915758 C18.7691616,15.8166966 19.602002,16.9974837 20.5974464,17.980164 C22.3706144,19.7304178 24.3872643,20.5812335 26.7626215,20.5812335 C26.9310668,20.5812335 27.103456,20.5767898 27.2756955,20.5680574 C32.0899639,20.5465106 36,16.6142911 36,11.7840804 C36,6.94053845 32.0684964,3 27.2360055,3 Z M13.3351306,15.7366582 C12.0318019,17.0232159 10.617491,17.5670538 8.84267545,17.4700156 L8.76394453,17.4678971 C5.5832054,17.4678971 2.99546935,14.9181369 2.99546935,11.7840804 C2.99546935,8.65002383 5.5832054,6.10026366 8.76394453,6.10026366 C10.5895333,6.10026366 12.0639533,6.6785145 13.4040763,7.92006675 C14.4709127,8.90837914 15.3446912,10.1993289 16.2391882,11.6677688 C15.3139377,13.2216726 14.415896,14.6698058 13.3351306,15.7366582 Z M27.2360055,17.4678971 L27.1572746,17.4700156 C25.383108,17.5667955 23.9681482,17.0231642 22.6648694,15.7366582 C21.5840541,14.6698058 20.6860124,13.2216726 19.7608118,11.6677688 C20.6552589,10.1993289 21.5290873,8.90837914 22.5958737,7.92006675 C23.9359469,6.6785145 25.4104667,6.10026366 27.2360055,6.10026366 C30.4167946,6.10026366 33.0045306,8.65002383 33.0045306,11.7840804 C33.0045306,14.9181369 30.4167946,17.4678971 27.2360055,17.4678971 Z M27.6320066,8.97622324 L25.9413637,8.97622324 L25.9413637,10.6573929 L24.3170704,10.6573929 L24.3170704,12.398656 L25.9413637,12.398656 L25.9413637,14.0924333 L27.6320066,14.0924333 L27.6320066,12.398656 L29.2562998,12.398656 L29.2562998,10.6573929 L27.6320066,10.6573929 L27.6320066,8.97622324 Z M6.33187304,10.6363111 L11.6706981,10.6363111 L11.6706981,12.4323455 L6.33187304,12.4323455 L6.33187304,10.6363111 Z"/>
  </symbol>
  <symbol id="blank-app-outline" viewBox="0 0 100 100">
    <path d="M76.913 0H23.087C10.357 0 0 10.357 0 23.174V77c0 12.643 10.357 23 23.087 23h53.826C89.643 100 100 89.643 100 76.913V23.087C100 10.357 89.643 0 76.913 0zM90 23.737V26H75V9h1.913C84.45 9 90 16.2 90 23.737zM65.47 48c-.858-7.11-6.487-12.372-13.587-13.266V30h19.36v18H65.47zm-17.353 0h-9.945c.813-5.085 4.848-8.707 9.945-9.486V48zm0 4v10.03c-5.097-.778-9.132-4.944-9.945-10.03h9.945zm3.766 0h9.78c-.804 5.03-4.76 9.167-9.78 10.006V52zm0-4v-9.46c5.02.84 8.976 4.43 9.78 9.46h-9.78zm0-22V9h19.36v17h-19.36zm-3.766 0h-19.36V9h19.36v17zm0 4v4.71c-7.178.825-12.887 6.124-13.75 13.29h-5.61V30h19.36zM25 48H9V30h16v18zm0 4v19H9V52h16zm3.757 0h5.61c.862 7.166 6.572 13.01 13.75 13.837V71h-19.36V52zm19.36 23v15h-19.36V75h19.36zm3.766 0h19.36v15h-19.36V75zm0-4v-5.19c7.1-.893 12.73-6.7 13.586-13.81h5.77v19H51.88zM75 52h15v19H75V52zm0-4V30h15v18H75zM23.087 9H25v17H9v-2.913C9 15.55 15.55 9 23.087 9zM9 76.913V75h16v15h-1.913C15.55 90 9 84.45 9 76.913zM76.913 90H75V75h15v1.913C90 84.45 84.45 90 76.913 90z"/>
  </symbol>
  <symbol id="blank-app-solid" viewBox="0 0 100 100">
    <path d="M47.92 63.28V52H36.944c.898 5.614 5.35 10.422 10.978 11.28zM0 25h21v23H0zm47.92 12.32c-5.625.86-10.08 5.067-10.977 10.68H47.92V37.32z"/>
    <path d="M47.92 25H24.47v23h8.273c.954-7.91 7.257-13.97 15.18-14.88V25zM24.468 75.833H47.92v-8.35C40 66.57 33.696 59.91 32.74 52h-8.27v23.833zM79 52h21v23.833H79zM0 52h21v23.833H0zm79-27h21v23H79zm-58-4V0h3.468v21H47.92V0h4.16v21h23.47V0H79v21h21c0-11.206-9.774-21-20.96-21H21C9.774 0 0 9.794 0 21h21zm31.08 59h23.47v20H52.08zM21 80H.014c.152 11.075 9.855 20 20.966 20H21V80zm31.08-4.167h23.47V52h-8.475c-.946 7.85-7.16 14.468-14.998 15.455v8.378zM24.468 80H47.92v20H24.47zM79 80v20h.02c11.11 0 20.814-8.925 20.966-20H79zM52.08 48h10.796c-.888-5.553-5.256-9.726-10.797-10.652V48z"/>
    <path d="M67.077 48h8.475V25H52.08v8.147c7.837.987 14.05 7.003 14.997 14.853zM52.08 63.254c5.54-.926 9.908-5.7 10.796-11.254H52.08v11.254z"/>
  </symbol>
  <symbol id="bug-outline" viewBox="0 0 100 100">
    <path d="M49.734 10.828c-7.876 0-14.26 6.296-14.26 14.172h28.52c0-7.876-6.384-14.172-14.26-14.172z"/>
    <path d="M100 51.796V44H78.842v-5.476C85.965 37.517 90 31.397 90 24v-8.425h-6.5V24c0 3.705-3.015 7-6.72 7H23.274c-3.705 0-6.72-3.296-6.72-7v-9H9v9c0 7.193 4.163 13.183 11 14.435V44H0v7.796h20v5.884c-6.837 1.252-11 7.242-11 14.435V80h8v-7.884c0-2.974 1.51-5.474 4.193-6.356C23.85 79.09 35.633 90 49.733 90 63.893 90 75.71 79.002 78.3 65.586c2.972.693 4.7 3.35 4.7 6.53V80h7v-7.884C90 64.72 85.963 58.6 78.84 57.59v-5.794H100zm-72 8.267V39h19v41.937c-10.146-1.545-19-10.303-19-20.874zm24.92 20.874v-42.25h17.955v21.376c0 10.57-7.808 19.33-17.954 20.874z"/>
  </symbol>
  <symbol id="bug-solid" viewBox="0 0 100 100">
    <path d="M49.733 10.92c-7.876 0-14.26 7.204-14.26 15.08h28.52c0-7.876-6.383-15.08-14.26-15.08z"/>
    <path d="M100 51.888V44H78.842v-5.384c7.122-1.008 12.624-7.128 12.624-14.525V16h-7.968v8.092c0 3.705-3.014 6.72-6.718 6.72H23.273c-3.705 0-6.72-3.015-6.72-6.72V16H8.587v8.092c0 7.193 5.202 13.183 12.04 14.435V44H0v7.888h20.625v5.884c-6.837 1.252-12.04 7.242-12.04 14.435V81h7.97v-8.793c0-2.975 1.956-5.475 4.64-6.356C23.65 78.16 33.34 87.7 46 89.08V38.778h7V89.08c12.718-1.392 22.92-11.005 25.313-23.398 2.965.698 5.185 3.35 5.185 6.526V81h7.968v-8.793c0-7.397-5.502-13.517-12.624-14.525v-5.795H100z"/>
  </symbol>
  <symbol id="calendar-outline" viewBox="0 0 100 100">
    <path d="M0 4v85.817C0 93.282 2.818 96 6.283 96h87.434c3.465 0 6.283-2.718 6.283-6.183V4H0zm90 8v10H9V12h81zM9 88V31h81v57H9z"/>
    <path d="M42 41h16v16H42zm-25 0h16v16H17zm50 0h16v16H67zM42 64h16v16H42zm-25 0h16v16H17zm50 0h16v16H67z"/>
  </symbol>
  <symbol id="calendar-solid" viewBox="0 0 100 100">
    <path d="M0 4.26h100v16.366H0zm0 23.745V93.49c0 1.243 1.008 2.25 2.25 2.25h95.5c1.243 0 2.25-1.007 2.25-2.25V28.005H0zm30.545 54.008H13.46V64.93h17.085v17.083zm0-26.803H13.46V38.126h17.085V55.21zM58.61 82.013H41.524V64.93H58.61v17.083zm0-26.803H41.524V38.126H58.61V55.21zm27.93 26.803H69.454V64.93H86.54v17.083zm0-26.803H69.454V38.126H86.54V55.21z"/>
  </symbol>
  <symbol id="check-outline" viewBox="0 0 100 100">
    <path d="M50 100C22.43 100 0 77.57 0 50S22.43 0 50 0s50 22.43 50 50-22.43 50-50 50zm0-91.903C26.894 8.097 8.097 26.894 8.097 50S26.894 91.903 50 91.903 91.903 73.106 91.903 50 73.106 8.097 50 8.097z"/>
    <path d="M42.746 56.82L32.2 46.274l-8.59 8.59L42.746 74l35.01-35.01-8.59-8.59"/>
  </symbol>
  <symbol id="check-solid" viewBox="0 0 100 100">
    <path d="M50 0C22.386 0 0 22.386 0 50s22.386 50 50 50 50-22.386 50-50S77.614 0 50 0zm-7.893 76.057L21.285 55.235l9.347-9.347 11.475 11.475 28.747-28.748 9.347 9.347-38.09 38.095z"/>
  </symbol>
  <symbol id="check" viewBox="-719 451 100 100">
    <path d="M-683.659,509.532l-19.477-19.477L-719,505.92l35.341,35.342L-619,476.603l-15.865-15.865"/>
  </symbol>
  <symbol id="cloud-cool" viewBox="-719 451 100 100">
    <g>
      <path d="M-628.953,495.192c-0.247-0.252-0.549-0.446-0.884-0.575c-0.095-0.06-0.185-0.125-0.281-0.183
		c-1.066-16.557-14.875-29.702-31.696-29.702c-6.074,0-11.979,1.721-17.077,4.978c-3.596,2.297-6.676,5.278-9.077,8.758
		c-1.667-0.528-3.415-0.799-5.198-0.799c-9.5,0-17.23,7.729-17.23,17.23c0,0.425,0.016,0.849,0.047,1.271
		c-5.405,4.346-8.651,10.979-8.651,18.01c0,12.731,10.358,22.82,23.091,22.82h53.821c12.731,0,23.089-10.089,23.089-22.82
		C-619,506.497-622.794,499.449-628.953,495.192z M-642.089,533h-53.821c-10.09,0-18.272-8.731-18.272-18.82
		c0-6.066,2.632-11.858,7.181-15.18h12.079l0.332,8.147c0,3.326,2.706,5.853,6.033,5.853h9.933c3.326,0,6.031-2.526,6.031-5.853
		v-3.272c0.05-0.196,0.084-0.398,0.084-0.609c0-1.445,1.72-2.665,3.755-2.665s3.755,1.22,3.755,2.665
		c0,0.211,0.034,0.413,0.084,0.609v3.273c0,3.326,2.705,5.852,6.031,5.852h9.933c3.326,0,6.032-2.526,6.032-5.852l-0.332-8.148
		h11.593c4.547,3.323,7.837,9.117,7.837,15.18C-623.819,524.269-632,533-642.089,533z M-693.166,482.488
		c2.645,0,5.094,0.83,7.107,2.243c4.37-8.988,13.582-15.181,24.245-15.181c14.191,0,25.808,10.527,26.857,24.45h-27.466
		c-1.202,0-2.205,1.297-2.439,2.429c-1.173-0.514-2.492-0.81-3.891-0.81s-2.717,0.297-3.891,0.81
		c-0.235-1.132-1.236-2.429-2.439-2.429h-30.483C-705.326,487.356-699.867,482.488-693.166,482.488z"/>
      <path d="M-657.726,518.116c-3.071,2.87-7.076,4.451-11.274,4.451c-4.198,0-8.203-1.581-11.275-4.451
		c-0.724-0.676-1.858-0.636-2.535,0.086c-0.676,0.724-0.638,1.86,0.086,2.535c3.739,3.494,8.613,5.418,13.724,5.418
		c5.112,0,9.985-1.924,13.723-5.418c0.724-0.676,0.762-1.811,0.086-2.535C-655.867,517.48-657.002,517.44-657.726,518.116z"/>
    </g>
  </symbol>
  <symbol id="cloud-happy" viewBox="-719 451 100 100">
    <g>
      <path d="M-630.118,494.433c-1.066-16.557-14.875-29.702-31.695-29.702c-6.074,0-11.979,1.721-17.077,4.978
		c-3.596,2.297-6.677,5.278-9.077,8.759c-1.666-0.528-3.414-0.799-5.197-0.799c-9.501,0-17.23,7.729-17.23,17.23
		c0,0.424,0.016,0.848,0.047,1.271c-5.405,4.346-8.651,10.979-8.651,18.01c0,12.731,10.359,22.82,23.091,22.82h53.821
		c12.731,0,23.088-10.089,23.088-22.82C-619,506.022-623.275,498.577-630.118,494.433z M-642.088,533h-53.821
		c-10.091,0-18.272-8.731-18.272-18.82c0-6.748,3.662-12.638,9.102-15.801c-0.321-1.105-0.498-2.272-0.498-3.481
		c0-6.854,5.557-12.411,12.412-12.411c2.645,0,5.094,0.83,7.107,2.243c4.368-8.987,13.582-15.18,24.245-15.18
		c14.88,0,26.942,12.064,26.942,26.945c0,0.299-0.013,0.593-0.023,0.889c6.512,2.792,11.074,9.26,11.074,16.796
		C-623.819,524.269-631.998,533-642.088,533z"/>
      <path d="M-660.336,514.667c-2.114,2.124-5.271,3.342-8.662,3.342c-3.392,0-6.549-1.218-8.663-3.342
		c-0.708-0.712-1.856-0.713-2.564-0.007c-0.71,0.707-0.713,1.856-0.007,2.564c2.791,2.805,6.886,4.413,11.234,4.413
		c4.351,0,8.443-1.608,11.233-4.413c0.706-0.71,0.703-1.857-0.006-2.564C-658.481,513.954-659.628,513.957-660.336,514.667z"/>
      <ellipse cx="-684.636" cy="504.314" rx="3.511" ry="4.976"/>
      <ellipse cx="-653.363" cy="504.314" rx="3.509" ry="4.976"/>
    </g>
  </symbol>
  <symbol id="cloud-sad" viewBox="-719 451 100 100">
    <g>
      <path d="M-630.118,494.433c-1.066-16.558-14.875-29.702-31.695-29.702c-6.074,0-11.979,1.721-17.077,4.978
		c-3.596,2.297-6.677,5.278-9.077,8.759c-1.666-0.528-3.415-0.799-5.197-0.799c-9.501,0-17.23,7.729-17.23,17.23
		c0,0.424,0.016,0.848,0.047,1.271c-5.405,4.346-8.651,10.979-8.651,18.01c0,12.731,10.359,22.82,23.091,22.82h53.821
		c12.731,0,23.088-10.089,23.088-22.82C-619,506.022-623.275,498.577-630.118,494.433z M-642.088,533h-53.821
		c-10.091,0-18.272-8.731-18.272-18.82c0-6.748,3.662-12.637,9.102-15.8c-0.321-1.105-0.498-2.272-0.498-3.481
		c0-6.854,5.557-12.411,12.412-12.411c2.645,0,5.094,0.83,7.107,2.243c4.368-8.987,13.582-15.18,24.245-15.18
		c14.88,0,26.942,12.063,26.942,26.945c0,0.299-0.013,0.593-0.023,0.889c6.512,2.792,11.074,9.26,11.074,16.795
		C-623.819,524.269-631.998,533-642.088,533z"/>
      <path d="M-669,514.132c-4.351,0-8.444,1.608-11.232,4.413c-0.707,0.71-0.703,1.857,0.006,2.563
		c0.709,0.706,1.857,0.704,2.564-0.007c2.114-2.124,5.271-3.343,8.662-3.343c3.392,0,6.549,1.219,8.663,3.343
		c0.707,0.712,1.855,0.713,2.564,0.007c0.71-0.707,0.713-1.856,0.007-2.563C-660.557,515.74-664.652,514.132-669,514.132z"/>
      <ellipse cx="-684.636" cy="504.314" rx="3.511" ry="4.976"/>
      <ellipse cx="-653.363" cy="504.314" rx="3.509" ry="4.976"/>
    </g>
  </symbol>
  <symbol id="cloud-surprise" viewBox="-719 451 100 100">
    <g>
      <path d="M-630.118,494.433c-1.066-16.558-14.875-29.702-31.695-29.702c-6.074,0-11.979,1.721-17.077,4.978
		c-3.596,2.297-6.677,5.279-9.077,8.759c-1.667-0.528-3.415-0.799-5.198-0.799c-9.501,0-17.23,7.729-17.23,17.23
		c0,0.424,0.016,0.847,0.047,1.271c-5.404,4.345-8.651,10.978-8.651,18.01c0,12.731,10.358,22.82,23.091,22.82h53.82
		c12.731,0,23.089-10.089,23.089-22.82C-619,506.022-623.275,498.577-630.118,494.433z M-642.089,533h-53.82
		c-10.091,0-18.273-8.731-18.273-18.82c0-6.748,3.663-12.638,9.102-15.801c-0.322-1.105-0.498-2.272-0.498-3.48
		c0-6.855,5.557-12.411,12.411-12.411c2.645,0,5.094,0.83,7.107,2.243c4.369-8.988,13.583-15.181,24.245-15.181
		c14.88,0,26.942,12.063,26.942,26.945c0,0.299-0.013,0.593-0.022,0.89c6.511,2.791,11.074,9.259,11.074,16.795
		C-623.819,524.269-632,533-642.089,533z"/>
      <path d="M-669.001,510.12c-3.844,0-6.961,3.116-6.961,6.961c0,3.844,3.116,6.919,6.961,6.919c3.845,0,6.962-3.075,6.962-6.919
		C-662.039,513.237-665.156,510.12-669.001,510.12z"/>
      <ellipse cx="-684.636" cy="504.314" rx="3.511" ry="4.976"/>
      <ellipse cx="-653.363" cy="504.314" rx="3.511" ry="4.976"/>
    </g>
  </symbol>
  <symbol id="cloud-unsure" viewBox="-719 451 100 100">
    <g>
      <path d="M-630.118,494.432c-1.066-16.558-14.875-29.7-31.695-29.7c-6.074,0-11.979,1.721-17.077,4.978
		c-3.596,2.297-6.677,5.278-9.077,8.759c-1.667-0.528-3.415-0.799-5.199-0.799c-9.5,0-17.23,7.729-17.23,17.23
		c0,0.424,0.016,0.847,0.047,1.269c-5.406,4.346-8.651,10.979-8.651,18.011c0,12.731,10.358,22.82,23.091,22.82h53.821
		c12.731,0,23.088-10.089,23.088-22.82C-619,506.022-623.274,498.577-630.118,494.432z M-642.088,533h-53.821
		c-10.09,0-18.272-8.731-18.272-18.82c0-6.747,3.662-12.638,9.102-15.8c-0.321-1.104-0.497-2.273-0.497-3.48
		c0-6.855,5.557-12.412,12.411-12.412c2.645,0,5.094,0.829,7.107,2.242c4.37-8.987,13.583-15.18,24.245-15.18
		c14.881,0,26.942,12.064,26.942,26.945c0,0.299-0.013,0.593-0.022,0.889c6.511,2.792,11.074,9.261,11.074,16.796
		C-623.819,524.269-631.999,533-642.088,533z"/>
      <path d="M-655.904,514.874c-7.962-2.576-18.711,0.353-24.471,6.666c-0.668,0.732-0.616,1.867,0.116,2.534
		c0.344,0.314,0.776,0.469,1.208,0.469c0.487,0,0.972-0.197,1.326-0.584c4.807-5.267,14.101-7.811,20.717-5.671
		c0.942,0.305,1.954-0.212,2.258-1.154C-654.444,516.189-654.961,515.178-655.904,514.874z"/>
      <ellipse cx="-684.636" cy="504.314" rx="3.511" ry="4.976"/>
      <ellipse cx="-653.362" cy="504.314" rx="3.511" ry="4.976"/>
    </g>
  </symbol>
  <symbol id="cloud-wink" viewBox="-719 451 100 100">
    <g>
      <path d="M-630.118,494.433c-1.066-16.557-14.875-29.701-31.695-29.701c-6.074,0-11.979,1.721-17.077,4.978
		c-3.596,2.297-6.677,5.278-9.078,8.759c-1.666-0.528-3.414-0.799-5.197-0.799c-9.501,0-17.23,7.729-17.23,17.23
		c0,0.424,0.016,0.847,0.047,1.271c-5.404,4.345-8.651,10.979-8.651,18.01c0,12.731,10.358,22.82,23.091,22.82h53.82
		c12.731,0,23.089-10.089,23.089-22.82C-619,506.022-623.274,498.577-630.118,494.433z M-642.089,533h-53.82
		c-10.091,0-18.273-8.731-18.273-18.82c0-6.747,3.663-12.637,9.102-15.8c-0.322-1.104-0.498-2.272-0.498-3.48
		c0-6.855,5.557-12.412,12.411-12.412c2.645,0,5.094,0.829,7.107,2.242c4.369-8.987,13.583-15.18,24.245-15.18
		c14.88,0,26.942,12.064,26.942,26.945c0,0.299-0.013,0.593-0.022,0.889c6.511,2.793,11.074,9.261,11.074,16.796
		C-623.819,524.269-632,533-642.089,533z"/>
      <path d="M-660.336,514.666c-2.114,2.125-5.271,3.343-8.663,3.343c-3.391,0-6.549-1.218-8.663-3.343
		c-0.707-0.71-1.855-0.712-2.564-0.007c-0.71,0.708-0.713,1.857-0.008,2.564c2.791,2.805,6.886,4.413,11.235,4.413
		c4.351,0,8.444-1.608,11.232-4.413c0.708-0.71,0.704-1.856-0.005-2.564C-658.481,513.954-659.629,513.956-660.336,514.666z"/>
      <path d="M-651.915,503h-8.35c-0.991,0-1.794,0.511-1.794,1.501c0,0.991,0.803,1.499,1.794,1.499h8.35
		c0.99,0,1.794-0.508,1.794-1.499C-650.121,503.511-650.925,503-651.915,503z"/>
      <ellipse cx="-684.636" cy="504.314" rx="3.512" ry="4.976"/>
    </g>
  </symbol>
  <symbol id="collaborate-outline" viewBox="0 0 100 100">
    <path d="M89.884 25.48c-6.55-6.55-15.257-10.155-24.52-10.155-3.04 0-6.012.426-8.877 1.18 2.302 1.504 4.463 3.24 6.453 5.23.736.736 1.436 1.502 2.11 2.287.106 0 .21-.015.316-.015 6.943 0 13.47 2.704 18.38 7.613 10.134 10.134 10.134 26.625 0 36.76-3.566 3.566-7.99 5.95-12.8 6.997-.202.044-.403.098-.605.137-.68.13-1.364.227-2.06.304-.254.028-.51.05-.77.07-.54.044-1.084.07-1.632.08-.294.005-.588.01-.88.006-.566-.008-1.128-.04-1.686-.082-.396-.032-.79-.073-1.185-.123-.243-.03-.484-.07-.726-.11-.94-.148-1.87-.335-2.787-.58l-.013-.005c.2-.19.405-.367.6-.562 13.52-13.52 13.52-35.518 0-49.038-6.55-6.55-15.257-10.155-24.52-10.155s-17.97 3.61-24.52 10.157C3.608 32.03 0 40.737 0 50c0 6.373 1.745 12.463 4.943 17.788L1.78 81.674c-.166.732.49 1.387 1.22 1.22l13.887-3.162c5.325 3.198 11.416 4.943 17.788 4.943 3.144 0 6.214-.448 9.168-1.254-2.41-1.54-4.665-3.34-6.737-5.41-.658-.66-1.287-1.34-1.895-2.04-.18.004-.35.026-.53.026-6.944 0-13.47-2.704-18.38-7.614-4.91-4.91-7.614-11.435-7.614-18.38S11.39 36.53 16.3 31.62c4.91-4.91 11.436-7.61 18.38-7.61 2.32 0 4.587.33 6.77.913-.2.19-.406.367-.6.56C34.298 32.03 30.69 40.74 30.69 50c0 4.128.755 8.132 2.13 11.898l-.03.01c.058.156.136.3.195.454.3.785.633 1.554.99 2.315.164.353.323.71.5 1.056.36.706.758 1.39 1.167 2.072.22.366.425.74.658 1.097.436.667.916 1.308 1.4 1.948.244.323.467.66.724.975.757.93 1.56 1.833 2.42 2.694 6.55 6.55 15.257 10.152 24.52 10.152.142 0 .282-.02.425-.02.83-.01 1.663-.054 2.5-.123.33-.027.653-.057.98-.094.904-.102 1.81-.227 2.707-.4.276-.054.546-.126.82-.186.465-.1.932-.194 1.395-.316l-.008-.03c3.156-.825 6.163-2.093 8.962-3.774l13.885 3.16c.733.168 1.388-.487 1.22-1.22l-3.164-13.9c7.96-13.314 6.25-30.84-5.205-42.292zm-42.9 6.14c.952-.95 1.984-1.783 3.048-2.56 1.057.777 2.078 1.614 3.023 2.56 10.134 10.134 10.134 26.625 0 36.76-.95.95-1.982 1.783-3.047 2.56-.265-.195-.534-.382-.792-.588-.196-.155-.39-.315-.582-.476-.565-.477-1.12-.968-1.65-1.496-.644-.645-1.245-1.32-1.812-2.017-.2-.247-.375-.51-.566-.762-.352-.462-.704-.93-1.022-1.42-.187-.28-.35-.58-.525-.87-.297-.49-.586-.98-.84-1.49-.15-.28-.276-.57-.41-.854-.254-.547-.496-1.1-.71-1.666-1.12-2.93-1.73-6.064-1.73-9.296 0-6.943 2.703-13.47 7.612-18.38z"/>
  </symbol>
  <symbol id="collaborate-solid" viewBox="0 0 100 100">
    <path d="M89.88 25.47c-6.552-6.55-15.263-10.16-24.53-10.16-5.418 0-10.63 1.267-15.35 3.602-4.72-2.335-9.933-3.602-15.352-3.602-9.266 0-17.976 3.608-24.53 10.16C-1.34 36.93-3.05 54.46 4.91 67.78L1.74 81.686c-.166.732.49 1.388 1.222 1.22l13.892-3.162c5.327 3.2 11.42 4.945 17.794 4.945 5.42 0 10.633-1.27 15.352-3.608 4.718 2.335 9.932 3.603 15.35 3.603 6.376 0 12.47-1.746 17.797-4.946l13.892 3.163c.73.167 1.383-.49 1.22-1.22L95.09 67.78c7.96-13.32 6.247-30.85-5.213-42.31zM45.96 73.5c-.51.517-1.182.775-1.853.775-.662 0-1.323-.25-1.83-.752l-.227-.223c-12.848-12.847-12.848-33.753 0-46.6 1.018-1.02 2.667-1.02 3.685 0 1.018 1.016 1.018 2.667 0 3.684C34.92 41.2 34.92 58.8 45.735 69.616l.203.2c1.023 1.012 1.034 2.66.022 3.685zm37.78-5.113c-4.913 4.912-11.443 7.617-18.39 7.617-2.327 0-4.6-.33-6.788-.918.2-.192.418-.36.615-.558 13.526-13.525 13.526-35.532 0-49.058-.197-.197-.413-.365-.613-.556 2.188-.588 4.46-.918 6.787-.918 6.95 0 13.48 2.705 18.39 7.616 10.14 10.14 10.14 26.636 0 36.775z"/>
  </symbol>
  <symbol id="core" viewBox="0 0 100 100">
    <path d="M89.477 50c.078-.117.17-.232.247-.35 6.085-9.34 7.35-18.095 3.567-24.65-3.46-6-10.78-9.304-20.61-9.304-.955 0-1.933.042-2.92.104C64.878 6.033 57.885 0 49.99 0S35.104 6.033 30.23 15.8c-.99-.062-1.97-.104-2.922-.104C17.478 15.696 10.156 19 6.69 25c-3.943 6.832-2.22 15.9 3.79 25-6.012 9.1-7.734 18.168-3.79 25 3.465 6 10.786 9.304 20.617 9.304.955 0 1.933-.042 2.92-.104C35.1 93.967 42.097 100 49.99 100s14.887-6.033 19.762-15.8c.988.062 1.968.104 2.92.104 9.83 0 17.152-3.304 20.616-9.304 3.786-6.555 2.518-15.31-3.567-24.65-.07-.118-.162-.232-.24-.35zM72.675 21.748c7.576 0 13.036 2.23 15.374 6.28 2.37 4.106 1.46 10.172-2.47 16.817-2.82-3.353-6.138-6.604-9.87-9.656-.78-4.85-1.94-9.366-3.41-13.436.12-.002.25-.01.37-.01zM60.402 68.036c-3.424 1.977-6.924 3.692-10.413 5.13-3.49-1.436-6.99-3.152-10.418-5.13-3.538-2.042-6.765-4.208-9.674-6.437-.477-3.64-.737-7.518-.737-11.6s.26-7.967.738-11.6c2.91-2.23 6.138-4.398 9.676-6.44C43 29.985 46.5 28.27 49.99 26.83c3.49 1.438 6.99 3.154 10.414 5.13 3.456 1.997 6.686 4.187 9.682 6.495.473 3.62.73 7.477.73 11.543s-.258 7.923-.73 11.542c-2.996 2.308-6.225 4.498-9.682 6.493zm8.06 2.102c-.69 2.735-1.512 5.27-2.438 7.59-2.512-.37-5.11-.935-7.76-1.685 1.735-.863 3.46-1.782 5.165-2.765 1.73-1 3.393-2.057 5.03-3.14zm-26.746 5.905c-2.65.75-5.25 1.315-7.76 1.685-.923-2.314-1.744-4.84-2.432-7.565 1.618 1.07 3.29 2.112 5.025 3.114 1.7.984 3.43 1.903 5.162 2.766zM23.296 55.91c-2.025-1.964-3.808-3.946-5.355-5.91 1.55-1.963 3.33-3.943 5.36-5.91-.12 1.938-.185 3.907-.185 5.91s.068 3.974.186 5.91zm8.23-26.073c.687-2.725 1.506-5.25 2.43-7.565 2.512.37 5.11.934 7.76 1.685-1.735.863-3.46 1.782-5.165 2.766-1.732 1.002-3.403 2.044-5.02 3.114zm26.736-5.88c2.65-.75 5.25-1.315 7.76-1.685.927 2.322 1.75 4.854 2.438 7.59-1.634-1.083-3.3-2.14-5.032-3.14-1.705-.983-3.43-1.9-5.166-2.765zm18.426 20.2c1.955 1.903 3.73 3.858 5.3 5.843-1.57 1.986-3.345 3.94-5.3 5.843.115-1.914.18-3.862.18-5.843s-.066-3.928-.18-5.843zm-26.7-38.103c4.674 0 9.5 3.818 13.328 10.537-4.31.777-8.804 2.04-13.328 3.75-4.523-1.71-9.017-2.973-13.327-3.745C40.49 9.875 45.32 6.06 49.99 6.06zM11.93 28.027c2.34-4.05 7.8-6.28 15.375-6.28.124 0 .252.008.376.01-1.47 4.06-2.623 8.563-3.404 13.395-3.797 3.094-7.12 6.347-9.9 9.652-3.888-6.662-4.775-12.737-2.443-16.777zm15.376 50.225c-7.577 0-13.036-2.23-15.374-6.28-2.333-4.04-1.445-10.114 2.443-16.777 2.78 3.305 6.105 6.558 9.9 9.652.78 4.833 1.936 9.335 3.407 13.395-.124.002-.252.01-.376.01zM49.99 93.947c-4.674 0-9.5-3.818-13.328-10.537 4.31-.773 8.804-2.036 13.327-3.747 4.52 1.71 9.012 2.975 13.323 3.747-3.83 6.72-8.654 10.537-13.328 10.537zm38.058-21.973c-2.338 4.05-7.798 6.28-15.374 6.28-.124 0-.252-.008-.376-.01 1.475-4.07 2.63-8.585 3.412-13.43 3.736-3.053 7.05-6.303 9.87-9.657 3.93 6.644 4.84 12.71 2.468 16.817z"/>
    <circle cx="49.989" cy="50" r="9.498"/>
  </symbol>
  <symbol id="devices-outline" viewBox="0 0 100 100">
    <path d="M0 91.828C0 94.292 1.997 96 4.46 96h79.027c2.463 0 4.46-1.708 4.46-4.172V87H0v4.828zM91.922 4H63.546C59.092 4 55 7.335 55 11.79v23.437H15.235C10.068 35.227 6 39.43 6 44.597V83h7.963V44.597c0-.7.57-1.597 1.272-1.597H55v19.275C55 66.73 59.092 70 63.546 70h10.438v13h8.098V70h9.84c4.454 0 8.078-3.27 8.078-7.725V11.79C100 7.335 96.376 4 91.922 4zM64 62.02l-.02-50.21L91 11.79 91.023 62 64 62.02z"/>
    <circle cx="77.734" cy="56.792" r="3.264"/>
  </symbol>
  <symbol id="devices-solid" viewBox="0 0 100 100">
    <path d="M89.528 96H4.783C2.143 96 0 93.9 0 91.257V86h94v5.257C94 93.9 92.17 96 89.528 96zM68.145 67c-3.978 0-7.215-3.456-7.215-7.435V35H14.406C11.254 35 9 37.457 9 40.608V81h77V67H68.145z"/>
    <path d="M98.573 4H68c-.786 0-1.426.64-1.426 1.427v54.14c0 .785.64 1.425 1.426 1.425h30.573c.787 0 1.427-.64 1.427-1.426V5.426C100 4.64 99.36 4 98.573 4zM83.36 55.254c-1.933 0-3.5-1.567-3.5-3.5s1.567-3.5 3.5-3.5 3.5 1.567 3.5 3.5-1.567 3.5-3.5 3.5z"/>
  </symbol>
  <symbol id="dotnet" viewBox="0 0 38 16">
    <path d="M1.26782609,12.9897143 C1.58086957,12.9897143 1.88173913,13.1217143 2.17217391,13.3874286 C2.46086957,13.6531429 2.60695652,13.9548571 2.60695652,14.2925714 C2.60695652,14.6542857 2.48695652,14.956 2.24521739,15.196 C2.00347826,15.4394286 1.69043478,15.5577143 1.3026087,15.5577143 C0.506086957,15.5577143 0.0730434783,15.1377143 0,14.2925714 C0,13.9548571 0.12173913,13.6531429 0.36173913,13.3874286 C0.603478261,13.1217143 0.904347826,12.9897143 1.26782609,12.9897143 L1.26782609,12.9897143 Z M11.6173913,3.328 C14.6904348,3.328 16.1895652,4.936 16.1165217,8.15542857 L16.1165217,15.3417143 L14.0608696,15.3417143 L14.0608696,8.61142857 C14.0608696,6.10171429 13.1478261,4.83485714 11.3252174,4.81085714 C10.3252174,4.81085714 9.51130435,5.16057143 8.87826087,5.86 C8.24695652,6.56114286 7.93043478,7.47657143 7.93043478,8.61142857 L7.93043478,15.3417143 L5.87478261,15.3417143 L5.87478261,3.61771429 L7.93043478,3.61771429 L7.93043478,5.50857143 L8.00347826,5.50857143 C8.9026087,4.05485714 10.1078261,3.328 11.6173913,3.328 L11.6173913,3.328 Z M19.053913,9.58514286 C19.053913,7.70628571 19.5721739,6.17542857 20.6104348,4.99257143 C21.6486957,3.81142857 22.9652174,3.22 24.5582609,3.22 C26.1513043,3.22 27.3565217,3.73771429 28.173913,4.77485714 C29.0695652,5.764 29.5165217,7.144 29.5165217,8.91142857 L29.5165217,9.87657143 L20.9478261,9.87657143 C21.1426087,12.724 22.4452174,14.1228571 24.8591304,14.0748571 C26.2608696,14.0748571 27.5165217,13.6137143 28.6243478,12.6914286 L28.6243478,14.4828571 C27.5565217,15.2491429 26.1756522,15.6314286 24.4852174,15.6314286 C22.7965217,15.6314286 21.4556522,15.0931429 20.466087,14.0182857 C19.5234783,12.9434286 19.053913,11.4657143 19.053913,9.58514286 L19.053913,9.58514286 Z M27.4608696,8.39371429 C27.4608696,7.29485714 27.1930435,6.42571429 26.6556522,5.78971429 C26.1182609,5.15542857 25.4,4.83657143 24.4956522,4.83657143 C23.5930435,4.83657143 22.826087,5.15542857 22.1913043,5.78971429 C21.5565217,6.42571429 21.1669565,7.29485714 21.0208696,8.39371429 L27.4608696,8.39371429 L27.4608696,8.39371429 Z M35.0591304,11.8497143 C35.0591304,13.3342857 35.626087,14.0748571 36.7582609,14.0748571 C37.1826087,14.0748571 37.5826087,13.9462857 37.9617391,13.6874286 L37.9617391,15.2045714 C37.5686957,15.4411429 36.9686957,15.5577143 36.1617391,15.5577143 C34.0556522,15.5577143 33.0034783,14.4245714 33.0034783,12.1565714 L33.0034783,5.10057143 L31.0956522,5.10057143 L31.0956522,3.61771429 L33.0034783,3.61771429 L33.0034783,0.758285714 L35.0591304,0.142857143 L35.0591304,3.61771429 L37.9617391,3.61771429 L37.9617391,5.10057143 L35.0591304,5.10057143 L35.0591304,11.8497143 L35.0591304,11.8497143 Z"/>
  </symbol>
  <symbol id="down-outline" viewBox="0 0 100 100">
    <path d="M50 100C22.43 100 0 77.57 0 50S22.43 0 50 0s50 22.43 50 50-22.43 50-50 50zm0-91.903C26.894 8.097 8.097 26.894 8.097 50S26.894 91.903 50 91.903 91.903 73.106 91.903 50 73.106 8.097 50 8.097z"/>
    <path d="M55 57.266V26H44v31.268l-6.08-6.413-8.016 8.014L50 78.96l20.094-20.09-8.016-8.016"/>
  </symbol>
  <symbol id="down-solid" viewBox="0 0 100 100">
    <path d="M50 0C22.386 0 0 22.386 0 50s22.386 50 50 50 50-22.386 50-50S77.614 0 50 0zm0 81.516L28.134 59.65l8.722-8.72 6.977 6.976v-34.03h12.334v34.03l6.978-6.977 8.72 8.72L50 81.513z"/>
  </symbol>
  <symbol id="download" viewBox="0 0 100 100">
    <path d="M27.946 57.582L50 79.635 72.054 57.58l-8.797-8.795L56 55.822V0H43v55.822l-6.257-7.038"/>
    <path d="M66.208 13v9H84v69H15V22h18v-9H6v87h87V13"/>
  </symbol>
  <symbol id="edit-outline" viewBox="0 0 100 100">
    <path d="M98.097 27.367c-2.537-2.537-6.65-2.537-9.188 0l-1.55 1.548 9.19 9.187 1.543-1.548c2.537-2.536 2.537-6.65 0-9.187zm-14.817 5.63L70 46.62V4H0v81.718C0 91.222 4.477 96 9.98 96h49.695C65.18 96 70 91.222 70 85.718V64.995l22.466-22.81-9.187-9.187zM62 85.717C62 86.977 60.93 88 59.675 88H9.98C8.725 88 8 86.974 8 85.718V12h54v42.323l-13.047 13.35.047.046v9.09h8.744l.047.045 4.21-4.16v13.02z"/>
    <path d="M17 22.14h35v5.775H17zM17 39h35v5.774H17zm0 16h35v5.774H17zm0 16.04h24.93v5.775H17z"/>
  </symbol>
  <symbol id="edit-solid" viewBox="0 0 100 100">
    <path d="M96.41 32.815l1.61-1.61c2.64-2.64 2.64-6.917 0-9.555-2.638-2.64-6.916-2.64-9.554 0l-1.61 1.61 9.555 9.555zm-13.8-5.31L47 63.62V72h9.1l36.064-34.938"/>
    <path d="M59.5 76.524l-1.42 1.418-2.005-.01-9.506-.05-3.14-.015v.022H14v-6.01h27.787V61H14v-6.07h34.47L64 38.923V6H0v81.15c0 3.52 2.854 6.374 6.375 6.374H58.06c3.52 0 5.94-2.854 5.94-6.375V71.59l-4.5 4.934zM14 21.024h36.228v6.006H14v-6.005zm0 16.954h36.228v6.005H14v-6.005z"/>
  </symbol>
  <symbol id="ellipses" viewBox="-719 451 100 100">
    <g>
      <circle cx="-669" cy="501" r="9.903"/>
      <circle cx="-709.097" cy="501" r="9.903"/>
      <circle cx="-628.903" cy="501" r="9.903"/>
    </g>
  </symbol>
  <symbol id="facebook" viewBox="0 0 100 100">
    <path d="M94.6,0.1h-89C2.6,0.1,0,2.5,0,5.5v89c0,3,2.6,5.4,5.6,5.4h47.9V61.3H40.4V46.1h13.1V35
	c0-12.8,7.8-20,19.4-20c5.6,0,10.3,0.4,11.6,0.7v13.4h-8c-6.1,0-7.4,3-7.4,7.4v9.6h15l-2,15.1H69v38.7h25.5c3,0,5.4-2.4,5.4-5.4v-89
	C100,2.5,97.6,0.1,94.6,0.1z"/>
  </symbol>
  <symbol id="files-outline" viewBox="0 0 100 100">
    <path d="M75 15.007V0H10v79.12c0 3.24 2.938 5.874 6.178 5.874H25v9.132c0 3.24 2.348 5.874 5.588 5.874h53.235c3.24 0 6.177-2.635 6.177-5.874v-79.12H75zM18 7.97h49v69.055H18V7.97zm64 84.06H33v-7.036h36.413c3.24 0 5.587-2.635 5.587-5.875V22.97h7V92.03z"/>
    <path d="M26.127 17H59v6H26.127zM26 31h33v6H26zm0 15h33v6H26zm0 15h33v6H26z"/>
  </symbol>
  <symbol id="files-solid" viewBox="0 0 100 100">
    <path d="M75 13v67.98c0 3.153-1.793 6.02-4.944 6.02H24.228v8.118c0 2.696 2.186 4.882 4.882 4.882h54.41c2.697 0 4.48-2.186 4.48-4.882V13H75z"/>
    <path d="M11 0v79h58V0H11zm47.034 67H23v-6h35.034v6zm0-17H23v-6h35.034v6zm0-16H23v-6.213h35.034V34zm0-17H23v-6.098h35.034V17z"/>
  </symbol>
  <symbol id="filter-outline" viewBox="0 0 100 100">
    <path d="M100 16.824c0-14.638-44.883-15.06-50-15.06s-50 .42-50 15.06c0 1.464.467 2.78 1.28 3.975l-.092.07L32 61.86v26.314l.048.625c.13.385 3.325 9.435 17.952 9.435 14.722 0 17.646-9.163 17.763-9.553l.172-.57v-26.25L97.76 21.977c1.41-1.487 2.24-3.188 2.24-5.153zM50 9.86c23.405 0 38.397 4.195 41.528 6.928l-.118.158C88.067 19.68 73.162 23.788 50 23.788c-23.503 0-38.53-4.232-41.575-6.965C11.47 14.09 26.498 9.86 50 9.86zm10 49.31v27.44c-.655 1.01-3.14 3.53-10 3.53-6.967 0-9.4-2.607-10.064-3.56V59.17L17.14 28.685c13.265 3.052 29.866 3.202 32.86 3.202 2.974 0 19.37-.15 32.588-3.14L60 59.17z"/>
  </symbol>
  <symbol id="filter-solid" viewBox="0 0 100 100">
    <path d="M98.546 10.32c.888-.597.887-1.878 0-2.476C93.636 4.537 76.396 0 50 0S6.364 4.537 1.454 7.844c-.888.598-.888 1.88 0 2.477 4.91 3.31 22.148 7.85 48.546 7.85s43.637-4.537 48.546-7.844zM50 25.73c-12.69 0-30.602-1.24-43.042-5.008L37.52 61.595v33.987C38.342 96.766 41.36 100 50 100c8.508 0 11.388-3.128 12.2-4.38V61.595l30.483-40.77C80.26 24.513 62.57 25.73 50 25.73z"/>
  </symbol>
  <symbol id="folder-outline" viewBox="0 0 100 100">
    <path d="M59.76 9l-9.393 9H0v61.967C0 86.265 5.125 91 11.423 91H100V9H59.76zM90 83H11.423C9.86 83 9 81.53 9 79.967V27h41.417l9.515 9H90v47zM63.39 27.146l-5.108-4.91L63.318 17H90v10.146H63.39z"/>
  </symbol>
  <symbol id="folder-solid" viewBox="0 0 100 100">
    <path d="M100 90H3.42C1.536 90 0 88.465 0 86.58V22.13h50.503L61.99 33.174H100V90zM66.168 22.8L60 16.873 66.08 11H100v11.8H66.168z"/>
  </symbol>
  <symbol id="gear-outline" viewBox="0 0 100 100">
    <path d="M50.85 32.81c-9.43 0-17.103 7.693-17.103 17.148S41.42 67.106 50.85 67.106s17.1-7.693 17.1-17.148-7.67-17.147-17.1-17.147zm0 26.07c-4.907 0-8.9-4.002-8.9-8.922 0-4.92 3.993-8.922 8.9-8.922s8.897 4.003 8.897 8.922c0 4.92-3.992 8.923-8.898 8.923z"/>
    <path d="M99.96 59.813v-19.71l-10.63-.922c-.88-3.17-2.138-6.193-3.767-9.05l7.228-8.554L78.89 7.64l-8.62 7.32c-2.82-1.58-6.15-2.8-9.27-3.646V-.04H40v11.5c-3.04.872-6.15 2.104-8.903 3.68l-8.833-7.503-13.9 13.937 7.556 8.943c-1.517 2.73-2.7 5.613-3.538 8.62l-12.422.968v19.71l12.423.97c.837 3.005 2.02 5.888 3.538 8.618L8.37 78.35l13.9 13.936 8.83-7.506c2.75 1.576 5.862 2.807 8.902 3.68v11.5h21V88.605c3.12-.847 6.45-2.065 9.27-3.644l8.62 7.32 13.9-13.934-7.228-8.555c1.63-2.857 2.888-5.885 3.766-9.055l10.632-.922zM82.592 53.04l-.594 3.055c-.824 4.23-2.47 8.184-4.89 11.75l-1.756 2.587 6.296 7.453-3.218 3.227-7.467-6.342-2.568 1.712c-3.544 2.362-7.464 3.96-11.65 4.747l-3.072.573-.82 9.926H48.3l-.823-9.974-3.014-.618c-4.104-.84-7.95-2.47-11.43-4.84l-2.58-1.76-7.73 6.566-3.218-3.227 6.577-7.786-1.704-2.573c-2.3-3.473-3.872-7.304-4.672-11.386l-.598-3.05-10.196-.844V47.67l10.198-.847.598-3.05c.8-4.08 2.37-7.91 4.672-11.39l1.703-2.573-6.577-7.784 3.22-3.226 7.73 6.565 2.577-1.758c3.482-2.373 7.327-4 11.43-4.84l3.015-.617.822-9.973h4.552l.82 9.925 3.073.577c4.186.787 8.104 2.385 11.648 4.746l2.568 1.715 7.47-6.342 3.22 3.228-6.295 7.455 1.757 2.587c2.42 3.568 4.067 7.52 4.89 11.75l.594 3.056 9.65.8v4.565l-9.648.8z"/>
  </symbol>
  <symbol id="gear-solid" viewBox="0 0 100 100">
    <path d="M100 56.613V43.387l-11.274-.933c-1.03-5.278-3.117-10.178-6.037-14.467l7.34-8.668-9.35-9.35-8.737 7.395c-4.277-2.843-9.145-4.862-14.38-5.845L56.613 0H43.386l-.962 11.63c-5.143 1.05-9.917 3.108-14.11 5.958l-8.995-7.62-9.35 9.352 7.675 9.062c-2.774 4.18-4.765 8.923-5.767 14.023L0 43.387v13.225l11.878.983c1.003 5.1 2.994 9.842 5.767 14.022L9.97 80.68l9.35 9.35 8.995-7.618c4.193 2.85 8.968 4.91 14.11 5.958l.962 11.63h13.225l.954-11.522c5.235-.983 10.103-3.003 14.38-5.845l8.734 7.4 9.352-9.352-7.343-8.664c2.92-4.29 5.002-9.188 6.033-14.466L100 56.612zm-49.703 7.59c-7.844 0-14.203-6.36-14.203-14.203 0-7.844 6.36-14.203 14.203-14.203S64.5 42.157 64.5 50c0 7.844-6.36 14.203-14.203 14.203z"/>
  </symbol>
  <symbol id="gears" viewBox="0 0 100 100">
    <path d="M33.6,76.6c-5.6,0-10.1-4.5-10.1-10.1s4.5-10.1,10.1-10.1s10.1,4.5,10.1,10.1S39.2,76.6,33.6,76.6z M63.4,62.9l-5.9-1.5
	c-0.1-0.8-0.4-1.6-0.7-2.5l4.4-4.2c1.4-1.5,2.3-3.3,1.2-4.9c-1-1.6-2.9-1.8-4.8-1.2L51.8,50c-0.5-0.5-1.2-1.1-1.8-1.8l1.6-5.9
	c0.4-1.9,0.3-3.8-1.4-4.8c-1.6-1-3.4-0.1-4.8,1.2l-4.4,4.4c-0.8-0.3-1.6-0.5-2.5-0.7l-1.5-5.9c-0.7-1.9-1.6-3.6-3.6-3.6
	c-1.9,0-3,1.6-3.6,3.6l-1.5,5.9c-1,0.1-1.6,0.4-2.5,0.7l-4.4-4.4c-1.5-1.4-3.2-2.2-4.8-1.2c-1.8,1-1.8,2.9-1.4,4.8l1.6,5.9
	c-0.7,0.7-1.2,1.2-1.8,1.8l-5.9-1.5c-2.1-0.5-4-0.4-4.9,1.2c-1,1.6,0,3.4,1.4,4.9l4.4,4.2c-0.3,0.8-0.5,1.6-0.7,2.5l-5.9,1.5
	c-2.1,0.7-3.6,1.6-3.6,3.6c0,2.1,1.6,3,3.6,3.6l5.9,1.6c0.1,0.8,0.4,1.6,0.7,2.3l-4.4,4.4c-1.4,1.5-2.3,3.2-1.4,4.8
	c1,1.8,3,1.8,4.9,1.4l5.9-1.6c0.5,0.7,1.1,1.2,1.8,1.8l-1.6,5.9c-0.4,2.1-0.4,4,1.4,4.9c1.6,1,3.4,0,4.8-1.4l4.4-4.2
	c0.7,0.1,1.5,0.4,2.5,0.5l1.5,6c0.5,1.9,1.6,3.6,3.6,3.6c1.9,0,3-1.8,3.6-3.6l1.5-6c0.8-0.1,1.6-0.4,2.5-0.5l4.4,4.2
	c1.4,1.5,3.2,2.3,4.8,1.4c1.6-1,1.8-3,1.4-4.9L50,84.7c0.5-0.5,1.2-1.1,1.8-1.8l5.9,1.6c2.1,0.4,3.8,0.4,4.8-1.4
	c1.1-1.6,0.1-3.4-1.2-4.8L56.8,74c0.3-0.7,0.5-1.5,0.7-2.3l5.9-1.6c1.9-0.5,3.6-1.5,3.6-3.6C67,64.5,65.3,63.4,63.4,62.9z
	 M74.4,32.6c-3.8,0-7-3.2-7-7s3.2-7,7-7s7,3.2,7,7S78.2,32.6,74.4,32.6z M96.3,22.1l-5.8-1.5c-0.3-1-0.7-1.9-1.2-2.7l3.2-5.2
	c1-1.9,1.4-3.7,0-5.1c-1.5-1.4-3.4-1-5.1,0l-5.3,3c-0.8-0.4-1.8-0.7-2.6-1.1l-1.6-5.9C77.3,1.6,76.2,0,74.2,0s-3,1.6-3.6,3.6l-1.5,6
	c-1,0.3-1.8,0.7-2.6,1.1l-5.5-3.2c-1.8-1-3.6-1.4-4.9,0c-1.4,1.4-1,3.3,0,5.1l3.2,5.5c-0.3,0.8-0.7,1.5-1,2.3l-6.2,1.6
	c-1.9,0.7-3.6,1.6-3.6,3.6c0,2.1,1.6,3,3.6,3.6l6.2,1.6c0.3,0.8,0.7,1.6,1,2.5l-3.2,5.5c-1,1.8-1.4,3.7,0,5.1c1.4,1.4,3.3,1,4.9,0
	l5.5-3.3c0.8,0.5,1.6,0.8,2.6,1.1l1.5,6.2c0.7,1.9,1.6,3.6,3.6,3.6s3-1.8,3.6-3.6l1.6-6c0.8-0.3,1.8-0.7,2.6-1.1l5.3,3.2
	c1.8,1,3.6,1.4,5.1,0c1.4-1.4,0.8-3.4,0-5.1l-3.2-5.2c0.5-1,1-1.8,1.2-2.9l5.8-1.5c2.1-0.5,3.6-1.5,3.6-3.6
	C99.9,23.7,98.2,22.6,96.3,22.1z"/>
  </symbol>
  <symbol id="github" viewBox="0 0 100 100">
    <path d="M40.5,2.6C17.9,6.9,1.1,25.6,0.1,48.6c-0.9,18.4,6.8,33,21.9,43.6c3.6,2.6,7.7,4.5,11.9,5.9
	c1.9,0.6,3.6-0.3,3.6-1.9c0.1-3.2,0-6.4,0-9.4c-2.3,0.1-4.5,0.4-6.8,0.3c-4.8-0.3-8.4-2.5-10.3-7.1c-1.2-2.8-2.9-5.2-5.5-6.8
	c-0.6-0.3-0.9-0.6-1.3-1c-0.6-0.7-0.4-1.3,0.4-1.4c0.7-0.3,1.7-0.3,2.5-0.1c3,0.6,5.2,2.6,6.8,5.2c3.3,5.5,8.5,6.1,13.8,4.1
	c0.3,0,0.6-0.4,0.7-0.7c0.4-2.2,1.3-4.2,2.9-5.9c-2.2-0.4-4.2-0.7-6.2-1.3c-7.1-1.9-12.5-5.8-14.8-13c-0.6-1.7-1-3.6-1.3-5.4
	c-0.9-6.5,0-12.6,4.3-17.8c0.3-0.1,0.4-0.7,0.3-1.2c-1.2-3.5-1-7,0-10.4c0.7-2.2,0.9-2.3,3.2-2c3.9,0.7,7.2,2.6,10.6,4.6
	c0.4,0.3,1,0.4,1.6,0.3c7.7-1.9,15.5-1.9,23.3,0c0.4,0.1,1.2-0.1,1.6-0.3c1.9-1,3.5-2,5.2-2.9c2.2-1,4.3-1.7,6.8-1.7
	c0.6-0.1,1,0.1,1.3,0.9c1.3,3.8,1.6,7.7,0.4,11.4c-0.3,0.7,0,1.2,0.4,1.6c1.7,2.2,3.2,4.6,3.8,7.4c1.4,6.4,0.7,12.5-2,18.4
	c-2.8,5.6-7.8,8.7-13.8,10.1c-1.9,0.4-3.9,0.7-6.2,1.2c2.8,2.9,3.3,6.4,3.3,10.1c-0.1,3.9-0.1,8-0.1,12c0,2.6,1.4,3.6,3.9,2.8
	c24.3-8,38.7-34.3,32.2-59.1C91.6,13.4,66.4-2.5,40.5,2.6z M36.1,81.1l-1,1.2c0.3,0.1,0.7,0.6,0.9,0.6c0.4-0.1,0.9-0.6,1.2-0.9
	C36.9,81.8,36.6,81.5,36.1,81.1z M36.1,81.1l-1,1.2c0.3,0.1,0.7,0.6,0.9,0.6c0.4-0.1,0.9-0.6,1.2-0.9C36.9,81.8,36.6,81.5,36.1,81.1
	z M32.2,81.5c-0.3,0.6-0.6,0.9-0.9,1.2c0.3,0.1,0.6,0.6,0.9,0.6c0.4,0,0.7-0.4,1.2-0.7C33.1,82.2,32.8,82,32.2,81.5z M32.2,81.5
	c-0.3,0.6-0.6,0.9-0.9,1.2c0.3,0.1,0.6,0.6,0.9,0.6c0.4,0,0.7-0.4,1.2-0.7C33.1,82.2,32.8,82,32.2,81.5z M28.2,81.2
	c-0.3,0-0.6,0.4-0.9,0.6l1,1.2c0.4-0.4,0.7-0.6,1-0.9C28.9,81.8,28.6,81.4,28.2,81.2z M28.2,81.2c-0.3,0-0.6,0.4-0.9,0.6l1,1.2
	c0.4-0.4,0.7-0.6,1-0.9C28.9,81.8,28.6,81.4,28.2,81.2z M20.1,73.7c-0.1,0.1-0.4,0.4-0.4,0.6c0.3,0.4,0.6,0.6,0.9,1.2
	c0.3-0.4,0.6-0.7,0.6-0.9L20.1,73.7z M20.1,73.7c-0.1,0.1-0.4,0.4-0.4,0.6c0.3,0.4,0.6,0.6,0.9,1.2c0.3-0.4,0.6-0.7,0.6-0.9
	L20.1,73.7z M22.1,76.3c-0.1,0.1-0.6,0.6-0.4,0.6c0.3,0.4,0.6,0.7,1,1l0.7-0.7C22.8,76.9,22.5,76.6,22.1,76.3z M22.1,76.3
	c-0.1,0.1-0.6,0.6-0.4,0.6c0.3,0.4,0.6,0.7,1,1l0.7-0.7C22.8,76.9,22.5,76.6,22.1,76.3z M24.5,79.1L24,79.6c0.3,0.4,0.6,0.9,1,1.6
	l0.7-1C25.4,79.8,25,79.4,24.5,79.1z M24.5,79.1L24,79.6c0.3,0.4,0.6,0.9,1,1.6l0.7-1C25.4,79.8,25,79.4,24.5,79.1z M40.5,2.6
	C17.9,6.9,1.1,25.6,0.1,48.6c-0.9,18.4,6.8,33,21.9,43.6c3.6,2.6,7.7,4.5,11.9,5.9c1.9,0.6,3.6-0.3,3.6-1.9c0.1-3.2,0-6.4,0-9.4
	c-2.3,0.1-4.5,0.4-6.8,0.3c-4.8-0.3-8.4-2.5-10.3-7.1c-1.2-2.8-2.9-5.2-5.5-6.8c-0.6-0.3-0.9-0.6-1.3-1c-0.6-0.7-0.4-1.3,0.4-1.4
	c0.7-0.3,1.7-0.3,2.5-0.1c3,0.6,5.2,2.6,6.8,5.2c3.3,5.5,8.5,6.1,13.8,4.1c0.3,0,0.6-0.4,0.7-0.7c0.4-2.2,1.3-4.2,2.9-5.9
	c-2.2-0.4-4.2-0.7-6.2-1.3c-7.1-1.9-12.5-5.8-14.8-13c-0.6-1.7-1-3.6-1.3-5.4c-0.9-6.5,0-12.6,4.3-17.8c0.3-0.1,0.4-0.7,0.3-1.2
	c-1.2-3.5-1-7,0-10.4c0.7-2.2,0.9-2.3,3.2-2c3.9,0.7,7.2,2.6,10.6,4.6c0.4,0.3,1,0.4,1.6,0.3c7.7-1.9,15.5-1.9,23.3,0
	c0.4,0.1,1.2-0.1,1.6-0.3c1.9-1,3.5-2,5.2-2.9c2.2-1,4.3-1.7,6.8-1.7c0.6-0.1,1,0.1,1.3,0.9c1.3,3.8,1.6,7.7,0.4,11.4
	c-0.3,0.7,0,1.2,0.4,1.6c1.7,2.2,3.2,4.6,3.8,7.4c1.4,6.4,0.7,12.5-2,18.4c-2.8,5.6-7.8,8.7-13.8,10.1c-1.9,0.4-3.9,0.7-6.2,1.2
	c2.8,2.9,3.3,6.4,3.3,10.1c-0.1,3.9-0.1,8-0.1,12c0,2.6,1.4,3.6,3.9,2.8c24.3-8,38.7-34.3,32.2-59.1C91.6,13.4,66.4-2.5,40.5,2.6z"/>
  </symbol>
  <symbol id="google" viewBox="0 0 100 100">
    <path d="M97.9,45.5H52v13.6h32.5C83,78.2,67.1,86.4,52.1,86.4c-19.2,0-35.9-15.1-35.9-36.2c0-20.6,16-36.5,36-36.5
	c15.4,0,24.5,9.8,24.5,9.8l9.5-9.9C86.2,13.6,74,0,51.6,0C23.2,0,1.3,24,1.3,49.9c0,25.4,20.7,50.1,51.1,50.1
	c26.8,0,46.4-18.3,46.4-45.5C98.7,48.8,97.9,45.5,97.9,45.5L97.9,45.5z"/>
  </symbol>
  <symbol id="hamburger" viewBox="-589 591 100 100">
    <path d="M-555.5,646H-579v-11h23.5h13.6h23.5v11H-542"/>
    <path d="M-563.5,668H-579v-11h15.5h9h15.5v11h-15.5"/>
    <path d="M-548.4,624H-579v-11h30.6h17.7h30.6v11h-30.6"/>
  </symbol>
  <symbol id="heroku" viewBox="0 0 100 100">
    <path d="M81,0 L9,0 C4.03,0 0,4.02875 0,9 L0,91 C0,95.97 4.03,100 9,100 L81,100 C85.97,100 90,95.97 90,91 L90,9 C90,4.02875 85.97,0 81,0 L81,0 Z M85,91 C85,93.205 83.20625,95 81,95 L9,95 C6.795,95 5,93.205 5,91 L5,9 C5,6.79375 6.795,5 9,5 L81,5 C83.20625,5 85,6.79375 85,9 L85,91 L85,91 Z"/>
    <path d="M22.5,85 L33.75,75 L22.5,65 L22.5,85"/>
    <path d="M63.14625,44.46875 C61.13125,42.43 57.43125,40 51.25,40 C44.47125,40 37.4925,41.76375 32.5,43.38875 L32.5,15 L22.5,15 L22.5,58.365 L29.56375,55.165 C29.6775,55.11375 41.0825,50 51.25,50 C56.32625,50 57.45125,52.80375 57.5,55.1375 L57.5,85 L67.5,85 L67.5,55 C67.50625,54.36 67.44625,48.81875 63.14625,44.46875"/>
    <path d="M50,31.25 L60,31.25 C64.5225,26.125 66.825,20.67875 67.5,15 L57.5,15 C56.3975,20.6675 53.93,26.09375 50,31.25"/>
  </symbol>
  <symbol id="infinity" viewBox="0 0 100 100">
    <path class="st0" d="M58.29 62.17H33.75c-3.553 0-5.658 2.172-5.658 5.396 0 2.83 1.908 5.434 4.67 5.434 3.16 0 5.04-2.776 5.238-6h7c-.33 7.763-5.066 12-12.303 12-6.776 0-11.776-4.658-11.776-11.5 0-7.105 5.33-11.5 13.225-11.5h24.342c8.224 0 14.474-6.592 14.474-14.75C72.96 33.026 67.37 27 59.41 27c-7.895 0-14.21 6.092-14.21 16.618V51H37.96v-7.382C37.96 29.538 47.04 20 59.54 20c11.973 0 20.657 8.947 20.657 21.118 0 12.237-9.342 21.053-21.908 21.053M50 100c27.96 0 50-22.105 50-50 0-27.83-22.04-50-50-50S0 22.17 0 50c0 27.895 22.04 50 50 50"/>
  </symbol>
  <symbol id="info-outline" viewBox="0 0 100 100">
    <path d="M50 100C22.43 100 0 77.57 0 50S22.43 0 50 0s50 22.43 50 50-22.43 50-50 50zm0-91.903C26.894 8.097 8.097 26.894 8.097 50S26.894 91.903 50 91.903 91.903 73.106 91.903 50 73.106 8.097 50 8.097z"/>
    <path d="M50 43.532c-3.355 0-5.573 2.72-5.573 6.074v28.256h11.145V49.606c0-3.354-2.217-6.074-5.572-6.074z"/>
    <circle cx="50" cy="30.013" r="6.984"/>
  </symbol>
  <symbol id="info-solid" viewBox="0 0 100 100">
    <path d="M50 0C22.386 0 0 22.386 0 50s22.386 50 50 50 50-22.386 50-50S77.614 0 50 0zm6.61 79H43.39V49.572c0-3.65 2.96-6.61 6.61-6.61 3.65 0 6.61 2.96 6.61 6.61V79zM50 35.696c-4.197 0-7.6-3.402-7.6-7.6S45.802 20.5 50 20.5c4.197 0 7.6 3.402 7.6 7.6 0 4.196-3.403 7.598-7.6 7.598z"/>
  </symbol>
  <symbol id="javascript" viewBox="0 0 35 24">
    <path d="M2.9987027,23.5272945 C2.77978378,23.5416945 2.57448649,23.4533745 2.38281081,23.2632945 C2.19113514,23.0741745 2.10259459,22.8572145 2.11621622,22.6124145 L0,6.16089447 L4.17016216,6.16089447 L4.17016216,13.8610545 L5.64908108,12.3394545 L7.06572973,13.7199345 L7.06572973,6.16089447 L34.5055135,6.16089447 L32.3902703,22.6124145 C32.3902703,22.8572145 32.3007568,23.0664945 32.1236757,23.2431345 C31.9446486,23.4197745 31.7393514,23.5148145 31.5068108,23.5272945 L2.9987027,23.5272945 L2.9987027,23.5272945 Z M32.3902703,4.13433447 L2.11621622,4.13433447 L2.11621622,3.80985447 C2.11621622,3.56697447 2.20475676,3.35097447 2.38281081,3.16185447 C2.56086486,2.97273447 2.76616216,2.88441447 2.9987027,2.89785447 L4.37448649,2.89785447 L5.44281081,0.769534468 C5.68994595,0.242494468 6.12097297,-0.0138255319 6.73686486,0.000574468085 L12.5085405,0.000574468085 C13.1244324,0.000574468085 13.5564324,0.277054468 13.8025946,0.830974468 L14.8504865,2.89785447 L31.5068108,2.89785447 C31.7257297,2.89785447 31.931027,2.98617447 32.1236757,3.16185447 C32.3143784,3.33753447 32.4038919,3.55353447 32.3902703,3.80985447 L32.3902703,4.13433447 L32.3902703,4.13433447 Z M7.06572973,6.22137447 L4.60118919,6.16089447 L7.06572973,6.14073447 L7.06572973,6.22137447 L7.06572973,6.22137447 Z M13.392,16.5567345 C13.392,18.2453745 12.7410811,19.0892145 11.4402162,19.0892145 C10.8243243,19.0892145 10.3105946,19.0152945 9.9,18.8664945 L9.5507027,21.2146545 C10.1675676,21.4325745 10.8856216,21.5420145 11.7077838,21.5420145 C13.2275676,21.5420145 14.3776216,21.1560945 15.1579459,20.3852145 C15.9382703,19.6133745 16.3284324,18.3413745 16.3284324,16.5692145 L16.3284324,8.41017447 L13.392,8.41017447 L13.392,16.5567345 L13.392,16.5567345 Z M22.0796757,21.5016945 C23.7094054,21.5016945 24.9752432,21.1282545 25.8791351,20.3813745 C26.783027,19.6344945 27.2354595,18.6764145 27.2354595,17.5090545 C27.2354595,15.7656945 26.0980541,14.4898545 23.8251892,13.6786545 C22.8940541,13.3196145 22.2567568,13.0258545 21.9152432,12.7992945 C21.5727568,12.5727345 21.4015135,12.2722545 21.4015135,11.8988145 C21.4287568,11.0722545 22.1545946,10.6594545 23.579027,10.6594545 C24.3457297,10.6594545 25.1669189,10.8658545 26.0435676,11.2796145 L26.6798919,8.88537447 C25.6806486,8.42937447 24.4965405,8.20185447 23.1275676,8.20185447 C21.7576216,8.20185447 20.6348108,8.56665447 19.7591351,9.29721447 C18.8824865,10.0268145 18.4368649,10.9666545 18.4232432,12.1157745 C18.4232432,13.8053745 19.6307027,15.0639345 22.0436757,15.8876145 C22.8434595,16.1986545 23.4087568,16.4818545 23.7395676,16.7391345 C24.0703784,16.9954545 24.2367568,17.3199345 24.2367568,17.7116145 C24.2367568,18.6572145 23.6091892,19.1304945 22.355027,19.1304945 C21.1008649,19.1304945 19.9371892,18.8530545 18.8620541,18.2991345 L18.2627027,20.7240945 C19.1636757,21.2415345 20.4363243,21.5016945 22.0796757,21.5016945 L22.0796757,21.5016945 Z"/>
  </symbol>
  <symbol id="keys-outline" viewBox="0 0 100 100">
    <path d="M67.392 74.007l2.084-3.48-2.314-9.866c4.29-4.394 6.856-10.373 6.856-16.752 0-10.233-6.444-18.967-15.478-22.42.02-.62.033-1.244.033-1.867C58.573 9.85 55.968 0 50.15 0s-8.422 9.852-8.422 19.617c0 .588.04 1.163.058 1.747-9.204 3.366-15.804 12.185-15.804 22.54 0 7.04 3.09 13.554 8.175 18.022l-7.692 23.89 5.987 11.957 10.287-5.15L50.113 100l7.72-7.814 8.543 5.117 6.9-11.683-2.39-9.518-3.5-2.095zm-19.76-54.39c0-7.09 1.468-11.72 2.518-13.302 1.05 1.583 2.518 6.21 2.518 13.302 0 .148-.01.28-.01.425-.875-.097-1.76-.156-2.66-.156-.794 0-1.578.043-2.354.12 0-.13-.012-.258-.012-.39zM31.767 85.41l6.605-20.517c.578.32 1.167.623 1.775.897v22.627L34.65 91.17l-2.883-5.76zm22.47-23.793V71.83L51 76.955l3.237 5.126v5.35l-4.145 4.2L46 87.588l.052-25.898-1.984-.69c-7.286-2.53-12.182-9.4-12.182-17.097 0-9.988 8.126-18.114 18.114-18.114.755 0 1.495.06 2.227.15-.22 1.504-.496 2.82-.804 3.89-.412-.08-.837-.13-1.272-.13-3.622 0-6.573 2.95-6.573 6.58s2.95 6.578 6.578 6.578 6.58-2.95 6.58-6.58c0-.875-.18-1.705-.49-2.468.75-1.778 1.31-3.884 1.694-6.17 6.016 2.947 10.18 9.118 10.18 16.258 0 7.577-4.796 14.41-11.934 17.008l-1.943.706zM64.66 90.535l-4.52-2.706v-8.2l-2.68-2.68 2.68-2.68v-8.62c.968-.452 1.89-.97 2.777-1.54l1.312 5.595-3.59 5.99 5.97 3.576 1.4 5.58-3.35 5.68z"/>
  </symbol>
  <symbol id="keys-solid" viewBox="0 0 100 100">
    <path d="M69.76 84.1l-6.275-3.758 3.77-6.294-1.878-8.006c-1.576 1.222-3.3 2.275-5.168 3.1v9.434L57 81.78l3.204 3.2v7.442l7.308 4.305 3.798-6.43-1.556-6.2zm-41.075 6.774l3.276 6.543 9.04-4.05V69.282c-1.412-.603-3.404-1.34-4.66-2.174l-7.65 23.766z"/>
    <path d="M70.347 46.316c0-8.347-5.082-15.526-12.314-18.612.33-2.38.492-4.916.492-7.447C58.525 10.174 55.975 0 50.28 0s-8.245 10.174-8.245 20.257c0 .746.044 1.48.073 2.217 1.51-.53 3.085-.916 4.713-1.15-.002-.36-.03-.708-.03-1.067 0-9.52 2.405-14.733 3.494-15.462 1.09.728 3.495 5.943 3.495 15.462 0 2.296-.145 4.33-.37 6.123-1.073-.176-2.165-.29-3.285-.29-11.153 0-20.227 9.073-20.227 20.226 0 8.597 5.466 16.27 13.603 19.094l1.597.554V94.87l5.13 5.13L55 94.7v-7.75l-4.715-5.17L55 76.607v-10.73l2.02-.57c7.972-2.9 13.327-10.53 13.327-18.99zM50.28 43.412c-2.913 0-5.275-2.362-5.275-5.275 0-2.913 2.362-5.275 5.275-5.275.548 0 1.066.107 1.562.262-.606 1.59-1.21 2.48-1.562 2.637-1.312 0-2.376 1.068-2.376 2.38s1.063 2.376 2.376 2.376c2.12 0 3.805-1.414 5.084-3.707.112.427.19.867.19 1.33 0 2.915-2.36 5.276-5.274 5.276z"/>
  </symbol>
  <symbol id="laptop-outline" viewBox="0 0 100 100">
    <path d="M94.928 85H5.072C2.272 85 0 82.963 0 80.162V72h100v8.162c0 2.8-2.27 4.838-5.072 4.838zm-2.172-17H85V24.845c0-1.115-.907-2.022-2.023-2.022H17.023c-1.116 0-2.023.907-2.023 2.022V68H7.244V24.845c0-5.557 4.52-10.845 10.08-10.845h65.353c5.558 0 10.08 5.288 10.08 10.845V68z"/>
  </symbol>
  <symbol id="laptop-solid" viewBox="0 0 100 100">
    <path d="M94.928 83H5.072C2.272 83 0 81.168 0 78.367V71.13h100v7.237c0 2.8-2.27 4.633-5.072 4.633zM9 66V23.05C9 19.71 12.368 17 15.71 17h68.58c3.34 0 5.71 2.71 5.71 6.05V66"/>
  </symbol>
  <symbol id="left-outline" viewBox="0 0 100 100">
    <path d="M50 100C22.43 100 0 77.57 0 50S22.43 0 50 0s50 22.43 50 50-22.43 50-50 50zm0-91.903C26.894 8.097 8.097 26.894 8.097 50S26.894 91.903 50 91.903 91.903 73.106 91.903 50 73.106 8.097 50 8.097z"/>
    <path d="M49.146 37.92l-8.016-8.015L21.035 50 41.13 70.095l8.016-8.014L42.733 55H74V44H42.734"/>
  </symbol>
  <symbol id="left-solid" viewBox="0 0 100 100">
    <path d="M50 0C22.386 0 0 22.386 0 50s22.386 50 50 50 50-22.386 50-50S77.614 0 50 0zm26.125 56.167H42.093l6.978 6.978-8.72 8.72L18.487 50 40.35 28.134l8.72 8.722-6.976 6.977h34.032v12.334z"/>
  </symbol>
  <symbol id="locked-outline" viewBox="0 0 100 100">
    <path d="M72.466 45V28.23C72.466 15.84 62.388 5.763 50 5.763S27.534 15.84 27.534 28.23V45H16v44.37c0 5.832 5.128 10.575 10.96 10.575h46.08c5.832 0 10.96-4.743 10.96-10.575V45H72.466zM38.948 28.23c0-6.095 4.958-11.053 11.052-11.053s11.052 4.958 11.052 11.052V45H38.948V28.23zM76 54v6.093H24V54h52zm-2.96 38.338H26.96c-1.637 0-2.968-1.33-2.968-2.967V69.75H76.01v19.62c-.002 1.637-1.333 2.968-2.97 2.968z"/>
  </symbol>
  <symbol id="locked-solid" viewBox="0 0 100 100">
    <path d="M19.096 71.097v21.885c0 3.876 3.143 7.02 7.02 7.02h47.77c3.875 0 7.018-3.143 7.018-7.02V71.097H19.096zM80.904 66V51.055H73.29V29.6C73.287 16.76 62.84 6.314 50 6.314S26.712 16.76 26.712 29.6v21.454h-7.616V66h61.808zm-42.36-36.4c0-6.317 5.138-11.456 11.456-11.456s11.457 5.14 11.457 11.457V51.06H38.543V29.6z"/>
  </symbol>
  <symbol id="mail-outline" viewBox="0 0 100 100">
    <path d="M0 14.04v61.72c0 5.624 4.575 10.2 10.2 10.2h79.6c5.624 0 10.2-4.576 10.2-10.2V14.04H0zm65.32 31.846L91 25.76v42.05L65.32 45.887zM8 68.716V25.76l27.244 20.558L8 68.715zM15.277 22h69.446L50 49.123 15.277 22zM89.8 78H10.2c-.46 0-.868-.672-1.18-.96l31.717-26.508L50 57.638l9.826-7.538L91.39 76.48c-.275.606-.88 1.52-1.59 1.52z"/>
  </symbol>
  <symbol id="mail-solid" viewBox="0 0 100 100">
    <path d="M50 49.624L94.696 16H5.304m60.69 29.49L100 73.91V19.406M60.745 49.518L50 57.76l-10.147-7.783L1.138 81.813c1.176 1.72 3.15 2.85 5.39 2.85h86.944c2.364 0 4.415-1.268 5.56-3.15L60.745 49.52zm-26.15-3.574L0 19.404V74.39"/>
  </symbol>
  <symbol id="minus-outline" viewBox="-719 451 100 100">
    <g>
      <path d="M-669,551c-27.57,0-50-22.43-50-50s22.43-50,50-50s50,22.43,50,50S-641.43,551-669,551z M-669,459.097
		c-23.106,0-41.903,18.797-41.903,41.903s18.797,41.903,41.903,41.903s41.903-18.797,41.903-41.903S-645.894,459.097-669,459.097z"/>
      <path d="M-675,506h-19v-11h19h11h19v11h-19"/>
    </g>
  </symbol>
  <symbol id="minus-solid" viewBox="-719 451 100 100">
    <path d="M-669,451c-27.614,0-50,22.386-50,50s22.386,50,50,50s50-22.386,50-50S-641.386,451-669,451z M-676,507h-20v-13l20-0.126
	l13.483,0.126H-643v13h-20H-676z"/>
  </symbol>
  <symbol id="phone-outline" viewBox="0 0 100 100">
    <path d="M70.812 0H29.188C23.496 0 19 4.63 19 10.323v79.354C19 95.37 23.496 100 29.188 100h41.624C76.504 100 81 95.37 81 89.677V10.323C81 4.63 76.504 0 70.812 0zM29.188 8.824h41.624c.826 0 1.188.672 1.188 1.5V69H28V10.323c0-.827.362-1.5 1.188-1.5zm41.624 82.352H29.188c-.826 0-1.188-.672-1.188-1.5V75h44v14.677c0 .827-.362 1.5-1.188 1.5z"/>
    <circle cx="50" cy="83.401" r="4.788"/>
  </symbol>
  <symbol id="phone-solid" viewBox="0 0 100 100">
    <path d="M79 72V6.483C79 2.903 76.406 0 72.826 0h-45.65C23.593 0 20 2.903 20 6.483V72h59zm-59 5v16.517c0 3.58 3.594 6.483 7.175 6.483h45.65c3.58 0 6.175-2.903 6.175-6.483V77H20zm30 16.822c-2.9 0-5.25-2.35-5.25-5.25S47.1 83.32 50 83.32s5.25 2.35 5.25 5.25-2.35 5.252-5.25 5.252z"/>
  </symbol>
  <symbol id="php" viewBox="0 0 30 30">
    <path d="M1.21680282,22.7591688 C1.8117171,22.7591688 2.47043139,22.6548883 3.19294567,22.4471482 C3.91628853,22.2394082 4.40017424,22.4356527 4.64543139,23.0367029 C4.72663139,23.244443 4.77883139,23.6492486 4.80203139,24.2494777 C4.82523139,24.8505279 4.79043139,25.3998484 4.69763139,25.896618 C4.60400282,26.381071 4.55180282,26.6939127 4.54020282,26.8318587 C3.10594567,25.7233645 1.8871171,24.3652538 0.884545673,22.7591688 L1.21680282,22.7591688 L1.21680282,22.7591688 Z M9.36000282,3.51899379 C7.35403139,3.51899379 5.6571171,4.21529238 4.26925996,5.60788955 C3.4763171,5.42560383 2.85240282,5.31146998 2.39834567,5.265488 C3.80857424,3.64298092 5.51128853,2.37190756 7.50565996,1.45062571 C9.50003139,0.530164965 11.6211742,0.0695240384 13.8724028,0.0695240384 C18.0475742,0.0695240384 21.6178885,1.5212409 24.5816885,4.42385351 C27.5454885,7.32646612 29.0269742,10.8465511 29.0269742,14.9832872 C29.0269742,19.1085279 27.54466,22.6384661 24.5800314,25.5731019 C21.6154028,28.5085588 18.0450885,29.9701289 13.8699171,29.9586334 C11.4794885,29.9586334 9.18765996,29.4158818 6.99525996,28.3295575 C7.92905996,28.3525485 8.93080282,28.295071 10.0038028,28.156304 C11.43806,27.8787699 11.7239171,27.2029989 10.8613742,26.1281701 C9.99800282,25.0426669 9.69474567,23.9037917 9.95160282,22.714008 C10.20846,21.5234031 10.9251742,20.6283966 12.1034028,20.0273464 C13.1051457,19.4262962 13.4440314,19.478026 13.1175742,20.1833567 C12.9775457,20.4838818 12.7264885,20.900183 12.36606,21.4314391 C10.9657742,23.4883117 10.8431457,25.1518741 11.9981742,26.4229475 C12.9079457,27.4173078 14.0679457,27.7112641 15.4790028,27.3072795 C16.0739171,27.1455215 16.6158028,26.8622396 17.1054885,26.4574339 C17.5951742,26.0534494 17.7244314,25.6371482 17.49326,25.2093516 C17.34246,24.9441341 17.0251171,24.8915832 16.5395742,25.0533413 C16.05486,25.2150993 15.59086,25.389174 15.15006,25.5731019 C14.7067742,25.7356811 14.2982885,25.6141572 13.9254314,25.2093516 C13.4821457,24.643609 13.6337742,23.9908291 14.3803171,23.2510118 C15.1260314,22.5120157 15.9181457,21.6334314 16.7558314,20.61608 C17.5926885,19.5995498 18.1983742,18.7037222 18.5704028,17.9294185 C18.9656314,17.1789269 19.3036885,16.3643889 19.5829171,15.4858046 C19.8621457,14.6072203 19.9723457,13.7179616 19.9143457,12.8163863 C19.8555171,11.914811 19.60446,11.1643194 19.1611742,10.5632692 C18.3309457,9.4424584 17.6299742,8.81841722 17.0574314,8.69114566 C16.8469742,8.63366818 16.5486885,8.59343395 16.1634028,8.57044296 C15.7549171,7.09737732 14.9213742,5.88788697 13.6619457,4.9403297 C12.3909171,3.99277243 10.95666,3.51899379 9.36000282,3.51899379 L9.36000282,3.51899379 Z M15.2619171,12.6160363 C15.2619171,12.1792074 15.4541457,11.9599719 15.84026,11.9599719 C16.0217171,11.937802 16.1808028,11.9936373 16.3166885,12.129941 C16.4525742,12.2670659 16.5147171,12.4411405 16.5039457,12.6538072 C16.5039457,13.0660028 16.2992885,13.2967338 15.8908028,13.3468213 C15.4715457,13.2967338 15.2619171,13.0536862 15.2619171,12.6160363 L15.2619171,12.6160363 Z"/>
  </symbol>
  <symbol id="plus-outline" viewBox="0 0 100 100">
    <path d="M50 100C22.43 100 0 77.57 0 50S22.43 0 50 0s50 22.43 50 50-22.43 50-50 50zm0-91.903C26.894 8.097 8.097 26.894 8.097 50S26.894 91.903 50 91.903 91.903 73.106 91.903 50 73.106 8.097 50 8.097z"/>
    <path d="M55 25H44v19H25v11h19v19h11V55h19V44H55"/>
  </symbol>
  <symbol id="plus-solid" viewBox="-719 451 100 100">
    <path d="M-719,501c0,27.614,22.386,50,50,50s50-22.386,50-50s-22.386-50-50-50C-696.615,451-719,473.386-719,501z M-663.001,475v20
	h20.126l-0.126,13h-20v20H-676l-0.126-20h-19.126l0.126-13.483H-676v-19.518L-663.001,475z"/>
  </symbol>
  <symbol id="plus" viewBox="-349 591 100 100">
    <path d="M-294,616h-11v19h-19v11h19v19h11v-19h19v-11h-19"/>
  </symbol>
  <symbol id="push-outline" viewBox="0 0 100 100">
    <path d="M99.997 29.43c0-15.53-12.634-28.164-28.164-28.164-11.268 0-20.985 7.15-25.484 16.734H18.96C8.505 18 0 26.022 0 36.476V80.04C0 90.495 8.506 99 18.96 99h43.56C72.978 99 81 90.494 81 80.04V55.857c10.783-3.95 19-14.288 19-26.425h-.003zM73.314 80.042c0 5.95-4.84 10.958-10.79 10.958h-43.57c-5.95 0-10.79-5.008-10.79-10.96V36.477c0-5.95 4.84-11.476 10.79-11.476h24.99c-.164 1.23-.28 2.728-.28 4 0 15.53 12.638 28.597 28.167 28.597.5 0 .99-.05 1.48-.075v22.52l.004.003zm-1.48-30.615c-11.026 0-19.996-8.97-19.996-19.996s8.97-19.993 19.996-19.993S91.83 18.407 91.83 29.43s-8.97 19.997-19.996 19.997z"/>
    <circle cx="71.834" cy="29.43" r="13.816"/>
  </symbol>
  <symbol id="push-solid" viewBox="0 0 100 100">
    <path d="M76.5 55.66c-17.028 0-30.88-13.852-30.88-30.88 0-3.072.465-6.037 1.305-8.84h-30.13C7.52 15.94 0 23.46 0 32.735v49.19C0 91.2 7.52 98.72 16.796 98.72h49.19c9.276 0 16.796-7.52 16.796-16.795v-26.91c-2.03.42-4.13.645-6.283.645z"/>
    <path d="M76.5 1.28c-12.96 0-23.503 10.542-23.503 23.5S63.54 48.283 76.5 48.283c12.957 0 23.5-10.542 23.5-23.5S89.457 1.278 76.5 1.278zm0 36.027c-6.92 0-12.528-5.608-12.528-12.527 0-6.918 5.61-12.527 12.527-12.527 6.914 0 12.522 5.608 12.522 12.527 0 6.92-5.61 12.527-12.527 12.527z"/>
  </symbol>
  <symbol id="question-solid" viewBox="0 0 17 17">
    <g transform="translate(-1227.000000, -64.000000)">
      <g transform="translate(300.000000, 0.000000)">
        <path d="M930.090669,67.2605017 C931.629555,65.6415006 933.486526,64.832 935.662623,64.832 C937.838721,64.832 939.692047,65.6415006 941.223125,67.2605017 C942.754202,68.8795028 943.52,70.7770138 943.52,72.9530347 C943.52,75.1285349 942.754202,76.9859613 941.223125,78.5242727 C939.692047,80.062584 937.838721,80.832 935.662623,80.832 C933.486526,80.832 931.629555,80.062584 930.090669,78.5242727 C928.552303,76.9859613 927.783381,75.1285349 927.783381,72.9530347 C927.783381,70.7770138 928.552303,68.8795028 930.090669,67.2605017 L930.090669,67.2605017 Z M936.003094,69.534912 C936.735575,69.534912 937.094787,69.8649592 937.08021,70.5240124 C937.08021,70.69268 937.028671,70.8644711 936.926634,71.0404269 C936.699133,71.2970724 936.428422,71.5354976 936.11294,71.7546615 C935.797979,71.9821545 935.534556,72.2164152 935.322153,72.4584845 C934.911401,73.044136 934.706286,73.5610711 934.706286,74.007728 C934.698997,74.4621936 934.77969,74.7698559 934.948364,74.9307148 C935.131093,75.0775181 935.347662,75.1545639 935.596507,75.1613314 L935.640758,75.1613314 C935.911469,75.1321789 936.120228,75.036913 936.267037,74.876054 C936.413325,74.7146745 936.490373,74.5460068 936.497662,74.3700511 L936.497662,74.1285024 C936.497662,73.6157319 936.82772,73.1472107 937.486797,72.7218975 C938.146394,72.2971049 938.567557,71.8868886 938.750287,71.4912484 C938.882518,71.2346029 938.948634,70.9493255 938.948634,70.6343751 C938.948634,70.3194248 938.897095,69.9675133 938.794537,69.5791612 C938.662826,69.2053854 938.490509,68.9122993 938.278105,68.699903 C937.79447,68.1137309 937.051057,67.8206449 936.047345,67.8206449 C935.043112,67.8206449 934.240872,68.0700023 933.640623,68.5681965 C933.413642,68.7144793 933.204362,68.9159434 933.013824,69.1725889 C932.764978,69.5900934 932.669709,69.9159759 932.728536,70.1502365 C932.794131,70.3850177 932.933652,70.5463973 933.146055,70.6343751 C933.394901,70.7660817 933.62917,70.79159 933.849382,70.7109003 C934.069075,70.6302105 934.223171,70.5172448 934.311152,70.3704415 C934.523035,70.113796 934.655267,69.9602252 934.706286,69.9086878 C934.757825,69.8576711 934.860383,69.7842694 935.013959,69.6890034 L935.420545,69.5572969 C935.523103,69.5422001 935.717286,69.534912 936.003094,69.534912 L936.003094,69.534912 Z M935.574642,76.0405896 C935.274258,76.0405896 935.018124,76.1285674 934.805199,76.3045232 C934.592796,76.4804789 934.490238,76.6777784 934.498047,76.8979834 L934.498047,77.2936236 C934.498047,77.5205961 934.600084,77.7257042 934.805199,77.9089481 C935.018124,78.0703276 935.277902,78.1504968 935.585575,78.1504968 C935.893248,78.1504968 936.142094,78.0703276 936.332632,77.9089481 C936.523171,77.7480891 936.614796,77.5424604 936.607508,77.2936236 L936.607508,76.8979834 C936.607508,76.6855871 936.519527,76.487767 936.344085,76.3045232 C936.131161,76.1285674 935.875027,76.0405896 935.574642,76.0405896 L935.574642,76.0405896 Z"/>
      </g>
    </g>
  </symbol>
  <symbol id="refresh-outline" viewBox="0 0 100 100">
    <path d="M50 100C22.43 100 0 77.57 0 50S22.43 0 50 0s50 22.43 50 50-22.43 50-50 50zm0-91.903C26.894 8.097 8.097 26.894 8.097 50S26.894 91.903 50 91.903 91.903 73.106 91.903 50 73.106 8.097 50 8.097z"/>
    <path d="M78.694 49C77.81 33.92 65.298 21 50 21c-9.8 0-18.462 4.933-23.66 12.438l5.902 5.793C35.852 33.18 42.452 29.1 50 29.1c10.834 0 19.732 9.29 20.597 19.903h-6.165l9.71 8.8c.325.325.852.325 1.177 0l9.71-8.8h-6.34zM50 70.464c-10.834 0-19.73-7.85-20.597-18.464h6.165l-9.71-10.238c-.325-.325-.852-.325-1.177 0L14.97 52h6.336C22.19 67.08 34.702 78.56 50 78.56c9.8 0 18.462-4.932 23.662-12.436L67.76 60.33C64.146 66.386 57.55 70.464 50 70.464z"/>
  </symbol>
  <symbol id="refresh-solid" viewBox="0 0 100 100">
    <path d="M50 0C22.385 0 0 22.386 0 50s22.385 50 50 50c27.614 0 50-22.386 50-50S77.614 0 50 0zm0 81.316C33.354 81.316 19.74 68.41 18.778 52h-6.895L22.45 41.275c.353-.354.926-.354 1.28 0L34.296 52h-6.708C28.53 63.55 38.212 72.506 50 72.506c8.214 0 15.393-4.437 19.323-11.027l6.423 6.3C70.088 75.95 60.664 81.315 50 81.315zm27.55-22.59c-.354.353-.927.353-1.28 0L65.703 48h6.708C71.47 36.45 61.79 27.494 50 27.494c-8.214 0-15.393 4.438-19.323 11.027l-6.423-6.3C29.912 24.05 39.336 18.685 50 18.685c16.646 0 30.26 12.907 31.222 29.316h6.894L77.55 58.724z"/>
  </symbol>
  <symbol id="right-outline" viewBox="0 0 100 100">
    <path d="M50 100C22.43 100 0 77.57 0 50S22.43 0 50 0s50 22.43 50 50-22.43 50-50 50zm0-91.903C26.894 8.097 8.097 26.894 8.097 50S26.894 91.903 50 91.903 91.903 73.106 91.903 50 73.106 8.097 50 8.097z"/>
    <path d="M50.854 37.92L57.267 44H25v11h32.266l-6.412 7.08 8.016 8.015L78.965 50 58.87 29.905"/>
  </symbol>
  <symbol id="right-solid" viewBox="0 0 100 100">
    <path d="M50 0C22.386 0 0 22.386 0 50s22.386 50 50 50 50-22.386 50-50S77.614 0 50 0zm9.65 71.865l-8.72-8.72 6.977-6.978H23.874V43.833h34.032l-6.977-6.977 8.72-8.722L81.513 50 59.65 71.865z"/>
  </symbol>
  <symbol id="rpi" viewBox="0 0 25 33">
    <path d="M22.7538466,14.5489437 L22.528951,14.1445948 C22.5378811,11.2409032 21.2210734,10.057407 19.6855457,9.15795342 C20.1501315,9.03263258 20.6299117,8.92951935 20.7615525,8.33242081 C21.5598385,8.12332887 21.7268441,7.74526198 21.8069926,7.3445845 C22.0157163,7.2021602 22.7145721,6.80233342 22.6413988,6.11474776 C23.032678,5.83840612 23.2508205,5.48389005 23.1398389,4.98139778 C23.5603518,4.5121274 23.6710225,4.12438945 23.4924655,3.76691834 C23.9971256,3.12513591 23.7735184,2.79255883 23.5577306,2.45590736 C23.9360812,1.75439717 23.6022032,1.0021139 22.5456116,1.12810635 C22.1252319,0.496084529 21.208367,0.639628164 21.0669964,0.642583211 C20.9083433,0.439714773 20.6987754,0.265949068 20.054833,0.350167901 C19.6376077,-0.0304958502 19.1711115,0.0344256317 18.6900873,0.221444273 C18.118785,-0.232916554 17.7405232,0.131270573 17.3086366,0.268993662 C16.6167117,0.0411864205 16.4585917,0.353212495 16.1188048,0.480279506 C15.3645915,0.319632418 15.135342,0.669402499 14.7734298,1.03855948 L14.3527835,1.03014207 C13.2149327,1.70590754 12.6496726,3.08192954 12.4493014,3.78930505 C12.2488413,3.08179522 11.6848252,1.70581799 10.547241,1.03014207 L10.1265503,1.03855948 C9.76463808,0.669402499 9.53538853,0.319632418 8.78121971,0.480279506 C8.44138835,0.353212495 8.28326835,0.0411864205 7.59134345,0.268993662 C7.30793591,0.178640869 7.04727562,-0.00922846821 6.7402767,0.000353047056 C6.57949102,0.0054124453 6.40630987,0.065274529 6.20989276,0.221444273 C5.72891298,0.0344256317 5.26237237,-0.0304958502 4.84514708,0.350167901 C4.20120463,0.265949068 3.99168121,0.439714773 3.83298365,0.642583211 C3.69161309,0.639628164 2.7747926,0.496084529 2.35436847,1.12810635 C1.29782126,1.0021139 0.963898853,1.75439717 1.34224947,2.45590736 C1.12646167,2.79255883 0.902898924,3.12513591 1.40751451,3.76691834 C1.22900197,4.12438945 1.33962821,4.5121274 1.76014119,4.98139778 C1.64915953,5.48389005 1.86730203,5.83840612 2.25858125,6.11474776 C2.185408,6.80233342 2.8842637,7.2021602 3.09298742,7.3445845 C3.17313591,7.74526198 3.34014154,8.12332887 4.13842758,8.33242081 C4.27011278,8.92951935 4.749893,9.03263258 5.21443434,9.15795342 C3.67890662,10.057407 2.36214341,11.2409032 2.37102905,14.1445948 L2.14613346,14.5489437 C0.385399161,15.6280731 -1.19864416,19.0964025 1.27836171,21.9155619 C1.44016924,22.7979568 1.71153673,23.4317695 1.95313733,24.133235 C2.31451637,26.9598267 4.67294334,28.2833743 5.29498268,28.4399022 C6.20647179,29.1396215 7.17731698,29.803522 8.49101465,30.2685836 C9.72945094,31.5558199 11.0711384,32.0464025 12.4201565,32.0455518 C12.439927,32.0455518 12.460053,32.0457756 12.4798236,32.0455518 C13.8288417,32.0464025 15.1705291,31.5558199 16.4089654,30.2685836 C17.7226631,29.803522 18.6935083,29.1396215 19.6049974,28.4399022 C20.2270811,28.2833743 22.5854637,26.9598267 22.9468427,24.133235 C23.1884433,23.4317695 23.4598108,22.7979568 23.6216183,21.9155619 C26.0986686,19.0964025 24.5145809,15.6280731 22.7538466,14.5489437 L22.7538466,14.5489437 Z M21.1620283,14.0527197 C21.0701952,15.2222467 15.112728,9.97972507 16.1411522,9.80560117 C18.9327986,9.33055502 21.2555053,11.0020817 21.1620283,14.0527197 L21.1620283,14.0527197 Z M14.621352,1.83194476 C14.6729332,2.09454096 14.7313563,2.26056086 14.7980874,2.309543 C15.1292997,1.94629612 15.3998675,1.57431841 15.8262006,1.22481697 C15.8276223,1.43010317 15.7249931,1.65285102 15.9788115,1.81573678 C16.2073946,1.50111384 16.5163928,1.22029485 16.9266429,0.981965854 C16.7290262,1.33057183 16.8926997,1.43650577 16.9989276,1.58098965 C17.3122797,1.30608076 17.6099043,1.02763476 18.1877375,0.812005892 C18.0297508,1.00882992 17.8090315,1.20104228 18.0431682,1.4271929 C18.3658058,1.221056 18.6904871,1.01518774 19.4568737,0.868644288 C19.2841369,1.06560263 18.9271118,1.26260575 19.1436104,1.45956409 C19.5487513,1.30124523 19.9969874,1.18631182 20.4930284,1.1195994 C20.2555152,1.31946801 20.0573654,1.51521747 20.2520498,1.67004402 C20.6856247,1.53357458 21.2828731,1.34977963 21.8665709,1.50814327 L21.4970615,1.88858316 C21.4560542,1.93949055 22.3614122,1.92820765 22.9589716,1.93716233 C22.7408736,2.24708406 22.5185104,2.54621538 22.3886467,3.07852676 C22.447914,3.13991114 22.744028,3.10579378 23.0232148,3.07852676 C22.7369639,3.69514652 22.2396345,3.85077898 22.123588,4.11467361 C22.2984575,4.25011326 22.5411243,4.21487656 22.8063607,4.12273283 C22.6002139,4.55721425 22.1679718,4.85491283 21.8264078,5.20745886 C21.9127318,5.27014167 22.06361,5.30757226 22.4208127,5.26409726 C22.1052392,5.60728564 21.7240007,5.92101311 21.2721659,6.20313053 C21.3521811,6.29769202 21.6273694,6.29393105 21.8826094,6.30024411 C21.4733368,6.71010014 20.9465515,6.92255009 20.4528653,7.1906982 C20.6989531,7.36267297 20.8748888,7.32255597 21.0633089,7.32018298 C20.7141476,7.61367285 20.1204534,7.76635026 19.5693215,7.94347398 C19.6741277,8.11016548 19.7789338,8.15574484 20.0030297,8.20253308 C19.4196873,8.53282671 18.5840372,8.38180591 18.3483899,8.55060177 C18.4052581,8.71662167 18.5657327,8.82465997 18.758018,8.91487844 C17.8188501,8.97066614 15.2502777,8.87991039 14.7579243,6.89116391 C15.7193508,5.81055704 17.4742205,4.54176742 20.4930284,2.97330919 C18.1445089,3.77748487 16.0253723,4.84936092 14.2518871,6.32451131 C12.1668713,5.33134696 13.6041682,2.82640754 14.621352,1.83194476 L14.621352,1.83194476 Z M12.4379278,9.00429099 C13.9164097,8.98785914 15.7470295,10.1160154 15.7396989,11.1789368 C15.7332568,12.1171193 14.4540354,12.8766559 12.4493014,12.8621493 C10.4861966,12.8385537 9.16419086,11.9077588 9.16885582,10.9986789 C9.17267664,10.2505148 10.7717811,8.96059212 12.4379278,9.00429099 L12.4379278,9.00429099 Z M4.96514766,8.20253308 C5.18924354,8.15574484 5.29409411,8.11016548 5.39890026,7.94347398 C4.84776834,7.76635026 4.2540742,7.61367285 3.90486849,7.32018298 C4.09333295,7.32255597 4.26926865,7.36267297 4.51535649,7.1906982 C4.02167025,6.92255009 3.49488499,6.71010014 3.08556791,6.30024411 C3.34085239,6.29393105 3.61604071,6.29769202 3.69605591,6.20313053 C3.24417661,5.92101311 2.86298259,5.60728564 2.54740903,5.26409726 C2.90461182,5.30757226 3.05544559,5.27014167 3.14181402,5.20745886 C2.80024996,4.85491283 2.3679635,4.55721425 2.16186105,4.12273283 C2.42709744,4.21487656 2.66971989,4.25011326 2.84463374,4.11467361 C2.72854283,3.85077898 2.23125791,3.69514652 1.94500696,3.07852676 C2.22419382,3.10579378 2.52030782,3.13991114 2.57953063,3.07852676 C2.4497114,2.54621538 2.22734822,2.24708406 2.00925015,1.93716233 C2.60680954,1.92820765 3.51216756,1.93949055 3.47116033,1.88858316 L3.10165092,1.50814327 C3.68534871,1.34977963 4.28259711,1.53357458 4.71617199,1.67004402 C4.91081197,1.51521747 4.71270659,1.31946801 4.47519339,1.1195994 C4.97123433,1.18631182 5.41947052,1.30124523 5.82461134,1.45956409 C6.04111,1.26260575 5.68404049,1.06560263 5.51134805,0.868644288 C6.27773463,1.01518774 6.60237155,1.221056 6.92505362,1.4271929 C7.15914584,1.20104228 6.93847094,1.00882992 6.78048423,0.812005892 C7.3583175,1.02763476 7.65594206,1.30608076 7.96924978,1.58098965 C8.07552206,1.43650577 8.23915114,1.33057183 8.04157891,0.981965854 C8.45182897,1.22029485 8.76082716,1.50111384 8.98936586,1.81573678 C9.24322864,1.65285102 9.14059948,1.43010317 9.14197675,1.22481697 C9.56835426,1.57431841 9.83892205,1.94629612 10.1701343,2.30949823 C10.2368655,2.26056086 10.2952886,2.09454096 10.3468253,1.83194476 C11.3640536,2.82640754 12.8013061,5.33134696 10.7163347,6.32451131 C8.9428051,4.84936092 6.82371288,3.77748487 4.47519339,2.97330919 C7.49395682,4.54176742 9.24887102,5.81055704 10.2102974,6.89116391 C9.71794404,8.87991039 7.14937164,8.97066614 6.21015933,8.91487844 C6.40248904,8.82465997 6.5629193,8.71662167 6.61983183,8.55060177 C6.38414019,8.38180591 5.54853446,8.53282671 4.96514766,8.20253308 L4.96514766,8.20253308 Z M8.42788217,9.7160543 C9.45626189,9.89017819 3.49879467,15.1326998 3.40696157,13.9631729 C3.31348462,10.9125348 5.63623574,9.24100815 8.42788217,9.7160543 L8.42788217,9.7160543 Z M2.17314581,21.3979362 C0.725363806,20.2242901 0.259045339,16.7873469 2.94321993,15.2426634 C4.56102869,14.8058089 3.48933146,21.9871546 2.17314581,21.3979362 L2.17314581,21.3979362 Z M7.81663889,27.5490452 C7.00009286,28.045493 5.01712867,27.8410575 3.60768821,25.8005977 C2.6571467,24.088372 2.7796797,22.3460137 3.44703581,21.834119 C4.44511549,21.2214393 5.98717415,22.0489867 7.17407372,23.4369185 C8.20831797,24.6925895 8.67974568,26.8987558 7.81663889,27.5490452 L7.81663889,27.5490452 Z M6.21206974,20.059703 C4.71377287,19.0704339 4.44369379,16.8280907 5.60882354,15.0512569 C6.77390886,13.2744231 8.93303089,12.6359539 10.4313278,13.6251782 C11.9296246,14.6144473 12.1997037,16.8567905 11.0346184,18.6336691 C9.86948865,20.4105029 7.71036662,21.0489273 6.21206974,20.059703 L6.21206974,20.059703 Z M12.4433036,31.0459848 C10.64716,31.1240697 8.88598142,29.5633125 8.90903966,29.0223151 C8.88216059,28.2291089 11.0960626,27.6098027 12.5396684,27.6462035 C13.9923819,27.5823118 15.9415807,28.1177573 15.9454015,28.8280431 C15.969526,29.5177779 14.1776031,31.0761173 12.4433036,31.0459848 L12.4433036,31.0459848 Z M12.5239852,26.584894 C10.5269373,26.584894 8.90797338,25.080417 8.90797338,23.2245581 C8.90797338,21.3686992 10.5269373,19.8642222 12.5239852,19.8642222 C14.5210776,19.8642222 16.139997,21.3686992 16.139997,23.2245581 C16.139997,25.080417 14.5210776,26.584894 12.5239852,26.584894 L12.5239852,26.584894 Z M13.8724702,18.4545753 C12.7073404,16.6776967 12.9774195,14.4353535 14.4757164,13.4460845 C15.9740132,12.4568602 18.1331353,13.0953294 19.298265,14.8721632 C20.4633503,16.648997 20.1932713,18.8913402 18.6949744,19.8806092 C17.1966775,20.8698335 15.0375555,20.2314091 13.8724702,18.4545753 L13.8724702,18.4545753 Z M21.1960603,25.8992336 C19.6483149,28.0634472 17.5530362,28.1477108 16.7725214,27.544926 C15.9561975,26.7688233 16.5793031,24.3596542 17.6983164,23.0387931 C18.9788262,21.5817312 20.3477481,20.63043 21.3013996,21.3737586 C21.9433428,22.0181826 22.3199163,24.445664 21.1960603,25.8992336 L21.1960603,25.8992336 Z M22.4073066,21.3083893 C21.0911209,21.8976078 20.0193793,14.7162621 21.637188,15.1531165 C24.321407,16.6978 23.8550441,20.1347433 22.4073066,21.3083893 L22.4073066,21.3083893 Z"/>
  </symbol>
  <symbol id="rtos" viewBox="0 0 32 29">
    <path d="M22.2507228,5.13932004 C22.2507228,6.01438998 21.5190958,6.72381712 20.6164538,6.72381712 C19.7140006,6.72381712 18.9825623,6.01438998 18.9825623,5.13932004 C18.9825623,4.26425009 19.7140006,3.55482295 20.6164538,3.55482295 C21.5190958,3.55482295 22.2507228,4.26425009 22.2507228,5.13932004 L22.2507228,5.13932004 Z M29.9027937,6.91471817 C27.7237684,5.63423515 24.8185901,5.6982959 23.3659066,6.14653818 L22.7058189,9.53974499 L24.8846555,9.53974499 L24.2904445,12.6130141 L22.1114192,12.6130141 L21.18707,17.286887 C20.7908664,19.2076115 21.8473464,18.82343 22.6397535,18.82343 L22.3096154,20.616033 C16.4990699,23.1131213 15.3765246,19.2716723 15.7066628,17.5429469 L16.6312007,12.6130141 L13.7258336,12.6130141 L14.3200446,9.53974499 L17.2254117,9.53974499 L17.9517535,5.89029514 C15.3765246,5.05805439 15.5747208,4.92993287 15.5747208,2.94514757 L15.5747208,0 L7.84941158,0 L7.84941158,11.6526518 L0.0580370154,11.6526518 C-0.272101176,12.8690741 0.850444177,14.7897986 2.30293896,15.1739801 C3.75562251,15.5581616 4.74603708,18.56737 5.27418268,19.2076115 C5.80251704,19.847853 7.12306981,20.6800938 8.44362257,20.5521553 C9.89630611,18.7593692 10.0943135,18.5033092 10.7545899,18.7593692 C11.1507935,18.82343 11.9432006,19.0154292 12.5374116,18.9515515 C16.3010625,28.6832957 21.1210046,29.899718 24.0263717,28.4911135 C19.8665172,21.5125176 29.176452,18.82343 31.1574699,18.1191277 C31.7516809,16.2624639 31.8177463,13.8294363 31.6195501,12.4208318 C29.3746481,11.332531 29.7047863,8.64344348 29.9027937,6.91471817 L29.9027937,6.91471817 Z M16.648944,17.6611848 L20.1483333,17.6611848 L22.1952278,7.35307679 L18.6297731,7.35307679 L16.648944,17.6611848 L16.648944,17.6611848 Z"/>
  </symbol>
  <symbol id="search-outline" viewBox="0 0 100 100">
    <path d="M59.038.217c-21.828 0-39.586 17.758-39.586 39.586 0 8.93 2.975 17.175 7.98 23.806L3.472 87.57c-2.794 2.795-2.794 7.324 0 10.118 2.794 2.794 7.323 2.794 10.117 0l24.39-24.39c6.1 3.85 13.32 6.09 21.06 6.09 21.824 0 39.582-17.758 39.582-39.586S80.862.217 59.038.217zm0 69.142C42.74 69.36 29.48 56.1 29.48 39.8s13.26-29.555 29.56-29.555 29.557 13.26 29.557 29.557S75.335 69.36 59.037 69.36z"/>
  </symbol>
  <symbol id="search-solid" viewBox="0 0 100 100">
    <path d="M59.078 0c-21.923 0-39.76 17.835-39.76 39.758 0 8.968 2.99 17.25 8.017 23.91L3.27 87.733c-2.807 2.806-2.807 7.355 0 10.16 2.805 2.807 7.354 2.807 10.16 0L37.927 73.4c6.13 3.868 13.38 6.117 21.15 6.117 21.924 0 39.76-17.835 39.76-39.758S81 0 59.077 0zm0 69.443c-16.368 0-29.685-13.317-29.685-29.685S42.71 10.073 59.078 10.073 88.763 23.39 88.763 39.758 75.446 69.443 59.078 69.443z"/>
    <circle cx="59.077" cy="39.758" r="22.17"/>
  </symbol>
  <symbol id="send-outline" viewBox="0 0 100 100">
    <path d="M50 10L0 76h36.89L50 89.355 63.11 76H100L50 10zm-2 67.515l-6.97-6.7L48 38.35v39.165zm4-39.165l6.97 32.466-6.97 6.7V38.35zm2.755-10.275L86.308 70H63.315l-8.56-41.925zm-9.51 0L36.685 70H13.692l31.553-41.925z"/>
  </symbol>
  <symbol id="send-solid" viewBox="0 0 100 100">
    <path d="M52 89.855L62.49 79.74l-8.85-67.75L52 10.146m7.495 10.264L67.103 79H100M40.505 20.41L0 78h32.897m4.613 1.74L48 89.856v-79.71l-1.64 1.846"/>
  </symbol>
  <symbol id="share" viewBox="0 0 100 100">
    <path d="M58 75.25H7.81v-50.5H66V17H0v66h66V51h-8"/>
    <path d="M80.613 18.543l-7.732 7.733L79.07 32H47.52C36.73 32 28 41.24 28 52.03V66h10.885V52.03c0-4.76 3.873-9.03 8.634-9.03h31.543l-6.187 6.583 7.732 7.733L100 37.93 80.613 18.542z"/>
  </symbol>
  <symbol id="trash-outline" viewBox="0 0 100 100">
    <path d="M88 20.994C88 14.834 82.524 10 76.363 10H60.48c-.453-5.49-5.056-10-10.66-10S39.61 4.51 39.156 10h-15.52C17.474 10 12 14.833 12 20.994v15.874h4.024v51.96c0 6.16 5.013 11.172 11.174 11.172h45.604c6.16 0 11.173-5.012 11.173-11.173v-51.96H88V20.995zM49.82 5.932c2.328 0 4.266 1.86 4.684 4.068h-9.37c.417-2.21 2.356-4.068 4.685-4.068zM23.635 19h52.727C77.62 19 79 19.738 79 20.994V28H21v-7.006C21 19.738 22.38 19 23.636 19zM75.08 88.827c0 1.255-1.023 2.277-2.278 2.277H27.198c-1.256 0-2.278-1.022-2.278-2.277v-51.96h6.148V83c0 1.64 1.328 2.966 2.966 2.966C35.672 85.966 37 84.64 37 83V36.868h10.034V83c0 1.64 1.328 2.966 2.966 2.966 1.64 0 2.966-1.328 2.966-2.966V36.868H63V83c0 1.64 1.36 2.966 3 2.966s3-1.328 3-2.966V36.868h6.08v51.96z"/>
  </symbol>
  <symbol id="trash-solid" viewBox="0 0 100 100">
    <path d="M69.586 85.907c0 1.543-1.25 2.793-2.793 2.793S64 87.45 64 85.907v-48.43H52.586v48.43c0 1.543-1.25 2.793-2.793 2.793S47 87.45 47 85.907v-48.43H37v48.43c0 1.543-1.25 2.793-2.793 2.793s-2.793-1.25-2.793-2.793v-48.43H19.098V92.96c0 3.887 3.15 7.04 7.04 7.04h47.726c3.887 0 7.038-3.152 7.038-7.04V37.476H69.586v48.43zM49.81 6.207c2.756 0 4.998 2.038 4.998 4.793h6.208c0-6.18-5.026-11-11.205-11s-11.2 4.82-11.2 11h6.208c0-2.755 2.243-4.792 4.998-4.792zM77.59 15H22.41c-3.888 0-7.04 3.084-7.04 6.97V32h69.258V21.97c0-3.886-3.15-6.97-7.038-6.97z"/>
  </symbol>
  <symbol id="unity" viewBox="0 0 28 29">
    <path d="M9.15954464,6.02235891 L9.82734826,6.02235891 L11.5115385,6.08646417 C11.6598556,6.08646417 11.8029026,6.02235891 11.9406795,5.89338522 C12.067916,5.74304312 12.210963,5.50722733 12.3705733,5.18441154 C12.5286779,4.8516747 12.7093689,4.54564838 12.9103875,4.26633259 C13.1114062,3.9870168 13.3395285,3.65962206 13.5940016,3.28338522 L13.8635323,3.1551747 L24.114732,0.384148381 C24.3059632,0.341411539 24.4429872,0.362016802 24.5280625,0.448253644 L24.6394886,0.787095749 C24.6816498,0.947358907 24.7667251,1.19996417 24.8939617,1.54414838 C25.0204453,1.88756943 25.1424117,2.32791154 25.2591079,2.8651747 C25.3652639,3.39099049 25.4443162,3.76112206 25.4977706,3.97633259 C25.5504721,4.19154312 25.5926333,4.36325364 25.6242542,4.49222733 C25.656628,4.62043785 25.7401976,4.91043785 25.8757158,5.36222733 C26.0097283,5.82393785 26.1023324,6.17804312 26.154281,6.42530628 L26.5224388,7.81120101 C26.7392679,8.55375364 26.8973725,9.14596417 26.9952468,9.58630628 C27.0991441,10.0258852 27.1872309,10.3578589 27.2602602,10.5829905 C27.522262,11.35378 27.485371,11.9963589 27.1488341,12.5099642 C26.9794363,12.8419379 26.6986125,13.34028 26.3071154,14.0034642 C26.0631827,14.4224379 26.1369648,14.9055168 26.5292147,15.4534642 C26.6135372,15.5824379 26.7249632,15.7808589 26.863493,16.0487273 C27.3054329,16.7233589 27.5056987,17.2369642 27.4635375,17.5910694 C27.4206234,17.9436484 27.1932539,18.9067536 26.7814292,20.4773326 C26.3696044,22.0486747 26.0948036,23.0957273 25.9577796,23.6192536 C25.8207556,24.14278 25.6724385,24.6685957 25.513581,25.1944115 C25.3547236,25.7202273 25.2169467,26.2147536 25.1002505,26.6764642 C24.9835543,27.1488589 24.9037491,27.4709115 24.8615879,27.6426221 C24.6289483,28.3302273 24.1727036,28.5660431 23.4951126,28.3515957 C22.0962635,28.0081747 21.1536591,27.7609115 20.6665464,27.6105694 C20.1786808,27.4602273 19.6328436,27.3045431 19.0290347,27.1435168 C18.4252258,26.9824905 17.7950661,26.8054379 17.1378028,26.6115957 C16.4805395,26.4185168 15.6651716,26.2040694 14.6909462,25.9674905 C13.7046748,25.7316747 13.0481644,25.21578 12.7199092,24.4213326 C12.6559144,24.2702273 12.4865167,23.9703063 12.210963,23.51928 C11.9354093,23.0682536 11.5378892,22.8270957 11.0191556,22.79428 C10.5207498,22.7736747 9.99674602,22.7736747 9.44563863,22.7950431 C8.89453125,22.8164115 8.45484995,22.6553852 8.12659473,22.3119642 C6.31516799,20.5193063 3.98350191,18.1634379 1.13385511,15.2435957 C0.699443957,14.7605168 0.709984262,14.2667536 1.16547602,13.7623063 C2.26769079,12.6893063 3.15232355,11.8048063 3.82012717,11.10728 C4.49771822,10.4097536 4.9848309,9.91141154 5.2814652,9.61072733 L6.26698374,8.59725364 C6.63815306,8.22177996 6.92424706,7.93788522 7.12526573,7.74480628 L8.58735664,6.24749049 C8.73567379,6.09791154 8.92615216,6.02235891 9.15954464,6.02235891 L9.15954464,6.02235891 Z M15.5055612,12.6824379 C15.6960396,12.6824379 15.8390866,12.5916221 15.9347022,12.4092273 L19.8285921,5.57820101 L19.9083973,5.35230628 L19.6381138,5.32025364 L17.3651722,5.91627996 C16.887847,6.02388522 16.178635,6.20704312 15.2352777,6.46422733 C14.2926733,6.73285891 13.5879786,6.92135891 13.1219465,7.02820101 C12.6551616,7.13580628 12.3005556,7.31820101 12.0573757,7.57538522 C11.060564,8.64991154 10.0118036,9.73435891 8.91034171,10.8302536 C7.80812693,11.9253852 7.27283001,12.5221747 7.30445092,12.6183326 L7.5912978,12.6824379 L15.5055612,12.6824379 L15.5055612,12.6824379 Z M7.7343448,16.0174379 L7.40006655,16.0494905 C7.2622897,16.0716221 7.27283001,16.1891484 7.43168746,16.4043589 C10.5787214,19.6584642 12.1785892,21.3122273 12.2312907,21.3656484 C12.2847451,21.4198326 12.3909011,21.4732536 12.5497585,21.5266747 C14.107465,21.92428 16.4489186,22.5370957 19.574119,23.3635957 L19.7969712,23.3315431 L19.7329765,23.1056484 C19.5635787,22.79428 19.2880251,22.311201 18.9070683,21.6556484 C18.5253587,21.0008589 18.249805,20.51778 18.0804072,20.2056484 L16.0303179,16.5653852 C15.8390866,16.1891484 15.5108314,16.0067536 15.0447993,16.0174379 C15.0447993,16.0388063 14.4515307,16.0494905 13.2649935,16.0494905 L11.4686244,16.0174379 L7.7343448,16.0174379 L7.7343448,16.0174379 Z M24.8540591,14.5521747 C24.8224382,14.2179115 24.4670793,12.8404115 23.7879825,10.4189115 L22.8958209,7.23730628 C22.8009582,6.91525364 22.6579112,6.89388522 22.4666799,7.17320101 C21.1634465,9.50388522 20.2998944,11.0286747 19.8760235,11.7483326 C19.4521527,12.4786747 19.1133571,13.0800431 18.8588841,13.5524379 C18.5938707,14.0255957 18.461364,14.3094905 18.461364,14.4064115 C18.461364,14.5033326 18.5411691,14.7070957 18.7000266,15.0184642 L21.3704882,19.7065431 C21.5180525,19.9965431 21.7409046,20.3888063 22.037539,20.8825694 C22.3341733,21.3763326 22.5088412,21.6884642 22.5622956,21.8174379 L22.7369635,21.9784642 L22.8958209,21.7846221 L23.6471941,19.1219642 C24.4241652,16.3669642 24.8262026,14.8429379 24.8540591,14.5521747 L24.8540591,14.5521747 Z"/>
  </symbol>
  <symbol id="unlock-outline" viewBox="0 0 100 100">
    <path d="M38.978 45V22.404c0-6.077 4.944-11.022 11.022-11.022s11.022 4.944 11.022 11.022v15.36h11.382v-15.36C72.404 10.05 62.354 0 50 0S27.595 10.05 27.595 22.404V45H16v44.455C16 95.27 21.206 100 27.02 100h45.96C78.793 100 84 95.27 84 89.455V45H38.978zM76 54v6.093H24V54h52zm-3.02 38.414H27.02c-1.63 0-3.02-1.328-3.02-2.96V70h52v19.455c0 1.63-1.39 2.96-3.02 2.96z"/>
  </symbol>
  <symbol id="unlock-solid" viewBox="0 0 100 100">
    <path d="M80.904 66V51.055h-42.36V23.287c0-6.317 5.14-11.456 11.457-11.456s11.46 5.14 11.46 11.46V39h11.83V23.287C73.29 10.447 62.846 0 50 0S26.712 10.447 26.712 23.287v27.767h-7.616V66h61.808zm-61.808 5.097v21.885c0 3.876 3.142 7.02 7.02 7.02h47.77c3.875 0 7.018-3.143 7.018-7.02V71.097H19.096z"/>
  </symbol>
  <symbol id="up-outline" viewBox="0 0 100 100">
    <path d="M50 100C22.43 100 0 77.57 0 50S22.43 0 50 0s50 22.43 50 50-22.43 50-50 50zm0-91.903C26.894 8.097 8.097 26.894 8.097 50S26.894 91.903 50 91.903 91.903 73.106 91.903 50 73.106 8.097 50 8.097z"/>
    <path d="M29.904 41.13l8.016 8.016L44 42.733V74h11V42.733l7.08 6.412 8.015-8.014L50 21.04"/>
  </symbol>
  <symbol id="up-solid" viewBox="0 0 100 100">
    <path d="M50 0C22.386 0 0 22.386 0 50s22.386 50 50 50 50-22.386 50-50S77.614 0 50 0zm13.144 49.07l-6.977-6.977v34.032H43.833V42.093l-6.978 6.978-8.72-8.72L50 18.486 71.866 40.35l-8.722 8.72z"/>
  </symbol>
  <symbol id="users-outline" viewBox="0 0 100 100">
    <path d="M93.478,64.274c0.696-0.187,1.4-0.407,2.112-0.66c2.056-0.728,3.512-2.525,3.802-4.69c0.29-2.164-0.643-4.282-2.435-5.526
	c-0.395-0.274-0.578-0.882-0.978-3.252c-0.398-2.33-0.888-5.228-2.54-8.417c-1.688-3.247-4.058-5.446-6.32-6.92
	c0.904-4.098,0.703-8.14-0.62-11.898C83.37,14.002,75.433,8.89,64.73,8.89c-1.068,0-1.925,0.055-2.503,0.11
	c-2.28,0.084-5.573,0.354-8.645,1.154l-0.068,0.018l-0.067,0.02c-0.225,0.064-0.435,0.14-0.65,0.213
	c-3.68-2.567-8.437-4.01-13.982-4.01h-0.203L38.409,6.41c-0.435,0.034-10.6,0.81-14.58,1.314c-1.67,0.21-3.17,1.133-4.11,2.53
	c-0.937,1.393-1.226,3.12-0.795,4.738c0.156,0.587,0.356,1.166,0.57,1.707c-1.283,2.12-2.952,4.94-3.616,6.32
	c-0.833,1.736-0.98,3.48-0.66,5.045l-3.37,4.84c-0.95,1.367-1.286,3.083-0.918,4.707c0.368,1.624,1.41,3.028,2.858,3.85l0.257,0.145
	l0.032,6.747c0.013,3.33,2.282,6.217,5.516,7.017l3.13,0.776l-10.26,5.09C4.776,65.05,0,72.414,0,81v10h100V78.256
	C100,72.816,97.563,67.706,93.478,64.274z M32.334,85H5.35v-4c0-6.492,3.678-12.086,9.494-14.97l15.118-7.498V52.43l-9.08-2.25
	c-0.85-0.21-1.45-0.972-1.454-1.85l-0.047-9.843l-2.943-1.675c-0.3-0.17-0.39-0.565-0.192-0.85l5.18-7.436
	c0,0-1.675-1.196-0.718-3.19c0.957-1.994,4.872-8.328,4.872-8.328s-1.044-1.76-1.48-3.395c-0.073-0.275,0.125-0.547,0.407-0.583
	c3.89-0.493,14.31-1.286,14.31-1.286c3.488,0,6.437,0.644,8.846,1.788c-0.513,0.56-0.957,1.167-1.316,1.832
	c-0.58,1.073-0.857,2.11-0.965,3.025c-0.753,1.214-1.717,3.01-2.42,5.15c-0.867,2.63-0.934,5.35-0.823,7.25
	c-0.855,1.18-1.98,2.714-2.68,3.6c-1.207,1.522-1.71,3.48-1.377,5.365c0.28,1.597,1.156,3.017,2.43,3.972l0.313,5.802
	c0.157,3.522,2.99,7.24,7.973,7.24c0.127,0,0.256,0,0.39-0.007c0.203-0.008,0.41-0.012,0.62-0.012c0.674,0,1.21,0.045,1.616,0.103
	L40.698,63.77c-5.237,3.376-8.364,9.11-8.364,15.34V85z M37.685,85v-5.89c0-4.383,2.227-8.468,5.912-10.843l12.458-8.03
	c0.922-0.594,1.458-1.658,1.34-2.748c-0.147-1.358-0.44-2.545-0.945-3.61c-0.926-1.954-3.963-2.477-6.642-2.477
	c-0.28,0-0.558,0.006-0.827,0.016c-0.06,0.002-0.12,0.004-0.18,0.004c-2.553,0-2.63-2.146-2.63-2.146l-0.452-8.46
	c0,0-0.86-0.67-1.93-1.33c-0.593-0.365-0.566-1.23-0.134-1.776c1.352-1.704,4.026-5.462,4.026-5.462s-0.715-3.766,0.364-7.04
	c1-3.038,2.705-5.214,2.705-5.214s-0.98-3.18,4.182-4.67c2.756-0.718,5.828-0.93,7.653-0.99c0.375-0.04,1.133-0.103,2.145-0.103
	c4.37,0,13.465,1.17,16.73,10.453c1.62,4.607,0.804,9.085-0.85,12.88c2.17,0.716,5.94,2.498,8.085,6.625
	c2.97,5.717,1.14,10.77,5.215,13.598c0.29,0.203,0.23,0.66-0.104,0.78c-2.247,0.796-4.277,1.16-6.067,1.16
	c-6.17,0-9.48-4.32-8.967-10.133c0.315-3.575-1.154-6.185-1.71-6.185c-0.055,0-0.1,0.024-0.134,0.075
	c-2.507,3.677-4.266,5.65-4.266,5.65c-2.248,2.823-0.964,6.29,0.346,8.125c0.76,1.062,1.385,1.902,2.46,2.604l12.64,7.163
	c4.044,2.29,6.54,6.577,6.54,11.223V85H37.685z"/>
  </symbol>
  <symbol id="users-solid" viewBox="0 0 100 100">
    <path d="M30.218,84.057V91H0v-4.45c0-7.27,4.12-13.912,10.632-17.142L27,61.012v-6.835l-9.605-2.517
	c-0.953-0.236-1.624-1.09-1.63-2.07l-0.05-11.024l-3.3-1.875c-0.34-0.19-0.438-0.63-0.216-0.95l5.8-8.325
	c0,0-1.878-1.34-0.807-3.572c1.072-2.232,5.455-9.325,5.455-9.325s-1.168-1.972-1.656-3.802c-0.082-0.308,0.14-0.613,0.456-0.652
	c4.358-0.55,16.027-1.44,16.027-1.44c3.906,0,7.208,0.72,9.906,2.003c-0.574,0.626-1.07,1.306-1.473,2.05
	c-0.65,1.203-0.96,2.363-1.08,3.39c-0.846,1.363-1.925,3.373-2.714,5.766c-0.97,2.944-1.045,5.995-0.92,8.122
	c-0.956,1.323-2.214,3.04-3,4.03c-1.352,1.706-1.914,3.896-1.542,6.01c0.315,1.788,1.296,3.38,2.725,4.448l0.347,6.498
	c0.176,3.946,3.35,8.11,8.928,8.11c0.143,0,0.288-0.002,0.437-0.007c0.228-0.01,0.46-0.014,0.696-0.014
	c0.753,0,1.353,0.05,1.81,0.113l-12.01,7.74c-5.867,3.78-9.368,10.202-9.368,17.18L30.218,84.057z"/>
    <path d="M48.651,53.054c-2.855,0-2.94-2.404-2.94-2.404l-0.507-9.473c0,0-0.962-0.747-2.162-1.486
	c-0.662-0.405-0.632-1.374-0.15-1.984c1.515-1.908,4.51-6.116,4.51-6.116s-0.8-4.218,0.407-7.885c1.12-3.402,3.03-5.838,3.03-5.838
	s-1.098-3.56,4.686-5.23c3.087-0.803,6.526-1.04,8.57-1.11c0.42-0.043,1.27-0.113,2.402-0.113c4.895,0,15.077,1.31,18.734,11.705
	c1.813,5.156,0.9,10.17-0.953,14.42c2.43,0.8,6.65,2.796,9.052,7.42c3.324,6.4,1.274,12.056,5.84,15.224
	c0.326,0.227,0.26,0.74-0.116,0.873c-2.515,0.892-4.79,1.3-6.792,1.3c-6.905,0-10.61-4.837-10.037-11.348
	c0.352-4.004-1.293-6.927-1.917-6.927c-0.06,0-0.11,0.027-0.15,0.084c-2.806,4.115-4.774,6.323-4.774,6.323
	c-2.52,3.164-1.08,7.045,0.385,9.1c0.85,1.19,1.55,2.13,2.754,2.917L92.68,70.53c4.523,2.566,7.32,7.367,7.32,12.57V91H36.208
	v-6.943c0-4.91,2.494-9.484,6.62-12.143l13.95-8.992c1.033-0.665,1.634-1.857,1.5-3.078c-0.163-1.516-0.493-2.845-1.058-4.038
	c-1.036-2.188-4.437-2.774-7.437-2.774L48.651,53.054z"/>
  </symbol>
  <symbol id="warn-outline" viewBox="0 0 100 100">
    <path d="M50 100C22.43 100 0 77.57 0 50S22.43 0 50 0s50 22.43 50 50-22.43 50-50 50zm0-91.903C26.894 8.097 8.097 26.894 8.097 50S26.894 91.903 50 91.903 91.903 73.106 91.903 50 73.106 8.097 50 8.097z"/>
    <path d="M56 57H44V28.822c0-3.355 2.646-6.074 6-6.074 3.355 0 6 2.72 6 6.074V57z"/>
    <circle cx="50" cy="70.13" r="6.984"/>
  </symbol>
  <symbol id="warn-solid" viewBox="0 0 100 100">
    <path d="M50 0C22.386 0 0 22.386 0 50s22.386 50 50 50 50-22.386 50-50S77.614 0 50 0zm-7 26.956c0-3.65 3.35-6.61 7-6.61s6 2.96 6 6.61v30.08H43v-30.08zm7 52.547c-4.197 0-7.6-3.402-7.6-7.6s3.403-7.598 7.6-7.598 7.6 3.402 7.6 7.6-3.403 7.598-7.6 7.598z"/>
  </symbol>
  <symbol id="windows" viewBox="0 0 26 28">
    <path d="M9.93801198,13.6750518 L0.853253357,13.6750518 L0.853253357,5.33314523 L9.93801198,3.53066835 L9.93801198,13.6750518 L9.93801198,13.6750518 Z M0.853253357,14.8452082 L9.93801198,14.8452082 L9.93801198,24.9332643 L0.853253357,23.1680361 L0.853253357,14.8452082 L0.853253357,14.8452082 Z M25.6267706,13.6750518 L11.1295292,13.6750518 L11.1295292,3.41528803 L25.6267706,0.423576151 L25.6267706,13.6750518 L25.6267706,13.6750518 Z M11.1295292,14.8452082 L25.6267706,14.8452082 L25.6267706,27.9249761 L11.1295292,25.1058805 L11.1295292,14.8452082 L11.1295292,14.8452082 Z"/>
  </symbol>
  <symbol id="x-outline" viewBox="-719 451 100 100">
    <g>
      <path d="M-633.668,536.332c-19.495,19.495-51.216,19.495-70.711,0s-19.495-51.216,0-70.711s51.216-19.495,70.711,0
		S-614.173,516.837-633.668,536.332z M-698.653,471.347c-16.338,16.338-16.338,42.921,0,59.26c16.338,16.338,42.921,16.338,59.26,0
		c16.338-16.338,16.338-42.921,0-59.26C-655.731,455.009-682.315,455.009-698.653,471.347z"/>
      <path d="M-683.165,479.764l-7.778,7.778l13.435,13.435l-13.435,13.435l7.778,7.778l13.435-13.435l13.435,13.435l7.778-7.778
		l-13.435-13.435l13.435-13.435l-7.778-7.778l-13.435,13.435"/>
    </g>
  </symbol>
  <symbol id="x-solid" viewBox="-719 451 100 100">
    <g>
      <path d="M-704.355,465.645c-19.526,19.526-19.526,51.185,0,70.711s51.185,19.526,70.711,0s19.526-51.185,0-70.711
		C-653.172,446.118-684.829,446.118-704.355,465.645z M-646.374,486.858L-660.516,501l14.231,14.231l-9.281,9.103l-14.142-14.142
		l-14.142,14.142l-9.192-9.192l14.053-14.231l-13.524-13.524l9.623-9.445l13.524,13.524l13.801-13.801L-646.374,486.858z"/>
    </g>
  </symbol>
  <symbol id="xamarin" viewBox="0 0 34 30">
    <path d="M23.8150736,29.9652657 L11.0847487,29.9652657 C9.58493816,29.9652657 8.48995606,29.3350363 7.79887598,28.0755097 C6.37780784,25.6357013 4.25269029,21.935434 1.42352333,16.9756401 C0.732443251,15.7161134 0.732443251,14.4836233 1.42352333,13.276305 L7.91652634,1.99929994 C8.12496202,1.56671642 8.52237939,1.16023706 9.10877843,0.7789296 C9.16158214,0.726721243 9.5395455,0.56916388 10.2435949,0.307189803 L24.616393,0.307189803 C25.6854364,0.621372237 26.5201055,1.30381005 27.1194739,2.35357094 C27.7188423,3.40333183 28.5405421,4.83346789 29.5836468,6.64397913 C30.6267516,8.45449037 31.2983777,9.62172006 31.5975987,10.1466005 C31.8977461,10.671481 32.2951634,11.3408667 32.7907772,12.1538254 C33.2863909,12.9677164 33.6578696,13.7415188 33.9052133,14.4770973 L33.9052133,15.7748478 C33.6449003,16.4181294 32.9927282,17.6580779 31.9496234,19.4946933 C30.9065186,21.332241 29.2510761,24.2186173 26.9823696,28.1538222 C26.3181545,29.3611405 25.2620804,29.9652657 23.8150736,29.9652657 L23.8150736,29.9652657 Z M22.3680668,23.5883878 L24.8906017,23.5883878 C25.0730987,23.5883878 25.1833381,23.5688097 25.222246,23.5296534 C25.2491111,23.4895649 25.202792,23.3786221 25.0860681,23.1949606 L20.998876,15.5790665 C20.8682563,15.2508997 20.8682563,14.9553631 20.998876,14.6924567 C23.8410123,9.5107773 25.2491111,6.85374485 25.222246,6.72229167 C25.1963074,6.6831354 25.0990374,6.66355726 24.9295097,6.66355726 L22.3680668,6.66355726 C22.0679194,6.66355726 21.8659684,6.7884844 21.7612874,7.03740639 C21.1748883,8.16547982 20.2688879,9.85852225 19.0432861,12.1146691 L17.5962793,14.8108578 C17.4656596,15.0206235 17.361905,15.0607121 17.2831626,14.9292589 C17.2053466,14.8108578 17.0617576,14.5423577 16.8533219,14.1228263 C16.6448862,13.7023625 15.3738918,11.3278146 13.0394122,6.99825012 C12.9356575,6.7884844 12.7596452,6.67660935 12.5123015,6.66355726 L10.0286746,6.66355726 C9.81931251,6.66355726 9.69610386,6.6831354 9.65719587,6.72229167 C9.61736149,6.76238023 11.012491,9.43153247 13.8416579,14.7325453 C13.9982163,14.9954517 13.9982163,15.2639518 13.8416579,15.5389779 C10.9995216,20.8138866 9.59790749,23.4699867 9.63681549,23.509143 C9.66368053,23.5622837 9.76743518,23.5883878 9.9499322,23.5883878 L12.3946511,23.5883878 C12.7198108,23.5883878 12.9615962,23.4578669 13.1181545,23.1949606 L17.2053466,15.4606654 C17.2312853,15.4345612 17.2572239,15.395405 17.2831626,15.3422643 C17.3748743,15.1324986 17.5110523,15.2108111 17.6935493,15.5790665 C18.6060344,17.2972808 19.9622559,19.8489643 21.7612874,23.2341168 C21.8919071,23.4699867 22.0938581,23.5883878 22.3680668,23.5883878 L22.3680668,23.5883878 Z"/>
  </symbol>
</svg>