<?xml version="1.0" standalone="no"?>
<!DOCTYPE svg PUBLIC "-//W3C//DTD SVG 1.1//EN" "http://www.w3.org/Graphics/SVG/1.1/DTD/svg11.dtd" >
<svg xmlns="http://www.w3.org/2000/svg">
<metadata></metadata>
<defs>
<font id="edmondsans_regularregular" horiz-adv-x="1103" >
<font-face units-per-em="2048" ascent="1536" descent="-512" />
<missing-glyph horiz-adv-x="614" />
<glyph unicode="&#xfb01;" horiz-adv-x="983" d="M53 811v123h158v293q0 152 82.5 246t218.5 94q171 0 256 -127l-100 -80q-54 80 -146 80q-77 0 -123.5 -54t-46.5 -155v-297h234v-123h-234v-811h-141v811h-158zM672 1174q0 47 34.5 81.5t81.5 34.5t82 -34.5t35 -81.5t-35 -82t-82 -35t-81.5 35t-34.5 82zM717 0v934h143 v-934h-143z" />
<glyph unicode="&#xfb02;" horiz-adv-x="634" d="M53 811v123h158v293q0 152 82.5 246t218.5 94q171 0 256 -127l-100 -80q-54 80 -146 80q-77 0 -123.5 -54t-46.5 -155v-297h234v-123h-234v-811h-141v811h-158zM805 0v1536h143v-1536h-143z" />
<glyph horiz-adv-x="2048" />
<glyph horiz-adv-x="2048" />
<glyph unicode="&#xd;" horiz-adv-x="2048" />
<glyph unicode=" "  horiz-adv-x="614" />
<glyph unicode="&#x09;" horiz-adv-x="614" />
<glyph unicode="&#xa0;" horiz-adv-x="614" />
<glyph unicode="!" horiz-adv-x="495" d="M131 96q0 47 35 82t82 35t82 -35t35 -82t-35 -81.5t-82 -34.5t-82 34.5t-35 81.5zM170 1434h156l-11 -1024h-135z" />
<glyph unicode="&#x22;" horiz-adv-x="471" d="M61 1434h144l-10 -287h-123zM266 1434h144l-11 -287h-123z" />
<glyph unicode="#" horiz-adv-x="1208" d="M55 481v144h273v266h-273v143h273v400h143v-400h266v400h144v-400h280v-143h-280v-266h280v-144h-280v-481h-144v481h-266v-481h-143v481h-273zM471 625h266v266h-266v-266z" />
<glyph unicode="$" horiz-adv-x="1009" d="M106 287l138 45q28 -105 98 -166.5t160 -61.5q125 0 191.5 78.5t66.5 206.5q0 60 -30.5 119t-79.5 108t-108 98t-118.5 99t-108.5 101.5t-79.5 115t-30.5 129.5q0 107 64.5 185t162.5 102v151h143v-151q126 -27 187 -127l-119 -84q-60 92 -139 92q-70 0 -114 -48 t-44 -120q0 -46 30.5 -94t80 -92.5t109 -92.5t118.5 -101.5t108.5 -111t80 -129.5t30.5 -149q0 -153 -93.5 -264.5t-234.5 -136.5v-144h-143v142q-115 18 -205 96.5t-121 204.5z" />
<glyph unicode="%" horiz-adv-x="1441" d="M68 1161q0 114 79 193.5t193 79.5t193 -79.5t79 -193.5t-79 -193t-193 -79t-193 79t-79 193zM123 0l983 1434h174l-983 -1434h-174zM199 1161q0 -59 41.5 -100t99.5 -41t99.5 41t41.5 100t-41.5 100.5t-99.5 41.5t-99.5 -41.5t-41.5 -100.5zM805 272q0 114 79 193.5 t193 79.5t193.5 -79.5t79.5 -193.5t-79.5 -193t-193.5 -79t-193 79t-79 193zM936 272q0 -58 41 -99.5t100 -41.5t100.5 41.5t41.5 99.5t-41.5 100t-100.5 42q-58 0 -99.5 -41.5t-41.5 -100.5z" />
<glyph unicode="&#x26;" horiz-adv-x="1263" d="M43 438q0 86 29 161.5t79.5 132t110 98t129.5 71.5l-4 6q-98 121 -98 271q0 117 70 196.5t204 79.5q122 0 184 -72.5t62 -177.5q0 -115 -50.5 -200t-160.5 -144l334 -414q84 193 106 377h144q-55 -294 -160 -487l217 -268l-102 -86l-191 233q-177 -235 -436 -235 q-91 0 -174 30t-148.5 86t-105 145t-39.5 197zM184 446q0 -158 89.5 -250t246.5 -92q98 0 188.5 56t157.5 155l-395 488q-140 -68 -213.5 -154.5t-73.5 -202.5zM426 1178q0 -58 23.5 -110t74.5 -116q154 77 154 238q0 57 -33.5 97t-89.5 40q-59 0 -94 -42t-35 -107z" />
<glyph unicode="'" horiz-adv-x="266" d="M61 1434h144l-10 -287h-123z" />
<glyph unicode="(" horiz-adv-x="522" d="M72 702q0 256 62.5 476.5t187.5 384.5l106 -82q-221 -293 -221 -779q0 -485 221 -778l-106 -82q-250 328 -250 860z" />
<glyph unicode=")" horiz-adv-x="522" d="M72 -76q221 293 221 778q0 486 -221 779l106 82q125 -164 187.5 -384.5t62.5 -476.5q0 -532 -250 -860z" />
<glyph unicode="*" horiz-adv-x="722" d="M53 1063l189 104l-189 105l60 106l188 -112l-4 219h123l-4 -219l188 112l60 -106l-189 -105l189 -104l-60 -107l-188 113l4 -219h-123l4 219l-188 -113z" />
<glyph unicode="+" horiz-adv-x="907" d="M82 717v123h309v311h123v-311h311v-123h-311v-309h-123v309h-309z" />
<glyph unicode="," horiz-adv-x="440" d="M94 98q0 46 35 80.5t82 34.5q94 0 125 -90q30 -86 -10 -195q-42 -114 -133 -162q-12 -7 -25 -12l-57 80q50 28 78.5 64.5t32.5 59.5l3 22h-14q-48 0 -82.5 34.5t-34.5 83.5z" />
<glyph unicode="-" horiz-adv-x="661" d="M82 512v123h498v-123h-498z" />
<glyph unicode="." horiz-adv-x="495" d="M131 96q0 47 35 82t82 35t82 -35t35 -82t-35 -81.5t-82 -34.5t-82 34.5t-35 81.5z" />
<glyph unicode="/" horiz-adv-x="653" d="M-35 -205l574 1843h143l-573 -1843h-144z" />
<glyph unicode="0" horiz-adv-x="1392" d="M82 717q0 152 41 285t116.5 234t193.5 159.5t263 58.5q144 0 262 -58t194.5 -158.5t117.5 -234t41 -286.5q0 -119 -25.5 -229t-77.5 -202.5t-124.5 -160.5t-172 -106.5t-215.5 -38.5t-216 38.5t-172 106.5t-123.5 161t-77 202t-25.5 229zM225 717q0 -124 29.5 -231.5 t86 -191t148 -131.5t207.5 -48t207.5 49t148 133t86 191t29.5 229q0 123 -29 230t-85 191t-148 132.5t-209 48.5t-209 -49t-148 -133t-85 -191t-29 -229z" />
<glyph unicode="1" horiz-adv-x="780" d="M106 1305l259 129h106v-1311h205v-123h-553v123h205v1153l-166 -82z" />
<glyph unicode="2" horiz-adv-x="1099" d="M123 0v111q15 10 40 28t97.5 76.5t138.5 119t146.5 149.5t138.5 175t97.5 188.5t39.5 196.5q0 126 -77 197.5t-183 71.5q-105 0 -182.5 -70.5t-77.5 -195.5q0 -41 6.5 -75.5t13.5 -48.5l7 -14l-135 -39q-4 6 -10 18.5t-15.5 58t-9.5 100.5q0 95 34.5 173t92 126t128.5 74 t148 26q78 0 149 -25.5t128.5 -74t92 -127t34.5 -175.5q0 -106 -44.5 -222t-107.5 -210.5t-150 -192t-152.5 -159t-133.5 -117.5h600v-143h-854z" />
<glyph unicode="3" horiz-adv-x="1050" d="M80 242l117 61q3 -8 9 -21.5t31 -48t57 -60.5t89 -47.5t125 -21.5q60 0 111.5 19t87 52t61 76.5t37.5 91.5t12 99q0 127 -72 218.5t-202 91.5h-92v120q101 0 164 74t63 184q0 92 -51 142.5t-121 50.5q-66 0 -114.5 -43.5t-49.5 -120.5h-141q0 71 26 129.5t69 94.5 t96.5 55.5t111.5 19.5q128 0 221.5 -86.5t93.5 -241.5q0 -91 -41 -169t-116 -125q139 -37 216.5 -143.5t77.5 -246.5q0 -91 -28.5 -173.5t-83 -148.5t-142 -105t-196.5 -39q-70 0 -131.5 14.5t-103.5 37.5t-76.5 51t-55 56t-34.5 51t-19 38z" />
<glyph unicode="4" horiz-adv-x="1048" d="M61 369v82l611 983h106v-942h205v-123h-205v-369h-143v369h-574zM236 492h399v632z" />
<glyph unicode="5" horiz-adv-x="1132" d="M72 242l114 82q5 -9 14 -23t41.5 -50.5t70 -64t99.5 -50.5t130 -23q92 0 166.5 31t121 83.5t71 120.5t24.5 144q0 93 -38.5 171.5t-123 130.5t-201.5 52q-55 0 -105 -14t-83 -36t-49 -35.5t-25 -23.5v-2l-106 64v635h684v-144h-545v-395q102 80 250 80q100 0 182 -27 t137.5 -72.5t94 -108t56 -131.5t17.5 -144q0 -104 -34 -196t-99 -163t-167.5 -112t-229.5 -41q-70 0 -134 14.5t-109.5 37.5t-84.5 51t-64 56t-42.5 51t-24.5 38z" />
<glyph unicode="6" horiz-adv-x="1169" d="M111 555q0 151 42.5 293.5t122.5 263t204.5 211t279.5 131.5l47 -135q-90 -27 -168 -71t-131 -93t-96.5 -101.5t-69 -100t-42.5 -85t-24 -60.5l-6 -22q64 89 153 130.5t222 41.5q87 0 160.5 -27t125.5 -73t89 -107.5t54.5 -131t17.5 -142.5q0 -95 -30.5 -182.5 t-88 -158.5t-150 -113.5t-207.5 -42.5q-124 0 -222.5 46t-159 126t-92 182.5t-31.5 220.5zM276 463q0 -93 36 -173.5t113.5 -134t184.5 -53.5q101 0 176.5 55t111.5 137.5t36 176.5q0 92 -34 170t-109 130t-179 52q-65 0 -120.5 -20t-94.5 -54.5t-66.5 -81t-41 -98 t-13.5 -106.5z" />
<glyph unicode="7" horiz-adv-x="995" d="M94 1290v144h793v-111q-15 -24 -40 -69t-89 -187.5t-113 -289.5t-89 -361t-40 -416h-143q0 167 27 343t64.5 311t89 271.5t87.5 214.5t74 150h-621z" />
<glyph unicode="8" horiz-adv-x="1071" d="M80 420q0 147 73 251.5t197 151.5q-71 45 -112 120t-41 167q0 89 37.5 165.5t116.5 127.5t186 51t186 -51t116.5 -127.5t37.5 -165.5q0 -92 -41.5 -167t-112.5 -120q123 -47 196.5 -152t73.5 -251q0 -84 -29 -161.5t-84 -140.5t-144 -100.5t-199 -37.5q-89 0 -164.5 24.5 t-128.5 67t-90.5 99t-55.5 119.5t-18 130zM219 428q0 -84 34 -156t108 -120t176 -48q77 0 139 27.5t100 74t58 103.5t20 119q0 61 -20 118t-58 103t-100 73.5t-139 27.5q-102 0 -176 -48t-108 -119.5t-34 -154.5zM342 1106q0 -95 52 -164.5t143 -69.5t142.5 69.5t51.5 164.5 q0 93 -51.5 161t-142.5 68q-92 0 -143.5 -68t-51.5 -161z" />
<glyph unicode="9" horiz-adv-x="1183" d="M98 956q0 75 18.5 147t57.5 135.5t94.5 111.5t134 76t170.5 28q124 0 222.5 -46t159.5 -126t92.5 -182.5t31.5 -220.5q0 -151 -42.5 -293.5t-122.5 -263t-204.5 -211t-279.5 -131.5l-47 135q90 27 168 71t131 92.5t96.5 101.5t69 100t42.5 84.5t24 59.5l6 23 q-64 -89 -153 -130.5t-222 -41.5q-87 0 -160.5 27t-125.5 73t-89 107.5t-54.5 131t-17.5 142.5zM256 963q0 -92 34 -170.5t109 -130.5t179 -52q107 0 185 53.5t114 134t36 173.5t-35.5 173t-113 133.5t-184.5 53.5q-101 0 -176.5 -55t-111.5 -137t-36 -176z" />
<glyph unicode=":" horiz-adv-x="495" d="M131 96q0 47 35 82t82 35t82 -35t35 -82t-35 -81.5t-82 -34.5t-82 34.5t-35 81.5zM131 711q0 47 35 81.5t82 34.5t82 -34.5t35 -81.5t-35 -82t-82 -35t-82 35t-35 82z" />
<glyph unicode=";" horiz-adv-x="507" d="M131 711q0 47 35 81.5t82 34.5t82 -34.5t35 -81.5t-35 -82t-82 -35t-82 35t-35 82zM143 109q0 41 32 72.5t75 31.5q87 0 115 -84q27 -81 -13 -182q-41 -105 -127 -146l-14 -6l-53 72q45 26 71 59.5t29 53.5l4 20h-12q-43 0 -75 32.5t-32 76.5z" />
<glyph unicode="&#x3c;" horiz-adv-x="649" d="M61 774l414 414l100 -101l-286 -286l-29 -27l29 -26l286 -287l-100 -101z" />
<glyph unicode="=" horiz-adv-x="880" d="M123 553v123h635v-123h-635zM123 881v123h635v-123h-635z" />
<glyph unicode="&#x3e;" horiz-adv-x="649" d="M74 461l286 287l8.5 8.5t8 7t6 5l3.5 3.5t1 2l-3 2l-6 6l-8 8t-10 11l-286 286l100 101l414 -414l-414 -414z" />
<glyph unicode="?" horiz-adv-x="1011" d="M92 1047q0 95 34.5 173t92.5 126t129 74t148 26q176 0 289.5 -94t113.5 -267q0 -79 -25.5 -146t-66.5 -112t-90 -83t-98.5 -67.5t-90.5 -56.5t-66.5 -59t-25.5 -67q0 -36 20.5 -56t49.5 -20q28 0 48.5 20t20.5 56h109q0 -84 -57 -130.5t-131 -46.5q-75 0 -129 46.5 t-54 130.5q0 57 24.5 103t63.5 78.5t86.5 62.5t94.5 62t86 69.5t63.5 92.5t24.5 123q0 114 -72 176t-188 62q-106 0 -183 -73t-77 -203q0 -41 6.5 -75.5t13.5 -48.5l6 -14l-135 -39q-4 6 -10 18.5t-15.5 58t-9.5 100.5zM410 74q0 38 28 65t66 27t66 -27t28 -65t-28 -66 t-66 -28t-66 28t-28 66z" />
<glyph unicode="@" horiz-adv-x="1576" d="M66 717q0 200 97.5 369.5t266.5 268.5t369 99q149 0 282.5 -58.5t228.5 -157.5t150.5 -235t55.5 -286q0 -102 -27 -184t-71 -130.5t-95.5 -74t-105.5 -25.5q-60 0 -109 32t-72 89q-101 -109 -258 -109q-87 0 -158 34t-114.5 90.5t-66.5 126.5t-23 145q0 77 23.5 147.5 t67.5 127t115.5 90.5t159.5 34q140 0 238 -109v84h117v-567q0 -59 27 -92t67 -33q68 0 124 85.5t56 238.5q0 174 -79 319.5t-219.5 230.5t-313.5 85q-172 0 -313.5 -85.5t-220.5 -231t-79 -318.5q0 -176 79.5 -321.5t220.5 -229.5t313 -84q217 0 377 129l65 -84 q-197 -147 -442 -147q-150 0 -286 58t-234 157t-155.5 235.5t-57.5 286.5zM541 711q0 -75 28.5 -140t90 -108t145.5 -43q104 0 163.5 87t59.5 206q0 118 -58.5 204.5t-164.5 86.5q-125 0 -194.5 -87t-69.5 -206z" />
<glyph unicode="A" horiz-adv-x="1124" d="M31 0l463 1434h137l463 -1434h-154l-141 457h-473l-140 -457h-155zM362 580h400l-164 534q-8 25 -16.5 57t-13.5 53.5t-5 24.5q-1 -2 -6.5 -24t-14.5 -54.5t-16 -56.5z" />
<glyph unicode="B" horiz-adv-x="1167" d="M205 0v1434h330q164 0 259 -97t95 -258q0 -156 -129 -241q130 -50 207 -158t77 -246q0 -92 -32.5 -169.5t-96.5 -137t-169 -93.5t-240 -34h-301zM348 131h230q148 0 235.5 88t87.5 215q0 129 -87 221.5t-234 92.5h-232v-617zM348 870h187q101 0 155.5 59t54.5 150 q0 95 -53 159.5t-157 64.5h-187v-433z" />
<glyph unicode="C" horiz-adv-x="1441" d="M90 717q0 200 98.5 369.5t268 268.5t370.5 99q150 0 284.5 -56.5t236.5 -158.5l-101 -102q-83 83 -192 132.5t-228 49.5q-162 0 -299 -81.5t-216 -220t-79 -300.5q0 -122 47 -233t126 -192t189.5 -129t231.5 -48t230 50t194 136l101 -102q-102 -103 -238 -161t-287 -58 q-150 0 -286.5 58t-235.5 157t-157 235.5t-58 286.5z" />
<glyph unicode="D" horiz-adv-x="1417" d="M205 0v1434h350q739 0 739 -697q0 -346 -187 -541.5t-491 -195.5h-411zM348 123h268q237 0 385 165t148 451q0 157 -40.5 268.5t-119.5 177.5t-185.5 96t-248.5 30h-207v-1188z" />
<glyph unicode="E" horiz-adv-x="1114" d="M205 0v1434h766v-136h-623v-483h498v-135h-498v-545h623v-135h-766z" />
<glyph unicode="F" horiz-adv-x="1044" d="M205 0v1434h766v-136h-623v-483h498v-135h-498v-682z" />
<glyph unicode="G" horiz-adv-x="1515" d="M90 717q0 200 98.5 369.5t268 268.5t370.5 99q150 0 284.5 -56.5t236.5 -158.5l-101 -102q-83 83 -192 132.5t-228 49.5q-162 0 -299 -81.5t-216 -220t-79 -300.5q0 -122 47 -233t126 -192t189.5 -129t231.5 -48q233 0 381 131v387h-383v135h527v-569 q-102 -103 -238 -161t-287 -58q-150 0 -286.5 58t-235.5 157t-157 235.5t-58 286.5z" />
<glyph unicode="H" horiz-adv-x="1228" d="M164 0v1434h143v-557h615v557h143v-1434h-143v743h-615v-743h-143z" />
<glyph unicode="I" horiz-adv-x="694" d="M102 0v123h174v1188h-174v123h490v-123h-172v-1188h172v-123h-490z" />
<glyph unicode="J" horiz-adv-x="937" d="M31 287l137 45q23 -113 75.5 -166t141.5 -53q98 0 157.5 76.5t59.5 199.5v1045h143v-1045q0 -186 -98.5 -297.5t-263.5 -111.5q-133 0 -227 76t-125 231z" />
<glyph unicode="K" horiz-adv-x="1150" d="M205 0v1434h143v-560q0 -15 -1 -34.5t-2 -33t-1 -15.5q6 18 45 67l432 576h156l-377 -506l490 -928h-156l-389 729q-9 17 -17.5 36t-13.5 31l-6 13l-53 -76l-107 -143v-590h-143z" />
<glyph unicode="L" horiz-adv-x="983" d="M205 0v1434h143v-1291h574v-143h-717z" />
<glyph unicode="M" horiz-adv-x="1818" d="M143 0l197 1434h152l395 -1088l20 -72q12 47 21 72l399 1088h152l196 -1434h-151l-133 1124q-11 75 -11 93q-1 -4 -10 -36t-16 -53l-400 -1128h-90l-401 1128q-22 56 -29 89q0 -19 -8 -93l-131 -1124h-152z" />
<glyph unicode="N" horiz-adv-x="1290" d="M205 0v1434h153l551 -758q8 -12 17 -26.5t14 -23.5t6 -10q0 1 -1 12.5t-2 28t-1 31.5v746h143v-1434h-143v389l-561 764q-22 26 -37 55q0 -1 1 -12.5t2 -27.5t1 -29v-1139h-143z" />
<glyph unicode="O" horiz-adv-x="1654" d="M90 717q0 200 98.5 369.5t268 268.5t370.5 99q150 0 286.5 -58.5t235.5 -157.5t157.5 -235t58.5 -286t-58.5 -286.5t-157.5 -235.5t-235.5 -157t-286.5 -58t-286.5 58t-235.5 157t-157 235.5t-58 286.5zM233 717q0 -127 45.5 -239t124 -191.5t188.5 -125.5t236 -46 q167 0 303.5 79t213.5 217t77 306q0 126 -45 238t-123.5 191.5t-189 126t-236.5 46.5q-168 0 -304.5 -79t-213 -217t-76.5 -306z" />
<glyph unicode="P" horiz-adv-x="1128" d="M205 0v1434h416q212 0 329 -121t117 -305q0 -186 -121 -305t-325 -119h-273v-584h-143zM348 719h273q154 0 228.5 78.5t74.5 210.5q0 134 -77 212t-226 78h-273v-579z" />
<glyph unicode="Q" horiz-adv-x="1654" d="M90 717q0 200 98.5 369.5t268 268.5t370.5 99q150 0 286.5 -58.5t235.5 -157.5t157.5 -235t58.5 -286q0 -132 -45.5 -253.5t-126.5 -219.5l178 -178l-86 -86l-178 176q-98 -84 -221.5 -130t-258.5 -46q-150 0 -286.5 58t-235.5 157t-157 235.5t-58 286.5zM233 717 q0 -127 45.5 -239t124 -191.5t188.5 -125.5t236 -46q223 0 385 137l-190 190l86 86l188 -188q125 163 125 377q0 126 -45 238t-123.5 191.5t-189 126t-236.5 46.5q-168 0 -304.5 -79t-213 -217t-76.5 -306z" />
<glyph unicode="R" horiz-adv-x="1212" d="M205 0v1434h416q212 0 329 -121t117 -305q0 -134 -65.5 -237t-182.5 -150l271 -621h-156l-256 586q-18 -2 -57 -2h-273v-584h-143zM348 719h273q154 0 228.5 78.5t74.5 210.5q0 134 -77 212t-226 78h-273v-579z" />
<glyph unicode="S" horiz-adv-x="968" d="M82 287l137 45q28 -105 98 -166.5t160 -61.5q125 0 191.5 78.5t66.5 206.5q0 60 -30.5 119t-79.5 108t-108 98t-118.5 99t-108.5 101.5t-79.5 115t-30.5 129.5q0 129 88 212t211 83q77 0 147 -34.5t111 -100.5l-119 -84q-60 92 -139 92q-69 0 -113 -48t-44 -120 q0 -46 30.5 -94t80 -92.5t109 -92.5t118.5 -101.5t108.5 -111t80 -129.5t30.5 -149q0 -173 -118.5 -291t-285.5 -118q-134 0 -245 81t-148 226z" />
<glyph unicode="T" horiz-adv-x="880" d="M41 1298v136h799v-136h-328v-1298h-143v1298h-328z" />
<glyph unicode="U" horiz-adv-x="1282" d="M193 498v936h145v-988q0 -149 88.5 -242t214.5 -93t214.5 93t88.5 242v988h146v-936q0 -135 -36 -237t-99 -162t-142 -89.5t-172 -29.5q-74 0 -139 18t-122 58t-98.5 99t-65 147t-23.5 196z" />
<glyph unicode="V" d="M20 1434h154l352 -1147q3 -10 27 -107q0 27 25 107l350 1147h155l-462 -1434h-138z" />
<glyph unicode="W" horiz-adv-x="1740" d="M20 1434h152l416 -1141l33 -111q12 60 30 111l150 424l-266 717h151l148 -404q12 -33 22 -68.5t14 -55.5l4 -19q14 69 41 143l146 404h145l-262 -717l158 -424q8 -22 16 -48.5t12 -43t5 -17.5q7 36 32 109l408 1141h145l-524 -1434h-137l-152 418q-37 98 -37 127 q-1 -2 -6.5 -24.5t-13 -50t-16.5 -52.5l-152 -418h-137z" />
<glyph unicode="X" horiz-adv-x="1083" d="M41 0l424 793l-342 641h151l236 -443l31 -63q7 22 30 63l238 443h152l-345 -641l426 -793h-149l-322 596q-30 55 -30 63l-5 -10q-5 -10 -12 -24.5t-14 -28.5l-320 -596h-149z" />
<glyph unicode="Y" d="M20 1434h175l317 -426l39 -56q16 25 41 58l315 424h176l-460 -613v-821h-144v823z" />
<glyph unicode="Z" horiz-adv-x="1187" d="M131 0v123l690 1130l29 45h-686v136h860v-123l-690 -1131l-29 -45h719v-135h-893z" />
<glyph unicode="[" horiz-adv-x="409" d="M102 -205v1843h287v-122h-143v-1598h143v-123h-287z" />
<glyph unicode="\" horiz-adv-x="649" d="M-35 1638h144l573 -1843h-143z" />
<glyph unicode="]" horiz-adv-x="409" d="M20 -82h144v1598h-144v122h287v-1843h-287v123z" />
<glyph unicode="^" horiz-adv-x="954" d="M63 1087l347 347h133l348 -347l-100 -100l-287 287q-8 7 -27 26l-26 -26l-287 -287z" />
<glyph unicode="_" horiz-adv-x="1087" d="M-2 -143h1092v-123h-1092v123z" />
<glyph unicode="`" horiz-adv-x="382" d="M-51 1266l88 96l297 -277l-88 -96z" />
<glyph unicode="a" horiz-adv-x="1056" d="M87 210q-3 23 -3 46q0 22 3 46q6 46 32.5 90.5t65 80.5t98 60.5t131.5 31.5q51 5 101 4q142 0 273 -37v64q0 110 -71 176t-189 66q-72 0 -143 -33.5t-113 -95.5l-108 84q5 7 14 19t42 42.5t71 53.5t102 42t135 19q182 0 287 -101.5t105 -271.5v-406q0 -26 15.5 -41.5 t41.5 -15.5h18v-133h-18q-78 0 -129 44.5t-60 117.5q-133 -182 -378 -182q-70 0 -128.5 18.5t-97 50t-65 73.5t-32.5 88zM226 230q8 -34 30 -62.5t67 -46t105 -17.5q90 0 161 31.5t112 81.5t63 103t24 104q-135 30 -258 30q-52 0 -102 -5q-52 -6 -95 -28t-67 -53t-36 -67 q-7 -21 -8 -42q1 -15 4 -29z" />
<glyph unicode="b" horiz-adv-x="1101" d="M143 0v1536h136v-664q0 -40 -7 -94q103 176 308 176q183 0 303.5 -129.5t120.5 -353.5t-121 -357.5t-303 -133.5q-202 0 -306 172q5 -93 5 -152h-136zM279 467q0 -169 76 -268t212 -99q121 0 210 105t89 266q0 160 -88.5 261.5t-210.5 101.5q-136 0 -212 -99t-76 -268z " />
<glyph unicode="c" horiz-adv-x="1017" d="M102 469q0 133 63 245.5t172 178t238 65.5q100 0 189.5 -40.5t155.5 -112.5l-89 -90q-106 121 -256 121q-149 0 -241 -103.5t-92 -263.5q0 -161 94 -264t239 -103q87 0 156.5 36.5t112.5 101.5l96 -82q-65 -85 -159 -131.5t-206 -46.5q-129 0 -238 65.5t-172 178 t-63 245.5z" />
<glyph unicode="d" horiz-adv-x="1085" d="M82 471q0 224 120.5 353.5t303.5 129.5q204 0 305 -168q-4 58 -4 86v664h135v-1536h-135q0 110 4 147q-102 -167 -305 -167q-182 0 -303 133.5t-121 357.5zM219 471q0 -161 89 -266t210 -105q136 0 212.5 99t76.5 268t-76.5 268t-212.5 99q-122 0 -210.5 -101.5 t-88.5 -261.5z" />
<glyph unicode="e" horiz-adv-x="1046" d="M74 469q0 207 129 348t334 141q105 0 189.5 -37.5t137.5 -101t81 -145.5t28 -174v-72h-760q12 -152 109 -237t231 -85q107 0 186.5 44.5t126.5 115.5l101 -84q-74 -97 -169 -149.5t-245 -52.5q-142 0 -252.5 66t-168.5 177t-58 246zM215 537h614q-15 139 -90 219t-202 80 q-126 0 -215 -78.5t-107 -220.5z" />
<glyph unicode="f" horiz-adv-x="634" d="M53 811v123h158v293q0 152 82.5 246t218.5 94q171 0 256 -127l-100 -80q-54 80 -146 80q-77 0 -123.5 -54t-46.5 -155v-297h234v-123h-234v-811h-141v811h-158z" />
<glyph unicode="g" horiz-adv-x="1099" d="M98 -264q16 72 70 137q-47 58 -47 136q0 29 7 61q24 117 116 182q-113 119 -113 287q0 172 123 293.5t299 121.5q131 0 240 -75l145 153l100 -100l-151 -144q84 -111 84 -249q0 -173 -121.5 -294.5t-296.5 -121.5q-133 0 -236 70q-47 -45 -62 -109q-5 -23 -5 -44 q0 -38 18 -70q27 -50 92 -50q42 0 169.5 26.5t201.5 26.5q135 0 218 -76.5t83 -191.5q0 -142 -124 -239t-343 -97q-121 0 -218.5 31t-154.5 83t-83 117q-16 40 -16 83q0 26 5 53zM214 -261q-1 -8 -1 -16q0 -35 17 -69q21 -41 62.5 -75.5t113 -55.5t159.5 -21 q163 0 245.5 59.5t82.5 143.5q0 60 -41 104t-121 44q-51 0 -172.5 -28t-198.5 -28q-58 0 -112 21q-29 -36 -34 -79zM270 539q0 -129 82.5 -216t200.5 -87q121 0 198.5 86.5t77.5 216.5q0 131 -77.5 217t-198.5 86q-124 0 -203.5 -86.5t-79.5 -216.5z" />
<glyph unicode="h" horiz-adv-x="1126" d="M143 0v1536h136v-664q0 -16 -5 -88q54 77 139 123.5t183 46.5q181 0 284 -109.5t103 -320.5v-524h-137v524q0 151 -70.5 230.5t-191.5 79.5q-131 0 -215.5 -87t-89.5 -212v-535h-136z" />
<glyph unicode="i" horiz-adv-x="430" d="M98 1174q0 47 35 81.5t82 34.5t82 -34.5t35 -81.5t-35 -82t-82 -35t-82 35t-35 82zM143 0v934h144v-934h-144z" />
<glyph unicode="j" horiz-adv-x="518" d="M-250 -377l139 41q32 -153 179 -153q68 0 115.5 54t47.5 138v1231h144v-1227q0 -148 -89 -244t-216 -96q-243 0 -320 256zM186 1174q0 47 35 81.5t82 34.5t82 -34.5t35 -81.5t-35 -82t-82 -35t-82 35t-35 82z" />
<glyph unicode="k" horiz-adv-x="966" d="M143 0v1536h144v-995l354 397h156l-285 -330l434 -608h-155l-373 500l-131 -152v-348h-144z" />
<glyph unicode="l" horiz-adv-x="430" d="M143 0v1536h144v-1536h-144z" />
<glyph unicode="m" horiz-adv-x="1585" d="M143 0v934h136v-62q0 -10 -5 -67q49 72 121.5 110.5t157.5 38.5q97 0 169.5 -44t106.5 -132q44 86 120.5 131t176.5 45q139 0 227.5 -87.5t88.5 -258.5v-608h-137v610q0 100 -48 162t-151 62q-105 0 -174 -80t-72 -213v-541h-137v610q0 100 -48 162t-151 62 q-104 0 -173 -80t-72 -213v-541h-136z" />
<glyph unicode="n" horiz-adv-x="1126" d="M143 0v934h136v-62q0 -16 -5 -88q54 77 139 123.5t183 46.5q181 0 284 -109.5t103 -320.5v-524h-137v524q0 151 -70.5 230.5t-191.5 79.5q-131 0 -215.5 -87t-89.5 -212v-535h-136z" />
<glyph unicode="o" horiz-adv-x="1110" d="M82 469q0 133 63 245.5t172 178t238 65.5t238 -65.5t172 -178t63 -245.5t-63 -245.5t-172 -178t-238 -65.5t-238 65.5t-172 178t-63 245.5zM221 469q0 -161 94.5 -264t239.5 -103q150 0 242 102.5t92 264.5q0 161 -92.5 264t-241.5 103t-241.5 -103.5t-92.5 -263.5z" />
<glyph unicode="p" horiz-adv-x="1097" d="M143 -512v1446h136v-62q0 -15 -5 -77q53 73 132 116t174 43q183 0 303.5 -129.5t120.5 -353.5t-121 -357.5t-303 -133.5q-95 0 -174 42t-132 115q5 -88 5 -137v-512h-136zM279 467q0 -169 76 -268t212 -99q121 0 210 105t89 266q0 160 -88.5 261.5t-210.5 101.5 q-136 0 -212 -99t-76 -268z" />
<glyph unicode="q" horiz-adv-x="1097" d="M94 471q0 224 120.5 353.5t303.5 129.5q94 0 173 -43t130 -116q-2 25 -2 77v62h135v-1446h-135v512q0 102 2 137q-51 -73 -130 -115t-173 -42q-182 0 -303 133.5t-121 357.5zM231 471q0 -161 89 -266t210 -105q136 0 212.5 99t76.5 268t-76.5 268t-212.5 99 q-122 0 -210.5 -101.5t-88.5 -261.5z" />
<glyph unicode="r" horiz-adv-x="593" d="M143 0v934h136v-62q0 -22 -3 -43q90 127 254 127v-127q-112 -7 -180 -88.5t-71 -205.5v-535h-136z" />
<glyph unicode="s" horiz-adv-x="835" d="M61 186l123 58q36 -68 98.5 -107t131.5 -39q83 0 127.5 41t44.5 103q0 99 -164 172q-38 16 -59.5 26t-56.5 29t-56 34t-46.5 38.5t-39.5 47t-23.5 54.5t-9.5 66q0 115 78 180t184 65q80 0 148.5 -35t99.5 -100l-115 -57q-38 74 -135 74q-49 0 -85 -32t-36 -89 q0 -51 48.5 -88.5t142.5 -81.5q44 -21 77 -38.5t71 -45.5t62 -56.5t40 -68.5t16 -84q0 -116 -81.5 -194t-231.5 -78q-110 0 -206 54t-147 152z" />
<glyph unicode="t" horiz-adv-x="593" d="M61 811v123h164v397h144v-397h163v-123h-163v-811h-144v811h-164z" />
<glyph unicode="u" horiz-adv-x="1126" d="M143 410v524h138v-524q0 -151 70.5 -230.5t191.5 -79.5q135 0 220 91t85 221v522h135v-934h-135v61q0 57 4 86q-56 -77 -139.5 -122t-182.5 -45q-181 0 -284 109.5t-103 320.5z" />
<glyph unicode="v" horiz-adv-x="983" d="M25 934h153l301 -731l324 731h155l-409 -934h-137z" />
<glyph unicode="w" horiz-adv-x="1560" d="M27 934h153l260 -731l283 731h113l260 -731l282 731h156l-369 -934h-137l-252 684l-266 -684h-137z" />
<glyph unicode="x" horiz-adv-x="1019" d="M51 0l373 479l-352 455h170l268 -344l268 344h170l-354 -455l375 -479h-170l-289 371l-289 -371h-170z" />
<glyph unicode="y" horiz-adv-x="1028" d="M45 934h154l301 -731l323 731h156l-59 -139l-355 -795l-268 -606h-154l279 629z" />
<glyph unicode="z" horiz-adv-x="1044" d="M90 0v131l647 672h-614v131h799v-131l-650 -672h650v-131h-832z" />
<glyph unicode="{" horiz-adv-x="479" d="M41 657v131q74 0 108.5 35t34.5 107v508q0 86 61 148.5t148 62.5h19v-133h-19q-26 0 -52 -26t-26 -52v-508q0 -156 -127 -207q127 -54 127 -207v-508q0 -26 26 -52t52 -26h19v-133h-19q-87 0 -148 62.5t-61 148.5v508q0 71 -34.5 106t-108.5 35z" />
<glyph unicode="|" horiz-adv-x="471" d="M164 -115v1651h143v-1651h-143z" />
<glyph unicode="}" horiz-adv-x="479" d="M68 -70h18q26 0 52 26t26 52v508q0 154 127 207q-127 50 -127 207v508q0 26 -26 52t-52 26h-18v133h18q87 0 148 -62.5t61 -148.5v-508q0 -72 34.5 -107t108.5 -35v-131q-74 0 -108.5 -35t-34.5 -106v-508q0 -86 -61 -148.5t-148 -62.5h-18v133z" />
<glyph unicode="~" horiz-adv-x="1015" d="M59 791q80 120 250 120q66 0 182.5 -48t165.5 -48q48 0 93.5 20.5t66.5 57.5l103 -68q-47 -70 -118 -104.5t-147 -34.5q-56 0 -118 24t-123 48t-113 24q-89 0 -149 -63z" />
<glyph unicode="&#xa1;" horiz-adv-x="495" d="M131 1337q0 47 35 82t82 35t82 -35t35 -82t-35 -81.5t-82 -34.5t-82 34.5t-35 81.5zM170 0l10 1024h135l11 -1024h-156z" />
<glyph unicode="&#xa2;" horiz-adv-x="921" d="M41 735q0 180 111.5 316.5t279.5 165.5v217h143v-213q166 -24 283 -150l-88 -90q-106 121 -256 121q-149 0 -241.5 -103.5t-92.5 -263.5q0 -161 94.5 -263.5t239.5 -102.5q87 0 156 36t112 101l97 -82q-56 -74 -134 -119t-170 -55v-250h-143v252q-169 31 -280 167 t-111 316z" />
<glyph unicode="&#xa3;" horiz-adv-x="1067" d="M74 602v123h141q-14 158 -14 313q0 100 33 181t88 131t123 77t143 27q79 0 146 -23.5t119 -69.5t82 -121.5t30 -172.5q0 -47 -8.5 -91t-17.5 -64l-9 -21l-135 39q26 45 26 137q0 115 -66.5 184.5t-170.5 69.5q-105 0 -172.5 -73.5t-67.5 -209.5q0 -80 14 -313h336v-123 h-325q4 -94 4 -137q0 -203 -60 -342h668v-123h-887v123h86q58 135 58 295q0 63 -11 184h-153z" />
<glyph unicode="&#xa4;" horiz-adv-x="1048" d="M72 1016l88 88l131 -133q96 73 233 73q138 0 234 -73l131 133l88 -88l-135 -135q63 -104 63 -226q0 -130 -67 -231l137 -135l-88 -88l-133 135q-96 -70 -230 -70q-133 0 -229 70l-133 -135l-88 88l137 135q-68 103 -68 231q0 125 64 226zM297 655q0 -103 59.5 -178.5 t167.5 -75.5q106 0 167 75.5t61 178.5t-60 178.5t-168 75.5t-167.5 -75.5t-59.5 -178.5z" />
<glyph unicode="&#xa5;" horiz-adv-x="1001" d="M-29 1434h174l357 -478l356 478h176l-461 -613v-55h244v-123h-244v-123h244v-123h-244v-397h-143v397h-248v123h248v123h-248v123h248v57z" />
<glyph unicode="&#xa6;" horiz-adv-x="389" d="M123 -123v799h143v-799h-143zM123 799v757h143v-757h-143z" />
<glyph unicode="&#xa7;" horiz-adv-x="1015" d="M102 287l138 45q28 -105 98 -166.5t160 -61.5q96 0 157.5 47t61.5 128q0 45 -20 81.5t-54 62t-77.5 46.5t-92 39t-97 37t-92 42.5t-77.5 52t-54 70.5t-20 93q0 62 40.5 123t90.5 84q-49 62 -49 149q0 130 89.5 212.5t219.5 82.5q77 0 147 -34.5t111 -100.5l-118 -84 q-53 82 -142 82q-70 0 -115 -38t-45 -99q0 -46 31 -84.5t80 -66.5t108.5 -55t119 -57t108.5 -64.5t80 -85t31 -112.5q0 -79 -28.5 -134t-70.5 -81q39 -67 39 -143q0 -137 -95.5 -227t-268.5 -90q-134 0 -245.5 81t-148.5 226zM260 831q0 -54 47 -95t108.5 -63t150.5 -56.5 t143 -67.5q20 -11 41 -29q26 44 26 98q0 52 -29 92.5t-80 69.5t-104.5 52.5t-119 54t-107.5 59.5q-33 -18 -54.5 -50t-21.5 -65z" />
<glyph unicode="&#xa8;" horiz-adv-x="761" d="M92 1237q0 43 30 73.5t73 30.5t73.5 -30.5t30.5 -73.5t-30.5 -72.5t-73.5 -29.5t-73 29.5t-30 72.5zM471 1237q0 43 29.5 73.5t72.5 30.5t74 -30.5t31 -73.5q0 -42 -31 -72t-74 -30t-72.5 29.5t-29.5 72.5z" />
<glyph unicode="&#xa9;" horiz-adv-x="1622" d="M74 717q0 200 98.5 369.5t268 268.5t370.5 99q200 0 369.5 -99t268.5 -268.5t99 -369.5q0 -201 -99 -370.5t-268.5 -268t-369.5 -98.5q-150 0 -286.5 58t-235.5 157t-157 235.5t-58 286.5zM217 717q0 -127 45.5 -239t124 -191.5t188.5 -125.5t236 -46q167 0 303.5 79 t213.5 217t77 306q0 126 -45 238t-123.5 191.5t-189 126t-236.5 46.5q-168 0 -304.5 -79t-213 -217t-76.5 -306zM414 717q0 175 119 299.5t288 124.5q86 0 163 -35.5t134 -97.5l-92 -93q-43 49 -90.5 74t-114.5 25q-113 0 -190.5 -87t-77.5 -210q0 -124 79 -210.5t189 -86.5 q134 0 221 112l95 -83q-56 -74 -138 -115t-178 -41q-169 0 -288 124.5t-119 299.5z" />
<glyph unicode="&#xaa;" horiz-adv-x="856" d="M70 935q21 110 123 171q86 51 210 51q121 0 201 -53v39q0 81 -46 130.5t-132 49.5q-125 0 -201 -94l-106 84q47 58 125.5 99.5t181.5 41.5q60 0 113.5 -17.5t98.5 -53t71 -97.5t26 -143v-277q0 -26 16 -41.5t42 -15.5h18v-133h-18q-84 0 -132 39.5t-53 103.5 q-35 -77 -106.5 -120.5t-173.5 -43.5q-143 0 -216 97q-62 81 -42 183zM215 854q22 -60 99 -72q15 -2 32 -2q115 0 184 66.5t74 165.5q-1 0 -36 9.5t-67.5 14t-76.5 4.5q-128 0 -187 -73q-44 -55 -22 -113z" />
<glyph unicode="&#xab;" horiz-adv-x="1058" d="M61 774l414 414l100 -101l-286 -286l-29 -27l29 -26l286 -287l-100 -101zM471 774l414 414l100 -101l-287 -286l-28 -27l28 -26l287 -287l-100 -101z" />
<glyph unicode="&#xac;" horiz-adv-x="907" d="M82 717v123h743v-371h-123v248h-620z" />
<glyph unicode="&#xad;" horiz-adv-x="661" d="M82 512v123h498v-123h-498z" />
<glyph unicode="&#xae;" horiz-adv-x="1079" d="M53 956q0 135 66.5 249.5t181 181.5t250.5 67q135 0 249.5 -67t181.5 -181.5t67 -249.5q0 -136 -67 -250.5t-181.5 -180.5t-249.5 -66q-136 0 -250.5 66t-181 180.5t-66.5 250.5zM166 956q0 -167 110 -278t275 -111q164 0 274.5 112t110.5 277q0 166 -110 278t-275 112 t-275 -112.5t-110 -277.5zM397 733v455h168q66 0 107 -40.5t41 -107.5q0 -47 -20 -82t-54 -53l88 -172h-102l-76 156h-60v-156h-92zM489 975h60q35 0 54.5 17t19.5 48q0 30 -19.5 47t-54.5 17h-60v-129z" />
<glyph unicode="&#xb0;" horiz-adv-x="503" d="M41 1243q0 88 61.5 149.5t149.5 61.5t149.5 -61.5t61.5 -149.5t-61.5 -149.5t-149.5 -61.5t-149.5 61.5t-61.5 149.5zM150 1243q0 -41 30.5 -71.5t71.5 -30.5t70.5 30.5t29.5 71.5t-29.5 70.5t-70.5 29.5t-71.5 -29.5t-30.5 -70.5z" />
<glyph unicode="&#xb1;" horiz-adv-x="907" d="M82 299v123h743v-123h-743zM82 811v123h309v311h123v-311h311v-123h-311v-309h-123v309h-309z" />
<glyph unicode="&#xb2;" horiz-adv-x="677" d="M82 696v111q8 3 21 9.5t52 28.5t74 46t77.5 61.5t73.5 77t52 90.5t21 103q0 43 -22 73t-53.5 37t-62.5 0.5t-53 -36t-22 -72.5q0 -14 3.5 -28t6.5 -21l4 -7l-135 -39q-23 27 -23 95q0 48 17 88.5t46 67t66.5 46t79 24t83 1.5t79 -21t66.5 -45t46 -69.5t17 -93.5 q0 -122 -85.5 -232t-227.5 -170h313v-125h-514z" />
<glyph unicode="&#xb3;" horiz-adv-x="681" d="M68 836l116 61q16 -42 55.5 -69t96.5 -27q62 0 99.5 35.5t37.5 81.5q0 47 -33.5 82.5t-89.5 35.5h-51v123q53 0 78.5 30t25.5 73q0 26 -13 44.5t-31.5 23.5t-37.5 1t-33 -22.5t-16 -46.5h-141q0 93 62.5 142.5t148.5 49.5q94 0 145.5 -52.5t51.5 -125.5q0 -131 -113 -174 q83 -10 132.5 -66.5t49.5 -128.5q0 -93 -72 -162t-202 -69q-59 0 -108 16.5t-77 40t-47.5 47t-26.5 40.5z" />
<glyph unicode="&#xb4;" horiz-adv-x="579" d="M92 1085l297 277l88 -96l-297 -277z" />
<glyph unicode="&#xb6;" horiz-adv-x="1128" d="M53 1079q0 146 104.5 250.5t250.5 104.5h309v-1434h-144v727h-165q-146 0 -250.5 103.5t-104.5 248.5zM881 0v1434h143v-1434h-143z" />
<glyph unicode="&#xb7;" horiz-adv-x="487" d="M127 776q0 47 35 82t82 35t81.5 -35t34.5 -82t-34.5 -82t-81.5 -35t-82 35t-35 82z" />
<glyph unicode="&#xb8;" horiz-adv-x="868" d="M262 -367l90 50q3 -6 9.5 -15.5t30 -25t50.5 -15.5q44 0 69.5 27.5t25.5 64.5q0 33 -23 58.5t-63 25.5q-51 0 -76 -49l-76 31v274h94v-200q8 11 35 24t57 13q74 0 114 -51.5t40 -125.5q0 -79 -52 -136.5t-145 -57.5q-34 0 -65.5 11t-51.5 27t-35 32t-22 27z" />
<glyph unicode="&#xb9;" horiz-adv-x="593" d="M63 1335l199 99h107v-615h143v-123h-430v123h143v457l-106 -51z" />
<glyph unicode="&#xba;" horiz-adv-x="925" d="M82 1065q0 75 24.5 143.5t70.5 124t120 88.5t166 33q121 0 209.5 -57.5t130 -144t41.5 -187.5q0 -75 -24.5 -143.5t-70.5 -124t-120 -88.5t-166 -33t-166 33t-120 88.5t-70.5 124t-24.5 143.5zM236 1065q0 -103 59.5 -178.5t167.5 -75.5q106 0 166.5 75.5t60.5 178.5 t-59.5 178.5t-167.5 75.5t-167.5 -75.5t-59.5 -178.5z" />
<glyph unicode="&#xbb;" horiz-adv-x="1058" d="M74 461l286 287l8.5 8.5t8 7t6 5l3.5 3.5t1 2l-3 2l-6 6l-8 8t-10 11l-286 286l100 101l414 -414l-414 -414zM483 461l287 287l8.5 8.5t8 7t6 5l3.5 3.5t1 2l-27 27l-287 286l101 101l413 -414l-413 -414z" />
<glyph unicode="&#xbc;" horiz-adv-x="1484" d="M63 1335l199 99h107v-615h143v-123h-430v123h143v457l-106 -51zM258 0l766 1434h164l-766 -1434h-164zM819 164v82l365 491h106v-450h123v-123h-123v-164h-143v164h-328zM1006 287h141v200z" />
<glyph unicode="&#xbd;" horiz-adv-x="593" d="M63 1335l199 99h107v-615h143v-123h-430v123h143v457l-106 -51zM244 0l766 1434h164l-766 -1434h-164zM819 0v111q8 3 21 9.5t52 28.5t74 45.5t77.5 61.5t73.5 77t52 90t21 103q0 43 -22 73t-53 37t-62.5 0.5t-53.5 -36t-22 -72.5q0 -14 3.5 -27.5t7.5 -20.5l3 -7 l-135 -39q-22 26 -22 94q0 48 17 88.5t46 67t66.5 46t78.5 24t82.5 1.5t79 -21t66.5 -45t46 -69.5t17 -93.5q0 -122 -85.5 -231.5t-227.5 -169.5h313v-125h-514z" />
<glyph unicode="&#xbe;" horiz-adv-x="681" d="M68 836l116 61q16 -42 55.5 -69t96.5 -27q62 0 99.5 35.5t37.5 81.5q0 47 -33.5 82.5t-89.5 35.5h-51v123q53 0 78.5 30t25.5 73q0 26 -13 44.5t-31.5 23.5t-37.5 1t-33 -22.5t-16 -46.5h-141q0 93 62.5 142.5t148.5 49.5q94 0 145.5 -52.5t51.5 -125.5q0 -131 -113 -174 q83 -10 132.5 -66.5t49.5 -128.5q0 -93 -72 -162t-202 -69q-59 0 -108 16.5t-77 40t-47.5 47t-26.5 40.5zM264 0l766 1434h164l-766 -1434h-164zM737 164v82l365 491h106v-450h123v-123h-123v-164h-143v164h-328zM924 287h141v200z" />
<glyph unicode="&#xbf;" horiz-adv-x="1011" d="M92 340q0 79 25.5 146t66.5 112t90 83t98.5 67.5t90.5 57t66.5 59.5t25.5 67q0 36 -20.5 56t-49.5 20q-28 0 -48.5 -20t-20.5 -56h-109q0 83 57 129.5t132 46.5t128.5 -46t53.5 -130q0 -57 -24.5 -103t-63.5 -79t-86 -63t-94 -62t-86 -69t-63.5 -92.5t-24.5 -123.5 q0 -114 72 -176t188 -62q106 0 183 73t77 204q0 41 -7 75t-13 48l-7 14l135 39q4 -6 10 -18t15.5 -57.5t9.5 -100.5q0 -95 -34.5 -173t-92 -126t-128.5 -74t-148 -26q-114 0 -204 39t-145 122t-55 199zM393 1352q0 38 28 66t66 28t66.5 -28t28.5 -66t-28 -65t-67 -27 q-38 0 -66 27t-28 65z" />
<glyph unicode="&#xc0;" d="M20 0l463 1434h138l462 -1434h-153l-142 457h-473l-139 -457h-156zM209 1765l88 97l297 -277l-88 -96zM352 580h400l-164 534q-8 25 -16.5 57t-13.5 53.5t-5 24.5q-1 -2 -6.5 -24t-14.5 -54.5t-16 -56.5z" />
<glyph unicode="&#xc1;" d="M20 0l463 1434h138l462 -1434h-153l-142 457h-473l-139 -457h-156zM352 580h400l-164 534q-8 25 -16.5 57t-13.5 53.5t-5 24.5q-1 -2 -6.5 -24t-14.5 -54.5t-16 -56.5zM492 1585l296 277l89 -97l-297 -276z" />
<glyph unicode="&#xc2;" d="M20 0l463 1434h138l462 -1434h-153l-142 457h-473l-139 -457h-156zM297 1675l186 189h133l191 -189l-100 -100l-129 149l-27 29q-11 -9 -27 -29l-127 -149zM352 580h400l-164 534q-8 25 -16.5 57t-13.5 53.5t-5 24.5q-1 -2 -6.5 -24t-14.5 -54.5t-16 -56.5z" />
<glyph unicode="&#xc3;" d="M20 0l463 1434h138l462 -1434h-153l-142 457h-473l-139 -457h-156zM219 1634q3 4 8 11.5t24 26t40.5 32.5t55.5 25.5t71 11.5q51 0 140.5 -43t123.5 -43q37 0 66.5 17.5t39.5 34.5l11 17l96 -61q-3 -5 -8 -13.5t-24.5 -30.5t-41.5 -39t-59 -30.5t-78 -13.5 q-45 0 -95.5 21t-95 42t-75.5 21q-20 0 -39 -6t-31.5 -14t-22 -16.5t-13.5 -14.5l-5 -6zM352 580h400l-164 534q-8 25 -16.5 57t-13.5 53.5t-5 24.5q-1 -2 -6.5 -24t-14.5 -54.5t-16 -56.5z" />
<glyph unicode="&#xc4;" d="M20 0l463 1434h138l462 -1434h-153l-142 457h-473l-139 -457h-156zM264 1737q0 43 30 73.5t73 30.5t73.5 -30.5t30.5 -73.5t-30.5 -73t-73.5 -30t-73 30t-30 73zM352 580h400l-164 534q-8 25 -16.5 57t-13.5 53.5t-5 24.5q-1 -2 -6.5 -24t-14.5 -54.5t-16 -56.5z M643 1737q0 43 29.5 73.5t72.5 30.5t74 -30.5t31 -73.5t-31 -73t-74 -30t-72.5 30t-29.5 73z" />
<glyph unicode="&#xc5;" horiz-adv-x="1124" d="M31 0l436 1350q-53 26 -84 76.5t-31 111.5q0 88 61.5 149.5t149.5 61.5t149.5 -61.5t61.5 -149.5q0 -62 -31.5 -111.5t-85.5 -76.5l437 -1350h-154l-141 457h-473l-140 -457h-155zM362 580h400l-164 534q-8 25 -16.5 57t-13.5 53.5t-5 24.5q-1 -2 -6.5 -24t-14.5 -54.5 t-16 -56.5zM461 1538q0 -41 30.5 -71.5t71.5 -30.5t71 30.5t30 71.5t-30 70.5t-71 29.5t-71.5 -29.5t-30.5 -70.5z" />
<glyph unicode="&#xc6;" horiz-adv-x="1617" d="M-27 0l709 1434h813v-131h-623v-515h437v-122h-437v-535h623v-131h-766v461h-375l-225 -461h-156zM416 584h313v682l-37 -117z" />
<glyph unicode="&#xc7;" horiz-adv-x="1384" d="M61 717q0 150 58.5 286t157 235t235.5 157.5t287 58.5t284 -56.5t236 -158.5l-100 -102q-83 83 -192 132.5t-228 49.5q-162 0 -299 -81.5t-216 -220t-79 -300.5q0 -122 47 -233t126 -192t189.5 -129t231.5 -48t230 50t194 136l100 -102q-102 -103 -237.5 -161t-286.5 -58 q-44 0 -64 2v-123q8 11 35 24t57 13q74 0 114 -51.5t40 -125.5q0 -79 -52 -136.5t-145 -57.5q-34 0 -65.5 11t-51.5 27t-35 32t-22 27l-6 11l90 50q3 -6 9.5 -15.5t30 -25t50.5 -15.5q44 0 69.5 27.5t25.5 64.5q0 33 -23 58.5t-63 25.5q-51 0 -76 -49l-76 31v213 q-252 55 -416 255.5t-164 463.5z" />
<glyph unicode="&#xc8;" horiz-adv-x="1052" d="M164 0v1434h766v-136h-623v-483h498v-135h-498v-545h623v-135h-766zM336 1765l88 97l297 -277l-88 -96z" />
<glyph unicode="&#xc9;" horiz-adv-x="1052" d="M164 0v1434h766v-136h-623v-483h498v-135h-498v-545h623v-135h-766zM322 1585l296 277l89 -97l-297 -276z" />
<glyph unicode="&#xca;" horiz-adv-x="1052" d="M164 0v1434h766v-136h-623v-483h498v-135h-498v-545h623v-135h-766zM270 1663l187 188h133l190 -188l-100 -100l-129 149l-27 29q-10 -9 -26 -29l-127 -149z" />
<glyph unicode="&#xcb;" horiz-adv-x="1052" d="M164 0v1434h766v-136h-623v-483h498v-135h-498v-545h623v-135h-766zM233 1737q0 43 30 73.5t73 30.5t73.5 -30.5t30.5 -73.5t-30.5 -73t-73.5 -30t-73 30t-30 73zM612 1737q0 43 30 73.5t73 30.5t73.5 -30.5t30.5 -73.5t-30.5 -73t-73.5 -30t-73 30t-30 73z" />
<glyph unicode="&#xcc;" horiz-adv-x="675" d="M25 1765l88 97l297 -277l-88 -96zM92 0v123h174v1188h-174v123h490v-123h-172v-1188h172v-123h-490z" />
<glyph unicode="&#xcd;" horiz-adv-x="675" d="M92 0v123h174v1188h-174v123h490v-123h-172v-1188h172v-123h-490zM256 1585l297 277l88 -97l-297 -276z" />
<glyph unicode="&#xce;" horiz-adv-x="675" d="M82 1663l186 188h133l191 -188l-100 -100l-130 149l-26 29q-11 -9 -27 -29l-127 -149zM92 0v123h174v1188h-174v123h490v-123h-172v-1188h172v-123h-490z" />
<glyph unicode="&#xcf;" horiz-adv-x="675" d="M45 1737q0 43 29.5 73.5t72.5 30.5t74 -30.5t31 -73.5t-31 -73t-74 -30t-72.5 30t-29.5 73zM92 0v123h174v1188h-174v123h490v-123h-172v-1188h172v-123h-490zM424 1737q0 43 29.5 73.5t72.5 30.5t74 -30.5t31 -73.5t-31 -73t-74 -30t-72.5 30t-29.5 73z" />
<glyph unicode="&#xd0;" horiz-adv-x="1343" d="M20 668v123h144v643h350q739 0 739 -697q0 -346 -187 -541.5t-491 -195.5h-411v668h-144zM307 123h268q237 0 385 165t148 451q0 157 -40.5 268.5t-119.5 177.5t-185.5 96t-248.5 30h-207v-520h301v-123h-301v-545z" />
<glyph unicode="&#xd1;" horiz-adv-x="1208" d="M164 0v1434h153l551 -758q8 -12 17 -26.5t14 -23.5t6 -10q0 1 -1 12.5t-2 28t-1 31.5v746h143v-1434h-143v389l-561 764q-22 26 -37 55q0 -1 1 -12.5t2 -27.5t1 -29v-1139h-143zM264 1634q3 4 8 11.5t24 26t40.5 32.5t55.5 25.5t71 11.5q51 0 140.5 -43t123.5 -43 q37 0 66.5 17.5t40.5 34.5l10 17l96 -61q-3 -5 -8 -13.5t-24.5 -30.5t-41.5 -39t-59 -30.5t-78 -13.5q-45 0 -95.5 21t-95 42t-75.5 21q-20 0 -39 -6t-31.5 -14t-22 -16.5t-14.5 -14.5l-4 -6z" />
<glyph unicode="&#xd2;" horiz-adv-x="1597" d="M61 717q0 150 58.5 286t157 235t235.5 157.5t287 58.5q200 0 369.5 -99t268.5 -268.5t99 -369.5q0 -201 -99 -370.5t-268.5 -268t-369.5 -98.5q-150 0 -287 58t-235.5 157t-157 235.5t-58.5 286.5zM205 717q0 -127 45.5 -239t124 -191.5t188.5 -125.5t236 -46 q167 0 303.5 79t213.5 217t77 306q0 126 -45 238t-123.5 191.5t-189 126t-236.5 46.5q-168 0 -304.5 -79t-213 -217t-76.5 -306zM608 1765l88 97l297 -277l-88 -96z" />
<glyph unicode="&#xd3;" horiz-adv-x="1597" d="M61 717q0 150 58.5 286t157 235t235.5 157.5t287 58.5q200 0 369.5 -99t268.5 -268.5t99 -369.5q0 -201 -99 -370.5t-268.5 -268t-369.5 -98.5q-150 0 -287 58t-235.5 157t-157 235.5t-58.5 286.5zM205 717q0 -127 45.5 -239t124 -191.5t188.5 -125.5t236 -46 q167 0 303.5 79t213.5 217t77 306q0 126 -45 238t-123.5 191.5t-189 126t-236.5 46.5q-168 0 -304.5 -79t-213 -217t-76.5 -306zM594 1585l297 277l88 -97l-297 -276z" />
<glyph unicode="&#xd4;" horiz-adv-x="1597" d="M61 717q0 150 58.5 286t157 235t235.5 157.5t287 58.5q200 0 369.5 -99t268.5 -268.5t99 -369.5q0 -201 -99 -370.5t-268.5 -268t-369.5 -98.5q-150 0 -287 58t-235.5 157t-157 235.5t-58.5 286.5zM205 717q0 -127 45.5 -239t124 -191.5t188.5 -125.5t236 -46 q167 0 303.5 79t213.5 217t77 306q0 126 -45 238t-123.5 191.5t-189 126t-236.5 46.5q-168 0 -304.5 -79t-213 -217t-76.5 -306zM543 1663l186 188h133l191 -188l-101 -100l-129 149l-26 29q-11 -9 -27 -29l-127 -149z" />
<glyph unicode="&#xd5;" horiz-adv-x="1597" d="M61 717q0 150 58.5 286t157 235t235.5 157.5t287 58.5q200 0 369.5 -99t268.5 -268.5t99 -369.5q0 -201 -99 -370.5t-268.5 -268t-369.5 -98.5q-150 0 -287 58t-235.5 157t-157 235.5t-58.5 286.5zM205 717q0 -127 45.5 -239t124 -191.5t188.5 -125.5t236 -46 q167 0 303.5 79t213.5 217t77 306q0 126 -45 238t-123.5 191.5t-189 126t-236.5 46.5q-168 0 -304.5 -79t-213 -217t-76.5 -306zM459 1634q3 4 8 11.5t24 26t40 32.5t55 25.5t71 11.5q51 0 141 -43t124 -43q37 0 66 17.5t40 34.5l10 17l97 -61q-3 -5 -8 -13.5t-24.5 -30.5 t-41.5 -39t-59 -30.5t-78 -13.5q-45 0 -95.5 21t-95.5 42t-76 21q-32 0 -59.5 -14t-39.5 -28l-11 -15z" />
<glyph unicode="&#xd6;" horiz-adv-x="1597" d="M61 717q0 150 58.5 286t157 235t235.5 157.5t287 58.5q200 0 369.5 -99t268.5 -268.5t99 -369.5q0 -201 -99 -370.5t-268.5 -268t-369.5 -98.5q-150 0 -287 58t-235.5 157t-157 235.5t-58.5 286.5zM205 717q0 -127 45.5 -239t124 -191.5t188.5 -125.5t236 -46 q167 0 303.5 79t213.5 217t77 306q0 126 -45 238t-123.5 191.5t-189 126t-236.5 46.5q-168 0 -304.5 -79t-213 -217t-76.5 -306zM506 1737q0 43 29.5 73.5t72.5 30.5t74 -30.5t31 -73.5t-31 -73t-74 -30t-72.5 30t-29.5 73zM885 1737q0 43 29.5 73.5t72.5 30.5t74 -30.5 t31 -73.5t-31 -73t-74 -30t-72.5 30t-29.5 73z" />
<glyph unicode="&#xd7;" horiz-adv-x="847" d="M76 1038l88 88l260 -262l260 262l88 -88l-262 -260l260 -260l-86 -86l-260 260l-260 -260l-86 86l260 260z" />
<glyph unicode="&#xd8;" horiz-adv-x="1597" d="M61 717q0 150 58.5 286t157 235t235.5 157.5t287 58.5q200 0 369.5 -99t268.5 -268.5t99 -369.5q0 -201 -99 -370.5t-268.5 -268t-369.5 -98.5q-150 0 -287 58t-235.5 157t-157 235.5t-58.5 286.5zM205 717q0 -156 65.5 -285.5t180.5 -210.5l565 1059q-106 39 -217 39 q-168 0 -304.5 -79t-213 -217t-76.5 -306zM578 154q106 -39 221 -39q167 0 303.5 79t213.5 217t77 306q0 156 -66.5 285t-183.5 210z" />
<glyph unicode="&#xd9;" horiz-adv-x="1234" d="M174 498q0 -135 36 -237t99 -162t142 -89.5t172 -29.5q74 0 139 18t122 58t98.5 99t65 147t23.5 196v936h-145v-988q0 -149 -88.5 -242t-214.5 -93t-215 93t-89 242v988h-145v-936zM428 1765l88 97l297 -277l-88 -96z" />
<glyph unicode="&#xda;" horiz-adv-x="1234" d="M174 498q0 -135 36 -237t99 -162t142 -89.5t172 -29.5q74 0 139 18t122 58t98.5 99t65 147t23.5 196v936h-145v-988q0 -149 -88.5 -242t-214.5 -93t-215 93t-89 242v988h-145v-936zM414 1585l297 277l88 -97l-297 -276z" />
<glyph unicode="&#xdb;" horiz-adv-x="1234" d="M174 498q0 -135 36 -237t99 -162t142 -89.5t172 -29.5q74 0 139 18t122 58t98.5 99t65 147t23.5 196v936h-145v-988q0 -149 -88.5 -242t-214.5 -93t-215 93t-89 242v988h-145v-936zM362 1663l187 188h133l190 -188l-100 -100l-129 149l-27 29q-10 -9 -26 -29l-127 -149z " />
<glyph unicode="&#xdc;" horiz-adv-x="1234" d="M174 498q0 -135 36 -237t99 -162t142 -89.5t172 -29.5q74 0 139 18t122 58t98.5 99t65 147t23.5 196v936h-145v-988q0 -149 -88.5 -242t-214.5 -93t-215 93t-89 242v988h-145v-936zM324 1737q0 43 29.5 73.5t72.5 30.5t73.5 -30.5t30.5 -73.5t-30.5 -73t-73.5 -30 t-72.5 30t-29.5 73zM702 1737q0 43 30 73.5t73 30.5t73.5 -30.5t30.5 -73.5t-30.5 -73t-73.5 -30t-73 30t-30 73z" />
<glyph unicode="&#xdd;" horiz-adv-x="1001" d="M-29 1434h174l318 -426l39 -56q16 25 41 58l315 424h176l-461 -613v-821h-143v823zM297 1585l297 277l88 -97l-297 -276z" />
<glyph unicode="&#xde;" horiz-adv-x="1093" d="M164 0v1434h143v-267h330q146 0 250 -104t104 -250q0 -145 -104 -248.5t-250 -103.5h-330v-461h-143zM307 596h330q87 0 149 65t62 152q0 89 -62 154t-149 65h-330v-436z" />
<glyph unicode="&#xdf;" horiz-adv-x="897" d="M72 0v1137q0 152 90 234.5t215 82.5q118 0 207.5 -76t89.5 -204q0 -194 -115 -322q-26 -25 -19 -51t54 -51l-2 2q43 -23 67 -36.5t63 -45t60 -63t37.5 -82t16.5 -111.5q0 -184 -130.5 -304t-328.5 -120v123q137 0 226 84.5t89 216.5q0 50 -16.5 89t-42.5 64t-57.5 45.5 t-62.5 38t-57 36.5t-42.5 46.5t-16.5 63.5q0 37 13.5 70t33.5 60.5t39.5 58.5t33 79.5t13.5 108.5q0 73 -46 115t-107 42q-67 0 -114.5 -50t-47.5 -144v-1137h-143z" />
<glyph unicode="&#xe0;" horiz-adv-x="1077" d="M87 209.5q-6 46.5 0 93t32.5 90.5t65 80t98 60.5t131.5 31.5q197 18 374 -33v64q0 110 -71 176t-189 66q-72 0 -143 -33.5t-113 -95.5l-108 84q5 7 14 19t42 42.5t71 53.5t102 42t135 19q182 0 287 -101.5t105 -271.5v-406q0 -26 15.5 -41.5t41.5 -15.5h18v-133h-18 q-78 0 -129 44.5t-60 117.5q-133 -182 -378 -182q-70 0 -128.5 18.5t-97 50t-65 73t-32.5 88zM225.5 230.5q8.5 -34.5 30.5 -63t67 -46t105 -17.5q90 0 161 31.5t112 81.5t63 103t24 104q-191 43 -360 25q-52 -6 -95 -28t-67 -53t-36.5 -67t-4 -70.5zM348 1266l88 96 l297 -277l-88 -96z" />
<glyph unicode="&#xe1;" horiz-adv-x="1077" d="M87 209.5q-6 46.5 0 93t32.5 90.5t65 80t98 60.5t131.5 31.5q197 18 374 -33v64q0 110 -71 176t-189 66q-72 0 -143 -33.5t-113 -95.5l-108 84q5 7 14 19t42 42.5t71 53.5t102 42t135 19q182 0 287 -101.5t105 -271.5v-406q0 -26 15.5 -41.5t41.5 -15.5h18v-133h-18 q-78 0 -129 44.5t-60 117.5q-133 -182 -378 -182q-70 0 -128.5 18.5t-97 50t-65 73t-32.5 88zM225.5 230.5q8.5 -34.5 30.5 -63t67 -46t105 -17.5q90 0 161 31.5t112 81.5t63 103t24 104q-191 43 -360 25q-52 -6 -95 -28t-67 -53t-36.5 -67t-4 -70.5zM334 1085l297 277 l88 -96l-297 -277z" />
<glyph unicode="&#xe2;" horiz-adv-x="1077" d="M87 209.5q-6 46.5 0 93t32.5 90.5t65 80t98 60.5t131.5 31.5q197 18 374 -33v64q0 110 -71 176t-189 66q-72 0 -143 -33.5t-113 -95.5l-108 84q5 7 14 19t42 42.5t71 53.5t102 42t135 19q182 0 287 -101.5t105 -271.5v-406q0 -26 15.5 -41.5t41.5 -15.5h18v-133h-18 q-78 0 -129 44.5t-60 117.5q-133 -182 -378 -182q-70 0 -128.5 18.5t-97 50t-65 73t-32.5 88zM225.5 230.5q8.5 -34.5 30.5 -63t67 -46t105 -17.5q90 0 161 31.5t112 81.5t63 103t24 104q-191 43 -360 25q-52 -6 -95 -28t-67 -53t-36.5 -67t-4 -70.5zM283 1163l186 189h133 l191 -189l-101 -100l-129 149l-26 29q-11 -9 -27 -29l-127 -149z" />
<glyph unicode="&#xe3;" horiz-adv-x="1077" d="M87 209.5q-6 46.5 0 93t32.5 90.5t65 80t98 60.5t131.5 31.5q197 18 374 -33v64q0 110 -71 176t-189 66q-72 0 -143 -33.5t-113 -95.5l-108 84q5 7 14 19t42 42.5t71 53.5t102 42t135 19q182 0 287 -101.5t105 -271.5v-406q0 -26 15.5 -41.5t41.5 -15.5h18v-133h-18 q-78 0 -129 44.5t-60 117.5q-133 -182 -378 -182q-70 0 -128.5 18.5t-97 50t-65 73t-32.5 88zM199 1135q3 4 8 11.5t24 25.5t40 32t55 25.5t71 11.5q51 0 141 -43t124 -43q37 0 66 17.5t40 35.5l10 17l96 -62q-3 -5 -8 -13.5t-24 -30.5t-41.5 -39t-59 -30.5t-77.5 -13.5 q-45 0 -95.5 21t-95.5 42t-76 21q-32 0 -59.5 -14t-39.5 -28l-11 -15zM225.5 230.5q8.5 -34.5 30.5 -63t67 -46t105 -17.5q90 0 161 31.5t112 81.5t63 103t24 104q-191 43 -360 25q-52 -6 -95 -28t-67 -53t-36.5 -67t-4 -70.5z" />
<glyph unicode="&#xe4;" horiz-adv-x="1077" d="M87 209.5q-6 46.5 0 93t32.5 90.5t65 80t98 60.5t131.5 31.5q197 18 374 -33v64q0 110 -71 176t-189 66q-72 0 -143 -33.5t-113 -95.5l-108 84q5 7 14 19t42 42.5t71 53.5t102 42t135 19q182 0 287 -101.5t105 -271.5v-406q0 -26 15.5 -41.5t41.5 -15.5h18v-133h-18 q-78 0 -129 44.5t-60 117.5q-133 -182 -378 -182q-70 0 -128.5 18.5t-97 50t-65 73t-32.5 88zM225.5 230.5q8.5 -34.5 30.5 -63t67 -46t105 -17.5q90 0 161 31.5t112 81.5t63 103t24 104q-191 43 -360 25q-52 -6 -95 -28t-67 -53t-36.5 -67t-4 -70.5zM246 1237 q0 43 29.5 73.5t72.5 30.5t74 -30.5t31 -73.5q0 -42 -31 -72t-74 -30t-72.5 29.5t-29.5 72.5zM625 1237q0 43 29.5 73.5t72.5 30.5t73.5 -30.5t30.5 -73.5t-30.5 -72.5t-73.5 -29.5t-72.5 29.5t-29.5 72.5z" />
<glyph unicode="&#xe5;" horiz-adv-x="1056" d="M87 209.5q-6 46.5 0 93t32.5 90.5t65 80t98 60.5t131.5 31.5q197 18 374 -33v64q0 110 -71 176t-189 66q-72 0 -143 -33.5t-113 -95.5l-108 84q5 7 14 19t42 42.5t71 53.5t102 42t135 19q182 0 287 -101.5t105 -271.5v-406q0 -26 15.5 -41.5t41.5 -15.5h18v-133h-18 q-78 0 -129 44.5t-60 117.5q-133 -182 -378 -182q-70 0 -128.5 18.5t-97 50t-65 73t-32.5 88zM225.5 230.5q8.5 -34.5 30.5 -63t67 -46t105 -17.5q90 0 161 31.5t112 81.5t63 103t24 104q-191 43 -360 25q-52 -6 -95 -28t-67 -53t-36.5 -67t-4 -70.5zM322 1251 q0 88 61 149.5t149 61.5t149.5 -61.5t61.5 -149.5t-61.5 -149.5t-149.5 -61.5t-149 61.5t-61 149.5zM430 1251q0 -41 30.5 -71.5t71.5 -30.5t71 30.5t30 71.5t-30 71t-71 30t-71.5 -30t-30.5 -71z" />
<glyph unicode="&#xe6;" horiz-adv-x="1796" d="M87 209.5q-6 46.5 0 93t32.5 90.5t65 80t98 60.5t131.5 31.5q197 18 374 -33v64q0 110 -71 176t-189 66q-72 0 -143 -33.5t-113 -95.5l-108 84q5 7 14 19t42 42.5t71 53.5t102 42t135 19q144 0 232.5 -67t116.5 -189q49 114 145 179.5t231 65.5q105 0 189.5 -37.5 t138 -101t81.5 -145.5t28 -174v-72h-760q7 -149 102.5 -237.5t237.5 -88.5q107 0 188.5 45.5t128.5 116.5l96 -82q-74 -97 -168.5 -149.5t-244.5 -52.5q-160 0 -265.5 82t-146.5 221q-48 -137 -159.5 -220t-288.5 -83q-70 0 -128.5 18.5t-97 50t-65 73t-32.5 88z M225.5 230.5q8.5 -34.5 30.5 -63t67 -46t105 -17.5q90 0 161 31.5t112 81.5t63 103t24 104q-191 43 -360 25q-52 -6 -95 -28t-67 -53t-36.5 -67t-4 -70.5zM934 537h610q0 137 -79 218t-212 81q-130 0 -214 -82t-105 -217z" />
<glyph unicode="&#xe7;" horiz-adv-x="1017" d="M102 469q0 133 63 245.5t172 178t238 65.5q100 0 189.5 -40.5t155.5 -112.5l-89 -90q-106 121 -256 121q-149 0 -241 -103.5t-92 -263.5q0 -161 94 -264t239 -103q87 0 156.5 36.5t112.5 101.5l96 -82q-65 -85 -159 -131.5t-206 -46.5q-21 0 -57 4v-125q8 11 35 24t57 13 q74 0 114 -51.5t40 -125.5q0 -79 -52 -136.5t-145 -57.5q-34 0 -65.5 11t-51.5 27t-35 32t-21 27l-7 11l90 50q3 -6 9.5 -15.5t30 -25t50.5 -15.5q44 0 69.5 27.5t25.5 64.5q0 33 -23.5 58.5t-63.5 25.5q-50 0 -75 -49l-76 31v219q-143 50 -232.5 177.5t-89.5 287.5z" />
<glyph unicode="&#xe8;" d="M94 469q0 -135 58 -246t168.5 -177t252.5 -66q150 0 245 52.5t169 149.5l-100 84q-47 -71 -127 -115.5t-187 -44.5q-134 0 -231 85t-109 237h760v72q0 92 -28 174t-81 145.5t-137.5 101t-189.5 37.5q-205 0 -334 -141t-129 -348zM236 537q18 142 106.5 220.5t214.5 78.5 q127 0 202.5 -80t90.5 -219h-614zM362 1266l89 96l297 -277l-89 -96z" />
<glyph unicode="&#xe9;" d="M94 469q0 -135 58 -246t168.5 -177t252.5 -66q150 0 245 52.5t169 149.5l-100 84q-47 -71 -127 -115.5t-187 -44.5q-134 0 -231 85t-109 237h760v72q0 92 -28 174t-81 145.5t-137.5 101t-189.5 37.5q-205 0 -334 -141t-129 -348zM236 537q18 142 106.5 220.5t214.5 78.5 q127 0 202.5 -80t90.5 -219h-614zM348 1085l297 277l88 -96l-297 -277z" />
<glyph unicode="&#xea;" d="M94 469q0 -135 58 -246t168.5 -177t252.5 -66q150 0 245 52.5t169 149.5l-100 84q-47 -71 -127 -115.5t-187 -44.5q-134 0 -231 85t-109 237h760v72q0 92 -28 174t-81 145.5t-137.5 101t-189.5 37.5q-205 0 -334 -141t-129 -348zM236 537q18 142 106.5 220.5t214.5 78.5 q127 0 202.5 -80t90.5 -219h-614zM297 1163l186 189h133l191 -189l-100 -100l-129 149l-27 29q-11 -9 -27 -29l-127 -149z" />
<glyph unicode="&#xeb;" d="M94 469q0 -135 58 -246t168.5 -177t252.5 -66q150 0 245 52.5t169 149.5l-100 84q-47 -71 -127 -115.5t-187 -44.5q-134 0 -231 85t-109 237h760v72q0 92 -28 174t-81 145.5t-137.5 101t-189.5 37.5q-205 0 -334 -141t-129 -348zM236 537q18 142 106.5 220.5t214.5 78.5 q127 0 202.5 -80t90.5 -219h-614zM258 1237q0 43 29.5 73.5t72.5 30.5t74 -30.5t31 -73.5q0 -42 -31 -72t-74 -30t-72.5 29.5t-29.5 72.5zM637 1237q0 43 29.5 73.5t72.5 30.5t74 -30.5t31 -73.5q0 -42 -31 -72t-74 -30t-72.5 29.5t-29.5 72.5z" />
<glyph unicode="&#xec;" horiz-adv-x="389" d="M-119 1266l88 96l297 -277l-88 -96zM123 0v934h143v-934h-143z" />
<glyph unicode="&#xed;" horiz-adv-x="389" d="M115 1085l297 277l88 -96l-297 -277zM123 0v934h143v-934h-143z" />
<glyph unicode="&#xee;" horiz-adv-x="389" d="M-59 1163l186 189h133l191 -189l-101 -100l-129 149l-26 29q-11 -9 -27 -29l-127 -149zM123 0v934h143v-934h-143z" />
<glyph unicode="&#xef;" horiz-adv-x="389" d="M-98 1237q0 43 29.5 73.5t72.5 30.5t74 -30.5t31 -73.5q0 -42 -31 -72t-74 -30t-72.5 29.5t-29.5 72.5zM123 0v934h143v-934h-143zM281 1237q0 43 29.5 73.5t72.5 30.5t73.5 -30.5t30.5 -73.5t-30.5 -72.5t-73.5 -29.5t-72.5 29.5t-29.5 72.5z" />
<glyph unicode="&#xf0;" horiz-adv-x="1140" d="M82 469q0 133 63 245.5t172 178t238 65.5q115 0 196 -49t144 -135q-94 300 -309 467l-64 -111l-106 62l65 119q-73 40 -180 69l47 136q116 -32 203 -82l57 100l109 -61l-62 -107q182 -134 282.5 -346t100.5 -465q0 -97 -24.5 -189t-73 -173t-130.5 -136.5t-187 -70.5 q-35 -6 -70 -6q-129 1 -237.5 66.5t-171 177.5t-62.5 245zM221 469q0 -161 94.5 -264t239.5 -103q150 0 242 102.5t92 264.5q0 161 -92.5 264t-241.5 103t-241.5 -103.5t-92.5 -263.5z" />
<glyph unicode="&#xf1;" horiz-adv-x="1126" d="M143 0v934h136v-62q0 -16 -5 -88q54 77 139 123.5t183 46.5q181 0 284 -109.5t103 -320.5v-524h-137v524q0 151 -70.5 230.5t-191.5 79.5q-131 0 -215.5 -87t-89.5 -212v-535h-136zM223 1176q3 4 8 11.5t24 25.5t40.5 32t55.5 25.5t71 11.5q51 0 140.5 -43t123.5 -43 q24 0 44.5 7t33 17.5t22 21t13.5 17.5l4 7l96 -62q-3 -5 -8 -13.5t-24.5 -30.5t-41.5 -39t-59 -30.5t-78 -13.5q-45 0 -95.5 21t-95 42t-75.5 21q-32 0 -60 -14.5t-40 -28.5l-11 -14z" />
<glyph unicode="&#xf2;" horiz-adv-x="1150" d="M102 469q0 133 63 245.5t172 178t238 65.5t238 -65.5t172.5 -178t63.5 -245.5t-63.5 -245.5t-172.5 -178t-238 -65.5t-238 65.5t-172 178t-63 245.5zM242 469q0 -161 94 -264t239 -103q150 0 242 102.5t92 264.5q0 161 -92.5 264t-241.5 103t-241 -103.5t-92 -263.5z M385 1266l88 96l297 -277l-88 -96z" />
<glyph unicode="&#xf3;" horiz-adv-x="1150" d="M102 469q0 133 63 245.5t172 178t238 65.5t238 -65.5t172.5 -178t63.5 -245.5t-63.5 -245.5t-172.5 -178t-238 -65.5t-238 65.5t-172 178t-63 245.5zM242 469q0 -161 94 -264t239 -103q150 0 242 102.5t92 264.5q0 161 -92.5 264t-241.5 103t-241 -103.5t-92 -263.5z M371 1085l297 277l88 -96l-297 -277z" />
<glyph unicode="&#xf4;" horiz-adv-x="1150" d="M102 469q0 133 63 245.5t172 178t238 65.5t238 -65.5t172.5 -178t63.5 -245.5t-63.5 -245.5t-172.5 -178t-238 -65.5t-238 65.5t-172 178t-63 245.5zM242 469q0 -161 94 -264t239 -103q150 0 242 102.5t92 264.5q0 161 -92.5 264t-241.5 103t-241 -103.5t-92 -263.5z M319 1163l187 189h133l190 -189l-100 -100l-129 149l-27 29q-10 -9 -26 -29l-127 -149z" />
<glyph unicode="&#xf5;" horiz-adv-x="1150" d="M102 469q0 133 63 245.5t172 178t238 65.5t238 -65.5t172.5 -178t63.5 -245.5t-63.5 -245.5t-172.5 -178t-238 -65.5t-238 65.5t-172 178t-63 245.5zM236 1176q3 4 8 11.5t24 25.5t40 32t55 25.5t71 11.5q51 0 140.5 -43t123.5 -43q24 0 44.5 7t33 17.5t22 21t13.5 17.5 l4 7l96 -62q-3 -5 -8 -13.5t-24.5 -30.5t-41.5 -39t-59 -30.5t-78 -13.5q-45 0 -95.5 21t-95 42t-75.5 21q-32 0 -59.5 -14.5t-38.5 -28.5l-12 -14zM242 469q0 -161 94 -264t239 -103q150 0 242 102.5t92 264.5q0 161 -92.5 264t-241.5 103t-241 -103.5t-92 -263.5z" />
<glyph unicode="&#xf6;" horiz-adv-x="1150" d="M102 469q0 133 63 245.5t172 178t238 65.5t238 -65.5t172.5 -178t63.5 -245.5t-63.5 -245.5t-172.5 -178t-238 -65.5t-238 65.5t-172 178t-63 245.5zM242 469q0 -161 94 -264t239 -103q150 0 242 102.5t92 264.5q0 161 -92.5 264t-241.5 103t-241 -103.5t-92 -263.5z M283 1237q0 43 29.5 73.5t72.5 30.5t73.5 -30.5t30.5 -73.5t-30.5 -72.5t-73.5 -29.5t-72.5 29.5t-29.5 72.5zM662 1237q0 43 29.5 73.5t72.5 30.5t73.5 -30.5t30.5 -73.5t-30.5 -72.5t-73.5 -29.5t-72.5 29.5t-29.5 72.5z" />
<glyph unicode="&#xf7;" horiz-adv-x="907" d="M82 717v123h743v-123h-743zM336 465q0 47 35 82t82 35t81.5 -35t34.5 -82t-34.5 -82t-81.5 -35t-82 35t-35 82zM336 1087q0 47 35 82t82 35t81.5 -35t34.5 -82t-34.5 -81.5t-81.5 -34.5t-82 34.5t-35 81.5z" />
<glyph unicode="&#xf8;" horiz-adv-x="1150" d="M102 469q0 133 63 245.5t172 178t238 65.5t238 -65.5t172.5 -178t63.5 -245.5t-63.5 -245.5t-172.5 -178t-238 -65.5t-238 65.5t-172 178t-63 245.5zM242 469q0 -159 94 -264l360 608q-61 23 -121 23q-149 0 -241 -103.5t-92 -263.5zM434 131q69 -29 141 -29 q150 0 242 102.5t92 264.5q0 177 -108 279z" />
<glyph unicode="&#xf9;" horiz-adv-x="1126" d="M143 410q0 -211 103 -320.5t284 -109.5q99 0 182.5 45t139.5 122q-4 -29 -4 -86v-61h135v934h-135v-522q0 -130 -85 -221t-220 -91q-121 0 -191.5 79.5t-70.5 230.5v524h-138v-524zM373 1266l88 96l297 -277l-88 -96z" />
<glyph unicode="&#xfa;" horiz-adv-x="1126" d="M143 410q0 -211 103 -320.5t284 -109.5q99 0 182.5 45t139.5 122q-4 -29 -4 -86v-61h135v934h-135v-522q0 -130 -85 -221t-220 -91q-121 0 -191.5 79.5t-70.5 230.5v524h-138v-524zM358 1085l297 277l88 -96l-297 -277z" />
<glyph unicode="&#xfb;" horiz-adv-x="1126" d="M143 410q0 -211 103 -320.5t284 -109.5q99 0 182.5 45t139.5 122q-4 -29 -4 -86v-61h135v934h-135v-522q0 -130 -85 -221t-220 -91q-121 0 -191.5 79.5t-70.5 230.5v524h-138v-524zM307 1163l187 189h133l190 -189l-100 -100l-129 149l-27 29q-10 -9 -26 -29l-127 -149z " />
<glyph unicode="&#xfc;" horiz-adv-x="1126" d="M143 410q0 -211 103 -320.5t284 -109.5q99 0 182.5 45t139.5 122q-4 -29 -4 -86v-61h135v934h-135v-522q0 -130 -85 -221t-220 -91q-121 0 -191.5 79.5t-70.5 230.5v524h-138v-524zM270 1237q0 43 30 73.5t73 30.5t73.5 -30.5t30.5 -73.5t-30.5 -72.5t-73.5 -29.5 t-73 29.5t-30 72.5zM649 1237q0 43 30 73.5t73 30.5t73.5 -30.5t30.5 -73.5t-30.5 -72.5t-73.5 -29.5t-73 29.5t-30 72.5z" />
<glyph unicode="&#xfd;" horiz-adv-x="1028" d="M45 934h154l301 -731l323 731h156l-59 -139l-355 -795l-268 -606h-154l279 629zM309 1085l297 277l88 -96l-297 -277z" />
<glyph unicode="&#xfe;" horiz-adv-x="1097" d="M143 -512v2048h136v-664q0 -15 -5 -77q53 73 132 116t174 43q183 0 303.5 -129.5t120.5 -353.5t-121 -357.5t-303 -133.5q-95 0 -174 42t-132 115q5 -88 5 -137v-512h-136zM279 467q0 -169 76 -268t212 -99q121 0 210 105t89 266q0 160 -88.5 261.5t-210.5 101.5 q-136 0 -212 -99t-76 -268z" />
<glyph unicode="&#xff;" horiz-adv-x="1028" d="M45 934h154l301 -731l323 731h156l-59 -139l-355 -795l-268 -606h-154l279 629zM221 1237q0 43 30 73.5t73 30.5t73.5 -30.5t30.5 -73.5t-30.5 -72.5t-73.5 -29.5t-73 29.5t-30 72.5zM600 1237q0 43 29.5 73.5t72.5 30.5t74 -30.5t31 -73.5q0 -42 -31 -72t-74 -30 t-72.5 29.5t-29.5 72.5z" />
<glyph unicode="&#x152;" horiz-adv-x="1687" d="M61 717q0 149 58.5 282.5t157.5 228.5t235 150.5t287 55.5h766v-136h-623v-483h498v-135h-498v-545h623v-135h-766q-202 0 -371 93.5t-268 258.5t-99 365zM205 717q0 -169 77.5 -302.5t212.5 -206.5t304 -73v1163q-257 0 -425.5 -163.5t-168.5 -417.5z" />
<glyph unicode="&#x153;" horiz-adv-x="1888" d="M82 469q0 133 61.5 245.5t169 178t236.5 65.5q144 0 252 -83t155 -220q41 139 143.5 221t252.5 82q105 0 189.5 -37.5t137.5 -101t81 -145.5t28 -174v-72h-760q7 -149 102.5 -237.5t237.5 -88.5q107 0 189 45.5t129 116.5l96 -82q-74 -98 -166 -150t-242 -52 q-160 0 -267.5 82t-150.5 221q-45 -137 -153 -220t-254 -83q-129 0 -236.5 65.5t-169 178t-61.5 245.5zM221 469q0 -161 94.5 -264t239.5 -103q150 0 242 102.5t92 264.5q0 161 -92.5 264t-241.5 103t-241.5 -103.5t-92.5 -263.5zM1032 537h610q0 137 -78.5 218t-211.5 81 q-131 0 -215 -82t-105 -217z" />
<glyph unicode="&#x178;" horiz-adv-x="1001" d="M-29 1434h174l318 -426l39 -56q16 25 41 58l315 424h176l-461 -613v-821h-143v823zM207 1737q0 43 29.5 73.5t72.5 30.5t74 -30.5t31 -73.5t-31 -73t-74 -30t-72.5 30t-29.5 73zM586 1737q0 43 29.5 73.5t72.5 30.5t74 -30.5t31 -73.5t-31 -73t-74 -30t-72.5 30t-29.5 73 z" />
<glyph unicode="&#x2c6;" horiz-adv-x="602" d="M43 1163l186 189h133l191 -189l-100 -100l-129 149l-27 29q-11 -9 -27 -29l-127 -149z" />
<glyph unicode="&#x2dc;" horiz-adv-x="974" d="M96 1135q3 4 8 11.5t24 25.5t40.5 32t55.5 25.5t71 11.5q51 0 140.5 -43t123.5 -43q24 0 44.5 7t33 17.5t22 21t13.5 17.5l4 7l96 -62q-3 -5 -8 -13.5t-24.5 -30.5t-41.5 -39t-59 -30.5t-78 -13.5q-45 0 -95.5 21t-95 42t-75.5 21q-20 0 -39 -6t-31.5 -14t-22 -16.5 t-14.5 -14.5l-4 -6z" />
<glyph unicode="&#x2000;" horiz-adv-x="932" />
<glyph unicode="&#x2001;" horiz-adv-x="1864" />
<glyph unicode="&#x2002;" horiz-adv-x="932" />
<glyph unicode="&#x2003;" horiz-adv-x="1864" />
<glyph unicode="&#x2004;" horiz-adv-x="621" />
<glyph unicode="&#x2005;" horiz-adv-x="466" />
<glyph unicode="&#x2006;" horiz-adv-x="310" />
<glyph unicode="&#x2007;" horiz-adv-x="310" />
<glyph unicode="&#x2008;" horiz-adv-x="233" />
<glyph unicode="&#x2009;" horiz-adv-x="372" />
<glyph unicode="&#x200a;" horiz-adv-x="103" />
<glyph unicode="&#x2010;" horiz-adv-x="661" d="M82 512v123h498v-123h-498z" />
<glyph unicode="&#x2011;" horiz-adv-x="661" d="M82 512v123h498v-123h-498z" />
<glyph unicode="&#x2012;" horiz-adv-x="661" d="M82 512v123h498v-123h-498z" />
<glyph unicode="&#x2013;" horiz-adv-x="989" d="M82 717v123h825v-123h-825z" />
<glyph unicode="&#x2014;" horiz-adv-x="1153" d="M82 717v123h989v-123h-989z" />
<glyph unicode="&#x2018;" horiz-adv-x="354" d="M63 1143q-30 86 10 195q42 113 133 161l25 12l58 -79q-32 -18 -55.5 -39.5t-34 -39.5t-17 -33.5t-7.5 -24.5l-1 -9h14q48 0 82.5 -35t34.5 -84q0 -46 -35 -80t-82 -34q-94 0 -125 90z" />
<glyph unicode="&#x2019;" horiz-adv-x="331" d="M39 1339q0 46 35 80.5t82 34.5q94 0 125 -90q30 -86 -10 -195q-42 -114 -133 -162q-12 -7 -25 -12l-58 80q32 18 55.5 39.5t34 39.5t17 33.5t7.5 24.5l1 9h-14q-48 0 -82.5 34.5t-34.5 83.5z" />
<glyph unicode="&#x201a;" horiz-adv-x="440" d="M94 98q0 46 35 80.5t82 34.5q94 0 125 -90q30 -86 -10 -195q-42 -114 -133 -162q-12 -7 -25 -12l-57 80q50 28 78.5 64.5t32.5 59.5l3 22h-14q-48 0 -82.5 34.5t-34.5 83.5z" />
<glyph unicode="&#x201c;" horiz-adv-x="684" d="M53 1143q-30 86 10 195q42 113 133 161l25 12l58 -79q-32 -18 -55.5 -39.5t-34 -39.5t-17 -33.5t-7.5 -24.5l-1 -9h14q48 0 82.5 -35t34.5 -84q0 -46 -35 -80t-82 -34q-94 0 -125 90zM401 1143q-30 86 10 195q42 113 133 161l25 12l58 -79q-32 -18 -55.5 -39.5t-34 -39.5 t-17 -33.5t-7.5 -24.5l-1 -9h14q48 0 82.5 -35t34.5 -84q0 -46 -35 -80t-82 -34q-94 0 -125 90z" />
<glyph unicode="&#x201d;" horiz-adv-x="684" d="M41 1339q0 46 35 80.5t82 34.5q94 0 125 -90q30 -86 -10 -195q-42 -114 -133 -162q-12 -7 -25 -12l-58 80q32 18 55.5 39.5t34 39.5t17 33.5t7.5 24.5l1 9h-14q-48 0 -82.5 34.5t-34.5 83.5zM389 1339q0 46 35 80.5t82 34.5q94 0 125 -90q30 -86 -10 -195 q-42 -114 -133 -162l-25 -12l-57 80q50 28 78.5 64.5t31.5 58.5l4 23h-14q-48 0 -82.5 34.5t-34.5 83.5z" />
<glyph unicode="&#x201e;" horiz-adv-x="471" d="M61 143h144l-10 -286h-123zM266 143h144l-11 -286h-123z" />
<glyph unicode="&#x2022;" horiz-adv-x="585" d="M82 772q0 88 61.5 149.5t149.5 61.5t149.5 -61.5t61.5 -149.5t-61.5 -149.5t-149.5 -61.5t-149.5 61.5t-61.5 149.5zM190 772q0 -41 31 -71.5t72 -30.5t70.5 30.5t29.5 71.5t-29.5 70.5t-70.5 29.5q-42 0 -72.5 -29.5t-30.5 -70.5z" />
<glyph unicode="&#x2026;" horiz-adv-x="1241" d="M131 96q0 47 35 82t82 35t82 -35t35 -82t-35 -81.5t-82 -34.5t-82 34.5t-35 81.5zM504 96q0 47 35 82t82 35t81.5 -35t34.5 -82t-34.5 -81.5t-81.5 -34.5t-82 34.5t-35 81.5zM877 96q0 47 34.5 82t81.5 35t82 -35t35 -82t-35 -81.5t-82 -34.5t-81.5 34.5t-34.5 81.5z" />
<glyph unicode="&#x202f;" horiz-adv-x="372" />
<glyph unicode="&#x2039;" horiz-adv-x="751" d="M61 774l488 488l100 -101l-360 -360l-29 -27l29 -26l360 -363l-100 -100z" />
<glyph unicode="&#x203a;" horiz-adv-x="751" d="M102 385l361 363l8.5 8.5t7.5 7t5.5 5l3.5 3.5t1 2q-19 19 -26 27l-361 360l101 101l487 -488l-487 -489z" />
<glyph unicode="&#x205f;" horiz-adv-x="466" />
<glyph unicode="&#x20ac;" horiz-adv-x="1445" d="M20 594v123h103q0 85 18 164h-121v123h160q86 202 269.5 326t410.5 124q150 0 284 -56.5t236 -158.5l-100 -102q-83 83 -192 132.5t-228 49.5q-167 0 -306 -86t-216 -229h829v-123h-878q-23 -87 -23 -164h901v-123h-888q42 -206 204.5 -342.5t376.5 -136.5q121 0 230 50 t194 136l100 -102q-102 -103 -237.5 -161t-286.5 -58q-180 0 -337 80t-259.5 220.5t-130.5 313.5h-113z" />
<glyph unicode="&#x2122;" horiz-adv-x="1142" d="M41 1493v84h348v-84h-125v-543h-94v543h-129zM424 950h96l53 363l7 80l22 -78l121 -365h72l120 365l23 78l6 -78l51 -365h99l-103 627h-80l-133 -403l-20 -80l-19 77l-133 406h-84z" />
<glyph unicode="&#xe000;" horiz-adv-x="931" d="M0 0v932h932v-932h-932z" />
</font>
</defs>
</svg>
