<?xml version="1.0" standalone="no"?>
<!DOCTYPE svg PUBLIC "-//W3C//DTD SVG 1.1//EN" "http://www.w3.org/Graphics/SVG/1.1/DTD/svg11.dtd" >
<svg xmlns="http://www.w3.org/2000/svg">
<metadata>
Created by FontPrep 20130207 at Thu Oct 30 14:23:27 2014
 By Andrew Imm
(c) Copyright The Font Bureau, Inc. 2014. All rights reserved.
</metadata>
<defs>
<font id="841331703feb203407d2b481eb322210" horiz-adv-x='1024' >
  <font-face 
    font-family="InputMono-Regular"
    font-weight="400"
    font-stretch="normal"
    units-per-em="2048"
    panose-1="2 0 5 9 2 0 0 9 0 4"
    ascent="1583"
    descent="-465"
    x-height="1117"
    cap-height="1489"
    bbox="-432 -838 2420 2607"
    underline-thickness="0"
    underline-position="0"
    unicode-range="U+000D-1F41B"
  />
<missing-glyph 
d="M279 -279h745v1675h-745v-1675zM93 -465v2048h1117v-2048h-1117z" />
    <glyph glyph-name=".notdef" 
d="M279 -279h745v1675h-745v-1675zM93 -465v2048h1117v-2048h-1117z" />
    <glyph glyph-name=".null" horiz-adv-x="0" 
 />
    <glyph glyph-name="nonmarkingreturn" unicode="&#xd;" horiz-adv-x="0" 
 />
    <glyph glyph-name="NULL" horiz-adv-x="0" 
 />
    <glyph glyph-name="space" unicode="&#xa0;" 
 />
    <glyph glyph-name="space" unicode=" " 
 />
    <glyph glyph-name="exclam" unicode="!" 
d="M832 138q0 -157 -179 -157q-93 0 -136.5 38.5t-43.5 118.5v52q0 82 43.5 121t137 39t136 -39t42.5 -121v-52zM577 559l-56 930h261l-56 -930h-149z" />
    <glyph glyph-name="quotedbl" unicode="&#x22;" 
d="M279 745l-56 744h298l-56 -744h-186zM838 745l-56 744h298l-56 -744h-186z" />
    <glyph glyph-name="numbersign" unicode="#" 
d="M93 372v168h251l21 410h-272v167h279l19 372h168l-19 -372h261l18 372h168l-19 -372h242v-167h-249l-21 -410h270v-168h-279l-19 -372h-167l18 372h-260l-19 -372h-167l18 372h-242zM773 540l20 410h-261l-20 -410h261z" />
    <glyph glyph-name="dollar" unicode="$" 
d="M186 1052q0 332 391 350v181h149v-183q214 -19 352 -106l-56 -155q-151 83 -315 97v-419q233 -63 326 -147.5t93 -238.5t-103 -245t-297 -102v-177h-149v181q-110 9 -218 42.5t-182 85.5l56 151q157 -102 363 -127v434q-227 58 -318.5 145.5t-91.5 232.5zM959 424
q0 87 -56 133t-196 87v-409q112 4 182 53t70 136zM352 1052q0 -69 54 -115.5t190 -87.5v393q-110 -4 -177 -44t-67 -146z" />
    <glyph glyph-name="percent" unicode="%" 
d="M821 244q0 -134 120 -134t120 134v119q0 138 -87.5 138t-120 -33.5t-32.5 -104.5v-119zM942.5 -41q-128.5 0 -209 71t-80.5 218v111q0 149 80.5 221t209 72t207.5 -72t79 -221v-111q0 -147 -79 -218t-207.5 -71zM84 313l1042 985l103 -108l-1045 -985zM242 1119
q0 -134 120 -134t120 134v119q0 138 -87.5 138t-120 -33.5t-32.5 -104.5v-119zM363.5 834q-128.5 0 -209 71t-80.5 218v111q0 149 80.5 221t209 72t207.5 -72t79 -221v-111q0 -147 -79 -218t-207.5 -71z" />
    <glyph glyph-name="ampersand" unicode="&#x26;" 
d="M387 696q-136 -126 -136 -316q0 -98 51 -167.5t136 -69.5t152 37.5t131 106.5q-185 161 -334 409zM473 866q262 116 262 294q0 88 -45.5 137t-106.5 49q-91 0 -127.5 -63.5t-36.5 -174.5t54 -242zM422 -19q-142 0 -245 100.5t-103 272.5t77.5 282.5t179.5 167.5
q-89 192 -89 321q0 177 87.5 280t235.5 103t240 -95t92 -237t-88 -235.5t-293 -169.5q18 -38 92 -151q75 -114 196 -225q105 162 192 398l158 -72q-56 -130 -129.5 -228t-140.5 -188l382 -147l-28 -169q-212 64 -406 205q-86 -99 -177 -156t-233 -57z" />
    <glyph glyph-name="quotesingle" unicode="'" 
d="M559 745l-56 744h298l-56 -744h-186z" />
    <glyph glyph-name="parenleft" unicode="(" 
d="M372 558.5q0 381.5 180 631t472 318.5l19 -145q-249 -69 -366.5 -288t-117.5 -516.5t117 -516.5t367 -288l-19 -145q-292 69 -472 318.5t-180 631z" />
    <glyph glyph-name="parenright" unicode=")" 
d="M745 558.5q0 294.5 -117.5 515t-366.5 289.5l18 145q292 -69 472 -319.5t180 -630t-180 -630t-472 -319.5l-18 145q249 69 366.5 289.5t117.5 515z" />
    <glyph glyph-name="asterisk" unicode="*" 
d="M1078 519l-369 306l52 -453h-223l52 451l-367 -304l-111 194l435 220l-435 219l111 194l367 -305l-52 448h223l-52 -450l369 307l112 -194l-436 -219l436 -220z" />
    <glyph glyph-name="plus" unicode="+" 
d="M559 74v485h-429v186h429v484h186v-484h428v-186h-428v-485h-186z" />
    <glyph glyph-name="comma" unicode="," 
d="M372 -372l168 744h370l-381 -744h-157z" />
    <glyph glyph-name="hyphen" unicode="&#x2011;" 
d="M130 559v186h1043v-186h-1043z" />
    <glyph glyph-name="hyphen" unicode="&#x2010;" 
d="M130 559v186h1043v-186h-1043z" />
    <glyph glyph-name="hyphen" unicode="&#xad;" 
d="M130 559v186h1043v-186h-1043z" />
    <glyph glyph-name="hyphen" unicode="-" 
d="M130 559v186h1043v-186h-1043z" />
    <glyph glyph-name="period" unicode="." 
d="M652 -19q-92 0 -149.5 42t-57.5 133v53q0 91 57.5 134.5t151 43.5t150 -43.5t56.5 -134.5v-53q0 -91 -58 -133t-150 -42z" />
    <glyph glyph-name="slash" unicode="/" 
d="M186 -372l745 1861h186l-745 -1861h-186z" />
    <glyph glyph-name="zero" unicode="0" 
d="M651 600q-59 0 -96 20t-37 78v91q0 56 37 77.5t96.5 21.5t96 -21.5t36.5 -77.5v-91q0 -58 -37 -78t-96 -20zM651.5 149q169.5 0 243 111.5t73.5 366.5v228q0 261 -73.5 373.5t-243 112.5t-243 -113t-73.5 -373v-228q0 -255 73.5 -366.5t243 -111.5zM651.5 -19
q-245.5 0 -374 165t-128.5 481v228q0 320 128.5 486.5t374.5 166.5t374 -166.5t128 -486.5v-228q0 -317 -128.5 -481.5t-374 -164.5z" />
    <glyph glyph-name="one" unicode="1" 
d="M838 1489v-1321h372v-168h-968v168h410v1098h-54q-129 -229 -393 -182l-19 182q289 -34 471 223h181z" />
    <glyph glyph-name="two" unicode="2" 
d="M650 1508q486 0 486 -383v-123q0 -140 -80 -224t-265 -138l-255 -74q-91 -26 -146 -75.5t-55 -170.5v-152h819v-168h-1005v317q0 169 82 267.5t270 154.5l253 75q106 30 151 76t45 140v76q0 128 -62 181.5t-228 53.5t-228.5 -66.5t-77.5 -252.5l-186 19q15 255 123.5 361
t358.5 106z" />
    <glyph glyph-name="three" unicode="3" 
d="M634 -19q-288 0 -389.5 106.5t-114.5 316.5l187 19q19 -168 80 -223t241 -55t255 58t75 201v50q0 140 -70.5 196.5t-245.5 56.5h-187v168h187q155 0 217 44t62 153v60q0 117 -65.5 164.5t-221.5 47.5t-215.5 -52t-74.5 -197l-186 18q13 210 127.5 302.5t338.5 92.5
t353.5 -87.5t129.5 -288.5v-60q0 -112 -77 -177t-215 -74v-54q166 -13 247.5 -102.5t81.5 -210.5v-50q0 -201 -116 -312t-404 -111z" />
    <glyph glyph-name="four" unicode="4" 
d="M1247 391h-223v-391h-186v391h-708v168l624 930h270v-930h223v-168zM838 559v737l-503 -737h503z" />
    <glyph glyph-name="five" unicode="5" 
d="M628 -19q-266 0 -375.5 90.5t-122.5 339.5l187 19q13 -177 75 -229t246 -52t257 63.5t73 189.5v90q0 134 -59.5 193.5t-191.5 59.5h-531v744h894v-167h-708v-400h345q222 0 329.5 -102.5t107.5 -311.5v-124q0 -184 -130 -293.5t-396 -109.5z" />
    <glyph glyph-name="six" unicode="6" 
d="M650 149q162 0 238 71.5t76 222.5v24q0 151 -76 222.5t-238 71.5t-238.5 -71.5t-76.5 -222.5v-24q0 -151 76.5 -222.5t238.5 -71.5zM642 -19q-252 0 -372.5 144.5t-120.5 388.5v452q0 261 131 401.5t364 140.5t344.5 -81t149.5 -262l-203 -42q-24 114 -78.5 166
t-214.5 52t-233.5 -87t-73.5 -288v-178h37q50 67 127.5 104t206.5 37q223 0 335.5 -123t112.5 -318v-41q0 -225 -130 -345.5t-382 -120.5z" />
    <glyph glyph-name="seven" unicode="7" 
d="M149 1303v186h1005v-186q-212 -348 -314.5 -628t-169.5 -675h-205q101 460 193 721.5t310 581.5h-819z" />
    <glyph glyph-name="eight" unicode="8" 
d="M652 145q177 0 246.5 57t69.5 202v32q0 147 -69.5 204.5t-246.5 57.5t-247 -57.5t-70 -204.5v-32q0 -145 70 -202t247 -57zM651.5 866q156.5 0 218 47.5t61.5 168.5v50q0 117 -61.5 164.5t-218 47.5t-218 -47.5t-61.5 -164.5v-50q0 -121 61.5 -168.5t218 -47.5z
M651.5 -19q-264.5 0 -383.5 96t-119 308v41q0 140 77 229.5t215 102.5v54q-108 9 -181.5 83.5t-73.5 195.5v60q0 188 111 272.5t355 84.5t354.5 -84.5t110.5 -272.5v-60q0 -121 -73.5 -195.5t-181.5 -83.5v-54q138 -13 215 -103.5t77 -228.5v-41q0 -212 -119 -308
t-383.5 -96z" />
    <glyph glyph-name="nine" unicode="9" 
d="M149 1002v41q0 225 130.5 345t382.5 120t372 -144.5t120 -387.5v-453q0 -246 -121 -394t-385 -148q-222 0 -333.5 81t-148.5 262l203 43q28 -125 87.5 -171.5t211.5 -46.5t226 87.5t74 286.5v179h-37q-101 -142 -330 -142t-340.5 123t-111.5 319zM339 1022
q0 -294 314.5 -294t314.5 294v24q0 295 -314.5 295t-314.5 -295v-24z" />
    <glyph glyph-name="colon" unicode=":" 
d="M652 -19q-92 0 -149.5 38.5t-57.5 118.5v89q0 82 57.5 121t151 39t150 -39t56.5 -121v-89q0 -80 -58 -118.5t-150 -38.5zM652 726q-92 0 -149.5 38t-57.5 119v89q0 82 57.5 121t151 39t150 -39t56.5 -121v-89q0 -80 -58 -118.5t-150 -38.5z" />
    <glyph glyph-name="semicolon" unicode=";" 
d="M372 -372l168 744h370l-381 -744h-157zM652 726q-92 0 -149.5 38t-57.5 119v89q0 82 57.5 121t151 39t150 -39t56.5 -121v-89q0 -80 -58 -118.5t-150 -38.5z" />
    <glyph glyph-name="less" unicode="&#x3c;" 
d="M1117 37l-931 522v186l931 521v-177l-782 -437l782 -438v-177z" />
    <glyph glyph-name="equal" unicode="=" 
d="M130 298v186h1043v-186h-1043zM130 819v186h1043v-186h-1043z" />
    <glyph glyph-name="greater" unicode="&#x3e;" 
d="M186 37v177l782 438l-782 437v177l931 -521v-186z" />
    <glyph glyph-name="question" unicode="?" 
d="M748 138q0 -157 -180 -157q-93 0 -136 38.5t-43 118.5v52q0 82 43 121t136 39t136.5 -39t43.5 -121v-52zM1005 1028v56q0 110 -66.5 183.5t-294.5 73.5t-290 -71t-75 -248l-186 19q13 261 132 364t424.5 103t424 -116.5t118.5 -285.5v-86q0 -205 -167.5 -293t-521.5 -144
l-38 151q324 52 432 117t108 177z" />
    <glyph glyph-name="at" unicode="@" 
d="M663 544q0 -190 155 -190q75 0 116.5 34.5t41.5 140.5v208q0 102 -44 148t-113 46q-156 0 -156 -197v-190zM760 -205q-298 0 -445 162t-147 432v555q0 255 124.5 409.5t362.5 154.5t359.5 -149t121.5 -396v-455q-11 -156 -89.5 -229.5t-234.5 -73.5t-232.5 84.5
t-76.5 235.5v227q0 149 75 238.5t187 89.5t162 -103h56q-8 395 -316 395q-188 0 -269 -112.5t-81 -315.5v-555q0 -216 102 -335t341 -119q192 0 338 46v-139q-171 -47 -338 -47z" />
    <glyph glyph-name="A" unicode="A" 
d="M1033 0l-128 428h-512l-129 -428h-190l481 1489h195l481 -1489h-198zM855 596l-205 683l-207 -683h412z" />
    <glyph glyph-name="B" unicode="B" 
d="M372 168h332q141 0 206.5 54.5t65.5 177.5v60q0 123 -65.5 178t-206.5 55h-332v-525zM372 856h295q132 0 192.5 49.5t60.5 157.5v52q0 108 -60.5 157.5t-192.5 49.5h-295v-466zM186 0v1489h462q233 0 343.5 -85.5t110.5 -264.5v-83q0 -95 -54 -159.5t-149 -81.5v-54
q121 -11 192 -91t71 -206v-84q0 -194 -123 -287t-378 -93h-475z" />
    <glyph glyph-name="C" unicode="C" 
d="M149 966q0 542 523 542q257 0 381 -120t139 -384l-187 -19q-19 201 -91 278.5t-250 77.5t-253.5 -85t-75.5 -290v-450q0 -201 75.5 -284t253.5 -83t250.5 75.5t90.5 272.5l187 -19q-15 -261 -139 -379t-383 -118q-521 0 -521 535v450z" />
    <glyph glyph-name="D" unicode="D" 
d="M372 168h224q188 0 280 101.5t92 264.5v414q0 162 -92 268t-280 106h-224v-1154zM186 0v1489h412q261 0 408.5 -148t147.5 -393v-414q0 -244 -149 -389t-409 -145h-410z" />
    <glyph glyph-name="E" unicode="E" 
d="M186 0v1489h968v-167h-782v-428h689v-168h-689v-558h782v-168h-968z" />
    <glyph glyph-name="F" unicode="F" 
d="M186 0v1489h968v-167h-782v-577h652v-168h-652v-577h-186z" />
    <glyph glyph-name="G" unicode="G" 
d="M680 -19q-252 0 -391.5 139t-139.5 396v450q0 261 136 401.5t376 140.5t360 -115.5t133 -351.5l-186 -19q-15 173 -84 246t-232 73t-240 -87t-77 -288v-450q0 -199 82.5 -283t262.5 -84t252.5 96t72.5 323h-353v167h540v-201q0 -266 -130 -409.5t-382 -143.5z" />
    <glyph glyph-name="H" unicode="H" 
d="M186 0v1489h186v-595h559v595h186v-1489h-186v726h-559v-726h-186z" />
    <glyph glyph-name="I" unicode="I" 
d="M186 0v168h373v1154h-373v167h931v-167h-372v-1154h372v-168h-931z" />
    <glyph glyph-name="J" unicode="J" 
d="M614 149q317 0 317 333v840h-372v167h558v-1005q0 -244 -129 -373.5t-374 -129.5t-367 121t-135 376l186 21q13 -209 78 -279.5t238 -70.5z" />
    <glyph glyph-name="K" unicode="K" 
d="M372 707v-707h-186v1489h186v-614h64l575 614h216l-639 -685l633 -804h-223l-557 707h-69z" />
    <glyph glyph-name="L" unicode="L" 
d="M279 0v1489h186v-1321h652v-168h-838z" />
    <glyph glyph-name="M" unicode="M" 
d="M298 0h-168v1489h252l275 -895l274 895h242v-1489h-168v1192l-264 -820h-179l-264 818v-1190z" />
    <glyph glyph-name="N" unicode="N" 
d="M354 0h-168v1489h255l509 -1282v1282h167v-1489h-266l-497 1255v-1255z" />
    <glyph glyph-name="O" unicode="O" 
d="M651.5 149q171.5 0 244 84t72.5 283v450q0 203 -72.5 289t-244 86t-244 -86t-72.5 -289v-450q0 -199 72.5 -283t244 -84zM651.5 -19q-245.5 0 -374 137t-128.5 398v450q0 264 129.5 403t373.5 139t373 -138.5t129 -403.5v-450q0 -261 -128.5 -398t-374 -137z" />
    <glyph glyph-name="P" unicode="P" 
d="M372 685h335q151 0 215.5 53t64.5 180v171q0 127 -64.5 180t-215.5 53h-335v-637zM1173 914q0 -393 -466 -393h-335v-521h-186v1489h523q464 0 464 -392v-183z" />
    <glyph glyph-name="Q" unicode="Q" 
d="M651.5 168q171.5 0 244 80t72.5 268v450q0 192 -72.5 274t-244 82t-244 -82t-72.5 -274v-450q0 -188 72.5 -268t244 -80zM1154 516q0 -433 -335 -516q4 -132 91.5 -177.5t271.5 -10.5l28 -168q-276 -60 -423.5 27t-153.5 310q-238 6 -361 142t-123 393v450
q0 266 127.5 404t375.5 138t375 -137.5t127 -404.5v-450z" />
    <glyph glyph-name="R" unicode="R" 
d="M1210 981q0 -362 -365 -398l382 -583h-212l-378 577h-265v-577h-186v1489h561q463 0 463 -392v-116zM372 741h373q151 0 215 55t64 185v116q0 123 -64 174t-215 51h-373v-581z" />
    <glyph glyph-name="S" unicode="S" 
d="M607 1329q-259 0 -259 -206q0 -99 77.5 -156t319.5 -127t336 -158t94 -256q0 -214 -152.5 -325.5t-333.5 -111.5t-326 54t-261 197l134 127q155 -211 445 -211q138 0 223 64.5t85 172.5t-73 164.5t-316 127.5t-341.5 162t-98.5 272t129.5 279.5t299.5 98.5t311 -55
t249 -195l-129 -128q-74 106 -186 158t-227 52z" />
    <glyph glyph-name="T" unicode="T" 
d="M559 0v1322h-466v167h1117v-167h-465v-1322h-186z" />
    <glyph glyph-name="U" unicode="U" 
d="M1117 516q0 -535 -465.5 -535t-465.5 535v973h186v-973q0 -199 64.5 -283t215 -84t215 84t64.5 283v973h186v-973z" />
    <glyph glyph-name="V" unicode="V" 
d="M750 0h-195l-481 1489h202l379 -1253l380 1253h196z" />
    <glyph glyph-name="W" unicode="W" 
d="M871 0l-219 888l-220 -888h-186l-201 1489h184l134 -1215l196 843h195l196 -843l134 1215h175l-201 -1489h-187z" />
    <glyph glyph-name="X" unicode="X" 
d="M1050 0l-397 611l-398 -611h-218l520 760l-473 729h214l376 -580l380 580h216l-499 -728l493 -761h-214z" />
    <glyph glyph-name="Y" unicode="Y" 
d="M745 0h-186v559l-533 930h209l428 -763l408 763h204l-530 -930v-559z" />
    <glyph glyph-name="Z" unicode="Z" 
d="M1154 0h-1005v168l782 1154h-782v167h1005v-167l-783 -1154h783v-168z" />
    <glyph glyph-name="bracketleft" unicode="[" 
d="M372 -372v1861h652v-167h-465v-1549h465v-145h-652z" />
    <glyph glyph-name="backslash" unicode="\" 
d="M931 -372l-745 1861h186l745 -1861h-186z" />
    <glyph glyph-name="bracketright" unicode="]" 
d="M279 -372v145h466v1549h-466v167h652v-1861h-652z" />
    <glyph glyph-name="asciicircum" unicode="^" 
d="M1052 372l-399 920l-383 -920h-177l466 1117h186l484 -1117h-177z" />
    <glyph glyph-name="underscore" unicode="_" 
d="M130 -372v186h1043v-186h-1043z" />
    <glyph glyph-name="grave" unicode="`" 
d="M735 745l-418 744h370l205 -744h-157z" />
    <glyph glyph-name="a" unicode="a" 
d="M594 1136q184 0 307 -83t123 -256v-499q0 -101 56 -126t167 -6v-172q-115 -17 -216.5 16t-110.5 176h-37q-52 -86 -157.5 -145.5t-239.5 -59.5t-245 75.5t-111 233.5t96 241t225 83h387v161q0 89 -59.5 141t-181.5 52t-182.5 -36t-96.5 -161l-163 44q65 321 439 321z
M317 311q0 -170 206 -170t315 155v179h-335q-186 0 -186 -164z" />
    <glyph glyph-name="b" unicode="b" 
d="M931 411v298q0 250 -224 250q-177 0 -335 -196v-547q122 -71 263 -71q296 0 296 266zM628 -19q-236 0 -442 131v1377h186v-558h56q48 97 134 151t192 54q173 0 268 -112t95 -313v-303q0 -203 -126.5 -315t-362.5 -112z" />
    <glyph glyph-name="c" unicode="c" 
d="M186 404v302q0 212 124 321t353 109q448 0 475 -384l-183 -11q-14 227 -281 227q-153 0 -227.5 -64t-74.5 -198v-302q0 -255 306 -255q267 0 277 190l183 -11q-26 -347 -460 -347q-244 0 -368 107t-124 316z" />
    <glyph glyph-name="d" unicode="d" 
d="M667 1136q130 0 264 -52v405h186v-1489h-186v186h-56q-48 -97 -134 -151t-192 -54q-173 0 -268 112t-95 313v303q0 203 126.5 315t354.5 112zM372 406q0 -248 224 -248q177 0 335 196v547q-118 71 -263 71q-296 0 -296 -266v-300z" />
    <glyph glyph-name="e" unicode="e" 
d="M372 706v-45h559v28q0 151 -70 219.5t-209.5 68.5t-209.5 -65.5t-70 -205.5zM648 -19q-218 0 -340 107t-122 318v300q0 216 129.5 323t338.5 107t336 -109t127 -334v-172h-745v-117q0 -140 70 -202t207 -62t198.5 37t92.5 121l181 -52q-50 -140 -152.5 -202.5
t-320.5 -62.5z" />
    <glyph glyph-name="f" unicode="f" 
d="M877 1341q-225 0 -225 -148v-76h465v-167h-465v-950h-187v950h-316v167h316v75q0 151 118.5 233.5t271.5 82.5t297 -48l-37 -157q-120 38 -238 38z" />
    <glyph glyph-name="g" unicode="g" 
d="M279 -89q0 -153 196 -153h378q188 0 188 140t-170 139h-592v-126zM382 741q0 -169 232.5 -169t232.5 169v60q0 88 -59.5 127.5t-232.5 39.5t-173 -167v-60zM279 320q0 -115 145 -115h423q156 0 259.5 -68.5t103.5 -222.5t-110.5 -229.5t-270.5 -75.5h-351
q-168 0 -276.5 67t-108.5 207q0 89 47.5 142t138.5 61v39q-149 25 -149 186q0 80 50.5 144t169.5 74v35q-91 30 -123 90.5t-32 116.5v50q0 128 110 212t309 84h550v-167l-289 42v-33q74 -20 112.5 -78t38.5 -116v-48q0 -128 -98.5 -207.5t-320.5 -79.5h-225
q-103 0 -103 -110z" />
    <glyph glyph-name="h" unicode="h" 
d="M711 959q-170 0 -339 -196v-763h-186v1489h186v-558h56q41 95 128.5 150t199.5 55q168 0 264.5 -102.5t96.5 -277.5v-756h-186v717q0 117 -57 179.5t-163 62.5z" />
    <glyph glyph-name="i" unicode="i" 
d="M186 0v168h373v782h-373v167h559v-949h372v-168h-931zM810 1428q0 -62 -44 -84t-115 -22q-70 0 -114 22t-44 84v13q0 63 44 87t115 23q70 0 114 -23t44 -87v-13z" />
    <glyph glyph-name="j" unicode="j" 
d="M745 950h-522v167h708v-1128q1 -192 -129 -284t-306 -92t-308 41l37 178q111 -39 241 -40q277 -3 279 221v937zM831 1322q-69 0 -113 22t-44 84v13q0 63 44 87t114 23q70 0 115 -23q44 -23 43 -87v-13q0 -61 -44 -84q-45 -22 -115 -22z" />
    <glyph glyph-name="k" unicode="k" 
d="M465 508v-508h-186v1489h186v-824h95l358 452h227l-438 -519l432 -598h-212l-367 508h-95z" />
    <glyph glyph-name="l" unicode="l" 
d="M186 0v168h373v1154h-373v167h559v-1321h372v-168h-931z" />
    <glyph glyph-name="m" unicode="m" 
d="M477 996q-75 0 -194 -195v-801h-171v1117h171v-149h37q35 78 93 123t126 45t117.5 -44t67.5 -124h41q35 78 96 123t141 45t135 -75.5t55 -204.5v-856h-172v827q0 169 -87 169q-35 0 -88.5 -52t-107.5 -143v-801h-171v827q0 169 -89 169z" />
    <glyph glyph-name="n" unicode="n" 
d="M711 959q-170 0 -339 -196v-763h-186v1117h186v-186h56q41 95 128.5 150t199.5 55q168 0 264.5 -102.5t96.5 -279.5v-754h-186v717q0 117 -57 179.5t-163 62.5z" />
    <glyph glyph-name="o" unicode="o" 
d="M372 404q0 -255 279.5 -255t279.5 255v302q0 134 -69 198t-210.5 64t-210.5 -64t-69 -198v-302zM651.5 -19q-225.5 0 -345.5 109t-120 314v302q0 207 121 318.5t345 111.5t344.5 -112t120.5 -318v-302q0 -205 -120 -314t-345.5 -109z" />
    <glyph glyph-name="p" unicode="p" 
d="M637 -19q-134 0 -265 53v-406h-186v1489h186v-186h56q47 95 135.5 150t190.5 55q168 0 265.5 -114.5t97.5 -310.5v-303q0 -197 -129 -312t-351 -115zM640 145q151 0 221 63.5t70 202.5v302q0 128 -52.5 187t-158.5 59t-186 -46.5t-162 -149.5v-547q117 -71 268 -71z" />
    <glyph glyph-name="q" unicode="q" 
d="M372 706v-282q0 -136 55 -201t169 -65q180 0 335 196v547q-128 71 -257 71t-215.5 -65t-86.5 -201zM689 1136q227 0 428 -116v-1392h-186v558h-56q-101 -205 -326 -205q-177 0 -270 110t-93 315v303q0 207 138 317t365 110z" />
    <glyph glyph-name="r" unicode="r" 
d="M758 959q-172 0 -293 -177v-782h-186v1117h186v-186h56q75 205 313 205q125 0 208.5 -83t83.5 -234v-167h-176v100q0 207 -192 207z" />
    <glyph glyph-name="s" unicode="s" 
d="M371 818q0 -82 67.5 -117t270.5 -59q416 -50 416 -324q0 -175 -141.5 -256t-299.5 -81q-316 0 -535 172l84 147q186 -151 434 -151q97 0 185 30t88 118t-72 121.5t-272 57.5t-305 96t-105 234t126.5 246t276.5 84q280 0 498 -172l-83 -147q-188 151 -397 151
q-89 0 -162.5 -34t-73.5 -116z" />
    <glyph glyph-name="t" unicode="t" 
d="M447 354v596h-317v167h317v372h186v-372h484v-167h-484v-579q0 -213 214 -213q120 0 250 37l37 -169q-143 -43 -312 -43q-170 0 -272.5 91.5t-102.5 279.5z" />
    <glyph glyph-name="u" unicode="u" 
d="M592 158q172 0 339 196v763h186v-1117h-186v186h-56q-39 -91 -129.5 -148t-198.5 -57q-162 0 -261.5 105.5t-99.5 276.5v754h186v-717q0 -123 54 -182.5t166 -59.5z" />
    <glyph glyph-name="v" unicode="v" 
d="M767 0h-233l-396 1117h203l312 -966l313 966h198z" />
    <glyph glyph-name="w" unicode="w" 
d="M815 0l-163 728l-157 -728h-212l-210 1117h178l142 -981l145 795h220l158 -765l136 951h179l-211 -1117h-205z" />
    <glyph glyph-name="x" unicode="x" 
d="M929 0l-289 426l-275 -426h-207l391 560l-378 557h209l277 -410l281 410h207l-395 -547l388 -570h-209z" />
    <glyph glyph-name="y" unicode="y" 
d="M354 -220q76 0 145 51t104 169h-69l-396 1117h203l314 -961l313 961h196l-410 -1154q-121 -347 -434 -347q-70 0 -175 21l32 166q101 -23 177 -23z" />
    <glyph glyph-name="z" unicode="z" 
d="M1080 0h-857v168l628 782h-628v167h857v-167l-628 -782h628v-168z" />
    <glyph glyph-name="braceleft" unicode="{" 
d="M707 328q0 -47 -27.5 -90.5t-95.5 -103.5t-93.5 -100t-25.5 -92q0 -93 122 -134t437 -35v-164q-391 -7 -568 70t-177 239q0 93 38.5 156.5t84.5 109.5t82.5 87.5t36.5 87.5q0 88 -93 124t-335 42v112q242 6 335 41t93 121q0 47 -37 79t-84 73q-45 41 -83 99t-38 153
q0 158 177 235.5t568 69.5v-167q-315 6 -437 -33.5t-122 -127.5q0 -37 27 -76t95 -101t94 -106t26 -96q0 -204 -357 -218v-10q357 -39 357 -245z" />
    <glyph glyph-name="bar" unicode="|" 
d="M568 -372v1861h167v-1861h-167z" />
    <glyph glyph-name="braceright" unicode="}" 
d="M596 801q0 52 26 95.5t94 105.5t95 101.5t27 76.5q0 88 -122 127t-437 34v167q391 7 568 -70t177 -235q0 -95 -38 -153t-84 -99t-83 -73.5t-37 -78.5q0 -86 93 -121.5t335 -40.5v-112q-242 -6 -335 -42t-93 -124q0 -47 37 -87.5t83 -87.5t84 -110t38 -156
q0 -162 -177 -239t-568 -70v164q315 -6 437 35t122 134q0 52 -25 92t-91 96q-71 65 -98.5 108t-27.5 90q0 208 357 245v10q-357 14 -357 218z" />
    <glyph glyph-name="asciitilde" unicode="~" 
d="M906 391q-116 0 -184.5 62.5t-133.5 214.5t-100.5 199t-87.5 47t-86.5 -49.5t-34.5 -170.5v-284h-167v296q0 190 85 291t201 101t184 -63t132 -213t100.5 -198.5t88.5 -48.5t86.5 49.5t34.5 172.5v283h168v-296q0 -190 -85 -291.5t-201 -101.5z" />
    <glyph glyph-name="exclamdown" unicode="&#xa1;" 
d="M728 931l56 -931h-261l56 931h149zM473 1352q0 156 179 156q93 0 136.5 -38t43.5 -118v-52q0 -82 -43.5 -121.5t-136.5 -39.5t-136 39.5t-43 121.5v52z" />
    <glyph glyph-name="cent" unicode="&#xa2;" 
d="M596 -93v264q-218 17 -314 128.5t-96 309.5v279q0 194 97 304.5t313 125.5v265h149v-263q194 -13 287 -112.5t106 -287.5l-174 -11q-7 134 -62 186t-176 57v-815q121 4 176 51.5t62 173.5l174 -11q-13 -184 -106.5 -276.5t-286.5 -105.5v-262h-149zM372 590
q0 -123 59 -182.5t183 -70.5v815q-125 -9 -183.5 -69.5t-58.5 -183.5v-309z" />
    <glyph glyph-name="sterling" unicode="&#xa3;" 
d="M564 561q0 -75 -30.5 -153t-136.5 -153l22 -32q52 34 98.5 29.5t97.5 -20.5t98.5 -42t101.5 -26q95 0 136 55t54 204l187 -19q-13 -207 -114.5 -315t-276.5 -108q-69 0 -133 34.5t-124 60.5t-108.5 39t-100.5 -20l-171 -112l-106 138l152 93q67 41 115.5 135t48.5 191
t-41 177h-259v167h164q-54 101 -54 228q0 179 116.5 287.5t344.5 108.5t343.5 -97.5t128.5 -313.5l-186 -19q-13 149 -77.5 206t-210.5 57t-208.5 -56t-62.5 -169t73 -232h374v-167h-285q30 -81 30 -156z" />
    <glyph glyph-name="currency" unicode="&#xa4;" 
d="M650 168q-192 0 -294 102l-162 -166l-118 118l190 193q-24 81 -24 175v302q0 102 26 180l-192 196l118 117l163 -167q108 104 296.5 104t296.5 -106l160 160l117 -117l-190 -190q24 -81 24 -177v-302q0 -104 -24 -169l190 -190l-117 -117l-159 158q-109 -104 -301 -104z
M651.5 1154q-223.5 0 -223.5 -262v-302q0 -136 56 -195.5t167.5 -59.5t167.5 59.5t56 195.5v302q0 262 -223.5 262z" />
    <glyph glyph-name="yen" unicode="&#xa5;" 
d="M1117 186h-372v-186h-186v186h-373v168h373v205h-373v167h278l-438 763h203l423 -795l422 795h201l-435 -763h277v-167h-372v-205h372v-168z" />
    <glyph glyph-name="brokenbar" unicode="&#xa6;" 
d="M568 -372v744h167v-744h-167zM568 745v744h167v-744h-167z" />
    <glyph glyph-name="section" unicode="&#xa7;" 
d="M1126 -24q0 -184 -128.5 -272.5t-312.5 -88.5q-130 0 -250 45.5t-210 129.5l93 150q95 -80 181.5 -119t191.5 -39t182.5 39t77.5 146t-103.5 155t-271.5 82t-279 108.5t-111 233.5q0 106 65.5 172t165.5 96q-112 50 -171.5 127t-59.5 195q0 194 137 277.5t285 83.5
q293 0 479 -175l-93 -151q-95 80 -181.5 119t-194.5 39t-182.5 -45.5t-74.5 -127.5q0 -119 103.5 -166.5t271.5 -81.5t279 -109t111 -233q0 -106 -65 -172t-165 -96q230 -103 230 -322zM940 544q0 98 -77 133.5t-139 48.5t-78.5 17t-32.5 7q-93 -2 -167 -43.5t-74 -139.5
t77.5 -133.5t154.5 -51.5t96 -21q93 2 166.5 43.5t73.5 139.5z" />
    <glyph glyph-name="dieresis" unicode="&#xa8;" 
d="M987 1428q-1 -62 -35 -84t-87 -22t-87 22t-33 84v13q0 63 33 87q34 23 88 23t88 -23t33 -87v-13zM559 1428q-1 -62 -35 -84t-87 -22t-87 22t-33 84v13q0 63 33 87q34 23 88 23t88 -23t33 -87v-13z" />
    <glyph glyph-name="copyright" unicode="&#xa9;" 
d="M546 516q0 -179 118 -179q60 0 82.5 32.5t29.5 138.5l155 -11q-11 -162 -72 -236.5t-204 -74.5q-277 0 -277 346v319q0 341 278 341q142 0 203 -80.5t72 -247.5l-155 -11q-7 112 -30.5 150t-83.5 38t-88 -41t-28 -138v-346zM652 -82q255 0 369.5 133t114.5 426v415
q0 298 -114.5 433t-369.5 135t-369.5 -136t-114.5 -434v-412q0 -294 114.5 -427t369.5 -133zM651.5 -205q-320.5 0 -467.5 178t-147 505v414q0 331 148 511t468.5 180t466.5 -180t146 -511v-414q0 -328 -147 -505.5t-467.5 -177.5z" />
    <glyph glyph-name="ordfeminine" unicode="&#xaa;" 
d="M588 1508q151 0 251.5 -71.5t100.5 -220.5v-347q0 -89 39 -107.5t138 -7.5v-147q-106 -7 -181.5 18t-82.5 148h-32q-43 -74 -128 -124.5t-195 -50.5t-200.5 59t-90.5 181t81 188.5t192 66.5h302v104q0 76 -47.5 124.5t-143.5 48.5t-145 -28t-79 -126l-140 39
q49 253 361 253zM527 970q-160 0 -160 -115q0 -58 39 -89t134 -31q152 0 242 133v102h-255z" />
    <glyph glyph-name="guillemotleft" unicode="&#xab;" 
d="M616 184l-484 373v186l484 372v-177l-374 -288l374 -289v-177zM1175 184l-484 373v186l484 372v-177l-374 -288l374 -289v-177z" />
    <glyph glyph-name="logicalnot" unicode="&#xac;" 
d="M987 0v559h-857v186h1043v-745h-186z" />
    <glyph glyph-name="registered" unicode="&#xae;" 
d="M881 1011q0 -136 -121 -175l132 -235h-138l-125 224h-76v-224h-121v667h238q102 0 156.5 -52t54.5 -153v-52zM553 933h117q47 0 67.5 18.5t20.5 59.5v52q0 52 -20.5 74.5t-67.5 22.5h-117v-227zM651.5 363q210.5 0 309 102.5t98.5 318.5v285q0 222 -98.5 325t-309 103
t-309 -103.5t-98.5 -324.5v-285q0 -216 98.5 -318.5t309 -102.5zM651.5 257q-271.5 0 -396.5 138.5t-125 369.5v322q0 233 125 373.5t397 140.5t396.5 -140.5t124.5 -373.5v-322q0 -231 -125 -369.5t-396.5 -138.5z" />
    <glyph glyph-name="macron" unicode="&#x2c9;" 
d="M279 1406v167h745v-167h-745z" />
    <glyph glyph-name="macron" unicode="&#xaf;" 
d="M279 1406v167h745v-167h-745z" />
    <glyph glyph-name="degree" unicode="&#xb0;" 
d="M847 1156q1 183 -195 183t-196 -183v-173q0 -95 48.5 -136t145.5 -41t147 41t50 136v173zM651.5 644q-167.5 0 -270 83t-102.5 256v173q0 173 102.5 259t270.5 86t270 -86t102 -259v-173q0 -173 -102.5 -256t-270 -83z" />
    <glyph glyph-name="plusminus" unicode="&#xb1;" 
d="M559 261v484h-429v186h429v484h186v-484h428v-186h-428v-484h-186zM130 0v186h1043v-186h-1043z" />
    <glyph glyph-name="two.sups" unicode="&#xb2;" 
d="M279 566v194q0 226 218 271l227 47q65 13 93 42t28 86v36q0 60 -39 94t-154.5 34t-150 -38t-41.5 -133l-170 13q7 143 85.5 216t276 73t279.5 -68t82 -186v-63q0 -194 -212 -234l-228 -47q-58 -11 -91 -39t-33 -103v-59h577v-136h-747z" />
    <glyph glyph-name="three.sups" unicode="&#xb3;" 
d="M642 555q-200 0 -283 68t-91 202l168 11q9 -82 46 -115.5t165 -33.5t168.5 35.5t40.5 98.5v30q0 69 -40.5 101.5t-163.5 32.5h-153v134h153q101 0 141.5 20.5t40.5 79.5v38q0 63 -52 87t-142 24t-131.5 -29.5t-48.5 -98.5l-170 11q9 134 93.5 192t248.5 58t267 -48.5
t103 -184.5v-30q0 -74 -48.5 -116t-126.5 -50v-33q88 -7 143.5 -60.5t55.5 -135.5v-26q0 -136 -92 -199t-292 -63z" />
    <glyph glyph-name="acute" unicode="&#xb4;" 
d="M439 1303l254 373h279l-363 -373h-170z" />
    <glyph glyph-name="mu1" unicode="&#xb5;" 
d="M168 1117h186v-752q0 -112 64 -159q64 -48 152 -48t150 37t118 103v819h186v-819q0 -101 47 -125t139 -7v-172q-276 -41 -290 192h-37q-47 -80 -128 -142t-205 -62t-196 91v-36l18 -409h-223l19 409v1080z" />
    <glyph glyph-name="paragraph" unicode="&#xb6;" 
d="M931 633h-186v-1005h-186v1005q-168 0 -298.5 83t-130.5 284v97q0 205 129.5 298.5t297.5 93.5h560v-1861h-186v1005z" />
    <glyph glyph-name="periodcentered" unicode="&#x2219;" 
d="M652 540q-92 0 -149.5 42t-57.5 133v52q0 91 57.5 135t151 44t150 -44t56.5 -135v-52q0 -91 -58 -133t-150 -42z" />
    <glyph glyph-name="periodcentered" unicode="&#xb7;" 
d="M652 540q-92 0 -149.5 42t-57.5 133v52q0 91 57.5 135t151 44t150 -44t56.5 -135v-52q0 -91 -58 -133t-150 -42z" />
    <glyph glyph-name="cedilla" unicode="&#xb8;" 
d="M582 -402q-114 0 -190 46q-77 46 -85 151l164 19q4 -36 29 -50t82 -14q58 0 86 24q28 23 28 86t-23 94t-77 46l37 78q82 -15 156 -70q75 -54 75 -176t-84 -178t-198 -56z" />
    <glyph glyph-name="one.sups" unicode="&#xb9;" 
d="M372 566v136h254v592h-28q-22 -74 -88.5 -119t-150.5 -47l-11 140q88 4 172.5 57t108.5 164h166v-787h231v-136h-654z" />
    <glyph glyph-name="ordmasculine" unicode="&#xba;" 
d="M890 1154q0 209 -239.5 209t-239.5 -209v-212q0 -106 60.5 -153.5t180 -47.5t179 47.5t59.5 153.5v212zM651.5 598q-178.5 0 -289.5 84.5t-111 259.5v212q0 179 111 266.5t289.5 87.5t288.5 -87.5t110 -266.5v-212q0 -175 -110 -259.5t-288.5 -84.5z" />
    <glyph glyph-name="guillemotright" unicode="&#xbb;" 
d="M689 186v177l376 289l-376 288v177l484 -372v-186zM130 186v177l376 289l-376 288v177l484 -372v-186z" />
    <glyph glyph-name="onequarter" unicode="&#xbc;" 
d="M741 -82v369l-326 -369h326zM1084 -212h-174v-179h-169v179h-473v130l421 484h221v-484h174v-130zM737 503v111l566 38v-187zM0 465v187l592 -38v-111zM335 763v136h253v406h-28q-22 -74 -87 -119q-73 -47 -151 -47l-11 140q100 4 175 58q84 56 106 164h166v-602h231
v-136h-654z" />
    <glyph glyph-name="onehalf" unicode="&#xbd;" 
d="M845 173q0 91 -151.5 91t-188.5 -26t-45 -108l-170 13q8 131 89 192q81 60 273 60q279 0 320 -82t41 -134v-64q0 -122 -81 -154t-131 -43l-228 -46q-68 -14 -88 -30q-36 -30 -36 -97h577v-136h-747v156q0 194 218 235l227 47q98 20 109.5 45t11.5 46v35zM737 503v111
l566 38v-187zM0 465v187l592 -38v-111zM335 763v136h253v406h-28q-22 -74 -87 -119q-73 -47 -151 -47l-11 140q100 4 175 58q84 56 106 164h166v-602h231v-136h-654z" />
    <glyph glyph-name="threequarters" unicode="&#xbe;" 
d="M741 -82v369l-326 -369h326zM1084 -212h-174v-179h-169v179h-473v130l421 484h221v-484h174v-130zM737 503v111l566 38v-187zM0 465v187l592 -38v-111zM834 1324q0 56 -163.5 56t-185 -33t-25.5 -59l-170 12q8 112 92 163q88 49 259 49t240 -29t95 -63.5t26 -84.5v-30
q0 -65 -49 -102q-42 -36 -126 -45v-33q89 -8 143 -45q56 -34 56 -95v-26q0 -160 -140 -183.5t-240 -23.5q-200 0 -287 58q-83 51 -91 175l168 11q8 -66 48 -89t133 -23q199 0 219 29t20 50v29q0 40 -32 55q-55 24 -172 24h-97v134h97q105 1 134 13t38.5 28t9.5 41v37z" />
    <glyph glyph-name="questiondown" unicode="&#xbf;" 
d="M298 462v-56q0 -110 66 -183.5t295 -73.5t290.5 70.5t74.5 247.5l186 -18q-13 -261 -132 -364.5t-424.5 -103.5t-423.5 116.5t-118 286.5v85q0 205 167.5 293.5t521.5 144.5l37 -151q-324 -52 -432 -117.5t-108 -176.5zM555 1352q0 156 180 156q93 0 136 -38t43 -118v-52
q0 -82 -42.5 -121.5t-136 -39.5t-137 39.5t-43.5 121.5v52z" />
    <glyph glyph-name="Agrave" unicode="&#xc0;" 
d="M1033 0l-128 428h-512l-129 -428h-190l481 1489h195l481 -1489h-198zM855 596l-205 683l-207 -683h412zM655 1676l-363 372h280l253 -372h-170z" />
    <glyph glyph-name="Aacute" unicode="&#xc1;" 
d="M1033 0l-128 428h-512l-129 -428h-190l481 1489h195l481 -1489h-198zM855 596l-205 683l-207 -683h412zM441 1676l253 372h280l-363 -372h-170z" />
    <glyph glyph-name="Acircumflex" unicode="&#xc2;" 
d="M1033 0l-128 428h-512l-129 -428h-190l481 1489h195l481 -1489h-198zM855 596l-205 683l-207 -683h412zM331 1683l-70 119l324 278h134l327 -278l-70 -119l-324 216z" />
    <glyph glyph-name="Atilde" unicode="&#xc3;" 
d="M1033 0l-128 428h-512l-129 -428h-190l481 1489h195l481 -1489h-198zM855 596l-205 683l-207 -683h412zM801 1694q-63 0 -111 37t-136 144q-29 33 -63 33q-35 0 -61 -34t-24 -141v-20h-143v28q0 140 63 233t180 93q71 0 117 -34q45 -34 77 -74q32 -39 58 -73t59 -34
t59 35q25 34 25 141v20h143v-28q0 -142 -63 -234t-180 -92z" />
    <glyph glyph-name="Adieresis" unicode="&#xc4;" 
d="M1033 0l-128 428h-512l-129 -428h-190l481 1489h195l481 -1489h-198zM855 596l-205 683l-207 -683h412zM989 1800q0 -106 -121 -106q-54 0 -88 22t-33 84v13q0 63 33 87q34 23 88 23t88 -23t33 -87v-13zM560 1800q0 -62 -34 -84t-88 -22q-52 0 -86 22t-34 84v13
q0 63 34 87t88 23q54 0 87 -23q34 -23 33 -87v-13z" />
    <glyph glyph-name="Aring" unicode="&#xc5;" 
d="M1033 0l-128 428h-512l-129 -428h-190l481 1489h195l481 -1489h-198zM855 596l-205 683l-207 -683h412zM806 1977q0 142 -152 143t-153 -143v-59q0 -74 38 -106t113 -32t115 32q39 32 39 106v59zM653 1648q-133 0 -215 66t-82 204v59q0 140 82 208t216 68t215 -68
q82 -68 82 -208v-59q0 -138 -82 -204t-216 -66z" />
    <glyph glyph-name="AE" unicode="&#xc6;" 
d="M670 428h-385l-125 -428h-160l452 1489h833v-148h-447v-466h428v-149h-428v-577h447v-149h-615v428zM670 577v764h-119l-223 -764h342z" />
    <glyph glyph-name="Ccedilla" unicode="&#xc7;" 
d="M149 966q0 542 523 542q257 0 381 -120t139 -384l-187 -19q-19 201 -90 278q-73 77 -251 77t-253 -84q-75 -85 -76 -290v-450q-1 -201 75 -284t254 -83t251 75q72 75 90 273l187 -19q-15 -261 -139 -378q-83 -80 -228 -106q57 -56 57 -170t-83 -170t-197 -56t-191 46
t-85 151l164 19q4 -36 29 -50t81 -14t86 24q29 23 29 86q1 62 -17 86t-38 35q-511 6 -511 535v450z" />
    <glyph glyph-name="Egrave" unicode="&#xc8;" 
d="M186 0v1489h968v-167h-782v-428h689v-168h-689v-558h782v-168h-968zM672 1676l-363 372h279l254 -372h-170z" />
    <glyph glyph-name="Eacute" unicode="&#xc9;" 
d="M186 0v1489h968v-167h-782v-428h689v-168h-689v-558h782v-168h-968zM495 1676l253 372h280l-363 -372h-170z" />
    <glyph glyph-name="Ecircumflex" unicode="&#xca;" 
d="M186 0v1489h968v-167h-782v-428h689v-168h-689v-558h782v-168h-968zM367 1683l-71 119l324 278h134l328 -278l-71 -119l-324 216z" />
    <glyph glyph-name="Edieresis" unicode="&#xcb;" 
d="M186 0v1489h968v-167h-782v-428h689v-168h-689v-558h782v-168h-968zM1024 1800q0 -62 -34 -84t-88 -22q-53 0 -87 22t-33 84v13q0 63 33 87q34 23 88 23q53 0 87 -23t34 -87v-13zM596 1800q0 -106 -121 -106q-54 0 -88 22t-33 84v13q0 63 33 87q34 23 88 23q53 0 87 -23
t34 -87v-13z" />
    <glyph glyph-name="Igrave" unicode="&#xcc;" 
d="M186 0v168h373v1154h-373v167h931v-167h-372v-1154h372v-168h-931zM653 1676l-363 372h280l253 -372h-170z" />
    <glyph glyph-name="Iacute" unicode="&#xcd;" 
d="M186 0v168h373v1154h-373v167h931v-167h-372v-1154h372v-168h-931zM439 1676l254 372h279l-363 -372h-170z" />
    <glyph glyph-name="Icircumflex" unicode="&#xce;" 
d="M186 0v168h373v1154h-373v167h931v-167h-372v-1154h372v-168h-931zM330 1683l-71 119l324 278h134l327 -278l-70 -119l-324 216z" />
    <glyph glyph-name="Idieresis" unicode="&#xcf;" 
d="M186 0v168h373v1154h-373v167h931v-167h-372v-1154h372v-168h-931zM987 1800q0 -106 -121 -106q-54 0 -88 22t-33 84v13q0 63 33 87q34 23 88 23t88 -23t33 -87v-13zM559 1800q0 -106 -121 -106q-54 0 -88 22t-33 84v13q0 63 33 87q34 23 88 23t88 -23t33 -87v-13z" />
    <glyph glyph-name="Eth" unicode="&#xd0;" 
d="M372 168h224q188 0 280 101.5t92 264.5v414q0 162 -92 268t-280 106h-224v-419h280v-168h-280v-567zM186 0v735h-186v168h186v586h412q261 0 408.5 -148t147.5 -393v-414q0 -244 -149 -389t-409 -145h-410z" />
    <glyph glyph-name="Ntilde" unicode="&#xd1;" 
d="M354 0h-168v1489h255l509 -1282v1282h167v-1489h-266l-497 1255v-1255zM836 1694q-63 0 -107 34q-43 34 -77 74t-63 73t-63 33t-60 -34t-25 -141v-20h-143v28q0 140 63 233t181 93q70 0 116 -34t78 -74q32 -39 57 -73t59 -34q84 1 84 176v20h144v-28q0 -141 -63 -234
q-64 -92 -181 -92z" />
    <glyph glyph-name="Ograve" unicode="&#xd2;" 
d="M652 149q171 0 244 84t72 283v450q0 203 -72 289q-73 86 -244 86t-244 -86t-73 -289v-450q0 -199 73 -283t244 -84zM652 -19q-246 0 -375 137q-128 137 -128 398v450q0 264 129 403t374 139q246 0 374 -139t128 -403v-450q0 -261 -128 -398t-374 -137zM653 1676l-363 372
h280l253 -372h-170z" />
    <glyph glyph-name="Oacute" unicode="&#xd3;" 
d="M652 149q171 0 244 84t72 283v450q0 203 -72 289q-73 86 -244 86t-244 -86t-73 -289v-450q0 -199 73 -283t244 -84zM652 -19q-246 0 -375 137q-128 137 -128 398v450q0 264 129 403t374 139q246 0 374 -139t128 -403v-450q0 -261 -128 -398t-374 -137zM514 1676l253 372
h279l-363 -372h-169z" />
    <glyph glyph-name="Ocircumflex" unicode="&#xd4;" 
d="M652 149q171 0 244 84t72 283v450q0 203 -72 289q-73 86 -244 86t-244 -86t-73 -289v-450q0 -199 73 -283t244 -84zM652 -19q-246 0 -375 137q-128 137 -128 398v450q0 264 129 403t374 139q246 0 374 -139t128 -403v-450q0 -261 -128 -398t-374 -137zM330 1683l-71 119
l324 278h134l327 -278l-70 -119l-324 216z" />
    <glyph glyph-name="Otilde" unicode="&#xd5;" 
d="M652 149q171 0 244 84t72 283v450q0 203 -72 289q-73 86 -244 86t-244 -86t-73 -289v-450q0 -199 73 -283t244 -84zM652 -19q-246 0 -375 137q-128 137 -128 398v450q0 264 129 403t374 139q246 0 374 -139t128 -403v-450q0 -261 -128 -398t-374 -137zM799 1694
q-63 0 -111 37t-136 144q-29 33 -63 33q-35 0 -61 -34t-24 -141v-20h-143v28q0 140 63 233t181 93q71 0 117 -34t76 -74q32 -39 58 -73t60 -34q84 1 83 176v20h144v-28q1 -142 -63 -234t-181 -92z" />
    <glyph glyph-name="Odieresis" unicode="&#xd6;" 
d="M652 149q171 0 244 84t72 283v450q0 203 -72 289q-73 86 -244 86t-244 -86t-73 -289v-450q0 -199 73 -283t244 -84zM652 -19q-246 0 -375 137q-128 137 -128 398v450q0 264 129 403t374 139q246 0 374 -139t128 -403v-450q0 -261 -128 -398t-374 -137zM987 1800
q0 -106 -121 -106q-54 0 -88 22t-33 84v13q0 63 33 87q34 23 88 23t88 -23t33 -87v-13zM559 1800q0 -106 -121 -106q-54 0 -88 22t-33 84v13q0 63 33 87q34 23 88 23t88 -23t33 -87v-13z" />
    <glyph glyph-name="multiply" unicode="&#xd7;" 
d="M249 86l-117 117l402 449l-402 448l117 118l403 -449l402 439l117 -117l-402 -439l402 -440l-117 -117l-402 439z" />
    <glyph glyph-name="Oslash" unicode="&#xd8;" 
d="M1154 966v-450q0 -261 -129 -398t-373 -137q-129 0 -216 36l-82 -203h-186l117 296q-136 136 -136 406v450q0 264 129.5 403t374.5 139q107 0 183 -24l76 192h186l-109 -272q165 -135 165 -438zM968 516v450q0 189 -61 278l-425 -1067q73 -28 170 -28q173 0 244.5 84
t71.5 283zM652 1341q-173 0 -245 -85t-72 -290v-450q0 -149 39 -233l415 1041q-73 17 -137 17z" />
    <glyph glyph-name="Ugrave" unicode="&#xd9;" 
d="M1117 516q0 -535 -465 -535t-466 535v973h186v-973q0 -199 64 -283t216 -84q151 0 215 84t64 283v973h186v-973zM653 1676l-363 372h280l253 -372h-170z" />
    <glyph glyph-name="Uacute" unicode="&#xda;" 
d="M1117 516q0 -535 -465 -535t-466 535v973h186v-973q0 -199 64 -283t216 -84q151 0 215 84t64 283v973h186v-973zM439 1676l254 372h279l-363 -372h-170z" />
    <glyph glyph-name="Ucircumflex" unicode="&#xdb;" 
d="M1117 516q0 -535 -465 -535t-466 535v973h186v-973q0 -199 64 -283t216 -84q151 0 215 84t64 283v973h186v-973zM330 1683l-71 119l324 278h134l327 -278l-70 -119l-324 216z" />
    <glyph glyph-name="Udieresis" unicode="&#xdc;" 
d="M1117 516q0 -535 -465 -535t-466 535v973h186v-973q0 -199 64 -283t216 -84q151 0 215 84t64 283v973h186v-973zM987 1800q0 -106 -121 -106q-54 0 -88 22t-33 84v13q0 63 33 87q34 23 88 23t88 -23t33 -87v-13zM559 1800q0 -106 -121 -106q-54 0 -88 22t-33 84v13
q0 63 33 87q34 23 88 23t88 -23t33 -87v-13z" />
    <glyph glyph-name="Yacute" unicode="&#xdd;" 
d="M745 0h-186v559l-533 930h209l428 -763l408 763h204l-530 -930v-559zM439 1676l254 372h279l-363 -372h-170z" />
    <glyph glyph-name="Thorn" unicode="&#xde;" 
d="M372 443h335q151 0 215.5 55t64.5 185v172q0 123 -64.5 174t-215.5 51h-335v-637zM186 0v1489h186v-242h337q231 0 347.5 -99.5t116.5 -292.5v-172q0 -199 -117.5 -301.5t-348.5 -102.5h-335v-279h-186z" />
    <glyph glyph-name="germandbls" unicode="&#xdf;" 
d="M874 -11q-279 0 -435 162l103 147q63 -58 147.5 -100t172.5 -42t154 33t66 119t-59 119t-181 55q-195 35 -289.5 113.5t-94.5 215.5t117.5 227t284.5 92q-17 106 -97.5 151t-192.5 45t-201.5 -63.5t-89.5 -214.5v-1048h-186v1072q0 220 144.5 326t346.5 106t333 -120
t131 -308v-86q-182 0 -294 -34t-112 -135q0 -80 74 -111.5t230 -59.5q322 -57 322 -328q0 -177 -127 -255t-267 -78z" />
    <glyph glyph-name="agrave" unicode="&#xe0;" 
d="M594 1136q184 0 307 -83t123 -256v-499q0 -101 56 -126t167 -6v-172q-115 -17 -216 16t-111 176h-37q-52 -86 -157 -146q-106 -60 -240 -59q-134 -1 -245 75t-111 234t96 241q96 84 225 83h387v161q0 89 -60 141t-182 52t-182 -36q-61 -36 -96 -161l-163 44
q65 321 439 321zM503 475q-186 0 -186 -164q0 -170 206 -170t315 155v179h-335zM616 1303l-363 373h279l254 -373h-170z" />
    <glyph glyph-name="aacute" unicode="&#xe1;" 
d="M594 1136q184 0 307 -83t123 -256v-499q0 -101 56 -126t167 -6v-172q-115 -17 -216 16t-111 176h-37q-52 -86 -157 -146q-106 -60 -240 -59q-134 -1 -245 75t-111 234t96 241q96 84 225 83h387v161q0 89 -60 141t-182 52t-182 -36q-61 -36 -96 -161l-163 44
q65 321 439 321zM503 475q-186 0 -186 -164q0 -170 206 -170t315 155v179h-335zM402 1303l253 373h280l-363 -373h-170z" />
    <glyph glyph-name="acircumflex" unicode="&#xe2;" 
d="M594 1136q184 0 307 -83t123 -256v-499q0 -101 56 -126t167 -6v-172q-115 -17 -216 16t-111 176h-37q-52 -86 -157 -146q-106 -60 -240 -59q-134 -1 -245 75t-111 234t96 241q96 84 225 83h387v161q0 89 -60 141t-182 52t-182 -36q-61 -36 -96 -161l-163 44
q65 321 439 321zM503 475q-186 0 -186 -164q0 -170 206 -170t315 155v179h-335zM311 1311l-71 119l324 277h134l328 -277l-71 -119l-324 216z" />
    <glyph glyph-name="atilde" unicode="&#xe3;" 
d="M594 1136q184 0 307 -83t123 -256v-499q0 -101 56 -126t167 -6v-172q-115 -17 -216 16t-111 176h-37q-52 -86 -157 -146q-106 -60 -240 -59q-134 -1 -245 75t-111 234t96 241q96 84 225 83h387v161q0 89 -60 141t-182 52t-182 -36q-61 -36 -96 -161l-163 44
q65 321 439 321zM503 475q-186 0 -186 -164q0 -170 206 -170t315 155v179h-335zM776 1480q86 0 86 175v21h143v-28q0 -141 -63 -234q-64 -92 -181 -92q-63 0 -107 34t-78 73t-62 73t-62 34q-88 0 -85 -175v-20h-144v27q-1 140 63 233t177 93t198 -106q32 -40 58 -74t57 -34z
" />
    <glyph glyph-name="adieresis" unicode="&#xe4;" 
d="M594 1136q184 0 307 -83t123 -256v-499q0 -101 56 -126t167 -6v-172q-115 -17 -216 16t-111 176h-37q-52 -86 -157 -146q-106 -60 -240 -59q-134 -1 -245 75t-111 234t96 241q96 84 225 83h387v161q0 89 -60 141t-182 52t-182 -36q-61 -36 -96 -161l-163 44
q65 321 439 321zM503 475q-186 0 -186 -164q0 -170 206 -170t315 155v179h-335zM950 1428q0 -62 -34 -84t-88 -22q-53 0 -87 22t-34 84v13q0 63 34 87t88 23q53 0 87 -23t34 -87v-13zM399 1322q-53 0 -87 22t-33 84v13q0 63 34 87q33 24 87 23q54 0 88 -23t33 -87v-13
q0 -61 -34 -84q-35 -22 -88 -22z" />
    <glyph glyph-name="aring" unicode="&#xe5;" 
d="M594 1136q184 0 307 -83t123 -256v-499q0 -101 56 -126t167 -6v-172q-115 -17 -216 16t-111 176h-37q-52 -86 -157 -146q-106 -60 -240 -59q-134 -1 -245 75t-111 234t96 241q96 84 225 83h387v161q0 89 -60 141t-182 52t-182 -36q-61 -36 -96 -161l-163 44
q65 321 439 321zM503 475q-186 0 -186 -164q0 -170 206 -170t315 155v179h-335zM767 1605q0 143 -153 143q-76 0 -114 -34t-38 -109v-60q0 -73 38 -105t113 -32t115 31q39 32 39 106v60zM614 1275q-134 0 -216 66t-81 204v60q-1 139 81 207t216 68t216 -68t82 -207v-60
q0 -138 -82 -204t-216 -66z" />
    <glyph glyph-name="ae" unicode="&#xe6;" 
d="M223 318q-1 -194 137 -195q72 0 121 36.5t96 99.5v234h-177q-76 0 -126.5 -39.5t-50.5 -135.5zM903 996q-177 0 -177 -225v-129h354v112q0 127 -44 184.5t-133 57.5zM1247 758v-237h-521v-182q0 -115 43 -166.5t134 -51.5t128.5 33.5t52.5 128.5l165 -15
q-19 -147 -94 -217t-232 -70q-218 0 -290 168h-30q-43 -73 -106 -120.5t-163 -47.5t-189 75.5t-89 233.5t87.5 241t204.5 83h229v161q0 97 -44.5 154.5t-126.5 57.5t-115.5 -33.5t-65.5 -145.5l-145 45q26 134 104.5 208.5t236.5 74.5t236 -125q81 125 243 125
q161 0 254 -92.5t93 -285.5z" />
    <glyph glyph-name="ccedilla" unicode="&#xe7;" 
d="M856 -178q0 -112 -84 -168t-196 -56q-114 0 -192 45q-77 46 -84 152l164 19q4 -35 28 -50q25 -14 82 -14t86 24q29 23 29 86q1 62 -17 86t-39 36q-211 9 -329 111t-118 311v302q0 212 124 321t353 109q446 0 475 -384l-183 -11q-14 227 -281 227q-153 0 -227 -64
t-75 -198v-302q0 -255 306 -255q267 0 277 190l183 -11q-22 -291 -335 -338q53 -56 53 -168z" />
    <glyph glyph-name="egrave" unicode="&#xe8;" 
d="M372 706v-45h559v28q0 151 -70 220q-69 69 -209 69t-210 -66t-70 -206zM186 406v300q0 216 130 323t338 107q209 0 336 -109t127 -334v-172h-745v-117q0 -140 70 -202t207 -62t198 37t93 121l181 -52q-51 -140 -153 -202t-320 -62t-340 106q-122 107 -122 318zM655 1303
l-363 373h280l253 -373h-170z" />
    <glyph glyph-name="eacute" unicode="&#xe9;" 
d="M372 706v-45h559v28q0 151 -70 220q-69 69 -209 69t-210 -66t-70 -206zM186 406v300q0 216 130 323t338 107q209 0 336 -109t127 -334v-172h-745v-117q0 -140 70 -202t207 -62t198 37t93 121l181 -52q-51 -140 -153 -202t-320 -62t-340 106q-122 107 -122 318zM441 1303
l253 373h280l-363 -373h-170z" />
    <glyph glyph-name="ecircumflex" unicode="&#xea;" 
d="M372 706v-45h559v28q0 151 -70 220q-69 69 -209 69t-210 -66t-70 -206zM186 406v300q0 216 130 323t338 107q209 0 336 -109t127 -334v-172h-745v-117q0 -140 70 -202t207 -62t198 37t93 121l181 -52q-51 -140 -153 -202t-320 -62t-340 106q-122 107 -122 318zM331 1311
l-70 119l324 277h134l327 -277l-70 -119l-324 216z" />
    <glyph glyph-name="edieresis" unicode="&#xeb;" 
d="M372 706v-45h559v28q0 151 -70 220q-69 69 -209 69t-210 -66t-70 -206zM186 406v300q0 216 130 323t338 107q209 0 336 -109t127 -334v-172h-745v-117q0 -140 70 -202t207 -62t198 37t93 121l181 -52q-51 -140 -153 -202t-320 -62t-340 106q-122 107 -122 318zM989 1428
q-1 -62 -35 -84t-87 -22t-87 22t-33 84v13q0 63 33 87q34 23 88 23t88 -23t33 -87v-13zM438 1322q-52 0 -86 22t-34 84v13q0 63 34 87t88 23q54 0 87 -23q34 -23 33 -87v-13q0 -61 -34 -84q-35 -22 -88 -22z" />
    <glyph glyph-name="igrave" unicode="&#xec;" 
d="M186 0v168h373v782h-373v167h559v-949h372v-168h-931zM653 1303l-363 373h280l253 -373h-170z" />
    <glyph glyph-name="iacute" unicode="&#xed;" 
d="M186 0v168h373v782h-373v167h559v-949h372v-168h-931zM439 1303l254 373h279l-363 -373h-170z" />
    <glyph glyph-name="icircumflex" unicode="&#xee;" 
d="M186 0v168h373v782h-373v167h559v-949h372v-168h-931zM330 1311l-71 119l324 277h134l327 -277l-70 -119l-324 216z" />
    <glyph glyph-name="idieresis" unicode="&#xef;" 
d="M186 0v168h373v782h-373v167h559v-949h372v-168h-931zM987 1428q-1 -62 -35 -84t-87 -22t-87 22t-33 84v13q0 63 33 87q34 23 88 23t88 -23t33 -87v-13zM559 1428q-1 -62 -35 -84t-87 -22t-87 22t-33 84v13q0 63 33 87q34 23 88 23t88 -23t33 -87v-13z" />
    <glyph glyph-name="eth" unicode="&#xf0;" 
d="M653.5 149q150.5 0 214 64t63.5 193v117q0 119 -63.5 178.5t-214 59.5t-214 -59.5t-63.5 -178.5v-117q0 -128 63.5 -192.5t214 -64.5zM1117 702v-281q0 -229 -128.5 -334.5t-337 -105.5t-337 106.5t-128.5 322.5v134q0 179 118.5 283t306.5 104q117 0 191.5 -41
t104.5 -97h41q-14 240 -123 374l-360 -162v149l250 112q-121 81 -326 134l49 129q271 -72 428 -194l344 154v-148l-240 -108q147 -186 147 -531z" />
    <glyph glyph-name="ntilde" unicode="&#xf1;" 
d="M372 0h-186v1117h186v-186h56q41 95 129 150t199 55q168 0 264 -102t97 -280v-754h-186v717q0 117 -57 179t-163 63q-172 0 -339 -196v-763zM851 1480q85 0 85 175v21h144v-28q0 -141 -63 -234q-64 -92 -181 -92q-63 0 -107 34q-43 34 -77 73t-63 73t-63 34t-60 -34
t-25 -141v-20h-143v27q0 140 63 233t181 93q70 0 116 -34t78 -73t57 -73q26 -34 58 -34z" />
    <glyph glyph-name="ograve" unicode="&#xf2;" 
d="M372 404q0 -255 280 -255t279 255v302q0 134 -69 198t-210 64q-140 0 -210 -64t-70 -198v-302zM652 -19q-225 0 -346 109q-120 109 -120 314v302q0 206 121 318t345 112t344 -112t121 -318v-302q0 -205 -120 -314t-345 -109zM653 1303l-363 373h280l253 -373h-170z" />
    <glyph glyph-name="oacute" unicode="&#xf3;" 
d="M372 404q0 -255 280 -255t279 255v302q0 134 -69 198t-210 64q-140 0 -210 -64t-70 -198v-302zM652 -19q-225 0 -346 109q-120 109 -120 314v302q0 206 121 318t345 112t344 -112t121 -318v-302q0 -205 -120 -314t-345 -109zM439 1303l254 373h279l-363 -373h-170z" />
    <glyph glyph-name="ocircumflex" unicode="&#xf4;" 
d="M372 404q0 -255 280 -255t279 255v302q0 134 -69 198t-210 64q-140 0 -210 -64t-70 -198v-302zM652 -19q-225 0 -346 109q-120 109 -120 314v302q0 206 121 318t345 112t344 -112t121 -318v-302q0 -205 -120 -314t-345 -109zM330 1311l-71 119l324 277h134l327 -277
l-70 -119l-324 216z" />
    <glyph glyph-name="otilde" unicode="&#xf5;" 
d="M372 404q0 -255 280 -255t279 255v302q0 134 -69 198t-210 64q-140 0 -210 -64t-70 -198v-302zM652 -19q-225 0 -346 109q-120 109 -120 314v302q0 206 121 318t345 112t344 -112t121 -318v-302q0 -205 -120 -314t-345 -109zM814 1480q85 0 85 175v21h144v-28
q1 -142 -63 -234t-181 -92q-63 0 -107 34t-78 73t-62 73t-63 34t-61 -34t-24 -141v-20h-143v27q0 140 63 233t181 93q71 0 117 -34t76 -73q32 -39 58 -73t58 -34z" />
    <glyph glyph-name="odieresis" unicode="&#xf6;" 
d="M372 404q0 -255 280 -255t279 255v302q0 134 -69 198t-210 64q-140 0 -210 -64t-70 -198v-302zM652 -19q-225 0 -346 109q-120 109 -120 314v302q0 206 121 318t345 112t344 -112t121 -318v-302q0 -205 -120 -314t-345 -109zM987 1428q-1 -62 -35 -84t-87 -22t-87 22
t-33 84v13q0 63 33 87q34 23 88 23t88 -23t33 -87v-13zM559 1428q-1 -62 -35 -84t-87 -22t-87 22t-33 84v13q0 63 33 87q34 23 88 23t88 -23t33 -87v-13z" />
    <glyph glyph-name="divide" unicode="&#xf7;" 
d="M651 48q-70 0 -114.5 29t-44.5 91v31q0 63 44.5 93t115 30t114.5 -29.5t44 -93.5v-31q0 -61 -44.5 -90.5t-114.5 -29.5zM130 559v186h1043v-186h-1043zM651 979q-70 0 -114.5 29t-44.5 90v32q0 63 44.5 93t115 30t114.5 -30t44 -93v-32q0 -61 -44.5 -90t-114.5 -29z" />
    <glyph glyph-name="oslash" unicode="&#xf8;" 
d="M1117 706v-302q0 -216 -128 -319.5t-337 -103.5q-106 0 -185 25l-95 -192h-186l134 266q-134 111 -134 324v302q0 218 129.5 324t337.5 106q107 0 183 -24l95 191h186l-134 -266q134 -111 134 -331zM652 149q145 0 212 61.5t67 193.5v302q0 114 -45 173l-359 -715
q56 -15 125 -15zM652 968q-145 0 -212.5 -63t-67.5 -199v-302q0 -110 45 -169l358 718q-56 15 -123 15z" />
    <glyph glyph-name="ugrave" unicode="&#xf9;" 
d="M592 158q172 0 339 196v763h186v-1117h-186v186h-56q-39 -91 -129 -148t-199 -57q-161 -1 -261 105t-100 277v754h186v-717q0 -242 220 -242zM598 1303l-363 373h279l253 -373h-169z" />
    <glyph glyph-name="uacute" unicode="&#xfa;" 
d="M592 158q172 0 339 196v763h186v-1117h-186v186h-56q-39 -91 -129 -148t-199 -57q-161 -1 -261 105t-100 277v754h186v-717q0 -242 220 -242zM514 1303l253 373h279l-363 -373h-169z" />
    <glyph glyph-name="ucircumflex" unicode="&#xfb;" 
d="M592 158q172 0 339 196v763h186v-1117h-186v186h-56q-39 -91 -129 -148t-199 -57q-161 -1 -261 105t-100 277v754h186v-717q0 -242 220 -242zM330 1311l-71 119l324 277h134l327 -277l-70 -119l-324 216z" />
    <glyph glyph-name="udieresis" unicode="&#xfc;" 
d="M592 158q172 0 339 196v763h186v-1117h-186v186h-56q-39 -91 -129 -148t-199 -57q-161 -1 -261 105t-100 277v754h186v-717q0 -242 220 -242zM987 1428q-1 -62 -35 -84t-87 -22t-87 22t-33 84v13q0 63 33 87q34 23 88 23t88 -23t33 -87v-13zM559 1428q-1 -62 -35 -84
t-87 -22t-87 22t-33 84v13q0 63 33 87q34 23 88 23t88 -23t33 -87v-13z" />
    <glyph glyph-name="yacute" unicode="&#xfd;" 
d="M354 -220q76 0 145 51t104 169h-69l-396 1117h203l314 -961l313 961h196l-410 -1154q-121 -347 -434 -347q-70 0 -175 21l32 166q101 -23 177 -23zM439 1303l254 373h279l-363 -373h-170z" />
    <glyph glyph-name="thorn" unicode="&#xfe;" 
d="M637 -19q-142 0 -265 53v-406h-186v1861h186v-558h56q47 95 135.5 150t190.5 55q168 0 265.5 -114.5t97.5 -310.5v-303q0 -195 -129 -311t-351 -116zM642 145q146 0 217.5 64.5t71.5 201.5v302q0 128 -54 187t-170 59q-180 0 -335 -196v-547q124 -71 270 -71z" />
    <glyph glyph-name="ydieresis" unicode="&#xff;" 
d="M354 -220q76 0 145 51t104 169h-69l-396 1117h203l314 -961l313 961h196l-410 -1154q-121 -347 -434 -347q-70 0 -175 21l32 166q101 -23 177 -23zM987 1428q-1 -62 -35 -84t-87 -22t-87 22t-33 84v13q0 63 33 87q34 23 88 23t88 -23t33 -87v-13zM559 1428
q-1 -62 -35 -84t-87 -22t-87 22t-33 84v13q0 63 33 87q34 23 88 23t88 -23t33 -87v-13z" />
    <glyph glyph-name="Amacron" unicode="&#x100;" 
d="M1033 0l-128 428h-512l-129 -428h-190l481 1489h195l481 -1489h-198zM855 596l-205 683l-207 -683h412zM281 1778v168h745v-168h-745z" />
    <glyph glyph-name="amacron" unicode="&#x101;" 
d="M594 1136q184 0 307 -83t123 -256v-499q0 -101 56 -126t167 -6v-172q-115 -17 -216 16t-111 176h-37q-52 -86 -157 -146q-106 -60 -240 -59q-134 -1 -245 75t-111 234t96 241q96 84 225 83h387v161q0 89 -60 141t-182 52t-182 -36q-61 -36 -96 -161l-163 44
q65 321 439 321zM503 475q-186 0 -186 -164q0 -170 206 -170t315 155v179h-335zM242 1406v167h745v-167h-745z" />
    <glyph glyph-name="Abreve" unicode="&#x102;" 
d="M1033 0l-128 428h-512l-129 -428h-190l481 1489h195l481 -1489h-198zM855 596l-205 683l-207 -683h412zM653 1663q-181 -1 -305 87t-126 304h186q2 -134 62 -189t184 -55q122 0 183 55t62 189h186q-2 -216 -126 -304q-125 -87 -306 -87z" />
    <glyph glyph-name="abreve" unicode="&#x103;" 
d="M594 1136q184 0 307 -83t123 -256v-499q0 -101 56 -126t167 -6v-172q-115 -17 -216 16t-111 176h-37q-52 -86 -157 -146q-106 -60 -240 -59q-134 -1 -245 75t-111 234t96 241q96 84 225 83h387v161q0 89 -60 141t-182 52t-182 -36q-61 -36 -96 -161l-163 44
q65 321 439 321zM503 475q-186 0 -186 -164q0 -170 206 -170t315 155v179h-335zM614 1290q-182 0 -306 88t-126 303h187q3 -134 63 -189t182 -55t184 55q61 55 62 189h186q-2 -215 -126 -303t-306 -88z" />
    <glyph glyph-name="Aogonek" unicode="&#x104;" 
d="M855 596l-205 683l-207 -683h412zM879 -168q0 115 142 210l-116 386h-512l-129 -428h-190l481 1489h195l481 -1489h-130q-53 -56 -55 -127q0 -106 133 -106q84 0 165 19v-168q-90 -18 -196 -18t-188 58q-81 58 -81 174z" />
    <glyph glyph-name="aogonek" unicode="&#x105;" 
d="M838 -171q0 112 139 212q-51 46 -57 145h-37q-52 -86 -157 -146q-106 -60 -240 -59q-134 -1 -245 75t-111 234t96 241q96 84 225 83h387v161q0 89 -60 141t-182 52t-182 -36q-61 -36 -96 -161l-163 44q65 321 439 321q184 0 307 -83t123 -256v-499q0 -101 56 -126t167 -6
v-172q-98 -14 -185 8q-55 -55 -57 -129q0 -106 133 -106q84 0 165 19v-168q-99 -20 -201 -19t-183 59t-81 171zM503 475q-186 0 -186 -164q0 -170 206 -170t315 155v179h-335z" />
    <glyph glyph-name="Cacute" unicode="&#x106;" 
d="M149 966q0 542 523 542q257 0 381 -120t139 -384l-187 -19q-19 201 -90 278q-73 77 -251 77t-253 -84q-75 -85 -76 -290v-450q-1 -201 75 -284t254 -83t251 75q72 75 90 273l187 -19q-15 -261 -139 -379t-383 -118q-521 0 -521 535v450zM532 1676l254 372h279l-363 -372
h-170z" />
    <glyph glyph-name="cacute" unicode="&#x107;" 
d="M678 149q267 0 277 190l183 -11q-26 -347 -460 -347q-244 0 -368 107t-124 316v302q0 212 124 321t353 109q446 0 475 -384l-183 -11q-14 227 -281 227q-153 0 -227 -64t-75 -198v-302q0 -255 306 -255zM451 1303l253 373h279l-363 -373h-169z" />
    <glyph glyph-name="Ccircumflex" unicode="&#x108;" 
d="M149 966q0 542 523 542q257 0 381 -120t139 -384l-187 -19q-19 201 -90 278q-73 77 -251 77t-253 -84q-75 -85 -76 -290v-450q-1 -201 75 -284t254 -83t251 75q72 75 90 273l187 -19q-15 -261 -139 -379t-383 -118q-521 0 -521 535v450zM348 1683l-71 119l324 278h134
l328 -278l-71 -119l-324 216z" />
    <glyph glyph-name="ccircumflex" unicode="&#x109;" 
d="M678 149q267 0 277 190l183 -11q-26 -347 -460 -347q-244 0 -368 107t-124 316v302q0 212 124 321t353 109q446 0 475 -384l-183 -11q-14 227 -281 227q-153 0 -227 -64t-75 -198v-302q0 -255 306 -255zM359 1311l-70 119l324 277h134l327 -277l-70 -119l-324 216z" />
    <glyph glyph-name="Cdotaccent" unicode="&#x10a;" 
d="M149 966q0 542 523 542q257 0 381 -120t139 -384l-187 -19q-19 201 -90 278q-73 77 -251 77t-253 -84q-75 -85 -76 -290v-450q-1 -201 75 -284t254 -83t251 75q72 75 90 273l187 -19q-15 -261 -139 -379t-383 -118q-521 0 -521 535v450zM829 1800q0 -62 -45 -84t-115 -22
q-69 0 -113 22t-44 84v13q0 63 44 87t114 23q70 0 115 -23q44 -23 44 -87v-13z" />
    <glyph glyph-name="cdotaccent" unicode="&#x10b;" 
d="M678 149q267 0 277 190l183 -11q-26 -347 -460 -347q-244 0 -368 107t-124 316v302q0 212 124 321t353 109q446 0 475 -384l-183 -11q-14 227 -281 227q-153 0 -227 -64t-75 -198v-302q0 -255 306 -255zM821 1428q-1 -62 -45 -84t-114 -22t-114 22t-43 84v13q0 63 43 87
q44 23 115 23t115 -23t43 -87v-13z" />
    <glyph glyph-name="Ccaron" unicode="&#x10c;" 
d="M149 966q0 542 523 542q257 0 381 -120t139 -384l-187 -19q-19 201 -90 278q-73 77 -251 77t-253 -84q-75 -85 -76 -290v-450q-1 -201 75 -284t254 -83t251 75q72 75 90 273l187 -19q-15 -261 -139 -379t-383 -118q-521 0 -521 535v450zM605 1683l-328 277l71 120
l324 -216l320 216l71 -120l-324 -277h-134z" />
    <glyph glyph-name="ccaron" unicode="&#x10d;" 
d="M678 149q267 0 277 190l183 -11q-26 -347 -460 -347q-244 0 -368 107t-124 316v302q0 212 124 321t353 109q446 0 475 -384l-183 -11q-14 227 -281 227q-153 0 -227 -64t-75 -198v-302q0 -255 306 -255zM598 1311l-328 277l71 119l324 -216l320 216l71 -119l-324 -277
h-134z" />
    <glyph glyph-name="Dcaron" unicode="&#x10e;" 
d="M372 168h224q188 0 280 101t92 265v414q0 162 -92 268t-280 106h-224v-1154zM186 0v1489h412q260 0 408 -148t148 -393v-414q0 -244 -149 -389t-409 -145h-410zM586 1683l-327 277l71 120l323 -216l321 216l70 -120l-323 -277h-135z" />
    <glyph glyph-name="dcaron" unicode="&#x10f;" 
d="M667 1136q132 0 264 -52v405h186v-1489h-186v186h-56q-48 -97 -134 -151t-192 -54q-173 0 -268 112t-95 313v303q0 203 127 315t354 112zM372 406q0 -248 224 -248q177 0 335 196v547q-118 71 -263 71q-296 0 -296 -266v-300zM1296 1313l151 549h273l-290 -549h-134z" />
    <glyph glyph-name="Dcroat" unicode="&#x110;" 
d="M372 168h224q188 0 280 101.5t92 264.5v414q0 162 -92 268t-280 106h-224v-419h280v-168h-280v-567zM186 0v735h-186v168h186v586h412q261 0 408.5 -148t147.5 -393v-414q0 -244 -149 -389t-409 -145h-410z" />
    <glyph glyph-name="dcroat" unicode="&#x111;" 
d="M667 1043q124 0 264 -54v184h-372v149h372v167h186v-167h186v-149h-186v-1173h-186v186h-56q-47 -95 -135 -150t-191 -55q-168 0 -265.5 114.5t-97.5 310.5v210q0 195 129.5 311t351.5 116zM376 613v-189q0 -138 53 -202t167 -64q180 0 335 196v454q-118 71 -266 71
t-218.5 -64.5t-70.5 -201.5z" />
    <glyph glyph-name="Emacron" unicode="&#x112;" 
d="M186 0v1489h968v-167h-782v-428h689v-168h-689v-558h782v-168h-968zM317 1778v168h744v-168h-744z" />
    <glyph glyph-name="emacron" unicode="&#x113;" 
d="M372 706v-45h559v28q0 151 -70 220q-69 69 -209 69t-210 -66t-70 -206zM186 406v300q0 216 130 323t338 107q209 0 336 -109t127 -334v-172h-745v-117q0 -140 70 -202t207 -62t198 37t93 121l181 -52q-51 -140 -153 -202t-320 -62t-340 106q-122 107 -122 318zM281 1406
v167h745v-167h-745z" />
    <glyph glyph-name="Ebreve" unicode="&#x114;" 
d="M186 0v1489h968v-167h-782v-428h689v-168h-689v-558h782v-168h-968zM689 1663q-181 -1 -305 87t-127 304h186q3 -134 63 -189t183 -55t183 55t63 189h186q-3 -216 -127 -304t-305 -87z" />
    <glyph glyph-name="ebreve" unicode="&#x115;" 
d="M372 706v-45h559v28q0 151 -70 220q-69 69 -209 69t-210 -66t-70 -206zM186 406v300q0 216 130 323t338 107q209 0 336 -109t127 -334v-172h-745v-117q0 -140 70 -202t207 -62t198 37t93 121l181 -52q-51 -140 -153 -202t-320 -62t-340 106q-122 107 -122 318zM653 1290
q-181 0 -305 88t-126 303h186q2 -134 62 -189t184 -55q122 0 183 55t62 189h186q-3 -215 -127 -303t-305 -88z" />
    <glyph glyph-name="Edotaccent" unicode="&#x116;" 
d="M186 0v1489h968v-167h-782v-428h689v-168h-689v-558h782v-168h-968zM847 1800q-1 -62 -45 -84t-114 -22t-114 22t-43 84v13q0 63 43 87q44 23 115 23t115 -23t43 -87v-13z" />
    <glyph glyph-name="edotaccent" unicode="&#x117;" 
d="M372 706v-45h559v28q0 151 -70 220q-69 69 -209 69t-210 -66t-70 -206zM186 406v300q0 216 130 323t338 107q209 0 336 -109t127 -334v-172h-745v-117q0 -140 70 -202t207 -62t198 37t93 121l181 -52q-51 -140 -153 -202t-320 -62t-340 106q-122 107 -122 318zM812 1428
q0 -62 -45 -84t-115 -22t-114 22t-43 84v13q0 63 44 87q45 24 115 23q70 0 114 -23t44 -87v-13z" />
    <glyph glyph-name="Eogonek" unicode="&#x118;" 
d="M689 -186q0 98 71 169l17 17h-591v1489h968v-167h-782v-428h689v-168h-689v-558h782v-168h-243q-53 -56 -55 -127q0 -106 133 -106q84 0 165 19v-168q-100 -20 -201 -19q-102 1 -183 59t-81 156z" />
    <glyph glyph-name="eogonek" unicode="&#x119;" 
d="M372 706v-45h559v28q0 151 -70 220q-69 69 -209 69t-210 -66t-70 -206zM935 -233q84 0 165 19v-168q-100 -20 -202 -19q-101 1 -182 59t-81 156t70 168q-25 -1 -52 -1q-223 0 -345 107t-122 318v300q0 216 130 323t338 107q209 0 336 -109t127 -334v-172h-745v-117
q0 -140 70 -202t207 -62t198 37t93 121l181 -52q-50 -140 -153 -202q-44 -27 -110 -43q-54 -54 -56 -128q0 -106 133 -106z" />
    <glyph glyph-name="Ecaron" unicode="&#x11a;" 
d="M186 0v1489h968v-167h-782v-428h689v-168h-689v-558h782v-168h-968zM642 1683l-327 277l70 120l324 -216l321 216l70 -120l-324 -277h-134z" />
    <glyph glyph-name="ecaron" unicode="&#x11b;" 
d="M372 706v-45h559v28q0 151 -70 220q-69 69 -209 69t-210 -66t-70 -206zM186 406v300q0 216 130 323t338 107q209 0 336 -109t127 -334v-172h-745v-117q0 -140 70 -202t207 -62t198 37t93 121l181 -52q-51 -140 -153 -202t-320 -62t-340 106q-122 107 -122 318zM588 1311
l-327 277l70 119l324 -216l321 216l70 -119l-324 -277h-134z" />
    <glyph glyph-name="Gcircumflex" unicode="&#x11c;" 
d="M1192 534q0 -266 -130 -410t-382 -143q-252 0 -392 139t-139 396v450q0 261 136 402q136 140 376 140t360 -115t133 -352l-186 -19q-15 173 -84 246t-232 73t-240 -87t-77 -288v-450q0 -199 82 -283q83 -84 263 -84t253 96t72 323h-353v167h540v-201zM367 1683l-71 119
l324 278h134l328 -278l-71 -119l-324 216z" />
    <glyph glyph-name="gcircumflex" unicode="&#x11d;" 
d="M279 -89q0 -153 196 -153h378q188 0 188 141t-170 138h-592v-126zM382 741q0 -169 233 -169t232 169v60q1 87 -59 127t-174 40q-234 0 -232 -167v-60zM279 320q0 -115 145 -115h423q155 0 259 -69q104 -68 104 -222t-111 -230t-270 -75h-351q-168 0 -276 67t-109 207
q-1 89 47 142t139 61v39q-149 25 -149 186q0 80 50 144t170 74v35q-91 30 -123 90t-32 117v50q0 128 110 212t309 84h550v-167l-289 42v-33q75 -20 113 -78t38 -116v-48q0 -127 -99 -207t-320 -80h-225q-103 0 -103 -110zM311 1311l-71 119l324 277h134l328 -277l-71 -119
l-324 216z" />
    <glyph glyph-name="Gbreve" unicode="&#x11e;" 
d="M1192 534q0 -266 -130 -410t-382 -143q-252 0 -392 139t-139 396v450q0 261 136 402q136 140 376 140t360 -115t133 -352l-186 -19q-15 173 -84 246t-232 73t-240 -87t-77 -288v-450q0 -199 82 -283q83 -84 263 -84t253 96t72 323h-353v167h540v-201zM689 1663
q-181 -1 -305 87t-127 304h186q3 -134 63 -189t183 -55t183 55t63 189h186q-3 -216 -127 -304t-305 -87z" />
    <glyph glyph-name="gbreve" unicode="&#x11f;" 
d="M279 -89q0 -153 196 -153h378q188 0 188 141t-170 138h-592v-126zM382 741q0 -169 233 -169t232 169v60q1 87 -59 127t-174 40q-234 0 -232 -167v-60zM279 320q0 -115 145 -115h423q155 0 259 -69q104 -68 104 -222t-111 -230t-270 -75h-351q-168 0 -276 67t-109 207
q-1 89 47 142t139 61v39q-149 25 -149 186q0 80 50 144t170 74v35q-91 30 -123 90t-32 117v50q0 128 110 212t309 84h550v-167l-289 42v-33q75 -20 113 -78t38 -116v-48q0 -127 -99 -207t-320 -80h-225q-103 0 -103 -110zM652 1290q-181 0 -306 88t-126 303h186
q2 -134 62 -189t184 -55t184 55t61 189h187q-2 -215 -126 -303t-306 -88z" />
    <glyph glyph-name="Gdotaccent" unicode="&#x120;" 
d="M1192 534q0 -266 -130 -410t-382 -143q-252 0 -392 139t-139 396v450q0 261 136 402q136 140 376 140t360 -115t133 -352l-186 -19q-15 173 -84 246t-232 73t-240 -87t-77 -288v-450q0 -199 82 -283q83 -84 263 -84t253 96t72 323h-353v167h540v-201zM829 1800
q0 -62 -45 -84t-115 -22q-69 0 -113 22t-44 84v13q0 63 44 87t114 23q70 0 115 -23q44 -23 44 -87v-13z" />
    <glyph glyph-name="gdotaccent" unicode="&#x121;" 
d="M279 -89q0 -153 196 -153h378q188 0 188 141t-170 138h-592v-126zM382 741q0 -169 233 -169t232 169v60q1 87 -59 127t-174 40q-234 0 -232 -167v-60zM279 320q0 -115 145 -115h423q155 0 259 -69q104 -68 104 -222t-111 -230t-270 -75h-351q-168 0 -276 67t-109 207
q-1 89 47 142t139 61v39q-149 25 -149 186q0 80 50 144t170 74v35q-91 30 -123 90t-32 117v50q0 128 110 212t309 84h550v-167l-289 42v-33q75 -20 113 -78t38 -116v-48q0 -127 -99 -207t-320 -80h-225q-103 0 -103 -110zM810 1428q0 -62 -44 -84t-115 -22q-70 0 -114 22
t-44 84v13q0 63 44 87t115 23q70 0 114 -23t44 -87v-13z" />
    <glyph glyph-name="Gcommaaccent" unicode="&#x122;" 
d="M1192 534q0 -266 -130 -410t-382 -143q-252 0 -392 139t-139 396v450q0 261 136 402q136 140 376 140t360 -115t133 -352l-186 -19q-15 173 -84 246t-232 73t-240 -87t-77 -288v-450q0 -199 82 -283q83 -84 263 -84t253 96t72 323h-353v167h540v-201zM421 -559l179 373
h279l-289 -373h-169z" />
    <glyph glyph-name="gcommaaccent" unicode="&#x123;" 
d="M279 -89q0 -153 196 -153h378q188 0 188 141t-170 138h-592v-126zM382 741q0 -169 233 -169t232 169v60q1 87 -59 127t-174 40q-234 0 -232 -167v-60zM279 320q0 -115 145 -115h423q155 0 259 -69q104 -68 104 -222t-111 -230t-270 -75h-351q-168 0 -276 67t-109 207
q-1 89 47 142t139 61v39q-149 25 -149 186q0 80 50 144t170 74v35q-91 30 -123 90t-32 117v50q0 128 110 212t309 84h550v-167l-289 42v-33q75 -20 113 -78t38 -116v-48q0 -127 -99 -207t-320 -80h-225q-103 0 -103 -110zM477 1303l288 373h170l-179 -373h-279z" />
    <glyph glyph-name="Hcircumflex" unicode="&#x124;" 
d="M186 0v1489h186v-595h559v595h186v-1489h-186v726h-559v-726h-186zM330 1683l-71 119l324 278h134l327 -278l-70 -119l-324 216z" />
    <glyph glyph-name="hcircumflex" unicode="&#x125;" 
d="M372 0h-186v1489h186v-558h56q41 95 129 150t199 55q168 0 264 -102t97 -278v-756h-186v717q0 117 -57 179t-163 63q-172 0 -339 -196v-763zM-43 1683l-71 119l324 278h134l328 -278l-71 -119l-324 216z" />
    <glyph glyph-name="Hbar" unicode="&#x126;" 
d="M372 633v-633h-186v1043h-186v167h186v279h186v-279h559v279h186v-279h186v-167h-186v-1043h-186v633h-559zM372 801h559v242h-559v-242z" />
    <glyph glyph-name="hbar" unicode="&#x127;" 
d="M711 866q-169 0 -339 -196v-670h-186v1173h-186v149h186v167h186v-167h373v-149h-373v-335h56q41 95 133 150t210 55q160 0 253 -91.5t93 -247.5v-704h-186v659q0 207 -220 207z" />
    <glyph glyph-name="Itilde" unicode="&#x128;" 
d="M186 0v168h373v1154h-373v167h931v-167h-372v-1154h372v-168h-931zM799 1694q-63 0 -111 37t-136 144q-29 33 -63 33q-35 0 -61 -34t-24 -141v-20h-143v28q0 140 63 233t181 93q71 0 117 -34t76 -74q32 -39 58 -73t60 -34q84 1 83 176v20h144v-28q1 -142 -63 -234
t-181 -92z" />
    <glyph glyph-name="itilde" unicode="&#x129;" 
d="M186 0v168h373v782h-373v167h559v-949h372v-168h-931zM814 1480q85 0 85 175v21h144v-28q1 -142 -63 -234t-181 -92q-63 0 -107 34t-78 73t-62 73t-63 34t-61 -34t-24 -141v-20h-143v27q0 140 63 233t181 93q71 0 117 -34t76 -73q32 -39 58 -73t58 -34z" />
    <glyph glyph-name="Imacron" unicode="&#x12a;" 
d="M186 0v168h373v1154h-373v167h931v-167h-372v-1154h372v-168h-931zM279 1778v168h745v-168h-745z" />
    <glyph glyph-name="imacron" unicode="&#x12b;" 
d="M186 0v168h373v782h-373v167h559v-949h372v-168h-931zM279 1406v167h745v-167h-745z" />
    <glyph glyph-name="Ibreve" unicode="&#x12c;" 
d="M186 0v168h373v1154h-373v167h931v-167h-372v-1154h372v-168h-931zM652 1663q-181 -1 -306 87t-126 304h186q2 -134 62 -189t184 -55t184 55t61 189h187q-2 -216 -126 -304t-306 -87z" />
    <glyph glyph-name="ibreve" unicode="&#x12d;" 
d="M186 0v168h373v782h-373v167h559v-949h372v-168h-931zM652 1290q-181 0 -306 88t-126 303h186q2 -134 62 -189t184 -55t184 55t61 189h187q-2 -215 -126 -303t-306 -88z" />
    <glyph glyph-name="Iogonek" unicode="&#x12e;" 
d="M512 -186q0 98 71 169l17 17h-414v168h373v1154h-373v167h931v-167h-372v-1154h372v-168h-383q-54 -57 -54 -127q0 -106 132 -106q84 0 165 19v-168q-99 -20 -201 -19t-183 59t-81 156z" />
    <glyph glyph-name="iogonek" unicode="&#x12f;" 
d="M549 -181q0 102 89 181h-452v168h373v782h-373v167h559v-949h372v-168h-346q-54 -57 -54 -127q0 -106 132 -106q85 0 166 19v-168q-100 -20 -202 -19q-101 1 -183 59q-81 59 -81 161zM810 1428q0 -62 -44 -84t-115 -22q-70 0 -114 22t-44 84v13q0 63 44 87t115 23
q70 0 114 -23t44 -87v-13z" />
    <glyph glyph-name="Idotaccent" unicode="&#x130;" 
d="M186 0v168h373v1154h-373v167h931v-167h-372v-1154h372v-168h-931zM810 1800q0 -62 -44 -84t-115 -22q-70 0 -114 22t-44 84v13q0 63 44 87t115 23q70 0 114 -23t44 -87v-13z" />
    <glyph glyph-name="dotlessi" unicode="&#x131;" 
d="M186 0v168h373v782h-373v167h559v-949h372v-168h-931z" />
    <glyph glyph-name="IJ" unicode="&#x132;" 
d="M835 -19q-178 0 -275.5 106.5t-110.5 390.5l186 21q13 -209 48.5 -279.5t141.5 -70.5t144 86.5t38 209.5v877h-354v167h540v-1042q0 -216 -90 -341t-268 -125zM298 0h-186v1489h186v-1489z" />
    <glyph glyph-name="ij" unicode="&#x133;" 
d="M931 13v937h-242v167h428v-1128q0 -192 -118 -284t-295 -92q-130 0 -255 41l37 178q112 -41 214 -41t166.5 51.5t64.5 170.5zM410 0h-187v1117h187v-1117zM1017 1322q-70 0 -113.5 22.5t-43.5 83.5v13q0 63 44 86.5t114.5 23.5t114.5 -23.5t44 -86.5v-13q0 -61 -45 -83.5
t-115 -22.5zM316 1322q-70 0 -114 22.5t-44 83.5v13q0 63 44 86.5t114.5 23.5t114.5 -23.5t44 -86.5v-13q0 -61 -44.5 -83.5t-114.5 -22.5z" />
    <glyph glyph-name="Jcircumflex" unicode="&#x134;" 
d="M614 149q317 0 317 333v840h-372v167h558v-1005q0 -244 -129 -374t-374 -129q-245 0 -367 121t-135 376l186 21q13 -209 78 -279t238 -71zM497 1683l-71 119l324 278h134l328 -278l-71 -119l-324 216z" />
    <glyph glyph-name="jcircumflex" unicode="&#x135;" 
d="M745 950h-522v167h708v-1128q1 -192 -129 -284t-306 -92t-308 41l37 178q111 -39 241 -40q277 -3 279 221v937zM452 1311l-70 119l324 277h134l327 -277l-70 -119l-324 216z" />
    <glyph glyph-name="Kcommaaccent" unicode="&#x136;" 
d="M372 707v-707h-186v1489h186v-614h64l575 614h216l-639 -685l633 -804h-223l-557 707h-69zM402 -559l179 373h279l-288 -373h-170z" />
    <glyph glyph-name="kcommaaccent" unicode="&#x137;" 
d="M465 508v-508h-186v1489h186v-824h95l358 452h227l-438 -519l432 -598h-212l-367 508h-95zM389 -559l179 373h279l-288 -373h-170z" />
    <glyph glyph-name="kgreenlandic" unicode="&#x138;" 
d="M465 508v-508h-186v1117h186v-452h95l358 452h227l-438 -519l432 -598h-212l-367 508h-95z" />
    <glyph glyph-name="Lacute" unicode="&#x139;" 
d="M279 0v1489h186v-1321h652v-168h-838zM346 1676l254 372h279l-363 -372h-170z" />
    <glyph glyph-name="lacute" unicode="&#x13a;" 
d="M186 0v168h373v1154h-373v167h559v-1321h372v-168h-931zM467 1676l254 372h279l-363 -372h-170z" />
    <glyph glyph-name="Lcommaaccent" unicode="&#x13b;" 
d="M279 0v1489h186v-1321h652v-168h-838zM430 -559l179 373h279l-288 -373h-170z" />
    <glyph glyph-name="lcommaaccent" unicode="&#x13c;" 
d="M186 0v168h373v1154h-373v167h559v-1321h372v-168h-931zM356 -559l178 373h280l-289 -373h-169z" />
    <glyph glyph-name="Lcaron" unicode="&#x13d;" 
d="M279 0v1489h186v-1321h652v-168h-838zM719 940l150 549h274l-290 -549h-134z" />
    <glyph glyph-name="lcaron" unicode="&#x13e;" 
d="M186 0v168h373v1154h-373v167h559v-1321h372v-168h-931zM923 1313l151 549h274l-290 -549h-135z" />
    <glyph glyph-name="Ldot" unicode="&#x13f;" 
d="M279 0v1489h186v-1321h652v-168h-838zM1257 869q0 -61 -45 -83t-115 -23q-69 1 -113 23t-44 83v14q0 63 44 86t114 23t115 -23q44 -23 44 -86v-14z" />
    <glyph glyph-name="ldot" unicode="&#x140;" 
d="M186 0v168h373v1154h-373v167h559v-1321h372v-168h-931zM1406 683q0 -61 -45 -83t-115 -23q-70 1 -114 23t-43 83v13q0 62 44 86q45 24 115 24t114 -23t44 -87v-13z" />
    <glyph glyph-name="Lslash" unicode="&#x141;" 
d="M279 0v672l-186 -58v149l186 58v668h186v-610l466 145v-149l-466 -145v-562h652v-168h-838z" />
    <glyph glyph-name="lslash" unicode="&#x142;" 
d="M186 0v168h373v485l-280 -76v149l280 76v520h-373v167h559v-636l279 78v-149l-279 -78v-536h372v-168h-931z" />
    <glyph glyph-name="Nacute" unicode="&#x143;" 
d="M354 0h-168v1489h255l509 -1282v1282h167v-1489h-266l-497 1255v-1255zM477 1676l253 372h279l-363 -372h-169z" />
    <glyph glyph-name="nacute" unicode="&#x144;" 
d="M372 0h-186v1117h186v-186h56q41 95 129 150t199 55q168 0 264 -102t97 -280v-754h-186v717q0 117 -57 179t-163 63q-172 0 -339 -196v-763zM477 1303l253 373h279l-363 -373h-169z" />
    <glyph glyph-name="Ncommaaccent" unicode="&#x145;" 
d="M354 0h-168v1489h255l509 -1282v1282h167v-1489h-266l-497 1255v-1255zM365 -559l179 373h279l-289 -373h-169z" />
    <glyph glyph-name="ncommaaccent" unicode="&#x146;" 
d="M372 0h-186v1117h186v-186h56q41 95 129 150t199 55q168 0 264 -102t97 -280v-754h-186v717q0 117 -57 179t-163 63q-172 0 -339 -196v-763zM402 -559l179 373h279l-288 -373h-170z" />
    <glyph glyph-name="Ncaron" unicode="&#x147;" 
d="M354 0h-168v1489h255l509 -1282v1282h167v-1489h-266l-497 1255v-1255zM624 1683l-328 277l71 120l324 -216l320 216l71 -120l-324 -277h-134z" />
    <glyph glyph-name="ncaron" unicode="&#x148;" 
d="M372 0h-186v1117h186v-186h56q41 95 129 150t199 55q168 0 264 -102t97 -280v-754h-186v717q0 117 -57 179t-163 63q-172 0 -339 -196v-763zM624 1311l-328 277l71 119l324 -216l320 216l71 -119l-324 -277h-134z" />
    <glyph glyph-name="napostrophe" unicode="&#x149;" 
d="M372 0h-186v1117h186v-186h56q41 95 129 150t199 55q168 0 264 -102t97 -280v-754h-186v717q0 117 -57 179t-163 63q-172 0 -339 -196v-763zM-26 1303l253 373h279l-363 -373h-169z" />
    <glyph glyph-name="Eng" unicode="&#x14a;" 
d="M690 -209q102 0 171.5 73t69.5 242v963q0 141 -64.5 201.5t-164.5 60.5t-169 -63t-161 -170v-1098h-186v1489h186v-223h56q48 112 139.5 177t203.5 65q162 0 254 -105t92 -290v-1031q0 -238 -124 -353.5t-308 -115.5q-90 0 -292 59l37 179q158 -60 260 -60z" />
    <glyph glyph-name="eng" unicode="&#x14b;" 
d="M711 959q-169 0 -339 -196v-763h-186v1117h186v-186h56q41 95 133 150t210 55q160 0 253 -91.5t93 -247.5v-808q0 -192 -107 -284t-269 -92q-100 0 -236 41l37 178q112 -41 197 -41q84 0 138 51.5t54 170.5v739q0 207 -220 207z" />
    <glyph glyph-name="Omacron" unicode="&#x14c;" 
d="M652 149q171 0 244 84t72 283v450q0 203 -72 289q-73 86 -244 86t-244 -86t-73 -289v-450q0 -199 73 -283t244 -84zM652 -19q-246 0 -375 137q-128 137 -128 398v450q0 264 129 403t374 139q246 0 374 -139t128 -403v-450q0 -261 -128 -398t-374 -137zM279 1778v168h745
v-168h-745z" />
    <glyph glyph-name="omacron" unicode="&#x14d;" 
d="M372 404q0 -255 280 -255t279 255v302q0 134 -69 198t-210 64q-140 0 -210 -64t-70 -198v-302zM652 -19q-225 0 -346 109q-120 109 -120 314v302q0 206 121 318t345 112t344 -112t121 -318v-302q0 -205 -120 -314t-345 -109zM279 1406v167h745v-167h-745z" />
    <glyph glyph-name="Obreve" unicode="&#x14e;" 
d="M652 149q171 0 244 84t72 283v450q0 203 -72 289q-73 86 -244 86t-244 -86t-73 -289v-450q0 -199 73 -283t244 -84zM652 -19q-246 0 -375 137q-128 137 -128 398v450q0 264 129 403t374 139q246 0 374 -139t128 -403v-450q0 -261 -128 -398t-374 -137zM652 1663
q-181 -1 -306 87t-126 304h186q2 -134 62 -189t184 -55t184 55t61 189h187q-2 -216 -126 -304t-306 -87z" />
    <glyph glyph-name="obreve" unicode="&#x14f;" 
d="M372 404q0 -255 280 -255t279 255v302q0 134 -69 198t-210 64q-140 0 -210 -64t-70 -198v-302zM652 -19q-225 0 -346 109q-120 109 -120 314v302q0 206 121 318t345 112t344 -112t121 -318v-302q0 -205 -120 -314t-345 -109zM652 1290q-181 0 -306 88t-126 303h186
q2 -134 62 -189t184 -55t184 55t61 189h187q-2 -215 -126 -303t-306 -88z" />
    <glyph glyph-name="Ohungarumlaut" unicode="&#x150;" 
d="M652 149q171 0 244 84t72 283v450q0 203 -72 289q-73 86 -244 86t-244 -86t-73 -289v-450q0 -199 73 -283t244 -84zM652 -19q-246 0 -375 137q-128 137 -128 398v450q0 264 129 403t374 139q246 0 374 -139t128 -403v-450q0 -261 -128 -398t-374 -137zM328 1676l104 372
h261l-233 -372h-132zM756 1676l104 372h261l-233 -372h-132z" />
    <glyph glyph-name="ohungarumlaut" unicode="&#x151;" 
d="M372 404q0 -255 280 -255t279 255v302q0 134 -69 198t-210 64q-140 0 -210 -64t-70 -198v-302zM652 -19q-225 0 -346 109q-120 109 -120 314v302q0 206 121 318t345 112t344 -112t121 -318v-302q0 -205 -120 -314t-345 -109zM328 1303l104 373h261l-233 -373h-132z
M756 1303l104 373h261l-233 -373h-132z" />
    <glyph glyph-name="OE" unicode="&#x152;" 
d="M503 149h167v1192h-167q-162 0 -239.5 -111t-77.5 -282v-414q0 -173 77.5 -279t239.5 -106zM503 0q-227 0 -355.5 145t-128.5 389v414q0 246 127.5 393.5t354.5 147.5h802v-148h-465v-447h465v-149h-465v-596h465v-149h-800z" />
    <glyph glyph-name="oe" unicode="&#x153;" 
d="M400 987q-177 0 -177 -281v-302q0 -145 44.5 -209.5t132.5 -64.5t132.5 64.5t44.5 209.5v302q0 145 -43.5 213t-133.5 68zM903 996q-177 0 -177 -225v-129h354v112q0 127 -44 184.5t-133 57.5zM1247 758v-237h-521v-182q0 -115 43 -166.5t134 -51.5t129.5 29t51.5 114
l165 -15q-19 -138 -94 -203t-232 -65q-200 0 -277 144q-85 -144 -264 -144q-145 0 -235.5 103.5t-90.5 319.5v302q0 218 91 324t237 106q179 0 260 -144q81 144 249 144t261 -92.5t93 -285.5z" />
    <glyph glyph-name="Racute" unicode="&#x154;" 
d="M1210 981q0 -362 -365 -398l382 -583h-212l-378 577h-265v-577h-186v1489h561q463 0 463 -392v-116zM372 741h373q151 0 215 55t64 185v116q0 123 -64 174t-215 51h-373v-581zM579 1676l253 372h280l-364 -372h-169z" />
    <glyph glyph-name="racute" unicode="&#x155;" 
d="M758 959q-172 0 -293 -177v-782h-186v1117h186v-186h56q75 203 313 205q125 0 209 -83t83 -234v-167h-176v100q0 207 -192 207zM514 1303l253 373h279l-363 -373h-169z" />
    <glyph glyph-name="Rcommaaccent" unicode="&#x156;" 
d="M1210 981q0 -362 -365 -398l382 -583h-212l-378 577h-265v-577h-186v1489h561q463 0 463 -392v-116zM372 741h373q151 0 215 55t64 185v116q0 123 -64 174t-215 51h-373v-581zM374 -559l179 373h279l-288 -373h-170z" />
    <glyph glyph-name="rcommaaccent" unicode="&#x157;" 
d="M758 959q-172 0 -293 -177v-782h-186v1117h186v-186h56q75 203 313 205q125 0 209 -83t83 -234v-167h-176v100q0 207 -192 207zM123 -559l179 373h279l-289 -373h-169z" />
    <glyph glyph-name="Rcaron" unicode="&#x158;" 
d="M1210 981q0 -362 -365 -398l382 -583h-212l-378 577h-265v-577h-186v1489h561q463 0 463 -392v-116zM372 741h373q151 0 215 55t64 185v116q0 123 -64 174t-215 51h-373v-581zM596 1683l-328 277l71 120l324 -216l320 216l71 -120l-324 -277h-134z" />
    <glyph glyph-name="rcaron" unicode="&#x159;" 
d="M758 959q-172 0 -293 -177v-782h-186v1117h186v-186h56q75 203 313 205q125 0 209 -83t83 -234v-167h-176v100q0 207 -192 207zM661 1311l-328 277l71 119l324 -216l320 216l71 -119l-324 -277h-134z" />
    <glyph glyph-name="Sacute" unicode="&#x15a;" 
d="M607 1329q-259 0 -259 -206q0 -99 77 -156t319 -127t337 -158q94 -88 94 -256q-1 -214 -153 -326t-333 -111q-181 0 -326 54t-261 197l134 127q154 -209 445 -211q138 0 223 64t85 173q0 108 -73 165q-73 58 -316 128q-244 70 -342 161t-98 272t130 279t299 99
q170 0 311 -55t249 -195l-129 -128q-74 106 -186 158t-227 52zM441 1676l253 372h280l-363 -372h-170z" />
    <glyph glyph-name="sacute" unicode="&#x15b;" 
d="M684 -19q-316 0 -535 172l84 147q186 -151 434 -151q97 0 185 30t88 118t-72 122t-272 58t-305 96t-105 233q0 162 127 246t277 84q279 0 497 -172l-83 -147q-188 151 -397 151q-89 0 -163 -34t-74 -116t68 -117t271 -59q414 -50 416 -324q1 -175 -141 -256t-300 -81z
M436 1303l253 373h279l-363 -373h-169z" />
    <glyph glyph-name="Scircumflex" unicode="&#x15c;" 
d="M607 1329q-259 0 -259 -206q0 -99 77 -156t319 -127t337 -158q94 -88 94 -256q-1 -214 -153 -326t-333 -111q-181 0 -326 54t-261 197l134 127q154 -209 445 -211q138 0 223 64t85 173q0 108 -73 165q-73 58 -316 128q-244 70 -342 161t-98 272t130 279t299 99
q170 0 311 -55t249 -195l-129 -128q-74 106 -186 158t-227 52zM331 1683l-70 119l324 278h134l327 -278l-70 -119l-324 216z" />
    <glyph glyph-name="scircumflex" unicode="&#x15d;" 
d="M684 -19q-316 0 -535 172l84 147q186 -151 434 -151q97 0 185 30t88 118t-72 122t-272 58t-305 96t-105 233q0 162 127 246t277 84q279 0 497 -172l-83 -147q-188 151 -397 151q-89 0 -163 -34t-74 -116t68 -117t271 -59q414 -50 416 -324q1 -175 -141 -256t-300 -81z
M326 1311l-71 119l324 277h134l328 -277l-71 -119l-324 216z" />
    <glyph glyph-name="Scedilla" unicode="&#x15e;" 
d="M989 393q0 108 -73 165q-73 58 -316 128q-244 70 -342 161t-98 272t130 279t299 99q170 0 311 -55t249 -195l-129 -128q-74 106 -186 158t-227 52q-259 0 -259 -206q0 -99 77 -156t319 -127t337 -158q94 -88 94 -256q0 -214 -153 -325q-102 -74 -222 -100q66 -55 66 -173
t-84 -174t-198 -56t-190 46q-77 46 -85 151l164 19q4 -36 29 -50t82 -14q58 0 86 24q28 23 28 86q0 64 -20 90t-52 40q-140 7 -274 57t-250 193l134 127q154 -209 445 -211q138 0 223 64t85 173z" />
    <glyph glyph-name="scedilla" unicode="&#x15f;" 
d="M667 149q97 0 185 30t88 118t-72 122t-272 58t-305 96t-105 233q0 162 127 246t277 84q279 0 497 -172l-83 -147q-188 151 -397 151q-89 0 -163 -34t-74 -116t68 -117t271 -59q414 -50 416 -324q0 -175 -142 -256q-84 -48 -181 -67q58 -57 58 -171t-84 -170t-198 -56
t-190 46q-77 46 -85 151l164 19q4 -36 29 -50t82 -14t86 24q29 23 29 86q0 62 -18 86t-38 36q-282 9 -488 171l84 147q186 -151 434 -151z" />
    <glyph glyph-name="Scaron" unicode="&#x160;" 
d="M607 1329q-259 0 -259 -206q0 -99 77 -156t319 -127t337 -158q94 -88 94 -256q-1 -214 -153 -326t-333 -111q-181 0 -326 54t-261 197l134 127q154 -209 445 -211q138 0 223 64t85 173q0 108 -73 165q-73 58 -316 128q-244 70 -342 161t-98 272t130 279t299 99
q170 0 311 -55t249 -195l-129 -128q-74 106 -186 158t-227 52zM588 1683l-327 277l70 120l324 -216l321 216l70 -120l-324 -277h-134z" />
    <glyph glyph-name="scaron" unicode="&#x161;" 
d="M684 -19q-316 0 -535 172l84 147q186 -151 434 -151q97 0 185 30t88 118t-72 122t-272 58t-305 96t-105 233q0 162 127 246t277 84q279 0 497 -172l-83 -147q-188 151 -397 151q-89 0 -163 -34t-74 -116t68 -117t271 -59q414 -50 416 -324q1 -175 -141 -256t-300 -81z
M583 1311l-328 277l71 119l324 -216l320 216l71 -119l-324 -277h-134z" />
    <glyph glyph-name="Tcedilla" unicode="&#x162;" 
d="M559 0v1322h-466v167h1117v-167h-465v-1299q10 -7 20 -15q75 -54 75 -176t-84 -178t-198 -56t-190 46q-77 46 -85 151l164 19q4 -36 29 -50t82 -14q58 0 86 24q28 23 28 86t-23 94t-77 46h-13z" />
    <glyph glyph-name="tcedilla" unicode="&#x163;" 
d="M847 158q126 0 250 37l37 -169q-100 -30 -200 -39q51 -55 51 -166t-84 -167q-83 -56 -197 -56t-191 46t-85 151l164 19q4 -36 29 -50t82 -14t85 24q28 23 29 86q0 63 -19 89t-50 40q-301 42 -301 365v596h-317v167h317v372h186v-372h484v-167h-484v-579q0 -213 214 -213z
" />
    <glyph glyph-name="Tcaron" unicode="&#x164;" 
d="M559 0v1322h-466v167h1117v-167h-465v-1322h-186zM586 1683l-327 277l71 120l323 -216l321 216l70 -120l-323 -277h-135z" />
    <glyph glyph-name="tcaron" unicode="&#x165;" 
d="M447 354v596h-317v167h317v372h186v-372h484v-167h-484v-579q0 -213 214 -213q126 0 250 37l37 -169q-143 -43 -312 -43q-170 0 -273 91q-102 91 -102 280zM812 1313l151 549h273l-290 -549h-134z" />
    <glyph glyph-name="Tbar" unicode="&#x166;" 
d="M559 0v577h-373v168h373v577h-466v167h1117v-167h-465v-577h372v-168h-372v-577h-186z" />
    <glyph glyph-name="tbar" unicode="&#x167;" 
d="M447 354v167h-242v168h242v261h-317v167h317v372h186v-372h484v-167h-484v-261h428v-168h-428v-150q0 -213 214 -213q120 0 250 37l37 -169q-143 -43 -312 -43q-170 0 -272.5 91.5t-102.5 279.5z" />
    <glyph glyph-name="Utilde" unicode="&#x168;" 
d="M1117 516q0 -535 -465 -535t-466 535v973h186v-973q0 -199 64 -283t216 -84q151 0 215 84t64 283v973h186v-973zM799 1694q-63 0 -111 37t-136 144q-29 33 -63 33q-35 0 -61 -34t-24 -141v-20h-143v28q0 140 63 233t181 93q71 0 117 -34t76 -74q32 -39 58 -73t60 -34
q84 1 83 176v20h144v-28q1 -142 -63 -234t-181 -92z" />
    <glyph glyph-name="utilde" unicode="&#x169;" 
d="M592 158q172 0 339 196v763h186v-1117h-186v186h-56q-39 -91 -129 -148t-199 -57q-161 -1 -261 105t-100 277v754h186v-717q0 -242 220 -242zM814 1480q85 0 85 175v21h144v-28q1 -142 -63 -234t-181 -92q-63 0 -107 34t-78 73t-62 73t-63 34t-61 -34t-24 -141v-20h-143
v27q0 140 63 233t181 93q71 0 117 -34t76 -73q32 -39 58 -73t58 -34z" />
    <glyph glyph-name="Umacron" unicode="&#x16a;" 
d="M1117 516q0 -535 -465 -535t-466 535v973h186v-973q0 -199 64 -283t216 -84q151 0 215 84t64 283v973h186v-973zM279 1778v168h745v-168h-745z" />
    <glyph glyph-name="umacron" unicode="&#x16b;" 
d="M592 158q172 0 339 196v763h186v-1117h-186v186h-56q-39 -91 -129 -148t-199 -57q-161 -1 -261 105t-100 277v754h186v-717q0 -242 220 -242zM279 1406v167h745v-167h-745z" />
    <glyph glyph-name="Ubreve" unicode="&#x16c;" 
d="M1117 516q0 -535 -465 -535t-466 535v973h186v-973q0 -199 64 -283t216 -84q151 0 215 84t64 283v973h186v-973zM652 1663q-181 -1 -306 87t-126 304h186q2 -134 62 -189t184 -55t184 55t61 189h187q-2 -216 -126 -304t-306 -87z" />
    <glyph glyph-name="ubreve" unicode="&#x16d;" 
d="M592 158q172 0 339 196v763h186v-1117h-186v186h-56q-39 -91 -129 -148t-199 -57q-161 -1 -261 105t-100 277v754h186v-717q0 -242 220 -242zM652 1290q-181 0 -306 88t-126 303h186q2 -134 62 -189t184 -55t184 55t61 189h187q-2 -215 -126 -303t-306 -88z" />
    <glyph glyph-name="Uring" unicode="&#x16e;" 
d="M1117 516q0 -535 -465 -535t-466 535v973h186v-973q0 -199 64 -283t216 -84q151 0 215 84t64 283v973h186v-973zM804 1977q0 142 -152 143t-153 -143v-59q1 -74 39 -106t113 -32t114 32t39 106v59zM652 1648q-134 0 -216 66t-82 204v59q0 140 82 208t216 68t216 -68
t82 -208v-59q0 -138 -82 -204t-216 -66z" />
    <glyph glyph-name="uring" unicode="&#x16f;" 
d="M592 158q172 0 339 196v763h186v-1117h-186v186h-56q-39 -91 -129 -148t-199 -57q-161 -1 -261 105t-100 277v754h186v-717q0 -242 220 -242zM804 1605q0 143 -152 143q-76 0 -114 -34t-39 -109v-60q0 -74 38 -106q39 -31 114 -31t114 32t39 105v60zM652 1275
q-134 0 -216 66t-82 204v60q0 139 82 207t216 68t216 -68t82 -207v-60q0 -138 -82 -204t-216 -66z" />
    <glyph glyph-name="Uhungarumlaut" unicode="&#x170;" 
d="M1117 516q0 -535 -465 -535t-466 535v973h186v-973q0 -199 64 -283t216 -84q151 0 215 84t64 283v973h186v-973zM346 1676l105 372h260l-233 -372h-132zM775 1676l104 372h260l-232 -372h-132z" />
    <glyph glyph-name="uhungarumlaut" unicode="&#x171;" 
d="M592 158q172 0 339 196v763h186v-1117h-186v186h-56q-39 -91 -129 -148t-199 -57q-161 -1 -261 105t-100 277v754h186v-717q0 -242 220 -242zM365 1303l104 373h261l-233 -373h-132zM793 1303l104 373h261l-233 -373h-132z" />
    <glyph glyph-name="Uogonek" unicode="&#x172;" 
d="M493 -186q0 98 74 172q-379 47 -381 530v973h186v-973q0 -199 64 -283t216 -84q151 0 215 84t64 283v973h186v-973q0 -268 -110 -394t-306 -139q-40 -52 -40 -110q0 -106 132 -106q85 0 166 19v-168q-90 -18 -197 -18q-106 0 -188 58q-81 58 -81 156z" />
    <glyph glyph-name="uogonek" unicode="&#x173;" 
d="M810 -175q0 108 121 202v159h-56q-39 -91 -129 -148t-199 -57q-161 -1 -261 105t-100 277v754h186v-717q0 -242 220 -242q172 0 339 196v763h186v-1117h-85q-53 -56 -55 -127q0 -106 133 -106q84 0 165 19v-168q-99 -20 -201 -19t-183 59t-81 167z" />
    <glyph glyph-name="Wcircumflex" unicode="&#x174;" 
d="M871 0l-219 888l-220 -888h-186l-201 1489h184l134 -1215l196 843h195l196 -843l134 1215h175l-201 -1489h-187zM330 1683l-71 119l324 278h134l327 -278l-70 -119l-324 216z" />
    <glyph glyph-name="wcircumflex" unicode="&#x175;" 
d="M815 0l-163 728l-157 -728h-212l-210 1117h178l142 -981l145 795h220l158 -765l136 951h179l-211 -1117h-205zM330 1311l-71 119l324 277h134l327 -277l-70 -119l-324 216z" />
    <glyph glyph-name="Ycircumflex" unicode="&#x176;" 
d="M745 0h-186v559l-533 930h209l428 -763l408 763h204l-530 -930v-559zM330 1683l-71 119l324 278h134l327 -278l-70 -119l-324 216z" />
    <glyph glyph-name="ycircumflex" unicode="&#x177;" 
d="M354 -220q76 0 145 51t104 169h-69l-396 1117h203l314 -961l313 961h196l-410 -1154q-121 -347 -434 -347q-70 0 -175 21l32 166q101 -23 177 -23zM330 1311l-71 119l324 277h134l327 -277l-70 -119l-324 216z" />
    <glyph glyph-name="Ydieresis" unicode="&#x178;" 
d="M745 0h-186v559l-533 930h209l428 -763l408 763h204l-530 -930v-559zM987 1800q0 -106 -121 -106q-54 0 -88 22t-33 84v13q0 63 33 87q34 23 88 23t88 -23t33 -87v-13zM559 1800q0 -106 -121 -106q-54 0 -88 22t-33 84v13q0 63 33 87q34 23 88 23t88 -23t33 -87v-13z" />
    <glyph glyph-name="Zacute" unicode="&#x179;" 
d="M1154 0h-1005v168l782 1154h-782v167h1005v-167l-783 -1154h783v-168zM495 1676l253 372h280l-363 -372h-170z" />
    <glyph glyph-name="zacute" unicode="&#x17a;" 
d="M1080 0h-857v168l628 782h-628v167h857v-167l-628 -782h628v-168zM439 1303l254 373h279l-363 -373h-170z" />
    <glyph glyph-name="Zdotaccent" unicode="&#x17b;" 
d="M1154 0h-1005v168l782 1154h-782v167h1005v-167l-783 -1154h783v-168zM810 1800q0 -62 -44 -84t-115 -22q-70 0 -114 22t-44 84v13q0 63 44 87t115 23q70 0 114 -23t44 -87v-13z" />
    <glyph glyph-name="zdotaccent" unicode="&#x17c;" 
d="M1080 0h-857v168l628 782h-628v167h857v-167l-628 -782h628v-168zM810 1428q0 -62 -44 -84t-115 -22q-70 0 -114 22t-44 84v13q0 63 44 87t115 23q70 0 114 -23t44 -87v-13z" />
    <glyph glyph-name="Zcaron" unicode="&#x17d;" 
d="M1154 0h-1005v168l782 1154h-782v167h1005v-167l-783 -1154h783v-168zM586 1683l-327 277l71 120l323 -216l321 216l70 -120l-323 -277h-135z" />
    <glyph glyph-name="zcaron" unicode="&#x17e;" 
d="M1080 0h-857v168l628 782h-628v167h857v-167l-628 -782h628v-168zM586 1311l-327 277l71 119l323 -216l321 216l70 -119l-323 -277h-135z" />
    <glyph glyph-name="longs" unicode="&#x17f;" 
d="M914 1341q-169 0 -169 -148v-1193h-186v950h-224v167h224v75q0 151 100.5 233.5t224.5 82.5t250 -48l-37 -157q-99 38 -183 38z" />
    <glyph glyph-name="florin" unicode="&#x192;" 
d="M1134 1303q-110 38 -207 38q-98 0 -141 -43q-41 -49 -41 -155v-212h409v-168h-409v-458q0 -222 -130.5 -269t-221.5 -47t-164 16.5t-97 28.5l37 160q110 -38 183 -38q122 0 164.5 42.5t42.5 155.5v409h-391v168h391v261q0 144 92 230t245 86q57 0 146 -12q88 -12 129 -33
z" />
    <glyph glyph-name="Aringacute" unicode="&#x1fa;" 
d="M1033 0l-128 428h-512l-129 -428h-190l481 1489h195l481 -1489h-198zM855 596l-205 683l-207 -683h412zM806 1977q0 142 -152 143t-153 -143v-59q0 -74 38 -106t113 -32t115 32q39 32 39 106v59zM653 1648q-133 0 -215 66t-82 204v59q0 218 201 265l247 365h280
l-352 -361q81 -15 137 -61q82 -68 82 -208v-59q0 -138 -82 -204t-216 -66z" />
    <glyph glyph-name="aringacute" unicode="&#x1fb;" 
d="M594 1136q184 0 307 -83t123 -256v-499q0 -101 56 -126t167 -6v-172q-115 -17 -216 16t-111 176h-37q-52 -86 -157 -146q-106 -60 -240 -59q-134 -1 -245 75t-111 234t96 241q96 84 225 83h387v161q0 89 -60 141t-182 52t-182 -36q-61 -36 -96 -161l-163 44
q65 321 439 321zM503 475q-186 0 -186 -164q0 -170 206 -170t315 155v179h-335zM767 1605q0 143 -153 143q-76 0 -114 -34t-38 -109v-60q0 -73 38 -105t113 -32t115 31q39 32 39 106v60zM614 1275q-134 0 -216 66t-81 204v60q0 217 203 266l247 363h279l-351 -360
q80 -15 135 -62q82 -68 82 -207v-60q0 -138 -82 -204t-216 -66z" />
    <glyph glyph-name="AEacute" unicode="&#x1fc;" 
d="M670 428h-385l-125 -428h-160l452 1489h833v-148h-447v-466h428v-149h-428v-577h447v-149h-615v428zM670 577v764h-119l-223 -764h342zM681 1676l254 372h279l-363 -372h-170z" />
    <glyph glyph-name="aeacute" unicode="&#x1fd;" 
d="M577 493h-177q-76 0 -126 -40q-50 -39 -50 -135t32 -146t104 -49t121 37t96 99v234zM903 996q-177 0 -177 -225v-129h354v112q0 126 -44 184t-133 58zM1247 758v-237h-521v-182q0 -115 43 -167t134 -51q91 0 128 34t53 128l165 -15q-19 -147 -94 -217t-232 -70
q-216 0 -290 168h-30q-43 -73 -106 -120t-163 -47t-189 74q-89 76 -89 234t87 242q88 83 205 82h229v161q0 97 -45 155q-44 58 -126 57q-82 0 -116 -34t-65 -145l-145 45q26 134 104 208q78 75 237 75t236 -125q81 125 243 125q161 0 254 -92t93 -286zM534 1303l254 373h279
l-363 -373h-170z" />
    <glyph glyph-name="Oslashacute" unicode="&#x1fe;" 
d="M1154 966v-450q0 -261 -129 -398t-373 -137q-129 0 -216 36l-82 -203h-186l117 296q-136 136 -136 406v450q0 264 129 403t375 139q101 0 183 -24l76 192h186l-109 -272q165 -135 165 -438zM968 516v450q0 189 -61 278l-425 -1067q73 -28 170 -28q172 0 244 84t72 283z
M652 1341q-173 0 -245 -85t-72 -290v-450q0 -149 39 -233l415 1041q-73 17 -137 17zM514 1676l253 372h279l-363 -372h-169z" />
    <glyph glyph-name="oslashacute" unicode="&#x1ff;" 
d="M1117 706v-302q0 -216 -128 -320t-337 -103q-106 0 -185 25l-95 -192h-186l134 266q-132 109 -134 324v302q0 218 130 324t337 106q101 0 183 -24l95 191h186l-134 -266q134 -111 134 -331zM652 149q145 0 212 61t67 194v302q0 114 -45 173l-359 -715q56 -15 125 -15z
M652 968q-144 0 -212 -63t-68 -199v-302q0 -110 45 -169l358 718q-56 15 -123 15zM439 1303l254 373h279l-363 -373h-170z" />
    <glyph glyph-name="Scommaaccent" unicode="&#x218;" 
d="M607 1329q-259 0 -259 -206q0 -99 77 -156t319 -127t337 -158q94 -88 94 -256q-1 -214 -153 -326t-333 -111q-181 0 -326 54t-261 197l134 127q154 -209 445 -211q138 0 223 64t85 173q0 108 -73 165q-73 58 -316 128q-244 70 -342 161t-98 272t130 279t299 99
q170 0 311 -55t249 -195l-129 -128q-74 106 -186 158t-227 52zM365 -559l179 373h279l-289 -373h-169z" />
    <glyph glyph-name="scommaaccent" unicode="&#x219;" 
d="M684 -19q-316 0 -535 172l84 147q186 -151 434 -151q97 0 185 30t88 118t-72 122t-272 58t-305 96t-105 233q0 162 127 246t277 84q279 0 497 -172l-83 -147q-188 151 -397 151q-89 0 -163 -34t-74 -116t68 -117t271 -59q414 -50 416 -324q1 -175 -141 -256t-300 -81z
M365 -559l179 373h279l-289 -373h-169z" />
    <glyph glyph-name="Tcommaaccent" unicode="&#x21a;" 
d="M559 0v1322h-466v167h1117v-167h-465v-1322h-186zM363 -559l179 373h279l-289 -373h-169z" />
    <glyph glyph-name="tcommaaccent" unicode="&#x21b;" 
d="M447 354v596h-317v167h317v372h186v-372h484v-167h-484v-579q0 -213 214 -213q126 0 250 37l37 -169q-143 -43 -312 -43q-170 0 -273 91q-102 91 -102 280zM402 -559l179 373h279l-288 -373h-170z" />
    <glyph glyph-name="dotlessj" unicode="&#xf6be;" 
d="M469 -209q276 0 276 222v937h-522v167h708v-1128q0 -192 -129.5 -284t-305.5 -92t-308 41l37 178q117 -41 244 -41z" />
    <glyph glyph-name="dotlessj" unicode="&#x237;" 
d="M469 -209q276 0 276 222v937h-522v167h708v-1128q0 -192 -129.5 -284t-305.5 -92t-308 41l37 178q117 -41 244 -41z" />
    <glyph glyph-name="quoteleft" unicode="&#x2018;" 
d="M374 745l419 744h157l-205 -744h-371z" />
    <glyph glyph-name="quoteleft" unicode="&#x2bb;" 
d="M374 745l419 744h157l-205 -744h-371z" />
    <glyph glyph-name="circumflex" unicode="&#x2c6;" 
d="M330 1311l-71 119l324 277h134l327 -277l-70 -119l-324 216z" />
    <glyph glyph-name="caron" unicode="&#x2c7;" 
d="M586 1311l-327 277l71 119l323 -216l321 216l70 -119l-323 -277h-135z" />
    <glyph glyph-name="breve" unicode="&#x2d8;" 
d="M652 1290q-181 0 -306 88t-126 303h186q2 -134 62 -189t184 -55t184 55t61 189h187q-2 -215 -126 -303t-306 -88z" />
    <glyph glyph-name="dotaccent" unicode="&#x2d9;" 
d="M810 1428q0 -62 -44 -84t-115 -22q-70 0 -114 22t-44 84v13q0 63 44 87t115 23q70 0 114 -23t44 -87v-13z" />
    <glyph glyph-name="ring" unicode="&#x2da;" 
d="M804 1605q0 143 -152 143q-76 0 -114 -34t-39 -109v-60q0 -74 38 -106q39 -31 114 -31t114 32t39 105v60zM652 1275q-134 0 -216 66t-82 204v60q0 139 82 207t216 68t216 -68t82 -207v-60q0 -138 -82 -204t-216 -66z" />
    <glyph glyph-name="ogonek" unicode="&#x2db;" 
d="M744 -400q-106 0 -188 58q-81 58 -81 156t71 169t156 105l50 -45q-107 -66 -110 -170q0 -106 133 -106q84 0 165 19v-168q-90 -18 -196 -18z" />
    <glyph glyph-name="tilde" unicode="&#x2dc;" 
d="M814 1480q85 0 85 175v21h144v-28q1 -142 -63 -234t-181 -92q-63 0 -107 34t-78 73t-62 73t-63 34t-61 -34t-24 -141v-20h-143v27q0 140 63 233t181 93q71 0 117 -34t76 -73q32 -39 58 -73t58 -34z" />
    <glyph glyph-name="hungarumlaut" unicode="&#x2dd;" 
d="M365 1303l104 373h261l-233 -373h-132zM793 1303l104 373h261l-233 -373h-132z" />
    <glyph glyph-name="gravecmb" unicode="&#x300;" horiz-adv-x="0" 
d="M2 1303l-363 373h279l253 -373h-169z" />
    <glyph glyph-name="acutecmb" unicode="&#x301;" horiz-adv-x="0" 
d="M-212 1303l253 373h279l-363 -373h-169z" />
    <glyph glyph-name="circumflexcmb" unicode="&#x302;" horiz-adv-x="0" 
d="M-322 1311l-71 119l324 277h134l328 -277l-71 -119l-324 216z" />
    <glyph glyph-name="tildecmb" unicode="&#x303;" horiz-adv-x="0" 
d="M162 1480q86 0 86 175v21h143v-28q0 -141 -63.5 -233.5t-180.5 -92.5q-63 0 -107 33.5t-78 73.5t-62 73.5t-62 33.5q-88 0 -86 -175v-20h-143v27q0 140 63.5 233t180.5 93q71 0 116.5 -33.5t77.5 -73.5t57.5 -73.5t57.5 -33.5z" />
    <glyph glyph-name="macroncmb" unicode="&#x304;" horiz-adv-x="0" 
d="M-372 1406v167h744v-167h-744z" />
    <glyph glyph-name="brevecmb" unicode="&#x306;" horiz-adv-x="0" 
d="M0 1290q-181 0 -305.5 87.5t-126.5 303.5h186q2 -134 62.5 -189t183.5 -55t183.5 55t62.5 189h186q-2 -216 -126.5 -303.5t-305.5 -87.5z" />
    <glyph glyph-name="dotaccentcmb" unicode="&#x307;" horiz-adv-x="0" 
d="M-1 1322q-70 0 -113.5 22.5t-43.5 83.5v13q0 63 43.5 86.5t114.5 23.5t114.5 -23.5t43.5 -86.5v-13q0 -61 -44.5 -83.5t-114.5 -22.5z" />
    <glyph glyph-name="dieresiscmb" unicode="&#x308;" horiz-adv-x="0" 
d="M213 1322q-53 0 -86.5 22.5t-33.5 83.5v13q0 63 33.5 86.5t87.5 23.5t87.5 -23.5t33.5 -86.5v-13q0 -61 -34.5 -83.5t-87.5 -22.5zM-215 1322q-53 0 -86.5 22.5t-33.5 83.5v13q0 63 33.5 86.5t87.5 23.5t87.5 -23.5t33.5 -86.5v-13q0 -61 -34.5 -83.5t-87.5 -22.5z" />
    <glyph glyph-name="ringcmb" unicode="&#x30a;" horiz-adv-x="0" 
d="M0 1748q-153 0 -153 -143v-60q0 -74 38.5 -105.5t113.5 -31.5t114.5 31.5t39.5 105.5v60q0 143 -153 143zM0 1275q-134 0 -216 66.5t-82 203.5v60q0 140 82 207.5t216 67.5t216 -67.5t82 -207.5v-60q0 -138 -82 -204t-216 -66z" />
    <glyph glyph-name="hungarumlautcmb" unicode="&#x30b;" horiz-adv-x="0" 
d="M-287 1303l105 373h260l-233 -373h-132zM141 1303l105 373h260l-232 -373h-133z" />
    <glyph glyph-name="caroncmb" unicode="&#x30c;" horiz-adv-x="0" 
d="M-65 1311l-328 277l71 119l324 -216l320 216l71 -119l-324 -277h-134z" />
    <glyph glyph-name="commaturnedabovecmb" unicode="&#x312;" horiz-adv-x="0" 
d="M-249 1303l288 373h170l-179 -373h-279z" />
    <glyph glyph-name="commaaccentcmb" unicode="&#x326;" horiz-adv-x="0" 
d="M-249 -559l178 373h280l-289 -373h-169z" />
    <glyph glyph-name="cedillacmb" unicode="&#x327;" horiz-adv-x="0" 
d="M212 -168q0 -122 -83.5 -178t-197.5 -56t-191 45.5t-84 151.5l163 19q4 -35 29 -49t82 -14t86 23t29 86.5t-23.5 94t-77.5 45.5l37 78q82 -15 156.5 -69.5t74.5 -176.5z" />
    <glyph glyph-name="ogonekcmb" unicode="&#x328;" horiz-adv-x="0" 
d="M92 -400q-107 0 -188 58t-81 156t71 169t156 105l51 -45q-110 -68 -110 -172t132 -104q95 0 166 19v-168q-90 -18 -197 -18z" />
    <glyph glyph-name="tonos" unicode="&#x384;" 
d="M514 1303l141 373h261l-251 -373h-151z" />
    <glyph glyph-name="dieresistonos" unicode="&#x385;" 
d="M1080 1409q0 -106 -102 -106t-103 106v13q0 110 102 110q47 0 75 -23t28 -87v-13zM428 1409q0 -106 -102 -106t-103 106v13q0 62 28 86t75 24q46 0 74 -23t28 -87v-13zM532 1303l86 373h224l-196 -373h-114z" />
    <glyph glyph-name="Alphatonos" unicode="&#x386;" 
d="M1033 0l-128 428h-512l-129 -428h-190l481 1489h195l481 -1489h-198zM855 596l-205 683l-207 -683h412zM50 1303l142 373h260l-251 -373h-151z" />
    <glyph glyph-name="anoteleia" unicode="&#x387;" 
d="M652 540q-92 0 -150 42t-57 133v52q0 91 58 135q59 44 151 44t149 -44t57 -135v-52q0 -91 -58 -133t-150 -42z" />
    <glyph glyph-name="Epsilontonos" unicode="&#x388;" 
d="M186 0v1489h968v-167h-782v-428h689v-168h-689v-558h782v-168h-968zM-210 1303l141 373h261l-252 -373h-150z" />
    <glyph glyph-name="Etatonos" unicode="&#x389;" 
d="M186 0v1489h186v-595h559v595h186v-1489h-186v726h-559v-726h-186zM-229 1303l141 373h261l-251 -373h-151z" />
    <glyph glyph-name="Iotatonos" unicode="&#x38a;" 
d="M186 0v168h373v1154h-373v167h931v-167h-372v-1154h372v-168h-931zM-229 1303l141 373h261l-251 -373h-151z" />
    <glyph glyph-name="Omicrontonos" unicode="&#x38c;" 
d="M661 149q171 0 244 84t72 283v450q0 203 -72 289q-73 86 -244 86t-244 -86t-73 -289v-450q0 -199 73 -283t244 -84zM661 -19q-246 0 -374 137t-129 398v450q0 264 130 403t374 139q245 0 373 -139t129 -403v-450q0 -261 -128 -398t-375 -137zM-71 1303l142 373h260
l-251 -373h-151z" />
    <glyph glyph-name="Upsilontonos" unicode="&#x38e;" 
d="M745 0h-186v559l-533 930h209l428 -763l408 763h204l-530 -930v-559zM-285 1303l142 373h260l-251 -373h-151z" />
    <glyph glyph-name="Omegatonos" unicode="&#x38f;" 
d="M559 0h-429v168h242v167q-130 39 -186 157t-56 273v201q0 268 132 405t390 137q259 0 390 -137t131 -405v-201q0 -156 -56 -273t-186 -157v-167h242v-168h-428v428q143 24 192 112t50 225v201q-1 203 -77 289t-258 86t-258 -86t-77 -289v-201q0 -136 49 -224t193 -113
v-428zM-117 1303l141 373h261l-251 -373h-151z" />
    <glyph glyph-name="iotadieresistonos" unicode="&#x390;" 
d="M559 950h-410v167h596v-758q0 -199 184 -199q104 0 186 35l37 -161q-102 -43 -229 -43q-171 1 -268 99t-96 271v589zM1061 1409q-1 -106 -103 -106t-102 106v13q0 62 28 86t75 24t75 -23t27 -87v-13zM410 1409q0 -106 -102 -106t-103 106v13q0 110 102 110q47 0 75 -23
t28 -87v-13zM514 1303l86 373h223l-196 -373h-113z" />
    <glyph glyph-name="Alpha" unicode="&#x391;" 
d="M1033 0l-128 428h-512l-129 -428h-190l481 1489h195l481 -1489h-198zM855 596l-205 683l-207 -683h412z" />
    <glyph glyph-name="Beta" unicode="&#x392;" 
d="M372 168h332q141 0 206 54t66 178v60q0 123 -66 178t-206 55h-332v-525zM372 856h295q133 0 193 50t60 157v52q0 107 -61 157t-192 50h-295v-466zM186 0v1489h462q234 1 344 -85t110 -265v-83q0 -96 -54 -160t-149 -81v-54q121 -11 192 -91t71 -206v-84q0 -194 -123 -287
t-378 -93h-475z" />
    <glyph glyph-name="Gamma" unicode="&#x393;" 
d="M186 0v1489h968v-167h-782v-1322h-186z" />
    <glyph glyph-name="Delta" unicode="&#x394;" 
d="M1039 168l-391 1128l-389 -1128h780zM74 0v168l472 1321h195l488 -1321v-168h-1155z" />
    <glyph glyph-name="Epsilon" unicode="&#x395;" 
d="M186 0v1489h968v-167h-782v-428h689v-168h-689v-558h782v-168h-968z" />
    <glyph glyph-name="Zeta" unicode="&#x396;" 
d="M1154 0h-1005v168l782 1154h-782v167h1005v-167l-783 -1154h783v-168z" />
    <glyph glyph-name="Eta" unicode="&#x397;" 
d="M186 0v1489h186v-595h559v595h186v-1489h-186v726h-559v-726h-186z" />
    <glyph glyph-name="Theta" unicode="&#x398;" 
d="M465 670v168h373v-168h-373zM652 149q203 0 287.5 84t84.5 283v450q0 205 -84.5 290t-287.5 85t-288 -85t-85 -290v-450q0 -199 85 -283t288 -84zM651.5 -19q-275.5 0 -417 136t-141.5 399v450q0 266 142.5 404t416.5 138t416 -137.5t142 -404.5v-450q0 -263 -141.5 -399
t-417 -136z" />
    <glyph glyph-name="Iota" unicode="&#x399;" 
d="M186 0v168h373v1154h-373v167h931v-167h-372v-1154h372v-168h-931z" />
    <glyph glyph-name="Kappa" unicode="&#x39a;" 
d="M372 707v-707h-186v1489h186v-614h64l575 614h216l-639 -685l633 -804h-223l-557 707h-69z" />
    <glyph glyph-name="Lambda" unicode="&#x39b;" 
d="M1033 0l-383 1279l-386 -1279h-190l481 1489h195l481 -1489h-198z" />
    <glyph glyph-name="Mu" unicode="&#x39c;" 
d="M298 0h-168v1489h252l275 -895l274 895h242v-1489h-168v1192l-264 -820h-179l-264 818v-1190z" />
    <glyph glyph-name="Nu" unicode="&#x39d;" 
d="M354 0h-168v1489h255l509 -1282v1282h167v-1489h-266l-497 1255v-1255z" />
    <glyph glyph-name="Xi" unicode="&#x39e;" 
d="M149 0v168h1005v-168h-1005zM195 726v168h913v-168h-913zM149 1322v167h1005v-167h-1005z" />
    <glyph glyph-name="Omicron" unicode="&#x39f;" 
d="M652 149q171 0 244 84t72 283v450q0 203 -72 289q-73 86 -244 86t-244 -86t-73 -289v-450q0 -199 73 -283t244 -84zM652 -19q-246 0 -375 137q-128 137 -128 398v450q0 264 129 403t374 139q246 0 374 -139t128 -403v-450q0 -261 -128 -398t-374 -137z" />
    <glyph glyph-name="Pi" unicode="&#x3a0;" 
d="M186 0v1489h931v-1489h-186v1322h-559v-1322h-186z" />
    <glyph glyph-name="Rho" unicode="&#x3a1;" 
d="M372 685h335q151 0 216 53q64 53 64 180v171q0 127 -64 180t-216 53h-335v-637zM1173 914q0 -393 -466 -393h-335v-521h-186v1489h523q464 0 464 -392v-183z" />
    <glyph glyph-name="Sigma" unicode="&#x3a3;" 
d="M1154 0h-1024v168l661 599l-661 555v167h1024v-167h-778l555 -475v-145l-577 -534h800v-168z" />
    <glyph glyph-name="Tau" unicode="&#x3a4;" 
d="M559 0v1322h-466v167h1117v-167h-465v-1322h-186z" />
    <glyph glyph-name="Upsilon" unicode="&#x3a5;" 
d="M745 0h-186v559l-533 930h209l428 -763l408 763h204l-530 -930v-559z" />
    <glyph glyph-name="Phi" unicode="&#x3a6;" 
d="M499 335h69v819h-69q-119 0 -169 -76t-51 -261v-152q1 -179 51 -255t169 -75zM806 1154h-71v-819h71q118 -1 168 75t50 255v152q0 184 -50 261q-51 76 -168 76zM806 168h-61v-187h-186v187h-60q-210 0 -308 138t-98 359v152q0 225 98 365t308 140h60v186h186v-186h61
q210 0 307 -140t97 -365v-152q0 -221 -97 -359t-307 -138z" />
    <glyph glyph-name="Chi" unicode="&#x3a7;" 
d="M1050 0l-397 611l-398 -611h-218l520 760l-473 729h214l376 -580l380 580h216l-499 -728l493 -761h-214z" />
    <glyph glyph-name="Psi" unicode="&#x3a8;" 
d="M745 0h-186v359q-212 24 -311 155.5t-99 336.5v638h177v-638q0 -149 54 -223.5t179 -91.5v953h186v-953q125 17 178.5 91.5t53.5 223.5v638h177v-638q0 -205 -98.5 -336t-310.5 -156v-359z" />
    <glyph glyph-name="Omega" unicode="&#x3a9;" 
d="M559 0h-429v168h242v167q-130 39 -186 156.5t-56 273.5v201q0 268 131.5 405t390 137t390 -137t131.5 -405v-201q0 -156 -56 -273.5t-186 -156.5v-167h242v-168h-428v428q143 24 192.5 112.5t49.5 224.5v201q0 203 -76.5 289t-259 86t-258.5 -86t-76 -289v-201
q0 -136 49 -224.5t193 -112.5v-428z" />
    <glyph glyph-name="Iotadieresis" unicode="&#x3aa;" 
d="M186 0v168h373v1154h-373v167h931v-167h-372v-1154h372v-168h-931zM987 1800q0 -106 -121 -106q-54 0 -88 22t-33 84v13q0 63 33 87q34 23 88 23t88 -23t33 -87v-13zM559 1800q0 -106 -121 -106q-54 0 -88 22t-33 84v13q0 63 33 87q34 23 88 23t88 -23t33 -87v-13z" />
    <glyph glyph-name="Upsilondieresis" unicode="&#x3ab;" 
d="M745 0h-186v559l-533 930h209l428 -763l408 763h204l-530 -930v-559zM987 1800q0 -106 -121 -106q-54 0 -88 22t-33 84v13q0 63 33 87q34 23 88 23t88 -23t33 -87v-13zM559 1800q0 -106 -121 -106q-54 0 -88 22t-33 84v13q0 63 33 87q34 23 88 23t88 -23t33 -87v-13z" />
    <glyph glyph-name="alphatonos" unicode="&#x3ac;" 
d="M512 -19q-156 0 -250 111t-94 314v305q0 201 94 313t250 112q102 0 182 -55t125 -150h56v186h186v-819q0 -101 47 -125t139 -7v-172q-149 -19 -237 27t-98 184h-56q-52 -106 -140 -165t-204 -59zM357 424q0 -266 202 -266q91 0 165 50t151 146v409q-78 97 -152 146
t-164 50q-200 0 -202 -266v-269zM607 1303l141 373h261l-251 -373h-151z" />
    <glyph glyph-name="epsilontonos" unicode="&#x3ad;" 
d="M648 -19q-250 0 -374 81t-123 249v19q1 96 73 166t217 79v41q-119 6 -188 58t-69 141v27q0 150 116 222t348 72q234 0 346 -82t125 -253l-184 -15q-13 100 -77 144t-210 44q-145 0 -211 -34t-66 -110v-26q0 -70 63 -98t210 -28h104v-149h-104q-166 0 -236 -42t-71 -139
v-18q0 -101 74 -144q75 -43 237 -43q162 1 235 49t85 160l184 -13q-13 -184 -134 -271q-120 -87 -370 -87zM514 1303l141 373h261l-251 -373h-151z" />
    <glyph glyph-name="etatonos" unicode="&#x3ae;" 
d="M711 959q-169 0 -339 -196v-763h-186v1117h186v-186h56q41 93 133 149t210 56q158 0 252 -92t94 -247v-1169h-186v1124q0 207 -220 207zM514 1303l141 373h261l-251 -373h-151z" />
    <glyph glyph-name="iotatonos" unicode="&#x3af;" 
d="M559 950h-410v167h596v-758q0 -199 184 -199q104 0 186 35l37 -161q-102 -43 -229 -43q-171 1 -268 99t-96 271v589zM505 1303l141 373h261l-252 -373h-150z" />
    <glyph glyph-name="upsilondieresistonos" unicode="&#x3b0;" 
d="M652 -19q-227 0 -347 109q-119 109 -119 314v713h186v-713q0 -136 66 -196t214 -59q149 0 214 60t65 195v713h186v-713q0 -205 -119 -314t-346 -109zM1080 1409q0 -106 -102 -106t-103 106v13q0 110 102 110q47 0 75 -23t28 -87v-13zM428 1409q0 -106 -102 -106t-103 106
v13q0 62 28 86t75 24q46 0 74 -23t28 -87v-13zM532 1303l86 373h224l-196 -373h-114z" />
    <glyph glyph-name="alpha" unicode="&#x3b1;" 
d="M512 -19q-156 0 -250 111t-94 314v305q0 201 94 313t250 112q102 0 181.5 -55t125.5 -150h56v186h186v-819q0 -101 46.5 -125t139.5 -7v-172q-149 -19 -236.5 27t-98.5 184h-56q-52 -106 -140.5 -165t-203.5 -59zM357 424q0 -266 202 -266q91 0 164.5 49.5t151.5 146.5
v409q-78 97 -151.5 146.5t-164.5 49.5q-202 0 -202 -266v-269z" />
    <glyph glyph-name="beta" unicode="&#x3b2;" 
d="M650 -19q-160 0 -278 53v-406h-186v1439q0 231 126 336t310 105t310 -96t126 -271v-48q0 -101 -48.5 -170.5t-154.5 -88.5v-54q123 -13 190.5 -92t71.5 -185v-95q0 -229 -153.5 -328t-313.5 -99zM635 145q292 0 292 266v79q0 221 -275 221h-95v164h83q235 0 235 199v34
q1 233 -251 233t-252 -269v-856q118 -71 263 -71z" />
    <glyph glyph-name="gamma" unicode="&#x3b3;" 
d="M763 -372h-223l19 409l-421 1080h205l316 -851l309 851h196l-419 -1080z" />
    <glyph glyph-name="delta" unicode="&#x3b4;" 
d="M372 575v-171q0 -136 70 -195.5t209.5 -59.5t209.5 59.5t70 195.5v190q0 101 -74.5 155.5t-288.5 112.5q-196 -93 -196 -287zM242 1182q0 307 404 307h344v-167h-344q-117 0 -174 -27t-57 -101t57 -109t272 -102t294 -153.5t79 -235.5v-190q0 -216 -128.5 -319.5
t-337 -103.5t-337 103.5t-128.5 319.5v171q0 108 66 194.5t189 140.5q-106 48 -152.5 112.5t-46.5 159.5z" />
    <glyph glyph-name="epsilon" unicode="&#x3b5;" 
d="M648 -19q-250 0 -373.5 81t-123.5 249v19q0 95 72.5 165.5t217.5 79.5v41q-119 7 -188 58.5t-69 140.5v27q0 151 115.5 222.5t348.5 71.5t345.5 -82t125.5 -253l-184 -15q-13 101 -77.5 144.5t-209.5 43.5t-211 -33.5t-66 -110.5v-26q0 -69 63 -97.5t210 -28.5h104v-149
h-104q-166 0 -236.5 -42t-70.5 -139v-18q0 -101 74.5 -144t236.5 -43t234.5 48.5t85.5 160.5l184 -13q-13 -184 -133.5 -271t-370.5 -87z" />
    <glyph glyph-name="zeta" unicode="&#x3b6;" 
d="M763 -372h-204v167h232q69 0 109 23.5t40 97.5t-40 97.5t-109 23.5h-158q-236 0 -346 133t-110 301q0 108 44.5 213t121.5 187l270 289l-13 30q-192 -19 -302 78t-145 236l165 36q24 -119 137 -170.5t273 -4.5l376 165l78 -208l-298 -88l-385 -430q-136 -149 -136 -324
q0 -125 65 -200t205 -75h156q151 0 239.5 -68.5t88.5 -214.5t-96 -220t-258 -74z" />
    <glyph glyph-name="eta" unicode="&#x3b7;" 
d="M711 959q-169 0 -339 -196v-763h-186v1117h186v-186h56q41 93 133 149t210 56q158 0 252 -92.5t94 -246.5v-1169h-186v1124q0 207 -220 207z" />
    <glyph glyph-name="theta" unicode="&#x3b8;" 
d="M372 404q0 -255 279.5 -255t279.5 255v266h-559v-266zM372 1078v-240h559v240q0 134 -69 198.5t-210.5 64.5t-210.5 -64.5t-69 -198.5zM651.5 -19q-208.5 0 -337 103.5t-128.5 319.5v674q0 218 129.5 324t338 106t336 -106t127.5 -324v-674q0 -216 -128.5 -319.5
t-337 -103.5z" />
    <glyph glyph-name="iota" unicode="&#x3b9;" 
d="M559 950h-410v167h596v-758q0 -199 184 -199q104 0 186 35l37 -161q-102 -43 -229 -43q-171 1 -268 99t-96 271v589z" />
    <glyph glyph-name="kappa" unicode="&#x3ba;" 
d="M465 508v-508h-186v1117h186v-452h95l358 452h227l-438 -519l432 -598h-212l-367 508h-95z" />
    <glyph glyph-name="lambda" unicode="&#x3bb;" 
d="M352 1499q108 0 215 -60.5t159 -205.5l438 -1233h-203l-313 955l-313 -955h-197l396 1117h60l-13 41q-56 177 -218 177q-86 0 -186 -22l-32 167q99 19 207 19z" />
    <glyph glyph-name="mu" unicode="&#x3bc;" 
d="M570 -19q-123 0 -198 92v-36l19 -409h-223l18 409v1080h186v-752q0 -112 64 -159.5t152 -47.5t150.5 37.5t117.5 102.5v819h187v-819q0 -101 46.5 -125t139.5 -7v-172q-275 -40 -291 192h-37q-47 -80 -127.5 -142.5t-203.5 -62.5z" />
    <glyph glyph-name="nu" unicode="&#x3bd;" 
d="M1164 1117q-62 -562 -416 -1117h-195l-415 1117h195l341 -981q264 481 307 981h183z" />
    <glyph glyph-name="xi" unicode="&#x3be;" 
d="M484 979q0 -141 147 -141h356v-168h-352q-140 0 -201.5 -60.5t-61.5 -145.5v-51q0 -93 62.5 -150.5t198.5 -57.5h194q151 0 239 -68.5t88 -214.5t-95.5 -220t-257.5 -74h-205v167h233q69 0 108.5 23.5t39.5 97.5t-40 97.5t-108 23.5h-196q-205 0 -326 94t-121 254v51
q0 114 82 200t248 99v43q-106 0 -162 56t-56 142q0 151 153 208v43q-168 7 -264 80.5t-127 196.5l165 36q24 -91 153.5 -136t293.5 -21l376 147l78 -208l-400 -99l-104 -58q-138 -76 -138 -186z" />
    <glyph glyph-name="omicron" unicode="&#x3bf;" 
d="M372 404q0 -255 280 -255t279 255v302q0 134 -69 198t-210 64q-140 0 -210 -64t-70 -198v-302zM652 -19q-225 0 -346 109q-120 109 -120 314v302q0 206 121 318t345 112t344 -112t121 -318v-302q0 -205 -120 -314t-345 -109z" />
    <glyph glyph-name="pi" unicode="&#x3c0;" 
d="M763 223v727h-316v-950h-186v950h-187v167h1099v-167h-223v-652q0 -95 45.5 -122t177.5 -10v-172q-410 -38 -410 229z" />
    <glyph glyph-name="rho" unicode="&#x3c1;" 
d="M186 -372v1078q0 218 129.5 324t338 106t336 -106.5t127.5 -323.5v-300q0 -203 -99.5 -314t-263.5 -111q-110 0 -193.5 54t-132.5 151h-56v-558h-186zM931 424v282q0 262 -279.5 262t-279.5 -262v-352q158 -196 335 -196q224 0 224 266z" />
    <glyph glyph-name="sigma1" unicode="&#x3c2;" 
d="M566 -372v167h233q69 0 109 23.5t40 97.5t-40 97.5t-109 23.5h-159q-244 0 -349 113t-105 328v224q0 210 111 322t345 112t339.5 -99t118.5 -303l-173 -12q-7 128 -72 187t-207 59t-209 -60.5t-67 -194.5v-253q0 -134 64.5 -194.5t203.5 -60.5h159q151 0 238.5 -68.5
t87.5 -214.5t-96 -220t-258 -74h-205z" />
    <glyph glyph-name="sigma" unicode="&#x3c3;" 
d="M1043 650v-246q0 -216 -118.5 -319.5t-310 -103.5t-310 103.5t-118.5 319.5v283q0 209 119 319.5t311 110.5h687v-186l-400 32q140 -98 140 -313zM553.5 950q-181.5 0 -181.5 -263v-283q0 -136 60.5 -195.5t181.5 -59.5t181.5 59.5t60.5 195.5v246q0 155 -60.5 227.5
t-242 72.5z" />
    <glyph glyph-name="tau" unicode="&#x3c4;" 
d="M559 223v727h-373v167h950v-167h-391v-652q0 -91 47.5 -119t175.5 -13v-172q-218 -20 -313.5 33t-95.5 196z" />
    <glyph glyph-name="upsilon" unicode="&#x3c5;" 
d="M651.5 -19q-227.5 0 -346.5 109t-119 314v713h186v-713q0 -136 65.5 -195.5t214.5 -59.5t214 59.5t65 195.5v713h186v-713q0 -205 -119 -314t-346.5 -109z" />
    <glyph glyph-name="phi" unicode="&#x3c6;" 
d="M1020 478v116q0 374 -283 374v-832q283 38 283 342zM283 650v-172q0 -304 283 -342v981h179q201 0 324 -128.5t123 -394.5v-116q0 -222 -125 -347t-330 -146v-357h-171v357q-205 20 -329.5 146t-124.5 347v172q0 294 134 499l162 -60q-125 -205 -125 -439z" />
    <glyph glyph-name="chi" unicode="&#x3c7;" 
d="M914 -372l-281 581l-292 -581h-181l397 737l-365 752h184l287 -588l300 588h180l-404 -745l363 -744h-188z" />
    <glyph glyph-name="psi" unicode="&#x3c8;" 
d="M737 -372h-171v357q-236 19 -345 141t-109 315v676h171v-676q0 -134 68 -204.5t215 -83.5v964h171v-964q147 13 215 83.5t68 204.5v676h172v-676q0 -194 -109 -315.5t-346 -140.5v-357z" />
    <glyph glyph-name="omega" unicode="&#x3c9;" 
d="M875 149q145 0 145 274v190q0 147 -37 281t-69 195l162 60q47 -73 81.5 -222t34.5 -314v-190q0 -216 -77.5 -329t-202.5 -113q-84 0 -151.5 55t-97.5 184h-23q-30 -128 -97.5 -183.5t-151.5 -55.5q-125 0 -202 113t-77 329v190q0 166 34.5 314.5t80.5 221.5l162 -60
q-32 -61 -69 -195t-37 -281v-190q0 -274 145 -274q69 0 103.5 50t34.5 168v489h171v-489q0 -117 34.5 -167.5t103.5 -50.5z" />
    <glyph glyph-name="iotadieresis" unicode="&#x3ca;" 
d="M559 950h-410v167h596v-758q0 -199 184 -199q104 0 186 35l37 -161q-102 -43 -229 -43q-171 1 -268 99t-96 271v589zM855 1322q-53 0 -87 22t-33 84v13q0 63 34 87q33 24 87 23q54 0 88 -23t33 -87v-13q0 -61 -34 -84q-35 -22 -88 -22zM427 1322q-53 0 -87 22t-33 84v13
q0 63 34 87q33 24 87 23q54 0 88 -23t33 -87v-13q0 -61 -34 -84q-35 -22 -88 -22z" />
    <glyph glyph-name="upsilondieresis" unicode="&#x3cb;" 
d="M652 -19q-227 0 -347 109q-119 109 -119 314v713h186v-713q0 -136 66 -196t214 -59q149 0 214 60t65 195v713h186v-713q0 -205 -119 -314t-346 -109zM987 1428q-1 -62 -35 -84t-87 -22t-87 22t-33 84v13q0 63 33 87q34 23 88 23t88 -23t33 -87v-13zM559 1428
q-1 -62 -35 -84t-87 -22t-87 22t-33 84v13q0 63 33 87q34 23 88 23t88 -23t33 -87v-13z" />
    <glyph glyph-name="omicrontonos" unicode="&#x3cc;" 
d="M372 404q0 -255 280 -255t279 255v302q0 134 -69 198t-210 64q-140 0 -210 -64t-70 -198v-302zM652 -19q-225 0 -346 109q-120 109 -120 314v302q0 206 121 318t345 112t344 -112t121 -318v-302q0 -205 -120 -314t-345 -109zM514 1303l141 373h261l-251 -373h-151z" />
    <glyph glyph-name="upsilontonos" unicode="&#x3cd;" 
d="M652 -19q-227 0 -347 109q-119 109 -119 314v713h186v-713q0 -136 66 -196t214 -59q149 0 214 60t65 195v713h186v-713q0 -205 -119 -314t-346 -109zM514 1303l141 373h261l-251 -373h-151z" />
    <glyph glyph-name="omegatonos" unicode="&#x3ce;" 
d="M875 149q145 0 145 274v190q0 147 -37 281t-69 195l162 60q47 -73 81 -222t35 -314v-190q0 -216 -78 -329t-202 -113q-84 0 -152 55t-97 184h-23q-30 -128 -97 -184q-68 -55 -152 -55q-125 0 -202 113t-77 329v190q0 167 34 315t81 221l162 -60q-32 -61 -69 -195
t-37 -281v-190q0 -274 145 -274q69 0 104 50q34 50 34 168v489h171v-489q1 -117 35 -167t103 -51zM532 1303l142 373h261l-252 -373h-151z" />
    <glyph glyph-name="IEgravecyrillic" unicode="&#x400;" 
d="M186 0v1489h968v-167h-782v-428h689v-168h-689v-558h782v-168h-968zM709 1676l-363 372h280l253 -372h-170z" />
    <glyph glyph-name="Iocyrillic" unicode="&#x401;" 
d="M186 0v1489h968v-167h-782v-428h689v-168h-689v-558h782v-168h-968zM1043 1800q0 -106 -121 -106q-54 0 -88 22t-33 84v13q0 63 33 87q34 23 88 23t88 -23t33 -87v-13zM614 1800q0 -62 -34 -84t-88 -22q-52 0 -86 22t-34 84v13q0 63 34 87t88 23q54 0 87 -23
q34 -23 33 -87v-13z" />
    <glyph glyph-name="Djecyrillic" unicode="&#x402;" 
d="M335 0v1322h-279v167h931v-167h-466v-354h242q218 0 323.5 -96.5t105.5 -296.5v-182q0 -199 -105.5 -296t-323.5 -97v164q112 0 177 50t65 183v175q0 132 -65 182t-177 50h-242v-804h-186z" />
    <glyph glyph-name="Gjecyrillic" unicode="&#x403;" 
d="M186 0v1489h968v-167h-782v-1322h-186zM523 1676l253 372h280l-363 -372h-170z" />
    <glyph glyph-name="Ecyrillic" unicode="&#x404;" 
d="M149 966q0 542 523 542q244 0 375.5 -127.5t144.5 -376.5l-187 -19q-17 194 -93 275t-250 81t-250.5 -85t-76.5 -290v-72h423v-168h-423v-210q0 -199 76.5 -283t251.5 -84t251 80t91 268l187 -19q-13 -246 -145.5 -371.5t-376.5 -125.5q-521 0 -521 535v450z" />
    <glyph glyph-name="Dzecyrillic" unicode="&#x405;" 
d="M607 1329q-259 0 -259 -206q0 -99 77 -156t319 -127t337 -158q94 -88 94 -256q-1 -214 -153 -326t-333 -111q-181 0 -326 54t-261 197l134 127q154 -209 445 -211q138 0 223 64t85 173q0 108 -73 165q-73 58 -316 128q-244 70 -342 161t-98 272t130 279t299 99
q170 0 311 -55t249 -195l-129 -128q-74 106 -186 158t-227 52z" />
    <glyph glyph-name="Icyrillic" unicode="&#x406;" 
d="M186 0v168h373v1154h-373v167h931v-167h-372v-1154h372v-168h-931z" />
    <glyph glyph-name="Yicyrillic" unicode="&#x407;" 
d="M186 0v168h373v1154h-373v167h931v-167h-372v-1154h372v-168h-931zM987 1800q0 -106 -121 -106q-54 0 -88 22t-33 84v13q0 63 33 87q34 23 88 23t88 -23t33 -87v-13zM559 1800q0 -106 -121 -106q-54 0 -88 22t-33 84v13q0 63 33 87q34 23 88 23t88 -23t33 -87v-13z" />
    <glyph glyph-name="Jecyrillic" unicode="&#x408;" 
d="M614 149q317 0 317 333v840h-372v167h558v-1005q0 -244 -129 -374t-374 -129q-245 0 -367 121t-135 376l186 21q13 -209 78 -279t238 -71z" />
    <glyph glyph-name="Ljecyrillic" unicode="&#x409;" 
d="M737 168h82q91 0 146 50t55 182v172q0 132 -55 182t-146 50h-82v-636zM737 1489v-521h82q184 0 278.5 -99.5t94.5 -293.5v-182q0 -194 -93.5 -293.5t-277.5 -99.5h-255v1322h-222l-18 -1017q-2 -169 -73 -242.5t-169 -73.5q-50 -3 -119 18l37 170q43 -15 67 -15
q85 -5 87 158l23 1169h558z" />
    <glyph glyph-name="Njecyrillic" unicode="&#x40a;" 
d="M1192 393q0 -393 -352 -393h-274v726h-283v-726h-171v1489h171v-595h283v595h171v-521h101q175 0 264.5 -99.5t89.5 -293.5v-182zM737 168h101q84 0 133 50t49 182v172q0 132 -49 182t-133 50h-101v-636z" />
    <glyph glyph-name="Tshecyrillic" unicode="&#x40b;" 
d="M503 0h-186v1322h-280v167h931v-167h-465v-410h260q212 0 320.5 -99.5t108.5 -293.5v-519h-187v516q0 127 -54.5 179.5t-187.5 52.5h-260v-748z" />
    <glyph glyph-name="Kjecyrillic" unicode="&#x40c;" 
d="M372 707v-707h-186v1489h186v-614h64l575 614h216l-639 -685l633 -804h-223l-557 707h-69zM566 1676l253 372h279l-363 -372h-169z" />
    <glyph glyph-name="Igravecyrillic" unicode="&#x40d;" 
d="M950 0v1255l-498 -1255h-266v1489h168v-1282l508 1282h255v-1489h-167zM635 1676l-363 372h279l253 -372h-169z" />
    <glyph glyph-name="Ushortcyrillic" unicode="&#x40e;" 
d="M361 -2q-49 0 -160 19l32 167q94 -20 143 -18q89 0 137 45q47 46 85 141l7 20h-71l-452 1117h186l387 -990l386 990h178l-482 -1200q-67 -167 -163 -229t-213 -62zM652 1663q-164 -1 -279 83t-116 289l186 19q2 -132 47 -188t162 -56t162 56t46 188l186 -19
q-2 -205 -116 -289t-278 -83z" />
    <glyph glyph-name="Dzhecyrillic" unicode="&#x40f;" 
d="M559 -279v279h-373v1489h186v-1321h559v1321h186v-1489h-372v-279h-186z" />
    <glyph glyph-name="Acyrillic" unicode="&#x410;" 
d="M1033 0l-128 428h-512l-129 -428h-190l481 1489h195l481 -1489h-198zM855 596l-205 683l-207 -683h412z" />
    <glyph glyph-name="Becyrillic" unicode="&#x411;" 
d="M372 168h306q151 0 215 53t64 181v60q0 125 -64 178t-215 53h-306v-525zM186 0v1489h885v-167h-699v-466h343q205 0 316.5 -94.5t111.5 -271.5v-97q0 -188 -110.5 -290.5t-315.5 -102.5h-531z" />
    <glyph glyph-name="Vecyrillic" unicode="&#x412;" 
d="M372 168h332q141 0 206 54t66 178v60q0 123 -66 178t-206 55h-332v-525zM372 856h295q133 0 193 50t60 157v52q0 107 -61 157t-192 50h-295v-466zM186 0v1489h462q234 1 344 -85t110 -265v-83q0 -96 -54 -160t-149 -81v-54q121 -11 192 -91t71 -206v-84q0 -194 -123 -287
t-378 -93h-475z" />
    <glyph glyph-name="Gecyrillic" unicode="&#x413;" 
d="M186 0v1489h968v-167h-782v-1322h-186z" />
    <glyph glyph-name="Decyrillic" unicode="&#x414;" 
d="M205 0v-279h-186v447h117q121 93 125 407l5 914h814v-1321h186v-447h-186v279h-875zM341 168h553v1154h-449l-6 -758q-2 -127 -18.5 -209.5t-79.5 -140.5v-46z" />
    <glyph glyph-name="Iecyrillic" unicode="&#x415;" 
d="M186 0v1489h968v-167h-782v-428h689v-168h-689v-558h782v-168h-968z" />
    <glyph glyph-name="Zhecyrillic" unicode="&#x416;" 
d="M570 866v623h167v-623h78l302 623h177l-344 -685l348 -804h-186l-297 717h-78v-717h-167v717h-78l-298 -717h-187l349 804l-345 685h177l304 -623h78z" />
    <glyph glyph-name="Zecyrillic" unicode="&#x417;" 
d="M654 -19q-268 0 -389.5 101.5t-134.5 321.5l187 19q15 -151 87.5 -214.5t241.5 -63.5t245.5 59.5t76.5 199.5v50q0 138 -71.5 195.5t-244.5 57.5h-187v168h187q151 0 215 45.5t64 151.5v60q0 115 -68 163.5t-218 48.5t-214 -56.5t-77 -192.5l-186 18q13 205 125.5 300
t338.5 95t355.5 -87.5t129.5 -288.5v-60q0 -112 -77 -177t-215 -74v-54q166 -13 247.5 -102.5t81.5 -210.5v-50q0 -201 -116 -312t-384 -111z" />
    <glyph glyph-name="Iicyrillic" unicode="&#x418;" 
d="M950 0v1255l-498 -1255h-266v1489h168v-1282l508 1282h255v-1489h-167z" />
    <glyph glyph-name="Iishortcyrillic" unicode="&#x419;" 
d="M950 0v1255l-498 -1255h-266v1489h168v-1282l508 1282h255v-1489h-167zM670 1663q-164 -1 -278 83t-116 289l186 19q2 -132 46 -188t162 -56q117 0 162 56t47 188l186 -19q-2 -205 -116 -289q-115 -83 -279 -83z" />
    <glyph glyph-name="Kacyrillic" unicode="&#x41a;" 
d="M372 707v-707h-186v1489h186v-614h64l575 614h216l-639 -685l633 -804h-223l-557 707h-69z" />
    <glyph glyph-name="Elcyrillic" unicode="&#x41b;" 
d="M130 149q86 0 126 75.5t42 237.5l5 1027h814v-1489h-186v1322h-449l-5 -884q-2 -238 -90.5 -347.5t-239.5 -109.5q-79 0 -153 23l32 164q63 -19 104 -19z" />
    <glyph glyph-name="Emcyrillic" unicode="&#x41c;" 
d="M298 0h-168v1489h252l275 -895l274 895h242v-1489h-168v1192l-264 -820h-179l-264 818v-1190z" />
    <glyph glyph-name="Encyrillic" unicode="&#x41d;" 
d="M186 0v1489h186v-595h559v595h186v-1489h-186v726h-559v-726h-186z" />
    <glyph glyph-name="Ocyrillic" unicode="&#x41e;" 
d="M652 149q171 0 244 84t72 283v450q0 203 -72 289q-73 86 -244 86t-244 -86t-73 -289v-450q0 -199 73 -283t244 -84zM652 -19q-246 0 -375 137q-128 137 -128 398v450q0 264 129 403t374 139q246 0 374 -139t128 -403v-450q0 -261 -128 -398t-374 -137z" />
    <glyph glyph-name="Pecyrillic" unicode="&#x41f;" 
d="M186 0v1489h931v-1489h-186v1322h-559v-1322h-186z" />
    <glyph glyph-name="Ercyrillic" unicode="&#x420;" 
d="M372 685h335q151 0 216 53q64 53 64 180v171q0 127 -64 180t-216 53h-335v-637zM1173 914q0 -393 -466 -393h-335v-521h-186v1489h523q464 0 464 -392v-183z" />
    <glyph glyph-name="Escyrillic" unicode="&#x421;" 
d="M149 966q0 542 523 542q257 0 381 -120t139 -384l-187 -19q-19 201 -90 278q-73 77 -251 77t-253 -84q-75 -85 -76 -290v-450q-1 -201 75 -284t254 -83t251 75q72 75 90 273l187 -19q-15 -261 -139 -379t-383 -118q-521 0 -521 535v450z" />
    <glyph glyph-name="Tecyrillic" unicode="&#x422;" 
d="M559 0v1322h-466v167h1117v-167h-465v-1322h-186z" />
    <glyph glyph-name="Ucyrillic" unicode="&#x423;" 
d="M392 166q73 0 120.5 45.5t85.5 140.5l7 20h-71l-452 1117h186l387 -990l386 990h178l-482 -1200q-67 -166 -163 -228.5t-213 -62.5q-63 0 -160 19l32 167q86 -18 159 -18z" />
    <glyph glyph-name="Efcyrillic" unicode="&#x424;" 
d="M499 335h69v819h-69q-119 0 -169.5 -76t-50.5 -261v-152q0 -179 50.5 -254.5t169.5 -75.5zM806 1154h-71v-819h71q117 0 167.5 75.5t50.5 254.5v152q0 184 -50.5 260.5t-167.5 76.5zM806 168h-61v-187h-186v187h-60q-210 0 -308 137.5t-98 359.5v152q0 225 98 365
t308 140h60v186h186v-186h61q210 0 307 -139.5t97 -365.5v-152q0 -222 -97 -359.5t-307 -137.5z" />
    <glyph glyph-name="Khacyrillic" unicode="&#x425;" 
d="M1050 0l-397 611l-398 -611h-218l520 760l-473 729h214l376 -580l380 580h216l-499 -728l493 -761h-214z" />
    <glyph glyph-name="Tsecyrillic" unicode="&#x426;" 
d="M1024 -279v279h-838v1489h186v-1321h466v1321h186v-1321h186v-447h-186z" />
    <glyph glyph-name="Checyrillic" unicode="&#x427;" 
d="M1117 1489v-1489h-186v521h-279q-253 0 -359.5 89.5t-106.5 303.5v575h186v-571q0 -127 64.5 -180t215.5 -53h279v804h186z" />
    <glyph glyph-name="Shacyrillic" unicode="&#x428;" 
d="M112 0v1489h171v-1329h283v1329h171v-1329h283v1329h172v-1489h-1080z" />
    <glyph glyph-name="Shchacyrillic" unicode="&#x429;" 
d="M1275 -279h-180v279h-983v1489h171v-1329h283v1329h171v-1329h283v1329h172v-1329h83v-439z" />
    <glyph glyph-name="Hardsigncyrillic" unicode="&#x42a;" 
d="M559 168h223q132 0 187 53t55 179v172q0 127 -55 179.5t-187 52.5h-223v-636zM784 0h-412v1322h-353v167h540v-521h223q222 0 325 -94t103 -299v-182q0 -205 -102 -299t-324 -94z" />
    <glyph glyph-name="Yericyrillic" unicode="&#x42b;" 
d="M320 160h108q91 0 146 52t55 188v172q0 136 -55 188t-146 52h-108v-652zM983 0v1489h171v-1489h-171zM149 0v1489h171v-521h108q192 0 282.5 -95t90.5 -298v-182q0 -203 -90.5 -298t-280.5 -95h-281z" />
    <glyph glyph-name="Softsigncyrillic" unicode="&#x42c;" 
d="M372 168h335q127 0 203.5 50t76.5 182v172q0 132 -75.5 182t-204.5 50h-335v-636zM186 0v1489h186v-521h335q240 0 353 -95t113 -298v-182q0 -203 -112.5 -298t-351.5 -95h-523z" />
    <glyph glyph-name="Ereversedcyrillic" unicode="&#x42d;" 
d="M684 -19q-254 0 -387 121t-148 376l186 19q17 -188 93 -268t250 -80t250.5 84t76.5 283v210h-497v168h497v72q0 205 -76.5 290t-250.5 85t-250 -81t-93 -275l-186 19q15 261 148 382.5t387 121.5t381 -131t127 -411v-450q0 -276 -127 -405.5t-381 -129.5z" />
    <glyph glyph-name="IUcyrillic" unicode="&#x42e;" 
d="M828.5 141q104.5 0 148 73t43.5 246v562q0 177 -43.5 250.5t-148 73.5t-148 -73.5t-43.5 -250.5v-562q0 -173 43.5 -246t148 -73zM830 -19q-189 0 -277 131.5t-88 347.5v274h-182v-734h-171v1489h171v-603h182v136q0 222 88.5 354t276.5 132t275 -132t87 -354v-562
q0 -216 -86.5 -347.5t-275.5 -131.5z" />
    <glyph glyph-name="IAcyrillic" unicode="&#x42f;" 
d="M931 577h-270l-361 -577h-224l380 583q-186 19 -274.5 116.5t-88.5 281.5v116q0 203 112.5 297.5t351.5 94.5h560v-1489h-186v577zM559 741h372v581h-372q-151 0 -215.5 -51.5t-64.5 -173.5v-116q0 -130 64.5 -185t215.5 -55z" />
    <glyph glyph-name="acyrillic" unicode="&#x430;" 
d="M594 1136q184 0 307 -83t123 -256v-499q0 -101 56 -126t167 -6v-172q-115 -17 -216 16t-111 176h-37q-52 -86 -157 -146q-106 -60 -240 -59q-134 -1 -245 75t-111 234t96 241q96 84 225 83h387v161q0 89 -60 141t-182 52t-182 -36q-61 -36 -96 -161l-163 44
q65 321 439 321zM503 475q-186 0 -186 -164q0 -170 206 -170t315 155v179h-335z" />
    <glyph glyph-name="becyrillic" unicode="&#x431;" 
d="M650 149q151 0 214 64t63 193v192q0 119 -63 178.5t-214 59.5t-214.5 -59.5t-63.5 -178.5v-192q0 -128 63.5 -192.5t214.5 -64.5zM651.5 -19q-208.5 0 -337 105.5t-128.5 334.5v542q0 229 129.5 339.5t323.5 144.5l396 69l28 -161l-396 -68q-156 -26 -234.5 -105.5
t-78.5 -252.5v-61h43q30 56 108 96.5t214 40.5q197 0 297.5 -104t100.5 -283v-208q0 -216 -128.5 -322.5t-337 -106.5z" />
    <glyph glyph-name="vecyrillic" unicode="&#x432;" 
d="M372 162h272q184 0 253 36.5t69 131.5v18q0 93 -65 127.5t-242 34.5h-287v-348zM372 659h287q156 0 215 27t59 102v26q0 80 -61.5 110.5t-227.5 30.5h-272v-296zM1152 311q0 -311 -508 -311h-458v1117h458q240 0 357.5 -70t117.5 -215v-26q0 -89 -69 -140.5t-188 -58.5
v-41q145 -9 217.5 -76t72.5 -160v-19z" />
    <glyph glyph-name="gecyrillic" unicode="&#x433;" 
d="M279 0v1117h857v-167h-671v-950h-186z" />
    <glyph glyph-name="decyrillic" unicode="&#x434;" 
d="M261 0v-279h-187v447h136q103 77 107 314l5 635h721v-949h186v-447h-186v279h-782zM421 168h435v782h-355l-6 -479q-4 -171 -74 -257v-46z" />
    <glyph glyph-name="iecyrillic" unicode="&#x435;" 
d="M372 706v-45h559v28q0 151 -70 220q-69 69 -209 69t-210 -66t-70 -206zM186 406v300q0 216 130 323t338 107q209 0 336 -109t127 -334v-172h-745v-117q0 -140 70 -202t207 -62t198 37t93 121l181 -52q-51 -140 -153 -202t-320 -62t-340 106q-122 107 -122 318z" />
    <glyph glyph-name="zhecyrillic" unicode="&#x436;" 
d="M568 680v437h167v-437h58l274 437h190l-330 -501l324 -616h-190l-268 531h-58v-531h-167v531h-58l-268 -531h-190l324 614l-329 503h189l274 -437h58z" />
    <glyph glyph-name="zecyrillic" unicode="&#x437;" 
d="M660 -19q-265 0 -379.5 83t-129.5 275l184 13q15 -123 85 -166t236 -43t238 37.5t72 149.5v18q0 106 -68.5 143.5t-238.5 37.5h-104v149h104q149 0 211.5 26t62.5 100v26q0 86 -65.5 115t-212.5 29t-210 -38.5t-76 -149.5l-185 15q13 181 120.5 258t333.5 77t353.5 -68
t127.5 -226v-27q0 -89 -69 -140t-188 -59v-41q145 -9 217.5 -80t72.5 -165v-19q0 -156 -113.5 -243t-378.5 -87z" />
    <glyph glyph-name="iicyrillic" unicode="&#x438;" 
d="M940 0v897l-506 -897h-248v1117h177v-912l518 912h236v-1117h-177z" />
    <glyph glyph-name="iishortcyrillic" unicode="&#x439;" 
d="M940 0v897l-506 -897h-248v1117h177v-912l518 912h236v-1117h-177zM652 1290q-164 0 -279 84t-116 289l186 18q2 -132 47 -188t162 -56t162 56t46 188l186 -18q-2 -205 -116 -289t-278 -84z" />
    <glyph glyph-name="kacyrillic" unicode="&#x43a;" 
d="M465 508v-508h-186v1117h186v-452h95l358 452h227l-438 -519l432 -598h-212l-367 508h-95z" />
    <glyph glyph-name="elcyrillic" unicode="&#x43b;" 
d="M168 149q93 0 129 68t38 245l6 655h776v-1117h-186v950h-412l-5 -512q-2 -238 -90.5 -347.5t-239.5 -109.5q-54 0 -134 23l32 164q59 -19 86 -19z" />
    <glyph glyph-name="emcyrillic" unicode="&#x43c;" 
d="M335 0h-167v1117h288l201 -663l199 663h280v-1117h-168l-4 933l-214 -654h-197l-218 659v-938z" />
    <glyph glyph-name="encyrillic" unicode="&#x43d;" 
d="M186 0v1117h186v-391h559v391h186v-1117h-186v559h-559v-559h-186z" />
    <glyph glyph-name="ocyrillic" unicode="&#x43e;" 
d="M372 404q0 -255 280 -255t279 255v302q0 134 -69 198t-210 64q-140 0 -210 -64t-70 -198v-302zM652 -19q-225 0 -346 109q-120 109 -120 314v302q0 206 121 318t345 112t344 -112t121 -318v-302q0 -205 -120 -314t-345 -109z" />
    <glyph glyph-name="pecyrillic" unicode="&#x43f;" 
d="M186 0v1117h931v-1117h-186v950h-559v-950h-186z" />
    <glyph glyph-name="ercyrillic" unicode="&#x440;" 
d="M637 -19q-134 0 -265 53v-406h-186v1489h186v-186h56q47 95 135 150t191 55q168 0 266 -115t97 -310v-303q0 -197 -129 -312t-351 -115zM640 145q151 -1 221 63t70 203v302q0 128 -53 187q-52 59 -158 59t-186 -47t-162 -149v-547q117 -71 268 -71z" />
    <glyph glyph-name="escyrillic" unicode="&#x441;" 
d="M678 149q267 0 277 190l183 -11q-26 -347 -460 -347q-244 0 -368 107t-124 316v302q0 212 124 321t353 109q446 0 475 -384l-183 -11q-14 227 -281 227q-153 0 -227 -64t-75 -198v-302q0 -255 306 -255z" />
    <glyph glyph-name="tecyrillic" unicode="&#x442;" 
d="M559 0v950h-429v167h1043v-167h-428v-950h-186z" />
    <glyph glyph-name="ucyrillic" unicode="&#x443;" 
d="M354 -220q76 0 145 51t104 169h-69l-396 1117h203l314 -961l313 961h196l-410 -1154q-121 -347 -434 -347q-70 0 -175 21l32 166q101 -23 177 -23z" />
    <glyph glyph-name="efcyrillic" unicode="&#x444;" 
d="M1020 665q0 294 -244 294h-48v-801h48q244 0 244 291v216zM283 449q0 -291 244 -291h48v801h-48q-244 0 -244 -294v-216zM797 0h-60v-372h-171v372h-60q-184 0 -289 118t-105 327v227q0 209 105 327t289 118h60v372h171v-372h60q184 0 289.5 -118t105.5 -327v-227
q0 -209 -105.5 -327t-289.5 -118z" />
    <glyph glyph-name="khacyrillic" unicode="&#x445;" 
d="M929 0l-289 426l-275 -426h-207l391 560l-378 557h209l277 -410l281 410h207l-395 -547l388 -570h-209z" />
    <glyph glyph-name="tsecyrillic" unicode="&#x446;" 
d="M1033 -279v279h-847v1117h186v-949h466v949h186v-949h186v-447h-177z" />
    <glyph glyph-name="checyrillic" unicode="&#x447;" 
d="M149 765v352h186v-348q0 -143 71 -196.5t206 -55.5t226 55v545h186v-1117h-186v393q-96 -39 -242 -39q-227 0 -337 101.5t-110 309.5z" />
    <glyph glyph-name="shacyrillic" unicode="&#x448;" 
d="M112 0v1117h171v-964h283v964h171v-964h283v964h172v-1117h-1080z" />
    <glyph glyph-name="shchacyrillic" unicode="&#x449;" 
d="M1294 -279h-171v279h-1011v1117h171v-964h283v964h171v-964h283v964h172v-949h102v-447z" />
    <glyph glyph-name="hardsigncyrillic" unicode="&#x44a;" 
d="M465 168h280q127 0 184.5 40t57.5 129v78q0 88 -58 127t-184 39h-280v-413zM784 0h-505v950h-279v167h465v-372h317q184 0 287.5 -87.5t103.5 -242.5v-78q0 -158 -103.5 -247.5t-285.5 -89.5z" />
    <glyph glyph-name="yericyrillic" unicode="&#x44b;" 
d="M320 160h127q106 0 153.5 42t47.5 135v78q0 91 -47.5 132t-153.5 41h-127v-428zM983 0v1117h171v-1117h-171zM149 0v1117h171v-372h164q156 0 245.5 -87.5t89.5 -242.5v-78q0 -158 -88.5 -247.5t-244.5 -89.5h-337z" />
    <glyph glyph-name="softsigncyrillic" unicode="&#x44c;" 
d="M372 168h373q127 0 184.5 40t57.5 129v78q0 88 -58 127t-184 39h-373v-413zM186 0v1117h186v-372h410q184 0 287.5 -87.5t103.5 -242.5v-78q0 -158 -103.5 -247.5t-285.5 -89.5h-598z" />
    <glyph glyph-name="ereversedcyrillic" unicode="&#x44d;" 
d="M166 752q27 384 474 384q229 0 353 -109t124 -321v-302q0 -209 -123.5 -316t-353.5 -107q-448 0 -474 347l182 11q12 -190 278 -190q305 0 305 255v99h-423v149h423v54q1 262 -293 262q-144 0 -213 -56t-77 -171z" />
    <glyph glyph-name="iucyrillic" unicode="&#x44e;" 
d="M828.5 149q104.5 0 150 51t45.5 167v376q0 119 -45.5 172t-150 53t-150 -53t-45.5 -172v-376q0 -115 45.5 -166.5t150 -51.5zM830 -19q-189 0 -277 104.5t-88 281.5v173h-167v-540h-186v1117h186v-410h167v36q0 179 88.5 286t277.5 107t275 -107t86 -286v-376
q0 -177 -86.5 -281.5t-275.5 -104.5z" />
    <glyph glyph-name="iacyrillic" unicode="&#x44f;" 
d="M931 391h-181l-352 -391h-229l352 393q-162 7 -248.5 94.5t-86.5 244.5v41q0 166 96 255t275 89h560v-1117h-186v391zM559 555h372v395h-372q-99 0 -143 -39.5t-44 -130.5v-41q0 -97 44 -140.5t143 -43.5z" />
    <glyph glyph-name="iegravecyrillic" unicode="&#x450;" 
d="M372 706v-45h559v28q0 151 -70 220q-69 69 -209 69t-210 -66t-70 -206zM186 406v300q0 216 130 323t338 107q209 0 336 -109t127 -334v-172h-745v-117q0 -140 70 -202t207 -62t198 37t93 121l181 -52q-51 -140 -153 -202t-320 -62t-340 106q-122 107 -122 318zM655 1303
l-363 373h280l253 -373h-170z" />
    <glyph glyph-name="iocyrillic" unicode="&#x451;" 
d="M372 706v-45h559v28q0 151 -70 220q-69 69 -209 69t-210 -66t-70 -206zM186 406v300q0 216 130 323t338 107q209 0 336 -109t127 -334v-172h-745v-117q0 -140 70 -202t207 -62t198 37t93 121l181 -52q-51 -140 -153 -202t-320 -62t-340 106q-122 107 -122 318zM989 1428
q-1 -62 -35 -84t-87 -22t-87 22t-33 84v13q0 63 33 87q34 23 88 23t88 -23t33 -87v-13zM438 1322q-52 0 -86 22t-34 84v13q0 63 34 87t88 23q54 0 87 -23q34 -23 33 -87v-13q0 -61 -34 -84q-35 -22 -88 -22z" />
    <glyph glyph-name="djecyrillic" unicode="&#x452;" 
d="M711 866q-174 0 -339 -196v-670h-186v1173h-186v149h186v167h186v-167h373v-149h-373v-335h56q41 95 133 150t210 55q160 0 253 -91.5t93 -247.5v-715q0 -192 -107 -284t-269 -92q-100 0 -236 41l37 178q112 -41 197 -41q84 0 138 51.5t54 170.5v646q0 101 -57 154
t-163 53z" />
    <glyph glyph-name="gjecyrillic" unicode="&#x453;" 
d="M279 0v1117h857v-167h-671v-950h-186zM579 1303l253 373h280l-364 -373h-169z" />
    <glyph glyph-name="ecyrillic" unicode="&#x454;" 
d="M186 404v302q0 212 124 321t353 109q448 0 475 -384l-183 -11q-14 227 -281 227q-153 0 -227.5 -64t-74.5 -198v-54h423v-149h-423v-99q0 -255 306 -255q267 0 277 190l183 -11q-26 -347 -460 -347q-244 0 -368 107t-124 316z" />
    <glyph glyph-name="dzecyrillic" unicode="&#x455;" 
d="M684 -19q-316 0 -535 172l84 147q186 -151 434 -151q97 0 185 30t88 118t-72 122t-272 58t-305 96t-105 233q0 162 127 246t277 84q279 0 497 -172l-83 -147q-188 151 -397 151q-89 0 -163 -34t-74 -116t68 -117t271 -59q414 -50 416 -324q1 -175 -141 -256t-300 -81z
" />
    <glyph glyph-name="icyrillic" unicode="&#x456;" 
d="M186 0v168h373v782h-373v167h559v-949h372v-168h-931zM810 1428q0 -62 -44 -84t-115 -22q-70 0 -114 22t-44 84v13q0 63 44 87t115 23q70 0 114 -23t44 -87v-13z" />
    <glyph glyph-name="yicyrillic" unicode="&#x457;" 
d="M186 0v168h373v782h-373v167h559v-949h372v-168h-931zM987 1428q-1 -62 -35 -84t-87 -22t-87 22t-33 84v13q0 63 33 87q34 23 88 23t88 -23t33 -87v-13zM559 1428q-1 -62 -35 -84t-87 -22t-87 22t-33 84v13q0 63 33 87q34 23 88 23t88 -23t33 -87v-13z" />
    <glyph glyph-name="jecyrillic" unicode="&#x458;" 
d="M745 950h-522v167h708v-1128q1 -192 -129 -284t-306 -92t-308 41l37 178q111 -39 241 -40q277 -3 279 221v937zM831 1322q-69 0 -113 22t-44 84v13q0 63 44 87t114 23q70 0 115 -23q44 -23 43 -87v-13q0 -61 -44 -84q-45 -22 -115 -22z" />
    <glyph glyph-name="ljecyrillic" unicode="&#x459;" 
d="M1039 423q0 165 -164 165h-119v-428h119q84 2 124 43t40 127v93zM112 168q35 0 63 26t30 98l22 825h529v-372h156q138 0 218 -86.5t80 -234.5v-115q0 -143 -80 -226t-216 -83h-329v950h-190l-19 -682q-4 -147 -79 -215t-182 -68q-64 0 -132 22l37 179q57 -18 92 -18z" />
    <glyph glyph-name="njecyrillic" unicode="&#x45a;" 
d="M283 566v-566h-171v1117h171v-391h283v391h171v-372h157q138 0 218 -86.5t80 -234.5v-115q0 -143 -80.5 -226t-215.5 -83h-330v566h-283zM856 160q164 0 164 149v115q0 84 -40 124t-124 40h-119v-428h119z" />
    <glyph glyph-name="tshecyrillic" unicode="&#x45b;" 
d="M711 866q-169 0 -339 -196v-670h-186v1173h-186v149h186v167h186v-167h373v-149h-373v-335h56q41 95 133 150t210 55q160 1 253 -91t93 -248v-704h-186v659q0 207 -220 207z" />
    <glyph glyph-name="kjecyrillic" unicode="&#x45c;" 
d="M465 508v-508h-186v1117h186v-452h95l358 452h227l-438 -519l432 -598h-212l-367 508h-95zM557 1303l253 373h279l-363 -373h-169z" />
    <glyph glyph-name="igravecyrillic" unicode="&#x45d;" 
d="M940 0v897l-506 -897h-248v1117h177v-912l518 912h236v-1117h-177zM653 1303l-363 373h280l253 -373h-170z" />
    <glyph glyph-name="ushortcyrillic" unicode="&#x45e;" 
d="M354 -220q76 0 145 51t104 169h-69l-396 1117h203l314 -961l313 961h196l-410 -1154q-121 -347 -434 -347q-70 0 -175 21l32 166q101 -23 177 -23zM652 1290q-164 0 -279 84t-116 289l186 18q2 -132 47 -188t162 -56t162 56t46 188l186 -18q-2 -205 -116 -289t-278 -84z
" />
    <glyph glyph-name="dzhecyrillic" unicode="&#x45f;" 
d="M562 -279v279h-376v1117h186v-949h559v949h186v-1117h-376v-279h-179z" />
    <glyph glyph-name="Gheupturncyrillic" unicode="&#x490;" 
d="M186 0v1489h782v280h186v-447h-782v-1322h-186z" />
    <glyph glyph-name="gheupturncyrillic" unicode="&#x491;" 
d="M279 0v1117h680v279h177v-446h-671v-950h-186z" />
    <glyph glyph-name="Wgrave" unicode="&#x1e80;" 
d="M871 0l-219 888l-220 -888h-186l-201 1489h184l134 -1215l196 843h195l196 -843l134 1215h175l-201 -1489h-187zM672 1676l-363 372h279l254 -372h-170z" />
    <glyph glyph-name="wgrave" unicode="&#x1e81;" 
d="M815 0l-163 728l-157 -728h-212l-210 1117h178l142 -981l145 795h220l158 -765l136 951h179l-211 -1117h-205zM653 1303l-363 373h280l253 -373h-170z" />
    <glyph glyph-name="Wacute" unicode="&#x1e82;" 
d="M871 0l-219 888l-220 -888h-186l-201 1489h184l134 -1215l196 843h195l196 -843l134 1215h175l-201 -1489h-187zM458 1676l253 372h279l-363 -372h-169z" />
    <glyph glyph-name="wacute" unicode="&#x1e83;" 
d="M815 0l-163 728l-157 -728h-212l-210 1117h178l142 -981l145 795h220l158 -765l136 951h179l-211 -1117h-205zM439 1303l254 373h279l-363 -373h-170z" />
    <glyph glyph-name="Wdieresis" unicode="&#x1e84;" 
d="M871 0l-219 888l-220 -888h-186l-201 1489h184l134 -1215l196 843h195l196 -843l134 1215h175l-201 -1489h-187zM987 1800q0 -106 -121 -106q-54 0 -88 22t-33 84v13q0 63 33 87q34 23 88 23t88 -23t33 -87v-13zM559 1800q0 -106 -121 -106q-54 0 -88 22t-33 84v13
q0 63 33 87q34 23 88 23t88 -23t33 -87v-13z" />
    <glyph glyph-name="wdieresis" unicode="&#x1e85;" 
d="M815 0l-163 728l-157 -728h-212l-210 1117h178l142 -981l145 795h220l158 -765l136 951h179l-211 -1117h-205zM987 1428q-1 -62 -35 -84t-87 -22t-87 22t-33 84v13q0 63 33 87q34 23 88 23t88 -23t33 -87v-13zM559 1428q-1 -62 -35 -84t-87 -22t-87 22t-33 84v13
q0 63 33 87q34 23 88 23t88 -23t33 -87v-13z" />
    <glyph glyph-name="Ygrave" unicode="&#x1ef2;" 
d="M745 0h-186v559l-533 930h209l428 -763l408 763h204l-530 -930v-559zM653 1676l-363 372h280l253 -372h-170z" />
    <glyph glyph-name="ygrave" unicode="&#x1ef3;" 
d="M354 -220q76 0 145 51t104 169h-69l-396 1117h203l314 -961l313 961h196l-410 -1154q-121 -347 -434 -347q-70 0 -175 21l32 166q101 -23 177 -23zM653 1303l-363 373h280l253 -373h-170z" />
    <glyph glyph-name="uni2000" unicode="&#x2000;" horiz-adv-x="651" 
 />
    <glyph glyph-name="uni2001" unicode="&#x2001;" 
 />
    <glyph glyph-name="uni2002" unicode="&#x2002;" horiz-adv-x="651" 
 />
    <glyph glyph-name="uni2003" unicode="&#x2003;" 
 />
    <glyph glyph-name="uni2004" unicode="&#x2004;" horiz-adv-x="433" 
 />
    <glyph glyph-name="uni2005" unicode="&#x2005;" horiz-adv-x="325" 
 />
    <glyph glyph-name="uni2007" unicode="&#x2007;" 
 />
    <glyph glyph-name="uni2009" unicode="&#x2009;" horiz-adv-x="215" 
 />
    <glyph glyph-name="uni200A" unicode="&#x200a;" horiz-adv-x="130" 
 />
    <glyph glyph-name="uni200B" unicode="&#x200b;" horiz-adv-x="0" 
 />
    <glyph glyph-name="endash" unicode="&#x2013;" 
d="M186 559v186h931v-186h-931z" />
    <glyph glyph-name="emdash" unicode="&#x2014;" 
d="M0 559v186h1303v-186h-1303z" />
    <glyph glyph-name="horizontalbar" unicode="&#x2015;" 
d="M0 559v186h1303v-186h-1303z" />
    <glyph glyph-name="underscoredbl" unicode="&#x2017;" 
d="M130 0v186h1043v-186h-1043zM130 -372v186h1043v-186h-1043z" />
    <glyph glyph-name="quoteright" unicode="&#x2019;" 
d="M354 745l205 744h370l-419 -744h-156z" />
    <glyph glyph-name="quotesinglbase" unicode="&#x201a;" 
d="M372 -372l168 744h370l-381 -744h-157z" />
    <glyph glyph-name="quotereversed" unicode="&#x201b;" 
d="M735 745l-418 744h370l205 -744h-157z" />
    <glyph glyph-name="quotedblleft" unicode="&#x201c;" 
d="M95 745l419 744h138l-205 -744h-352zM653 745l419 744h138l-205 -744h-352z" />
    <glyph glyph-name="quotedblright" unicode="&#x201d;" 
d="M93 745l205 744h352l-419 -744h-138zM652 745l204 744h352l-419 -744h-137z" />
    <glyph glyph-name="quotedblbase" unicode="&#x201e;" 
d="M-93 -372l205 744h352l-419 -744h-138zM465 -372l205 744h352l-419 -744h-138z" />
    <glyph glyph-name="dagger" unicode="&#x2020;" 
d="M559 -372v1322h-187l-74 -391h-149l56 558h348l-13 372h223l-13 -372h348l56 -558h-149l-74 391h-186v-1322h-186z" />
    <glyph glyph-name="daggerdbl" unicode="&#x2021;" 
d="M559 168v782h-187l-74 -261h-149l56 428h348l-13 372h223l-13 -372h348l56 -428h-149l-74 261h-186v-782h186l74 260h149l-56 -428h-348l13 -372h-223l13 372h-348l-56 428h149l74 -260h187z" />
    <glyph glyph-name="bullet" unicode="&#x2022;" 
d="M651 439q-138 0 -224 57t-86 178v134q0 123 86.5 181.5t226 58.5t225 -58.5t85.5 -181.5v-134q0 -121 -87.5 -178t-225.5 -57z" />
    <glyph glyph-name="ellipsis" unicode="&#x2026;" 
d="M208 -17q-59 0 -96.5 38.5t-37.5 118.5v89q0 82 37.5 121t96.5 39t95 -39t36 -121v-89q0 -80 -36 -118.5t-95 -38.5zM651.5 -17q-57.5 0 -95 38.5t-37.5 118.5v89q0 82 37.5 121t96.5 39t95 -39t36 -121v-89q0 -80 -37.5 -118.5t-95 -38.5zM1096.5 -17q-57.5 0 -95 38.5
t-37.5 118.5v89q0 82 37.5 121t96.5 39t95 -39t36 -121v-89q0 -80 -37.5 -118.5t-95 -38.5z" />
    <glyph glyph-name="perthousand" unicode="&#x2030;" 
d="M1117 400q0 119 -64 119t-64 -119v-193q0 -116 64 -116t64 116v193zM842 400q0 119 -64.5 119t-64.5 -119v-193q0 -116 64.5 -116t64.5 116v193zM1061 652q205 0 205 -274v-149q0 -138 -54 -204t-151 -66t-145 89q-51 -89 -148 -89q-96 0 -150 66t-54 204v149
q0 140 55 207t153 67t144 -92q46 92 145 92zM1173 1190l-1045 -985l-100 108l1043 985zM408 1257q0 119 -83 119t-83 -119v-157q0 -115 83 -115t83 115v157zM326 834q-112 0 -182 66t-70 204v149q0 140 70 207t182 67t180.5 -67t68.5 -207v-149q0 -138 -68.5 -204
t-180.5 -66z" />
    <glyph glyph-name="minute" unicode="&#x2032;" 
d="M354 745l205 744h370l-419 -744h-156z" />
    <glyph glyph-name="second" unicode="&#x2033;" 
d="M-93 745l205 744h352l-419 -744h-138zM465 745l205 744h352l-419 -744h-138z" />
    <glyph glyph-name="guilsinglleft" unicode="&#x2039;" 
d="M931 186l-559 373v186l559 372v-177l-432 -288l432 -289v-177z" />
    <glyph glyph-name="guilsinglright" unicode="&#x203a;" 
d="M372 186v177l434 289l-434 288v177l559 -372v-186z" />
    <glyph glyph-name="exclamdbl" unicode="&#x203c;" 
d="M572 138q0 -157 -136.5 -157t-180.5 38q-43 43 -43 119v52q0 123 67 141.5t159.5 18.5t113 -59.5t20.5 -100.5v-52zM1093 138q0 -157 -135.5 -157t-181.5 38q-42 42 -42 119v52q0 124 67 142t159 18t112.5 -59.5t20.5 -100.5v-52zM317 559l-56 930h260l-56 -930h-148z
M838 559l-56 930h261l-56 -930h-149z" />
    <glyph glyph-name="overline" unicode="&#x203e;" 
d="M130 1676v186h1043v-186h-1043z" />
    <glyph glyph-name="fraction" unicode="&#x2215;" 
d="M186 0l745 1489h186l-745 -1489h-186z" />
    <glyph glyph-name="fraction" unicode="&#x2044;" 
d="M186 0l745 1489h186l-745 -1489h-186z" />
    <glyph glyph-name="zero.sups" unicode="&#x2070;" 
d="M651.5 685q115.5 0 163 64.5t47.5 222.5v106q0 162 -47.5 227t-163 65t-163 -65t-47.5 -227v-106q0 -158 47.5 -222.5t163 -64.5zM653 555q-193 0 -286 108t-93 292v140q0 188 94 297t285.5 109t284.5 -109t93 -297v-140q0 -184 -92.5 -292t-285.5 -108z" />
    <glyph glyph-name="four.sups" unicode="&#x2074;" 
d="M1084 801h-174v-235h-169v235h-473v130l421 558h221v-558h174v-130zM741 931v424l-326 -424h326z" />
    <glyph glyph-name="five.sups" unicode="&#x2075;" 
d="M698 1156q328 0 328 -255v-91q0 -112 -93 -183.5t-287 -71.5t-282 59.5t-96 223.5l168 11q9 -102 52.5 -133t159.5 -31t162 32.5t46 112.5v47q0 76 -44.5 108t-152.5 32h-357v472h683v-130h-514v-203h227z" />
    <glyph glyph-name="six.sups" unicode="&#x2076;" 
d="M855 860q0 164 -203 164t-203 -164v-15q0 -73 42 -115.5t160 -42.5t161 44.5t43 113.5v15zM706 1145q171 0 245.5 -75.5t74.5 -200.5v-24q0 -123 -88.5 -205.5t-284.5 -82.5t-285 89t-89 240v279q0 155 87.5 246t277.5 91t268 -57.5t103 -169.5l-179 -28q-15 73 -54 99
t-150 26t-147 -56.5t-36 -150.5v-104h11q75 84 246 84z" />
    <glyph glyph-name="seven.sups" unicode="&#x2077;" 
d="M279 1348v141h747v-141q-136 -222 -215 -379t-120 -403h-181q63 287 135 432t211 350h-577z" />
    <glyph glyph-name="eight.sups" unicode="&#x2078;" 
d="M652 687q134 0 169 38t35 102v16q0 65 -35 103.5t-169 38.5t-168.5 -38t-34.5 -104v-16q0 -63 34.5 -101.5t168.5 -38.5zM653 1115q94 0 137.5 25t43.5 89v28q0 63 -43.5 87t-137.5 24t-138 -24t-44 -87v-28q0 -63 44 -88.5t138 -25.5zM302 1273q0 228 258.5 228
t350 -52.5t91.5 -175.5v-37q0 -73 -47.5 -116.5t-116.5 -50.5v-34q89 -7 138.5 -62t49.5 -137v-26q0 -123 -80 -189t-293 -66t-293.5 68t-80.5 187v26q0 86 49.5 139t136.5 60v34q-69 7 -116 51t-47 116v37z" />
    <glyph glyph-name="nine.sups" unicode="&#x2079;" 
d="M599 912q-171 0 -245.5 75.5t-74.5 200.5v24q0 123 88.5 206t284 83t285 -89.5t89.5 -240.5v-279q0 -155 -87.5 -246t-277.5 -91t-269 57.5t-102 169.5l179 28q15 -73 54 -99t150 -26t147 57t36 150v104h-13q-73 -84 -244 -84zM451 1197q0 -164 158 -164t202.5 46
t44.5 118v15q0 73 -42.5 115.5t-160 42.5t-160 -44.5t-42.5 -113.5v-15z" />
    <glyph glyph-name="nsuperior" unicode="&#x207f;" 
d="M279 564v929h155v-154h46q37 86 114 134q63 35 132 35q134 0 216 -84t82 -232v-628h-155v596q0 99 -45 150t-124 51t-140 -42t-126 -120v-635h-155z" />
    <glyph glyph-name="zero.sinf" unicode="&#x2080;" 
d="M652 119q115 0 163 64q47 64 47 223v106q0 162 -47 227t-163 65t-162 -65q-48 -65 -49 -227v-106q0 -158 48 -222t163 -65zM1031 389q-1 -184 -93 -292t-285 -108t-286 108t-93 292v140q0 188 94 297t286 109t284 -109q93 -109 93 -297v-140z" />
    <glyph glyph-name="one.sinf" unicode="&#x2081;" 
d="M372 0v136h254v592h-28q-22 -74 -88 -119t-151 -47l-11 140q88 4 172 57t109 164h166v-787h231v-136h-654z" />
    <glyph glyph-name="two.sinf" unicode="&#x2082;" 
d="M279 0v194q1 100 51 174t167 97l227 47q65 13 93 42t28 86v36q0 60 -39 94t-154 34q-116 0 -150 -38t-42 -133l-170 13q8 143 86 216t276 73t279 -68q82 -68 82 -186v-63q0 -106 -59 -161t-153 -73l-228 -47q-57 -11 -91 -39t-33 -103v-59h577v-136h-747z" />
    <glyph glyph-name="three.sinf" unicode="&#x2083;" 
d="M642 -11q-200 0 -283 68q-84 68 -91 202l168 11q9 -82 46 -116t165 -33q129 0 169 35t40 99v30q0 69 -41 101t-163 33h-153v134h153q102 0 142 20t40 80v38q0 63 -52 87t-142 24t-132 -30q-41 -30 -48 -98l-170 11q10 134 94 192t248 58q164 -1 266 -49t104 -184v-30
q0 -74 -48 -116t-127 -50v-33q87 -7 143 -61t56 -135v-26q0 -136 -92 -199t-292 -63z" />
    <glyph glyph-name="four.sinf" unicode="&#x2084;" 
d="M1084 235h-174v-235h-169v235h-473v130l421 558h221v-558h174v-130zM741 365v424l-326 -424h326z" />
    <glyph glyph-name="five.sinf" unicode="&#x2085;" 
d="M698 590q328 0 328 -255v-91q0 -112 -93 -184t-287 -71q-194 -1 -283 59q-88 60 -95 224l168 11q9 -102 52 -133q44 -31 160 -31t162 33t46 112v47q0 76 -44 108q-45 32 -153 32h-357v472h683v-130h-514v-203h227z" />
    <glyph glyph-name="six.sinf" unicode="&#x2086;" 
d="M449 279q0 -73 42 -115t160 -43q118 0 161 45t43 113v15q0 164 -203 164q-114 0 -159 -46t-44 -118v-15zM706 579q171 0 245 -75t75 -201v-24q0 -123 -88 -205t-285 -83q-196 0 -285 89q-88 89 -89 240v280q0 156 88 246q87 90 277 90t268 -58t103 -169l-179 -28
q-15 73 -54 99t-150 26t-147 -57t-36 -149v-105h11q75 84 246 84z" />
    <glyph glyph-name="seven.sinf" unicode="&#x2087;" 
d="M279 782v141h747v-141q-136 -222 -215 -379t-120 -403h-181q63 287 135 432t211 350h-577z" />
    <glyph glyph-name="eight.sinf" unicode="&#x2088;" 
d="M652 121q134 0 169 38t35 102v16q0 65 -35 103t-169 39q-134 0 -168 -38t-35 -104v-16q0 -63 34 -102q35 -38 169 -38zM471 663q0 -63 44 -89t138 -25q93 0 137 25t44 89v28q0 63 -44 87t-138 24t-137 -24q-44 -24 -44 -87v-28zM302 707q0 228 350 228q168 0 258 -52
t92 -176v-37q0 -72 -48 -116t-116 -51v-34q88 -7 138 -62t50 -137v-26q0 -123 -80 -189t-293 -66t-294 68q-80 68 -80 187v26q-1 86 49 139t137 60v34q-69 7 -116 51t-47 116v37z" />
    <glyph glyph-name="nine.sinf" unicode="&#x2089;" 
d="M279 646q1 123 89 206t284 83q196 1 284 -89q89 -90 90 -241v-279q0 -155 -88 -246t-277 -91q-190 0 -269 58t-102 169l179 28q15 -73 54 -99t150 -26t147 57t36 150v104h-13q-72 -82 -243 -83q-172 -1 -246 75t-75 200v24zM451 631q0 -164 202 -164q114 0 159 46t44 118
v15q0 74 -42 116t-160 42t-161 -44t-42 -114v-15z" />
    <glyph glyph-name="franc" unicode="&#x20a3;" 
d="M745 363h-373v-363h-186v363h-186v168h186v958h968v-167h-782v-391h652v-168h-652v-232h373v-168z" />
    <glyph glyph-name="lira" unicode="&#x20a4;" 
d="M865 164q104 0 145 61t51 198l186 -19q-12 -210 -113 -317q-100 -106 -278 -106q-71 0 -125 19t-163 67q-109 47 -172 56q-62 9 -117 -28l-171 -112l-106 138l153 93q68 40 116 135q47 95 47 185l-299 15v149h264q-11 24 -17 35q-7 11 -14.5 25t-23.5 40t-25 41t-15 27
t-9.5 21t-7.5 16h-152v149h113l-2 30q-2 7 -2 8v22q0 182 137.5 289t391.5 107t379 -99t137 -312l-186 -19q-12 146 -83 204q-72 59 -250 59q-177 0 -257 -56t-80 -177v-12q0 -11 1 -16l2 -28h518v-149h-464q80 -120 110 -205h354v-149h-330q0 -182 -167 -294l22 -32
q94 59 224 18q64 -20 161 -57q68 -20 117 -20z" />
    <glyph glyph-name="peseta" unicode="&#x20a7;" 
d="M1119 268q0 96 -123 249q-84 104 -115.5 163t-31.5 146t17 142h-121v-715q0 -119 46 -119q19 0 33 4t25 6.5t22 8.5l25 35q73 -58 117 -58q106 0 106 138zM1182 929q-68 58 -110 58q-76 0 -76 -138q0 -71 34 -124.5t98 -128.5q64 -74 101 -144q37 -71 37 -156
q0 -229 -97 -272t-158 -43t-110 23q-60 -21 -111 -21q-194 0 -194 291v694h-112v-147q0 -300 -223 -300h-56v-521h-149v1489h207q221 0 221 -299v-73h112v372h149v-372h149v-80q54 99 162.5 99t209.5 -78zM205 667h56q33 0 56 33q18 38 18 125v357q0 87 -18 125
q-22 34 -56 34h-56v-674z" />
    <glyph glyph-name="Euro" unicode="&#x20ac;" 
d="M711 -19q-253 0 -370.5 137t-117.5 370v4h-186v148h186v205h-186v149h186v4q0 233 118.5 371.5t371.5 138.5t360 -106t119 -305l-187 -19q-9 128 -63 195.5t-231 67.5t-239 -93.5t-62 -249.5v-4h372v-149h-372v-205h372v-148h-372v-4q0 -158 62 -248.5t239 -90.5t230 64
t64 191l187 -19q-11 -197 -119.5 -300.5t-361.5 -103.5z" />
    <glyph glyph-name="careof" unicode="&#x2105;" 
d="M821 244q0 -134 120 -134t120 134v119q0 138 -120 138t-120 -138v-119zM653 248v111q0 149 81 220q73 73 243.5 73t211 -110t40.5 -183v-111q0 -144 -78 -218q-79 -71 -247.5 -71t-209.5 108t-41 181zM84 313l1042 985l103 -108l-1045 -985zM242 1119q0 -134 120 -134
t120 97l168 -15q0 -116 -77 -174q-77 -59 -247 -59t-211 108t-41 181v111q0 149 81 220q73 73 205.5 73t211.5 -58q78 -63 78 -179l-168 -15q0 101 -120 101t-120 -138v-119z" />
    <glyph glyph-name="lsquare" unicode="&#x2113;" 
d="M635 465q-145 0 -212 84l-28 -160q-18 -107 39 -164t183 -57t282 65l8 -179q-156 -67 -286 -67q-238 0 -344 104t-72 281l147 836q26 145 140 226q112 74 285 74t256 -89t56 -248l-71 -413q-25 -143 -132 -222q-106 -71 -251 -71zM863 1318q-62 23 -135 23t-121 -32
q-57 -31 -69 -101l-74 -426q-26 -149 156 -149q92 -1 132 21q71 39 80 104l71 413q22 124 -40 147z" />
    <glyph glyph-name="numero" unicode="&#x2116;" 
d="M680 257q0 -143 139.5 -143t139.5 143v99q0 149 -139.5 149t-139.5 -149v-99zM819 -26q-132 0 -213 70t-81 213v99q0 145 81 216.5t214 71.5t213 -71.5t80 -216.5v-99q0 -143 -81 -213t-213 -70zM354 763h-168v726h218l546 -556v556h167v-726h-229l-534 563v-563z" />
    <glyph glyph-name="uni2117" unicode="&#x2117;" 
d="M573 659h101q74 0 104 30t30 102v71q0 84 -30 118.5t-104 34.5h-101v-356zM976 791q0 -279 -302 -279h-101v-285h-167v938h270q147 0 223.5 -77t76.5 -226v-71zM652 -82q255 0 369.5 133t114.5 426v415q0 298 -114.5 433t-369.5 135t-369.5 -136t-114.5 -434v-412
q0 -294 114.5 -427t369.5 -133zM651.5 -205q-320.5 0 -467.5 178t-147 505v414q0 331 148 511t468.5 180t466.5 -180t146 -511v-414q0 -328 -147 -505.5t-467.5 -177.5z" />
    <glyph glyph-name="trademark" unicode="&#x2122;" 
d="M579 653v836h210l110 -385l123 385h188v-836h-132l4 686l-138 -430h-97l-140 441l4 -697h-132zM190 653v704h-171v132h469v-132h-151v-704h-147z" />
    <glyph glyph-name="Ohm" unicode="&#x2126;" 
d="M559 0h-429v168h242v167q-130 39 -186 157t-56 273v201q0 268 132 405t390 137q259 0 390 -137t131 -405v-201q0 -156 -56 -273t-186 -157v-167h242v-168h-428v428q143 24 192 112t50 225v201q-1 203 -77 289t-258 86t-258 -86t-77 -289v-201q0 -136 49 -224t193 -113
v-428z" />
    <glyph glyph-name="estimated" unicode="&#x212e;" 
d="M646 1368q-146 0 -251 -96v-471h501v465q-56 45 -114 73.5t-136 28.5zM52 752q0 339 166 552t428 213t427 -240t173 -625h-851v-429q118 -96 247 -96q278 0 416 216l89 -112q-167 -253 -505 -253q-257 0 -423.5 217.5t-166.5 556.5z" />
    <glyph glyph-name="oneeighth" unicode="&#x215b;" 
d="M866 -166v17q0 54 -37 76q-37 28 -167 28t-167 -25t-37 -79v-17q0 -53 38 -77.5t164.5 -24.5t158.5 20t39.5 38t7.5 44zM843 162v28q0 61 -67 67.5t-181.5 6.5t-114.5 -74v-28q0 -62 66.5 -69t181.5 -7t115 76zM311 207q0 190 261.5 190t349.5 -43q89 -47 89 -147v-38
q0 -83 -64 -104.5t-100 -25.5v-33q134 -12 161 -70.5t27 -91.5v-26q0 -111 -83.5 -164.5t-290.5 -53.5q-296 0 -334 82.5t-38 135.5v26q0 71 47 112t139 50v33q-116 13 -140 57.5t-24 72.5v38zM737 503v111l566 38v-187zM0 465v187l592 -38v-111zM335 763v136h253v406h-28
q-22 -74 -87 -119q-73 -47 -151 -47l-11 140q100 4 175 58q84 56 106 164h166v-602h231v-136h-654z" />
    <glyph glyph-name="threeeighths" unicode="&#x215c;" 
d="M866 -166v17q0 54 -37 76q-37 28 -167 28t-167 -25t-37 -79v-17q0 -53 38 -77.5t164.5 -24.5t158.5 20t39.5 38t7.5 44zM843 162v28q0 61 -67 67.5t-181.5 6.5t-114.5 -74v-28q0 -62 66.5 -69t181.5 -7t115 76zM311 207q0 190 261.5 190t349.5 -43q89 -47 89 -147v-38
q0 -83 -64 -104.5t-100 -25.5v-33q134 -12 161 -70.5t27 -91.5v-26q0 -111 -83.5 -164.5t-290.5 -53.5q-296 0 -334 82.5t-38 135.5v26q0 71 47 112t139 50v33q-116 13 -140 57.5t-24 72.5v38zM737 503v111l566 38v-187zM0 465v187l592 -38v-111zM834 1324q0 56 -163.5 56
t-185 -33t-25.5 -59l-170 12q8 112 92 163q88 49 259 49t240 -29t95 -63.5t26 -84.5v-30q0 -65 -49 -102q-42 -36 -126 -45v-33q89 -8 143 -45q56 -34 56 -95v-26q0 -160 -140 -183.5t-240 -23.5q-200 0 -287 58q-83 51 -91 175l168 11q8 -66 48 -89t133 -23q199 0 219 29
t20 50v29q0 40 -32 55q-55 24 -172 24h-97v134h97q105 1 134 13t38.5 28t9.5 41v37z" />
    <glyph glyph-name="fiveeighths" unicode="&#x215d;" 
d="M866 -166v17q0 54 -37 76q-37 28 -167 28t-167 -25t-37 -79v-17q0 -53 38 -77.5t164.5 -24.5t158.5 20t39.5 38t7.5 44zM843 162v28q0 61 -67 67.5t-181.5 6.5t-114.5 -74v-28q0 -62 66.5 -69t181.5 -7t115 76zM311 207q0 190 261.5 190t349.5 -43q89 -47 89 -147v-38
q0 -83 -64 -104.5t-100 -25.5v-33q134 -12 161 -70.5t27 -91.5v-26q0 -111 -83.5 -164.5t-290.5 -53.5q-296 0 -334 82.5t-38 135.5v26q0 71 47 112t139 50v33q-116 13 -140 57.5t-24 72.5v38zM737 503v111l566 38v-187zM0 465v187l592 -38v-111zM698 1242q328 0 328 -209
v-63q0 -97 -93 -158q-101 -60 -294 -60t-278 47t-93 180l168 11q8 -68 51 -87.5t161 -19.5t164 22q44 16 44 67v46q0 46 -40 65t-157 19h-357v399h683v-131h-514v-128h227z" />
    <glyph glyph-name="seveneighths" unicode="&#x215e;" 
d="M866 -166v17q0 54 -37 76q-37 28 -167 28t-167 -25t-37 -79v-17q0 -53 38 -77.5t164.5 -24.5t158.5 20t39.5 38t7.5 44zM843 162v28q0 61 -67 67.5t-181.5 6.5t-114.5 -74v-28q0 -62 66.5 -69t181.5 -7t115 76zM311 207q0 190 261.5 190t349.5 -43q89 -47 89 -147v-38
q0 -83 -64 -104.5t-100 -25.5v-33q134 -12 161 -70.5t27 -91.5v-26q0 -111 -83.5 -164.5t-290.5 -53.5q-296 0 -334 82.5t-38 135.5v26q0 71 47 112t139 50v33q-116 13 -140 57.5t-24 72.5v38zM737 503v111l566 38v-187zM0 465v187l592 -38v-111zM279 1359v142h747v-142
q-145 -149 -224 -288q-80 -150 -111 -308h-181q44 184 125 332q83 139 221 264h-577z" />
    <glyph glyph-name="arrowleft" unicode="&#x2190;" 
d="M652 1350v-512h651v-186h-651v-512h-38l-614 586v37l614 587h38z" />
    <glyph glyph-name="arrowup" unicode="&#x2191;" 
d="M559 0v838h-512v37l586 614h37l587 -614v-37h-512v-838h-186z" />
    <glyph glyph-name="arrowright" unicode="&#x2192;" 
d="M652 140v512h-652v186h652v512h37l614 -587v-37l-614 -586h-37z" />
    <glyph glyph-name="arrowdown" unicode="&#x2193;" 
d="M47 652h512v837h186v-837h512v-38l-587 -614h-37l-586 614v38z" />
    <glyph glyph-name="arrowboth" unicode="&#x2194;" 
d="M521 652v-512h-37l-484 586v37l484 587h37v-512h261v512h37l484 -587v-37l-484 -586h-37v512h-261z" />
    <glyph glyph-name="arrowupdn" unicode="&#x2195;" 
d="M47 465h512v559h-512v37l586 615h37l587 -615v-37h-512v-559h512v-37l-587 -614h-37l-586 614v37z" />
    <glyph glyph-name="arrowupdnbse" unicode="&#x21a8;" 
d="M130 -372v186h503l-586 614v37h512v559h-512v37l586 615h37l587 -615v-37h-512v-559h512v-37l-587 -614h503v-186h-1043z" />
    <glyph glyph-name="partialdiff" unicode="&#x2202;" 
d="M899 691q-57 57 -208.5 57t-228.5 -58.5t-99 -175.5l-24 -116q-30 -129 24 -189q52 -64 204 -64t229 62t107 191l24 116q26 119 -28 177zM343 812q129 102 314 102t238 -54t62 -82h43q34 226 -61 360.5t-405 218.5l99 145q360 -98 476 -286q115 -188 43 -527l-57 -276
q-93 -432 -430.5 -432t-450.5 107t-69 314l28 132q39 181 170 278z" />
    <glyph glyph-name="Delta#1" unicode="&#x2206;" 
d="M1039 168l-391 1128l-389 -1128h780zM74 0v168l472 1321h195l488 -1321v-168h-1155z" />
    <glyph glyph-name="product" unicode="&#x220f;" 
d="M186 -372v1861h931v-1861h-186v1694h-559v-1694h-186z" />
    <glyph glyph-name="summation" unicode="&#x2211;" 
d="M1154 -205v-167h-1024v167l680 786l-680 741v167h1024v-167h-815l611 -661v-145l-633 -721h837z" />
    <glyph glyph-name="minus" unicode="&#x2212;" 
d="M130 559v186h1043v-186h-1043z" />
    <glyph glyph-name="radical" unicode="&#x221a;" 
d="M627 0l-322 754l-210 -37v158l322 56l322 -799l350 1544h171l-400 -1676h-233z" />
    <glyph glyph-name="infinity" unicode="&#x221e;" 
d="M261 745q7 -374 128 -374q54 0 101 100q30 66 89 246q-63 229 -96 315.5t-91 86.5q-92 0 -111.5 -138t-19.5 -236zM808 488q44 -117 106 -117t91 87q38 101 38 287q-7 374 -129 374q-73 0 -106 -97t-84 -253l72 -256q-8 27 12 -25zM173 357q-80 145 -80 390t86 385
q78 134 208 134q105 0 175 -106q66 -90 103 -242q63 179 106 238q82 110 169 110q112 0 192 -134q78 -141 78 -387t-85 -388q-85 -134 -215 -134q-131 0 -188 134.5t-83 210.5q-55 -170 -114 -248q-66 -97 -169 -97t-183 134z" />
    <glyph glyph-name="orthogonal" unicode="&#x221f;" 
d="M186 0v1303h186v-1135h782v-168h-968z" />
    <glyph glyph-name="intersection" unicode="&#x2229;" 
d="M186 0v806q0 382 180 449t400 67t285.5 -193t65.5 -323v-806h-186v806q0 181 -69 268q-68 80 -209.5 80t-211.5 -80q-69 -87 -69 -268v-806h-186z" />
    <glyph glyph-name="integral" unicode="&#x222b;" 
d="M959 1341q-82 0 -117.5 -14t-56.5 -48q-40 -65 -40 -229v-1024q0 -291 -139.5 -350.5t-203.5 -59.5q-164 0 -270 45l37 160q107 -37 182 -37q76 0 112 14t56 47q40 66 40 229v1024q0 188 93 300q96 110 249 110t270 -45l-37 -160q-93 38 -175 38z" />
    <glyph glyph-name="approxequal" unicode="&#x2248;" 
d="M400 393q-121 0 -121 -220v-173h-167v184q0 187 85 293q86 100 226 100q93 0 141 -35q49 -35 79.5 -74.5t80.5 -133.5t78 -123q28 -28 49.5 -36.5t53.5 -8.5q119 0 119 221v172h168v-185q0 -187 -84.5 -290t-222.5 -103t-197 74.5t-106 164.5t-78 124q-32 34 -54 41.5
t-50 7.5zM400 1138q-54 0 -87 -51q-34 -59 -34 -169v-173h-167v184q0 188 85 292q87 101 226 101q94 0 156 -46t127 -159q64 -128 94 -159q30 -30 51.5 -39t50.5 -9q86 0 104 81t18 141v171h168v-184q0 -187 -84 -290t-214 -103q-105 0 -172 49t-122 158q-68 127 -98 158
t-52 39t-50 8z" />
    <glyph glyph-name="notequal" unicode="&#x2260;" 
d="M1173 354h-525l-89 -354h-187l90 354h-332v186h378l103 410h-481v186h527l88 353h186l-88 -353h330v-186h-376l-103 -410h479v-186z" />
    <glyph glyph-name="equivalence" unicode="&#x2261;" 
d="M130 186v186h1043v-186h-1043zM130 559v186h1043v-186h-1043zM130 931v186h1043v-186h-1043z" />
    <glyph glyph-name="lessequal" unicode="&#x2264;" 
d="M186 0v168h931v-168h-931zM1117 372l-931 466v186l931 465v-176l-763 -382l763 -382v-177z" />
    <glyph glyph-name="greaterequal" unicode="&#x2265;" 
d="M1117 0h-931v168h931v-168zM186 372v177l764 382l-764 382v176l931 -465v-186z" />
    <glyph glyph-name="logicalnotreversed" unicode="&#x2310;" 
d="M130 0v745h1043v-186h-856v-559h-187z" />
    <glyph glyph-name="integralbt" unicode="&#x2321;" 
d="M353 -216q78 0 114 16t56 50q36 62 36 224v1415h186v-1463q0 -189 -97 -303q-99 -107 -257 -107q-97 0 -166 17t-93 28l37 160q106 -37 184 -37z" />
    <glyph glyph-name="uni23af" unicode="&#x23af;" 
d="M0 652v186h1303v-186h-1303z" />
    <glyph glyph-name="lighthorzbxd" unicode="&#x2500;" 
d="M-37 652h1378v-187h-1378v187z" />
    <glyph glyph-name="heavyhorzbxd" unicode="&#x2501;" 
d="M-37 745h1378v-373h-1378v373z" />
    <glyph glyph-name="lightvertbxd" unicode="&#x2502;" 
d="M559 1955h186v-2793h-186v2793z" />
    <glyph glyph-name="heavyvertbxd" unicode="&#x2503;" 
d="M465 1955h373v-2793h-373v2793z" />
    <glyph glyph-name="lighttrpldashhorzbxd" unicode="&#x2504;" 
d="M938 652h291v-187h-291v187zM505 652h290v-187h-290v187zM71 652h290v-187h-290v187z" />
    <glyph glyph-name="heavytrpldashhorzbxd" unicode="&#x2505;" 
d="M938 745h291v-373h-291v373zM505 745h290v-373h-290v373zM71 745h290v-373h-290v373z" />
    <glyph glyph-name="lighttrpldashvertbxd" unicode="&#x2506;" 
d="M559 2147h186v-455h-186v455zM559 1465h186v-454h-186v454zM559 784h186v-454h-186v454zM559 102h186v-454h-186v454z" />
    <glyph glyph-name="heavytrpldashvertbxd" unicode="&#x2507;" 
d="M465 2147h373v-455h-373v455zM465 1465h373v-454h-373v454zM465 784h373v-454h-373v454zM465 102h373v-454h-373v454z" />
    <glyph glyph-name="lightquaddashhorzbxd" unicode="&#x2508;" 
d="M1017 652h245v-187h-245v187zM691 652h245v-187h-245v187zM365 652h246v-187h-246v187zM39 652h246v-187h-246v187z" />
    <glyph glyph-name="heavyquaddashhorzbxd" unicode="&#x2509;" 
d="M1017 745h245v-373h-245v373zM691 745h245v-373h-245v373zM365 745h246v-373h-246v373zM39 745h246v-373h-246v373z" />
    <glyph glyph-name="lightquaddashvertbxd" unicode="&#x250a;" 
d="M559 1519h186v-385h-186v385zM559 1007h186v-385h-186v385zM559 495h186v-385h-186v385zM559 -17h186v-385h-186v385z" />
    <glyph glyph-name="heavyquaddashvertbxd" unicode="&#x250b;" 
d="M465 1519h373v-385h-373v385zM465 1007h373v-385h-373v385zM465 495h373v-385h-373v385zM465 -17h373v-385h-373v385z" />
    <glyph glyph-name="lightdnrightbxd" unicode="&#x250c;" 
d="M559 652h782v-187h-596v-1303h-186v1490z" />
    <glyph glyph-name="dnlightrightheavybxd" unicode="&#x250d;" 
d="M559 745h782v-373h-596v-1210h-186v1583z" />
    <glyph glyph-name="dnheavyrightlightbxd" unicode="&#x250e;" 
d="M465 652h876v-187h-503v-1303h-373v1490z" />
    <glyph glyph-name="heavydnrightbxd" unicode="&#x250f;" 
d="M465 745h876v-373h-503v-1210h-373v1583z" />
    <glyph glyph-name="lightdnleftbxd" unicode="&#x2510;" 
d="M-37 652h782v-1490h-186v1303h-596v187z" />
    <glyph glyph-name="dnlightleftheavybxd" unicode="&#x2511;" 
d="M-37 745h782v-1583h-186v1210h-596v373z" />
    <glyph glyph-name="dnheavyleftlightbxd" unicode="&#x2512;" 
d="M-37 652h875v-1490h-373v1303h-502v187z" />
    <glyph glyph-name="heavydnleftbxd" unicode="&#x2513;" 
d="M-37 745h875v-1583h-373v1210h-502v373z" />
    <glyph glyph-name="lightuprightbxd" unicode="&#x2514;" 
d="M559 1955h186v-1303h596v-187h-782v1490z" />
    <glyph glyph-name="uplightrightheavybxd" unicode="&#x2515;" 
d="M559 1955h186v-1210h596v-373h-782v1583z" />
    <glyph glyph-name="upheavyrightlightbxd" unicode="&#x2516;" 
d="M465 1955h373v-1303h503v-187h-876v1490z" />
    <glyph glyph-name="heavyuprightbxd" unicode="&#x2517;" 
d="M465 1955h373v-1210h503v-373h-876v1583z" />
    <glyph glyph-name="lightupleftbxd" unicode="&#x2518;" 
d="M-37 652h596v1303h186v-1490h-782v187z" />
    <glyph glyph-name="uplightleftheavybxd" unicode="&#x2519;" 
d="M-37 745h596v1210h186v-1583h-782v373z" />
    <glyph glyph-name="upheavyleftlightbxd" unicode="&#x251a;" 
d="M-37 652h502v1303h373v-1490h-875v187z" />
    <glyph glyph-name="heavyupleftbxd" unicode="&#x251b;" 
d="M-37 745h502v1210h373v-1583h-875v373z" />
    <glyph glyph-name="lightvertrightbxd" unicode="&#x251c;" 
d="M559 1955h186v-1303h596v-187h-596v-1303h-186v2793z" />
    <glyph glyph-name="vertlightrightheavybxd" unicode="&#x251d;" 
d="M559 1955h186v-1210h596v-373h-596v-1210h-186v2793z" />
    <glyph glyph-name="upheavyrightdnlightbxd" unicode="&#x251e;" 
d="M465 1955h373v-1303h503v-187h-596v-1303h-186v1303h-94v1490z" />
    <glyph glyph-name="dnheavyrightuplightbxd" unicode="&#x251f;" 
d="M465 652h94v1303h186v-1303h596v-187h-503v-1303h-373v1490z" />
    <glyph glyph-name="vertheavyrightlightbxd" unicode="&#x2520;" 
d="M465 1955h373v-1303h503v-187h-503v-1303h-373v2793z" />
    <glyph glyph-name="dnlightrightupheavybxd" unicode="&#x2521;" 
d="M465 1955h373v-1210h503v-373h-596v-1210h-186v1210h-94v1583z" />
    <glyph glyph-name="uplightrightdnheavybxd" unicode="&#x2522;" 
d="M465 745h94v1210h186v-1210h596v-373h-503v-1210h-373v1583z" />
    <glyph glyph-name="heavyvertrightbxd" unicode="&#x2523;" 
d="M465 1955h373v-1210h503v-373h-503v-1210h-373v2793z" />
    <glyph glyph-name="lightvertleftbxd" unicode="&#x2524;" 
d="M-37 652h596v1303h186v-2793h-186v1303h-596v187z" />
    <glyph glyph-name="vertlightleftheavybxd" unicode="&#x2525;" 
d="M-37 745h596v1210h186v-2793h-186v1210h-596v373z" />
    <glyph glyph-name="upheavyleftdnlightbxd" unicode="&#x2526;" 
d="M-37 652h502v1303h373v-1490h-93v-1303h-186v1303h-596v187z" />
    <glyph glyph-name="dnheavyleftuplightbxd" unicode="&#x2527;" 
d="M-37 652h596v1303h186v-1303h93v-1490h-373v1303h-502v187z" />
    <glyph glyph-name="vertheavyleftlightbxd" unicode="&#x2528;" 
d="M-37 652h502v1303h373v-2793h-373v1303h-502v187z" />
    <glyph glyph-name="dnlightleftupheavybxd" unicode="&#x2529;" 
d="M-37 745h502v1210h373v-1583h-93v-1210h-186v1210h-596v373z" />
    <glyph glyph-name="uplightleftdnheavybxd" unicode="&#x252a;" 
d="M-37 745h596v1210h186v-1210h93v-1583h-373v1210h-502v373z" />
    <glyph glyph-name="heavyvertleftbxd" unicode="&#x252b;" 
d="M-37 745h502v1210h373v-2793h-373v1210h-502v373z" />
    <glyph glyph-name="lightdnhorzbxd" unicode="&#x252c;" 
d="M-37 652h1378v-187h-596v-1303h-186v1303h-596v187z" />
    <glyph glyph-name="leftheavyrightdnlightbxd" unicode="&#x252d;" 
d="M-37 745h782v-93h596v-187h-596v-1303h-186v1210h-596v373z" />
    <glyph glyph-name="rightheavyleftdnlightbxd" unicode="&#x252e;" 
d="M-37 652h596v93h782v-373h-596v-1210h-186v1303h-596v187z" />
    <glyph glyph-name="dnlighthorzheavybxd" unicode="&#x252f;" 
d="M-37 745h1378v-373h-596v-1210h-186v1210h-596v373z" />
    <glyph glyph-name="dnheavyhorzlightbxd" unicode="&#x2530;" 
d="M-37 652h1378v-187h-503v-1303h-373v1303h-502v187z" />
    <glyph glyph-name="rightlightleftdnheavybxd" unicode="&#x2531;" 
d="M-37 745h875v-93h503v-187h-503v-1303h-373v1210h-502v373z" />
    <glyph glyph-name="leftlightrightdnheavybxd" unicode="&#x2532;" 
d="M-37 652h502v93h876v-373h-503v-1210h-373v1303h-502v187z" />
    <glyph glyph-name="heavydnhorzbxd" unicode="&#x2533;" 
d="M-37 745h1378v-373h-503v-1210h-373v1210h-502v373z" />
    <glyph glyph-name="lightuphorzbxd" unicode="&#x2534;" 
d="M-37 652h596v1303h186v-1303h596v-187h-1378v187z" />
    <glyph glyph-name="leftheavyrightuplightbxd" unicode="&#x2535;" 
d="M-37 745h596v1210h186v-1303h596v-187h-596v-93h-782v373z" />
    <glyph glyph-name="rightheavyleftuplightbxd" unicode="&#x2536;" 
d="M-37 652h596v1303h186v-1210h596v-373h-782v93h-596v187z" />
    <glyph glyph-name="uplighthorzheavybxd" unicode="&#x2537;" 
d="M-37 745h596v1210h186v-1210h596v-373h-1378v373z" />
    <glyph glyph-name="upheavyhorzlightbxd" unicode="&#x2538;" 
d="M-37 652h502v1303h373v-1303h503v-187h-1378v187z" />
    <glyph glyph-name="rightlightleftupheavybxd" unicode="&#x2539;" 
d="M-37 745h502v1210h373v-1303h503v-187h-503v-93h-875v373z" />
    <glyph glyph-name="leftlightrightupheavybxd" unicode="&#x253a;" 
d="M-37 652h502v1303h373v-1210h503v-373h-876v93h-502v187z" />
    <glyph glyph-name="heavyuphorzbxd" unicode="&#x253b;" 
d="M-37 745h502v1210h373v-1210h503v-373h-1378v373z" />
    <glyph glyph-name="lightverthorzbxd" unicode="&#x253c;" 
d="M-37 652h596v1303h186v-1303h596v-187h-596v-1303h-186v1303h-596v187z" />
    <glyph glyph-name="leftheavyrightvertlightbxd" unicode="&#x253d;" 
d="M-37 745h596v1210h186v-1303h596v-187h-596v-1303h-186v1210h-596v373z" />
    <glyph glyph-name="rightheavyleftvertlightbxd" unicode="&#x253e;" 
d="M-37 652h596v1303h186v-1210h596v-373h-596v-1210h-186v1303h-596v187z" />
    <glyph glyph-name="vertlighthorzheavybxd" unicode="&#x253f;" 
d="M-37 745h596v1210h186v-1210h596v-373h-596v-1210h-186v1210h-596v373z" />
    <glyph glyph-name="upheavydnhorzlightbxd" unicode="&#x2540;" 
d="M-37 652h502v1303h373v-1303h503v-187h-596v-1303h-186v1303h-596v187z" />
    <glyph glyph-name="dnheavyuphorzlightbxd" unicode="&#x2541;" 
d="M-37 652h596v1303h186v-1303h596v-187h-503v-1303h-373v1303h-502v187z" />
    <glyph glyph-name="vertheavyhorzlightbxd" unicode="&#x2542;" 
d="M-37 652h502v1303h373v-1303h503v-187h-503v-1303h-373v1303h-502v187z" />
    <glyph glyph-name="leftupheavyrightdnlightbxd" unicode="&#x2543;" 
d="M-37 745h502v1210h373v-1303h503v-187h-503v-93h-93v-1210h-186v1210h-596v373z" />
    <glyph glyph-name="rightupheavyleftdnlightbxd" unicode="&#x2544;" 
d="M-37 652h502v1303h373v-1210h503v-373h-596v-1210h-186v1210h-94v93h-502v187z" />
    <glyph glyph-name="leftdnheavyrightuplightbxd" unicode="&#x2545;" 
d="M-37 745h596v1210h186v-1210h93v-93h503v-187h-503v-1303h-373v1210h-502v373z" />
    <glyph glyph-name="rightdnheavyleftuplightbxd" unicode="&#x2546;" 
d="M-37 652h502v93h94v1210h186v-1210h596v-373h-503v-1210h-373v1303h-502v187z" />
    <glyph glyph-name="dnlightuphorzheavybxd" unicode="&#x2547;" 
d="M-37 745h502v1210h373v-1210h503v-373h-596v-1210h-186v1210h-596v373z" />
    <glyph glyph-name="uplightdnhorzheavybxd" unicode="&#x2548;" 
d="M-37 745h596v1210h186v-1210h596v-373h-503v-1210h-373v1210h-502v373z" />
    <glyph glyph-name="rightlightleftvertheavybxd" unicode="&#x2549;" 
d="M-37 745h502v1210h373v-1303h503v-187h-503v-1303h-373v1210h-502v373z" />
    <glyph glyph-name="leftlightrightvertheavybxd" unicode="&#x254a;" 
d="M-37 652h502v1303h373v-1210h503v-373h-503v-1210h-373v1303h-502v187z" />
    <glyph glyph-name="heavyverthorzbxd" unicode="&#x254b;" 
d="M-37 745h502v1210h373v-1210h503v-373h-503v-1210h-373v1210h-502v373z" />
    <glyph glyph-name="lightdbldashhorzbxd" unicode="&#x254c;" 
d="M814 652h325v-187h-325v187zM162 652h326v-187h-326v187z" />
    <glyph glyph-name="heavydbldashhorzbxd" unicode="&#x254d;" 
d="M814 745h325v-373h-325v373zM162 745h326v-373h-326v373z" />
    <glyph glyph-name="lightdbldashvertbxd" unicode="&#x254e;" 
d="M559 1326h186v-512h-186v512zM559 302h186v-512h-186v512z" />
    <glyph glyph-name="heavydbldashvertbxd" unicode="&#x254f;" 
d="M465 1326h373v-512h-373v512zM465 302h373v-512h-373v512z" />
    <glyph glyph-name="dblhorzbxd" unicode="&#x2550;" 
d="M-37 465h1378v-186h-1378v186zM-37 838h1378v-186h-1378v186z" />
    <glyph glyph-name="dblvertbxd" unicode="&#x2551;" 
d="M745 1955h186v-2793h-186v2793zM372 1955h187v-2793h-187v2793z" />
    <glyph glyph-name="dnsngrightdblbxd" unicode="&#x2552;" 
d="M559 838h782v-186h-596v-187h596v-186h-596v-1117h-186v1676z" />
    <glyph glyph-name="dndblrightsngbxd" unicode="&#x2553;" 
d="M372 652h969v-187h-410v-1303h-186v1303h-186v-1303h-187v1490z" />
    <glyph glyph-name="dbldnrightbxd" unicode="&#x2554;" 
d="M745 465h596v-186h-410v-1117h-186v1303zM372 838h969v-186h-782v-1490h-187v1676z" />
    <glyph glyph-name="dnsngleftdblbxd" unicode="&#x2555;" 
d="M-37 838h782v-1676h-186v1117h-596v186h596v187h-596v186z" />
    <glyph glyph-name="dndblleftsngbxd" unicode="&#x2556;" 
d="M-37 652h968v-1490h-186v1303h-186v-1303h-187v1303h-409v187z" />
    <glyph glyph-name="dbldnleftbxd" unicode="&#x2557;" 
d="M-37 465h596v-1303h-187v1117h-409v186zM-37 838h968v-1676h-186v1490h-782v186z" />
    <glyph glyph-name="upsngrightdblbxd" unicode="&#x2558;" 
d="M559 1955h186v-1117h596v-186h-596v-187h596v-186h-782v1676z" />
    <glyph glyph-name="updblrightsngbxd" unicode="&#x2559;" 
d="M372 1955h187v-1303h186v1303h186v-1303h410v-187h-969v1490z" />
    <glyph glyph-name="dbluprightbxd" unicode="&#x255a;" 
d="M745 1955h186v-1117h410v-186h-596v1303zM372 1955h187v-1490h782v-186h-969v1676z" />
    <glyph glyph-name="upsngleftdblbxd" unicode="&#x255b;" 
d="M-37 838h596v1117h186v-1676h-782v186h596v187h-596v186z" />
    <glyph glyph-name="updblleftsngbxd" unicode="&#x255c;" 
d="M-37 652h409v1303h187v-1303h186v1303h186v-1490h-968v187z" />
    <glyph glyph-name="dblupleftbxd" unicode="&#x255d;" 
d="M-37 838h409v1117h187v-1303h-596v186zM-37 465h782v1490h186v-1676h-968v186z" />
    <glyph glyph-name="vertsngrightdblbxd" unicode="&#x255e;" 
d="M559 1955h186v-1117h596v-186h-596v-187h596v-186h-596v-1117h-186v2793z" />
    <glyph glyph-name="vertdblrightsngbxd" unicode="&#x255f;" 
d="M372 1955h187v-2793h-187v2793zM745 1955h186v-1303h410v-187h-410v-1303h-186v2793z" />
    <glyph glyph-name="dblvertrightbxd" unicode="&#x2560;" 
d="M745 465h596v-186h-410v-1117h-186v1303zM745 1955h186v-1117h410v-186h-596v1303zM372 1955h187v-2793h-187v2793z" />
    <glyph glyph-name="vertsngleftdblbxd" unicode="&#x2561;" 
d="M-37 838h596v1117h186v-2793h-186v1117h-596v186h596v187h-596v186z" />
    <glyph glyph-name="vertdblleftsngbxd" unicode="&#x2562;" 
d="M745 1955h186v-2793h-186v2793zM-37 652h409v1303h187v-2793h-187v1303h-409v187z" />
    <glyph glyph-name="dblvertleftbxd" unicode="&#x2563;" 
d="M-37 838h409v1117h187v-1303h-596v186zM-37 465h596v-1303h-187v1117h-409v186zM745 1955h186v-2793h-186v2793z" />
    <glyph glyph-name="dnsnghorzdblbxd" unicode="&#x2564;" 
d="M-37 838h1378v-186h-1378v186zM-37 465h1378v-186h-596v-1117h-186v1117h-596v186z" />
    <glyph glyph-name="dndblhorzsngbxd" unicode="&#x2565;" 
d="M-37 652h1378v-187h-410v-1303h-186v1303h-186v-1303h-187v1303h-409v187z" />
    <glyph glyph-name="dbldnhorzbxd" unicode="&#x2566;" 
d="M-37 838h1378v-186h-1378v186zM745 465h596v-186h-410v-1117h-186v1303zM-37 465h596v-1303h-187v1117h-409v186z" />
    <glyph glyph-name="upsnghorzdblbxd" unicode="&#x2567;" 
d="M-37 465h1378v-186h-1378v186zM-37 838h596v1117h186v-1117h596v-186h-1378v186z" />
    <glyph glyph-name="updblhorzsngbxd" unicode="&#x2568;" 
d="M-37 652h409v1303h187v-1303h186v1303h186v-1303h410v-187h-1378v187z" />
    <glyph glyph-name="dbluphorzbxd" unicode="&#x2569;" 
d="M-37 465h1378v-186h-1378v186zM745 1955h186v-1117h410v-186h-596v1303zM-37 838h409v1117h187v-1303h-596v186z" />
    <glyph glyph-name="vertsnghorzdblbxd" unicode="&#x256a;" 
d="M-37 838h596v1117h186v-1117h596v-186h-596v-187h596v-186h-596v-1117h-186v1117h-596v186h596v187h-596v186z" />
    <glyph glyph-name="vertdblhorzsngbxd" unicode="&#x256b;" 
d="M-37 652h409v1303h187v-1303h186v1303h186v-1303h410v-187h-410v-1303h-186v1303h-186v-1303h-187v1303h-409v187z" />
    <glyph glyph-name="dblverthorzbxd" unicode="&#x256c;" 
d="M745 465h596v-186h-410v-1117h-186v1303zM745 1955h186v-1117h410v-186h-596v1303zM-37 465h596v-1303h-187v1117h-409v186zM-37 838h409v1117h187v-1303h-596v186z" />
    <glyph glyph-name="lightarcdnrightbxd" unicode="&#x256d;" 
d="M559 -93q1 155 59 291q120 278 395 395q136 59 290 59h38v-187h-38q-115 1 -217 -43q-206 -88 -298 -297q-44 -102 -43 -218v-745h-186v745z" />
    <glyph glyph-name="lightarcdnleftbxd" unicode="&#x256e;" 
d="M745 -838h-186v745q0 115 -44 217q-90 209 -297 298q-102 44 -218 43h-37v187h37q154 0 290 -59q278 -121 396 -396q59 -136 59 -290v-745z" />
    <glyph glyph-name="lightarcupleftbxd" unicode="&#x256f;" 
d="M745 1210q0 -154 -59 -290q-121 -278 -396 -396q-136 -59 -290 -59h-37v187h37q233 0 396 163t163 395v745h186v-745z" />
    <glyph glyph-name="lightarcuprightbxd" unicode="&#x2570;" 
d="M559 1955h186v-745q-1 -116 43 -218q87 -205 297 -297q102 -44 218 -43h38v-187h-38q-155 0 -291 59q-278 121 -395 396q-59 136 -58 290v745z" />
    <glyph glyph-name="lightdiaguprightdnleftbxd" unicode="&#x2571;" 
d="M1303 1583v-174l-1193 -1874h-110v173l1193 1875h110z" />
    <glyph glyph-name="lightdiagupleftdnrightbxd" unicode="&#x2572;" 
d="M1303 -465h-110l-1193 1874v174h110l1193 -1875v-173z" />
    <glyph glyph-name="lightdiagcrossbxd" unicode="&#x2573;" 
d="M0 1583h110l542 -853l541 853h110v-174l-542 -850l542 -851v-173h-110l-541 850l-542 -850h-110v173l542 851l-542 850v174z" />
    <glyph glyph-name="lightleftbxd" unicode="&#x2574;" 
d="M-37 652h782v-187h-782v187z" />
    <glyph glyph-name="lightupbxd" unicode="&#x2575;" 
d="M559 1955h186v-1490h-186v1490z" />
    <glyph glyph-name="lightrightbxd" unicode="&#x2576;" 
d="M559 652h782v-187h-782v187z" />
    <glyph glyph-name="lightdnbxd" unicode="&#x2577;" 
d="M559 652h186v-1490h-186v1490z" />
    <glyph glyph-name="heavyleftbxd" unicode="&#x2578;" 
d="M-37 745h782v-373h-782v373z" />
    <glyph glyph-name="heavyupbxd" unicode="&#x2579;" 
d="M465 1955h373v-1490h-373v1490z" />
    <glyph glyph-name="heavyrightbxd" unicode="&#x257a;" 
d="M559 745h782v-373h-782v373z" />
    <glyph glyph-name="heavydnbxd" unicode="&#x257b;" 
d="M465 652h373v-1490h-373v1490z" />
    <glyph glyph-name="lightleftheavyrightbxd" unicode="&#x257c;" 
d="M-37 652h596v93h782v-373h-782v93h-596v187z" />
    <glyph glyph-name="lightupheavydnbxd" unicode="&#x257d;" 
d="M465 652h94v1303h186v-1303h93v-1490h-373v1490z" />
    <glyph glyph-name="heavyleftlightrightbxd" unicode="&#x257e;" 
d="M-37 745h782v-93h596v-187h-596v-93h-782v373z" />
    <glyph glyph-name="heavyuplightdnbxd" unicode="&#x257f;" 
d="M465 1955h373v-1490h-93v-1303h-186v1303h-94v1490z" />
    <glyph glyph-name="uphalfblock" unicode="&#x2580;" 
d="M0 1583h1303v-1024h-1303v1024z" />
    <glyph glyph-name="dneighthblock" unicode="&#x2581;" 
d="M0 -210h1303v-255h-1303v255z" />
    <glyph glyph-name="dnquarterblock" unicode="&#x2582;" 
d="M0 47h1303v-512h-1303v512z" />
    <glyph glyph-name="dnthreeeighthsblock" unicode="&#x2583;" 
d="M0 302h1303v-767h-1303v767z" />
    <glyph glyph-name="dnhalfblock" unicode="&#x2584;" 
d="M0 559h1303v-1024h-1303v1024z" />
    <glyph glyph-name="dnfiveeighthsblock" unicode="&#x2585;" 
d="M0 814h1303v-1279h-1303v1279z" />
    <glyph glyph-name="dnthreequartersblock" unicode="&#x2586;" 
d="M0 1071h1303v-1536h-1303v1536z" />
    <glyph glyph-name="dnseveneighthsblock" unicode="&#x2587;" 
d="M0 1326h1303v-1791h-1303v1791z" />
    <glyph glyph-name="fullblock" unicode="&#x2588;" 
d="M0 1583h1303v-2048h-1303v2048z" />
    <glyph glyph-name="leftseveneighthsblock" unicode="&#x2589;" 
d="M0 1583h1139v-2048h-1139v2048z" />
    <glyph glyph-name="leftthreequartersblock" unicode="&#x258a;" 
d="M0 1583h977v-2048h-977v2048z" />
    <glyph glyph-name="leftfiveeighthsblock" unicode="&#x258b;" 
d="M0 1583h814v-2048h-814v2048z" />
    <glyph glyph-name="lefthalfblock" unicode="&#x258c;" 
d="M0 1583h652v-2048h-652v2048z" />
    <glyph glyph-name="leftthreeeighthsblock" unicode="&#x258d;" 
d="M0 1583h488v-2048h-488v2048z" />
    <glyph glyph-name="leftquarterblock" unicode="&#x258e;" 
d="M0 1583h326v-2048h-326v2048z" />
    <glyph glyph-name="lefteighthblock" unicode="&#x258f;" 
d="M0 1583h162v-2048h-162v2048z" />
    <glyph glyph-name="righthalfblock" unicode="&#x2590;" 
d="M652 1583h651v-2048h-651v2048z" />
    <glyph glyph-name="lightshade" unicode="&#x2591;" 
d="M1210 1545h37v-56h-37v56zM1117 1452h37v-56h-37v56zM1210 1359h37v-56h-37v56zM1117 1266h37v-56h-37v56zM1210 1173h37v-56h-37v56zM1117 1080h37v-56h-37v56zM1210 987h37v-56h-37v56zM1117 894h37v-56h-37v56zM1210 801h37v-56h-37v56zM1117 707h37v-55h-37v55z
M1210 614h37v-55h-37v55zM1117 521h37v-56h-37v56zM1210 428h37v-56h-37v56zM1117 335h37v-56h-37v56zM1210 242h37v-56h-37v56zM1117 149h37v-56h-37v56zM1210 56h37v-56h-37v56zM1117 -37h37v-56h-37v56zM1210 -130h37v-56h-37v56zM1117 -223h37v-56h-37v56zM1210 -317h37
v-55h-37v55zM1117 -410h37v-55h-37v55zM1024 1545h37v-56h-37v56zM931 1452h37v-56h-37v56zM1024 1359h37v-56h-37v56zM931 1266h37v-56h-37v56zM1024 1173h37v-56h-37v56zM931 1080h37v-56h-37v56zM1024 987h37v-56h-37v56zM931 894h37v-56h-37v56zM1024 801h37v-56h-37v56
zM931 707h37v-55h-37v55zM1024 614h37v-55h-37v55zM931 521h37v-56h-37v56zM1024 428h37v-56h-37v56zM931 335h37v-56h-37v56zM1024 242h37v-56h-37v56zM931 149h37v-56h-37v56zM1024 56h37v-56h-37v56zM931 -37h37v-56h-37v56zM1024 -130h37v-56h-37v56zM931 -223h37v-56
h-37v56zM1024 -317h37v-55h-37v55zM931 -410h37v-55h-37v55zM838 1545h37v-56h-37v56zM745 1452h37v-56h-37v56zM838 1359h37v-56h-37v56zM745 1266h37v-56h-37v56zM838 1173h37v-56h-37v56zM745 1080h37v-56h-37v56zM838 987h37v-56h-37v56zM745 894h37v-56h-37v56z
M838 801h37v-56h-37v56zM745 707h37v-55h-37v55zM838 614h37v-55h-37v55zM745 521h37v-56h-37v56zM838 428h37v-56h-37v56zM745 335h37v-56h-37v56zM838 242h37v-56h-37v56zM745 149h37v-56h-37v56zM838 56h37v-56h-37v56zM745 -37h37v-56h-37v56zM838 -130h37v-56h-37v56z
M745 -223h37v-56h-37v56zM838 -317h37v-55h-37v55zM745 -410h37v-55h-37v55zM652 1545h37v-56h-37v56zM559 1452h37v-56h-37v56zM652 1359h37v-56h-37v56zM559 1266h37v-56h-37v56zM652 1173h37v-56h-37v56zM559 1080h37v-56h-37v56zM652 987h37v-56h-37v56zM559 894h37v-56
h-37v56zM652 801h37v-56h-37v56zM559 707h37v-55h-37v55zM652 614h37v-55h-37v55zM559 521h37v-56h-37v56zM652 428h37v-56h-37v56zM559 335h37v-56h-37v56zM652 242h37v-56h-37v56zM559 149h37v-56h-37v56zM652 56h37v-56h-37v56zM559 -37h37v-56h-37v56zM652 -130h37v-56
h-37v56zM559 -223h37v-56h-37v56zM652 -317h37v-55h-37v55zM559 -410h37v-55h-37v55zM465 1545h38v-56h-38v56zM372 1452h38v-56h-38v56zM465 1359h38v-56h-38v56zM372 1266h38v-56h-38v56zM465 1173h38v-56h-38v56zM372 1080h38v-56h-38v56zM465 987h38v-56h-38v56z
M372 894h38v-56h-38v56zM465 801h38v-56h-38v56zM372 707h38v-55h-38v55zM465 614h38v-55h-38v55zM372 521h38v-56h-38v56zM465 428h38v-56h-38v56zM372 335h38v-56h-38v56zM465 242h38v-56h-38v56zM372 149h38v-56h-38v56zM465 56h38v-56h-38v56zM372 -37h38v-56h-38v56z
M465 -130h38v-56h-38v56zM372 -223h38v-56h-38v56zM465 -317h38v-55h-38v55zM372 -410h38v-55h-38v55zM279 1545h38v-56h-38v56zM186 1452h37v-56h-37v56zM279 1359h38v-56h-38v56zM186 1266h37v-56h-37v56zM279 1173h38v-56h-38v56zM186 1080h37v-56h-37v56zM279 987h38
v-56h-38v56zM186 894h37v-56h-37v56zM279 801h38v-56h-38v56zM186 707h37v-55h-37v55zM279 614h38v-55h-38v55zM186 521h37v-56h-37v56zM279 428h38v-56h-38v56zM186 335h37v-56h-37v56zM279 242h38v-56h-38v56zM186 149h37v-56h-37v56zM279 56h38v-56h-38v56zM186 -37h37
v-56h-37v56zM279 -130h38v-56h-38v56zM186 -223h37v-56h-37v56zM279 -317h38v-55h-38v55zM186 -410h37v-55h-37v55zM93 1545h37v-56h-37v56zM0 1452h37v-56h-37v56zM93 1359h37v-56h-37v56zM0 1266h37v-56h-37v56zM93 1173h37v-56h-37v56zM0 1080h37v-56h-37v56zM93 987h37
v-56h-37v56zM0 894h37v-56h-37v56zM93 801h37v-56h-37v56zM0 707h37v-55h-37v55zM93 614h37v-55h-37v55zM0 521h37v-56h-37v56zM93 428h37v-56h-37v56zM0 335h37v-56h-37v56zM93 242h37v-56h-37v56zM0 149h37v-56h-37v56zM93 56h37v-56h-37v56zM0 -37h37v-56h-37v56z
M93 -130h37v-56h-37v56zM0 -223h37v-56h-37v56zM93 -317h37v-55h-37v55zM0 -410h37v-55h-37v55z" />
    <glyph glyph-name="mediumshade" unicode="&#x2592;" 
d="M1210 1583h75v-94h-75v94zM1117 1489h75v-93h-75v93zM1210 1396h75v-93h-75v93zM1117 1303h75v-93h-75v93zM1210 1210h75v-93h-75v93zM1117 1117h75v-93h-75v93zM1210 1024h75v-93h-75v93zM1117 931h75v-93h-75v93zM1210 838h75v-93h-75v93zM1117 745h75v-93h-75v93z
M1210 652h75v-93h-75v93zM1117 559h75v-94h-75v94zM1210 465h75v-93h-75v93zM1117 372h75v-93h-75v93zM1210 279h75v-93h-75v93zM1117 186h75v-93h-75v93zM1210 93h75v-93h-75v93zM1117 0h75v-93h-75v93zM1210 -93h75v-93h-75v93zM1117 -186h75v-93h-75v93zM1210 -279h75
v-93h-75v93zM1117 -372h75v-93h-75v93zM1024 1583h74v-94h-74v94zM931 1489h74v-93h-74v93zM1024 1396h74v-93h-74v93zM931 1303h74v-93h-74v93zM1024 1210h74v-93h-74v93zM931 1117h74v-93h-74v93zM1024 1024h74v-93h-74v93zM931 931h74v-93h-74v93zM1024 838h74v-93h-74
v93zM931 745h74v-93h-74v93zM1024 652h74v-93h-74v93zM931 559h74v-94h-74v94zM1024 465h74v-93h-74v93zM931 372h74v-93h-74v93zM1024 279h74v-93h-74v93zM931 186h74v-93h-74v93zM1024 93h74v-93h-74v93zM931 0h74v-93h-74v93zM1024 -93h74v-93h-74v93zM931 -186h74v-93
h-74v93zM1024 -279h74v-93h-74v93zM931 -372h74v-93h-74v93zM838 1583h74v-94h-74v94zM745 1489h74v-93h-74v93zM838 1396h74v-93h-74v93zM745 1303h74v-93h-74v93zM838 1210h74v-93h-74v93zM745 1117h74v-93h-74v93zM838 1024h74v-93h-74v93zM745 931h74v-93h-74v93z
M838 838h74v-93h-74v93zM745 745h74v-93h-74v93zM838 652h74v-93h-74v93zM745 559h74v-94h-74v94zM838 465h74v-93h-74v93zM745 372h74v-93h-74v93zM838 279h74v-93h-74v93zM745 186h74v-93h-74v93zM838 93h74v-93h-74v93zM745 0h74v-93h-74v93zM838 -93h74v-93h-74v93z
M745 -186h74v-93h-74v93zM838 -279h74v-93h-74v93zM745 -372h74v-93h-74v93zM652 1583h74v-94h-74v94zM559 1489h74v-93h-74v93zM652 1396h74v-93h-74v93zM559 1303h74v-93h-74v93zM652 1210h74v-93h-74v93zM559 1117h74v-93h-74v93zM652 1024h74v-93h-74v93zM559 931h74
v-93h-74v93zM652 838h74v-93h-74v93zM559 745h74v-93h-74v93zM652 652h74v-93h-74v93zM559 559h74v-94h-74v94zM652 465h74v-93h-74v93zM559 372h74v-93h-74v93zM652 279h74v-93h-74v93zM559 186h74v-93h-74v93zM652 93h74v-93h-74v93zM559 0h74v-93h-74v93zM652 -93h74v-93
h-74v93zM559 -186h74v-93h-74v93zM652 -279h74v-93h-74v93zM559 -372h74v-93h-74v93zM465 1583h75v-94h-75v94zM372 1489h75v-93h-75v93zM465 1396h75v-93h-75v93zM372 1303h75v-93h-75v93zM465 1210h75v-93h-75v93zM372 1117h75v-93h-75v93zM465 1024h75v-93h-75v93z
M372 931h75v-93h-75v93zM465 838h75v-93h-75v93zM372 745h75v-93h-75v93zM465 652h75v-93h-75v93zM372 559h75v-94h-75v94zM465 465h75v-93h-75v93zM372 372h75v-93h-75v93zM465 279h75v-93h-75v93zM372 186h75v-93h-75v93zM465 93h75v-93h-75v93zM372 0h75v-93h-75v93z
M465 -93h75v-93h-75v93zM372 -186h75v-93h-75v93zM465 -279h75v-93h-75v93zM372 -372h75v-93h-75v93zM279 1583h75v-94h-75v94zM186 1489h75v-93h-75v93zM279 1396h75v-93h-75v93zM186 1303h75v-93h-75v93zM279 1210h75v-93h-75v93zM186 1117h75v-93h-75v93zM279 1024h75
v-93h-75v93zM186 931h75v-93h-75v93zM279 838h75v-93h-75v93zM186 745h75v-93h-75v93zM279 652h75v-93h-75v93zM186 559h75v-94h-75v94zM279 465h75v-93h-75v93zM186 372h75v-93h-75v93zM279 279h75v-93h-75v93zM186 186h75v-93h-75v93zM279 93h75v-93h-75v93zM186 0h75v-93
h-75v93zM279 -93h75v-93h-75v93zM186 -186h75v-93h-75v93zM279 -279h75v-93h-75v93zM186 -372h75v-93h-75v93zM93 1583h75v-94h-75v94zM0 1489h74v-93h-74v93zM93 1396h75v-93h-75v93zM0 1303h74v-93h-74v93zM93 1210h75v-93h-75v93zM0 1117h74v-93h-74v93zM93 1024h75v-93
h-75v93zM0 931h74v-93h-74v93zM93 838h75v-93h-75v93zM0 745h74v-93h-74v93zM93 652h75v-93h-75v93zM0 559h74v-94h-74v94zM93 465h75v-93h-75v93zM0 372h74v-93h-74v93zM93 279h75v-93h-75v93zM0 186h74v-93h-74v93zM93 93h75v-93h-75v93zM0 0h74v-93h-74v93zM93 -93h75
v-93h-75v93zM0 -186h74v-93h-74v93zM93 -279h75v-93h-75v93zM0 -372h74v-93h-74v93z" />
    <glyph glyph-name="darkshade" unicode="&#x2593;" 
d="M1210 1610h84v-121h-84v121zM1117 1517h84v-121h-84v121zM1210 1424h84v-121h-84v121zM1117 1331h84v-121h-84v121zM1210 1238h84v-121h-84v121zM1117 1145h84v-121h-84v121zM1210 1052h84v-121h-84v121zM1117 959h84v-121h-84v121zM1210 866h84v-121h-84v121zM1117 773
h84v-121h-84v121zM1210 680h84v-121h-84v121zM1117 586h84v-121h-84v121zM1210 493h84v-121h-84v121zM1117 400h84v-121h-84v121zM1210 307h84v-121h-84v121zM1117 214h84v-121h-84v121zM1210 121h84v-121h-84v121zM1117 28h84v-121h-84v121zM1210 -65h84v-121h-84v121z
M1117 -158h84v-121h-84v121zM1210 -251h84v-121h-84v121zM1117 -344h84v-121h-84v121zM1024 1610h84v-121h-84v121zM931 1517h84v-121h-84v121zM1024 1424h84v-121h-84v121zM931 1331h84v-121h-84v121zM1024 1238h84v-121h-84v121zM931 1145h84v-121h-84v121zM1024 1052h84
v-121h-84v121zM931 959h84v-121h-84v121zM1024 866h84v-121h-84v121zM931 773h84v-121h-84v121zM1024 680h84v-121h-84v121zM931 586h84v-121h-84v121zM1024 493h84v-121h-84v121zM931 400h84v-121h-84v121zM1024 307h84v-121h-84v121zM931 214h84v-121h-84v121zM1024 121
h84v-121h-84v121zM931 28h84v-121h-84v121zM1024 -65h84v-121h-84v121zM931 -158h84v-121h-84v121zM1024 -251h84v-121h-84v121zM931 -344h84v-121h-84v121zM838 1610h84v-121h-84v121zM745 1517h84v-121h-84v121zM838 1424h84v-121h-84v121zM745 1331h84v-121h-84v121z
M838 1238h84v-121h-84v121zM745 1145h84v-121h-84v121zM838 1052h84v-121h-84v121zM745 959h84v-121h-84v121zM838 866h84v-121h-84v121zM745 773h84v-121h-84v121zM838 680h84v-121h-84v121zM745 586h84v-121h-84v121zM838 493h84v-121h-84v121zM745 400h84v-121h-84v121z
M838 307h84v-121h-84v121zM745 214h84v-121h-84v121zM838 121h84v-121h-84v121zM745 28h84v-121h-84v121zM838 -65h84v-121h-84v121zM745 -158h84v-121h-84v121zM838 -251h84v-121h-84v121zM745 -344h84v-121h-84v121zM652 1610h83v-121h-83v121zM559 1517h83v-121h-83v121z
M652 1424h83v-121h-83v121zM559 1331h83v-121h-83v121zM652 1238h83v-121h-83v121zM559 1145h83v-121h-83v121zM652 1052h83v-121h-83v121zM559 959h83v-121h-83v121zM652 866h83v-121h-83v121zM559 773h83v-121h-83v121zM652 680h83v-121h-83v121zM559 586h83v-121h-83v121
zM652 493h83v-121h-83v121zM559 400h83v-121h-83v121zM652 307h83v-121h-83v121zM559 214h83v-121h-83v121zM652 121h83v-121h-83v121zM559 28h83v-121h-83v121zM652 -65h83v-121h-83v121zM559 -158h83v-121h-83v121zM652 -251h83v-121h-83v121zM559 -344h83v-121h-83v121z
M465 1610h84v-121h-84v121zM372 1517h84v-121h-84v121zM465 1424h84v-121h-84v121zM372 1331h84v-121h-84v121zM465 1238h84v-121h-84v121zM372 1145h84v-121h-84v121zM465 1052h84v-121h-84v121zM372 959h84v-121h-84v121zM465 866h84v-121h-84v121zM372 773h84v-121h-84
v121zM465 680h84v-121h-84v121zM372 586h84v-121h-84v121zM465 493h84v-121h-84v121zM372 400h84v-121h-84v121zM465 307h84v-121h-84v121zM372 214h84v-121h-84v121zM465 121h84v-121h-84v121zM372 28h84v-121h-84v121zM465 -65h84v-121h-84v121zM372 -158h84v-121h-84v121
zM465 -251h84v-121h-84v121zM372 -344h84v-121h-84v121zM279 1610h84v-121h-84v121zM186 1517h84v-121h-84v121zM279 1424h84v-121h-84v121zM186 1331h84v-121h-84v121zM279 1238h84v-121h-84v121zM186 1145h84v-121h-84v121zM279 1052h84v-121h-84v121zM186 959h84v-121
h-84v121zM279 866h84v-121h-84v121zM186 773h84v-121h-84v121zM279 680h84v-121h-84v121zM186 586h84v-121h-84v121zM279 493h84v-121h-84v121zM186 400h84v-121h-84v121zM279 307h84v-121h-84v121zM186 214h84v-121h-84v121zM279 121h84v-121h-84v121zM186 28h84v-121h-84
v121zM279 -65h84v-121h-84v121zM186 -158h84v-121h-84v121zM279 -251h84v-121h-84v121zM186 -344h84v-121h-84v121zM93 1610h84v-121h-84v121zM0 1517h84v-121h-84v121zM93 1424h84v-121h-84v121zM0 1331h84v-121h-84v121zM93 1238h84v-121h-84v121zM0 1145h84v-121h-84v121
zM93 1052h84v-121h-84v121zM0 959h84v-121h-84v121zM93 866h84v-121h-84v121zM0 773h84v-121h-84v121zM93 680h84v-121h-84v121zM0 586h84v-121h-84v121zM93 493h84v-121h-84v121zM0 400h84v-121h-84v121zM93 307h84v-121h-84v121zM0 214h84v-121h-84v121zM93 121h84v-121
h-84v121zM0 28h84v-121h-84v121zM93 -65h84v-121h-84v121zM0 -158h84v-121h-84v121zM93 -251h84v-121h-84v121zM0 -344h84v-121h-84v121z" />
    <glyph glyph-name="upeighthblock" unicode="&#x2594;" 
d="M0 1583h1303v-257h-1303v257z" />
    <glyph glyph-name="righteighthblock" unicode="&#x2595;" 
d="M1139 1583h164v-2048h-164v2048z" />
    <glyph glyph-name="dnleftquadrant" unicode="&#x2596;" 
d="M0 559h652v-1024h-652v1024z" />
    <glyph glyph-name="dnrightquadrant" unicode="&#x2597;" 
d="M652 559h651v-1024h-651v1024z" />
    <glyph glyph-name="upleftquadrant" unicode="&#x2598;" 
d="M0 1583h652v-1024h-652v1024z" />
    <glyph glyph-name="upleftdnleftdnrightquadrant" unicode="&#x2599;" 
d="M0 1583h652v-1024h651v-1024h-1303v2048z" />
    <glyph glyph-name="upleftdnrightquadrant" unicode="&#x259a;" 
d="M0 1583h652v-1024h-652v1024zM652 559h651v-1024h-651v1024z" />
    <glyph glyph-name="upleftuprightdnleftquadrant" unicode="&#x259b;" 
d="M0 1583h1303v-1024h-651v-1024h-652v2048z" />
    <glyph glyph-name="upleftuprightdnrightquadrant" unicode="&#x259c;" 
d="M0 1583h1303v-2048h-651v1024h-652v1024z" />
    <glyph glyph-name="uprightquadrant" unicode="&#x259d;" 
d="M652 1583h651v-1024h-651v1024z" />
    <glyph glyph-name="uprightdnleftquadrant" unicode="&#x259e;" 
d="M652 1583h651v-1024h-651v1024zM652 559v-1024h-652v1024h652z" />
    <glyph glyph-name="uprightdnleftdnrightquadrant" unicode="&#x259f;" 
d="M0 559h652v1024h651v-2048h-1303v1024z" />
    <glyph glyph-name="blacksquare" unicode="&#x25a0;" 
d="M93 1303h1117v-1117h-1117v1117z" />
    <glyph glyph-name="H22073" unicode="&#x25a1;" 
d="M279 354h745v782h-745v-782zM93 186v1117h1117v-1117h-1117z" />
    <glyph glyph-name="blacksmallsquare" unicode="&#x25aa;" 
d="M380 1017h543v-544h-543v544z" />
    <glyph glyph-name="whitesmallsquare" unicode="&#x25ab;" 
d="M849 942h-395v-395h395v395zM998 398h-693v693h693v-693z" />
    <glyph glyph-name="triagup" unicode="&#x25b2;" 
d="M1117 372h-931v38l447 893h37l447 -893v-38z" />
    <glyph glyph-name="blackrightpointingpointer" unicode="&#x25ba;" 
d="M186 372v931h37l894 -447v-37l-894 -447h-37z" />
    <glyph glyph-name="blackdownpointingtriangle" unicode="&#x25bc;" 
d="M186 1210h931v-37l-447 -894h-37l-447 894v37z" />
    <glyph glyph-name="triaglf" unicode="&#x25c4;" 
d="M1117 1303v-931h-37l-894 447v37l894 447h37z" />
    <glyph glyph-name="lozenge" unicode="&#x25ca;" 
d="M650 112l404 633l-404 633l-389 -633zM546 0l-472 745l472 744h197l488 -744l-488 -745h-197z" />
    <glyph glyph-name="circle" unicode="&#x25cb;" 
d="M1056 746.5q0 185.5 -112 305.5q-113 117 -292 117t-289 -119t-110 -304t110 -303q110 -119 289 -119t292 117q112 120 112 305.5zM233 326q-166 162 -166 419.5t166 423.5t423.5 166t419.5 -166q166 -166 166 -423.5t-166 -419.5q-162 -166 -419.5 -166t-423.5 166z" />
    <glyph glyph-name="H18533" unicode="&#x25cf;" 
d="M233 326q-166 162 -166 419.5t166 423.5t423.5 166t419.5 -166q166 -166 166 -423.5t-166 -419.5q-162 -166 -419.5 -166t-423.5 166z" />
    <glyph glyph-name="whitebullet" unicode="&#x25e6;" 
d="M415 674q0 -160 237.5 -160t237.5 160v134q0 91 -69 128q-61 38 -233.5 38t-172.5 -166v-134zM1039 674q0 -150 -103 -229q-98 -80 -283 -80q-280 0 -333.5 117.5t-53.5 191.5v134q0 154 103 233q100 82 284.5 82t284.5 -80t101 -235v-134z" />
    <glyph glyph-name="uni2619" unicode="&#x2619;" 
d="M128 534q0 306 248 306h24l194 -499h63v471h80q205 0 236.5 -95t31.5 -170v-350q0 -267 -152.5 -435t-387.5 -168t-346.5 115t-107.5 298l164 -9q0 -169 62.5 -198t99.5 -29q117 0 117 121v71l-326 400v171zM914 951h-523q-343 0 -326 397l158 -4q-26 -225 159 -225h128
v140q0 240 160 287.5t263 47.5l20 -157q-142 0 -201 -42.5t-59 -163.5v-112h223q162 0 258.5 -111t78.5 -314l-158 4q8 116 -42.5 184.5t-138.5 68.5z" />
    <glyph glyph-name="female" unicode="&#x2640;" 
d="M899 726q93 99 93 260.5t-93 260.5q-97 99 -250.5 99t-245.5 -98t-92 -259.5t93 -262.5q97 -99 248.5 -99t246.5 99zM735 -372h-167v372h-382v168h382v303q-198 27 -318 167q-120 141 -120 358q0 218 146 365t374.5 147t377.5 -145q145 -149 145 -367t-120 -358
q-120 -141 -318 -167v-303h382v-168h-382v-372z" />
    <glyph glyph-name="male" unicode="&#x2642;" 
d="M769 223q93 99 93 260t-93 262q-96 98 -250.5 98t-246.5 -98q-91 -98 -91 -259.5t93 -262.5q96 -98 247.5 -98t247.5 98zM886 869q157 -149 157 -381q-1 -232 -147 -378t-376 -146.5t-373 146.5q-147 143 -147 373t146 376t375 146q136 0 240 -52l336 388h-481v148h734
v-742h-149v512z" />
    <glyph glyph-name="spade" unicode="&#x2660;" 
d="M968 168v-168h-633v168h224l24 484h-51l-104 -280h-98q-132 0 -203 83t-71 208v171l527 655h138l526 -655v-171q0 -198 -103 -244.5t-170 -46.5h-99l-104 280h-50l24 -484h223z" />
    <glyph glyph-name="club" unicode="&#x2663;" 
d="M387 1123q0 160 72 273q72 112 194 112t192 -115q71 -110 71 -270l-128 -198l48 -52q43 61 97 99q44 35 96 35q101 0 174.5 -77t73.5 -222q0 -146 -108 -254q-105 -113 -277 -113l-91 320h-77l21 -493h227v-168h-641v168h228l20 493h-76l-92 -320q-169 0 -279 106
q-106 106 -106 254t74 221q74 72 181 72q106 0 186 -121l49 52z" />
    <glyph glyph-name="heart" unicode="&#x2665;" 
d="M789 1385q83 104 209.5 104t196.5 -115q73 -111 52 -268l-37 -320l-452 -786h-212l-453 786l-37 320q-19 160 56 268q75 115 207.5 115t209.5 -100t97 -328h52q18 214 111 324z" />
    <glyph glyph-name="diamond" unicode="&#x2666;" 
d="M544 0l-471 745l471 744h197l488 -744l-488 -745h-197z" />
    <glyph glyph-name="musicalnote" unicode="&#x266a;" 
d="M1005 820q0 52 -31.5 97.5t-149 118t-154.5 118.5v-871q0 -131 -97 -216.5t-243 -85.5q-182 0 -215 81t-33 148.5t84.5 140.5t222.5 73h132v1084h125q7 -73 57.5 -110t195 -125.5t213 -172t68.5 -212.5q0 -187 -84.5 -278t-131.5 -132l-95 107q101 81 118.5 132t17.5 103
z" />
    <glyph glyph-name="uni26A1" unicode="&#x26a1;" 
d="M507 692l532 116l54 -84l-715 -1050l-89 45l483 864l-537 -114l-54 78l670 1041l89 -43z" />
    <glyph glyph-name="checkmark" unicode="&#x2713;" 
d="M1279 1489q-460 -691 -661 -1489h-233l-359 905h186l293 -769q97 383 203 630q107 248 196.5 410.5t193.5 312.5h181z" />
    <glyph glyph-name="uni2767" unicode="&#x2767;" 
d="M832 -108q0 -121 118 -121q158 0 162 227l163 9q4 -183 -108 -298t-347 -115t-387 168t-152 435v350q0 209 151 251q50 14 117 14h80v-471h64l193 499h24q248 0 248 -306v-171l-326 -400v-71zM372 951q-88 0 -138 -69t-42 -184l-158 -4q-18 205 78 315q97 110 259 110
h223v112q0 121 -61 163q-61 43 -200 43l21 157q306 0 394 -195q28 -62 28 -140v-140h129q184 0 158 225l158 4q17 -397 -325 -397h-524z" />
    <glyph glyph-name="a.salt_ss" unicode="&#xe000;" 
d="M531 -19q-156 0 -250.5 118.5t-94.5 343.5v155q0 233 151 385.5t368 152.5t412 -73v-1063h-186v223h-56q-122 -242 -344 -242zM376 443q0 -285 201 -285q169 0 354 233v553q-113 28 -241 28t-221 -95t-93 -283v-151z" />
    <glyph glyph-name="agrave.salt_ss" unicode="&#xe001;" 
d="M531 -19q-157 1 -251 119t-94 343v155q0 234 151 386t364 152t416 -73v-1063h-186v223h-56q-122 -242 -344 -242zM376 443q0 -285 201 -285q169 0 354 233v553q-104 26 -237 27q-132 1 -225 -94t-93 -283v-151zM672 1303l-363 373h279l254 -373h-170z" />
    <glyph glyph-name="aacute.salt_ss" unicode="&#xe002;" 
d="M531 -19q-157 1 -251 119t-94 343v155q0 234 151 386t364 152t416 -73v-1063h-186v223h-56q-122 -242 -344 -242zM376 443q0 -285 201 -285q169 0 354 233v553q-104 26 -237 27q-132 1 -225 -94t-93 -283v-151zM551 1303l253 373h280l-363 -373h-170z" />
    <glyph glyph-name="acircumflex.salt_ss" unicode="&#xe003;" 
d="M531 -19q-157 1 -251 119t-94 343v155q0 234 151 386t364 152t416 -73v-1063h-186v223h-56q-122 -242 -344 -242zM376 443q0 -285 201 -285q169 0 354 233v553q-104 26 -237 27q-132 1 -225 -94t-93 -283v-151zM348 1311l-71 119l324 277h134l328 -277l-71 -119l-324 216
z" />
    <glyph glyph-name="atilde.salt_ss" unicode="&#xe004;" 
d="M531 -19q-157 1 -251 119t-94 343v155q0 234 151 386t364 152t416 -73v-1063h-186v223h-56q-122 -242 -344 -242zM376 443q0 -285 201 -285q169 0 354 233v553q-104 26 -237 27q-132 1 -225 -94t-93 -283v-151zM832 1480q86 0 86 175v21h143v-28q0 -141 -63 -234
q-64 -92 -181 -92q-63 0 -107 34t-78 73t-62 73t-62 34q-88 0 -85 -175v-20h-144v27q-1 140 63 233t177 93t198 -106q32 -40 58 -74t57 -34z" />
    <glyph glyph-name="adieresis.salt_ss" unicode="&#xe005;" 
d="M531 -19q-157 1 -251 119t-94 343v155q0 234 151 386t364 152t416 -73v-1063h-186v223h-56q-122 -242 -344 -242zM376 443q0 -285 201 -285q169 0 354 233v553q-104 26 -237 27q-132 1 -225 -94t-93 -283v-151zM883 1322q-53 0 -87 22t-33 84v13q0 63 34 87q33 24 87 23
q54 0 88 -23t33 -87v-13q0 -61 -34 -84q-35 -22 -88 -22zM455 1322q-53 0 -87 22t-33 84v13q0 63 34 87q33 24 87 23q54 0 88 -23t33 -87v-13q0 -61 -34 -84q-35 -22 -88 -22z" />
    <glyph glyph-name="aring.salt_ss" unicode="&#xe006;" 
d="M531 -19q-157 1 -251 119t-94 343v155q0 234 151 386t364 152t416 -73v-1063h-186v223h-56q-122 -242 -344 -242zM376 443q0 -285 201 -285q169 0 354 233v553q-104 26 -237 27q-132 1 -225 -94t-93 -283v-151zM823 1605q0 143 -153 143q-76 0 -114 -34t-38 -109v-60
q0 -73 38 -105t113 -32t115 31q39 32 39 106v60zM670 1275q-134 0 -216 66t-82 204v60q0 139 82 207t216 68t216 -68t82 -207v-60q0 -138 -82 -204t-216 -66z" />
    <glyph glyph-name="amacron.salt_ss" unicode="&#xe007;" 
d="M531 -19q-157 1 -251 119t-94 343v155q0 234 151 386t364 152t416 -73v-1063h-186v223h-56q-122 -242 -344 -242zM376 443q0 -285 201 -285q169 0 354 233v553q-104 26 -237 27q-132 1 -225 -94t-93 -283v-151zM298 1406v167h745v-167h-745z" />
    <glyph glyph-name="abreve.salt_ss" unicode="&#xe008;" 
d="M531 -19q-157 1 -251 119t-94 343v155q0 234 151 386t364 152t416 -73v-1063h-186v223h-56q-122 -242 -344 -242zM376 443q0 -285 201 -285q169 0 354 233v553q-104 26 -237 27q-132 1 -225 -94t-93 -283v-151zM670 1290q-182 0 -306 88t-126 303h186q2 -134 63 -189
t183 -55t184 55q61 55 62 189h186q-2 -215 -126 -303t-306 -88z" />
    <glyph glyph-name="aogonek.salt_ss" unicode="&#xe009;" 
d="M531 -19q-157 1 -251 119t-94 343v155q0 234 151 386t364 152t416 -73v-1063h-76q-54 -57 -54 -127q0 -106 132 -106q85 0 166 19v-168q-100 -20 -202 -19t-183 59t-81 165q0 106 112 197v203h-56q-122 -242 -344 -242zM376 443q0 -285 201 -285q169 0 354 233v553
q-104 26 -237 27q-132 1 -225 -94t-93 -283v-151z" />
    <glyph glyph-name="acyrillic.salt_ss" unicode="&#xe00a;" 
d="M531 -19q-157 1 -251 119t-94 343v155q0 234 151 386t364 152t416 -73v-1063h-186v223h-56q-122 -242 -344 -242zM376 443q0 -285 201 -285q169 0 354 233v553q-104 26 -237 27q-132 1 -225 -94t-93 -283v-151z" />
    <glyph glyph-name="g.salt_ss" unicode="&#xe00b;" 
d="M676 1136q237 0 441 -116v-957q0 -212 -140.5 -331t-393.5 -119q-170 0 -339 59l35 164q167 -54 318 -54t242.5 73.5t91.5 204.5v219h-56q-48 -97 -134 -151t-192 -54q-173 0 -268 112t-95 313v210q0 201 126.5 314t363.5 113zM372 501q0 -250 224 -250q177 0 335 196
v454q-124 71 -263 71q-296 0 -296 -266v-205z" />
    <glyph glyph-name="gcircumflex.salt_ss" unicode="&#xe00c;" 
d="M676 1136q236 0 441 -116v-957q-1 -212 -141 -331t-393 -119q-164 0 -339 59l35 164q167 -54 318 -54t243 74q91 74 91 204v219h-56q-48 -97 -134 -151t-192 -54q-173 0 -268 112t-95 313v210q0 201 127 314t363 113zM372 501q0 -250 224 -250q177 0 335 196v454
q-124 71 -263 71q-296 0 -296 -266v-205zM330 1311l-71 119l324 277h134l327 -277l-70 -119l-324 216z" />
    </font>
</defs>
</svg>
