<?xml version="1.0" standalone="yes"?><svg version="1.1" xmlns = 'http://www.w3.org/2000/svg'><defs><font id='web' horiz-adv-x="1000">
<font-face font-family="web" descent="-250" cap-height="800" units-per-em="1100" bbox="-215,-450,1225,1400" x-height="600" ascent="850" />
<missing-glyph horiz-adv-x="662" d="M 50 -250 L 50 850 L 612 850 L 612 -250 L 50 -250 Z M 150 -150 L 512 -150 L 512 750 L 150 750 L 150 -150 Z" /><glyph horiz-adv-x="331" d="" unicode=" " />
<glyph horiz-adv-x="331" d="" unicode=" " />
<glyph horiz-adv-x="662" d="" unicode=" " />
<glyph horiz-adv-x="220" d="" unicode=" " />
<glyph horiz-adv-x="166" d="" unicode=" " />
<glyph horiz-adv-x="662" d="M 295 82 C 323 82 352 92 380 112 C 408 132 436 162 466 203 L 466 510 C 449 514 432 518 414 521 C 396 523 378 525 358 525 C 310 525 271 508 242 475 C 212 442 198 392 198 326 L 198 232 C 198 182 206 144 222 119 C 238 94 262 82 295 82 Z M 269 -10 C 217 -10 175 10 145 52 C 115 94 100 154 100 233 L 100 328 C 100 412 124 480 173 532 C 221 584 285 610 363 610 C 398 610 433 606 467 600 C 501 593 532 584 562 572 L 562 0 L 466 0 L 466 113 L 438 113 C 420 73 396 43 368 22 C 340 0 307 -10 269 -10 Z M 341 686 C 296 686 260 697 233 721 C 205 744 192 780 192 830 L 192 862 C 192 912 205 949 233 973 C 260 997 296 1009 341 1009 C 385 1009 421 997 449 973 C 476 949 490 912 490 862 L 490 830 C 490 780 476 744 449 721 C 421 697 385 686 341 686 Z M 341 755 C 365 755 384 760 397 772 C 409 784 416 803 416 830 L 416 862 C 416 888 409 908 397 921 C 384 933 365 940 341 940 C 316 940 297 933 285 921 C 272 908 266 888 266 862 L 266 830 C 266 803 272 784 285 772 C 297 760 316 755 341 755 Z" unicode="" />
<glyph horiz-adv-x="662" d="" unicode=" " />
<glyph horiz-adv-x="662" d="M 295 82 C 323 82 352 92 380 112 C 408 132 436 162 466 203 L 466 510 C 449 514 432 518 414 521 C 396 523 378 525 358 525 C 310 525 271 508 242 475 C 212 442 198 392 198 326 L 198 232 C 198 182 206 144 222 119 C 238 94 262 82 295 82 Z M 269 -10 C 217 -10 175 10 145 52 C 115 94 100 154 100 233 L 100 328 C 100 412 124 480 173 532 C 221 584 285 610 363 610 C 398 610 433 606 467 600 C 501 593 532 584 562 572 L 562 0 L 466 0 L 466 113 L 438 113 C 420 73 396 43 368 22 C 340 0 307 -10 269 -10 Z M 341 693 C 278 693 227 709 187 742 C 147 774 126 827 126 901 L 221 901 C 221 853 231 819 251 799 C 271 779 301 770 341 770 C 381 770 410 779 430 799 C 450 819 460 853 461 901 L 556 901 C 555 827 535 774 495 742 C 455 709 403 693 341 693 Z" unicode="" />
<glyph horiz-adv-x="110" d="" unicode=" " />
<glyph horiz-adv-x="66" d="" unicode=" " />
<glyph horiz-adv-x="662" d="M 304 132 C 333 132 361 140 388 157 C 415 174 441 199 466 233 L 466 489 C 446 501 426 510 405 516 C 383 522 361 525 339 525 C 291 525 256 513 232 490 C 208 466 196 432 196 386 L 196 262 C 196 219 205 187 223 165 C 241 143 268 132 304 132 Z M 562 551 L 562 24 C 562 -48 538 -104 491 -146 C 444 -187 379 -208 297 -208 C 271 -208 243 -205 213 -199 C 183 -193 154 -186 128 -176 L 145 -91 C 169 -99 195 -106 223 -112 C 250 -117 275 -120 299 -120 C 351 -120 391 -107 421 -82 C 451 -56 466 -22 466 22 L 466 143 L 438 143 C 423 110 401 85 373 67 C 344 49 312 40 278 40 C 222 40 178 59 147 99 C 115 138 100 192 100 261 L 100 388 C 100 457 121 511 163 551 C 205 590 264 610 339 610 C 377 610 415 604 455 594 C 495 584 530 569 562 551 Z" unicode="" />
<glyph horiz-adv-x="662" d="M 304 132 C 333 132 361 140 388 157 C 415 174 441 199 466 233 L 466 489 C 446 501 426 510 405 516 C 383 522 361 525 339 525 C 291 525 256 513 232 490 C 208 466 196 432 196 386 L 196 262 C 196 219 205 187 223 165 C 241 143 268 132 304 132 Z M 562 551 L 562 24 C 562 -48 538 -104 491 -146 C 444 -187 379 -208 297 -208 C 271 -208 243 -205 213 -199 C 183 -193 154 -186 128 -176 L 145 -91 C 169 -99 195 -106 223 -112 C 250 -117 275 -120 299 -120 C 351 -120 391 -107 421 -82 C 451 -56 466 -22 466 22 L 466 143 L 438 143 C 423 110 401 85 373 67 C 344 49 312 40 278 40 C 222 40 178 59 147 99 C 115 138 100 192 100 261 L 100 388 C 100 457 121 511 163 551 C 205 590 264 610 339 610 C 377 610 415 604 455 594 C 495 584 530 569 562 551 Z M 172 708 L 133 768 L 296 916 L 366 916 L 531 768 L 492 708 L 331 822 L 172 708 Z" unicode="" />
<glyph horiz-adv-x="662" d="M 304 132 C 333 132 361 140 388 157 C 415 174 441 199 466 233 L 466 489 C 446 501 426 510 405 516 C 383 522 361 525 339 525 C 291 525 256 513 232 490 C 208 466 196 432 196 386 L 196 262 C 196 219 205 187 223 165 C 241 143 268 132 304 132 Z M 562 551 L 562 24 C 562 -48 538 -104 491 -146 C 444 -187 379 -208 297 -208 C 271 -208 243 -205 213 -199 C 183 -193 154 -186 128 -176 L 145 -91 C 169 -99 195 -106 223 -112 C 250 -117 275 -120 299 -120 C 351 -120 391 -107 421 -82 C 451 -56 466 -22 466 22 L 466 143 L 438 143 C 423 110 401 85 373 67 C 344 49 312 40 278 40 C 222 40 178 59 147 99 C 115 138 100 192 100 261 L 100 388 C 100 457 121 511 163 551 C 205 590 264 610 339 610 C 377 610 415 604 455 594 C 495 584 530 569 562 551 Z M 332 711 C 308 711 288 715 274 723 C 259 731 252 745 252 767 L 252 774 C 252 796 259 811 274 819 C 288 827 308 832 332 832 C 356 832 375 827 390 819 C 404 811 412 796 412 774 L 412 767 C 412 745 404 731 389 723 C 374 715 355 711 332 711 Z" unicode="" />
<glyph horiz-adv-x="662" d="M 424 300 L 396 800 L 528 800 L 500 300 L 424 300 Z M 162 300 L 135 800 L 266 800 L 239 300 L 162 300 Z M 463 -10 C 447 -10 434 -8 423 -5 C 411 -1 402 3 395 10 C 387 17 382 26 378 36 C 374 46 373 59 373 74 L 373 102 C 373 116 374 129 378 140 C 382 151 387 160 395 167 C 402 174 411 179 423 183 C 434 186 447 188 463 188 C 478 188 491 186 503 183 C 514 179 523 174 531 167 C 538 160 543 151 547 140 C 551 129 553 116 553 102 L 553 74 C 553 59 551 46 547 36 C 543 26 538 17 531 10 C 523 3 514 -1 503 -5 C 491 -8 478 -10 463 -10 Z M 202 -10 C 186 -10 173 -8 161 -5 C 149 -1 140 3 133 10 C 125 17 120 26 116 36 C 112 46 111 59 111 74 L 111 102 C 111 116 112 129 116 140 C 120 151 125 160 133 167 C 140 174 149 179 161 183 C 173 186 186 188 202 188 C 217 188 230 186 242 183 C 253 179 262 174 270 167 C 277 160 282 151 286 140 C 289 129 291 116 291 102 L 291 74 C 291 59 289 46 285 36 C 281 26 276 17 269 10 C 261 3 252 -1 241 -5 C 230 -8 217 -10 202 -10 Z" unicode="‼" />
<glyph horiz-adv-x="662" d="M 74 302 L 74 398 L 588 398 L 588 302 L 74 302 Z" unicode="‐" />
<glyph horiz-adv-x="662" d="M 74 302 L 74 398 L 588 398 L 588 302 L 74 302 Z" unicode="‑" />
<glyph horiz-adv-x="662" d="M 100 0 L 100 87 L 283 87 L 283 513 L 100 513 L 100 600 L 380 600 L 380 87 L 562 87 L 562 0 L 100 0 Z M 330 700 L 149 900 L 292 900 L 415 700 L 330 700 Z" unicode="" />
<glyph horiz-adv-x="662" d="M 99 302 L 99 398 L 563 398 L 563 302 L 99 302 Z" unicode="–" />
<glyph horiz-adv-x="662" d="M 10 302 L 10 398 L 652 398 L 652 302 L 10 302 Z" unicode="—" />
<glyph horiz-adv-x="662" d="M 10 302 L 10 398 L 652 398 L 652 302 L 10 302 Z" unicode="―" />
<glyph horiz-adv-x="662" d="M 100 0 L 100 87 L 283 87 L 283 513 L 100 513 L 100 600 L 380 600 L 380 87 L 562 87 L 562 0 L 100 0 Z M 403 710 C 380 710 361 716 347 728 C 333 740 320 753 310 768 C 299 782 289 796 280 808 C 271 820 261 826 250 826 C 238 826 228 819 220 805 C 212 791 208 767 209 731 L 209 720 L 135 720 L 135 735 C 135 785 145 826 166 859 C 187 892 217 909 257 909 C 281 909 301 903 316 891 C 330 879 343 865 354 851 C 364 836 374 823 382 811 C 390 799 399 793 410 793 C 422 793 432 799 440 813 C 448 827 452 852 452 888 L 452 899 L 525 899 L 525 884 C 525 833 514 791 493 759 C 472 726 442 710 403 710 Z" unicode="" />
<glyph horiz-adv-x="662" d="M 74 0 L 74 96 L 588 96 L 588 0 L 74 0 Z M 74 -195 L 74 -99 L 588 -99 L 588 -195 L 74 -195 Z" unicode="‗" />
<glyph horiz-adv-x="662" d="M 192 403 L 400 800 L 479 800 L 379 403 L 192 403 Z" unicode="‘" />
<glyph horiz-adv-x="662" d="M 183 403 L 283 800 L 470 800 L 262 403 L 183 403 Z" unicode="’" />
<glyph horiz-adv-x="662" d="M 197 -203 L 279 195 L 466 195 L 276 -203 L 197 -203 Z" unicode="‚" />
<glyph horiz-adv-x="662" d="M 377 403 L 169 800 L 357 800 L 457 403 L 377 403 Z" unicode="‛" />
<glyph horiz-adv-x="662" d="M 332 403 L 540 800 L 611 800 L 511 403 L 332 403 Z M 52 403 L 260 800 L 331 800 L 231 403 L 52 403 Z" unicode="“" />
<glyph horiz-adv-x="662" d="M 331 403 L 431 800 L 609 800 L 402 403 L 331 403 Z M 51 403 L 151 800 L 330 800 L 122 403 L 51 403 Z" unicode="”" />
<glyph horiz-adv-x="662" d="M 265 -202 L 365 195 L 543 195 L 336 -202 L 265 -202 Z M -15 -202 L 85 195 L 264 195 L 56 -202 L -15 -202 Z" unicode="„" />
<glyph horiz-adv-x="662" d="M 295 82 C 323 82 352 92 380 112 C 408 132 436 162 466 203 L 466 510 C 449 514 432 518 414 521 C 396 523 378 525 358 525 C 310 525 271 508 242 475 C 212 442 198 392 198 326 L 198 232 C 198 182 206 144 222 119 C 238 94 262 82 295 82 Z M 269 -10 C 217 -10 175 10 145 52 C 115 94 100 154 100 233 L 100 328 C 100 412 124 480 173 532 C 221 584 285 610 363 610 C 398 610 433 606 467 600 C 501 593 532 584 562 572 L 562 0 L 466 0 L 466 113 L 438 113 C 420 73 396 43 368 22 C 340 0 307 -10 269 -10 Z M 235 711 C 216 711 201 715 190 723 C 178 731 173 745 173 767 L 173 774 C 173 796 178 811 190 819 C 201 827 216 832 235 832 C 253 832 268 827 279 819 C 290 811 296 796 296 774 L 296 767 C 296 745 290 731 279 723 C 267 715 253 711 235 711 Z M 447 711 C 428 711 413 715 402 723 C 391 731 386 745 386 767 L 386 774 C 386 796 391 811 402 819 C 413 827 428 832 447 832 C 465 832 480 827 492 819 C 503 811 509 796 509 774 L 509 767 C 509 745 503 731 491 723 C 479 715 465 711 447 711 Z" unicode="" />
<glyph horiz-adv-x="662" d="" unicode=" " />
<glyph horiz-adv-x="662" d="M 294 300 L 266 800 L 400 800 L 373 300 L 294 300 Z M 335 -10 C 303 -10 279 -3 265 10 C 250 24 243 45 243 74 L 243 102 C 243 131 250 153 265 167 C 279 181 303 188 335 188 C 366 188 389 181 403 167 C 417 153 425 131 425 102 L 425 74 C 425 45 417 24 403 10 C 388 -3 365 -10 335 -10 Z" unicode="!" />
<glyph horiz-adv-x="662" d="M 424 403 L 396 800 L 547 800 L 519 403 L 424 403 Z M 143 403 L 115 800 L 266 800 L 238 403 L 143 403 Z" unicode="&#x22;" />
<glyph horiz-adv-x="662" d="M 390 289 L 400 511 L 273 511 L 263 289 L 390 289 Z M 376 0 L 386 202 L 258 202 L 249 0 L 163 0 L 173 202 L 53 202 L 53 289 L 177 289 L 187 511 L 53 511 L 53 598 L 191 598 L 200 800 L 286 800 L 276 598 L 404 598 L 413 800 L 499 800 L 489 598 L 609 598 L 609 511 L 486 511 L 476 289 L 609 289 L 609 202 L 471 202 L 462 0 L 376 0 Z" unicode="#" />
<glyph horiz-adv-x="662" d="M 185 570 C 185 543 193 521 210 504 C 227 487 258 471 303 456 L 303 669 C 265 667 236 659 216 645 C 195 631 185 606 185 570 Z M 481 231 C 481 258 472 280 455 297 C 437 314 406 330 360 346 L 360 124 C 396 125 426 134 448 152 C 470 169 481 195 481 231 Z M 369 -50 L 293 -50 L 293 47 C 255 50 219 57 183 69 C 147 81 117 96 93 115 L 121 194 C 147 175 177 160 209 149 C 241 137 272 130 303 127 L 303 363 C 227 384 174 410 144 441 C 114 472 99 514 99 566 C 99 624 115 668 147 700 C 179 731 228 749 293 753 L 293 850 L 369 850 L 369 752 C 402 748 434 742 465 732 C 496 722 522 710 544 696 L 516 615 C 492 629 467 640 440 649 C 413 657 386 663 360 666 L 360 438 C 437 415 491 388 522 358 C 553 327 569 287 569 237 C 569 179 551 133 517 101 C 482 68 433 49 369 45 L 369 -50 Z" unicode="$" />
<glyph horiz-adv-x="662" d="M 194 455 C 150 455 114 467 87 493 C 59 518 46 557 46 610 L 46 666 C 46 718 59 756 87 782 C 114 807 150 820 194 820 C 238 820 273 807 300 782 C 327 756 341 718 341 666 L 341 610 C 341 557 327 518 300 493 C 273 467 238 455 194 455 Z M 194 532 C 212 532 227 538 238 550 C 249 562 255 581 255 608 L 255 668 C 255 693 249 712 238 724 C 227 736 212 742 194 742 C 175 742 160 736 149 724 C 137 712 132 693 132 668 L 132 608 C 132 581 137 562 149 550 C 160 538 175 532 194 532 Z M 37 200 L 582 660 L 629 602 L 83 142 L 37 200 Z M 469 -22 C 425 -22 389 -9 361 15 C 333 39 320 78 320 130 L 320 190 C 320 242 333 280 361 305 C 389 330 425 343 469 343 C 513 343 548 330 575 305 C 602 280 616 242 616 190 L 616 130 C 616 78 602 39 575 15 C 548 -9 513 -22 469 -22 Z M 469 56 C 487 56 502 61 513 73 C 523 84 529 102 529 128 L 529 192 C 529 217 523 236 513 248 C 502 260 487 266 469 266 C 450 266 435 260 424 248 C 412 236 407 217 407 192 L 407 128 C 407 102 412 84 424 73 C 435 61 450 56 469 56 Z" unicode="%" />
<glyph horiz-adv-x="662" d="M 623 -5 C 587 6 552 21 519 40 C 485 59 454 80 424 104 C 396 69 367 41 336 21 C 305 0 269 -10 227 -10 C 173 -10 130 7 96 43 C 62 78 46 130 46 198 C 46 252 58 299 84 338 C 109 377 139 407 173 429 C 159 461 148 493 140 523 C 132 553 129 581 129 605 C 129 669 143 720 172 756 C 200 792 242 810 296 810 C 343 810 382 793 412 761 C 442 728 457 689 457 645 C 457 589 442 544 414 510 C 385 476 336 443 268 413 C 273 401 279 390 286 378 C 292 366 299 355 306 345 C 320 321 336 298 354 276 C 372 254 390 233 410 214 C 426 242 442 275 458 311 C 474 347 489 385 503 426 L 583 387 C 566 346 546 308 524 273 C 501 238 477 202 451 164 L 638 84 L 623 -5 Z M 219 600 C 219 579 221 557 226 534 C 230 511 237 488 246 465 C 290 487 322 511 343 537 C 363 563 374 593 374 629 C 374 657 366 680 352 698 C 337 716 319 726 299 726 C 270 726 249 715 237 693 C 225 671 219 640 219 600 Z M 237 75 C 259 75 282 81 304 95 C 326 109 347 128 368 153 C 346 173 325 195 306 218 C 287 240 269 263 253 287 C 243 301 234 315 225 329 C 216 343 208 357 201 371 C 181 351 165 326 154 297 C 142 267 137 237 137 207 C 137 167 145 135 162 111 C 179 87 204 75 237 75 Z" unicode="&#x26;" />
<glyph horiz-adv-x="662" d="M 284 403 L 255 800 L 407 800 L 379 403 L 284 403 Z" unicode="'" />
<glyph horiz-adv-x="662" d="M 516 -210 C 416 -185 337 -128 279 -40 C 220 48 191 162 191 300 C 191 438 220 551 279 640 C 337 728 416 785 516 810 L 526 735 C 445 710 385 659 346 582 C 307 504 288 410 288 300 C 288 188 307 94 346 17 C 385 -60 445 -111 526 -135 L 516 -210 Z" unicode="(" />
<glyph horiz-adv-x="662" d="M 146 -210 L 136 -135 C 217 -111 277 -60 316 17 C 354 95 374 189 374 300 C 374 410 354 504 316 582 C 277 659 217 710 136 735 L 146 810 C 245 785 324 728 383 640 C 441 551 471 438 471 300 C 471 162 441 48 383 -40 C 324 -128 245 -185 146 -210 Z" unicode=")" />
<glyph horiz-adv-x="662" d="M 541 300 L 360 455 L 386 220 L 274 220 L 301 454 L 121 300 L 64 399 L 278 511 L 64 623 L 121 722 L 301 567 L 274 800 L 386 800 L 360 567 L 541 722 L 597 623 L 383 511 L 597 399 L 541 300 Z" unicode="*" />
<glyph horiz-adv-x="662" d="M 284 41 L 284 302 L 74 302 L 74 398 L 284 398 L 284 659 L 379 659 L 379 398 L 588 398 L 588 302 L 379 302 L 379 41 L 284 41 Z" unicode="+" />
<glyph horiz-adv-x="662" d="M 192 -203 L 274 195 L 461 195 L 271 -203 L 192 -203 Z" unicode="," />
<glyph horiz-adv-x="662" d="M 74 302 L 74 398 L 588 398 L 588 302 L 74 302 Z" unicode="-" />
<glyph horiz-adv-x="662" d="M 332 -10 C 300 -10 275 -2 256 12 C 236 26 227 50 227 82 L 227 109 C 227 141 236 165 256 180 C 275 195 300 203 332 203 C 363 203 388 195 407 180 C 426 165 436 141 436 109 L 436 82 C 436 50 426 26 407 12 C 387 -2 362 -10 332 -10 Z" unicode="." />
<glyph horiz-adv-x="662" d="M 100 -200 L 467 800 L 562 800 L 195 -200 L 100 -200 Z" unicode="/" />
<glyph horiz-adv-x="662" d="M 331 -10 C 249 -10 187 19 145 77 C 103 135 82 219 82 331 L 82 465 C 82 577 103 663 146 722 C 188 780 250 810 332 810 C 413 810 475 780 517 722 C 559 663 580 577 580 465 L 580 331 C 580 219 558 135 516 77 C 474 19 412 -10 331 -10 Z M 331 77 C 386 77 425 96 449 135 C 472 174 484 239 484 330 L 484 466 C 484 558 472 623 449 663 C 425 703 386 723 331 723 C 275 723 236 703 213 663 C 189 623 178 558 178 466 L 178 330 C 178 239 189 174 213 135 C 236 96 275 77 331 77 Z M 331 323 C 311 323 295 326 283 334 C 271 341 265 355 265 376 L 265 423 C 265 443 271 456 283 464 C 295 472 311 476 331 476 C 351 476 366 472 378 464 C 390 456 396 443 396 423 L 396 376 C 396 355 390 341 378 334 C 366 326 350 323 331 323 Z" unicode="0" />
<glyph horiz-adv-x="662" d="M 127 0 L 127 87 L 327 87 L 327 683 L 301 683 C 282 646 256 619 222 603 C 188 586 151 581 109 588 L 100 683 C 146 678 189 686 229 706 C 269 726 302 758 330 800 L 424 800 L 424 87 L 606 87 L 606 0 L 127 0 Z" unicode="1" />
<glyph horiz-adv-x="662" d="M 82 0 L 82 170 C 82 232 95 280 121 314 C 147 348 192 375 255 396 L 378 436 C 412 446 436 460 451 477 C 466 494 474 519 474 553 L 474 595 C 474 641 463 673 443 693 C 422 713 385 723 331 723 C 279 723 244 711 224 688 C 204 664 192 618 188 549 L 91 559 C 95 650 116 715 152 753 C 188 791 248 810 330 810 C 411 810 471 793 511 759 C 551 725 571 674 571 606 L 571 538 C 571 488 558 448 532 419 C 506 390 462 366 401 346 L 278 306 C 246 296 221 281 204 263 C 187 244 179 214 179 172 L 179 87 L 580 87 L 580 0 L 82 0 Z" unicode="2" />
<glyph horiz-adv-x="662" d="M 323 -10 C 227 -10 163 8 130 46 C 96 84 77 140 73 216 L 170 226 C 175 165 188 125 208 105 C 228 85 267 75 323 75 C 382 75 423 85 447 107 C 471 128 483 165 483 217 L 483 244 C 483 295 471 331 449 351 C 427 371 387 382 331 382 L 239 382 L 239 469 L 331 469 C 381 469 415 477 435 493 C 455 509 465 537 465 577 L 465 609 C 465 651 454 681 433 699 C 411 716 375 725 323 725 C 276 725 243 715 224 696 C 204 676 192 641 188 589 L 91 599 C 95 674 116 728 154 761 C 192 793 248 810 322 810 C 395 810 453 794 497 762 C 540 730 562 679 562 608 L 562 575 C 562 535 549 503 523 480 C 497 457 463 444 419 441 L 419 412 C 472 407 512 389 539 357 C 566 325 580 287 580 244 L 580 217 C 580 145 560 90 522 50 C 483 10 417 -10 323 -10 Z" unicode="3" />
<glyph horiz-adv-x="662" d="M 177 298 L 419 298 L 419 690 L 177 298 Z M 626 211 L 516 211 L 516 0 L 419 0 L 419 211 L 73 211 L 73 298 L 378 800 L 516 800 L 516 298 L 626 298 L 626 211 Z" unicode="4" />
<glyph horiz-adv-x="662" d="M 328 -10 C 233 -10 168 6 133 38 C 97 70 77 130 73 219 L 170 229 C 174 165 186 124 206 105 C 226 86 267 77 329 77 C 385 77 424 88 448 111 C 471 134 483 168 483 214 L 483 263 C 483 310 473 345 454 367 C 435 389 404 401 360 401 L 100 401 L 100 800 L 544 800 L 544 713 L 197 713 L 197 493 L 364 493 C 435 493 489 474 525 438 C 561 402 580 346 580 271 L 580 205 C 580 139 558 86 516 48 C 473 9 410 -10 328 -10 Z" unicode="5" />
<glyph horiz-adv-x="662" d="M 331 -10 C 245 -10 182 15 142 66 C 102 116 82 186 82 276 L 82 526 C 82 618 103 689 146 737 C 189 785 251 810 333 810 C 407 810 462 795 498 767 C 534 739 559 692 572 628 L 467 605 C 458 647 445 678 428 696 C 410 714 378 723 330 723 C 275 723 236 707 213 677 C 190 647 179 596 179 526 L 179 422 L 196 422 C 212 446 233 465 258 479 C 283 492 316 499 358 499 C 432 499 488 477 525 433 C 561 389 580 332 580 262 L 580 240 C 580 158 558 96 516 54 C 473 11 411 -10 331 -10 Z M 330 77 C 382 77 420 90 444 116 C 468 142 481 182 481 238 L 481 251 C 481 306 468 346 444 372 C 420 398 382 411 330 411 C 278 411 239 398 215 372 C 191 346 179 306 179 251 L 179 238 C 179 182 191 142 215 116 C 239 90 278 77 330 77 Z" unicode="6" />
<glyph horiz-adv-x="662" d="M 237 0 C 271 173 303 306 333 399 C 363 491 413 593 483 703 L 82 703 L 82 800 L 580 800 L 580 703 C 510 578 459 466 426 367 C 393 267 365 145 343 0 L 237 0 Z" unicode="7" />
<glyph horiz-adv-x="662" d="M 331 -10 C 243 -10 180 7 141 41 C 101 75 82 130 82 206 L 82 228 C 82 278 94 320 120 352 C 145 384 180 402 226 407 L 226 436 C 190 439 160 454 136 481 C 112 507 100 543 100 587 L 100 619 C 100 685 118 734 155 764 C 191 794 250 810 331 810 C 412 810 471 794 507 764 C 543 734 562 685 562 619 L 562 587 C 562 543 550 507 526 481 C 502 454 472 439 436 436 L 436 407 C 481 402 516 383 542 351 C 567 319 580 278 580 228 L 580 206 C 580 130 560 75 521 41 C 481 7 418 -10 331 -10 Z M 331 464 C 381 464 415 472 435 490 C 455 507 465 538 465 582 L 465 609 C 465 652 455 682 435 699 C 415 716 381 725 331 725 C 281 725 246 716 226 699 C 206 682 197 652 197 609 L 197 582 C 197 538 206 507 226 490 C 246 472 281 464 331 464 Z M 331 75 C 387 75 427 85 449 106 C 471 126 483 163 483 216 L 483 233 C 483 287 471 324 449 345 C 427 365 387 376 331 376 C 274 376 234 365 212 345 C 190 324 179 287 179 233 L 179 216 C 179 163 190 126 212 106 C 234 85 274 75 331 75 Z" unicode="8" />
<glyph horiz-adv-x="662" d="M 332 389 C 383 389 421 402 446 428 C 470 454 483 494 483 549 L 483 562 C 483 616 470 657 446 683 C 421 709 383 723 332 723 C 280 723 242 709 218 683 C 193 657 181 616 181 562 L 181 549 C 181 494 193 454 218 428 C 242 402 280 389 332 389 Z M 329 -10 C 255 -10 199 4 163 33 C 127 61 102 108 90 172 L 195 195 C 204 149 218 117 237 101 C 256 85 288 77 332 77 C 386 77 424 92 448 123 C 471 153 483 204 483 274 L 483 378 L 466 378 C 450 352 428 333 401 320 C 374 307 341 301 301 301 C 229 301 174 322 137 365 C 100 407 82 465 82 538 L 82 560 C 82 641 103 703 146 746 C 188 788 250 810 331 810 C 416 810 479 784 519 734 C 559 683 580 613 580 524 L 580 274 C 580 185 559 115 519 65 C 478 15 415 -10 329 -10 Z" unicode="9" />
<glyph horiz-adv-x="662" d="M 332 393 C 301 393 276 399 257 413 C 237 426 228 447 228 476 L 228 521 C 228 550 237 571 257 585 C 276 599 301 606 332 606 C 362 606 387 599 406 585 C 425 571 435 550 435 521 L 435 476 C 435 447 425 426 406 413 C 386 399 362 393 332 393 Z M 332 -10 C 301 -10 276 -3 257 10 C 237 23 228 44 228 73 L 228 118 C 228 147 237 168 257 182 C 276 196 301 203 332 203 C 362 203 387 196 406 182 C 425 168 435 147 435 118 L 435 73 C 435 44 425 23 406 10 C 386 -3 362 -10 332 -10 Z" unicode=":" />
<glyph horiz-adv-x="662" d="M 332 393 C 301 393 276 399 257 413 C 237 426 228 447 228 476 L 228 521 C 228 550 237 571 257 585 C 276 599 301 606 332 606 C 362 606 387 599 406 585 C 425 571 435 550 435 521 L 435 476 C 435 447 425 426 406 413 C 386 399 362 393 332 393 Z M 193 -204 L 274 196 L 460 196 L 271 -204 L 193 -204 Z" unicode=";" />
<glyph horiz-adv-x="662" d="M 561 21 L 101 302 L 101 398 L 561 679 L 561 587 L 173 350 L 561 113 L 561 21 Z" unicode="&#x3C;" />
<glyph horiz-adv-x="662" d="M 74 434 L 74 531 L 588 531 L 588 434 L 74 434 Z M 74 169 L 74 266 L 588 266 L 588 169 L 74 169 Z" unicode="=" />
<glyph horiz-adv-x="662" d="M 101 21 L 101 113 L 488 350 L 101 587 L 101 679 L 561 398 L 561 302 L 101 21 Z" unicode="&#x3E;" />
<glyph horiz-adv-x="662" d="M 258 316 L 239 394 C 345 412 416 433 452 457 C 488 480 506 512 506 552 L 506 583 C 506 625 494 659 471 685 C 448 710 402 723 334 723 C 260 723 212 710 191 685 C 170 660 157 615 153 549 L 56 559 C 60 652 82 717 122 754 C 162 791 232 810 333 810 C 430 810 499 790 540 750 C 581 710 602 659 602 595 L 602 548 C 602 478 574 426 520 394 C 466 362 378 336 258 316 Z M 292 -10 C 260 -10 237 -3 223 10 C 208 24 201 45 201 74 L 201 102 C 201 131 208 153 223 167 C 237 181 260 188 292 188 C 323 188 346 181 361 167 C 376 153 384 131 384 102 L 384 74 C 384 45 376 24 361 10 C 345 -3 322 -10 292 -10 Z" unicode="?" />
<glyph horiz-adv-x="662" d="M 388 -110 C 287 -110 211 -82 160 -27 C 108 28 83 103 83 199 L 83 517 C 83 605 104 676 147 730 C 189 783 253 810 339 810 C 416 810 475 783 517 730 C 559 676 580 605 580 517 L 580 273 C 577 219 562 178 535 151 C 508 123 469 110 419 110 C 364 110 324 124 298 154 C 272 184 260 225 260 279 L 260 407 C 260 459 272 500 297 532 C 322 564 353 580 390 580 C 411 580 428 574 441 564 C 454 554 464 542 472 528 L 498 528 C 496 594 483 645 457 681 C 431 717 392 736 338 736 C 276 736 231 716 205 678 C 178 640 165 586 165 517 L 165 199 C 165 125 182 67 217 26 C 251 -14 308 -35 388 -35 C 421 -35 452 -32 482 -27 C 511 -21 537 -15 560 -7 L 560 -83 C 537 -89 510 -95 479 -101 C 448 -107 418 -110 388 -110 Z M 420 190 C 443 190 461 195 475 207 C 488 219 495 244 495 282 L 495 401 C 495 435 487 460 473 476 C 459 492 441 500 420 500 C 396 500 378 492 365 477 C 352 461 346 436 346 400 L 346 288 C 346 252 352 227 364 212 C 376 197 395 190 420 190 Z" unicode="@" />
<glyph horiz-adv-x="662" d="M 430 319 L 331 689 L 230 319 L 430 319 Z M 516 0 L 453 233 L 206 233 L 143 0 L 45 0 L 280 800 L 383 800 L 618 0 L 516 0 Z" unicode="A" />
<glyph horiz-adv-x="662" d="M 99 0 L 99 800 L 330 800 C 406 800 462 784 499 753 C 536 722 555 675 555 612 L 555 566 C 555 532 545 504 527 481 C 509 458 483 444 451 438 L 451 409 C 491 405 524 388 548 359 C 572 330 584 293 584 248 L 584 204 C 584 135 563 84 522 50 C 481 16 419 0 336 0 L 99 0 Z M 196 459 L 337 459 C 379 459 410 467 430 485 C 450 503 460 532 460 572 L 460 599 C 460 639 450 668 430 686 C 410 704 379 713 337 713 L 196 713 L 196 459 Z M 196 87 L 354 87 C 400 87 433 97 455 117 C 476 137 487 170 487 215 L 487 246 C 487 290 476 323 455 343 C 433 363 400 373 354 373 L 196 373 L 196 87 Z" unicode="B" />
<glyph horiz-adv-x="662" d="M 341 -10 C 254 -10 189 13 146 60 C 103 107 82 177 82 271 L 82 525 C 82 619 103 690 146 738 C 189 786 254 810 342 810 C 426 810 488 788 530 745 C 571 701 594 633 599 540 L 502 530 C 496 603 482 653 459 681 C 435 709 396 723 341 723 C 281 723 239 708 215 678 C 191 648 179 598 179 526 L 179 270 C 179 201 191 152 216 122 C 241 92 283 77 341 77 C 397 77 436 90 459 118 C 481 145 496 194 502 266 L 599 256 C 594 164 571 96 530 54 C 488 11 425 -10 341 -10 Z" unicode="C" />
<glyph horiz-adv-x="662" d="M 99 0 L 99 800 L 306 800 C 391 800 458 774 507 722 C 555 670 580 602 580 516 L 580 280 C 580 194 555 126 506 76 C 457 25 390 0 305 0 L 99 0 Z M 196 87 L 304 87 C 364 87 408 104 438 139 C 468 173 483 220 483 279 L 483 517 C 483 576 468 623 438 659 C 408 695 364 713 304 713 L 196 713 L 196 87 Z" unicode="D" />
<glyph horiz-adv-x="662" d="M 99 0 L 99 800 L 580 800 L 580 713 L 196 713 L 196 479 L 534 479 L 534 392 L 196 392 L 196 87 L 580 87 L 580 0 L 99 0 Z" unicode="E" />
<glyph horiz-adv-x="662" d="M 102 0 L 102 800 L 581 800 L 581 713 L 199 713 L 199 397 L 517 397 L 517 311 L 199 311 L 199 0 L 102 0 Z" unicode="F" />
<glyph horiz-adv-x="662" d="M 347 -10 C 261 -10 195 14 150 64 C 104 113 82 182 82 271 L 82 525 C 82 617 104 687 149 736 C 193 785 257 810 341 810 C 417 810 475 789 514 748 C 553 707 575 644 580 559 L 483 549 C 478 612 465 657 443 683 C 421 709 386 723 339 723 C 281 723 239 708 215 678 C 191 648 179 597 179 526 L 179 270 C 179 200 192 151 218 121 C 244 91 287 77 348 77 C 403 77 442 94 466 128 C 489 162 501 219 501 300 L 331 300 L 331 386 L 598 386 L 598 281 C 598 187 576 115 533 65 C 490 15 428 -10 347 -10 Z" unicode="G" />
<glyph horiz-adv-x="662" d="M 99 0 L 99 800 L 196 800 L 196 478 L 466 478 L 466 800 L 563 800 L 563 0 L 466 0 L 466 391 L 196 391 L 196 0 L 99 0 Z" unicode="H" />
<glyph horiz-adv-x="662" d="M 99 0 L 99 87 L 283 87 L 283 713 L 99 713 L 99 800 L 563 800 L 563 713 L 380 713 L 380 87 L 563 87 L 563 0 L 99 0 Z" unicode="I" />
<glyph horiz-adv-x="662" d="M 313 -10 C 230 -10 169 11 129 53 C 89 95 67 163 63 255 L 160 266 C 164 190 177 140 198 115 C 219 89 258 77 314 77 C 364 77 402 91 427 120 C 452 148 465 192 465 252 L 465 713 L 280 713 L 280 800 L 562 800 L 562 253 C 562 167 540 102 498 57 C 456 12 394 -10 313 -10 Z" unicode="J" />
<glyph horiz-adv-x="662" d="M 196 382 L 196 0 L 99 0 L 99 800 L 196 800 L 196 469 L 227 469 L 505 800 L 616 800 L 303 432 L 613 0 L 499 0 L 230 382 L 196 382 Z" unicode="K" />
<glyph horiz-adv-x="662" d="M 145 0 L 145 800 L 242 800 L 242 87 L 563 87 L 563 0 L 145 0 Z" unicode="L" />
<glyph horiz-adv-x="662" d="M 286 197 L 156 646 L 158 0 L 71 0 L 71 800 L 197 800 L 334 316 L 470 800 L 591 800 L 591 0 L 504 0 L 506 646 L 376 197 L 286 197 Z" unicode="M" />
<glyph horiz-adv-x="662" d="M 427 0 L 186 680 L 186 0 L 99 0 L 99 800 L 229 800 L 476 110 L 476 800 L 563 800 L 563 0 L 427 0 Z" unicode="N" />
<glyph horiz-adv-x="662" d="M 331 -10 C 249 -10 187 14 145 62 C 103 110 82 180 82 272 L 82 524 C 82 617 103 688 146 737 C 188 785 250 810 332 810 C 412 810 474 785 516 737 C 558 688 580 617 580 524 L 580 272 C 580 180 558 110 516 62 C 474 14 412 -10 331 -10 Z M 331 77 C 386 77 425 91 448 121 C 471 150 483 200 483 271 L 483 525 C 483 597 471 648 448 678 C 425 708 386 723 331 723 C 275 723 236 708 213 678 C 190 648 179 597 179 525 L 179 271 C 179 200 190 150 213 121 C 236 91 275 77 331 77 Z" unicode="O" />
<glyph horiz-adv-x="662" d="M 99 0 L 99 800 L 359 800 C 437 800 494 782 532 748 C 570 713 589 660 589 589 L 589 494 C 589 422 570 368 532 334 C 494 299 436 282 358 282 L 196 282 L 196 0 L 99 0 Z M 196 367 L 356 367 C 404 367 439 376 460 396 C 481 415 492 448 492 494 L 492 586 C 492 632 481 664 460 684 C 439 703 404 713 356 713 L 196 713 L 196 367 Z" unicode="P" />
<glyph horiz-adv-x="662" d="M 604 -190 C 517 -209 448 -205 397 -178 C 345 -150 319 -95 317 -11 C 240 -8 182 17 142 65 C 102 113 82 181 82 270 L 82 524 C 82 617 103 688 146 737 C 188 785 250 810 332 810 C 413 810 475 785 517 737 C 559 688 580 617 580 524 L 580 270 C 580 194 565 134 537 88 C 508 42 466 12 411 -2 C 413 -53 429 -85 461 -99 C 493 -113 536 -114 590 -104 L 604 -190 Z M 331 83 C 385 83 424 97 448 125 C 471 153 483 201 483 267 L 483 527 C 483 595 471 643 448 673 C 424 702 385 717 331 717 C 276 717 237 702 214 673 C 190 643 179 595 179 527 L 179 267 C 179 201 190 153 214 125 C 237 97 276 83 331 83 Z" unicode="Q" />
<glyph horiz-adv-x="662" d="M 196 396 L 374 396 C 422 396 456 406 477 427 C 498 447 509 481 509 528 L 509 590 C 509 634 498 665 477 684 C 456 703 422 713 374 713 L 196 713 L 196 396 Z M 196 0 L 99 0 L 99 800 L 377 800 C 453 800 511 782 549 747 C 587 712 606 660 606 590 L 606 528 C 606 464 591 414 562 379 C 532 343 488 322 428 315 L 615 0 L 505 0 L 321 312 L 196 312 L 196 0 Z" unicode="R" />
<glyph horiz-adv-x="662" d="M 341 -7 C 287 -7 236 2 188 20 C 140 38 97 69 61 112 L 118 182 C 146 148 179 122 217 105 C 255 88 298 80 346 80 C 392 80 429 91 457 115 C 485 138 499 170 499 211 C 499 248 486 277 462 297 C 438 317 389 340 317 365 C 228 394 167 425 134 458 C 100 491 84 537 84 595 C 84 662 105 714 148 750 C 191 786 246 804 312 804 C 362 804 410 794 456 776 C 502 757 542 727 576 686 L 522 614 C 494 648 461 673 424 691 C 387 708 350 717 312 717 C 272 717 240 707 217 689 C 193 671 182 642 182 604 C 182 568 194 540 220 520 C 245 500 296 477 374 452 C 458 424 516 394 548 362 C 579 330 595 285 595 228 C 595 152 570 94 520 54 C 470 13 410 -7 341 -7 Z" unicode="S" />
<glyph horiz-adv-x="662" d="M 283 0 L 283 713 L 56 713 L 56 800 L 606 800 L 606 713 L 380 713 L 380 0 L 283 0 Z" unicode="T" />
<glyph horiz-adv-x="662" d="M 331 -10 C 253 -10 194 13 156 59 C 118 105 99 176 99 270 L 99 800 L 196 800 L 196 268 C 196 198 206 148 226 119 C 246 90 281 76 331 76 C 380 76 415 90 435 119 C 455 148 466 198 466 268 L 466 800 L 563 800 L 563 270 C 563 176 543 105 505 59 C 467 13 409 -10 331 -10 Z" unicode="U" />
<glyph horiz-adv-x="662" d="M 384 0 L 279 0 L 45 800 L 149 800 L 333 129 L 517 800 L 618 800 L 384 0 Z" unicode="V" />
<glyph horiz-adv-x="662" d="M 437 0 L 331 480 L 226 0 L 130 0 L 31 800 L 126 800 L 190 149 L 284 600 L 382 600 L 476 149 L 541 800 L 631 800 L 532 0 L 437 0 Z" unicode="W" />
<glyph horiz-adv-x="662" d="M 523 0 L 332 323 L 140 0 L 29 0 L 282 408 L 51 800 L 162 800 L 343 494 L 525 800 L 635 800 L 392 409 L 632 0 L 523 0 Z" unicode="X" />
<glyph horiz-adv-x="662" d="M 380 0 L 283 0 L 283 300 L 23 800 L 130 800 L 336 391 L 533 800 L 638 800 L 380 300 L 380 0 Z" unicode="Y" />
<glyph horiz-adv-x="662" d="M 580 0 L 82 0 L 82 87 L 467 713 L 82 713 L 82 800 L 580 800 L 580 713 L 195 87 L 580 87 L 580 0 Z" unicode="Z" />
<glyph horiz-adv-x="662" d="M 191 -200 L 191 800 L 517 800 L 517 713 L 288 713 L 288 -125 L 517 -125 L 517 -200 L 191 -200 Z" unicode="[" />
<glyph horiz-adv-x="662" d="M 467 -200 L 100 800 L 195 800 L 562 -200 L 467 -200 Z" unicode="\" />
<glyph horiz-adv-x="662" d="M 145 -200 L 145 -125 L 374 -125 L 374 713 L 145 713 L 145 800 L 471 800 L 471 -200 L 145 -200 Z" unicode="]" />
<glyph horiz-adv-x="662" d="M 524 200 L 332 685 L 147 200 L 54 200 L 283 800 L 380 800 L 616 200 L 524 200 Z" unicode="^" />
<glyph horiz-adv-x="662" d="M 74 -200 L 74 -104 L 588 -104 L 588 -200 L 74 -200 Z" unicode="_" />
<glyph horiz-adv-x="662" d="M 372 403 L 164 800 L 352 800 L 452 403 L 372 403 Z" unicode="`" />
<glyph horiz-adv-x="662" d="M 265 74 C 297 74 327 80 353 93 C 379 105 401 127 420 157 L 420 256 L 263 256 C 234 256 211 249 194 236 C 176 222 168 199 168 167 C 168 137 175 114 190 98 C 205 82 230 74 265 74 Z M 251 -10 C 201 -10 159 4 125 32 C 90 60 73 103 73 161 C 73 213 89 254 121 284 C 153 314 192 330 239 330 L 420 330 L 420 420 C 420 450 410 475 391 494 C 371 512 342 522 304 522 C 264 522 234 515 215 501 C 195 487 180 459 169 415 L 85 439 C 95 495 119 538 155 567 C 191 595 241 610 303 610 C 364 610 415 595 456 566 C 496 537 517 493 517 433 L 517 155 C 517 121 526 99 544 90 C 562 80 589 79 625 86 L 625 -3 C 583 -9 546 -6 514 6 C 482 19 465 49 462 97 L 443 97 C 426 66 400 40 366 20 C 332 0 293 -10 251 -10 Z" unicode="a" />
<glyph horiz-adv-x="662" d="M 324 -10 C 284 -10 245 -4 206 7 C 167 19 132 35 100 57 L 100 800 L 196 800 L 196 507 L 224 507 C 238 539 260 565 288 583 C 316 601 349 610 385 610 C 441 610 484 590 515 552 C 546 513 562 458 562 387 L 562 212 C 562 141 541 86 499 48 C 457 9 399 -10 324 -10 Z M 324 75 C 372 75 407 86 431 108 C 454 130 466 166 466 214 L 466 388 C 466 432 457 465 439 486 C 421 507 394 518 358 518 C 327 518 298 509 272 493 C 246 476 220 451 196 417 L 196 110 C 215 98 235 89 256 83 C 276 77 299 75 324 75 Z" unicode="b" />
<glyph horiz-adv-x="662" d="M 344 -10 C 262 -10 201 8 161 46 C 120 84 100 138 100 210 L 100 386 C 100 459 120 515 161 553 C 201 591 262 610 343 610 C 414 610 469 593 507 559 C 545 525 567 473 572 405 L 477 400 C 474 444 462 475 440 494 C 418 513 386 523 342 523 C 293 523 256 512 232 490 C 208 468 196 433 196 387 L 196 209 C 196 163 208 130 232 109 C 256 87 293 77 343 77 C 387 77 419 84 441 100 C 463 116 475 142 477 180 L 572 175 C 568 113 547 66 509 36 C 471 5 416 -10 344 -10 Z" unicode="c" />
<glyph horiz-adv-x="662" d="M 304 82 C 334 82 363 90 389 107 C 415 123 441 149 466 183 L 466 486 C 447 499 427 509 406 515 C 385 521 363 525 339 525 C 290 525 254 513 231 491 C 207 468 196 433 196 386 L 196 211 C 196 167 205 134 223 113 C 241 92 268 82 304 82 Z M 438 93 C 423 60 401 35 373 17 C 345 -1 313 -10 277 -10 C 221 -10 177 9 146 49 C 115 88 100 143 100 213 L 100 388 C 100 458 120 512 162 551 C 203 590 261 610 336 610 C 357 610 379 607 401 602 C 423 597 445 590 466 582 L 466 800 L 562 800 L 562 0 L 466 0 L 466 93 L 438 93 Z" unicode="d" />
<glyph horiz-adv-x="662" d="M 565 131 C 548 81 522 45 488 23 C 454 1 402 -10 332 -10 C 259 -10 202 8 161 46 C 120 83 100 138 100 211 L 100 386 C 100 460 121 516 164 554 C 207 591 263 610 332 610 C 401 610 457 591 499 553 C 541 515 562 456 562 378 L 562 281 L 196 281 L 196 211 C 196 161 207 126 229 105 C 251 83 286 73 332 73 C 375 73 406 79 426 93 C 446 107 461 129 472 159 L 565 131 Z M 196 385 L 196 355 L 466 355 L 466 376 C 466 428 454 467 432 491 C 409 515 375 527 331 527 C 286 527 252 515 230 492 C 207 468 196 433 196 385 Z" unicode="e" />
<glyph horiz-adv-x="662" d="M 238 0 L 238 513 L 82 513 L 82 600 L 238 600 L 238 640 C 238 693 257 734 296 764 C 334 793 382 808 439 808 C 468 808 494 805 518 799 C 542 793 562 786 579 780 L 561 698 C 545 704 527 710 507 714 C 487 718 464 721 440 721 C 408 721 382 714 363 702 C 344 690 335 670 335 642 L 335 600 L 562 600 L 562 513 L 335 513 L 335 0 L 238 0 Z" unicode="f" />
<glyph horiz-adv-x="662" d="M 607 -49 C 607 -103 588 -143 552 -170 C 516 -196 471 -210 418 -210 L 246 -210 C 190 -210 144 -198 108 -174 C 72 -150 55 -113 55 -63 C 55 -31 63 -5 79 13 C 95 32 117 43 147 46 L 147 67 C 125 71 108 80 94 96 C 80 111 73 135 73 167 C 73 195 81 221 98 244 C 115 266 143 279 182 283 L 182 302 C 152 312 132 329 121 351 C 110 373 105 393 105 413 L 105 441 C 105 487 123 525 159 555 C 195 585 246 600 312 600 L 586 600 L 586 511 L 443 535 L 443 516 C 467 508 485 494 498 474 C 511 453 518 432 518 412 L 518 385 C 518 339 501 301 468 273 C 434 245 382 231 310 231 L 201 231 C 184 231 171 226 163 217 C 154 208 150 193 150 171 C 150 150 156 134 168 124 C 180 114 197 109 221 109 L 427 109 C 479 109 522 96 556 72 C 590 47 607 7 607 -49 Z M 313 306 C 349 306 377 313 396 328 C 415 342 425 366 425 399 L 425 430 C 425 462 415 485 396 499 C 377 513 349 521 313 521 C 276 521 248 513 229 499 C 210 485 201 462 201 430 L 201 399 C 201 366 210 342 229 328 C 248 313 276 306 313 306 Z M 244 -132 L 429 -132 C 455 -132 477 -126 494 -114 C 511 -102 520 -82 520 -54 C 520 -27 512 -8 497 3 C 482 15 462 21 438 21 L 151 21 L 151 -48 C 151 -76 158 -97 174 -111 C 190 -125 213 -132 244 -132 Z" unicode="g" />
<glyph horiz-adv-x="662" d="M 100 0 L 100 800 L 196 800 L 196 507 L 224 507 C 236 538 257 563 286 582 C 315 600 348 610 386 610 C 440 610 482 592 514 556 C 546 520 562 471 562 411 L 562 0 L 466 0 L 466 392 C 466 433 456 464 438 486 C 420 507 394 518 360 518 C 332 518 304 509 276 493 C 248 476 221 451 196 419 L 196 0 L 100 0 Z" unicode="h" />
<glyph horiz-adv-x="662" d="M 100 0 L 100 87 L 283 87 L 283 513 L 100 513 L 100 600 L 380 600 L 380 87 L 562 87 L 562 0 L 100 0 Z M 332 711 C 308 711 288 715 274 723 C 259 731 252 745 252 767 L 252 774 C 252 796 259 811 274 819 C 288 827 308 832 332 832 C 356 832 375 827 390 819 C 404 811 412 796 412 774 L 412 767 C 412 745 404 731 389 723 C 374 715 355 711 332 711 Z" unicode="i" />
<glyph horiz-adv-x="662" d="M 245 -208 C 221 -208 198 -206 175 -203 C 151 -200 126 -194 100 -186 L 118 -92 C 140 -100 162 -106 182 -109 C 202 -112 221 -114 241 -114 C 281 -114 313 -104 337 -86 C 361 -67 374 -36 374 7 L 374 513 L 118 513 L 118 600 L 471 600 L 471 -6 C 471 -74 449 -125 406 -158 C 362 -191 309 -208 245 -208 Z M 419 711 C 395 711 375 715 361 723 C 346 731 339 745 339 767 L 339 774 C 339 796 346 811 361 819 C 375 827 395 832 419 832 C 443 832 462 827 477 819 C 491 811 499 796 499 774 L 499 767 C 499 745 491 731 476 723 C 461 715 442 711 419 711 Z" unicode="j" />
<glyph horiz-adv-x="662" d="M 240 274 L 240 0 L 143 0 L 143 800 L 240 800 L 240 356 L 286 356 L 461 600 L 577 600 L 362 321 L 574 0 L 464 0 L 286 274 L 240 274 Z" unicode="k" />
<glyph horiz-adv-x="662" d="M 101 0 L 101 87 L 284 87 L 284 713 L 101 713 L 101 800 L 381 800 L 381 87 L 563 87 L 563 0 L 101 0 Z" unicode="l" />
<glyph horiz-adv-x="662" d="M 152 434 L 152 0 L 64 0 L 64 600 L 152 600 L 152 523 L 171 523 C 181 550 196 571 215 587 C 233 602 253 610 275 610 C 299 610 319 602 335 587 C 351 572 362 551 369 523 L 389 523 C 400 550 415 571 435 587 C 455 602 476 610 500 610 C 530 610 554 597 572 571 C 589 545 598 509 598 463 L 598 0 L 510 0 L 510 449 C 510 477 506 498 499 513 C 492 527 482 535 468 535 C 455 535 440 526 424 508 C 408 490 391 466 375 434 L 375 0 L 287 0 L 287 449 C 287 477 283 499 276 513 C 268 527 258 535 244 535 C 231 535 217 526 201 509 C 185 491 169 466 152 434 Z" unicode="m" />
<glyph horiz-adv-x="662" d="M 100 0 L 100 600 L 196 600 L 196 507 L 224 507 C 238 539 260 564 289 582 C 318 600 351 610 387 610 C 441 610 483 592 515 556 C 546 520 562 472 562 410 L 562 0 L 466 0 L 466 391 C 466 433 456 464 438 486 C 420 507 394 518 360 518 C 332 518 304 509 276 492 C 248 475 221 450 196 418 L 196 0 L 100 0 Z" unicode="n" />
<glyph horiz-adv-x="662" d="M 331 -10 C 257 -10 200 9 160 47 C 120 85 100 139 100 210 L 100 386 C 100 457 120 512 160 551 C 200 590 257 610 332 610 C 405 610 462 590 502 551 C 542 512 562 457 562 386 L 562 211 C 562 139 542 85 502 47 C 462 9 405 -10 331 -10 Z M 331 77 C 376 77 410 87 432 109 C 454 130 466 164 466 210 L 466 386 C 466 432 454 467 432 489 C 410 511 376 523 331 523 C 285 523 251 511 229 489 C 207 467 196 432 196 386 L 196 210 C 196 164 207 130 229 109 C 251 87 285 77 331 77 Z" unicode="o" />
<glyph horiz-adv-x="662" d="M 324 75 C 372 75 408 86 431 108 C 454 130 466 166 466 214 L 466 390 C 466 434 457 466 439 487 C 421 507 394 518 358 518 C 327 518 299 509 273 493 C 247 477 221 451 196 417 L 196 114 C 214 101 234 91 255 85 C 275 78 298 75 324 75 Z M 326 -10 C 305 -10 283 -7 261 -2 C 238 2 216 9 196 18 L 196 -200 L 100 -200 L 100 600 L 196 600 L 196 507 L 224 507 C 238 539 260 564 289 582 C 317 600 349 610 385 610 C 440 610 483 590 515 550 C 546 510 562 456 562 387 L 562 212 C 562 143 541 89 499 49 C 457 9 399 -10 326 -10 Z" unicode="p" />
<glyph horiz-adv-x="662" d="M 466 -200 L 466 93 L 438 93 C 422 59 400 34 372 16 C 344 -1 312 -10 277 -10 C 220 -10 176 9 146 48 C 115 86 100 141 100 213 L 100 388 C 100 459 122 514 167 552 C 211 590 268 610 338 610 C 378 610 418 604 457 594 C 495 584 530 569 562 551 L 562 -200 L 466 -200 Z M 304 82 C 334 82 362 90 389 107 C 415 123 441 149 466 183 L 466 490 C 446 502 426 510 405 516 C 384 522 362 525 339 525 C 297 525 262 513 236 490 C 209 467 196 432 196 386 L 196 221 C 196 174 205 139 223 116 C 241 93 268 82 304 82 Z" unicode="q" />
<glyph horiz-adv-x="662" d="M 144 0 L 144 600 L 241 600 L 241 504 L 268 504 C 280 540 300 567 327 584 C 353 601 385 610 423 610 C 465 610 499 595 527 566 C 554 537 568 496 568 443 L 568 351 L 476 351 L 476 408 C 476 446 468 473 453 491 C 438 509 415 518 383 518 C 354 518 328 510 304 495 C 280 479 259 456 241 425 L 241 0 L 144 0 Z" unicode="r" />
<glyph horiz-adv-x="662" d="M 340 -10 C 292 -10 246 -3 202 11 C 158 25 118 46 83 75 L 124 152 C 154 128 187 110 225 97 C 263 83 301 77 340 77 C 374 77 405 82 432 94 C 458 105 472 127 472 160 C 472 190 460 211 437 223 C 413 235 371 247 309 257 C 238 268 186 287 152 313 C 118 339 101 379 101 432 C 101 490 121 534 162 564 C 203 594 253 610 311 610 C 354 610 396 602 437 587 C 478 571 515 550 549 524 L 508 447 C 480 469 449 487 416 501 C 382 515 348 523 312 523 C 280 523 252 516 230 504 C 208 491 197 469 197 439 C 197 410 208 389 231 377 C 253 364 296 353 359 343 C 430 331 483 312 517 284 C 551 256 568 217 568 168 C 568 108 545 63 500 34 C 455 4 402 -10 340 -10 Z" unicode="s" />
<glyph horiz-adv-x="662" d="M 427 -9 C 365 -9 316 7 282 41 C 247 74 230 123 230 187 L 230 513 L 76 513 L 76 600 L 230 600 L 230 800 L 327 800 L 327 600 L 563 600 L 563 513 L 327 513 L 327 197 C 327 159 335 130 353 111 C 371 92 397 83 431 83 C 453 83 475 84 495 88 C 515 91 535 96 553 103 L 572 14 C 552 7 530 1 506 -2 C 482 -6 455 -9 427 -9 Z" unicode="t" />
<glyph horiz-adv-x="662" d="M 276 -10 C 222 -10 180 8 148 45 C 116 81 100 130 100 190 L 100 600 L 196 600 L 196 208 C 196 166 204 134 222 113 C 239 92 266 82 302 82 C 330 82 358 90 386 106 C 413 122 440 147 466 181 L 466 600 L 562 600 L 562 0 L 466 0 L 466 93 L 438 93 C 426 62 405 37 375 18 C 345 0 312 -10 276 -10 Z" unicode="u" />
<glyph horiz-adv-x="662" d="M 392 0 L 270 0 L 76 600 L 180 600 L 332 81 L 484 600 L 585 600 L 392 0 Z" unicode="v" />
<glyph horiz-adv-x="662" d="M 411 0 L 331 392 L 254 0 L 147 0 L 44 600 L 136 600 L 204 77 L 275 501 L 383 501 L 461 93 L 526 600 L 618 600 L 515 0 L 411 0 Z" unicode="w" />
<glyph horiz-adv-x="662" d="M 466 0 L 325 225 L 192 0 L 85 0 L 278 301 L 92 600 L 200 600 L 334 384 L 469 600 L 576 600 L 382 306 L 573 0 L 466 0 Z" unicode="x" />
<glyph horiz-adv-x="662" d="M 172 -206 C 157 -206 142 -205 127 -203 C 111 -201 95 -198 79 -195 L 95 -108 C 111 -112 126 -115 140 -117 C 154 -119 167 -120 179 -120 C 209 -120 235 -111 256 -94 C 276 -77 293 -50 305 -12 L 308 -2 L 268 -2 L 75 600 L 180 600 L 333 81 L 485 600 L 586 600 L 389 -21 C 368 -87 339 -135 302 -163 C 265 -191 222 -206 172 -206 Z" unicode="y" />
<glyph horiz-adv-x="662" d="M 545 0 L 117 0 L 117 87 L 431 513 L 117 513 L 117 600 L 545 600 L 545 513 L 234 87 L 545 87 L 545 0 Z" unicode="z" />
<glyph horiz-adv-x="662" d="M 517 -210 C 385 -212 290 -200 232 -172 C 174 -144 145 -102 145 -44 C 145 -10 151 17 163 40 C 175 62 189 82 204 99 C 219 116 233 132 245 147 C 257 161 264 177 264 194 C 264 225 248 247 218 260 C 187 273 132 281 53 283 L 53 341 C 132 343 187 350 218 363 C 248 375 264 397 264 428 C 264 444 257 459 245 471 C 232 483 218 496 204 511 C 189 525 175 543 163 564 C 151 585 145 613 145 647 C 145 703 174 744 232 772 C 290 800 385 812 517 810 L 517 723 C 415 725 343 719 303 705 C 262 691 242 668 242 636 C 242 620 246 605 256 591 C 266 577 281 560 302 540 C 322 520 336 501 346 485 C 356 468 361 449 361 429 C 361 392 345 364 315 345 C 285 326 240 315 180 313 L 180 308 C 240 301 285 287 315 266 C 345 244 361 214 361 176 C 361 157 356 140 346 124 C 336 108 320 90 299 70 C 279 51 265 34 256 19 C 246 4 242 -13 242 -33 C 242 -67 262 -91 303 -106 C 343 -120 415 -127 517 -125 L 517 -210 Z" unicode="{" />
<glyph horiz-adv-x="662" d="M 288 -200 L 288 800 L 374 800 L 374 -200 L 288 -200 Z" unicode="|" />
<glyph horiz-adv-x="662" d="M 517 -44 C 517 -102 487 -144 429 -172 C 371 -200 276 -212 145 -210 L 145 -125 C 247 -127 318 -120 359 -106 C 399 -91 420 -67 420 -33 C 420 -13 415 4 406 19 C 396 34 382 51 363 70 C 342 90 326 108 316 124 C 306 140 301 157 301 176 C 301 214 316 244 346 266 C 376 287 422 301 482 308 L 482 313 C 422 315 376 326 346 345 C 316 364 301 392 301 429 C 301 449 305 468 315 485 C 325 501 340 520 360 540 C 380 560 395 577 405 591 C 415 605 420 620 420 636 C 420 668 399 691 359 705 C 318 719 247 725 145 723 L 145 810 C 276 812 371 800 429 772 C 487 744 517 703 517 647 C 517 613 510 585 498 564 C 486 543 472 525 458 511 C 443 496 429 483 417 471 C 404 459 398 444 398 428 C 398 397 413 375 444 363 C 474 350 529 343 609 341 L 609 283 C 529 281 474 273 444 260 C 413 247 398 225 398 194 C 398 177 404 161 416 147 C 428 132 442 116 458 99 C 472 82 486 62 498 40 C 510 17 517 -10 517 -44 Z" unicode="}" />
<glyph horiz-adv-x="662" d="M 452 216 C 416 216 387 226 365 248 C 342 269 319 308 297 364 C 277 414 261 447 249 464 C 237 481 223 490 207 490 C 189 490 174 481 164 465 C 154 448 149 419 149 377 L 149 226 L 64 226 L 64 383 C 64 446 78 495 106 531 C 134 566 168 584 209 584 C 245 584 274 573 297 552 C 319 531 342 492 365 435 C 384 385 399 351 411 334 C 423 317 437 309 455 309 C 471 309 485 318 496 336 C 506 354 512 384 512 426 L 512 575 L 597 575 L 597 419 C 597 355 583 305 556 269 C 528 233 494 216 452 216 Z" unicode="~" />
<glyph horiz-adv-x="662" d="M 145 303 L 145 802 L 226 802 L 226 726 L 249 726 C 255 742 263 755 273 766 C 283 777 293 786 305 792 C 316 798 327 803 339 806 C 351 808 363 810 375 810 C 395 810 413 806 431 799 C 448 791 463 781 476 767 C 489 753 499 736 506 716 C 513 696 517 673 517 649 L 517 303 L 437 303 L 437 631 C 437 648 435 663 431 676 C 427 689 421 700 414 709 C 406 717 397 724 387 728 C 377 732 366 734 354 734 C 340 734 328 732 317 728 C 305 724 294 718 284 712 C 274 704 264 696 255 686 C 245 676 236 665 226 653 L 226 303 L 145 303 Z" unicode="ⁿ" />
<glyph horiz-adv-x="662" d="M 331 -6 C 268 -6 221 13 190 51 C 158 89 143 142 143 210 L 143 283 C 143 351 158 405 190 444 C 222 482 269 502 332 502 C 394 502 441 482 472 444 C 503 405 519 351 519 283 L 519 210 C 519 142 503 89 472 51 C 441 13 394 -6 331 -6 Z M 331 62 C 367 62 393 73 409 97 C 425 121 433 161 433 218 L 433 275 C 433 333 425 374 409 398 C 393 422 367 434 331 434 C 293 434 267 422 252 398 C 236 374 229 333 229 275 L 229 218 C 229 161 236 121 252 97 C 267 73 293 62 331 62 Z" unicode="₀" />
<glyph horiz-adv-x="662" d="M 192 0 L 192 71 L 317 71 L 317 392 L 303 392 C 295 365 281 344 259 328 C 237 312 212 303 185 303 L 180 376 C 210 377 239 388 266 408 C 293 428 311 457 319 496 L 403 496 L 403 71 L 517 71 L 517 0 L 192 0 Z" unicode="₁" />
<glyph horiz-adv-x="662" d="M 146 0 L 146 103 C 146 141 154 172 171 198 C 187 224 215 241 253 250 L 365 275 C 386 279 401 287 411 297 C 420 307 425 323 425 344 L 425 364 C 425 384 418 401 405 414 C 392 427 367 434 331 434 C 294 434 270 426 258 412 C 246 398 240 374 238 340 L 151 347 C 153 399 168 437 195 463 C 221 489 267 502 331 502 C 396 502 442 489 470 465 C 497 441 511 408 511 367 L 511 332 C 511 296 501 267 483 247 C 464 227 438 213 406 207 L 294 182 C 275 178 260 171 249 161 C 237 151 232 132 232 104 L 232 71 L 517 71 L 517 0 L 146 0 Z" unicode="₂" />
<glyph horiz-adv-x="662" d="M 330 -6 C 262 -6 214 6 186 30 C 158 54 142 91 140 139 L 226 145 C 228 115 236 93 248 81 C 260 69 288 63 330 63 C 370 63 396 69 410 82 C 423 95 430 113 430 137 L 430 153 C 430 177 423 196 410 208 C 397 220 372 226 334 226 L 254 226 L 254 296 L 334 296 C 365 296 387 299 400 307 C 412 314 419 329 419 351 L 419 372 C 419 394 410 410 394 419 C 377 428 354 433 326 433 C 295 433 273 427 260 416 C 247 405 240 387 238 362 L 151 368 C 154 416 169 450 197 471 C 225 491 268 502 326 502 C 380 502 423 492 456 474 C 488 456 505 423 505 377 L 505 361 C 505 334 497 313 481 298 C 465 283 444 274 419 272 L 419 254 C 447 251 471 240 489 221 C 507 202 517 178 517 149 L 517 135 C 517 87 501 51 471 28 C 440 5 393 -6 330 -6 Z" unicode="₃" />
<glyph horiz-adv-x="662" d="M 215 195 L 374 195 L 374 422 L 215 195 Z M 545 126 L 460 126 L 460 0 L 374 0 L 374 126 L 140 126 L 140 195 L 348 496 L 460 496 L 460 195 L 545 195 L 545 126 Z" unicode="₄" />
<glyph horiz-adv-x="662" d="M 331 -6 C 263 -6 215 4 187 26 C 158 47 142 87 140 145 L 226 151 C 228 115 237 91 251 79 C 265 67 292 62 332 62 C 368 62 394 68 408 80 C 422 92 430 112 430 141 L 430 167 C 430 195 422 214 408 226 C 394 237 369 243 333 243 L 157 243 L 157 496 L 497 496 L 497 428 L 243 428 L 243 316 L 354 316 C 406 316 446 304 474 282 C 502 260 517 225 517 179 L 517 131 C 517 91 501 58 471 32 C 441 6 394 -6 331 -6 Z" unicode="₅" />
<glyph horiz-adv-x="662" d="M 331 -5 C 267 -5 220 10 190 41 C 160 72 146 116 146 172 L 146 322 C 146 378 160 423 190 455 C 219 487 267 503 333 503 C 391 503 433 493 460 473 C 486 453 503 422 511 382 L 420 367 C 415 393 406 410 394 420 C 381 429 359 434 327 434 C 288 434 262 424 250 405 C 238 385 232 358 232 322 L 232 265 L 237 265 C 248 279 263 290 283 298 C 302 306 326 311 355 311 C 413 311 454 297 479 271 C 504 245 517 209 517 163 L 517 150 C 517 103 502 65 472 37 C 442 9 395 -5 331 -5 Z M 331 63 C 369 63 394 71 408 88 C 422 104 429 125 429 150 L 429 158 C 429 184 421 205 407 222 C 393 238 367 247 331 247 C 294 247 268 238 254 222 C 239 205 232 184 232 158 L 232 150 C 232 123 238 102 252 86 C 266 70 292 63 331 63 Z" unicode="₆" />
<glyph horiz-adv-x="662" d="M 260 0 C 279 95 300 169 324 223 C 347 277 382 343 430 422 L 146 422 L 146 496 L 517 496 L 517 422 C 467 328 430 255 406 202 C 382 149 364 82 352 0 L 260 0 Z" unicode="₇" />
<glyph horiz-adv-x="662" d="M 331 -6 C 262 -6 214 5 187 29 C 159 53 146 87 146 131 L 146 145 C 146 175 154 200 170 219 C 186 238 209 249 238 252 L 238 270 C 215 272 196 281 180 297 C 164 313 157 334 157 360 L 157 380 C 157 422 171 453 201 473 C 231 492 274 502 331 502 C 387 502 430 492 460 473 C 490 454 505 423 505 380 L 505 360 C 505 334 497 313 481 297 C 465 281 446 272 424 270 L 424 252 C 453 249 476 238 492 218 C 508 198 517 174 517 145 L 517 131 C 517 86 503 52 476 29 C 448 5 400 -6 331 -6 Z M 331 295 C 362 295 384 299 398 309 C 412 318 419 334 419 357 L 419 371 C 419 393 412 409 398 418 C 384 427 362 432 331 432 C 300 432 278 427 264 418 C 250 409 243 393 243 371 L 243 357 C 243 334 250 318 264 309 C 278 299 300 295 331 295 Z M 331 64 C 373 64 400 70 412 83 C 424 95 430 114 430 140 L 430 148 C 430 172 424 190 412 204 C 400 218 373 225 331 225 C 288 225 261 218 249 204 C 237 190 232 172 232 148 L 232 140 C 232 114 238 95 250 83 C 262 70 289 64 331 64 Z" unicode="₈" />
<glyph horiz-adv-x="662" d="M 332 250 C 368 250 394 258 408 275 C 422 291 430 313 430 339 L 430 347 C 430 373 423 394 409 410 C 395 426 370 434 332 434 C 294 434 268 425 254 409 C 240 392 233 371 233 347 L 233 339 C 233 313 240 291 254 275 C 268 258 294 250 332 250 Z M 330 -6 C 272 -6 229 3 202 23 C 175 43 158 73 151 115 L 243 130 C 247 104 256 86 269 76 C 281 66 304 62 336 62 C 374 62 400 71 412 91 C 424 110 430 138 430 175 L 430 231 L 425 231 C 414 217 399 206 380 198 C 360 190 336 186 308 186 C 250 186 208 199 183 225 C 158 251 146 287 146 334 L 146 347 C 146 393 160 430 190 459 C 220 487 267 502 331 502 C 395 502 442 486 472 455 C 502 424 517 381 517 325 L 517 175 C 517 118 502 74 473 42 C 443 10 396 -6 330 -6 Z" unicode="₉" />
<glyph horiz-adv-x="662" d="M 100 0 L 100 87 L 283 87 L 283 513 L 100 513 L 100 600 L 380 600 L 380 87 L 562 87 L 562 0 L 100 0 Z M 145 757 L 145 843 L 515 843 L 515 757 L 145 757 Z" unicode="" />
<glyph horiz-adv-x="662" d="M 304 132 C 333 132 361 140 388 157 C 415 174 441 199 466 233 L 466 489 C 446 501 426 510 405 516 C 383 522 361 525 339 525 C 291 525 256 513 232 490 C 208 466 196 432 196 386 L 196 262 C 196 219 205 187 223 165 C 241 143 268 132 304 132 Z M 562 551 L 562 24 C 562 -48 538 -104 491 -146 C 444 -187 379 -208 297 -208 C 271 -208 243 -205 213 -199 C 183 -193 154 -186 128 -176 L 145 -91 C 169 -99 195 -106 223 -112 C 250 -117 275 -120 299 -120 C 351 -120 391 -107 421 -82 C 451 -56 466 -22 466 22 L 466 143 L 438 143 C 423 110 401 85 373 67 C 344 49 312 40 278 40 C 222 40 178 59 147 99 C 115 138 100 192 100 261 L 100 388 C 100 457 121 511 163 551 C 205 590 264 610 339 610 C 377 610 415 604 455 594 C 495 584 530 569 562 551 Z M 340 693 C 277 693 226 709 186 742 C 146 774 125 827 125 901 L 220 901 C 220 853 230 819 250 799 C 270 779 300 770 340 770 C 380 770 409 779 429 799 C 449 819 459 853 460 901 L 555 901 C 554 827 534 774 494 742 C 454 709 402 693 340 693 Z" unicode="" />
<glyph horiz-adv-x="662" d="M 100 0 L 100 87 L 283 87 L 283 513 L 100 513 L 100 600 L 380 600 L 380 87 L 562 87 L 562 0 L 100 0 Z M 331 693 C 268 693 217 709 177 742 C 137 774 116 827 116 901 L 211 901 C 211 853 221 819 241 799 C 261 779 291 770 331 770 C 371 770 400 779 420 799 C 440 819 450 853 451 901 L 546 901 C 545 827 525 774 485 742 C 445 709 393 693 331 693 Z" unicode="" />
<glyph horiz-adv-x="662" d="M 398 -215 C 358 -215 325 -204 299 -183 C 272 -161 259 -132 259 -96 C 259 -64 270 -35 294 -10 C 318 14 344 33 373 45 L 398 23 C 377 9 363 -6 355 -23 C 347 -40 344 -55 344 -69 C 344 -87 349 -101 361 -111 C 373 -121 389 -126 410 -126 C 420 -126 434 -125 451 -123 C 467 -121 481 -118 492 -116 L 492 -205 C 479 -207 464 -210 446 -212 C 428 -214 412 -215 398 -215 Z M 331 711 C 307 711 287 715 273 723 C 258 731 251 745 251 767 L 251 774 C 251 796 258 811 273 819 C 287 827 307 832 331 832 C 355 832 374 827 389 819 C 403 811 411 796 411 774 L 411 767 C 411 745 403 731 388 723 C 373 715 354 711 331 711 Z M 100 0 L 100 87 L 283 87 L 283 513 L 100 513 L 100 600 L 380 600 L 380 87 L 562 87 L 562 0 L 100 0 Z" unicode="" />
<glyph horiz-adv-x="662" d="M 547 -215 C 507 -215 474 -204 448 -183 C 421 -161 408 -132 408 -96 C 408 -64 419 -35 443 -10 C 467 14 493 33 522 45 L 547 23 C 526 9 512 -6 504 -23 C 496 -40 493 -55 493 -69 C 493 -87 498 -101 510 -111 C 522 -121 538 -126 559 -126 C 569 -126 583 -125 600 -123 C 616 -121 630 -118 641 -116 L 641 -205 C 628 -207 613 -210 595 -212 C 577 -214 561 -215 547 -215 Z M 295 82 C 323 82 352 92 380 112 C 408 132 436 162 466 203 L 466 510 C 449 514 432 518 414 521 C 396 523 378 525 358 525 C 310 525 271 508 242 475 C 212 442 198 392 198 326 L 198 232 C 198 182 206 144 222 119 C 238 94 262 82 295 82 Z M 269 -10 C 217 -10 175 10 145 52 C 115 94 100 154 100 233 L 100 328 C 100 412 124 480 173 532 C 221 584 285 610 363 610 C 398 610 433 606 467 600 C 501 593 532 584 562 572 L 562 0 L 466 0 L 466 113 L 438 113 C 420 73 396 43 368 22 C 340 0 307 -10 269 -10 Z" unicode="" />
<glyph horiz-adv-x="662" d="" unicode=" " />
<glyph horiz-adv-x="662" d="M 331 810 C 362 810 385 803 400 789 C 415 775 423 754 423 726 L 423 698 C 423 668 415 647 400 633 C 385 619 362 612 331 612 C 299 612 276 619 262 633 C 247 647 240 668 240 698 L 240 726 C 240 754 247 775 262 789 C 277 803 300 810 331 810 Z M 372 500 L 399 0 L 265 0 L 293 500 L 372 500 Z" unicode="¡" />
<glyph horiz-adv-x="662" d="M 195 316 C 195 272 204 239 223 217 C 241 195 271 182 311 178 L 311 622 C 271 618 241 606 223 584 C 204 562 195 528 195 484 L 195 316 Z M 302 -50 L 302 92 C 230 98 179 121 147 161 C 115 201 99 256 99 327 L 99 477 C 99 546 115 600 147 640 C 179 679 230 702 302 708 L 302 850 L 377 850 L 377 709 C 441 704 488 684 519 649 C 549 613 567 562 572 495 L 482 489 C 479 537 469 570 451 590 C 433 609 406 620 368 622 L 368 178 C 406 179 434 188 452 206 C 469 223 479 255 482 301 L 572 295 C 568 229 550 179 519 147 C 488 114 441 95 377 91 L 377 -50 L 302 -50 Z" unicode="¢" />
<glyph horiz-adv-x="662" d="M 599 214 C 595 140 576 85 543 47 C 510 9 466 -10 410 -10 C 389 -10 368 -4 348 5 C 327 15 304 27 280 41 C 258 51 239 58 223 62 C 207 66 190 62 174 51 L 90 -9 L 37 63 L 113 112 C 135 126 154 151 170 185 C 186 219 194 253 194 286 C 194 306 192 325 188 341 C 184 357 179 373 173 387 L 46 387 L 46 476 L 127 476 C 119 492 112 509 107 529 C 102 549 100 572 100 599 C 100 662 119 713 158 752 C 196 790 252 810 325 810 C 403 810 461 792 499 757 C 537 722 559 667 563 592 L 467 582 C 463 636 450 673 430 693 C 410 713 375 723 325 723 C 281 723 248 712 228 692 C 208 671 198 639 198 597 C 198 572 201 550 208 531 C 215 511 223 493 233 476 L 416 476 L 416 387 L 275 387 C 279 373 283 359 286 344 C 288 328 290 312 290 294 C 290 269 284 242 273 214 C 261 186 239 159 207 134 L 218 118 C 234 129 250 134 266 133 C 282 132 298 128 316 121 C 332 114 348 106 363 97 C 378 88 394 84 412 84 C 442 84 464 94 477 114 C 490 134 499 170 503 224 L 599 214 Z" unicode="£" />
<glyph horiz-adv-x="662" d="M 331 177 C 367 177 394 187 412 208 C 430 228 439 262 439 310 L 439 486 C 439 532 430 567 412 589 C 394 611 367 623 331 623 C 295 623 268 611 250 589 C 232 567 223 532 223 486 L 223 310 C 223 262 232 228 250 208 C 268 187 295 177 331 177 Z M 331 90 C 300 90 272 94 247 103 C 222 112 201 126 184 144 L 105 57 L 46 119 L 139 222 C 135 234 133 248 131 263 C 129 277 128 293 128 310 L 128 486 C 128 503 129 519 131 535 C 133 550 136 564 140 578 L 46 681 L 105 743 L 184 655 C 202 673 223 687 248 696 C 273 705 301 710 332 710 C 362 710 390 705 415 696 C 440 686 461 672 479 654 L 557 738 L 616 676 L 523 575 C 526 562 529 548 531 533 C 533 518 534 502 534 486 L 534 310 C 534 294 533 279 531 265 C 529 251 527 237 523 225 L 616 124 L 557 62 L 480 145 C 462 126 440 112 415 103 C 389 94 361 90 331 90 Z" unicode="¤" />
<glyph horiz-adv-x="662" d="M 563 100 L 380 100 L 380 0 L 283 0 L 283 100 L 99 100 L 99 189 L 283 189 L 283 300 L 99 300 L 99 389 L 236 389 L 20 800 L 125 800 L 332 369 L 538 800 L 641 800 L 426 389 L 563 389 L 563 300 L 380 300 L 380 189 L 563 189 L 563 100 Z" unicode="¥" />
<glyph horiz-adv-x="662" d="M 288 400 L 288 800 L 374 800 L 374 400 L 288 400 Z M 288 -200 L 288 200 L 374 200 L 374 -200 L 288 -200 Z" unicode="¦" />
<glyph horiz-adv-x="662" d="M 322 200 C 327 199 333 198 339 196 C 345 194 350 193 356 192 C 386 192 413 200 437 216 C 461 232 473 258 473 295 C 473 327 461 349 437 363 C 413 377 383 388 345 397 C 339 397 334 398 328 400 C 322 402 316 403 311 405 C 280 404 253 396 229 380 C 205 364 193 338 193 302 C 193 270 205 247 229 233 C 253 219 284 208 322 200 Z M 348 -207 C 304 -207 261 -198 221 -182 C 180 -166 145 -143 116 -113 L 161 -35 C 193 -63 223 -85 253 -99 C 283 -113 316 -120 352 -120 C 386 -120 415 -112 441 -98 C 466 -84 479 -59 479 -25 C 479 15 463 45 431 63 C 399 81 359 96 311 108 C 239 122 186 143 150 170 C 114 197 96 236 96 287 C 96 328 107 361 129 385 C 151 409 180 426 214 437 C 176 455 146 477 126 505 C 106 533 96 568 96 610 C 96 676 118 725 162 757 C 206 788 259 804 319 804 C 363 804 405 795 445 779 C 485 763 521 740 551 710 L 504 632 C 472 660 442 682 413 696 C 383 710 351 717 315 717 C 279 717 248 708 224 692 C 200 676 188 653 188 623 C 188 581 204 551 236 533 C 268 515 309 500 359 490 C 428 474 480 453 516 426 C 552 399 570 360 570 308 C 570 268 558 236 536 212 C 513 188 485 170 451 160 C 489 142 518 120 539 92 C 559 64 570 29 570 -13 C 570 -77 549 -126 507 -158 C 465 -190 412 -207 348 -207 Z" unicode="§" />
<glyph horiz-adv-x="662" d="M 225 711 C 206 711 191 715 180 723 C 168 731 163 745 163 767 L 163 774 C 163 796 168 811 180 819 C 191 827 206 832 225 832 C 243 832 258 827 269 819 C 280 811 286 796 286 774 L 286 767 C 286 745 280 731 269 723 C 257 715 243 711 225 711 Z M 437 711 C 418 711 403 715 392 723 C 381 731 376 745 376 767 L 376 774 C 376 796 381 811 392 819 C 403 827 418 832 437 832 C 455 832 470 827 482 819 C 493 811 499 796 499 774 L 499 767 C 499 745 493 731 481 723 C 469 715 455 711 437 711 Z" unicode="¨" />
<glyph horiz-adv-x="662" d="M 331 -110 C 225 -110 148 -78 100 -14 C 52 49 28 139 28 257 L 28 479 C 28 597 52 689 101 753 C 149 817 226 850 332 850 C 437 850 514 817 562 753 C 610 689 634 597 634 479 L 634 257 C 634 139 609 49 561 -14 C 513 -78 436 -110 331 -110 Z M 331 -47 C 416 -47 476 -21 512 29 C 548 80 566 158 566 263 L 566 472 C 566 576 548 655 512 708 C 476 760 416 787 331 787 C 245 787 185 760 149 708 C 113 655 96 576 96 472 L 96 264 C 96 159 113 81 149 30 C 185 -21 245 -47 331 -47 Z M 339 102 C 287 102 249 117 227 149 C 205 180 194 226 194 286 L 194 456 C 194 515 205 560 228 591 C 250 622 287 638 339 638 C 383 638 415 623 435 595 C 455 567 467 523 471 465 L 392 459 C 389 499 384 525 377 539 C 369 552 356 559 338 559 C 317 559 302 551 293 537 C 283 522 279 498 279 464 L 279 276 C 279 242 283 217 293 203 C 303 188 318 181 339 181 C 357 181 370 186 377 198 C 384 210 389 235 392 273 L 471 267 C 467 209 455 167 435 141 C 415 115 383 102 339 102 Z" unicode="©" />
<glyph horiz-adv-x="662" d="M 276 396 C 299 396 321 401 341 412 C 361 422 378 440 394 466 L 394 522 L 270 522 C 247 522 228 517 214 508 C 199 499 192 483 192 460 C 192 439 198 423 211 412 C 223 401 245 396 276 396 Z M 257 323 C 216 323 181 333 152 355 C 123 377 109 410 109 456 C 109 496 122 527 149 551 C 176 575 209 587 247 587 L 394 587 L 394 648 C 394 674 386 695 371 712 C 356 729 333 738 302 738 C 270 738 246 733 230 723 C 214 713 201 690 192 654 L 119 675 C 127 719 146 752 174 775 C 202 798 244 810 300 810 C 351 810 393 797 427 772 C 460 747 477 709 477 658 L 477 464 C 477 434 483 415 496 408 C 508 401 531 400 564 405 L 564 328 C 526 325 495 329 471 339 C 447 349 433 374 431 415 L 415 415 C 401 389 380 367 352 349 C 324 331 292 323 257 323 Z" unicode="ª" />
<glyph horiz-adv-x="662" d="M 591 103 L 351 302 L 351 396 L 591 595 L 591 504 L 404 349 L 591 194 L 591 103 Z M 313 103 L 73 302 L 73 396 L 313 595 L 313 504 L 126 349 L 313 194 L 313 103 Z" unicode="«" />
<glyph horiz-adv-x="662" d="M 494 0 L 494 302 L 74 302 L 74 398 L 588 398 L 588 0 L 494 0 Z" unicode="¬" />
<glyph horiz-adv-x="662" d="M 74 302 L 74 398 L 588 398 L 588 302 L 74 302 Z" unicode="­" />
<glyph horiz-adv-x="662" d="M 331 139 C 241 139 175 163 134 213 C 93 263 73 329 73 412 L 73 585 C 73 668 93 735 134 785 C 175 835 241 860 332 860 C 421 860 486 835 527 785 C 568 735 589 668 589 585 L 589 412 C 589 329 568 263 527 213 C 486 163 421 139 331 139 Z M 331 193 C 402 193 453 213 484 251 C 514 289 530 346 530 422 L 530 574 C 530 650 514 708 484 747 C 453 786 402 806 331 806 C 259 806 208 786 178 747 C 147 708 132 650 132 574 L 132 422 C 132 346 147 289 178 251 C 208 213 259 193 331 193 Z M 284 501 L 340 501 C 354 501 364 504 372 510 C 379 516 383 527 383 543 L 383 571 C 383 589 379 603 372 611 C 364 619 354 623 340 623 L 284 623 L 284 501 Z M 284 325 L 220 325 L 220 680 L 341 680 C 375 680 401 670 419 651 C 437 632 447 605 447 571 L 447 543 C 447 519 441 499 431 483 C 421 467 406 456 387 450 L 454 325 L 382 325 L 321 443 L 284 443 L 284 325 Z" unicode="®" />
<glyph horiz-adv-x="662" d="M 146 757 L 146 843 L 516 843 L 516 757 L 146 757 Z" unicode="¯" />
<glyph horiz-adv-x="662" d="M 331 348 C 275 348 231 362 197 392 C 163 421 146 466 146 526 L 146 624 C 146 685 163 731 197 761 C 231 791 275 806 331 806 C 387 806 431 791 465 761 C 499 731 516 685 516 624 L 516 526 C 516 466 499 421 465 392 C 431 362 386 348 331 348 Z M 331 432 C 362 432 386 439 402 453 C 418 467 426 491 426 525 L 426 625 C 426 657 418 681 402 697 C 386 713 362 721 331 721 C 299 721 275 713 259 697 C 243 681 236 657 236 625 L 236 525 C 236 491 243 467 259 453 C 275 439 299 432 331 432 Z" unicode="°" />
<glyph horiz-adv-x="662" d="M 284 141 L 284 402 L 74 402 L 74 498 L 284 498 L 284 759 L 379 759 L 379 498 L 588 498 L 588 402 L 379 402 L 379 141 L 284 141 Z M 74 0 L 74 96 L 588 96 L 588 0 L 74 0 Z" unicode="±" />
<glyph horiz-adv-x="662" d="M 146 304 L 146 407 C 146 445 154 476 171 502 C 187 528 215 545 253 554 L 365 579 C 386 583 401 591 411 601 C 420 611 425 627 425 648 L 425 668 C 425 688 418 705 405 718 C 392 731 367 738 331 738 C 294 738 270 730 258 716 C 246 702 240 678 238 644 L 151 651 C 153 703 168 741 195 767 C 221 793 267 806 331 806 C 396 806 442 793 470 769 C 497 745 511 712 511 671 L 511 636 C 511 600 501 571 483 551 C 464 531 438 517 406 511 L 294 486 C 275 482 260 475 249 465 C 237 455 232 436 232 408 L 232 375 L 517 375 L 517 304 L 146 304 Z" unicode="²" />
<glyph horiz-adv-x="662" d="M 330 298 C 262 298 214 310 186 334 C 158 358 142 395 140 443 L 226 449 C 228 419 236 397 248 385 C 260 373 288 367 330 367 C 370 367 396 373 410 386 C 423 399 430 417 430 441 L 430 457 C 430 481 423 500 410 512 C 397 524 372 530 334 530 L 254 530 L 254 600 L 334 600 C 365 600 387 603 400 611 C 412 618 419 633 419 655 L 419 676 C 419 698 410 714 394 723 C 377 732 354 737 326 737 C 295 737 273 731 260 720 C 247 709 240 691 238 666 L 151 672 C 154 720 169 754 197 775 C 225 795 268 806 326 806 C 380 806 423 796 456 778 C 488 760 505 727 505 681 L 505 665 C 505 638 497 617 481 602 C 465 587 444 578 419 576 L 419 558 C 447 555 471 544 489 525 C 507 506 517 482 517 453 L 517 439 C 517 391 501 355 471 332 C 440 309 393 298 330 298 Z" unicode="³" />
<glyph horiz-adv-x="662" d="M 225 700 L 349 900 L 491 900 L 311 700 L 225 700 Z" unicode="´" />
<glyph horiz-adv-x="662" d="M 188 20 L 197 -200 L 82 -200 L 91 20 L 91 600 L 188 600 L 188 194 C 188 154 198 125 218 108 C 238 90 263 82 293 82 C 319 82 343 88 363 102 C 383 115 402 134 420 158 L 420 600 L 517 600 L 517 157 C 517 121 524 99 539 90 C 553 80 576 79 607 86 L 607 -3 C 562 -10 528 -5 504 12 C 480 29 466 59 463 101 L 444 101 C 428 69 407 42 381 21 C 355 0 323 -10 285 -10 C 265 -10 247 -6 231 2 C 215 10 200 22 188 38 L 188 20 Z" unicode="µ" />
<glyph horiz-adv-x="662" d="M 469 340 L 377 340 L 377 -200 L 280 -200 L 280 340 C 222 340 172 355 131 387 C 89 419 69 469 69 537 L 69 589 C 69 659 89 712 130 747 C 171 782 221 800 279 800 L 566 800 L 566 -200 L 469 -200 L 469 340 Z" unicode="¶" />
<glyph horiz-adv-x="662" d="M 332 292 C 300 292 275 299 256 314 C 236 329 227 353 227 385 L 227 410 C 227 442 236 466 256 482 C 275 497 300 505 332 505 C 363 505 388 497 407 482 C 426 466 436 442 436 410 L 436 385 C 436 353 426 329 407 314 C 387 299 362 292 332 292 Z" unicode="·" />
<glyph horiz-adv-x="662" d="M 303 0 L 322 42 C 352 36 379 22 403 2 C 427 -18 439 -49 439 -91 C 439 -133 424 -165 396 -185 C 368 -205 336 -215 302 -215 C 260 -215 227 -207 201 -191 C 175 -175 160 -149 158 -111 L 243 -101 C 243 -113 248 -122 256 -127 C 264 -132 278 -135 297 -135 C 315 -135 328 -130 338 -122 C 347 -114 352 -98 352 -76 C 352 -52 348 -35 341 -24 C 333 -13 321 -5 303 0 Z" unicode="¸" />
<glyph horiz-adv-x="662" d="M 192 304 L 192 375 L 317 375 L 317 696 L 303 696 C 295 669 281 648 259 632 C 237 616 212 607 185 607 L 180 680 C 210 681 239 692 266 712 C 293 732 311 761 319 800 L 403 800 L 403 375 L 517 375 L 517 304 L 192 304 Z" unicode="¹" />
<glyph horiz-adv-x="662" d="M 331 323 C 270 323 222 338 186 368 C 150 398 132 444 132 504 L 132 624 C 132 685 150 731 186 763 C 222 794 270 810 331 810 C 391 810 439 794 475 763 C 511 731 529 685 529 624 L 529 504 C 529 444 511 398 475 368 C 439 338 391 323 331 323 Z M 331 398 C 369 398 398 406 417 422 C 436 438 446 466 446 504 L 446 624 C 446 662 436 689 417 707 C 398 725 369 734 331 734 C 292 734 263 725 244 707 C 224 689 215 662 215 624 L 215 504 C 215 466 224 438 244 422 C 263 406 292 398 331 398 Z" unicode="º" />
<glyph horiz-adv-x="662" d="M 72 104 L 72 195 L 260 350 L 72 505 L 72 596 L 313 397 L 313 303 L 72 104 Z M 350 104 L 350 195 L 538 350 L 350 505 L 350 596 L 590 397 L 590 303 L 350 104 Z" unicode="»" />
<glyph horiz-adv-x="662" d="M 174 410 L 174 482 L 299 482 L 299 702 L 285 702 C 281 688 276 676 269 666 C 261 655 252 646 242 638 C 231 630 219 623 207 619 C 194 615 181 613 168 613 L 163 686 C 178 686 193 689 208 695 C 223 700 237 708 250 718 C 262 728 273 740 282 755 C 291 770 297 787 301 806 L 386 806 L 386 482 L 500 482 L 500 410 L 174 410 Z M 10 250 L 10 349 L 302 329 L 302 270 L 10 250 Z M 373 270 L 373 329 L 652 349 L 652 250 L 373 270 Z M 545 -114 L 460 -114 L 460 -210 L 374 -210 L 374 -114 L 140 -114 L 140 -46 L 348 216 L 460 216 L 460 -46 L 545 -46 L 545 -114 Z M 215 -46 L 374 -46 L 374 151 L 215 -46 Z" unicode="¼" />
<glyph horiz-adv-x="662" d="M 174 410 L 174 482 L 299 482 L 299 702 L 285 702 C 281 688 276 676 269 666 C 261 655 252 646 242 638 C 231 630 219 623 207 619 C 194 615 181 613 168 613 L 163 686 C 177 686 192 689 207 694 C 221 699 235 707 248 717 C 260 727 271 739 281 754 C 290 768 297 786 301 806 L 386 806 L 386 482 L 500 482 L 500 410 L 174 410 Z M 10 250 L 10 349 L 302 329 L 302 270 L 10 250 Z M 373 270 L 373 329 L 652 349 L 652 250 L 373 270 Z M 146 -210 L 146 -127 C 146 -111 148 -96 152 -83 C 156 -69 162 -57 171 -46 C 179 -35 189 -26 203 -18 C 217 -10 233 -5 253 -1 L 365 24 C 376 26 385 29 393 32 C 400 34 406 37 411 41 C 415 45 419 49 421 54 C 423 59 425 65 425 73 L 425 93 C 425 101 423 108 420 114 C 417 120 412 125 405 130 C 398 134 388 137 376 139 C 364 141 349 143 331 143 C 312 143 297 141 285 139 C 273 136 264 132 258 126 C 252 120 247 113 244 104 C 241 95 239 83 238 69 L 151 76 C 152 99 156 119 163 136 C 169 153 180 167 194 178 C 208 189 226 197 248 203 C 270 209 298 212 331 212 C 363 212 390 209 413 204 C 436 198 455 191 470 181 C 484 171 494 159 501 145 C 507 131 511 114 511 96 L 511 62 C 511 46 508 32 503 20 C 498 8 491 -1 482 -10 C 472 -18 461 -24 449 -30 C 437 -35 422 -40 406 -44 L 294 -69 C 282 -71 273 -74 266 -76 C 259 -78 253 -82 248 -87 C 242 -91 238 -98 236 -106 C 233 -114 232 -125 232 -139 L 517 -139 L 517 -210 L 146 -210 Z" unicode="½" />
<glyph horiz-adv-x="662" d="M 330 404 C 296 404 267 406 243 411 C 219 416 200 424 186 435 C 171 445 160 457 153 473 C 145 489 141 507 140 529 L 226 535 C 227 523 229 513 233 505 C 236 497 241 491 249 487 C 255 482 265 479 278 477 C 291 475 308 474 330 474 C 350 474 366 475 379 477 C 392 479 402 481 410 485 C 417 489 422 493 425 498 C 428 503 430 509 430 517 L 430 533 C 430 540 428 546 425 551 C 422 556 417 561 410 565 C 402 568 392 570 379 572 C 366 574 350 575 331 575 L 280 575 L 280 646 L 331 646 C 347 646 361 646 372 648 C 383 649 392 651 399 655 C 406 658 411 663 414 669 C 417 675 419 682 419 691 L 419 712 C 419 717 416 722 412 726 C 408 730 402 733 395 736 C 387 738 377 739 366 740 C 354 741 341 742 326 742 C 310 742 297 741 287 739 C 276 737 267 734 260 731 C 253 727 248 721 244 715 C 240 709 238 701 238 692 L 151 698 C 152 718 156 736 164 750 C 172 764 183 776 197 785 C 211 794 228 801 250 805 C 271 809 296 812 326 812 C 353 812 377 810 399 807 C 420 804 439 799 455 792 C 471 784 483 774 492 762 C 500 750 505 735 505 717 L 505 701 C 505 689 503 679 499 670 C 495 660 489 652 481 646 C 473 639 464 634 454 630 C 443 626 431 623 419 622 L 419 604 C 433 602 446 600 458 596 C 470 592 480 586 490 580 C 498 574 505 566 510 557 C 514 548 517 539 517 529 L 517 515 C 517 495 513 479 505 465 C 497 451 486 440 471 431 C 455 421 436 414 413 410 C 389 406 362 404 330 404 Z M 10 250 L 10 349 L 302 329 L 302 270 L 10 250 Z M 373 270 L 373 329 L 652 349 L 652 250 L 373 270 Z M 545 -114 L 460 -114 L 460 -210 L 374 -210 L 374 -114 L 140 -114 L 140 -46 L 348 216 L 460 216 L 460 -46 L 545 -46 L 545 -114 Z M 215 -46 L 374 -46 L 374 151 L 215 -46 Z" unicode="¾" />
<glyph horiz-adv-x="662" d="M 370 810 C 401 810 424 803 439 789 C 453 775 461 754 461 726 L 461 698 C 461 668 453 647 439 633 C 424 619 401 612 370 612 C 338 612 315 619 300 633 C 285 647 278 668 278 698 L 278 726 C 278 754 285 775 301 789 C 316 803 339 810 370 810 Z M 404 484 L 423 406 C 316 387 245 366 209 343 C 173 319 156 288 156 248 L 156 217 C 156 173 167 139 190 114 C 213 89 259 77 328 77 C 402 77 449 89 470 114 C 491 139 504 185 509 251 L 606 241 C 601 147 579 82 539 45 C 499 8 429 -10 329 -10 C 231 -10 162 9 121 49 C 80 89 60 141 60 205 L 60 252 C 60 322 87 373 141 405 C 195 437 283 464 404 484 Z" unicode="¿" />
<glyph horiz-adv-x="662" d="M 430 319 L 331 689 L 230 319 L 430 319 Z M 516 0 L 453 233 L 206 233 L 143 0 L 45 0 L 280 800 L 383 800 L 618 0 L 516 0 Z M 332 900 L 151 1100 L 294 1100 L 417 900 L 332 900 Z" unicode="À" />
<glyph horiz-adv-x="662" d="M 430 319 L 331 689 L 230 319 L 430 319 Z M 516 0 L 453 233 L 206 233 L 143 0 L 45 0 L 280 800 L 383 800 L 618 0 L 516 0 Z M 226 900 L 350 1100 L 492 1100 L 312 900 L 226 900 Z" unicode="Á" />
<glyph horiz-adv-x="662" d="M 430 319 L 331 689 L 230 319 L 430 319 Z M 516 0 L 453 233 L 206 233 L 143 0 L 45 0 L 280 800 L 383 800 L 618 0 L 516 0 Z M 172 908 L 133 968 L 296 1116 L 366 1116 L 531 968 L 492 908 L 331 1022 L 172 908 Z" unicode="Â" />
<glyph horiz-adv-x="662" d="M 430 319 L 331 689 L 230 319 L 430 319 Z M 516 0 L 453 233 L 206 233 L 143 0 L 45 0 L 280 800 L 383 800 L 618 0 L 516 0 Z M 405 910 C 382 910 363 916 349 928 C 335 940 322 953 312 968 C 301 982 291 996 282 1008 C 273 1020 263 1026 252 1026 C 240 1026 230 1019 222 1005 C 214 991 210 967 211 931 L 211 920 L 137 920 L 137 935 C 137 985 147 1026 168 1059 C 189 1092 219 1109 259 1109 C 283 1109 303 1103 318 1091 C 332 1079 345 1065 356 1051 C 366 1036 376 1023 384 1011 C 392 999 401 993 412 993 C 424 993 434 999 442 1013 C 450 1027 454 1052 454 1088 L 454 1099 L 527 1099 L 527 1084 C 527 1033 516 991 495 959 C 474 926 444 910 405 910 Z" unicode="Ã" />
<glyph horiz-adv-x="662" d="M 430 319 L 331 689 L 230 319 L 430 319 Z M 516 0 L 453 233 L 206 233 L 143 0 L 45 0 L 280 800 L 383 800 L 618 0 L 516 0 Z M 226 911 C 207 911 192 915 181 923 C 169 931 164 945 164 967 L 164 974 C 164 996 169 1011 181 1019 C 192 1027 207 1032 226 1032 C 244 1032 259 1027 270 1019 C 281 1011 287 996 287 974 L 287 967 C 287 945 281 931 270 923 C 258 915 244 911 226 911 Z M 438 911 C 419 911 404 915 393 923 C 382 931 377 945 377 967 L 377 974 C 377 996 382 1011 393 1019 C 404 1027 419 1032 438 1032 C 456 1032 471 1027 483 1019 C 494 1011 500 996 500 974 L 500 967 C 500 945 494 931 482 923 C 470 915 456 911 438 911 Z" unicode="Ä" />
<glyph horiz-adv-x="662" d="M 430 319 L 331 689 L 230 319 L 430 319 Z M 516 0 L 453 233 L 206 233 L 143 0 L 45 0 L 280 800 L 383 800 L 618 0 L 516 0 Z M 332 886 C 287 886 251 897 224 921 C 196 944 183 980 183 1030 L 183 1062 C 183 1112 196 1149 224 1173 C 251 1197 287 1209 332 1209 C 376 1209 412 1197 440 1173 C 467 1149 481 1112 481 1062 L 481 1030 C 481 980 467 944 440 921 C 412 897 376 886 332 886 Z M 332 955 C 356 955 375 960 388 972 C 400 984 407 1003 407 1030 L 407 1062 C 407 1088 400 1108 388 1121 C 375 1133 356 1140 332 1140 C 307 1140 288 1133 276 1121 C 263 1108 257 1088 257 1062 L 257 1030 C 257 1003 263 984 276 972 C 288 960 307 955 332 955 Z" unicode="Å" />
<glyph horiz-adv-x="662" d="M 282 723 L 173 309 L 339 309 L 339 723 L 282 723 Z M 339 233 L 153 233 L 92 0 L 11 0 L 231 800 L 642 800 L 642 723 L 425 723 L 425 468 L 633 468 L 633 392 L 425 392 L 425 77 L 642 77 L 642 0 L 339 0 L 339 233 Z" unicode="Æ" />
<glyph horiz-adv-x="662" d="M 341 -10 C 254 -10 189 13 146 60 C 103 107 82 177 82 271 L 82 525 C 82 619 103 690 146 738 C 189 786 254 810 342 810 C 426 810 488 788 530 745 C 571 701 594 633 599 540 L 502 530 C 496 603 482 653 459 681 C 435 709 396 723 341 723 C 281 723 239 708 215 678 C 191 648 179 598 179 526 L 179 270 C 179 201 191 152 216 122 C 241 92 283 77 341 77 C 397 77 436 90 459 118 C 481 145 496 194 502 266 L 599 256 C 594 164 571 96 530 54 C 488 11 425 -10 341 -10 Z M 313 0 L 332 42 C 362 36 389 22 413 2 C 437 -18 449 -49 449 -91 C 449 -133 434 -165 406 -185 C 378 -205 346 -215 312 -215 C 270 -215 237 -207 211 -191 C 185 -175 170 -149 168 -111 L 253 -101 C 253 -113 258 -122 266 -127 C 274 -132 288 -135 307 -135 C 325 -135 338 -130 348 -122 C 357 -114 362 -98 362 -76 C 362 -52 358 -35 351 -24 C 343 -13 331 -5 313 0 Z" unicode="Ç" />
<glyph horiz-adv-x="662" d="M 99 0 L 99 800 L 580 800 L 580 713 L 196 713 L 196 479 L 534 479 L 534 392 L 196 392 L 196 87 L 580 87 L 580 0 L 99 0 Z M 341 900 L 160 1100 L 303 1100 L 426 900 L 341 900 Z" unicode="È" />
<glyph horiz-adv-x="662" d="M 99 0 L 99 800 L 580 800 L 580 713 L 196 713 L 196 479 L 534 479 L 534 392 L 196 392 L 196 87 L 580 87 L 580 0 L 99 0 Z M 253 900 L 377 1100 L 519 1100 L 339 900 L 253 900 Z" unicode="É" />
<glyph horiz-adv-x="662" d="M 99 0 L 99 800 L 580 800 L 580 713 L 196 713 L 196 479 L 534 479 L 534 392 L 196 392 L 196 87 L 580 87 L 580 0 L 99 0 Z M 189 908 L 150 968 L 313 1116 L 383 1116 L 548 968 L 509 908 L 348 1022 L 189 908 Z" unicode="Ê" />
<glyph horiz-adv-x="662" d="M 99 0 L 99 800 L 580 800 L 580 713 L 196 713 L 196 479 L 534 479 L 534 392 L 196 392 L 196 87 L 580 87 L 580 0 L 99 0 Z M 243 911 C 224 911 209 915 198 923 C 186 931 181 945 181 967 L 181 974 C 181 996 186 1011 198 1019 C 209 1027 224 1032 243 1032 C 261 1032 276 1027 287 1019 C 298 1011 304 996 304 974 L 304 967 C 304 945 298 931 287 923 C 275 915 261 911 243 911 Z M 455 911 C 436 911 421 915 410 923 C 399 931 394 945 394 967 L 394 974 C 394 996 399 1011 410 1019 C 421 1027 436 1032 455 1032 C 473 1032 488 1027 500 1019 C 511 1011 517 996 517 974 L 517 967 C 517 945 511 931 499 923 C 487 915 473 911 455 911 Z" unicode="Ë" />
<glyph horiz-adv-x="662" d="M 99 0 L 99 87 L 283 87 L 283 713 L 99 713 L 99 800 L 563 800 L 563 713 L 380 713 L 380 87 L 563 87 L 563 0 L 99 0 Z M 331 900 L 150 1100 L 293 1100 L 416 900 L 331 900 Z" unicode="Ì" />
<glyph horiz-adv-x="662" d="M 99 0 L 99 87 L 283 87 L 283 713 L 99 713 L 99 800 L 563 800 L 563 713 L 380 713 L 380 87 L 563 87 L 563 0 L 99 0 Z M 225 900 L 349 1100 L 491 1100 L 311 900 L 225 900 Z" unicode="Í" />
<glyph horiz-adv-x="662" d="M 99 0 L 99 87 L 283 87 L 283 713 L 99 713 L 99 800 L 563 800 L 563 713 L 380 713 L 380 87 L 563 87 L 563 0 L 99 0 Z M 171 908 L 132 968 L 295 1116 L 365 1116 L 530 968 L 491 908 L 330 1022 L 171 908 Z" unicode="Î" />
<glyph horiz-adv-x="662" d="M 99 0 L 99 87 L 283 87 L 283 713 L 99 713 L 99 800 L 563 800 L 563 713 L 380 713 L 380 87 L 563 87 L 563 0 L 99 0 Z M 225 911 C 206 911 191 915 180 923 C 168 931 163 945 163 967 L 163 974 C 163 996 168 1011 180 1019 C 191 1027 206 1032 225 1032 C 243 1032 258 1027 269 1019 C 280 1011 286 996 286 974 L 286 967 C 286 945 280 931 269 923 C 257 915 243 911 225 911 Z M 437 911 C 418 911 403 915 392 923 C 381 931 376 945 376 967 L 376 974 C 376 996 381 1011 392 1019 C 403 1027 418 1032 437 1032 C 455 1032 470 1027 482 1019 C 493 1011 499 996 499 974 L 499 967 C 499 945 493 931 481 923 C 469 915 455 911 437 911 Z" unicode="Ï" />
<glyph horiz-adv-x="662" d="M 99 0 L 99 396 L 10 396 L 10 484 L 99 484 L 99 800 L 306 800 C 391 800 458 774 507 722 C 555 670 580 602 580 516 L 580 280 C 580 194 555 126 506 76 C 457 25 390 0 305 0 L 99 0 Z M 196 87 L 304 87 C 364 87 408 104 438 139 C 468 173 483 220 483 279 L 483 517 C 483 576 468 623 438 659 C 408 695 364 713 304 713 L 196 713 L 196 484 L 331 484 L 331 396 L 196 396 L 196 87 Z" unicode="Ð" />
<glyph horiz-adv-x="662" d="M 427 0 L 186 680 L 186 0 L 99 0 L 99 800 L 229 800 L 476 110 L 476 800 L 563 800 L 563 0 L 427 0 Z M 421 910 C 398 910 379 916 365 928 C 351 940 338 953 328 968 C 317 982 307 996 298 1008 C 289 1020 279 1026 268 1026 C 256 1026 246 1019 238 1005 C 230 991 226 967 227 931 L 227 920 L 153 920 L 153 935 C 153 985 163 1026 184 1059 C 205 1092 235 1109 275 1109 C 299 1109 319 1103 334 1091 C 348 1079 361 1065 372 1051 C 382 1036 392 1023 400 1011 C 408 999 417 993 428 993 C 440 993 450 999 458 1013 C 466 1027 470 1052 470 1088 L 470 1099 L 543 1099 L 543 1084 C 543 1033 532 991 511 959 C 490 926 460 910 421 910 Z" unicode="Ñ" />
<glyph horiz-adv-x="662" d="M 331 -10 C 249 -10 187 14 145 62 C 103 110 82 180 82 272 L 82 524 C 82 617 103 688 146 737 C 188 785 250 810 332 810 C 412 810 474 785 516 737 C 558 688 580 617 580 524 L 580 272 C 580 180 558 110 516 62 C 474 14 412 -10 331 -10 Z M 331 77 C 386 77 425 91 448 121 C 471 150 483 200 483 271 L 483 525 C 483 597 471 648 448 678 C 425 708 386 723 331 723 C 275 723 236 708 213 678 C 190 648 179 597 179 525 L 179 271 C 179 200 190 150 213 121 C 236 91 275 77 331 77 Z M 331 900 L 150 1100 L 293 1100 L 416 900 L 331 900 Z" unicode="Ò" />
<glyph horiz-adv-x="662" d="M 331 -10 C 249 -10 187 14 145 62 C 103 110 82 180 82 272 L 82 524 C 82 617 103 688 146 737 C 188 785 250 810 332 810 C 412 810 474 785 516 737 C 558 688 580 617 580 524 L 580 272 C 580 180 558 110 516 62 C 474 14 412 -10 331 -10 Z M 331 77 C 386 77 425 91 448 121 C 471 150 483 200 483 271 L 483 525 C 483 597 471 648 448 678 C 425 708 386 723 331 723 C 275 723 236 708 213 678 C 190 648 179 597 179 525 L 179 271 C 179 200 190 150 213 121 C 236 91 275 77 331 77 Z M 261 900 L 385 1100 L 527 1100 L 347 900 L 261 900 Z" unicode="Ó" />
<glyph horiz-adv-x="662" d="M 331 -10 C 249 -10 187 14 145 62 C 103 110 82 180 82 272 L 82 524 C 82 617 103 688 146 737 C 188 785 250 810 332 810 C 412 810 474 785 516 737 C 558 688 580 617 580 524 L 580 272 C 580 180 558 110 516 62 C 474 14 412 -10 331 -10 Z M 331 77 C 386 77 425 91 448 121 C 471 150 483 200 483 271 L 483 525 C 483 597 471 648 448 678 C 425 708 386 723 331 723 C 275 723 236 708 213 678 C 190 648 179 597 179 525 L 179 271 C 179 200 190 150 213 121 C 236 91 275 77 331 77 Z M 171 908 L 132 968 L 295 1116 L 365 1116 L 530 968 L 491 908 L 330 1022 L 171 908 Z" unicode="Ô" />
<glyph horiz-adv-x="662" d="M 331 -10 C 249 -10 187 14 145 62 C 103 110 82 180 82 272 L 82 524 C 82 617 103 688 146 737 C 188 785 250 810 332 810 C 412 810 474 785 516 737 C 558 688 580 617 580 524 L 580 272 C 580 180 558 110 516 62 C 474 14 412 -10 331 -10 Z M 331 77 C 386 77 425 91 448 121 C 471 150 483 200 483 271 L 483 525 C 483 597 471 648 448 678 C 425 708 386 723 331 723 C 275 723 236 708 213 678 C 190 648 179 597 179 525 L 179 271 C 179 200 190 150 213 121 C 236 91 275 77 331 77 Z M 404 910 C 381 910 362 916 348 928 C 334 940 321 953 311 968 C 300 982 290 996 281 1008 C 272 1020 262 1026 251 1026 C 239 1026 229 1019 221 1005 C 213 991 209 967 210 931 L 210 920 L 136 920 L 136 935 C 136 985 146 1026 167 1059 C 188 1092 218 1109 258 1109 C 282 1109 302 1103 317 1091 C 331 1079 344 1065 355 1051 C 365 1036 375 1023 383 1011 C 391 999 400 993 411 993 C 423 993 433 999 441 1013 C 449 1027 453 1052 453 1088 L 453 1099 L 526 1099 L 526 1084 C 526 1033 515 991 494 959 C 473 926 443 910 404 910 Z" unicode="Õ" />
<glyph horiz-adv-x="662" d="M 331 -10 C 249 -10 187 14 145 62 C 103 110 82 180 82 272 L 82 524 C 82 617 103 688 146 737 C 188 785 250 810 332 810 C 412 810 474 785 516 737 C 558 688 580 617 580 524 L 580 272 C 580 180 558 110 516 62 C 474 14 412 -10 331 -10 Z M 331 77 C 386 77 425 91 448 121 C 471 150 483 200 483 271 L 483 525 C 483 597 471 648 448 678 C 425 708 386 723 331 723 C 275 723 236 708 213 678 C 190 648 179 597 179 525 L 179 271 C 179 200 190 150 213 121 C 236 91 275 77 331 77 Z M 225 911 C 206 911 191 915 180 923 C 168 931 163 945 163 967 L 163 974 C 163 996 168 1011 180 1019 C 191 1027 206 1032 225 1032 C 243 1032 258 1027 269 1019 C 280 1011 286 996 286 974 L 286 967 C 286 945 280 931 269 923 C 257 915 243 911 225 911 Z M 437 911 C 418 911 403 915 392 923 C 381 931 376 945 376 967 L 376 974 C 376 996 381 1011 392 1019 C 403 1027 418 1032 437 1032 C 455 1032 470 1027 482 1019 C 493 1011 499 996 499 974 L 499 967 C 499 945 493 931 481 923 C 469 915 455 911 437 911 Z" unicode="Ö" />
<glyph horiz-adv-x="662" d="M 137 50 L 75 108 L 271 350 L 75 592 L 137 650 L 331 411 L 525 645 L 587 587 L 391 350 L 587 113 L 525 55 L 331 289 L 137 50 Z" unicode="×" />
<glyph horiz-adv-x="662" d="M 195 151 L 399 714 C 389 716 379 718 368 720 C 356 722 344 723 331 723 C 275 723 235 708 212 678 C 189 648 178 597 178 526 L 178 270 C 178 244 179 222 182 202 C 184 182 189 165 195 151 Z M 331 77 C 387 77 426 91 449 121 C 472 150 484 200 484 270 L 484 526 C 484 558 481 585 477 609 C 473 632 466 651 457 667 L 249 92 C 259 87 271 83 285 81 C 299 78 314 77 331 77 Z M 331 -10 C 311 -10 292 -8 274 -5 C 256 -2 240 2 226 8 L 186 -100 L 92 -100 L 150 57 C 127 80 110 110 99 146 C 87 182 82 223 82 271 L 82 525 C 82 617 103 687 146 736 C 188 785 250 810 332 810 C 348 810 364 809 379 807 C 393 805 407 802 421 798 L 459 900 L 553 900 L 498 755 C 525 731 545 699 559 661 C 573 622 580 577 580 525 L 580 271 C 580 180 558 110 516 62 C 473 14 411 -10 331 -10 Z" unicode="Ø" />
<glyph horiz-adv-x="662" d="M 331 -10 C 253 -10 194 13 156 59 C 118 105 99 176 99 270 L 99 800 L 196 800 L 196 268 C 196 198 206 148 226 119 C 246 90 281 76 331 76 C 380 76 415 90 435 119 C 455 148 466 198 466 268 L 466 800 L 563 800 L 563 270 C 563 176 543 105 505 59 C 467 13 409 -10 331 -10 Z M 331 900 L 150 1100 L 293 1100 L 416 900 L 331 900 Z" unicode="Ù" />
<glyph horiz-adv-x="662" d="M 331 -10 C 253 -10 194 13 156 59 C 118 105 99 176 99 270 L 99 800 L 196 800 L 196 268 C 196 198 206 148 226 119 C 246 90 281 76 331 76 C 380 76 415 90 435 119 C 455 148 466 198 466 268 L 466 800 L 563 800 L 563 270 C 563 176 543 105 505 59 C 467 13 409 -10 331 -10 Z M 225 900 L 349 1100 L 491 1100 L 311 900 L 225 900 Z" unicode="Ú" />
<glyph horiz-adv-x="662" d="M 331 -10 C 253 -10 194 13 156 59 C 118 105 99 176 99 270 L 99 800 L 196 800 L 196 268 C 196 198 206 148 226 119 C 246 90 281 76 331 76 C 380 76 415 90 435 119 C 455 148 466 198 466 268 L 466 800 L 563 800 L 563 270 C 563 176 543 105 505 59 C 467 13 409 -10 331 -10 Z M 171 908 L 132 968 L 295 1116 L 365 1116 L 530 968 L 491 908 L 330 1022 L 171 908 Z" unicode="Û" />
<glyph horiz-adv-x="662" d="M 331 -10 C 253 -10 194 13 156 59 C 118 105 99 176 99 270 L 99 800 L 196 800 L 196 268 C 196 198 206 148 226 119 C 246 90 281 76 331 76 C 380 76 415 90 435 119 C 455 148 466 198 466 268 L 466 800 L 563 800 L 563 270 C 563 176 543 105 505 59 C 467 13 409 -10 331 -10 Z M 225 911 C 206 911 191 915 180 923 C 168 931 163 945 163 967 L 163 974 C 163 996 168 1011 180 1019 C 191 1027 206 1032 225 1032 C 243 1032 258 1027 269 1019 C 280 1011 286 996 286 974 L 286 967 C 286 945 280 931 269 923 C 257 915 243 911 225 911 Z M 437 911 C 418 911 403 915 392 923 C 381 931 376 945 376 967 L 376 974 C 376 996 381 1011 392 1019 C 403 1027 418 1032 437 1032 C 455 1032 470 1027 482 1019 C 493 1011 499 996 499 974 L 499 967 C 499 945 493 931 481 923 C 469 915 455 911 437 911 Z" unicode="Ü" />
<glyph horiz-adv-x="662" d="M 380 0 L 283 0 L 283 300 L 23 800 L 130 800 L 336 391 L 533 800 L 638 800 L 380 300 L 380 0 Z M 225 900 L 349 1100 L 491 1100 L 311 900 L 225 900 Z" unicode="Ý" />
<glyph horiz-adv-x="662" d="M 99 0 L 99 800 L 196 800 L 196 669 L 359 669 C 434 669 491 651 530 615 C 569 579 589 527 589 458 L 589 370 C 589 298 569 244 530 207 C 490 169 433 151 358 151 L 196 151 L 196 0 L 99 0 Z M 196 236 L 356 236 C 405 236 440 246 461 266 C 481 286 492 320 492 368 L 492 460 C 492 504 481 535 461 554 C 440 573 405 583 356 583 L 196 583 L 196 236 Z" unicode="Þ" />
<glyph horiz-adv-x="662" d="M 433 -6 C 393 -6 355 1 319 16 C 283 31 252 53 228 82 L 278 160 C 299 138 323 120 350 104 C 377 88 406 81 436 81 C 464 81 489 87 509 100 C 529 112 539 134 539 164 C 539 194 529 216 511 229 C 493 241 463 253 421 263 C 357 277 310 298 281 325 C 251 352 237 388 237 433 C 237 485 255 526 292 557 C 329 587 376 604 432 606 C 426 645 411 673 386 691 C 360 708 329 717 291 717 C 253 717 220 705 193 681 C 165 657 152 619 152 567 L 152 0 L 55 0 L 55 580 C 55 655 78 712 124 750 C 170 788 226 808 292 808 C 363 808 420 786 464 744 C 507 702 529 647 529 580 L 529 535 C 467 535 419 528 384 515 C 349 501 332 477 332 442 C 332 414 343 394 366 383 C 388 371 423 360 471 350 C 527 337 569 316 595 288 C 621 260 634 221 634 173 C 634 111 614 66 574 37 C 534 8 487 -6 433 -6 Z" unicode="ß" />
<glyph horiz-adv-x="662" d="M 265 74 C 297 74 327 80 353 93 C 379 105 401 127 420 157 L 420 256 L 263 256 C 234 256 211 249 194 236 C 176 222 168 199 168 167 C 168 137 175 114 190 98 C 205 82 230 74 265 74 Z M 251 -10 C 201 -10 159 4 125 32 C 90 60 73 103 73 161 C 73 213 89 254 121 284 C 153 314 192 330 239 330 L 420 330 L 420 420 C 420 450 410 475 391 494 C 371 512 342 522 304 522 C 264 522 234 515 215 501 C 195 487 180 459 169 415 L 85 439 C 95 495 119 538 155 567 C 191 595 241 610 303 610 C 364 610 415 595 456 566 C 496 537 517 493 517 433 L 517 155 C 517 121 526 99 544 90 C 562 80 589 79 625 86 L 625 -3 C 583 -9 546 -6 514 6 C 482 19 465 49 462 97 L 443 97 C 426 66 400 40 366 20 C 332 0 293 -10 251 -10 Z M 313 700 L 132 900 L 275 900 L 398 700 L 313 700 Z" unicode="à" />
<glyph horiz-adv-x="662" d="M 265 74 C 297 74 327 80 353 93 C 379 105 401 127 420 157 L 420 256 L 263 256 C 234 256 211 249 194 236 C 176 222 168 199 168 167 C 168 137 175 114 190 98 C 205 82 230 74 265 74 Z M 251 -10 C 201 -10 159 4 125 32 C 90 60 73 103 73 161 C 73 213 89 254 121 284 C 153 314 192 330 239 330 L 420 330 L 420 420 C 420 450 410 475 391 494 C 371 512 342 522 304 522 C 264 522 234 515 215 501 C 195 487 180 459 169 415 L 85 439 C 95 495 119 538 155 567 C 191 595 241 610 303 610 C 364 610 415 595 456 566 C 496 537 517 493 517 433 L 517 155 C 517 121 526 99 544 90 C 562 80 589 79 625 86 L 625 -3 C 583 -9 546 -6 514 6 C 482 19 465 49 462 97 L 443 97 C 426 66 400 40 366 20 C 332 0 293 -10 251 -10 Z M 207 700 L 331 900 L 473 900 L 293 700 L 207 700 Z" unicode="á" />
<glyph horiz-adv-x="662" d="M 265 74 C 297 74 327 80 353 93 C 379 105 401 127 420 157 L 420 256 L 263 256 C 234 256 211 249 194 236 C 176 222 168 199 168 167 C 168 137 175 114 190 98 C 205 82 230 74 265 74 Z M 251 -10 C 201 -10 159 4 125 32 C 90 60 73 103 73 161 C 73 213 89 254 121 284 C 153 314 192 330 239 330 L 420 330 L 420 420 C 420 450 410 475 391 494 C 371 512 342 522 304 522 C 264 522 234 515 215 501 C 195 487 180 459 169 415 L 85 439 C 95 495 119 538 155 567 C 191 595 241 610 303 610 C 364 610 415 595 456 566 C 496 537 517 493 517 433 L 517 155 C 517 121 526 99 544 90 C 562 80 589 79 625 86 L 625 -3 C 583 -9 546 -6 514 6 C 482 19 465 49 462 97 L 443 97 C 426 66 400 40 366 20 C 332 0 293 -10 251 -10 Z M 162 708 L 123 768 L 286 916 L 356 916 L 521 768 L 482 708 L 321 822 L 162 708 Z" unicode="â" />
<glyph horiz-adv-x="662" d="M 265 74 C 297 74 327 80 353 93 C 379 105 401 127 420 157 L 420 256 L 263 256 C 234 256 211 249 194 236 C 176 222 168 199 168 167 C 168 137 175 114 190 98 C 205 82 230 74 265 74 Z M 251 -10 C 201 -10 159 4 125 32 C 90 60 73 103 73 161 C 73 213 89 254 121 284 C 153 314 192 330 239 330 L 420 330 L 420 420 C 420 450 410 475 391 494 C 371 512 342 522 304 522 C 264 522 234 515 215 501 C 195 487 180 459 169 415 L 85 439 C 95 495 119 538 155 567 C 191 595 241 610 303 610 C 364 610 415 595 456 566 C 496 537 517 493 517 433 L 517 155 C 517 121 526 99 544 90 C 562 80 589 79 625 86 L 625 -3 C 583 -9 546 -6 514 6 C 482 19 465 49 462 97 L 443 97 C 426 66 400 40 366 20 C 332 0 293 -10 251 -10 Z M 386 710 C 363 710 344 716 330 728 C 316 740 303 753 293 768 C 282 782 272 796 263 808 C 254 820 244 826 233 826 C 221 826 211 819 203 805 C 195 791 191 767 192 731 L 192 720 L 118 720 L 118 735 C 118 785 128 826 149 859 C 170 892 200 909 240 909 C 264 909 284 903 299 891 C 313 879 326 865 337 851 C 347 836 357 823 365 811 C 373 799 382 793 393 793 C 405 793 415 799 423 813 C 431 827 435 852 435 888 L 435 899 L 508 899 L 508 884 C 508 833 497 791 476 759 C 455 726 425 710 386 710 Z" unicode="ã" />
<glyph horiz-adv-x="662" d="M 265 74 C 297 74 327 80 353 93 C 379 105 401 127 420 157 L 420 256 L 263 256 C 234 256 211 249 194 236 C 176 222 168 199 168 167 C 168 137 175 114 190 98 C 205 82 230 74 265 74 Z M 251 -10 C 201 -10 159 4 125 32 C 90 60 73 103 73 161 C 73 213 89 254 121 284 C 153 314 192 330 239 330 L 420 330 L 420 420 C 420 450 410 475 391 494 C 371 512 342 522 304 522 C 264 522 234 515 215 501 C 195 487 180 459 169 415 L 85 439 C 95 495 119 538 155 567 C 191 595 241 610 303 610 C 364 610 415 595 456 566 C 496 537 517 493 517 433 L 517 155 C 517 121 526 99 544 90 C 562 80 589 79 625 86 L 625 -3 C 583 -9 546 -6 514 6 C 482 19 465 49 462 97 L 443 97 C 426 66 400 40 366 20 C 332 0 293 -10 251 -10 Z M 207 711 C 188 711 173 715 162 723 C 150 731 145 745 145 767 L 145 774 C 145 796 150 811 162 819 C 173 827 188 832 207 832 C 225 832 240 827 251 819 C 262 811 268 796 268 774 L 268 767 C 268 745 262 731 251 723 C 239 715 225 711 207 711 Z M 419 711 C 400 711 385 715 374 723 C 363 731 358 745 358 767 L 358 774 C 358 796 363 811 374 819 C 385 827 400 832 419 832 C 437 832 452 827 464 819 C 475 811 481 796 481 774 L 481 767 C 481 745 475 731 463 723 C 451 715 437 711 419 711 Z" unicode="ä" />
<glyph horiz-adv-x="662" d="M 265 74 C 297 74 327 80 353 93 C 379 105 401 127 420 157 L 420 256 L 263 256 C 234 256 211 249 194 236 C 176 222 168 199 168 167 C 168 137 175 114 190 98 C 205 82 230 74 265 74 Z M 251 -10 C 201 -10 159 4 125 32 C 90 60 73 103 73 161 C 73 213 89 254 121 284 C 153 314 192 330 239 330 L 420 330 L 420 420 C 420 450 410 475 391 494 C 371 512 342 522 304 522 C 264 522 234 515 215 501 C 195 487 180 459 169 415 L 85 439 C 95 495 119 538 155 567 C 191 595 241 610 303 610 C 364 610 415 595 456 566 C 496 537 517 493 517 433 L 517 155 C 517 121 526 99 544 90 C 562 80 589 79 625 86 L 625 -3 C 583 -9 546 -6 514 6 C 482 19 465 49 462 97 L 443 97 C 426 66 400 40 366 20 C 332 0 293 -10 251 -10 Z M 313 686 C 268 686 232 697 205 721 C 177 744 164 780 164 830 L 164 862 C 164 912 177 949 205 973 C 232 997 268 1009 313 1009 C 357 1009 393 997 421 973 C 448 949 462 912 462 862 L 462 830 C 462 780 448 744 421 721 C 393 697 357 686 313 686 Z M 313 755 C 337 755 356 760 369 772 C 381 784 388 803 388 830 L 388 862 C 388 888 381 908 369 921 C 356 933 337 940 313 940 C 288 940 269 933 257 921 C 244 908 238 888 238 862 L 238 830 C 238 803 244 784 257 772 C 269 760 288 755 313 755 Z" unicode="å" />
<glyph horiz-adv-x="662" d="M 626 144 C 619 91 603 52 578 27 C 552 2 515 -10 465 -10 C 431 -10 401 -2 377 12 C 352 26 334 49 322 80 L 307 80 C 293 53 275 31 255 15 C 234 -1 207 -10 173 -10 C 138 -10 107 4 79 32 C 51 60 37 103 37 161 C 37 213 51 255 80 285 C 108 315 142 330 182 330 L 293 330 L 293 418 C 293 452 286 480 272 501 C 258 522 237 533 209 533 C 184 533 166 527 156 515 C 145 503 134 476 124 436 L 49 460 C 57 509 74 546 100 572 C 126 597 164 610 214 610 C 240 610 263 604 284 593 C 304 582 321 565 334 543 C 347 565 364 582 385 593 C 406 604 430 610 457 610 C 507 610 548 593 579 561 C 609 528 625 477 625 409 L 625 281 L 370 281 L 370 181 C 370 139 377 108 391 90 C 405 71 426 62 455 62 C 483 62 504 68 516 80 C 528 92 537 116 542 151 L 626 144 Z M 370 415 L 370 344 L 540 344 L 540 406 C 540 452 533 485 519 506 C 505 526 483 537 455 537 C 427 537 406 527 392 507 C 377 487 370 457 370 415 Z M 293 139 L 293 266 L 208 266 C 183 266 163 258 147 244 C 131 230 123 204 123 167 C 123 134 128 109 139 91 C 149 73 167 64 193 64 C 213 64 231 70 247 84 C 263 98 278 116 293 139 Z" unicode="æ" />
<glyph horiz-adv-x="662" d="M 344 -10 C 262 -10 201 8 161 46 C 120 84 100 138 100 210 L 100 386 C 100 459 120 515 161 553 C 201 591 262 610 343 610 C 414 610 469 593 507 559 C 545 525 567 473 572 405 L 477 400 C 474 444 462 475 440 494 C 418 513 386 523 342 523 C 293 523 256 512 232 490 C 208 468 196 433 196 387 L 196 209 C 196 163 208 130 232 109 C 256 87 293 77 343 77 C 387 77 419 84 441 100 C 463 116 475 142 477 180 L 572 175 C 568 113 547 66 509 36 C 471 5 416 -10 344 -10 Z M 302 0 L 321 42 C 351 36 378 22 402 2 C 426 -18 438 -49 438 -91 C 438 -133 423 -165 395 -185 C 367 -205 335 -215 301 -215 C 259 -215 226 -207 200 -191 C 174 -175 159 -149 157 -111 L 242 -101 C 242 -113 247 -122 255 -127 C 263 -132 277 -135 296 -135 C 314 -135 327 -130 337 -122 C 346 -114 351 -98 351 -76 C 351 -52 347 -35 340 -24 C 332 -13 320 -5 302 0 Z" unicode="ç" />
<glyph horiz-adv-x="662" d="M 565 131 C 548 81 522 45 488 23 C 454 1 402 -10 332 -10 C 259 -10 202 8 161 46 C 120 83 100 138 100 211 L 100 386 C 100 460 121 516 164 554 C 207 591 263 610 332 610 C 401 610 457 591 499 553 C 541 515 562 456 562 378 L 562 281 L 196 281 L 196 211 C 196 161 207 126 229 105 C 251 83 286 73 332 73 C 375 73 406 79 426 93 C 446 107 461 129 472 159 L 565 131 Z M 196 385 L 196 355 L 466 355 L 466 376 C 466 428 454 467 432 491 C 409 515 375 527 331 527 C 286 527 252 515 230 492 C 207 468 196 433 196 385 Z M 332 700 L 151 900 L 294 900 L 417 700 L 332 700 Z" unicode="è" />
<glyph horiz-adv-x="662" d="M 565 131 C 548 81 522 45 488 23 C 454 1 402 -10 332 -10 C 259 -10 202 8 161 46 C 120 83 100 138 100 211 L 100 386 C 100 460 121 516 164 554 C 207 591 263 610 332 610 C 401 610 457 591 499 553 C 541 515 562 456 562 378 L 562 281 L 196 281 L 196 211 C 196 161 207 126 229 105 C 251 83 286 73 332 73 C 375 73 406 79 426 93 C 446 107 461 129 472 159 L 565 131 Z M 196 385 L 196 355 L 466 355 L 466 376 C 466 428 454 467 432 491 C 409 515 375 527 331 527 C 286 527 252 515 230 492 C 207 468 196 433 196 385 Z M 227 700 L 351 900 L 493 900 L 313 700 L 227 700 Z" unicode="é" />
<glyph horiz-adv-x="662" d="M 565 131 C 548 81 522 45 488 23 C 454 1 402 -10 332 -10 C 259 -10 202 8 161 46 C 120 83 100 138 100 211 L 100 386 C 100 460 121 516 164 554 C 207 591 263 610 332 610 C 401 610 457 591 499 553 C 541 515 562 456 562 378 L 562 281 L 196 281 L 196 211 C 196 161 207 126 229 105 C 251 83 286 73 332 73 C 375 73 406 79 426 93 C 446 107 461 129 472 159 L 565 131 Z M 196 385 L 196 355 L 466 355 L 466 376 C 466 428 454 467 432 491 C 409 515 375 527 331 527 C 286 527 252 515 230 492 C 207 468 196 433 196 385 Z M 172 708 L 133 768 L 296 916 L 366 916 L 531 768 L 492 708 L 331 822 L 172 708 Z" unicode="ê" />
<glyph horiz-adv-x="662" d="M 565 131 C 548 81 522 45 488 23 C 454 1 402 -10 332 -10 C 259 -10 202 8 161 46 C 120 83 100 138 100 211 L 100 386 C 100 460 121 516 164 554 C 207 591 263 610 332 610 C 401 610 457 591 499 553 C 541 515 562 456 562 378 L 562 281 L 196 281 L 196 211 C 196 161 207 126 229 105 C 251 83 286 73 332 73 C 375 73 406 79 426 93 C 446 107 461 129 472 159 L 565 131 Z M 196 385 L 196 355 L 466 355 L 466 376 C 466 428 454 467 432 491 C 409 515 375 527 331 527 C 286 527 252 515 230 492 C 207 468 196 433 196 385 Z M 226 711 C 207 711 192 715 181 723 C 169 731 164 745 164 767 L 164 774 C 164 796 169 811 181 819 C 192 827 207 832 226 832 C 244 832 259 827 270 819 C 281 811 287 796 287 774 L 287 767 C 287 745 281 731 270 723 C 258 715 244 711 226 711 Z M 438 711 C 419 711 404 715 393 723 C 382 731 377 745 377 767 L 377 774 C 377 796 382 811 393 819 C 404 827 419 832 438 832 C 456 832 471 827 483 819 C 494 811 500 796 500 774 L 500 767 C 500 745 494 731 482 723 C 470 715 456 711 438 711 Z" unicode="ë" />
<glyph horiz-adv-x="662" d="M 100 0 L 100 87 L 283 87 L 283 513 L 100 513 L 100 600 L 380 600 L 380 87 L 562 87 L 562 0 L 100 0 Z M 332 700 L 151 900 L 294 900 L 417 700 L 332 700 Z" unicode="ì" />
<glyph horiz-adv-x="662" d="M 100 0 L 100 87 L 283 87 L 283 513 L 100 513 L 100 600 L 380 600 L 380 87 L 562 87 L 562 0 L 100 0 Z M 225 700 L 349 900 L 491 900 L 311 700 L 225 700 Z" unicode="í" />
<glyph horiz-adv-x="662" d="M 100 0 L 100 87 L 283 87 L 283 513 L 100 513 L 100 600 L 380 600 L 380 87 L 562 87 L 562 0 L 100 0 Z M 171 708 L 132 768 L 295 916 L 365 916 L 530 768 L 491 708 L 330 822 L 171 708 Z" unicode="î" />
<glyph horiz-adv-x="662" d="M 100 0 L 100 87 L 283 87 L 283 513 L 100 513 L 100 600 L 380 600 L 380 87 L 562 87 L 562 0 L 100 0 Z M 225 711 C 206 711 191 715 180 723 C 168 731 163 745 163 767 L 163 774 C 163 796 168 811 180 819 C 191 827 206 832 225 832 C 243 832 258 827 269 819 C 280 811 286 796 286 774 L 286 767 C 286 745 280 731 269 723 C 257 715 243 711 225 711 Z M 437 711 C 418 711 403 715 392 723 C 381 731 376 745 376 767 L 376 774 C 376 796 381 811 392 819 C 403 827 418 832 437 832 C 455 832 470 827 482 819 C 493 811 499 796 499 774 L 499 767 C 499 745 493 731 481 723 C 469 715 455 711 437 711 Z" unicode="ï" />
<glyph horiz-adv-x="662" d="M 331 -10 C 261 -10 205 8 163 46 C 120 83 99 140 99 216 L 99 296 C 99 358 118 408 157 445 C 195 481 246 500 308 500 C 346 500 377 492 402 478 C 427 463 444 446 454 426 L 474 426 C 471 468 465 505 455 539 C 445 573 431 602 413 627 L 237 541 L 237 619 L 360 680 C 339 696 315 710 288 722 C 261 734 231 745 197 755 L 226 821 C 271 807 311 792 346 775 C 381 758 411 739 437 718 L 604 799 L 604 721 L 488 664 C 514 628 533 586 545 539 C 557 492 563 438 563 378 L 563 222 C 563 141 541 82 499 45 C 456 8 400 -10 331 -10 Z M 332 77 C 380 77 415 88 435 111 C 455 134 466 169 466 215 L 466 284 C 466 326 455 358 435 380 C 415 401 380 412 332 412 C 283 412 248 401 228 380 C 208 358 198 326 198 284 L 198 215 C 198 169 208 134 228 111 C 248 88 283 77 332 77 Z" unicode="ð" />
<glyph horiz-adv-x="662" d="M 100 0 L 100 600 L 196 600 L 196 507 L 224 507 C 238 539 260 564 289 582 C 318 600 351 610 387 610 C 441 610 483 592 515 556 C 546 520 562 472 562 410 L 562 0 L 466 0 L 466 391 C 466 433 456 464 438 486 C 420 507 394 518 360 518 C 332 518 304 509 276 492 C 248 475 221 450 196 418 L 196 0 L 100 0 Z M 423 710 C 400 710 381 716 367 728 C 353 740 340 753 330 768 C 319 782 309 796 300 808 C 291 820 281 826 270 826 C 258 826 248 819 240 805 C 232 791 228 767 229 731 L 229 720 L 155 720 L 155 735 C 155 785 165 826 186 859 C 207 892 237 909 277 909 C 301 909 321 903 336 891 C 350 879 363 865 374 851 C 384 836 394 823 402 811 C 410 799 419 793 430 793 C 442 793 452 799 460 813 C 468 827 472 852 472 888 L 472 899 L 545 899 L 545 884 C 545 833 534 791 513 759 C 492 726 462 710 423 710 Z" unicode="ñ" />
<glyph horiz-adv-x="662" d="M 331 -10 C 257 -10 200 9 160 47 C 120 85 100 139 100 210 L 100 386 C 100 457 120 512 160 551 C 200 590 257 610 332 610 C 405 610 462 590 502 551 C 542 512 562 457 562 386 L 562 211 C 562 139 542 85 502 47 C 462 9 405 -10 331 -10 Z M 331 77 C 376 77 410 87 432 109 C 454 130 466 164 466 210 L 466 386 C 466 432 454 467 432 489 C 410 511 376 523 331 523 C 285 523 251 511 229 489 C 207 467 196 432 196 386 L 196 210 C 196 164 207 130 229 109 C 251 87 285 77 331 77 Z M 331 700 L 150 900 L 293 900 L 416 700 L 331 700 Z" unicode="ò" />
<glyph horiz-adv-x="662" d="M 331 -10 C 257 -10 200 9 160 47 C 120 85 100 139 100 210 L 100 386 C 100 457 120 512 160 551 C 200 590 257 610 332 610 C 405 610 462 590 502 551 C 542 512 562 457 562 386 L 562 211 C 562 139 542 85 502 47 C 462 9 405 -10 331 -10 Z M 331 77 C 376 77 410 87 432 109 C 454 130 466 164 466 210 L 466 386 C 466 432 454 467 432 489 C 410 511 376 523 331 523 C 285 523 251 511 229 489 C 207 467 196 432 196 386 L 196 210 C 196 164 207 130 229 109 C 251 87 285 77 331 77 Z M 225 700 L 349 900 L 491 900 L 311 700 L 225 700 Z" unicode="ó" />
<glyph horiz-adv-x="662" d="M 331 -10 C 257 -10 200 9 160 47 C 120 85 100 139 100 210 L 100 386 C 100 457 120 512 160 551 C 200 590 257 610 332 610 C 405 610 462 590 502 551 C 542 512 562 457 562 386 L 562 211 C 562 139 542 85 502 47 C 462 9 405 -10 331 -10 Z M 331 77 C 376 77 410 87 432 109 C 454 130 466 164 466 210 L 466 386 C 466 432 454 467 432 489 C 410 511 376 523 331 523 C 285 523 251 511 229 489 C 207 467 196 432 196 386 L 196 210 C 196 164 207 130 229 109 C 251 87 285 77 331 77 Z M 171 708 L 132 768 L 295 916 L 365 916 L 530 768 L 491 708 L 330 822 L 171 708 Z" unicode="ô" />
<glyph horiz-adv-x="662" d="M 331 -10 C 257 -10 200 9 160 47 C 120 85 100 139 100 210 L 100 386 C 100 457 120 512 160 551 C 200 590 257 610 332 610 C 405 610 462 590 502 551 C 542 512 562 457 562 386 L 562 211 C 562 139 542 85 502 47 C 462 9 405 -10 331 -10 Z M 331 77 C 376 77 410 87 432 109 C 454 130 466 164 466 210 L 466 386 C 466 432 454 467 432 489 C 410 511 376 523 331 523 C 285 523 251 511 229 489 C 207 467 196 432 196 386 L 196 210 C 196 164 207 130 229 109 C 251 87 285 77 331 77 Z M 404 710 C 381 710 362 716 348 728 C 334 740 321 753 311 768 C 300 782 290 796 281 808 C 272 820 262 826 251 826 C 239 826 229 819 221 805 C 213 791 209 767 210 731 L 210 720 L 136 720 L 136 735 C 136 785 146 826 167 859 C 188 892 218 909 258 909 C 282 909 302 903 317 891 C 331 879 344 865 355 851 C 365 836 375 823 383 811 C 391 799 400 793 411 793 C 423 793 433 799 441 813 C 449 827 453 852 453 888 L 453 899 L 526 899 L 526 884 C 526 833 515 791 494 759 C 473 726 443 710 404 710 Z" unicode="õ" />
<glyph horiz-adv-x="662" d="M 331 -10 C 257 -10 200 9 160 47 C 120 85 100 139 100 210 L 100 386 C 100 457 120 512 160 551 C 200 590 257 610 332 610 C 405 610 462 590 502 551 C 542 512 562 457 562 386 L 562 211 C 562 139 542 85 502 47 C 462 9 405 -10 331 -10 Z M 331 77 C 376 77 410 87 432 109 C 454 130 466 164 466 210 L 466 386 C 466 432 454 467 432 489 C 410 511 376 523 331 523 C 285 523 251 511 229 489 C 207 467 196 432 196 386 L 196 210 C 196 164 207 130 229 109 C 251 87 285 77 331 77 Z M 225 711 C 206 711 191 715 180 723 C 168 731 163 745 163 767 L 163 774 C 163 796 168 811 180 819 C 191 827 206 832 225 832 C 243 832 258 827 269 819 C 280 811 286 796 286 774 L 286 767 C 286 745 280 731 269 723 C 257 715 243 711 225 711 Z M 437 711 C 418 711 403 715 392 723 C 381 731 376 745 376 767 L 376 774 C 376 796 381 811 392 819 C 403 827 418 832 437 832 C 455 832 470 827 482 819 C 493 811 499 796 499 774 L 499 767 C 499 745 493 731 481 723 C 469 715 455 711 437 711 Z" unicode="ö" />
<glyph horiz-adv-x="662" d="M 331 527 C 307 527 288 532 273 542 C 258 552 251 568 251 590 L 251 607 C 251 629 258 645 273 656 C 288 666 307 672 331 672 C 354 672 373 666 388 656 C 402 645 410 629 410 607 L 410 590 C 410 568 402 552 388 542 C 373 532 354 527 331 527 Z M 74 301 L 74 399 L 588 399 L 588 301 L 74 301 Z M 331 27 C 307 27 288 32 273 42 C 258 52 251 68 251 90 L 251 107 C 251 129 258 145 273 156 C 288 166 307 172 331 172 C 354 172 373 166 388 156 C 402 145 410 129 410 107 L 410 90 C 410 68 402 52 388 42 C 373 32 354 27 331 27 Z" unicode="÷" />
<glyph horiz-adv-x="662" d="M 195 210 C 195 191 196 175 200 161 C 204 147 209 134 216 124 L 392 514 C 383 516 373 518 363 520 C 353 521 342 522 331 522 C 284 522 250 511 228 489 C 206 467 195 433 195 386 L 195 210 Z M 331 78 C 377 78 412 88 434 109 C 456 130 467 164 467 210 L 467 386 C 467 404 465 421 461 435 C 457 449 452 462 446 473 L 270 86 C 278 83 288 81 298 80 C 308 78 319 78 331 78 Z M 331 -10 C 315 -10 299 -9 284 -7 C 269 -5 255 -2 241 2 L 194 -100 L 101 -100 L 167 40 C 145 58 129 81 117 110 C 105 138 99 172 99 210 L 99 386 C 99 461 120 517 163 554 C 206 591 262 610 332 610 C 348 610 364 609 379 607 C 393 605 407 602 421 598 L 468 700 L 561 700 L 495 559 C 516 540 533 516 545 488 C 557 459 563 425 563 386 L 563 210 C 563 135 541 80 499 44 C 456 8 400 -10 331 -10 Z" unicode="ø" />
<glyph horiz-adv-x="662" d="M 276 -10 C 222 -10 180 8 148 45 C 116 81 100 130 100 190 L 100 600 L 196 600 L 196 208 C 196 166 204 134 222 113 C 239 92 266 82 302 82 C 330 82 358 90 386 106 C 413 122 440 147 466 181 L 466 600 L 562 600 L 562 0 L 466 0 L 466 93 L 438 93 C 426 62 405 37 375 18 C 345 0 312 -10 276 -10 Z M 305 700 L 124 900 L 267 900 L 390 700 L 305 700 Z" unicode="ù" />
<glyph horiz-adv-x="662" d="M 276 -10 C 222 -10 180 8 148 45 C 116 81 100 130 100 190 L 100 600 L 196 600 L 196 208 C 196 166 204 134 222 113 C 239 92 266 82 302 82 C 330 82 358 90 386 106 C 413 122 440 147 466 181 L 466 600 L 562 600 L 562 0 L 466 0 L 466 93 L 438 93 C 426 62 405 37 375 18 C 345 0 312 -10 276 -10 Z M 262 700 L 386 900 L 528 900 L 348 700 L 262 700 Z" unicode="ú" />
<glyph horiz-adv-x="662" d="M 276 -10 C 222 -10 180 8 148 45 C 116 81 100 130 100 190 L 100 600 L 196 600 L 196 208 C 196 166 204 134 222 113 C 239 92 266 82 302 82 C 330 82 358 90 386 106 C 413 122 440 147 466 181 L 466 600 L 562 600 L 562 0 L 466 0 L 466 93 L 438 93 C 426 62 405 37 375 18 C 345 0 312 -10 276 -10 Z M 172 708 L 133 768 L 296 916 L 366 916 L 531 768 L 492 708 L 331 822 L 172 708 Z" unicode="û" />
<glyph horiz-adv-x="662" d="M 276 -10 C 222 -10 180 8 148 45 C 116 81 100 130 100 190 L 100 600 L 196 600 L 196 208 C 196 166 204 134 222 113 C 239 92 266 82 302 82 C 330 82 358 90 386 106 C 413 122 440 147 466 181 L 466 600 L 562 600 L 562 0 L 466 0 L 466 93 L 438 93 C 426 62 405 37 375 18 C 345 0 312 -10 276 -10 Z M 226 711 C 207 711 192 715 181 723 C 169 731 164 745 164 767 L 164 774 C 164 796 169 811 181 819 C 192 827 207 832 226 832 C 244 832 259 827 270 819 C 281 811 287 796 287 774 L 287 767 C 287 745 281 731 270 723 C 258 715 244 711 226 711 Z M 438 711 C 419 711 404 715 393 723 C 382 731 377 745 377 767 L 377 774 C 377 796 382 811 393 819 C 404 827 419 832 438 832 C 456 832 471 827 483 819 C 494 811 500 796 500 774 L 500 767 C 500 745 494 731 482 723 C 470 715 456 711 438 711 Z" unicode="ü" />
<glyph horiz-adv-x="662" d="M 172 -206 C 157 -206 142 -205 127 -203 C 111 -201 95 -198 79 -195 L 95 -108 C 111 -112 126 -115 140 -117 C 154 -119 167 -120 179 -120 C 209 -120 235 -111 256 -94 C 276 -77 293 -50 305 -12 L 308 -2 L 268 -2 L 75 600 L 180 600 L 333 81 L 485 600 L 586 600 L 389 -21 C 368 -87 339 -135 302 -163 C 265 -191 222 -206 172 -206 Z M 225 700 L 349 900 L 491 900 L 311 700 L 225 700 Z" unicode="ý" />
<glyph horiz-adv-x="662" d="M 324 75 C 372 75 408 86 431 108 C 454 130 466 166 466 214 L 466 390 C 466 434 457 466 440 487 C 422 507 395 518 358 518 C 327 518 298 509 272 493 C 246 477 220 451 196 417 L 196 114 C 216 100 236 90 256 84 C 276 78 299 75 324 75 Z M 326 -10 C 304 -10 282 -7 259 -2 C 235 2 214 9 196 18 L 196 -200 L 100 -200 L 100 800 L 196 800 L 196 507 L 224 507 C 238 539 260 565 289 583 C 317 601 349 610 385 610 C 440 610 483 590 515 550 C 546 510 562 456 562 387 L 562 212 C 562 142 541 88 499 49 C 457 9 399 -10 326 -10 Z" unicode="þ" />
<glyph horiz-adv-x="662" d="M 172 -206 C 157 -206 142 -205 127 -203 C 111 -201 95 -198 79 -195 L 95 -108 C 111 -112 126 -115 140 -117 C 154 -119 167 -120 179 -120 C 209 -120 235 -111 256 -94 C 276 -77 293 -50 305 -12 L 308 -2 L 268 -2 L 75 600 L 180 600 L 333 81 L 485 600 L 586 600 L 389 -21 C 368 -87 339 -135 302 -163 C 265 -191 222 -206 172 -206 Z M 225 711 C 206 711 191 715 180 723 C 168 731 163 745 163 767 L 163 774 C 163 796 168 811 180 819 C 191 827 206 832 225 832 C 243 832 258 827 269 819 C 280 811 286 796 286 774 L 286 767 C 286 745 280 731 269 723 C 257 715 243 711 225 711 Z M 437 711 C 418 711 403 715 392 723 C 381 731 376 745 376 767 L 376 774 C 376 796 381 811 392 819 C 403 827 418 832 437 832 C 455 832 470 827 482 819 C 493 811 499 796 499 774 L 499 767 C 499 745 493 731 481 723 C 469 715 455 711 437 711 Z" unicode="ÿ" />
<glyph horiz-adv-x="662" d="M 430 319 L 331 689 L 230 319 L 430 319 Z M 516 0 L 453 233 L 206 233 L 143 0 L 45 0 L 280 800 L 383 800 L 618 0 L 516 0 Z M 147 957 L 147 1043 L 517 1043 L 517 957 L 147 957 Z" unicode="Ā" />
<glyph horiz-adv-x="662" d="M 265 74 C 297 74 327 80 353 93 C 379 105 401 127 420 157 L 420 256 L 263 256 C 234 256 211 249 194 236 C 176 222 168 199 168 167 C 168 137 175 114 190 98 C 205 82 230 74 265 74 Z M 251 -10 C 201 -10 159 4 125 32 C 90 60 73 103 73 161 C 73 213 89 254 121 284 C 153 314 192 330 239 330 L 420 330 L 420 420 C 420 450 410 475 391 494 C 371 512 342 522 304 522 C 264 522 234 515 215 501 C 195 487 180 459 169 415 L 85 439 C 95 495 119 538 155 567 C 191 595 241 610 303 610 C 364 610 415 595 456 566 C 496 537 517 493 517 433 L 517 155 C 517 121 526 99 544 90 C 562 80 589 79 625 86 L 625 -3 C 583 -9 546 -6 514 6 C 482 19 465 49 462 97 L 443 97 C 426 66 400 40 366 20 C 332 0 293 -10 251 -10 Z M 128 757 L 128 843 L 498 843 L 498 757 L 128 757 Z" unicode="ā" />
<glyph horiz-adv-x="662" d="M 430 319 L 331 689 L 230 319 L 430 319 Z M 516 0 L 453 233 L 206 233 L 143 0 L 45 0 L 280 800 L 383 800 L 618 0 L 516 0 Z M 332 893 C 269 893 218 909 178 942 C 138 974 117 1027 117 1101 L 212 1101 C 212 1053 222 1019 242 999 C 262 979 292 970 332 970 C 372 970 401 979 421 999 C 441 1019 451 1053 452 1101 L 547 1101 C 546 1027 526 974 486 942 C 446 909 394 893 332 893 Z" unicode="Ă" />
<glyph horiz-adv-x="662" d="M 265 74 C 297 74 327 80 353 93 C 379 105 401 127 420 157 L 420 256 L 263 256 C 234 256 211 249 194 236 C 176 222 168 199 168 167 C 168 137 175 114 190 98 C 205 82 230 74 265 74 Z M 251 -10 C 201 -10 159 4 125 32 C 90 60 73 103 73 161 C 73 213 89 254 121 284 C 153 314 192 330 239 330 L 420 330 L 420 420 C 420 450 410 475 391 494 C 371 512 342 522 304 522 C 264 522 234 515 215 501 C 195 487 180 459 169 415 L 85 439 C 95 495 119 538 155 567 C 191 595 241 610 303 610 C 364 610 415 595 456 566 C 496 537 517 493 517 433 L 517 155 C 517 121 526 99 544 90 C 562 80 589 79 625 86 L 625 -3 C 583 -9 546 -6 514 6 C 482 19 465 49 462 97 L 443 97 C 426 66 400 40 366 20 C 332 0 293 -10 251 -10 Z M 313 693 C 250 693 199 709 159 742 C 119 774 98 827 98 901 L 193 901 C 193 853 203 819 223 799 C 243 779 273 770 313 770 C 353 770 382 779 402 799 C 422 819 432 853 433 901 L 528 901 C 527 827 507 774 467 742 C 427 709 375 693 313 693 Z" unicode="ă" />
<glyph horiz-adv-x="662" d="M 430 319 L 331 689 L 230 319 L 430 319 Z M 516 0 L 453 233 L 206 233 L 143 0 L 45 0 L 280 800 L 383 800 L 618 0 L 516 0 Z M 575 -215 C 535 -215 502 -204 476 -183 C 449 -161 436 -132 436 -96 C 436 -64 447 -35 471 -10 C 495 14 521 33 550 45 L 575 23 C 554 9 540 -6 532 -23 C 524 -40 521 -55 521 -69 C 521 -87 526 -101 538 -111 C 550 -121 566 -126 587 -126 C 597 -126 611 -125 628 -123 C 644 -121 658 -118 669 -116 L 669 -205 C 656 -207 641 -210 623 -212 C 605 -214 589 -215 575 -215 Z" unicode="Ą" />
<glyph horiz-adv-x="662" d="M 265 74 C 297 74 327 80 353 93 C 379 105 401 127 420 157 L 420 256 L 263 256 C 234 256 211 249 194 236 C 176 222 168 199 168 167 C 168 137 175 114 190 98 C 205 82 230 74 265 74 Z M 251 -10 C 201 -10 159 4 125 32 C 90 60 73 103 73 161 C 73 213 89 254 121 284 C 153 314 192 330 239 330 L 420 330 L 420 420 C 420 450 410 475 391 494 C 371 512 342 522 304 522 C 264 522 234 515 215 501 C 195 487 180 459 169 415 L 85 439 C 95 495 119 538 155 567 C 191 595 241 610 303 610 C 364 610 415 595 456 566 C 496 537 517 493 517 433 L 517 155 C 517 121 526 99 544 90 C 562 80 589 79 625 86 L 625 -3 C 583 -9 546 -6 514 6 C 482 19 465 49 462 97 L 443 97 C 426 66 400 40 366 20 C 332 0 293 -10 251 -10 Z M 559 -215 C 519 -215 486 -204 460 -183 C 433 -161 420 -132 420 -96 C 420 -64 431 -35 455 -10 C 479 14 505 33 534 45 L 559 23 C 538 9 524 -6 516 -23 C 508 -40 505 -55 505 -69 C 505 -87 510 -101 522 -111 C 534 -121 550 -126 571 -126 C 581 -126 595 -125 612 -123 C 628 -121 642 -118 653 -116 L 653 -205 C 640 -207 625 -210 607 -212 C 589 -214 573 -215 559 -215 Z" unicode="ą" />
<glyph horiz-adv-x="662" d="M 341 -10 C 254 -10 189 13 146 60 C 103 107 82 177 82 271 L 82 525 C 82 619 103 690 146 738 C 189 786 254 810 342 810 C 426 810 488 788 530 745 C 571 701 594 633 599 540 L 502 530 C 496 603 482 653 459 681 C 435 709 396 723 341 723 C 281 723 239 708 215 678 C 191 648 179 598 179 526 L 179 270 C 179 201 191 152 216 122 C 241 92 283 77 341 77 C 397 77 436 90 459 118 C 481 145 496 194 502 266 L 599 256 C 594 164 571 96 530 54 C 488 11 425 -10 341 -10 Z M 270 900 L 394 1100 L 536 1100 L 356 900 L 270 900 Z" unicode="Ć" />
<glyph horiz-adv-x="662" d="M 344 -10 C 262 -10 201 8 161 46 C 120 84 100 138 100 210 L 100 386 C 100 459 120 515 161 553 C 201 591 262 610 343 610 C 414 610 469 593 507 559 C 545 525 567 473 572 405 L 477 400 C 474 444 462 475 440 494 C 418 513 386 523 342 523 C 293 523 256 512 232 490 C 208 468 196 433 196 387 L 196 209 C 196 163 208 130 232 109 C 256 87 293 77 343 77 C 387 77 419 84 441 100 C 463 116 475 142 477 180 L 572 175 C 568 113 547 66 509 36 C 471 5 416 -10 344 -10 Z M 233 700 L 357 900 L 499 900 L 319 700 L 233 700 Z" unicode="ć" />
<glyph horiz-adv-x="662" d="M 341 -10 C 254 -10 189 13 146 60 C 103 107 82 177 82 271 L 82 525 C 82 619 103 690 146 738 C 189 786 254 810 342 810 C 426 810 488 788 530 745 C 571 701 594 633 599 540 L 502 530 C 496 603 482 653 459 681 C 435 709 396 723 341 723 C 281 723 239 708 215 678 C 191 648 179 598 179 526 L 179 270 C 179 201 191 152 216 122 C 241 92 283 77 341 77 C 397 77 436 90 459 118 C 481 145 496 194 502 266 L 599 256 C 594 164 571 96 530 54 C 488 11 425 -10 341 -10 Z M 181 908 L 142 968 L 305 1116 L 375 1116 L 540 968 L 501 908 L 340 1022 L 181 908 Z" unicode="Ĉ" />
<glyph horiz-adv-x="662" d="M 344 -10 C 262 -10 201 8 161 46 C 120 84 100 138 100 210 L 100 386 C 100 459 120 515 161 553 C 201 591 262 610 343 610 C 414 610 469 593 507 559 C 545 525 567 473 572 405 L 477 400 C 474 444 462 475 440 494 C 418 513 386 523 342 523 C 293 523 256 512 232 490 C 208 468 196 433 196 387 L 196 209 C 196 163 208 130 232 109 C 256 87 293 77 343 77 C 387 77 419 84 441 100 C 463 116 475 142 477 180 L 572 175 C 568 113 547 66 509 36 C 471 5 416 -10 344 -10 Z M 185 708 L 146 768 L 309 916 L 379 916 L 544 768 L 505 708 L 344 822 L 185 708 Z" unicode="ĉ" />
<glyph horiz-adv-x="662" d="M 341 -10 C 254 -10 189 13 146 60 C 103 107 82 177 82 271 L 82 525 C 82 619 103 690 146 738 C 189 786 254 810 342 810 C 426 810 488 788 530 745 C 571 701 594 633 599 540 L 502 530 C 496 603 482 653 459 681 C 435 709 396 723 341 723 C 281 723 239 708 215 678 C 191 648 179 598 179 526 L 179 270 C 179 201 191 152 216 122 C 241 92 283 77 341 77 C 397 77 436 90 459 118 C 481 145 496 194 502 266 L 599 256 C 594 164 571 96 530 54 C 488 11 425 -10 341 -10 Z M 341 911 C 317 911 297 915 283 923 C 268 931 261 945 261 967 L 261 974 C 261 996 268 1011 283 1019 C 297 1027 317 1032 341 1032 C 365 1032 384 1027 399 1019 C 413 1011 421 996 421 974 L 421 967 C 421 945 413 931 398 923 C 383 915 364 911 341 911 Z" unicode="Ċ" />
<glyph horiz-adv-x="662" d="M 344 -10 C 262 -10 201 8 161 46 C 120 84 100 138 100 210 L 100 386 C 100 459 120 515 161 553 C 201 591 262 610 343 610 C 414 610 469 593 507 559 C 545 525 567 473 572 405 L 477 400 C 474 444 462 475 440 494 C 418 513 386 523 342 523 C 293 523 256 512 232 490 C 208 468 196 433 196 387 L 196 209 C 196 163 208 130 232 109 C 256 87 293 77 343 77 C 387 77 419 84 441 100 C 463 116 475 142 477 180 L 572 175 C 568 113 547 66 509 36 C 471 5 416 -10 344 -10 Z M 337 711 C 313 711 293 715 279 723 C 264 731 257 745 257 767 L 257 774 C 257 796 264 811 279 819 C 293 827 313 832 337 832 C 361 832 380 827 395 819 C 409 811 417 796 417 774 L 417 767 C 417 745 409 731 394 723 C 379 715 360 711 337 711 Z" unicode="ċ" />
<glyph horiz-adv-x="662" d="M 341 -10 C 254 -10 189 13 146 60 C 103 107 82 177 82 271 L 82 525 C 82 619 103 690 146 738 C 189 786 254 810 342 810 C 426 810 488 788 530 745 C 571 701 594 633 599 540 L 502 530 C 496 603 482 653 459 681 C 435 709 396 723 341 723 C 281 723 239 708 215 678 C 191 648 179 598 179 526 L 179 270 C 179 201 191 152 216 122 C 241 92 283 77 341 77 C 397 77 436 90 459 118 C 481 145 496 194 502 266 L 599 256 C 594 164 571 96 530 54 C 488 11 425 -10 341 -10 Z M 307 904 L 142 1052 L 181 1112 L 342 999 L 501 1112 L 540 1052 L 377 904 L 307 904 Z" unicode="Č" />
<glyph horiz-adv-x="662" d="M 344 -10 C 262 -10 201 8 161 46 C 120 84 100 138 100 210 L 100 386 C 100 459 120 515 161 553 C 201 591 262 610 343 610 C 414 610 469 593 507 559 C 545 525 567 473 572 405 L 477 400 C 474 444 462 475 440 494 C 418 513 386 523 342 523 C 293 523 256 512 232 490 C 208 468 196 433 196 387 L 196 209 C 196 163 208 130 232 109 C 256 87 293 77 343 77 C 387 77 419 84 441 100 C 463 116 475 142 477 180 L 572 175 C 568 113 547 66 509 36 C 471 5 416 -10 344 -10 Z M 303 704 L 138 852 L 177 912 L 338 799 L 497 912 L 536 852 L 373 704 L 303 704 Z" unicode="č" />
<glyph horiz-adv-x="662" d="M 99 0 L 99 800 L 306 800 C 391 800 458 774 507 722 C 555 670 580 602 580 516 L 580 280 C 580 194 555 126 506 76 C 457 25 390 0 305 0 L 99 0 Z M 196 87 L 304 87 C 364 87 408 104 438 139 C 468 173 483 220 483 279 L 483 517 C 483 576 468 623 438 659 C 408 695 364 713 304 713 L 196 713 L 196 87 Z M 297 904 L 132 1052 L 171 1112 L 332 999 L 491 1112 L 530 1052 L 367 904 L 297 904 Z" unicode="Ď" />
<glyph horiz-adv-x="662" d="M 304 82 C 334 82 363 90 389 107 C 415 123 441 149 466 183 L 466 486 C 447 499 427 509 406 515 C 385 521 363 525 339 525 C 290 525 254 513 231 491 C 207 468 196 433 196 386 L 196 211 C 196 167 205 134 223 113 C 241 92 268 82 304 82 Z M 438 93 C 423 60 401 35 373 17 C 345 -1 313 -10 277 -10 C 221 -10 177 9 146 49 C 115 88 100 143 100 213 L 100 388 C 100 458 120 512 162 551 C 203 590 261 610 336 610 C 357 610 379 607 401 602 C 423 597 445 590 466 582 L 466 800 L 562 800 L 562 0 L 466 0 L 466 93 L 438 93 Z M 648 705 L 721 1000 L 861 1000 L 717 705 L 648 705 Z" unicode="ď" />
<glyph horiz-adv-x="662" d="M 99 0 L 99 396 L 10 396 L 10 484 L 99 484 L 99 800 L 306 800 C 391 800 458 774 507 722 C 555 670 580 602 580 516 L 580 280 C 580 194 555 126 506 76 C 457 25 390 0 305 0 L 99 0 Z M 196 87 L 304 87 C 364 87 408 104 438 139 C 468 173 483 220 483 279 L 483 517 C 483 576 468 623 438 659 C 408 695 364 713 304 713 L 196 713 L 196 484 L 331 484 L 331 396 L 196 396 L 196 87 Z" unicode="Đ" />
<glyph horiz-adv-x="662" d="M 304 82 C 334 82 363 90 389 107 C 415 123 441 149 466 183 L 466 437 C 447 449 427 459 406 466 C 385 472 362 476 338 476 C 290 476 254 464 232 442 C 209 419 198 384 198 337 L 198 221 C 198 173 206 138 224 116 C 241 93 268 82 304 82 Z M 438 93 C 423 60 401 35 373 17 C 344 -1 312 -10 277 -10 C 221 -10 178 9 147 49 C 115 89 100 143 100 213 L 100 339 C 100 408 121 462 163 502 C 205 541 262 561 336 561 C 357 561 379 558 401 553 C 423 547 445 540 466 532 L 466 632 L 284 632 L 284 711 L 466 711 L 466 800 L 562 800 L 562 711 L 654 711 L 654 632 L 562 632 L 562 0 L 466 0 L 466 93 L 438 93 Z" unicode="đ" />
<glyph horiz-adv-x="662" d="M 99 0 L 99 800 L 580 800 L 580 713 L 196 713 L 196 479 L 534 479 L 534 392 L 196 392 L 196 87 L 580 87 L 580 0 L 99 0 Z M 164 957 L 164 1043 L 534 1043 L 534 957 L 164 957 Z" unicode="Ē" />
<glyph horiz-adv-x="662" d="M 565 131 C 548 81 522 45 488 23 C 454 1 402 -10 332 -10 C 259 -10 202 8 161 46 C 120 83 100 138 100 211 L 100 386 C 100 460 121 516 164 554 C 207 591 263 610 332 610 C 401 610 457 591 499 553 C 541 515 562 456 562 378 L 562 281 L 196 281 L 196 211 C 196 161 207 126 229 105 C 251 83 286 73 332 73 C 375 73 406 79 426 93 C 446 107 461 129 472 159 L 565 131 Z M 196 385 L 196 355 L 466 355 L 466 376 C 466 428 454 467 432 491 C 409 515 375 527 331 527 C 286 527 252 515 230 492 C 207 468 196 433 196 385 Z M 147 757 L 147 843 L 517 843 L 517 757 L 147 757 Z" unicode="ē" />
<glyph horiz-adv-x="662" d="M 99 0 L 99 800 L 580 800 L 580 713 L 196 713 L 196 479 L 534 479 L 534 392 L 196 392 L 196 87 L 580 87 L 580 0 L 99 0 Z M 349 893 C 286 893 235 909 195 942 C 155 974 134 1027 134 1101 L 229 1101 C 229 1053 239 1019 259 999 C 279 979 309 970 349 970 C 389 970 418 979 438 999 C 458 1019 468 1053 469 1101 L 564 1101 C 563 1027 543 974 503 942 C 463 909 411 893 349 893 Z" unicode="Ĕ" />
<glyph horiz-adv-x="662" d="M 565 131 C 548 81 522 45 488 23 C 454 1 402 -10 332 -10 C 259 -10 202 8 161 46 C 120 83 100 138 100 211 L 100 386 C 100 460 121 516 164 554 C 207 591 263 610 332 610 C 401 610 457 591 499 553 C 541 515 562 456 562 378 L 562 281 L 196 281 L 196 211 C 196 161 207 126 229 105 C 251 83 286 73 332 73 C 375 73 406 79 426 93 C 446 107 461 129 472 159 L 565 131 Z M 196 385 L 196 355 L 466 355 L 466 376 C 466 428 454 467 432 491 C 409 515 375 527 331 527 C 286 527 252 515 230 492 C 207 468 196 433 196 385 Z M 332 693 C 269 693 218 709 178 742 C 138 774 117 827 117 901 L 212 901 C 212 853 222 819 242 799 C 262 779 292 770 332 770 C 372 770 401 779 421 799 C 441 819 451 853 452 901 L 547 901 C 546 827 526 774 486 742 C 446 709 394 693 332 693 Z" unicode="ĕ" />
<glyph horiz-adv-x="662" d="M 99 0 L 99 800 L 580 800 L 580 713 L 196 713 L 196 479 L 534 479 L 534 392 L 196 392 L 196 87 L 580 87 L 580 0 L 99 0 Z M 349 911 C 325 911 305 915 291 923 C 276 931 269 945 269 967 L 269 974 C 269 996 276 1011 291 1019 C 305 1027 325 1032 349 1032 C 373 1032 392 1027 407 1019 C 421 1011 429 996 429 974 L 429 967 C 429 945 421 931 406 923 C 391 915 372 911 349 911 Z" unicode="Ė" />
<glyph horiz-adv-x="662" d="M 565 131 C 548 81 522 45 488 23 C 454 1 402 -10 332 -10 C 259 -10 202 8 161 46 C 120 83 100 138 100 211 L 100 386 C 100 460 121 516 164 554 C 207 591 263 610 332 610 C 401 610 457 591 499 553 C 541 515 562 456 562 378 L 562 281 L 196 281 L 196 211 C 196 161 207 126 229 105 C 251 83 286 73 332 73 C 375 73 406 79 426 93 C 446 107 461 129 472 159 L 565 131 Z M 196 385 L 196 355 L 466 355 L 466 376 C 466 428 454 467 432 491 C 409 515 375 527 331 527 C 286 527 252 515 230 492 C 207 468 196 433 196 385 Z M 332 711 C 308 711 288 715 274 723 C 259 731 252 745 252 767 L 252 774 C 252 796 259 811 274 819 C 288 827 308 832 332 832 C 356 832 375 827 390 819 C 404 811 412 796 412 774 L 412 767 C 412 745 404 731 389 723 C 374 715 355 711 332 711 Z" unicode="ė" />
<glyph horiz-adv-x="662" d="M 487 -215 C 447 -215 414 -204 388 -183 C 361 -161 348 -132 348 -96 C 348 -64 359 -35 383 -10 C 407 14 433 33 462 45 L 487 23 C 466 9 452 -6 444 -23 C 436 -40 433 -55 433 -69 C 433 -87 438 -101 450 -111 C 462 -121 478 -126 499 -126 C 509 -126 523 -125 540 -123 C 556 -121 570 -118 581 -116 L 581 -205 C 568 -207 553 -210 535 -212 C 517 -214 501 -215 487 -215 Z M 99 0 L 99 800 L 580 800 L 580 713 L 196 713 L 196 479 L 534 479 L 534 392 L 196 392 L 196 87 L 580 87 L 580 0 L 99 0 Z" unicode="Ę" />
<glyph horiz-adv-x="662" d="M 459 -215 C 419 -215 386 -204 360 -183 C 333 -161 320 -132 320 -96 C 320 -64 331 -35 355 -10 C 379 14 405 33 434 45 L 459 23 C 438 9 424 -6 416 -23 C 408 -40 405 -55 405 -69 C 405 -87 410 -101 422 -111 C 434 -121 450 -126 471 -126 C 481 -126 495 -125 512 -123 C 528 -121 542 -118 553 -116 L 553 -205 C 540 -207 525 -210 507 -212 C 489 -214 473 -215 459 -215 Z M 565 131 C 548 81 522 45 488 23 C 454 1 402 -10 332 -10 C 259 -10 202 8 161 46 C 120 83 100 138 100 211 L 100 386 C 100 460 121 516 164 554 C 207 591 263 610 332 610 C 401 610 457 591 499 553 C 541 515 562 456 562 378 L 562 281 L 196 281 L 196 211 C 196 161 207 126 229 105 C 251 83 286 73 332 73 C 375 73 406 79 426 93 C 446 107 461 129 472 159 L 565 131 Z M 196 385 L 196 355 L 466 355 L 466 376 C 466 428 454 467 432 491 C 409 515 375 527 331 527 C 286 527 252 515 230 492 C 207 468 196 433 196 385 Z" unicode="ę" />
<glyph horiz-adv-x="662" d="M 99 0 L 99 800 L 580 800 L 580 713 L 196 713 L 196 479 L 534 479 L 534 392 L 196 392 L 196 87 L 580 87 L 580 0 L 99 0 Z M 324 904 L 159 1052 L 198 1112 L 359 999 L 518 1112 L 557 1052 L 394 904 L 324 904 Z" unicode="Ě" />
<glyph horiz-adv-x="662" d="M 565 131 C 548 81 522 45 488 23 C 454 1 402 -10 332 -10 C 259 -10 202 8 161 46 C 120 83 100 138 100 211 L 100 386 C 100 460 121 516 164 554 C 207 591 263 610 332 610 C 401 610 457 591 499 553 C 541 515 562 456 562 378 L 562 281 L 196 281 L 196 211 C 196 161 207 126 229 105 C 251 83 286 73 332 73 C 375 73 406 79 426 93 C 446 107 461 129 472 159 L 565 131 Z M 196 385 L 196 355 L 466 355 L 466 376 C 466 428 454 467 432 491 C 409 515 375 527 331 527 C 286 527 252 515 230 492 C 207 468 196 433 196 385 Z M 298 704 L 133 852 L 172 912 L 333 799 L 492 912 L 531 852 L 368 704 L 298 704 Z" unicode="ě" />
<glyph horiz-adv-x="662" d="M 347 -10 C 261 -10 195 14 150 64 C 104 113 82 182 82 271 L 82 525 C 82 617 104 687 149 736 C 193 785 257 810 341 810 C 417 810 475 789 514 748 C 553 707 575 644 580 559 L 483 549 C 478 612 465 657 443 683 C 421 709 386 723 339 723 C 281 723 239 708 215 678 C 191 648 179 597 179 526 L 179 270 C 179 200 192 151 218 121 C 244 91 287 77 348 77 C 403 77 442 94 466 128 C 489 162 501 219 501 300 L 331 300 L 331 386 L 598 386 L 598 281 C 598 187 576 115 533 65 C 490 15 428 -10 347 -10 Z M 188 908 L 149 968 L 312 1116 L 382 1116 L 547 968 L 508 908 L 347 1022 L 188 908 Z" unicode="Ĝ" />
<glyph horiz-adv-x="662" d="M 607 -49 C 607 -103 588 -143 552 -170 C 516 -196 471 -210 418 -210 L 246 -210 C 190 -210 144 -198 108 -174 C 72 -150 55 -113 55 -63 C 55 -31 63 -5 79 13 C 95 32 117 43 147 46 L 147 67 C 125 71 108 80 94 96 C 80 111 73 135 73 167 C 73 195 81 221 98 244 C 115 266 143 279 182 283 L 182 302 C 152 312 132 329 121 351 C 110 373 105 393 105 413 L 105 441 C 105 487 123 525 159 555 C 195 585 246 600 312 600 L 586 600 L 586 511 L 443 535 L 443 516 C 467 508 485 494 498 474 C 511 453 518 432 518 412 L 518 385 C 518 339 501 301 468 273 C 434 245 382 231 310 231 L 201 231 C 184 231 171 226 163 217 C 154 208 150 193 150 171 C 150 150 156 134 168 124 C 180 114 197 109 221 109 L 427 109 C 479 109 522 96 556 72 C 590 47 607 7 607 -49 Z M 313 306 C 349 306 377 313 396 328 C 415 342 425 366 425 399 L 425 430 C 425 462 415 485 396 499 C 377 513 349 521 313 521 C 276 521 248 513 229 499 C 210 485 201 462 201 430 L 201 399 C 201 366 210 342 229 328 C 248 313 276 306 313 306 Z M 244 -132 L 429 -132 C 455 -132 477 -126 494 -114 C 511 -102 520 -82 520 -54 C 520 -27 512 -8 497 3 C 482 15 462 21 438 21 L 151 21 L 151 -48 C 151 -76 158 -97 174 -111 C 190 -125 213 -132 244 -132 Z M 163 708 L 124 768 L 287 916 L 357 916 L 522 768 L 483 708 L 322 822 L 163 708 Z" unicode="ĝ" />
<glyph horiz-adv-x="662" d="M 347 -10 C 261 -10 195 14 150 64 C 104 113 82 182 82 271 L 82 525 C 82 617 104 687 149 736 C 193 785 257 810 341 810 C 417 810 475 789 514 748 C 553 707 575 644 580 559 L 483 549 C 478 612 465 657 443 683 C 421 709 386 723 339 723 C 281 723 239 708 215 678 C 191 648 179 597 179 526 L 179 270 C 179 200 192 151 218 121 C 244 91 287 77 348 77 C 403 77 442 94 466 128 C 489 162 501 219 501 300 L 331 300 L 331 386 L 598 386 L 598 281 C 598 187 576 115 533 65 C 490 15 428 -10 347 -10 Z M 348 893 C 285 893 234 909 194 942 C 154 974 133 1027 133 1101 L 228 1101 C 228 1053 238 1019 258 999 C 278 979 308 970 348 970 C 388 970 417 979 437 999 C 457 1019 467 1053 468 1101 L 563 1101 C 562 1027 542 974 502 942 C 462 909 410 893 348 893 Z" unicode="Ğ" />
<glyph horiz-adv-x="662" d="M 607 -49 C 607 -103 588 -143 552 -170 C 516 -196 471 -210 418 -210 L 246 -210 C 190 -210 144 -198 108 -174 C 72 -150 55 -113 55 -63 C 55 -31 63 -5 79 13 C 95 32 117 43 147 46 L 147 67 C 125 71 108 80 94 96 C 80 111 73 135 73 167 C 73 195 81 221 98 244 C 115 266 143 279 182 283 L 182 302 C 152 312 132 329 121 351 C 110 373 105 393 105 413 L 105 441 C 105 487 123 525 159 555 C 195 585 246 600 312 600 L 586 600 L 586 511 L 443 535 L 443 516 C 467 508 485 494 498 474 C 511 453 518 432 518 412 L 518 385 C 518 339 501 301 468 273 C 434 245 382 231 310 231 L 201 231 C 184 231 171 226 163 217 C 154 208 150 193 150 171 C 150 150 156 134 168 124 C 180 114 197 109 221 109 L 427 109 C 479 109 522 96 556 72 C 590 47 607 7 607 -49 Z M 313 306 C 349 306 377 313 396 328 C 415 342 425 366 425 399 L 425 430 C 425 462 415 485 396 499 C 377 513 349 521 313 521 C 276 521 248 513 229 499 C 210 485 201 462 201 430 L 201 399 C 201 366 210 342 229 328 C 248 313 276 306 313 306 Z M 244 -132 L 429 -132 C 455 -132 477 -126 494 -114 C 511 -102 520 -82 520 -54 C 520 -27 512 -8 497 3 C 482 15 462 21 438 21 L 151 21 L 151 -48 C 151 -76 158 -97 174 -111 C 190 -125 213 -132 244 -132 Z M 331 693 C 268 693 217 709 177 742 C 137 774 116 827 116 901 L 211 901 C 211 853 221 819 241 799 C 261 779 291 770 331 770 C 371 770 400 779 420 799 C 440 819 450 853 451 901 L 546 901 C 545 827 525 774 485 742 C 445 709 393 693 331 693 Z" unicode="ğ" />
<glyph horiz-adv-x="662" d="M 347 -10 C 261 -10 195 14 150 64 C 104 113 82 182 82 271 L 82 525 C 82 617 104 687 149 736 C 193 785 257 810 341 810 C 417 810 475 789 514 748 C 553 707 575 644 580 559 L 483 549 C 478 612 465 657 443 683 C 421 709 386 723 339 723 C 281 723 239 708 215 678 C 191 648 179 597 179 526 L 179 270 C 179 200 192 151 218 121 C 244 91 287 77 348 77 C 403 77 442 94 466 128 C 489 162 501 219 501 300 L 331 300 L 331 386 L 598 386 L 598 281 C 598 187 576 115 533 65 C 490 15 428 -10 347 -10 Z M 340 911 C 316 911 296 915 282 923 C 267 931 260 945 260 967 L 260 974 C 260 996 267 1011 282 1019 C 296 1027 316 1032 340 1032 C 364 1032 383 1027 398 1019 C 412 1011 420 996 420 974 L 420 967 C 420 945 412 931 397 923 C 382 915 363 911 340 911 Z" unicode="Ġ" />
<glyph horiz-adv-x="662" d="M 607 -49 C 607 -103 588 -143 552 -170 C 516 -196 471 -210 418 -210 L 246 -210 C 190 -210 144 -198 108 -174 C 72 -150 55 -113 55 -63 C 55 -31 63 -5 79 13 C 95 32 117 43 147 46 L 147 67 C 125 71 108 80 94 96 C 80 111 73 135 73 167 C 73 195 81 221 98 244 C 115 266 143 279 182 283 L 182 302 C 152 312 132 329 121 351 C 110 373 105 393 105 413 L 105 441 C 105 487 123 525 159 555 C 195 585 246 600 312 600 L 586 600 L 586 511 L 443 535 L 443 516 C 467 508 485 494 498 474 C 511 453 518 432 518 412 L 518 385 C 518 339 501 301 468 273 C 434 245 382 231 310 231 L 201 231 C 184 231 171 226 163 217 C 154 208 150 193 150 171 C 150 150 156 134 168 124 C 180 114 197 109 221 109 L 427 109 C 479 109 522 96 556 72 C 590 47 607 7 607 -49 Z M 313 306 C 349 306 377 313 396 328 C 415 342 425 366 425 399 L 425 430 C 425 462 415 485 396 499 C 377 513 349 521 313 521 C 276 521 248 513 229 499 C 210 485 201 462 201 430 L 201 399 C 201 366 210 342 229 328 C 248 313 276 306 313 306 Z M 244 -132 L 429 -132 C 455 -132 477 -126 494 -114 C 511 -102 520 -82 520 -54 C 520 -27 512 -8 497 3 C 482 15 462 21 438 21 L 151 21 L 151 -48 C 151 -76 158 -97 174 -111 C 190 -125 213 -132 244 -132 Z M 331 711 C 307 711 287 715 273 723 C 258 731 251 745 251 767 L 251 774 C 251 796 258 811 273 819 C 287 827 307 832 331 832 C 355 832 374 827 389 819 C 403 811 411 796 411 774 L 411 767 C 411 745 403 731 388 723 C 373 715 354 711 331 711 Z" unicode="ġ" />
<glyph horiz-adv-x="662" d="M 215 -300 L 302 -100 L 445 -100 L 301 -300 L 215 -300 Z M 347 -10 C 261 -10 195 14 150 64 C 104 113 82 182 82 271 L 82 525 C 82 617 104 687 149 736 C 193 785 257 810 341 810 C 417 810 475 789 514 748 C 553 707 575 644 580 559 L 483 549 C 478 612 465 657 443 683 C 421 709 386 723 339 723 C 281 723 239 708 215 678 C 191 648 179 597 179 526 L 179 270 C 179 200 192 151 218 121 C 244 91 287 77 348 77 C 403 77 442 94 466 128 C 489 162 501 219 501 300 L 331 300 L 331 386 L 598 386 L 598 281 C 598 187 576 115 533 65 C 490 15 428 -10 347 -10 Z" unicode="Ģ" />
<glyph horiz-adv-x="662" d="M 607 -49 C 607 -103 588 -143 552 -170 C 516 -196 471 -210 418 -210 L 246 -210 C 190 -210 144 -198 108 -174 C 72 -150 55 -113 55 -63 C 55 -31 63 -5 79 13 C 95 32 117 43 147 46 L 147 67 C 125 71 108 80 94 96 C 80 111 73 135 73 167 C 73 195 81 221 98 244 C 115 266 143 279 182 283 L 182 302 C 152 312 132 329 121 351 C 110 373 105 393 105 413 L 105 441 C 105 487 123 525 159 555 C 195 585 246 600 312 600 L 586 600 L 586 511 L 443 535 L 443 516 C 467 508 485 494 498 474 C 511 453 518 432 518 412 L 518 385 C 518 339 501 301 468 273 C 434 245 382 231 310 231 L 201 231 C 184 231 171 226 163 217 C 154 208 150 193 150 171 C 150 150 156 134 168 124 C 180 114 197 109 221 109 L 427 109 C 479 109 522 96 556 72 C 590 47 607 7 607 -49 Z M 313 306 C 349 306 377 313 396 328 C 415 342 425 366 425 399 L 425 430 C 425 462 415 485 396 499 C 377 513 349 521 313 521 C 276 521 248 513 229 499 C 210 485 201 462 201 430 L 201 399 C 201 366 210 342 229 328 C 248 313 276 306 313 306 Z M 244 -132 L 429 -132 C 455 -132 477 -126 494 -114 C 511 -102 520 -82 520 -54 C 520 -27 512 -8 497 3 C 482 15 462 21 438 21 L 151 21 L 151 -48 C 151 -76 158 -97 174 -111 C 190 -125 213 -132 244 -132 Z M 243 700 L 387 900 L 472 900 L 386 700 L 243 700 Z" unicode="ģ" />
<glyph horiz-adv-x="662" d="M 99 0 L 99 800 L 196 800 L 196 478 L 466 478 L 466 800 L 563 800 L 563 0 L 466 0 L 466 391 L 196 391 L 196 0 L 99 0 Z M 171 908 L 132 968 L 295 1116 L 365 1116 L 530 968 L 491 908 L 330 1022 L 171 908 Z" unicode="Ĥ" />
<glyph horiz-adv-x="662" d="M 100 0 L 100 800 L 196 800 L 196 507 L 224 507 C 236 538 257 563 286 582 C 315 600 348 610 386 610 C 440 610 482 592 514 556 C 546 520 562 471 562 411 L 562 0 L 466 0 L 466 392 C 466 433 456 464 438 486 C 420 507 394 518 360 518 C 332 518 304 509 276 493 C 248 476 221 451 196 419 L 196 0 L 100 0 Z M -15 908 L -54 968 L 109 1116 L 179 1116 L 344 968 L 305 908 L 144 1022 L -15 908 Z" unicode="ĥ" />
<glyph horiz-adv-x="662" d="M 196 431 L 466 431 L 466 561 L 196 561 L 196 431 Z M 196 344 L 196 0 L 99 0 L 99 561 L 7 561 L 7 649 L 99 649 L 99 800 L 196 800 L 196 649 L 466 649 L 466 800 L 563 800 L 563 649 L 655 649 L 655 561 L 563 561 L 563 0 L 466 0 L 466 344 L 196 344 Z" unicode="Ħ" />
<glyph horiz-adv-x="662" d="M 196 366 L 196 0 L 100 0 L 100 632 L 8 632 L 8 711 L 100 711 L 100 800 L 196 800 L 196 711 L 378 711 L 378 632 L 196 632 L 196 455 L 224 455 C 236 487 258 513 289 532 C 319 551 354 561 393 561 C 445 561 486 544 516 512 C 546 480 562 436 562 382 L 562 0 L 466 0 L 466 360 C 466 396 457 423 440 441 C 422 459 396 469 360 469 C 331 469 303 460 276 443 C 249 426 222 400 196 366 Z" unicode="ħ" />
<glyph horiz-adv-x="662" d="M 99 0 L 99 87 L 283 87 L 283 713 L 99 713 L 99 800 L 563 800 L 563 713 L 380 713 L 380 87 L 563 87 L 563 0 L 99 0 Z M 404 910 C 381 910 362 916 348 928 C 334 940 321 953 311 968 C 300 982 290 996 281 1008 C 272 1020 262 1026 251 1026 C 239 1026 229 1019 221 1005 C 213 991 209 967 210 931 L 210 920 L 136 920 L 136 935 C 136 985 146 1026 167 1059 C 188 1092 218 1109 258 1109 C 282 1109 302 1103 317 1091 C 331 1079 344 1065 355 1051 C 365 1036 375 1023 383 1011 C 391 999 400 993 411 993 C 423 993 433 999 441 1013 C 449 1027 453 1052 453 1088 L 453 1099 L 526 1099 L 526 1084 C 526 1033 515 991 494 959 C 473 926 443 910 404 910 Z" unicode="Ĩ" />
<glyph horiz-adv-x="662" d="M 100 0 L 100 87 L 283 87 L 283 513 L 100 513 L 100 600 L 380 600 L 380 87 L 562 87 L 562 0 L 100 0 Z M 404 710 C 381 710 362 716 348 728 C 334 740 321 753 311 768 C 300 782 290 796 281 808 C 272 820 262 826 251 826 C 239 826 229 819 221 805 C 213 791 209 767 210 731 L 210 720 L 136 720 L 136 735 C 136 785 146 826 167 859 C 188 892 218 909 258 909 C 282 909 302 903 317 891 C 331 879 344 865 355 851 C 365 836 375 823 383 811 C 391 799 400 793 411 793 C 423 793 433 799 441 813 C 449 827 453 852 453 888 L 453 899 L 526 899 L 526 884 C 526 833 515 791 494 759 C 473 726 443 710 404 710 Z" unicode="ĩ" />
<glyph horiz-adv-x="662" d="M 99 0 L 99 87 L 283 87 L 283 713 L 99 713 L 99 800 L 563 800 L 563 713 L 380 713 L 380 87 L 563 87 L 563 0 L 99 0 Z M 146 957 L 146 1043 L 516 1043 L 516 957 L 146 957 Z" unicode="Ī" />
<glyph horiz-adv-x="662" d="M 100 0 L 100 87 L 283 87 L 283 513 L 100 513 L 100 600 L 380 600 L 380 87 L 562 87 L 562 0 L 100 0 Z M 146 757 L 146 843 L 516 843 L 516 757 L 146 757 Z" unicode="ī" />
<glyph horiz-adv-x="662" d="M 99 0 L 99 87 L 283 87 L 283 713 L 99 713 L 99 800 L 563 800 L 563 713 L 380 713 L 380 87 L 563 87 L 563 0 L 99 0 Z M 331 893 C 268 893 217 909 177 942 C 137 974 116 1027 116 1101 L 211 1101 C 211 1053 221 1019 241 999 C 261 979 291 970 331 970 C 371 970 400 979 420 999 C 440 1019 450 1053 451 1101 L 546 1101 C 545 1027 525 974 485 942 C 445 909 393 893 331 893 Z" unicode="Ĭ" />
<glyph horiz-adv-x="662" d="M 100 0 L 100 87 L 283 87 L 283 513 L 100 513 L 100 600 L 380 600 L 380 87 L 562 87 L 562 0 L 100 0 Z M 331 693 C 268 693 217 709 177 742 C 137 774 116 827 116 901 L 211 901 C 211 853 221 819 241 799 C 261 779 291 770 331 770 C 371 770 400 779 420 799 C 440 819 450 853 451 901 L 546 901 C 545 827 525 774 485 742 C 445 709 393 693 331 693 Z" unicode="ĭ" />
<glyph horiz-adv-x="662" d="M 99 0 L 99 87 L 283 87 L 283 713 L 99 713 L 99 800 L 563 800 L 563 713 L 380 713 L 380 87 L 563 87 L 563 0 L 99 0 Z M 399 -215 C 359 -215 326 -204 300 -183 C 273 -161 260 -132 260 -96 C 260 -64 271 -35 295 -10 C 319 14 345 33 374 45 L 399 23 C 378 9 364 -6 356 -23 C 348 -40 345 -55 345 -69 C 345 -87 350 -101 362 -111 C 374 -121 390 -126 411 -126 C 421 -126 435 -125 452 -123 C 468 -121 482 -118 493 -116 L 493 -205 C 480 -207 465 -210 447 -212 C 429 -214 413 -215 399 -215 Z" unicode="Į" />
<glyph horiz-adv-x="662" d="M 332 711 C 308 711 288 715 274 723 C 259 731 252 745 252 767 L 252 774 C 252 796 259 811 274 819 C 288 827 308 832 332 832 C 356 832 375 827 390 819 C 404 811 412 796 412 774 L 412 767 C 412 745 404 731 389 723 C 374 715 355 711 332 711 Z M 100 0 L 100 87 L 283 87 L 283 513 L 100 513 L 100 600 L 380 600 L 380 87 L 562 87 L 562 0 L 100 0 Z M 412 -215 C 372 -215 339 -204 313 -183 C 286 -161 273 -132 273 -96 C 273 -64 284 -35 308 -10 C 332 14 358 33 387 45 L 412 23 C 391 9 377 -6 369 -23 C 361 -40 358 -55 358 -69 C 358 -87 363 -101 375 -111 C 387 -121 403 -126 424 -126 C 434 -126 448 -125 465 -123 C 481 -121 495 -118 506 -116 L 506 -205 C 493 -207 478 -210 460 -212 C 442 -214 426 -215 412 -215 Z" unicode="į" />
<glyph horiz-adv-x="662" d="M 99 0 L 99 87 L 283 87 L 283 713 L 99 713 L 99 800 L 563 800 L 563 713 L 380 713 L 380 87 L 563 87 L 563 0 L 99 0 Z M 331 911 C 307 911 287 915 273 923 C 258 931 251 945 251 967 L 251 974 C 251 996 258 1011 273 1019 C 287 1027 307 1032 331 1032 C 355 1032 374 1027 389 1019 C 403 1011 411 996 411 974 L 411 967 C 411 945 403 931 388 923 C 373 915 354 911 331 911 Z" unicode="İ" />
<glyph horiz-adv-x="662" d="M 100 0 L 100 87 L 283 87 L 283 513 L 100 513 L 100 600 L 380 600 L 380 87 L 562 87 L 562 0 L 100 0 Z" unicode="ı" />
<glyph horiz-adv-x="662" d="M 158 0 L 64 0 L 64 800 L 158 800 L 158 0 Z M 415 -10 C 359 -10 315 9 285 48 C 254 87 236 156 232 256 L 326 267 C 330 191 338 141 350 116 C 361 90 383 78 415 78 C 449 78 472 93 485 123 C 498 153 505 192 505 240 L 505 713 L 334 713 L 334 800 L 599 800 L 599 242 C 599 163 584 101 554 57 C 524 12 478 -10 415 -10 Z" unicode="Ĳ" />
<glyph horiz-adv-x="662" d="M 165 711 C 141 711 121 715 107 723 C 92 731 85 745 85 767 L 85 774 C 85 796 92 811 107 819 C 121 827 141 832 165 832 C 189 832 208 827 222 819 C 236 811 244 796 244 774 L 244 767 C 244 745 236 731 222 723 C 207 715 188 711 165 711 Z M 512 711 C 488 711 468 715 454 723 C 439 731 432 745 432 767 L 432 774 C 432 796 439 811 454 819 C 468 827 488 832 512 832 C 536 832 555 827 570 819 C 584 811 592 796 592 774 L 592 767 C 592 745 584 731 569 723 C 554 715 535 711 512 711 Z M 213 0 L 117 0 L 117 600 L 213 600 L 213 0 Z M 358 -208 C 337 -208 316 -206 296 -203 C 276 -199 254 -194 231 -186 L 249 -92 C 269 -100 287 -105 304 -109 C 320 -112 337 -114 354 -114 C 388 -114 415 -104 436 -86 C 456 -67 467 -36 467 7 L 467 513 L 348 513 L 348 600 L 563 600 L 563 -6 C 563 -74 543 -125 504 -158 C 464 -191 416 -208 358 -208 Z" unicode="ĳ" />
<glyph horiz-adv-x="662" d="M 313 -10 C 230 -10 169 11 129 53 C 89 95 67 163 63 255 L 160 266 C 164 190 177 140 198 115 C 219 89 258 77 314 77 C 364 77 402 91 427 120 C 452 148 465 192 465 252 L 465 713 L 280 713 L 280 800 L 562 800 L 562 253 C 562 167 540 102 498 57 C 456 12 394 -10 313 -10 Z M 252 908 L 213 968 L 376 1116 L 446 1116 L 611 968 L 572 908 L 411 1022 L 252 908 Z" unicode="Ĵ" />
<glyph horiz-adv-x="662" d="M 245 -208 C 221 -208 198 -206 175 -203 C 151 -200 126 -194 100 -186 L 118 -92 C 140 -100 162 -106 182 -109 C 202 -112 221 -114 241 -114 C 281 -114 313 -104 337 -86 C 361 -67 374 -36 374 7 L 374 513 L 118 513 L 118 600 L 471 600 L 471 -6 C 471 -74 449 -125 406 -158 C 362 -191 309 -208 245 -208 Z M 231 708 L 192 768 L 355 916 L 425 916 L 590 768 L 551 708 L 390 822 L 231 708 Z" unicode="ĵ" />
<glyph horiz-adv-x="662" d="M 196 382 L 196 0 L 99 0 L 99 800 L 196 800 L 196 469 L 227 469 L 505 800 L 616 800 L 303 432 L 613 0 L 499 0 L 230 382 L 196 382 Z M 207 -300 L 294 -100 L 437 -100 L 293 -300 L 207 -300 Z" unicode="Ķ" />
<glyph horiz-adv-x="662" d="M 240 274 L 240 0 L 143 0 L 143 800 L 240 800 L 240 356 L 286 356 L 461 600 L 577 600 L 362 321 L 574 0 L 464 0 L 286 274 L 240 274 Z M 201 -300 L 288 -100 L 431 -100 L 287 -300 L 201 -300 Z" unicode="ķ" />
<glyph horiz-adv-x="662" d="M 240 274 L 240 0 L 143 0 L 143 600 L 240 600 L 240 356 L 286 356 L 461 600 L 577 600 L 362 321 L 574 0 L 464 0 L 286 274 L 240 274 Z" unicode="ĸ" />
<glyph horiz-adv-x="662" d="M 145 0 L 145 800 L 242 800 L 242 87 L 563 87 L 563 0 L 145 0 Z M 176 900 L 300 1100 L 442 1100 L 262 900 L 176 900 Z" unicode="Ĺ" />
<glyph horiz-adv-x="662" d="M 101 0 L 101 87 L 284 87 L 284 713 L 101 713 L 101 800 L 381 800 L 381 87 L 563 87 L 563 0 L 101 0 Z M 238 900 L 362 1100 L 504 1100 L 324 900 L 238 900 Z" unicode="ĺ" />
<glyph horiz-adv-x="662" d="M 145 0 L 145 800 L 242 800 L 242 87 L 563 87 L 563 0 L 145 0 Z M 221 -300 L 308 -100 L 451 -100 L 307 -300 L 221 -300 Z" unicode="Ļ" />
<glyph horiz-adv-x="662" d="M 101 0 L 101 87 L 284 87 L 284 713 L 101 713 L 101 800 L 381 800 L 381 87 L 563 87 L 563 0 L 101 0 Z M 184 -300 L 271 -100 L 414 -100 L 270 -300 L 184 -300 Z" unicode="ļ" />
<glyph horiz-adv-x="662" d="M 145 0 L 145 800 L 242 800 L 242 87 L 563 87 L 563 0 L 145 0 Z M 364 505 L 437 800 L 577 800 L 433 505 L 364 505 Z" unicode="Ľ" />
<glyph horiz-adv-x="662" d="M 101 0 L 101 87 L 284 87 L 284 713 L 101 713 L 101 800 L 381 800 L 381 87 L 563 87 L 563 0 L 101 0 Z M 467 705 L 540 1000 L 680 1000 L 536 705 L 467 705 Z" unicode="ľ" />
<glyph horiz-adv-x="662" d="M 145 0 L 145 800 L 242 800 L 242 87 L 563 87 L 563 0 L 145 0 Z M 551 412 C 527 412 507 416 493 424 C 478 432 471 446 471 468 L 471 475 C 471 497 478 512 493 520 C 507 528 527 533 551 533 C 575 533 594 528 609 520 C 623 512 631 497 631 475 L 631 468 C 631 446 623 432 608 424 C 593 416 574 412 551 412 Z" unicode="Ŀ" />
<glyph horiz-adv-x="662" d="M 101 0 L 101 87 L 284 87 L 284 713 L 101 713 L 101 800 L 381 800 L 381 87 L 563 87 L 563 0 L 101 0 Z M 626 309 C 602 309 582 313 568 321 C 553 329 546 343 546 365 L 546 372 C 546 394 553 409 568 417 C 582 425 602 430 626 430 C 650 430 669 425 684 417 C 698 409 706 394 706 372 L 706 365 C 706 343 698 329 683 321 C 668 313 649 309 626 309 Z" unicode="ŀ" />
<glyph horiz-adv-x="662" d="M 145 0 L 145 362 L 55 332 L 55 409 L 145 439 L 145 800 L 242 800 L 242 471 L 470 548 L 470 471 L 242 394 L 242 87 L 563 87 L 563 0 L 145 0 Z" unicode="Ł" />
<glyph horiz-adv-x="662" d="M 101 0 L 101 87 L 284 87 L 284 353 L 145 312 L 145 389 L 284 430 L 284 713 L 101 713 L 101 800 L 381 800 L 381 459 L 515 499 L 515 421 L 381 381 L 381 87 L 563 87 L 563 0 L 101 0 Z" unicode="ł" />
<glyph horiz-adv-x="662" d="M 427 0 L 186 680 L 186 0 L 99 0 L 99 800 L 229 800 L 476 110 L 476 800 L 563 800 L 563 0 L 427 0 Z M 244 900 L 368 1100 L 510 1100 L 330 900 L 244 900 Z" unicode="Ń" />
<glyph horiz-adv-x="662" d="M 100 0 L 100 600 L 196 600 L 196 507 L 224 507 C 238 539 260 564 289 582 C 318 600 351 610 387 610 C 441 610 483 592 515 556 C 546 520 562 472 562 410 L 562 0 L 466 0 L 466 391 C 466 433 456 464 438 486 C 420 507 394 518 360 518 C 332 518 304 509 276 492 C 248 475 221 450 196 418 L 196 0 L 100 0 Z M 244 700 L 368 900 L 510 900 L 330 700 L 244 700 Z" unicode="ń" />
<glyph horiz-adv-x="662" d="M 189 -300 L 276 -100 L 419 -100 L 275 -300 L 189 -300 Z M 427 0 L 186 680 L 186 0 L 99 0 L 99 800 L 229 800 L 476 110 L 476 800 L 563 800 L 563 0 L 427 0 Z" unicode="Ņ" />
<glyph horiz-adv-x="662" d="M 206 -300 L 293 -100 L 436 -100 L 292 -300 L 206 -300 Z M 100 0 L 100 600 L 196 600 L 196 507 L 224 507 C 238 539 260 564 289 582 C 318 600 351 610 387 610 C 441 610 483 592 515 556 C 546 520 562 472 562 410 L 562 0 L 466 0 L 466 391 C 466 433 456 464 438 486 C 420 507 394 518 360 518 C 332 518 304 509 276 492 C 248 475 221 450 196 418 L 196 0 L 100 0 Z" unicode="ņ" />
<glyph horiz-adv-x="662" d="M 427 0 L 186 680 L 186 0 L 99 0 L 99 800 L 229 800 L 476 110 L 476 800 L 563 800 L 563 0 L 427 0 Z M 314 904 L 149 1052 L 188 1112 L 349 999 L 508 1112 L 547 1052 L 384 904 L 314 904 Z" unicode="Ň" />
<glyph horiz-adv-x="662" d="M 100 0 L 100 600 L 196 600 L 196 507 L 224 507 C 238 539 260 564 289 582 C 318 600 351 610 387 610 C 441 610 483 592 515 556 C 546 520 562 472 562 410 L 562 0 L 466 0 L 466 391 C 466 433 456 464 438 486 C 420 507 394 518 360 518 C 332 518 304 509 276 492 C 248 475 221 450 196 418 L 196 0 L 100 0 Z M 316 704 L 151 852 L 190 912 L 351 799 L 510 912 L 549 852 L 386 704 L 316 704 Z" unicode="ň" />
<glyph horiz-adv-x="662" d="M 100 0 L 100 600 L 196 600 L 196 507 L 224 507 C 238 539 260 564 289 582 C 318 600 351 610 387 610 C 441 610 483 592 515 556 C 546 520 562 472 562 410 L 562 0 L 466 0 L 466 391 C 466 433 456 464 438 486 C 420 507 394 518 360 518 C 332 518 304 509 276 492 C 248 475 221 450 196 418 L 196 0 L 100 0 Z M -4 700 L 120 900 L 262 900 L 82 700 L -4 700 Z" unicode="ŉ" />
<glyph horiz-adv-x="662" d="M 349 -208 C 327 -208 304 -204 281 -198 C 257 -192 232 -184 206 -175 L 224 -81 C 248 -91 270 -99 289 -105 C 308 -111 327 -114 345 -114 C 381 -114 410 -101 432 -76 C 454 -50 466 -9 466 49 L 466 585 C 466 631 456 665 436 686 C 416 707 390 718 360 718 C 326 718 298 707 274 687 C 250 666 224 638 196 602 L 196 0 L 99 0 L 99 800 L 196 800 L 196 691 L 223 691 C 237 727 260 756 291 778 C 321 799 355 810 393 810 C 445 810 486 791 517 755 C 547 719 563 669 563 607 L 563 36 C 563 -44 543 -105 503 -146 C 463 -187 411 -208 349 -208 Z" unicode="Ŋ" />
<glyph horiz-adv-x="662" d="M 375 -208 C 357 -208 338 -206 318 -202 C 298 -198 278 -192 258 -186 L 276 -92 C 293 -98 310 -104 326 -108 C 342 -112 357 -114 371 -114 C 399 -114 422 -105 440 -87 C 457 -69 466 -40 466 0 L 466 404 C 466 442 457 470 439 489 C 421 508 395 518 360 518 C 331 518 303 509 276 493 C 249 476 222 451 196 418 L 196 0 L 100 0 L 100 600 L 196 600 L 196 507 L 224 507 C 238 539 261 564 291 582 C 321 600 354 610 392 610 C 444 610 486 593 516 560 C 546 527 562 482 562 426 L 562 -13 C 562 -79 544 -128 508 -160 C 472 -192 428 -208 375 -208 Z" unicode="ŋ" />
<glyph horiz-adv-x="662" d="M 331 -10 C 249 -10 187 14 145 62 C 103 110 82 180 82 272 L 82 524 C 82 617 103 688 146 737 C 188 785 250 810 332 810 C 412 810 474 785 516 737 C 558 688 580 617 580 524 L 580 272 C 580 180 558 110 516 62 C 474 14 412 -10 331 -10 Z M 331 77 C 386 77 425 91 448 121 C 471 150 483 200 483 271 L 483 525 C 483 597 471 648 448 678 C 425 708 386 723 331 723 C 275 723 236 708 213 678 C 190 648 179 597 179 525 L 179 271 C 179 200 190 150 213 121 C 236 91 275 77 331 77 Z M 146 957 L 146 1043 L 516 1043 L 516 957 L 146 957 Z" unicode="Ō" />
<glyph horiz-adv-x="662" d="M 331 -10 C 257 -10 200 9 160 47 C 120 85 100 139 100 210 L 100 386 C 100 457 120 512 160 551 C 200 590 257 610 332 610 C 405 610 462 590 502 551 C 542 512 562 457 562 386 L 562 211 C 562 139 542 85 502 47 C 462 9 405 -10 331 -10 Z M 331 77 C 376 77 410 87 432 109 C 454 130 466 164 466 210 L 466 386 C 466 432 454 467 432 489 C 410 511 376 523 331 523 C 285 523 251 511 229 489 C 207 467 196 432 196 386 L 196 210 C 196 164 207 130 229 109 C 251 87 285 77 331 77 Z M 146 757 L 146 843 L 516 843 L 516 757 L 146 757 Z" unicode="ō" />
<glyph horiz-adv-x="662" d="M 331 -10 C 249 -10 187 14 145 62 C 103 110 82 180 82 272 L 82 524 C 82 617 103 688 146 737 C 188 785 250 810 332 810 C 412 810 474 785 516 737 C 558 688 580 617 580 524 L 580 272 C 580 180 558 110 516 62 C 474 14 412 -10 331 -10 Z M 331 77 C 386 77 425 91 448 121 C 471 150 483 200 483 271 L 483 525 C 483 597 471 648 448 678 C 425 708 386 723 331 723 C 275 723 236 708 213 678 C 190 648 179 597 179 525 L 179 271 C 179 200 190 150 213 121 C 236 91 275 77 331 77 Z M 331 893 C 268 893 217 909 177 942 C 137 974 116 1027 116 1101 L 211 1101 C 211 1053 221 1019 241 999 C 261 979 291 970 331 970 C 371 970 400 979 420 999 C 440 1019 450 1053 451 1101 L 546 1101 C 545 1027 525 974 485 942 C 445 909 393 893 331 893 Z" unicode="Ŏ" />
<glyph horiz-adv-x="662" d="M 331 -10 C 257 -10 200 9 160 47 C 120 85 100 139 100 210 L 100 386 C 100 457 120 512 160 551 C 200 590 257 610 332 610 C 405 610 462 590 502 551 C 542 512 562 457 562 386 L 562 211 C 562 139 542 85 502 47 C 462 9 405 -10 331 -10 Z M 331 77 C 376 77 410 87 432 109 C 454 130 466 164 466 210 L 466 386 C 466 432 454 467 432 489 C 410 511 376 523 331 523 C 285 523 251 511 229 489 C 207 467 196 432 196 386 L 196 210 C 196 164 207 130 229 109 C 251 87 285 77 331 77 Z M 332 693 C 269 693 218 709 178 742 C 138 774 117 827 117 901 L 212 901 C 212 853 222 819 242 799 C 262 779 292 770 332 770 C 372 770 401 779 421 799 C 441 819 451 853 452 901 L 547 901 C 546 827 526 774 486 742 C 446 709 394 693 332 693 Z" unicode="ŏ" />
<glyph horiz-adv-x="662" d="M 331 -10 C 249 -10 187 14 145 62 C 103 110 82 180 82 272 L 82 524 C 82 617 103 688 146 737 C 188 785 250 810 332 810 C 412 810 474 785 516 737 C 558 688 580 617 580 524 L 580 272 C 580 180 558 110 516 62 C 474 14 412 -10 331 -10 Z M 331 77 C 386 77 425 91 448 121 C 471 150 483 200 483 271 L 483 525 C 483 597 471 648 448 678 C 425 708 386 723 331 723 C 275 723 236 708 213 678 C 190 648 179 597 179 525 L 179 271 C 179 200 190 150 213 121 C 236 91 275 77 331 77 Z M 383 900 L 434 1100 L 565 1100 L 449 900 L 383 900 Z M 172 900 L 222 1100 L 354 1100 L 238 900 L 172 900 Z" unicode="Ő" />
<glyph horiz-adv-x="662" d="M 331 -10 C 257 -10 200 9 160 47 C 120 85 100 139 100 210 L 100 386 C 100 457 120 512 160 551 C 200 590 257 610 332 610 C 405 610 462 590 502 551 C 542 512 562 457 562 386 L 562 211 C 562 139 542 85 502 47 C 462 9 405 -10 331 -10 Z M 331 77 C 376 77 410 87 432 109 C 454 130 466 164 466 210 L 466 386 C 466 432 454 467 432 489 C 410 511 376 523 331 523 C 285 523 251 511 229 489 C 207 467 196 432 196 386 L 196 210 C 196 164 207 130 229 109 C 251 87 285 77 331 77 Z M 382 700 L 433 900 L 564 900 L 448 700 L 382 700 Z M 171 700 L 221 900 L 353 900 L 237 700 L 171 700 Z" unicode="ő" />
<glyph horiz-adv-x="662" d="M 258 0 C 183 0 125 25 83 75 C 41 125 20 193 20 277 L 20 519 C 20 604 41 672 83 723 C 125 774 183 800 257 800 L 651 800 L 651 723 L 425 723 L 425 479 L 649 479 L 649 402 L 425 402 L 425 77 L 651 77 L 651 0 L 258 0 Z M 259 76 L 339 76 L 339 724 L 259 724 C 207 724 169 705 144 668 C 119 630 107 581 107 520 L 107 276 C 107 214 119 166 144 130 C 169 94 207 76 259 76 Z" unicode="Œ" />
<glyph horiz-adv-x="662" d="M 625 133 C 619 84 603 48 578 25 C 553 1 515 -10 465 -10 C 433 -10 405 -3 382 8 C 358 20 340 39 328 65 C 313 39 295 20 273 8 C 251 -3 226 -10 198 -10 C 150 -10 111 8 82 44 C 52 80 38 136 38 212 L 38 384 C 38 460 52 516 82 554 C 112 591 151 610 199 610 C 227 610 252 603 274 591 C 296 579 313 560 327 535 C 339 560 357 579 379 591 C 401 603 427 610 456 610 C 506 610 547 594 578 562 C 608 530 624 480 624 413 L 624 281 L 370 281 L 370 176 C 370 136 376 107 390 89 C 404 71 425 62 454 62 C 483 62 504 67 516 78 C 528 88 537 109 542 140 L 625 133 Z M 370 419 L 370 344 L 538 344 L 538 410 C 538 454 531 486 517 506 C 503 526 482 537 454 537 C 426 537 405 527 391 508 C 377 488 370 459 370 419 Z M 208 67 C 236 67 257 78 271 100 C 285 122 292 160 292 212 L 292 384 C 292 435 285 473 271 497 C 257 521 236 533 208 533 C 180 533 159 521 145 497 C 131 473 124 435 124 384 L 124 212 C 124 160 131 122 145 100 C 159 78 180 67 208 67 Z" unicode="œ" />
<glyph horiz-adv-x="662" d="M 196 396 L 374 396 C 422 396 456 406 477 427 C 498 447 509 481 509 528 L 509 590 C 509 634 498 665 477 684 C 456 703 422 713 374 713 L 196 713 L 196 396 Z M 196 0 L 99 0 L 99 800 L 377 800 C 453 800 511 782 549 747 C 587 712 606 660 606 590 L 606 528 C 606 464 591 414 562 379 C 532 343 488 322 428 315 L 615 0 L 505 0 L 321 312 L 196 312 L 196 0 Z M 291 900 L 415 1100 L 557 1100 L 377 900 L 291 900 Z" unicode="Ŕ" />
<glyph horiz-adv-x="662" d="M 144 0 L 144 600 L 241 600 L 241 504 L 268 504 C 280 540 300 567 327 584 C 353 601 385 610 423 610 C 465 610 499 595 527 566 C 554 537 568 496 568 443 L 568 351 L 476 351 L 476 408 C 476 446 468 473 453 491 C 438 509 415 518 383 518 C 354 518 328 510 304 495 C 280 479 259 456 241 425 L 241 0 L 144 0 Z M 261 700 L 385 900 L 527 900 L 347 700 L 261 700 Z" unicode="ŕ" />
<glyph horiz-adv-x="662" d="M 196 396 L 374 396 C 422 396 456 406 477 427 C 498 447 509 481 509 528 L 509 590 C 509 634 498 665 477 684 C 456 703 422 713 374 713 L 196 713 L 196 396 Z M 196 0 L 99 0 L 99 800 L 377 800 C 453 800 511 782 549 747 C 587 712 606 660 606 590 L 606 528 C 606 464 591 414 562 379 C 532 343 488 322 428 315 L 615 0 L 505 0 L 321 312 L 196 312 L 196 0 Z M 192 -300 L 279 -100 L 422 -100 L 278 -300 L 192 -300 Z" unicode="Ŗ" />
<glyph horiz-adv-x="662" d="M 144 0 L 144 600 L 241 600 L 241 504 L 268 504 C 280 540 300 567 327 584 C 353 601 385 610 423 610 C 465 610 499 595 527 566 C 554 537 568 496 568 443 L 568 351 L 476 351 L 476 408 C 476 446 468 473 453 491 C 438 509 415 518 383 518 C 354 518 328 510 304 495 C 280 479 259 456 241 425 L 241 0 L 144 0 Z M 75 -300 L 162 -100 L 305 -100 L 161 -300 L 75 -300 Z" unicode="ŗ" />
<glyph horiz-adv-x="662" d="M 196 396 L 374 396 C 422 396 456 406 477 427 C 498 447 509 481 509 528 L 509 590 C 509 634 498 665 477 684 C 456 703 422 713 374 713 L 196 713 L 196 396 Z M 196 0 L 99 0 L 99 800 L 377 800 C 453 800 511 782 549 747 C 587 712 606 660 606 590 L 606 528 C 606 464 591 414 562 379 C 532 343 488 322 428 315 L 615 0 L 505 0 L 321 312 L 196 312 L 196 0 Z M 301 904 L 136 1052 L 175 1112 L 336 999 L 495 1112 L 534 1052 L 371 904 L 301 904 Z" unicode="Ř" />
<glyph horiz-adv-x="662" d="M 144 0 L 144 600 L 241 600 L 241 504 L 268 504 C 280 540 300 567 327 584 C 353 601 385 610 423 610 C 465 610 499 595 527 566 C 554 537 568 496 568 443 L 568 351 L 476 351 L 476 408 C 476 446 468 473 453 491 C 438 509 415 518 383 518 C 354 518 328 510 304 495 C 280 479 259 456 241 425 L 241 0 L 144 0 Z M 333 704 L 168 852 L 207 912 L 368 799 L 527 912 L 566 852 L 403 704 L 333 704 Z" unicode="ř" />
<glyph horiz-adv-x="662" d="M 341 -7 C 287 -7 236 2 188 20 C 140 38 97 69 61 112 L 118 182 C 146 148 179 122 217 105 C 255 88 298 80 346 80 C 392 80 429 91 457 115 C 485 138 499 170 499 211 C 499 248 486 277 462 297 C 438 317 389 340 317 365 C 228 394 167 425 134 458 C 100 491 84 537 84 595 C 84 662 105 714 148 750 C 191 786 246 804 312 804 C 362 804 410 794 456 776 C 502 757 542 727 576 686 L 522 614 C 494 648 461 673 424 691 C 387 708 350 717 312 717 C 272 717 240 707 217 689 C 193 671 182 642 182 604 C 182 568 194 540 220 520 C 245 500 296 477 374 452 C 458 424 516 394 548 362 C 579 330 595 285 595 228 C 595 152 570 94 520 54 C 470 13 410 -7 341 -7 Z M 226 900 L 350 1100 L 492 1100 L 312 900 L 226 900 Z" unicode="Ś" />
<glyph horiz-adv-x="662" d="M 340 -10 C 292 -10 246 -3 202 11 C 158 25 118 46 83 75 L 124 152 C 154 128 187 110 225 97 C 263 83 301 77 340 77 C 374 77 405 82 432 94 C 458 105 472 127 472 160 C 472 190 460 211 437 223 C 413 235 371 247 309 257 C 238 268 186 287 152 313 C 118 339 101 379 101 432 C 101 490 121 534 162 564 C 203 594 253 610 311 610 C 354 610 396 602 437 587 C 478 571 515 550 549 524 L 508 447 C 480 469 449 487 416 501 C 382 515 348 523 312 523 C 280 523 252 516 230 504 C 208 491 197 469 197 439 C 197 410 208 389 231 377 C 253 364 296 353 359 343 C 430 331 483 312 517 284 C 551 256 568 217 568 168 C 568 108 545 63 500 34 C 455 4 402 -10 340 -10 Z M 224 700 L 348 900 L 490 900 L 310 700 L 224 700 Z" unicode="ś" />
<glyph horiz-adv-x="662" d="M 341 -7 C 287 -7 236 2 188 20 C 140 38 97 69 61 112 L 118 182 C 146 148 179 122 217 105 C 255 88 298 80 346 80 C 392 80 429 91 457 115 C 485 138 499 170 499 211 C 499 248 486 277 462 297 C 438 317 389 340 317 365 C 228 394 167 425 134 458 C 100 491 84 537 84 595 C 84 662 105 714 148 750 C 191 786 246 804 312 804 C 362 804 410 794 456 776 C 502 757 542 727 576 686 L 522 614 C 494 648 461 673 424 691 C 387 708 350 717 312 717 C 272 717 240 707 217 689 C 193 671 182 642 182 604 C 182 568 194 540 220 520 C 245 500 296 477 374 452 C 458 424 516 394 548 362 C 579 330 595 285 595 228 C 595 152 570 94 520 54 C 470 13 410 -7 341 -7 Z M 172 908 L 133 968 L 296 1116 L 366 1116 L 531 968 L 492 908 L 331 1022 L 172 908 Z" unicode="Ŝ" />
<glyph horiz-adv-x="662" d="M 340 -10 C 292 -10 246 -3 202 11 C 158 25 118 46 83 75 L 124 152 C 154 128 187 110 225 97 C 263 83 301 77 340 77 C 374 77 405 82 432 94 C 458 105 472 127 472 160 C 472 190 460 211 437 223 C 413 235 371 247 309 257 C 238 268 186 287 152 313 C 118 339 101 379 101 432 C 101 490 121 534 162 564 C 203 594 253 610 311 610 C 354 610 396 602 437 587 C 478 571 515 550 549 524 L 508 447 C 480 469 449 487 416 501 C 382 515 348 523 312 523 C 280 523 252 516 230 504 C 208 491 197 469 197 439 C 197 410 208 389 231 377 C 253 364 296 353 359 343 C 430 331 483 312 517 284 C 551 256 568 217 568 168 C 568 108 545 63 500 34 C 455 4 402 -10 340 -10 Z M 169 708 L 130 768 L 293 916 L 363 916 L 528 768 L 489 708 L 328 822 L 169 708 Z" unicode="ŝ" />
<glyph horiz-adv-x="662" d="M 341 -7 C 287 -7 236 2 188 20 C 140 38 97 69 61 112 L 118 182 C 146 148 179 122 217 105 C 255 88 298 80 346 80 C 392 80 429 91 457 115 C 485 138 499 170 499 211 C 499 248 486 277 462 297 C 438 317 389 340 317 365 C 228 394 167 425 134 458 C 100 491 84 537 84 595 C 84 662 105 714 148 750 C 191 786 246 804 312 804 C 362 804 410 794 456 776 C 502 757 542 727 576 686 L 522 614 C 494 648 461 673 424 691 C 387 708 350 717 312 717 C 272 717 240 707 217 689 C 193 671 182 642 182 604 C 182 568 194 540 220 520 C 245 500 296 477 374 452 C 458 424 516 394 548 362 C 579 330 595 285 595 228 C 595 152 570 94 520 54 C 470 13 410 -7 341 -7 Z M 304 0 L 323 42 C 353 36 380 22 404 2 C 428 -18 440 -49 440 -91 C 440 -133 425 -165 397 -185 C 369 -205 337 -215 303 -215 C 261 -215 228 -207 202 -191 C 176 -175 161 -149 159 -111 L 244 -101 C 244 -113 249 -122 257 -127 C 265 -132 279 -135 298 -135 C 316 -135 329 -130 339 -122 C 348 -114 353 -98 353 -76 C 353 -52 349 -35 342 -24 C 334 -13 322 -5 304 0 Z" unicode="Ş" />
<glyph horiz-adv-x="662" d="M 340 -10 C 292 -10 246 -3 202 11 C 158 25 118 46 83 75 L 124 152 C 154 128 187 110 225 97 C 263 83 301 77 340 77 C 374 77 405 82 432 94 C 458 105 472 127 472 160 C 472 190 460 211 437 223 C 413 235 371 247 309 257 C 238 268 186 287 152 313 C 118 339 101 379 101 432 C 101 490 121 534 162 564 C 203 594 253 610 311 610 C 354 610 396 602 437 587 C 478 571 515 550 549 524 L 508 447 C 480 469 449 487 416 501 C 382 515 348 523 312 523 C 280 523 252 516 230 504 C 208 491 197 469 197 439 C 197 410 208 389 231 377 C 253 364 296 353 359 343 C 430 331 483 312 517 284 C 551 256 568 217 568 168 C 568 108 545 63 500 34 C 455 4 402 -10 340 -10 Z M 301 0 L 320 42 C 350 36 377 22 401 2 C 425 -18 437 -49 437 -91 C 437 -133 422 -165 394 -185 C 366 -205 334 -215 300 -215 C 258 -215 225 -207 199 -191 C 173 -175 158 -149 156 -111 L 241 -101 C 241 -113 246 -122 254 -127 C 262 -132 276 -135 295 -135 C 313 -135 326 -130 336 -122 C 345 -114 350 -98 350 -76 C 350 -52 346 -35 339 -24 C 331 -13 319 -5 301 0 Z" unicode="ş" />
<glyph horiz-adv-x="662" d="M 341 -7 C 287 -7 236 2 188 20 C 140 38 97 69 61 112 L 118 182 C 146 148 179 122 217 105 C 255 88 298 80 346 80 C 392 80 429 91 457 115 C 485 138 499 170 499 211 C 499 248 486 277 462 297 C 438 317 389 340 317 365 C 228 394 167 425 134 458 C 100 491 84 537 84 595 C 84 662 105 714 148 750 C 191 786 246 804 312 804 C 362 804 410 794 456 776 C 502 757 542 727 576 686 L 522 614 C 494 648 461 673 424 691 C 387 708 350 717 312 717 C 272 717 240 707 217 689 C 193 671 182 642 182 604 C 182 568 194 540 220 520 C 245 500 296 477 374 452 C 458 424 516 394 548 362 C 579 330 595 285 595 228 C 595 152 570 94 520 54 C 470 13 410 -7 341 -7 Z M 298 904 L 133 1052 L 172 1112 L 333 999 L 492 1112 L 531 1052 L 368 904 L 298 904 Z" unicode="Š" />
<glyph horiz-adv-x="662" d="M 340 -10 C 292 -10 246 -3 202 11 C 158 25 118 46 83 75 L 124 152 C 154 128 187 110 225 97 C 263 83 301 77 340 77 C 374 77 405 82 432 94 C 458 105 472 127 472 160 C 472 190 460 211 437 223 C 413 235 371 247 309 257 C 238 268 186 287 152 313 C 118 339 101 379 101 432 C 101 490 121 534 162 564 C 203 594 253 610 311 610 C 354 610 396 602 437 587 C 478 571 515 550 549 524 L 508 447 C 480 469 449 487 416 501 C 382 515 348 523 312 523 C 280 523 252 516 230 504 C 208 491 197 469 197 439 C 197 410 208 389 231 377 C 253 364 296 353 359 343 C 430 331 483 312 517 284 C 551 256 568 217 568 168 C 568 108 545 63 500 34 C 455 4 402 -10 340 -10 Z M 295 704 L 130 852 L 169 912 L 330 799 L 489 912 L 528 852 L 365 704 L 295 704 Z" unicode="š" />
<glyph horiz-adv-x="662" d="M 283 0 L 283 713 L 56 713 L 56 800 L 606 800 L 606 713 L 380 713 L 380 0 L 283 0 Z M 291 0 L 310 42 C 340 36 367 22 391 2 C 415 -18 427 -49 427 -91 C 427 -133 412 -165 384 -185 C 356 -205 324 -215 290 -215 C 248 -215 215 -207 189 -191 C 163 -175 148 -149 146 -111 L 231 -101 C 231 -113 236 -122 244 -127 C 252 -132 266 -135 285 -135 C 303 -135 316 -130 326 -122 C 335 -114 340 -98 340 -76 C 340 -52 336 -35 329 -24 C 321 -13 309 -5 291 0 Z" unicode="Ţ" />
<glyph horiz-adv-x="662" d="M 427 -9 C 365 -9 316 7 282 41 C 247 74 230 123 230 187 L 230 513 L 76 513 L 76 600 L 230 600 L 230 800 L 327 800 L 327 600 L 563 600 L 563 513 L 327 513 L 327 197 C 327 159 335 130 353 111 C 371 92 397 83 431 83 C 453 83 475 84 495 88 C 515 91 535 96 553 103 L 572 14 C 552 7 530 1 506 -2 C 482 -6 455 -9 427 -9 Z M 362 0 L 381 42 C 411 36 438 22 462 2 C 486 -18 498 -49 498 -91 C 498 -133 483 -165 455 -185 C 427 -205 395 -215 361 -215 C 319 -215 286 -207 260 -191 C 234 -175 219 -149 217 -111 L 302 -101 C 302 -113 307 -122 315 -127 C 323 -132 337 -135 356 -135 C 374 -135 387 -130 397 -122 C 406 -114 411 -98 411 -76 C 411 -52 407 -35 400 -24 C 392 -13 380 -5 362 0 Z" unicode="ţ" />
<glyph horiz-adv-x="662" d="M 283 0 L 283 713 L 56 713 L 56 800 L 606 800 L 606 713 L 380 713 L 380 0 L 283 0 Z M 297 904 L 132 1052 L 171 1112 L 332 999 L 491 1112 L 530 1052 L 367 904 L 297 904 Z" unicode="Ť" />
<glyph horiz-adv-x="662" d="M 427 -9 C 365 -9 316 7 282 41 C 247 74 230 123 230 187 L 230 513 L 76 513 L 76 600 L 230 600 L 230 800 L 327 800 L 327 600 L 563 600 L 563 513 L 327 513 L 327 197 C 327 159 335 130 353 111 C 371 92 397 83 431 83 C 453 83 475 84 495 88 C 515 91 535 96 553 103 L 572 14 C 552 7 530 1 506 -2 C 482 -6 455 -9 427 -9 Z M 413 705 L 486 1000 L 626 1000 L 482 705 L 413 705 Z" unicode="ť" />
<glyph horiz-adv-x="662" d="M 283 0 L 283 311 L 101 311 L 101 399 L 283 399 L 283 713 L 56 713 L 56 800 L 606 800 L 606 713 L 380 713 L 380 399 L 561 399 L 561 311 L 380 311 L 380 0 L 283 0 Z" unicode="Ŧ" />
<glyph horiz-adv-x="662" d="M 427 -9 C 365 -9 316 7 282 41 C 247 74 230 123 230 187 L 230 282 L 109 282 L 109 370 L 230 370 L 230 513 L 76 513 L 76 600 L 230 600 L 230 800 L 327 800 L 327 600 L 563 600 L 563 513 L 327 513 L 327 370 L 534 370 L 534 282 L 327 282 L 327 197 C 327 159 335 130 353 111 C 371 92 397 83 431 83 C 453 83 475 84 495 88 C 515 91 535 96 553 103 L 572 14 C 552 7 530 1 506 -2 C 482 -6 455 -9 427 -9 Z" unicode="ŧ" />
<glyph horiz-adv-x="662" d="M 331 -10 C 253 -10 194 13 156 59 C 118 105 99 176 99 270 L 99 800 L 196 800 L 196 268 C 196 198 206 148 226 119 C 246 90 281 76 331 76 C 380 76 415 90 435 119 C 455 148 466 198 466 268 L 466 800 L 563 800 L 563 270 C 563 176 543 105 505 59 C 467 13 409 -10 331 -10 Z M 404 910 C 381 910 362 916 348 928 C 334 940 321 953 311 968 C 300 982 290 996 281 1008 C 272 1020 262 1026 251 1026 C 239 1026 229 1019 221 1005 C 213 991 209 967 210 931 L 210 920 L 136 920 L 136 935 C 136 985 146 1026 167 1059 C 188 1092 218 1109 258 1109 C 282 1109 302 1103 317 1091 C 331 1079 344 1065 355 1051 C 365 1036 375 1023 383 1011 C 391 999 400 993 411 993 C 423 993 433 999 441 1013 C 449 1027 453 1052 453 1088 L 453 1099 L 526 1099 L 526 1084 C 526 1033 515 991 494 959 C 473 926 443 910 404 910 Z" unicode="Ũ" />
<glyph horiz-adv-x="662" d="M 276 -10 C 222 -10 180 8 148 45 C 116 81 100 130 100 190 L 100 600 L 196 600 L 196 208 C 196 166 204 134 222 113 C 239 92 266 82 302 82 C 330 82 358 90 386 106 C 413 122 440 147 466 181 L 466 600 L 562 600 L 562 0 L 466 0 L 466 93 L 438 93 C 426 62 405 37 375 18 C 345 0 312 -10 276 -10 Z M 404 710 C 381 710 362 716 348 728 C 334 740 321 753 311 768 C 300 782 290 796 281 808 C 272 820 262 826 251 826 C 239 826 229 819 221 805 C 213 791 209 767 210 731 L 210 720 L 136 720 L 136 735 C 136 785 146 826 167 859 C 188 892 218 909 258 909 C 282 909 302 903 317 891 C 331 879 344 865 355 851 C 365 836 375 823 383 811 C 391 799 400 793 411 793 C 423 793 433 799 441 813 C 449 827 453 852 453 888 L 453 899 L 526 899 L 526 884 C 526 833 515 791 494 759 C 473 726 443 710 404 710 Z" unicode="ũ" />
<glyph horiz-adv-x="662" d="M 331 -10 C 253 -10 194 13 156 59 C 118 105 99 176 99 270 L 99 800 L 196 800 L 196 268 C 196 198 206 148 226 119 C 246 90 281 76 331 76 C 380 76 415 90 435 119 C 455 148 466 198 466 268 L 466 800 L 563 800 L 563 270 C 563 176 543 105 505 59 C 467 13 409 -10 331 -10 Z M 146 957 L 146 1043 L 516 1043 L 516 957 L 146 957 Z" unicode="Ū" />
<glyph horiz-adv-x="662" d="M 276 -10 C 222 -10 180 8 148 45 C 116 81 100 130 100 190 L 100 600 L 196 600 L 196 208 C 196 166 204 134 222 113 C 239 92 266 82 302 82 C 330 82 358 90 386 106 C 413 122 440 147 466 181 L 466 600 L 562 600 L 562 0 L 466 0 L 466 93 L 438 93 C 426 62 405 37 375 18 C 345 0 312 -10 276 -10 Z M 146 757 L 146 843 L 516 843 L 516 757 L 146 757 Z" unicode="ū" />
<glyph horiz-adv-x="662" d="M 331 -10 C 253 -10 194 13 156 59 C 118 105 99 176 99 270 L 99 800 L 196 800 L 196 268 C 196 198 206 148 226 119 C 246 90 281 76 331 76 C 380 76 415 90 435 119 C 455 148 466 198 466 268 L 466 800 L 563 800 L 563 270 C 563 176 543 105 505 59 C 467 13 409 -10 331 -10 Z M 331 893 C 268 893 217 909 177 942 C 137 974 116 1027 116 1101 L 211 1101 C 211 1053 221 1019 241 999 C 261 979 291 970 331 970 C 371 970 400 979 420 999 C 440 1019 450 1053 451 1101 L 546 1101 C 545 1027 525 974 485 942 C 445 909 393 893 331 893 Z" unicode="Ŭ" />
<glyph horiz-adv-x="662" d="M 276 -10 C 222 -10 180 8 148 45 C 116 81 100 130 100 190 L 100 600 L 196 600 L 196 208 C 196 166 204 134 222 113 C 239 92 266 82 302 82 C 330 82 358 90 386 106 C 413 122 440 147 466 181 L 466 600 L 562 600 L 562 0 L 466 0 L 466 93 L 438 93 C 426 62 405 37 375 18 C 345 0 312 -10 276 -10 Z M 332 693 C 269 693 218 709 178 742 C 138 774 117 827 117 901 L 212 901 C 212 853 222 819 242 799 C 262 779 292 770 332 770 C 372 770 401 779 421 799 C 441 819 451 853 452 901 L 547 901 C 546 827 526 774 486 742 C 446 709 394 693 332 693 Z" unicode="ŭ" />
<glyph horiz-adv-x="662" d="M 331 -10 C 253 -10 194 13 156 59 C 118 105 99 176 99 270 L 99 800 L 196 800 L 196 268 C 196 198 206 148 226 119 C 246 90 281 76 331 76 C 380 76 415 90 435 119 C 455 148 466 198 466 268 L 466 800 L 563 800 L 563 270 C 563 176 543 105 505 59 C 467 13 409 -10 331 -10 Z M 331 886 C 286 886 250 897 223 921 C 195 944 182 980 182 1030 L 182 1062 C 182 1112 195 1149 223 1173 C 250 1197 286 1209 331 1209 C 375 1209 411 1197 439 1173 C 466 1149 480 1112 480 1062 L 480 1030 C 480 980 466 944 439 921 C 411 897 375 886 331 886 Z M 331 955 C 355 955 374 960 387 972 C 399 984 406 1003 406 1030 L 406 1062 C 406 1088 399 1108 387 1121 C 374 1133 355 1140 331 1140 C 306 1140 287 1133 275 1121 C 262 1108 256 1088 256 1062 L 256 1030 C 256 1003 262 984 275 972 C 287 960 306 955 331 955 Z" unicode="Ů" />
<glyph horiz-adv-x="662" d="M 276 -10 C 222 -10 180 8 148 45 C 116 81 100 130 100 190 L 100 600 L 196 600 L 196 208 C 196 166 204 134 222 113 C 239 92 266 82 302 82 C 330 82 358 90 386 106 C 413 122 440 147 466 181 L 466 600 L 562 600 L 562 0 L 466 0 L 466 93 L 438 93 C 426 62 405 37 375 18 C 345 0 312 -10 276 -10 Z M 332 686 C 287 686 251 697 224 721 C 196 744 183 780 183 830 L 183 862 C 183 912 196 949 224 973 C 251 997 287 1009 332 1009 C 376 1009 412 997 440 973 C 467 949 481 912 481 862 L 481 830 C 481 780 467 744 440 721 C 412 697 376 686 332 686 Z M 332 755 C 356 755 375 760 388 772 C 400 784 407 803 407 830 L 407 862 C 407 888 400 908 388 921 C 375 933 356 940 332 940 C 307 940 288 933 276 921 C 263 908 257 888 257 862 L 257 830 C 257 803 263 784 276 772 C 288 760 307 755 332 755 Z" unicode="ů" />
<glyph horiz-adv-x="662" d="M 331 -10 C 253 -10 194 13 156 59 C 118 105 99 176 99 270 L 99 800 L 196 800 L 196 268 C 196 198 206 148 226 119 C 246 90 281 76 331 76 C 380 76 415 90 435 119 C 455 148 466 198 466 268 L 466 800 L 563 800 L 563 270 C 563 176 543 105 505 59 C 467 13 409 -10 331 -10 Z M 392 900 L 443 1100 L 574 1100 L 458 900 L 392 900 Z M 181 900 L 231 1100 L 363 1100 L 247 900 L 181 900 Z" unicode="Ű" />
<glyph horiz-adv-x="662" d="M 276 -10 C 222 -10 180 8 148 45 C 116 81 100 130 100 190 L 100 600 L 196 600 L 196 208 C 196 166 204 134 222 113 C 239 92 266 82 302 82 C 330 82 358 90 386 106 C 413 122 440 147 466 181 L 466 600 L 562 600 L 562 0 L 466 0 L 466 93 L 438 93 C 426 62 405 37 375 18 C 345 0 312 -10 276 -10 Z M 400 700 L 451 900 L 582 900 L 466 700 L 400 700 Z M 189 700 L 239 900 L 371 900 L 255 700 L 189 700 Z" unicode="ű" />
<glyph horiz-adv-x="662" d="M 392 -215 C 352 -215 319 -204 293 -183 C 266 -161 253 -132 253 -96 C 253 -64 264 -35 288 -10 C 312 14 338 33 367 45 L 392 23 C 371 9 357 -6 349 -23 C 341 -40 338 -55 338 -69 C 338 -87 343 -101 355 -111 C 367 -121 383 -126 404 -126 C 414 -126 428 -125 445 -123 C 461 -121 475 -118 486 -116 L 486 -205 C 473 -207 458 -210 440 -212 C 422 -214 406 -215 392 -215 Z M 331 -10 C 253 -10 194 13 156 59 C 118 105 99 176 99 270 L 99 800 L 196 800 L 196 268 C 196 198 206 148 226 119 C 246 90 281 76 331 76 C 380 76 415 90 435 119 C 455 148 466 198 466 268 L 466 800 L 563 800 L 563 270 C 563 176 543 105 505 59 C 467 13 409 -10 331 -10 Z" unicode="Ų" />
<glyph horiz-adv-x="662" d="M 544 -215 C 504 -215 471 -204 445 -183 C 418 -161 405 -132 405 -96 C 405 -64 416 -35 440 -10 C 464 14 490 33 519 45 L 544 23 C 523 9 509 -6 501 -23 C 493 -40 490 -55 490 -69 C 490 -87 495 -101 507 -111 C 519 -121 535 -126 556 -126 C 566 -126 580 -125 597 -123 C 613 -121 627 -118 638 -116 L 638 -205 C 625 -207 610 -210 592 -212 C 574 -214 558 -215 544 -215 Z M 276 -10 C 222 -10 180 8 148 45 C 116 81 100 130 100 190 L 100 600 L 196 600 L 196 208 C 196 166 204 134 222 113 C 239 92 266 82 302 82 C 330 82 358 90 386 106 C 413 122 440 147 466 181 L 466 600 L 562 600 L 562 0 L 466 0 L 466 93 L 438 93 C 426 62 405 37 375 18 C 345 0 312 -10 276 -10 Z" unicode="ų" />
<glyph horiz-adv-x="662" d="M 437 0 L 331 480 L 226 0 L 130 0 L 31 800 L 126 800 L 190 149 L 284 600 L 382 600 L 476 149 L 541 800 L 631 800 L 532 0 L 437 0 Z M 171 908 L 132 968 L 295 1116 L 365 1116 L 530 968 L 491 908 L 330 1022 L 171 908 Z" unicode="Ŵ" />
<glyph horiz-adv-x="662" d="M 411 0 L 331 392 L 254 0 L 147 0 L 44 600 L 136 600 L 204 77 L 275 501 L 383 501 L 461 93 L 526 600 L 618 600 L 515 0 L 411 0 Z M 172 708 L 133 768 L 296 916 L 366 916 L 531 768 L 492 708 L 331 822 L 172 708 Z" unicode="ŵ" />
<glyph horiz-adv-x="662" d="M 380 0 L 283 0 L 283 300 L 23 800 L 130 800 L 336 391 L 533 800 L 638 800 L 380 300 L 380 0 Z M 171 908 L 132 968 L 295 1116 L 365 1116 L 530 968 L 491 908 L 330 1022 L 171 908 Z" unicode="Ŷ" />
<glyph horiz-adv-x="662" d="M 172 -206 C 157 -206 142 -205 127 -203 C 111 -201 95 -198 79 -195 L 95 -108 C 111 -112 126 -115 140 -117 C 154 -119 167 -120 179 -120 C 209 -120 235 -111 256 -94 C 276 -77 293 -50 305 -12 L 308 -2 L 268 -2 L 75 600 L 180 600 L 333 81 L 485 600 L 586 600 L 389 -21 C 368 -87 339 -135 302 -163 C 265 -191 222 -206 172 -206 Z M 171 708 L 132 768 L 295 916 L 365 916 L 530 768 L 491 708 L 330 822 L 171 708 Z" unicode="ŷ" />
<glyph horiz-adv-x="662" d="M 380 0 L 283 0 L 283 300 L 23 800 L 130 800 L 336 391 L 533 800 L 638 800 L 380 300 L 380 0 Z M 225 911 C 206 911 191 915 180 923 C 168 931 163 945 163 967 L 163 974 C 163 996 168 1011 180 1019 C 191 1027 206 1032 225 1032 C 243 1032 258 1027 269 1019 C 280 1011 286 996 286 974 L 286 967 C 286 945 280 931 269 923 C 257 915 243 911 225 911 Z M 437 911 C 418 911 403 915 392 923 C 381 931 376 945 376 967 L 376 974 C 376 996 381 1011 392 1019 C 403 1027 418 1032 437 1032 C 455 1032 470 1027 482 1019 C 493 1011 499 996 499 974 L 499 967 C 499 945 493 931 481 923 C 469 915 455 911 437 911 Z" unicode="Ÿ" />
<glyph horiz-adv-x="662" d="M 580 0 L 82 0 L 82 87 L 467 713 L 82 713 L 82 800 L 580 800 L 580 713 L 195 87 L 580 87 L 580 0 Z M 253 900 L 377 1100 L 519 1100 L 339 900 L 253 900 Z" unicode="Ź" />
<glyph horiz-adv-x="662" d="M 545 0 L 117 0 L 117 87 L 431 513 L 117 513 L 117 600 L 545 600 L 545 513 L 234 87 L 545 87 L 545 0 Z M 228 700 L 352 900 L 494 900 L 314 700 L 228 700 Z" unicode="ź" />
<glyph horiz-adv-x="662" d="M 580 0 L 82 0 L 82 87 L 467 713 L 82 713 L 82 800 L 580 800 L 580 713 L 195 87 L 580 87 L 580 0 Z M 331 911 C 307 911 287 915 273 923 C 258 931 251 945 251 967 L 251 974 C 251 996 258 1011 273 1019 C 287 1027 307 1032 331 1032 C 355 1032 374 1027 389 1019 C 403 1011 411 996 411 974 L 411 967 C 411 945 403 931 388 923 C 373 915 354 911 331 911 Z" unicode="Ż" />
<glyph horiz-adv-x="662" d="M 545 0 L 117 0 L 117 87 L 431 513 L 117 513 L 117 600 L 545 600 L 545 513 L 234 87 L 545 87 L 545 0 Z M 334 711 C 310 711 290 715 276 723 C 261 731 254 745 254 767 L 254 774 C 254 796 261 811 276 819 C 290 827 310 832 334 832 C 358 832 377 827 392 819 C 406 811 414 796 414 774 L 414 767 C 414 745 406 731 391 723 C 376 715 357 711 334 711 Z" unicode="ż" />
<glyph horiz-adv-x="662" d="M 580 0 L 82 0 L 82 87 L 467 713 L 82 713 L 82 800 L 580 800 L 580 713 L 195 87 L 580 87 L 580 0 Z M 297 904 L 132 1052 L 171 1112 L 332 999 L 491 1112 L 530 1052 L 367 904 L 297 904 Z" unicode="Ž" />
<glyph horiz-adv-x="662" d="M 545 0 L 117 0 L 117 87 L 431 513 L 117 513 L 117 600 L 545 600 L 545 513 L 234 87 L 545 87 L 545 0 Z M 296 704 L 131 852 L 170 912 L 331 799 L 490 912 L 529 852 L 366 704 L 296 704 Z" unicode="ž" />
<glyph horiz-adv-x="662" d="M 283 0 L 283 513 L 172 513 L 172 600 L 283 600 L 283 640 C 283 693 299 734 332 764 C 364 793 405 808 453 808 C 470 808 490 805 512 800 C 534 794 554 788 571 782 L 553 701 C 538 706 523 711 508 715 C 492 719 477 721 463 721 C 437 721 416 714 402 701 C 387 688 380 668 380 642 L 380 0 L 283 0 Z" unicode="ſ" />
<glyph horiz-adv-x="662" d="M 74 904 L 74 1000 L 588 1000 L 588 904 L 74 904 Z" unicode="‾" />
<glyph horiz-adv-x="662" d="M 165 711 C 141 711 121 715 107 723 C 92 731 85 745 85 767 L 85 774 C 85 796 92 811 107 819 C 121 827 141 832 165 832 C 189 832 208 827 222 819 C 236 811 244 796 244 774 L 244 767 C 244 745 236 731 222 723 C 207 715 188 711 165 711 Z M 512 711 C 488 711 468 715 454 723 C 439 731 432 745 432 767 L 432 774 C 432 796 439 811 454 819 C 468 827 488 832 512 832 C 536 832 555 827 570 819 C 584 811 592 796 592 774 L 592 767 C 592 745 584 731 569 723 C 554 715 535 711 512 711 Z M 213 0 L 117 0 L 117 600 L 213 600 L 213 0 Z M 358 -208 C 337 -208 316 -206 296 -203 C 276 -199 254 -194 231 -186 L 249 -92 C 269 -100 287 -105 304 -109 C 320 -112 337 -114 354 -114 C 388 -114 415 -104 436 -86 C 456 -67 467 -36 467 7 L 467 513 L 348 513 L 348 600 L 563 600 L 563 -6 C 563 -74 543 -125 504 -158 C 464 -191 416 -208 358 -208 Z" unicode="" />
<glyph horiz-adv-x="662" d="M 425 0 L 329 0 L 329 513 L 120 513 L 120 600 L 425 600 L 425 0 Z M 377 711 C 353 711 333 715 319 723 C 304 731 297 745 297 767 L 297 774 C 297 796 304 811 319 819 C 333 827 353 832 377 832 C 401 832 420 827 435 819 C 449 811 457 796 457 774 L 457 767 C 457 745 449 731 434 723 C 419 715 400 711 377 711 Z" unicode="" />
<glyph horiz-adv-x="662" d="M 425 0 L 329 0 L 329 513 L 120 513 L 120 600 L 425 600 L 425 0 Z M 227 711 C 208 711 193 715 182 723 C 170 731 165 745 165 767 L 165 774 C 165 796 170 811 182 819 C 193 827 208 832 227 832 C 245 832 260 827 271 819 C 282 811 288 796 288 774 L 288 767 C 288 745 282 731 271 723 C 259 715 245 711 227 711 Z M 439 711 C 420 711 405 715 394 723 C 383 731 378 745 378 767 L 378 774 C 378 796 383 811 394 819 C 405 827 420 832 439 832 C 457 832 472 827 484 819 C 495 811 501 796 501 774 L 501 767 C 501 745 495 731 483 723 C 471 715 457 711 439 711 Z" unicode="" />
<glyph horiz-adv-x="662" d="M 315 78 L 10 390 L 10 410 L 315 722 L 334 722 L 334 447 L 652 447 L 652 353 L 334 353 L 334 78 L 315 78 Z" unicode="←" />
<glyph horiz-adv-x="662" d="M 283 3 L 283 453 L 30 453 L 30 473 L 322 797 L 340 797 L 632 473 L 632 453 L 380 453 L 380 3 L 283 3 Z" unicode="↑" />
<glyph horiz-adv-x="662" d="M 209 -6 C 199 -6 188 -5 176 -4 C 164 -3 151 -2 139 0 C 126 2 114 4 103 7 C 91 10 81 14 73 18 L 92 102 C 100 98 109 95 118 93 C 127 90 136 88 144 86 C 152 84 160 83 168 83 C 176 82 183 82 190 82 C 208 82 222 83 234 87 C 246 91 255 97 263 105 C 270 113 275 124 278 138 C 281 151 283 168 283 188 L 283 411 L 90 411 L 90 498 L 283 498 L 283 640 C 283 665 287 688 295 709 C 303 729 315 747 330 763 C 345 777 363 788 384 796 C 405 804 428 808 453 808 C 463 808 474 807 486 806 C 498 805 510 804 523 802 C 535 800 547 797 559 794 C 570 791 580 788 588 784 L 570 701 C 561 704 552 707 543 710 C 534 712 525 715 517 717 C 509 718 501 719 493 720 C 485 720 478 721 471 721 C 453 721 439 719 427 715 C 415 711 406 705 400 697 C 392 688 387 677 384 664 C 381 650 380 634 380 614 L 380 498 L 580 498 L 580 411 L 380 411 L 380 162 C 380 136 376 113 368 92 C 360 71 348 53 333 39 C 317 24 299 13 278 5 C 257 -2 234 -6 209 -6 Z" unicode="ƒ" />
<glyph horiz-adv-x="662" d="M 322 3 L 30 327 L 30 347 L 283 347 L 283 797 L 380 797 L 380 347 L 632 347 L 632 327 L 340 3 L 322 3 Z" unicode="↓" />
<glyph horiz-adv-x="662" d="M 266 353 L 266 78 L 248 78 L 10 390 L 10 410 L 248 722 L 266 722 L 266 447 L 396 447 L 396 722 L 414 722 L 652 410 L 652 390 L 414 78 L 396 78 L 396 353 L 266 353 Z" unicode="↔" />
<glyph horiz-adv-x="662" d="M 340 -97 L 322 -97 L 30 230 L 30 250 L 283 250 L 283 550 L 30 550 L 30 570 L 322 897 L 340 897 L 632 570 L 632 550 L 380 550 L 380 250 L 632 250 L 632 230 L 340 -97 Z" unicode="↕" />
<glyph horiz-adv-x="662" d="M 464 -5 C 407 -5 362 12 330 46 C 298 80 282 127 282 187 L 282 513 L 83 513 L 83 600 L 379 600 L 379 184 C 379 150 386 125 401 108 C 415 91 438 83 469 83 C 482 83 498 84 516 88 C 534 91 548 96 560 102 L 579 18 C 564 10 547 5 527 1 C 507 -3 486 -5 464 -5 Z M 203 711 C 184 711 169 715 158 723 C 146 731 141 745 141 767 L 141 774 C 141 796 146 811 158 819 C 169 827 184 832 203 832 C 221 832 236 827 247 819 C 258 811 264 796 264 774 L 264 767 C 264 745 258 731 247 723 C 235 715 221 711 203 711 Z M 415 711 C 396 711 381 715 370 723 C 359 731 354 745 354 767 L 354 774 C 354 796 359 811 370 819 C 381 827 396 832 415 832 C 433 832 448 827 460 819 C 471 811 477 796 477 774 L 477 767 C 477 745 471 731 459 723 C 447 715 433 711 415 711 Z" unicode="" />
<glyph horiz-adv-x="662" d="M 100 0 L 467 800 L 562 800 L 195 0 L 100 0 Z" unicode="⁄" />
<glyph horiz-adv-x="662" d="M 176 -300 L 263 -100 L 406 -100 L 262 -300 L 176 -300 Z M 425 0 L 329 0 L 329 713 L 103 713 L 103 800 L 425 800 L 425 0 Z" unicode="" />
<glyph horiz-adv-x="662" d="M 187 714 L 187 412 L 100 412 L 100 800 L 218 800 L 475 506 L 475 800 L 562 800 L 562 412 L 444 412 L 187 714 Z M 412 -14 C 367 -14 331 -1 305 24 C 278 50 265 88 265 138 L 265 192 C 265 243 278 282 305 308 C 331 334 367 347 412 347 C 458 347 494 334 520 308 C 546 282 560 243 560 192 L 560 138 C 560 88 546 50 520 24 C 493 -1 457 -14 412 -14 Z M 412 60 C 434 60 451 66 463 78 C 474 90 480 110 480 138 L 480 192 C 480 220 474 240 463 254 C 451 267 434 274 412 274 C 389 274 372 267 361 254 C 350 240 345 220 345 192 L 345 138 C 345 110 350 90 361 78 C 372 66 389 60 412 60 Z" unicode="№" />
<glyph horiz-adv-x="662" d="M 0 850 L 662 850 L 662 300 L 331 300 L 331 -250 L 0 -250 L 0 850 Z" unicode="▛" />
<glyph horiz-adv-x="662" d="M 425 0 L 329 0 L 329 713 L 103 713 L 103 800 L 425 800 L 425 0 Z M 538 705 L 611 1000 L 751 1000 L 607 705 L 538 705 Z" unicode="" />
<glyph horiz-adv-x="662" d="M 74 -196 L 74 -100 L 588 -100 L 588 -196 L 74 -196 Z M 340 -97 L 322 -97 L 30 230 L 30 250 L 283 250 L 283 550 L 30 550 L 30 570 L 322 897 L 340 897 L 632 570 L 632 550 L 380 550 L 380 250 L 632 250 L 632 230 L 340 -97 Z" unicode="↨" />
<glyph horiz-adv-x="662" d="M 425 0 L 329 0 L 329 713 L 103 713 L 103 800 L 425 800 L 425 0 Z M 578 309 C 554 309 534 313 520 321 C 505 329 498 343 498 365 L 498 372 C 498 394 505 409 520 417 C 534 425 554 430 578 430 C 602 430 621 425 636 417 C 650 409 658 394 658 372 L 658 365 C 658 343 650 329 635 321 C 620 313 601 309 578 309 Z" unicode="" />
<glyph horiz-adv-x="662" d="M 425 0 L 329 0 L 329 352 L 192 312 L 192 389 L 329 430 L 329 713 L 103 713 L 103 800 L 425 800 L 425 458 L 561 499 L 561 421 L 425 381 L 425 0 Z" unicode="" />
<glyph horiz-adv-x="662" d="M 364 -215 C 324 -215 291 -204 265 -183 C 238 -161 225 -132 225 -96 C 225 -64 236 -35 260 -10 C 284 14 310 33 339 45 L 364 23 C 343 9 329 -6 321 -23 C 313 -40 310 -55 310 -69 C 310 -87 315 -101 327 -111 C 339 -121 355 -126 376 -126 C 386 -126 400 -125 417 -123 C 433 -121 447 -118 458 -116 L 458 -205 C 445 -207 430 -210 412 -212 C 394 -214 378 -215 364 -215 Z M 380 87 L 579 87 L 579 0 L 283 0 L 283 513 L 83 513 L 83 600 L 380 600 L 380 87 Z M 331 710 C 307 710 287 714 273 722 C 258 730 251 744 251 766 L 251 773 C 251 795 258 810 273 818 C 287 826 307 831 331 831 C 355 831 374 826 389 818 C 403 810 411 795 411 773 L 411 766 C 411 744 403 730 388 722 C 373 714 354 710 331 710 Z" unicode="" />
<glyph horiz-adv-x="662" d="M 464 -5 C 407 -5 362 12 330 46 C 298 80 282 127 282 187 L 282 513 L 83 513 L 83 600 L 379 600 L 379 184 C 379 150 386 125 401 108 C 415 91 438 83 469 83 C 482 83 498 84 516 88 C 534 91 548 96 560 102 L 579 18 C 564 10 547 5 527 1 C 507 -3 486 -5 464 -5 Z M 331 710 C 307 710 287 714 273 722 C 258 730 251 744 251 766 L 251 773 C 251 795 258 810 273 818 C 287 826 307 831 331 831 C 355 831 374 826 389 818 C 403 810 411 795 411 773 L 411 766 C 411 744 403 730 388 722 C 373 714 354 710 331 710 Z" unicode="" />
<glyph horiz-adv-x="662" d="M 174 410 L 174 482 L 299 482 L 299 702 L 285 702 C 281 688 276 676 269 666 C 261 655 252 646 242 638 C 231 630 219 623 207 619 C 194 615 181 613 168 613 L 163 686 C 177 686 192 689 207 694 C 221 699 235 707 248 717 C 260 727 271 739 281 754 C 290 768 297 786 301 806 L 386 806 L 386 482 L 500 482 L 500 410 L 174 410 Z M 10 250 L 10 349 L 302 329 L 302 270 L 10 250 Z M 373 270 L 373 329 L 652 349 L 652 250 L 373 270 Z M 336 -215 C 301 -215 272 -212 248 -207 C 224 -201 205 -194 191 -184 C 177 -174 166 -161 160 -147 C 154 -133 151 -116 151 -98 L 151 -84 C 151 -71 153 -60 157 -50 C 161 -40 167 -31 175 -24 C 183 -16 192 -9 204 -5 C 215 -1 228 1 243 3 L 243 21 C 231 22 221 24 211 28 C 201 32 192 37 185 43 C 177 49 172 56 168 64 C 164 72 162 81 162 91 L 162 111 C 162 129 165 144 173 157 C 181 169 192 180 207 189 C 221 197 239 203 261 207 C 283 211 308 213 336 213 C 364 213 389 211 411 207 C 432 203 450 198 465 190 C 479 181 490 170 498 157 C 506 144 510 129 510 111 L 510 91 C 510 81 508 72 504 64 C 500 56 494 49 487 43 C 479 37 471 32 461 28 C 451 24 440 22 429 21 L 429 3 C 443 1 456 -1 468 -6 C 480 -10 490 -16 498 -24 C 506 -32 512 -41 516 -51 C 520 -61 522 -72 522 -84 L 522 -98 C 522 -117 518 -134 512 -148 C 506 -162 496 -175 482 -185 C 467 -195 448 -202 424 -207 C 400 -212 370 -215 336 -215 Z M 336 46 C 351 46 364 46 375 48 C 386 49 395 51 403 55 C 410 58 415 62 419 68 C 422 73 424 80 424 88 L 424 102 C 424 110 422 116 419 121 C 415 126 410 130 403 134 C 395 137 386 139 375 141 C 364 142 351 143 336 143 C 320 143 307 142 296 141 C 285 139 276 137 269 134 C 262 130 257 126 253 121 C 249 116 248 110 248 102 L 248 88 C 248 80 249 73 253 68 C 257 62 262 58 269 55 C 276 52 285 50 296 48 C 307 46 320 46 336 46 Z M 336 -145 C 356 -145 373 -143 387 -141 C 400 -139 410 -135 417 -130 C 424 -125 429 -119 431 -113 C 433 -106 435 -98 435 -89 L 435 -80 C 435 -70 433 -62 431 -55 C 429 -48 424 -42 417 -38 C 410 -33 400 -29 387 -27 C 373 -24 356 -23 336 -23 C 314 -23 297 -24 284 -27 C 271 -29 261 -33 254 -38 C 247 -42 242 -48 240 -55 C 238 -61 237 -70 237 -80 L 237 -89 C 237 -99 238 -107 240 -113 C 242 -119 247 -125 254 -130 C 261 -135 271 -139 284 -141 C 297 -143 314 -145 336 -145 Z" unicode="⅛" />
<glyph horiz-adv-x="662" d="M 464 -5 C 407 -5 362 12 330 46 C 298 80 282 127 282 187 L 282 513 L 83 513 L 83 600 L 379 600 L 379 184 C 379 150 386 125 401 108 C 415 91 438 83 469 83 C 482 83 498 84 516 88 C 534 91 548 96 560 102 L 579 18 C 564 10 547 5 527 1 C 507 -3 486 -5 464 -5 Z" unicode="" />
<glyph horiz-adv-x="662" d="M 464 -5 C 407 -5 362 12 330 46 C 298 80 282 127 282 187 L 282 513 L 83 513 L 83 600 L 379 600 L 379 184 C 379 150 386 125 401 108 C 415 91 438 83 469 83 C 482 83 498 84 516 88 C 534 91 548 96 560 102 L 579 18 C 564 10 547 5 527 1 C 507 -3 486 -5 464 -5 Z M 309 700 L 128 900 L 271 900 L 394 700 L 309 700 Z" unicode="" />
<glyph horiz-adv-x="662" d="M 464 -5 C 407 -5 362 12 330 46 C 298 80 282 127 282 187 L 282 513 L 83 513 L 83 600 L 379 600 L 379 184 C 379 150 386 125 401 108 C 415 91 438 83 469 83 C 482 83 498 84 516 88 C 534 91 548 96 560 102 L 579 18 C 564 10 547 5 527 1 C 507 -3 486 -5 464 -5 Z M 212 700 L 336 900 L 478 900 L 298 700 L 212 700 Z" unicode="" />
<glyph horiz-adv-x="662" d="M 464 -5 C 407 -5 362 12 330 46 C 298 80 282 127 282 187 L 282 513 L 83 513 L 83 600 L 379 600 L 379 184 C 379 150 386 125 401 108 C 415 91 438 83 469 83 C 482 83 498 84 516 88 C 534 91 548 96 560 102 L 579 18 C 564 10 547 5 527 1 C 507 -3 486 -5 464 -5 Z M 149 708 L 110 768 L 273 916 L 343 916 L 508 768 L 469 708 L 308 822 L 149 708 Z" unicode="" />
<glyph horiz-adv-x="662" d="M 331 -10 C 245 -10 182 21 142 85 C 102 148 82 236 82 349 L 82 447 C 82 560 102 649 142 713 C 182 777 246 810 332 810 C 417 810 480 777 520 713 C 560 649 580 560 580 447 L 580 349 C 580 236 560 148 520 85 C 480 21 417 -10 331 -10 Z M 178 358 C 178 318 179 282 183 252 C 187 221 193 194 202 170 L 397 708 C 387 712 377 716 367 719 C 356 721 344 723 331 723 C 271 723 230 698 209 649 C 188 599 178 529 178 438 L 178 358 Z M 331 77 C 391 77 431 101 452 149 C 473 197 484 266 484 358 L 484 438 C 484 484 481 525 476 560 C 471 594 462 624 450 649 L 252 99 C 262 92 274 87 287 83 C 299 79 314 77 331 77 Z" unicode="" />
<glyph horiz-adv-x="662" d="M 380 87 L 579 87 L 579 0 L 283 0 L 283 713 L 83 713 L 83 800 L 380 800 L 380 87 Z M 605 309 C 581 309 561 313 547 321 C 532 329 525 343 525 365 L 525 372 C 525 394 532 409 547 417 C 561 425 581 430 605 430 C 629 430 648 425 663 417 C 677 409 685 394 685 372 L 685 365 C 685 343 677 329 662 321 C 647 313 628 309 605 309 Z" unicode="" />
<glyph horiz-adv-x="662" d="M 464 -5 C 407 -5 362 12 330 46 C 298 80 282 127 282 187 L 282 513 L 83 513 L 83 600 L 379 600 L 379 184 C 379 150 386 125 401 108 C 415 91 438 83 469 83 C 482 83 498 84 516 88 C 534 91 548 96 560 102 L 579 18 C 564 10 547 5 527 1 C 507 -3 486 -5 464 -5 Z M 203 711 C 184 711 169 715 158 723 C 146 731 141 745 141 767 L 141 774 C 141 796 146 811 158 819 C 169 827 184 832 203 832 C 221 832 236 827 247 819 C 258 811 264 796 264 774 L 264 767 C 264 745 258 731 247 723 C 235 715 221 711 203 711 Z M 415 711 C 396 711 381 715 370 723 C 359 731 354 745 354 767 L 354 774 C 354 796 359 811 370 819 C 381 827 396 832 415 832 C 433 832 448 827 460 819 C 471 811 477 796 477 774 L 477 767 C 477 745 471 731 459 723 C 447 715 433 711 415 711 Z" unicode="" />
<glyph horiz-adv-x="662" d="" unicode=" " />
<glyph horiz-adv-x="662" d="M 464 -5 C 407 -5 362 12 330 46 C 298 80 282 127 282 187 L 282 513 L 83 513 L 83 600 L 379 600 L 379 184 C 379 150 386 125 401 108 C 415 91 438 83 469 83 C 482 83 498 84 516 88 C 534 91 548 96 560 102 L 579 18 C 564 10 547 5 527 1 C 507 -3 486 -5 464 -5 Z M 382 710 C 359 710 340 716 326 728 C 312 740 299 753 289 768 C 278 782 268 796 259 808 C 250 820 240 826 229 826 C 217 826 207 819 199 805 C 191 791 187 767 188 731 L 188 720 L 114 720 L 114 735 C 114 785 124 826 145 859 C 166 892 196 909 236 909 C 260 909 280 903 295 891 C 309 879 322 865 333 851 C 343 836 353 823 361 811 C 369 799 378 793 389 793 C 401 793 411 799 419 813 C 427 827 431 852 431 888 L 431 899 L 504 899 L 504 884 C 504 833 493 791 472 759 C 451 726 421 710 382 710 Z" unicode="" />
<glyph horiz-adv-x="662" d="M 464 -5 C 407 -5 362 12 330 46 C 298 80 282 127 282 187 L 282 513 L 83 513 L 83 600 L 379 600 L 379 184 C 379 150 386 125 401 108 C 415 91 438 83 469 83 C 482 83 498 84 516 88 C 534 91 548 96 560 102 L 579 18 C 564 10 547 5 527 1 C 507 -3 486 -5 464 -5 Z M 123 757 L 123 843 L 493 843 L 493 757 L 123 757 Z" unicode="" />
<glyph horiz-adv-x="662" d="M 464 -5 C 407 -5 362 12 330 46 C 298 80 282 127 282 187 L 282 513 L 83 513 L 83 600 L 379 600 L 379 184 C 379 150 386 125 401 108 C 415 91 438 83 469 83 C 482 83 498 84 516 88 C 534 91 548 96 560 102 L 579 18 C 564 10 547 5 527 1 C 507 -3 486 -5 464 -5 Z M 309 693 C 246 693 195 709 155 742 C 115 774 94 827 94 901 L 189 901 C 189 853 199 819 219 799 C 239 779 269 770 309 770 C 349 770 378 779 398 799 C 418 819 428 853 429 901 L 524 901 C 523 827 503 774 463 742 C 423 709 371 693 309 693 Z" unicode="" />
<glyph horiz-adv-x="662" d="M 482 -215 C 442 -215 409 -204 383 -183 C 356 -161 343 -132 343 -96 C 343 -64 354 -35 378 -10 C 402 14 428 33 457 45 L 482 23 C 461 9 447 -6 439 -23 C 431 -40 428 -55 428 -69 C 428 -87 433 -101 445 -111 C 457 -121 473 -126 494 -126 C 504 -126 518 -125 535 -123 C 551 -121 565 -118 576 -116 L 576 -205 C 563 -207 548 -210 530 -212 C 512 -214 496 -215 482 -215 Z M 331 710 C 307 710 287 714 273 722 C 258 730 251 744 251 766 L 251 773 C 251 795 258 810 273 818 C 287 826 307 831 331 831 C 355 831 374 826 389 818 C 403 810 411 795 411 773 L 411 766 C 411 744 403 730 388 722 C 373 714 354 710 331 710 Z M 464 -5 C 407 -5 362 12 330 46 C 298 80 282 127 282 187 L 282 513 L 83 513 L 83 600 L 379 600 L 379 184 C 379 150 386 125 401 108 C 415 91 438 83 469 83 C 482 83 498 84 516 88 C 534 91 548 96 560 102 L 579 18 C 564 10 547 5 527 1 C 507 -3 486 -5 464 -5 Z" unicode="" />
<glyph horiz-adv-x="662" d="M 425 0 L 329 0 L 329 513 L 120 513 L 120 600 L 425 600 L 425 0 Z" unicode="" />
<glyph horiz-adv-x="662" d="M 165 711 C 141 711 121 715 107 723 C 92 731 85 745 85 767 L 85 774 C 85 796 92 811 107 819 C 121 827 141 832 165 832 C 189 832 208 827 222 819 C 236 811 244 796 244 774 L 244 767 C 244 745 236 731 222 723 C 207 715 188 711 165 711 Z M 512 711 C 488 711 468 715 454 723 C 439 731 432 745 432 767 L 432 774 C 432 796 439 811 454 819 C 468 827 488 832 512 832 C 536 832 555 827 570 819 C 584 811 592 796 592 774 L 592 767 C 592 745 584 731 569 723 C 554 715 535 711 512 711 Z M 213 0 L 117 0 L 117 600 L 213 600 L 213 0 Z M 358 -208 C 337 -208 316 -206 296 -203 C 276 -199 254 -194 231 -186 L 249 -92 C 269 -100 287 -105 304 -109 C 320 -112 337 -114 354 -114 C 388 -114 415 -104 436 -86 C 456 -67 467 -36 467 7 L 467 513 L 348 513 L 348 600 L 563 600 L 563 -6 C 563 -74 543 -125 504 -158 C 464 -191 416 -208 358 -208 Z" unicode="" />
<glyph horiz-adv-x="662" d="M 331 404 C 296 404 267 406 244 410 C 220 414 201 420 187 429 C 172 438 161 450 153 466 C 145 481 141 501 140 525 L 226 531 C 227 518 229 508 233 501 C 237 493 243 488 251 484 C 258 480 268 477 281 475 C 294 473 311 473 332 473 C 350 473 366 474 379 476 C 391 478 401 481 409 485 C 416 488 421 493 425 499 C 428 505 430 512 430 521 L 430 547 C 430 555 428 561 425 567 C 422 573 417 578 410 582 C 402 585 392 588 380 590 C 367 592 351 593 333 593 L 157 593 L 157 806 L 497 806 L 497 737 L 243 737 L 243 667 L 354 667 C 380 667 404 664 424 660 C 444 655 461 648 475 639 C 489 630 499 618 506 604 C 513 590 517 573 517 555 L 517 521 C 517 503 513 487 505 473 C 497 459 486 446 471 436 C 455 426 436 418 413 412 C 389 406 362 404 331 404 Z M 10 250 L 10 349 L 302 329 L 302 270 L 10 250 Z M 373 270 L 373 329 L 652 349 L 652 250 L 373 270 Z M 336 -215 C 301 -215 272 -212 248 -207 C 224 -201 205 -194 191 -184 C 177 -174 166 -161 160 -147 C 154 -133 151 -116 151 -98 L 151 -84 C 151 -71 153 -60 157 -50 C 161 -40 167 -31 175 -24 C 183 -16 192 -9 204 -5 C 215 -1 228 1 243 3 L 243 21 C 231 22 221 24 211 28 C 201 32 192 37 185 43 C 177 49 172 56 168 64 C 164 72 162 81 162 91 L 162 111 C 162 129 165 144 173 157 C 181 169 192 180 207 189 C 221 197 239 203 261 207 C 283 211 308 213 336 213 C 364 213 389 211 411 207 C 432 203 450 198 465 190 C 479 181 490 170 498 157 C 506 144 510 129 510 111 L 510 91 C 510 81 508 72 504 64 C 500 56 494 49 487 43 C 479 37 471 32 461 28 C 451 24 440 22 429 21 L 429 3 C 443 1 456 -1 468 -6 C 480 -10 490 -16 498 -24 C 506 -32 512 -41 516 -51 C 520 -61 522 -72 522 -84 L 522 -98 C 522 -117 518 -134 512 -148 C 506 -162 496 -175 482 -185 C 467 -195 448 -202 424 -207 C 400 -212 370 -215 336 -215 Z M 336 46 C 351 46 364 46 375 48 C 386 49 395 51 403 55 C 410 58 415 62 419 68 C 422 73 424 80 424 88 L 424 102 C 424 110 422 116 419 121 C 415 126 410 130 403 134 C 395 137 386 139 375 141 C 364 142 351 143 336 143 C 320 143 307 142 296 141 C 285 139 276 137 269 134 C 262 130 257 126 253 121 C 249 116 248 110 248 102 L 248 88 C 248 80 249 73 253 68 C 257 62 262 58 269 55 C 276 52 285 50 296 48 C 307 46 320 46 336 46 Z M 336 -145 C 356 -145 373 -143 387 -141 C 400 -139 410 -135 417 -130 C 424 -125 429 -119 431 -113 C 433 -106 435 -98 435 -89 L 435 -80 C 435 -70 433 -62 431 -55 C 429 -48 424 -42 417 -38 C 410 -33 400 -29 387 -27 C 373 -24 356 -23 336 -23 C 314 -23 297 -24 284 -27 C 271 -29 261 -33 254 -38 C 247 -42 242 -48 240 -55 C 238 -61 237 -70 237 -80 L 237 -89 C 237 -99 238 -107 240 -113 C 242 -119 247 -125 254 -130 C 261 -135 271 -139 284 -141 C 297 -143 314 -145 336 -145 Z" unicode="⅝" />
<glyph horiz-adv-x="662" d="M 464 -5 C 407 -5 362 12 330 46 C 298 80 282 127 282 187 L 282 513 L 83 513 L 83 600 L 379 600 L 379 184 C 379 150 386 125 401 108 C 415 91 438 83 469 83 C 482 83 498 84 516 88 C 534 91 548 96 560 102 L 579 18 C 564 10 547 5 527 1 C 507 -3 486 -5 464 -5 Z M 331 710 C 307 710 287 714 273 722 C 258 730 251 744 251 766 L 251 773 C 251 795 258 810 273 818 C 287 826 307 831 331 831 C 355 831 374 826 389 818 C 403 810 411 795 411 773 L 411 766 C 411 744 403 730 388 722 C 373 714 354 710 331 710 Z" unicode="" />
<glyph horiz-adv-x="662" d="M 430 319 L 331 689 L 230 319 L 430 319 Z M 516 0 L 453 233 L 206 233 L 143 0 L 45 0 L 280 800 L 383 800 L 618 0 L 516 0 Z M 332 886 C 287 886 251 897 224 921 C 196 944 183 980 183 1030 L 183 1062 C 183 1112 196 1149 224 1173 C 251 1197 287 1209 332 1209 C 376 1209 412 1197 440 1173 C 467 1149 481 1112 481 1062 L 481 1030 C 481 980 467 944 440 921 C 412 897 376 886 332 886 Z M 332 955 C 356 955 375 960 388 972 C 400 984 407 1003 407 1030 L 407 1062 C 407 1088 400 1108 388 1121 C 375 1133 356 1140 332 1140 C 307 1140 288 1133 276 1121 C 263 1108 257 1088 257 1062 L 257 1030 C 257 1003 263 984 276 972 C 288 960 307 955 332 955 Z M 281 1200 L 405 1400 L 547 1400 L 367 1200 L 281 1200 Z" unicode="Ǻ" />
<glyph horiz-adv-x="662" d="M 265 74 C 297 74 327 80 353 93 C 379 105 401 127 420 157 L 420 256 L 263 256 C 234 256 211 249 194 236 C 176 222 168 199 168 167 C 168 137 175 114 190 98 C 205 82 230 74 265 74 Z M 251 -10 C 201 -10 159 4 125 32 C 90 60 73 103 73 161 C 73 213 89 254 121 284 C 153 314 192 330 239 330 L 420 330 L 420 420 C 420 450 410 475 391 494 C 371 512 342 522 304 522 C 264 522 234 515 215 501 C 195 487 180 459 169 415 L 85 439 C 95 495 119 538 155 567 C 191 595 241 610 303 610 C 364 610 415 595 456 566 C 496 537 517 493 517 433 L 517 155 C 517 121 526 99 544 90 C 562 80 589 79 625 86 L 625 -3 C 583 -9 546 -6 514 6 C 482 19 465 49 462 97 L 443 97 C 426 66 400 40 366 20 C 332 0 293 -10 251 -10 Z M 313 686 C 268 686 232 697 205 721 C 177 744 164 780 164 830 L 164 862 C 164 912 177 949 205 973 C 232 997 268 1009 313 1009 C 357 1009 393 997 421 973 C 448 949 462 912 462 862 L 462 830 C 462 780 448 744 421 721 C 393 697 357 686 313 686 Z M 313 755 C 337 755 356 760 369 772 C 381 784 388 803 388 830 L 388 862 C 388 888 381 908 369 921 C 356 933 337 940 313 940 C 288 940 269 933 257 921 C 244 908 238 888 238 862 L 238 830 C 238 803 244 784 257 772 C 269 760 288 755 313 755 Z M 261 1000 L 385 1200 L 527 1200 L 347 1000 L 261 1000 Z" unicode="ǻ" />
<glyph horiz-adv-x="662" d="M 344 900 L 468 1100 L 610 1100 L 430 900 L 344 900 Z M 282 723 L 173 309 L 339 309 L 339 723 L 282 723 Z M 339 233 L 153 233 L 92 0 L 11 0 L 231 800 L 642 800 L 642 723 L 425 723 L 425 468 L 633 468 L 633 392 L 425 392 L 425 77 L 642 77 L 642 0 L 339 0 L 339 233 Z" unicode="Ǽ" />
</font>
</defs>
</svg>
